<?xml version='1.0' encoding='utf-8'?>
<svg xmlns="http://www.w3.org/2000/svg" version="1.1" viewBox="0 0 531.5 531.5">
 <defs>
  <linearGradient id="l" x1="359.62" x2="217.56" y1="303.11" y2="133.3" gradientUnits="userSpaceOnUse">
   <stop stop-color="#fca" offset="0"/>
   <stop stop-color="#fff" offset="1"/>
  </linearGradient>
  <linearGradient id="m" x1="262.48" x2="279.49" y1="687.78" y2="851.41" gradientTransform="translate(1.3091 -1.3091)" gradientUnits="userSpaceOnUse">
   <stop stop-color="#ff0" offset="0"/>
   <stop stop-color="#9fb371" offset="1"/>
  </linearGradient>
  <linearGradient id="n" x1="262.48" x2="279.49" y1="687.78" y2="851.41" gradientTransform="matrix(-1 0 0 1 442.48 -.65455)" gradientUnits="userSpaceOnUse">
   <stop stop-color="#ff0" offset="0"/>
   <stop stop-color="#abab6e" offset="1"/>
  </linearGradient>
  <linearGradient id="o" x1="192.22" x2="190.14" y1="690.04" y2="747.7" gradientTransform="matrix(1.2045 -.096933 .10793 1.0706 -116.14 -28.753)" gradientUnits="userSpaceOnUse">
   <stop stop-color="#6f0" offset="0"/>
   <stop stop-color="#cfa" offset="1"/>
  </linearGradient>
  <linearGradient id="p" x1="210.07" x2="238.54" y1="692.19" y2="726.31" gradientTransform="matrix(1.211 0 0 1.289 -31.666 -204.03)" gradientUnits="userSpaceOnUse">
   <stop stop-color="#6f0" offset="0"/>
   <stop stop-color="#cfa" offset="1"/>
  </linearGradient>
  <linearGradient id="q" x1="53.486" x2="100.61" y1="199.15" y2="235.97" gradientUnits="userSpaceOnUse">
   <stop stop-color="#ff2a2a" offset="0"/>
   <stop stop-color="#ff8080" offset="1"/>
  </linearGradient>
  <linearGradient id="r" x1="186.55" x2="241.53" y1="848.14" y2="624.29" gradientUnits="userSpaceOnUse">
   <stop stop-color="#fff" stop-opacity="0" offset="0"/>
   <stop stop-color="#f7f700" offset="1"/>
  </linearGradient>
  <linearGradient id="s" x1="214.69" x2="295.86" y1="672.07" y2="816.07" gradientTransform="translate(2.8307e-8 -1.3091)" gradientUnits="userSpaceOnUse">
   <stop stop-color="#7fff2a" offset="0"/>
   <stop stop-color="#ffff90" offset="1"/>
  </linearGradient>
  <linearGradient id="t" x1="193.75" x2="172.15" y1="658.98" y2="722.47" gradientUnits="userSpaceOnUse">
   <stop stop-color="#2aff2a" offset="0"/>
   <stop stop-color="#1db31d" offset="1"/>
  </linearGradient>
  <linearGradient id="u" x1="217.9" x2="294.07" y1="668.12" y2="684.48" gradientUnits="userSpaceOnUse">
   <stop stop-color="#2aff2a" offset="0"/>
   <stop stop-color="#22ce22" offset="1"/>
  </linearGradient>
  <linearGradient id="v" x1="214.69" x2="339.06" y1="691.05" y2="743.41" gradientUnits="userSpaceOnUse">
   <stop stop-color="#6905ff" offset="0"/>
   <stop stop-color="#e1d0fc" offset="1"/>
  </linearGradient>
 </defs>
 <g transform="translate(0 -520.87)">
  <g transform="matrix(1.4041 0 0 1.539 -13.179 -462.71)">
   <g transform="matrix(.15232 .0094832 -.038404 .42666 160.58 517.09)">
    <g transform="matrix(5.0914 0 0 1.7779 -1406.6 -596.28)">
     <g fill="none" stroke="#000" stroke-width="1px">
      <path transform="translate(0 520.87)" d="m344.29 246.77 15.055 129.6"/>
      <path transform="translate(0 520.87)" d="m367.2 248.08 3.2728 123.06"/>
      <path transform="translate(0 520.87)" d="m359.35 375.71 11.782-4.5819"/>
      <path transform="translate(0 520.87)" d="m344.29 246.11h22.255l-0.65455 3.9273"/>
     </g>
     <path transform="translate(0 520.87)" d="m352.79 312.65c-3.9043-33.75-7.2462-62.322-7.4266-63.492l-0.32787-2.1273h10.308c10.196 0 10.304 0.0151 9.9428 1.3947-0.20061 0.76711-4e-3 1.7558 0.43769 2.1972 0.98042 0.98042 4.2247 119.21 3.2959 120.11-0.66735 0.64762-7.4486 3.2759-8.4534 3.2764-0.41147 1.9e-4 -3.4636-24.086-7.776-61.364z" fill="#fca"/>
    </g>
    <path transform="translate(0 520.87)" d="m383.61 363.21c-21.061-63.181-38.022-114.87-37.692-114.87 0.33025 0 0.60047-0.73637 0.60047-1.6364v-1.6364h115.22l-2.0506 4.091c-2.4702 4.928-2.1381 4.5352-3.4194 4.0435-0.95092-0.3649-0.92619-0.66146 0.24689-2.9609l1.3037-2.5554h-54.996c-30.248 0-54.996 0.20081-54.996 0.44624 0 0.59812 75.345 226.94 75.653 227.27 0.3392 0.35959 54.031-6.992 54.501-7.4625 0.35751-0.3575-15.281-209.73-16.072-215.18-0.31638-2.179-0.20004-2.4546 1.0364-2.4546 0.86384 0 1.3928 0.41451 1.3928 1.0915 0 0.60033 3.6818 49.346 8.1819 108.32 4.5 58.977 8.1819 107.38 8.1819 107.56 0 0.18295 0.44182 0.33263 0.98183 0.33263 0.54546 0 0.98183 0.58182 0.98183 1.3091 0 0.72001-0.40383 1.3091-0.8974 1.3091s-13.885 1.7673-29.758 3.9273-29.142 3.9273-29.484 3.9273c-0.34296 0-17.855-51.693-38.916-114.87z" fill="#fca"/>
    <path transform="translate(0 520.87)" d="m415.24 455.99c-10.36-30.097-50.041-149.07-60.23-180.58-4.6719-14.448-8.4943-27.188-8.4943-28.309v-2.0394h57.273c31.5 0 57.266 0.22091 57.258 0.49092-0.034 1.0938-3.644 6.9664-4.4396 7.2223-0.65874 0.21189-0.62119-0.2843 0.16364-2.1627 0.56018-1.3407 1.0185-2.549 1.0185-2.685 0-0.13604-24.742-0.24734-54.982-0.24734-43.549 0-54.982 0.17013-54.982 0.81818 0 0.45 16.961 51.701 37.691 113.89 34.871 104.61 37.799 113.07 39.13 113.07 3.7567 0 52.656-6.8586 53.269-7.4714 0.44425-0.44424-4.7899-73.863-11.007-154.39-2.4955-32.325-4.5373-59.669-4.5373-60.764 0-1.3022 0.28325-1.8975 0.81819-1.7195 0.57533 0.19143 1.1408 4.5306 1.9051 14.618 0.5978 7.8904 4.2526 56.319 8.1218 107.62 5.6584 75.023 7.2293 93.501 8.0286 94.435 0.5959 0.69617 0.75098 1.3786 0.38737 1.7047-0.53235 0.47739-55.221 7.9754-57.956 7.9459-0.79993-9e-3 -2.8571-5.2387-8.4364-21.448z" fill="#fca"/>
   </g>
   <g transform="matrix(.84328 0 0 .87216 -107.65 155.28)">
    <g transform="matrix(.66966 0 0 .5971 119.39 322.29)">
     <g transform="matrix(1.5678 0 0 1.8212 -205.23 -656.81)">
      <path d="m440.51 825.23-42.546 24.218c-9.8183 5.891-20.291-5.2364-20.291-5.2364l-15.709-39.928 24.873-3.9273 2.6182 34.691s-1.3091 7.2001 7.2001 5.2364l36.655-19.637z" fill="none" stroke="#000" stroke-width="1px"/>
      <path transform="translate(0 520.87)" d="m388.41 328.92c-3.1143-1.0153-6.8802-3.237-8.6262-5.0892-1.1542-1.2244-4.2298-8.1878-9.0001-20.377-3.9857-10.184-7.2467-18.74-7.2467-19.013 0-0.51871 21.632-4.0567 22.324-3.6512 0.21808 0.12784 0.60373 3.4077 0.857 7.2886 2.1295 32.631 2.0442 32.256 7.3455 32.256 2.3916 0 5.4576-1.4103 19.699-9.0613 9.2765-4.9837 17.477-9.3845 18.224-9.7795 1.1139-0.58943 1.84-0.39865 4.0493 1.064l2.692 1.7822-21.651 12.343c-22.298 12.712-24.426 13.62-28.666 12.237z" fill="#fca"/>
     </g>
     <path transform="translate(0 520.87)" d="m389.53 363.02-3.0854-3.1325-12.418-36.594c-6.8301-20.127-12.352-36.63-12.272-36.673 0.0805-0.0432 9.0533-1.699 19.94-3.6794l19.793-3.6008 0.31346 2.0058c0.58199 3.7241 4.3943 66.585 4.0586 66.921-0.60162 0.60161-1.0774-4.984-3.1038-36.434-1.1015-17.096-2.0553-31.135-2.1195-31.198-0.0944-0.0927-37.102 6.7212-37.559 6.9155-0.0731 0.031 5.3154 16.183 11.974 35.893l12.107 35.837 3.3853 3.4364c1.8619 1.89 3.0897 3.4364 2.7285 3.4364s-2.0452-1.4096-3.7422-3.1325z" fill="#fca"/>
     <path transform="translate(0 520.87)" d="m403.01 308.88c-4e-3 -2.16 0.11552-3.1226 0.26487-2.139 0.14936 0.98357 0.15236 2.7509 7e-3 3.9273-0.14567 1.1764-0.26787 0.37172-0.27155-1.7883z" fill="#fca"/>
     <path transform="translate(0 520.87)" d="m401.43 371.16c-3.7101-1.5262-8.0841-4.2683-7.5925-4.7599 0.14689-0.14689 1.9641 0.75486 4.0384 2.0039s5.4185 2.6129 7.4318 3.0309c6.8793 1.4281 8.2398 0.79193 31.902-14.919 11.694-7.7645 21.408-13.971 21.586-13.793 0.44756 0.44755-40.677 27.711-43.692 28.966-3.5694 1.4853-9.3184 1.2632-13.673-0.52831z" fill="#fca"/>
     <path transform="translate(0 520.87)" d="m405.76 370.11c-2.851-0.67357-7.3546-3.0709-11.293-6.0116-5.3748-4.013-6.7426-7.2702-21.462-51.108l-8.072-24.041 2.4133-0.63086c3.5226-0.92086 22.156-4.4716 25.977-4.95 1.8-0.22539 3.9097-0.54015 4.6883-0.69946 1.8994-0.38865 1.8855-0.49971 3.8431 30.786 2.4604 39.321 2.8562 40.921 10.124 40.921 4.9276 0 9.1021-2.29 45.806-25.128 8.4536-5.2599 15.696-9.5635 16.094-9.5635 0.39788 0 2.4213 1.2158 4.4965 2.7019l3.7731 2.7019-17.903 11.873c-29.621 19.644-42.501 27.824-48.012 30.492-5.9325 2.872-7.6816 3.3157-10.473 2.6562z" fill="#fca"/>
     <path transform="translate(0 520.87)" d="m405.76 370.11c-2.8693-0.67789-7.3622-3.0765-11.372-6.0712-2.9436-2.1983-3.9192-3.4946-5.9793-7.9446-2.6841-5.7978-9.1471-23.996-17.861-50.293-4.8172-14.537-5.4291-16.875-4.4914-17.162 3.4529-1.0559 23.974-4.9306 30.982-5.8499 2.3399-0.30696 2.4158-0.25013 2.7909 2.0899 0.21207 1.323 1.1229 13.981 2.024 28.129 1.7519 27.506 2.4484 34.176 3.9416 37.749 1.1583 2.7723 2.6331 3.6186 6.3044 3.618 4.6511-6.5e-4 8.5913-2.1618 44.034-24.15 9.3451-5.7975 17.324-10.541 17.73-10.541 0.40641 0 2.4418 1.2194 4.5231 2.7098l3.7842 2.7098-23.151 15.333c-41.747 27.65-47.723 30.98-53.26 29.672z" fill="#fca"/>
     <path transform="translate(0 520.87)" d="m405.43 370.13c-2.8989-0.89696-7.4366-3.4016-11.045-6.0963-2.9416-2.1969-3.9212-3.4975-5.9832-7.9446-2.851-6.1486-9.9674-26.179-17.87-50.301-4.7067-14.366-5.3606-16.884-4.4547-17.157 2.4756-0.74567 13.758-3.0297 21.191-4.2898 13.486-2.2863 12.066-2.3023 12.506 0.14081 0.21228 1.1785 1.1345 13.63 2.0493 27.67 2.7051 41.515 3.1554 43.154 11.545 42.029 3.9935-0.53564 10.594-4.1702 35.842-19.736 12.739-7.8537 23.638-14.404 24.221-14.557 1.2787-0.33439 8.3034 4.4269 7.9008 5.3551-0.27601 0.63623-44.101 29.729-55.954 37.144-10.147 6.3482-16.493 8.8108-19.948 7.7416z" fill="#fca"/>
     <path transform="translate(0 520.87)" d="m403.63 369.46c-4.3875-1.5889-11.159-6.3014-13.018-9.059-2.9502-4.3778-9.8555-23.135-20.228-54.947l-5.3858-16.518 2.3791-0.67373c2.8899-0.8184 24.74-4.9412 28.998-5.4713l3.055-0.38042 0.38535 2.4346c0.21194 1.339 1.1282 13.48 2.0362 26.98 2.5279 37.585 3.1782 41.268 7.453 42.207 2.6436 0.58063 6.5544-0.0933 8.692-1.4979 1.4514-0.95371 3.2316-1.0811 12.724-0.91073l11.036 0.19813-9.491 6.2152c-9.7914 6.4118-19.798 11.718-23.237 12.321-1.1303 0.19839-3.4218-0.18337-5.3994-0.89953z" fill="#fca"/>
     <path transform="translate(0 520.87)" d="m403.63 369.48c-4.4038-1.6124-11.167-6.3258-13.018-9.0728-0.79087-1.1736-2.3889-4.4093-3.5511-7.1904-2.8087-6.7212-12.514-34.522-17.814-51.029l-4.2526-13.244 2.3808-0.67422c2.6473-0.7497 24.221-4.8638 28.995-5.5294 2.9482-0.41103 3.0627-0.36399 3.4222 1.406 0.20457 1.0072 1.1239 13.024 2.043 26.704 2.334 34.741 2.9803 39.56 5.625 41.951 1.5255 1.3789 1.0508 1.3399 18.26 1.4978l12.109 0.11108-7.5274 4.8977c-9.0951 5.9177-17.836 10.528-20.946 11.047-1.4817 0.24742-3.5045-0.0618-5.7267-0.87545z" fill="#fca"/>
     <path transform="translate(0 520.87)" d="m403.23 369.41c-6.8764-2.855-11.663-6.8319-14.155-11.76-4.7423-9.3796-24.69-68.091-23.383-68.823 1.5623-0.87433 30.345-6.4496 33.301-6.4505 0.81199-2.4e-4 1.1681 3.5051 2.8259 27.818 1.7822 26.137 2.6362 35.326 3.6252 39.006 0.95548 3.555 2.7827 4.8552 6.7706 4.8178 4.217-0.0396 9.7011-2.8505 30.522-15.644 8.1001-4.9773 18.354-11.275 22.787-13.996l8.0591-4.9461 2.2066 1.1883c1.2136 0.65357 3.126 1.9625 4.2499 2.9087l2.0433 1.7204-13.291 8.7897c-46.488 30.744-54.526 35.628-59.819 36.344-1.7422 0.23561-3.5803-0.0759-5.7413-0.97316z" fill="#fca"/>
     <path transform="translate(0 520.87)" d="m403.4 369.53c-3.5189-1.4117-9.5145-5.2781-11.525-7.4319-3.2676-3.5013-7.4372-14.296-19.541-50.59-5.892-17.667-7.235-22.351-6.5224-22.75 1.4711-0.82326 30.094-6.384 32.861-6.384 1.1672 0 1.3314 1.4887 3.5014 31.746 2.859 39.865 2.8394 39.787 10.077 39.787 4.5524 0 9.1491-2.438 37.577-19.93 11.76-7.2364 22.03-13.453 22.822-13.815 1.1717-0.53573 2.0442-0.26973 4.6952 1.4314 1.7908 1.1492 3.5779 2.4772 3.9713 2.9512 0.56405 0.67965-4.8572 4.5284-25.641 18.203-29.359 19.317-33.181 21.725-39.717 25.016-5.7991 2.9204-8.6722 3.3243-12.558 1.7655z" fill="#fca"/>
     <path transform="translate(0 520.87)" d="m408.96 352.79c-1.7445-0.75943-2.8798-2.127-2.8798-3.469 0-0.20313 0.7223 0.41006 1.6051 1.3626 1.3608 1.4683 2.1829 1.7419 5.4001 1.7972 2.8884 0.0497 3.404 0.19043 2.1585 0.58931-2.4239 0.77627-4.0208 0.70509-6.2839-0.28011z" fill="#fca"/>
     <path transform="translate(0 520.87)" d="m403.4 369.53c-3.5141-1.4098-9.509-5.2742-11.529-7.4319-3.3477-3.576-7.4779-14.291-19.88-51.572-5.9379-17.85-6.9175-21.355-6.0971-21.814 1.0472-0.58607 24.537-5.2611 30.143-5.9992 3.3129-0.43619 3.3796-0.41117 3.7561 1.4086 0.21081 1.019 1.2767 14.224 2.3686 29.344 2.9058 40.237 2.9216 40.302 9.7574 40.355 5.1765 0.0401 7.3211-1.1337 51.572-28.225 11.186-6.8486 10.946-6.8127 16.159-2.4184l2.5489 2.1486-27.422 18.013c-42.491 27.911-44.517 28.944-51.377 26.192z" fill="#fca"/>
     <path transform="translate(0 520.87)" d="m403.4 369.53c-3.5141-1.4098-9.509-5.2742-11.529-7.4319-3.3579-3.5868-7.332-13.87-19.554-50.596-4.0734-12.24-7.1999-22.442-6.9477-22.672 0.82537-0.75141 29.915-6.456 32.921-6.456 0.72081 0 1.2786 0.66451 1.5111 1.8 0.20265 0.99001 1.264 13.992 2.3585 28.893 2.1792 29.668 2.7978 35.227 4.2287 37.994 1.1534 2.2305 2.1442 2.659 6.1473 2.659 4.6326 0 6.4744-1.014 49.316-27.152 13.009-7.9373 12.517-7.8434 17.793-3.396l2.5435 2.1441-23.162 15.29c-36.671 24.208-44.851 29.07-50.116 29.789-1.6156 0.22075-3.5664-0.0857-5.5106-0.86564z" fill="#fca"/>
     <path transform="translate(0 520.87)" d="m403.95 369.83c-4.1609-1.5347-9.6657-5.1696-12.253-8.0908-1.7062-1.9265-3.5152-5.4432-5.8925-11.455-4.7908-12.115-21.028-60.906-20.448-61.446 0.83761-0.78019 29.837-6.4658 32.979-6.4658 0.69225 0 1.3183 0.61034 1.5106 1.4727 0.18066 0.81001 1.2187 13.696 2.3068 28.637 2.5772 35.385 3.2337 39.671 6.2554 40.83 2.8043 1.0761 10.644-0.17292 9.7876-1.5593-0.34231-0.55386 50.638-32.38 51.111-31.907 0.17917 0.17917-4.8282 3.5293-11.128 7.4448-6.2993 3.9155-11.146 7.2258-10.769 7.3563 0.3762 0.13051 5.1501-2.4958 10.609-5.8363 5.4585-3.3405 11.22-6.8107 12.804-7.7116l2.8796-1.638 2.7906 1.4804c1.5348 0.81422 3.4186 2.1489 4.1862 2.966l1.3957 1.4856-23.979 15.846c-43.149 28.514-47.757 30.947-54.146 28.591zm31.265-27.101c12.046-7.1731 11.136-6.5651 10.607-7.0944-0.38376-0.38376-24.025 13.959-24.025 14.575 0 0.43132 2.0625-0.71856 13.418-7.481z" fill="#fca"/>
     <path transform="translate(0 520.87)" d="m403.95 369.83c-4.1609-1.5347-9.6657-5.1696-12.253-8.0908-1.703-1.9229-3.5218-5.4544-5.8994-11.455-4.8625-12.271-21.009-60.911-20.417-61.503 0.56559-0.56559 24.766-5.4291 30.368-6.1029 3.5529-0.42739 3.7502-0.37448 4.0854 1.0953 0.19368 0.8494 1.2445 13.621 2.3351 28.381 2.7662 37.437 3.2568 40.39 6.8605 41.294 2.7714 0.69559 7.2334-0.0937 9.9215-1.755 1.3733-0.84875 2.8704-1.598 3.3268-1.665 1.144-0.1679 22.903-13.162 23.408-13.979 0.22399-0.36242 0.039-0.65894-0.41103-0.65894-0.45005 0-0.24653-0.43246 0.45228-0.96101 1.5379-1.1632 2.5052-1.2866 1.8564-0.23686-0.79653 1.2888 0.94915 0.34539 13.42-7.2524 6.5529-3.9924 12.268-7.2578 12.7-7.2565 0.43209 1e-3 1.7429 0.58611 2.9129 1.2995s2.1273 1.1083 2.1273 0.87758c0-0.23071 0.73097 0.43123 1.6244 1.471 1.2678 1.4754 1.4474 2.0518 0.81819 2.6254-0.89611 0.81696-41.225 27.349-52.249 34.374-9.1492 5.8304-16.637 9.6124-19.904 10.054-1.5099 0.20393-3.6617-0.0313-5.0833-0.55559zm57.48-29.119c0.342-0.31449 5.5555-3.8534 11.586-7.8642s10.953-7.509 10.939-7.7737c-0.0137-0.26474-1.2622-1.365-2.7746-2.445s-3.7229-2.6824-4.9124-3.5609c-2.1261-1.5703-2.1961-1.5775-4.1435-0.42714-2.8329 1.6734-3.0834 0.82768-0.26989-0.91116l2.3438-1.4485 3.5536 2.683c1.9544 1.4756 4.008 2.683 4.5635 2.683 0.55546 0 0.93628 0.2556 0.84628 0.568s0.52753 1.1334 1.3723 1.8245l1.5359 1.2565-12.026 7.9938c-6.6144 4.3966-12.298 7.9938-12.631 7.9938-0.35616 0-0.349-0.23483 0.0175-0.57179h-3e-5z" fill="#fca"/>
     <path transform="translate(0 520.87)" d="m403.95 369.8c-4.0873-1.4584-9.6414-5.1124-12.253-8.0612-1.703-1.9229-3.5218-5.4544-5.8994-11.455-4.8625-12.271-21.009-60.911-20.417-61.503 0.57104-0.57104 25.064-5.5198 30.456-6.1534 3.4529-0.40583 3.6559-0.34836 3.995 1.1313 0.35286 1.5397 4.2928 52.376 4.2928 55.389 0 0.85631 0.29012 1.3776 0.6447 1.1585 0.39704-0.24539 0.49801 0.33499 0.26283 1.5109-0.54959 2.748 0.94665 9.1737 2.4972 10.724 1.938 1.9379 7.9354 1.4221 11.591-0.9969 1.4726-0.9745 2.6774-1.5963 2.6774-1.3819s0.95728-0.17562 2.1273-0.86688c21.059-12.442 23.305-13.905 21.35-13.905-0.45005 0-0.24653-0.43246 0.45228-0.96101 1.4699-1.1118 2.5138-1.3005 1.9251-0.3481-0.76271 1.2341 0.44229 0.64696 8.233-4.0115 4.2919-2.5664 7.8035-5.0644 7.8035-5.5512s0.81-1.0558 1.8-1.2644c1.9316-0.40702 2.6146-0.70972 5.8509-2.5932 2.0166-1.1736 2.1756-1.1749 4.6976-0.0376 1.4357 0.6474 3.399 2.0003 4.3629 3.0064l1.7526 1.8293-13.65 8.9899c-44.096 29.041-50.85 33.237-56.71 35.225-3.7286 1.2651-4.6093 1.2792-7.8423 0.12558z" fill="#fca"/>
     <path transform="translate(0 520.87)" d="m400.77 368.32c-2.8073-1.403-6.2164-3.8039-8.1326-5.7273-2.8342-2.8449-3.7708-4.5109-6.6456-11.821-6.3193-16.068-21.318-61.246-20.586-62.006 0.53672-0.55658 25.075-5.5105 30.389-6.135 3.1629-0.37173 3.6465-0.27377 3.9693 0.80404 0.20217 0.67504 1.301 13.598 2.4419 28.719s2.321 27.586 2.6224 27.701c0.30147 0.11531 0.38336 1.0335 0.18198 2.0404-0.59005 2.9503 0.93093 8.844 2.7148 10.52 1.3857 1.3018 2.0466 1.443 5.22 1.1155 2.0759-0.21425 4.6758-1.0192 6.0651-1.8778 1.3374-0.82655 2.7312-1.5479 3.0973-1.603 0.78519-0.11811 21.013-12.122 22.92-13.602 0.96098-0.74553 1.0528-1.0211 0.34527-1.0364-0.66406-0.0143-0.52792-0.32614 0.43773-1.0025 0.77086-0.53993 1.8083-0.8256 2.3055-0.63482 0.97725 0.37501 12.235-6.0876 14.912-8.5605 0.90001-0.83136 2.4354-1.709 3.412-1.9503 0.97657-0.24134 2.523-1.1862 3.4364-2.0996 0.91344-0.91345 1.6608-1.3261 1.6608-0.917 0 0.44554 1.185 0.74381 2.9551 0.74381 2.4458 0 3.3719 0.38198 5.3737 2.2165l2.4186 2.2165-15.683 10.316c-42.243 27.786-49.16 32.071-54.815 33.954-4.4502 1.4821-5.5885 1.3403-11.017-1.3726z" fill="#fca"/>
     <path transform="translate(0 520.87)" d="m400.77 368.32c-2.7898-1.3943-6.2387-3.8194-8.1571-5.7355-2.8773-2.874-3.7694-4.4613-6.644-11.821-7.051-18.052-21.338-61.156-20.55-61.998 0.52009-0.5552 25.044-5.5084 30.375-6.135 3.1632-0.37178 3.6462-0.27389 3.9674 0.80404 0.20114 0.67504 1.2705 13.157 2.3763 27.737s2.302 27.194 2.6582 28.031c0.35617 0.83698 0.47601 1.7994 0.26631 2.1387-0.65407 1.0583 0.47489 7.8109 1.4727 8.8088 0.52199 0.52199 0.70712 0.95887 0.4114 0.97085-0.29572 0.012 0.1577 0.60107 1.0076 1.3091 2.5141 2.0945 7.8496 1.4404 12.037-1.4756 0.99001-0.68945 1.8-1.0962 1.8-0.90378 0 0.34949 10.803-5.8371 19.145-10.964 2.4296-1.4932 4.2891-3.0587 4.1323-3.4789-0.3154-0.84491 1.1237-1.6581 3.4143-1.9293 1.5186-0.17981 9.866-4.9725 13.732-7.8843 1.1728-0.88332 4.1914-2.6652 6.7079-3.9597l4.5755-2.3537 2.5715 1.1596c1.4143 0.63777 3.3591 1.9817 4.3218 2.9865l1.7503 1.8269-6.7752 4.5297c-14.568 9.74-50.218 32.835-54.619 35.384-5.6835 3.2914-10.827 5.3686-13.293 5.3686-1.0183 0-4.0265-1.0871-6.6849-2.4157z" fill="#fca"/>
     <path transform="translate(0 520.87)" d="m400.77 368.32c-2.7898-1.3943-6.2387-3.8194-8.1571-5.7355-2.8734-2.8701-3.7747-4.4713-6.6541-11.821-7.0686-18.042-21.358-61.14-20.553-61.99 0.53654-0.5665 25.069-5.5357 30.333-6.1441 3.5517-0.41052 3.7464-0.35673 4.0812 1.1278 0.30925 1.3709 1.3106 13.448 3.6841 44.432 0.37229 4.86 0.96537 9.7488 1.318 10.864s0.46115 2.4962 0.24128 3.0692c-0.53146 1.385 0.93423 8.3218 1.7583 8.3218 0.35572 0 0.47273 0.28161 0.26001 0.6258s0.36677 1.1195 1.2878 1.723c3.4301 2.2475 8.7999 0.30002 24.222-8.7845 9.5211-5.6085 12.866-7.9246 12.439-8.6145-0.4675-0.75643 0.75245-1.459 2.9849-1.7189 1.9232-0.22392 11.63-5.692 14.781-8.3271 1.0272-0.85876 2.5303-1.7688 3.3403-2.0223 0.81001-0.25352 1.4728-0.73564 1.4728-1.0714 0-0.33574 0.22091-0.55737 0.49091-0.49251 0.27 0.0649 1.5849-0.42646 2.922-1.0918 2.3431-1.166 2.5249-1.1675 5.0248-0.0401 1.4266 0.64331 3.3931 2.0039 4.37 3.0236l1.7762 1.8539-18.489 12.181c-43.98 28.977-50.908 33.046-56.25 33.046-1.0183 0-4.0265-1.0871-6.6849-2.4157zm64.554-46.668c-0.22932-0.37104 0.0335-0.48078 0.61592-0.25725 1.134 0.43514 1.3414 0.9043 0.3999 0.9043-0.33875 0-0.79588-0.29117-1.0158-0.64705z" fill="#fca"/>
     <path transform="translate(0 520.87)" d="m401.03 368.45c-9.5351-4.7702-11.602-7.7102-18.265-25.978-4.6063-12.629-17.052-50.089-17.36-52.248-0.22313-1.5667 0.0234-1.6757 7.624-3.3712 4.32-0.96371 11.919-2.4336 16.886-3.2665 7.3651-1.2349 9.1301-1.3549 9.5654-0.65062 0.5823 0.94219 0.61425 1.2822 2.9923 31.839 0.89653 11.52 1.8111 21.682 2.0323 22.582 0.22124 0.90001 0.48859 3.5859 0.59412 5.9686 0.10554 2.3827 0.5801 5.0336 1.0546 5.891 0.47449 0.85735 0.80198 1.7742 0.72777 2.0373-0.0742 0.26319 0.60735 0.9649 1.5146 1.5594 3.5252 2.3098 7.9956 0.63795 24.852-9.2938 10.468-6.1678 12.263-7.4097 10.8-7.4711-0.54-0.0227 0.17626-0.75272 1.5917-1.6223 1.4154-0.86958 2.8044-1.4383 3.0867-1.2639 0.68836 0.42544 4.9202-1.7796 10.571-5.5081 2.5512-1.6834 6.6591-4.1853 9.1287-5.5598 5.3598-2.9832 6.9305-2.8656 11.096 0.83061l2.8137 2.497-18.325 12.079c-44.403 29.268-51.165 33.238-56.611 33.238-0.98638 0-3.8524-1.0301-6.3689-2.289z" fill="#fca"/>
    </g>
   </g>
   <g transform="matrix(.66702 .21088 -.20388 .69164 -51.071 163.56)">
    <g transform="matrix(.47587 -.0029465 -.0021164 .42554 322.11 372.02)">
     <g transform="matrix(1.8987 .01858 .013345 2.216 -558.66 -794.91)">
      <g fill="none" stroke="#000" stroke-width="1px">
       <path transform="matrix(1.3194 -.077062 .062125 1.4808 169.02 406.53)" d="m328.58 225.17 69.382-32.073"/>
       <path transform="matrix(1.3194 -.077062 .062125 1.4808 169.02 406.53)" d="m332.51 235.64 72.655-33.382s17.018 3.2728 15.055-9.8183c0 0 3.2728-5.891-3.9273-11.782 0 0-10.473-5.2364-12.436-0.65455 0 0-7.8546 2.6182-7.8546 5.891 0 0-2.6182 6.5455 0 8.5092"/>
       <path transform="matrix(1.3194 -.077062 .062125 1.4808 169.02 406.53)" d="m327.93 223.86 3.2728 12.436"/>
      </g>
      <path transform="matrix(1.3194 -.077062 .062125 1.4808 169.02 406.53)" d="m330.59 230.53c-0.61212-2.5505-1.0278-4.7224-0.9237-4.8265 0.10409-0.10409 15.501-7.253 34.214-15.886 20.475-9.4462 34.106-16.09 34.227-16.683 0.14819-0.72391-0.18248-0.88509-1.2455-0.6071-1.3767 0.36002-1.425 0.23921-0.99046-2.4783 0.69234-4.3296 1.7515-5.9472 4.9797-7.6052 1.62-0.83203 3.5209-1.9574 4.2241-2.5007 1.7239-1.332 3.5509-1.2442 7.8896 0.37905 2.7564 1.0313 4.0646 1.9881 5.3273 3.8961 1.5488 2.3404 1.6444 2.9098 1.281 7.6331-0.26065 3.3877-0.78793 5.6355-1.568 6.6846-1.5838 2.1298-5.6439 3.4595-9.6266 3.1525-3.1048-0.23931-5.1033 0.58519-38.946 16.068-19.62 8.9761-36.136 16.566-36.702 16.866-0.85091 0.45126-1.2205-0.25504-2.1414-4.0919z" fill="#ffb380"/>
     </g>
     <path transform="matrix(1.3194 -.077062 .062125 1.4808 169.02 406.53)" d="m336.06 303.01c-1.1989-1.4446-4.3794-17.849-3.6053-18.595 0.35427-0.3415 14.341-8.0446 31.081-17.118 78.423-42.506 98.183-53.72 98.183-55.72 0-0.94041-0.50256-1.2047-2.2909-1.2047-2.6968 0-2.7324-0.1955-1.3516-7.4126 1.568-8.1954 3.488-10.816 12.152-16.584 1.62-1.0787 4.1237-2.7723 5.5637-3.7636 3.0786-2.1193 5.1962-2.0057 12.225 0.65587 5.6173 2.1271 9.7327 5.7683 12.279 10.864 1.6788 3.3597 2.0029 4.7682 1.991 8.6538-0.0201 6.579-1.5532 17.359-2.8159 19.8-2.5754 4.9789-9.3467 8.0772-17.653 8.0772-7.0064 0-11.942 2.2292-51.845 23.415-17.08 9.0685-90.895 48.591-92.709 49.639-0.22921 0.13243-0.77099-0.18605-1.2039-0.70773z" fill="#ffb380"/>
     <path transform="matrix(1.3194 -.077062 .062125 1.4808 169.02 406.53)" d="m336.08 303.03c-1.2111-1.4593-4.4-17.861-3.6205-18.621 0.35427-0.34555 15.666-8.7799 34.026-18.743 62.195-33.75 90.961-49.811 94.092-52.535 1.8745-1.6308 1.4065-2.7573-1.1455-2.7573-2.6968 0-2.7324-0.1955-1.3516-7.4126 1.6668-8.7117 3.1545-10.565 14.77-18.402 6.3498-4.284 7.0969-4.3475 15.17-1.2904 5.6173 2.1271 9.7327 5.7683 12.279 10.864 1.7147 3.4315 2.0034 4.7326 1.9925 8.9811-0.0141 5.4834-1.4431 16.482-2.474 19.041-1.0109 2.5096-4.7213 5.7173-7.9885 6.9063-1.6187 0.58905-5.8993 1.298-9.5125 1.5754-8.127 0.62406-10.799 1.7239-35.322 14.537-14.127 7.3812-78.396 41.695-104.8 55.955-4.5832 2.475-5.4206 2.7354-6.1131 1.9011z" fill="#ffb380"/>
     <path transform="matrix(1.3194 -.077062 .062125 1.4808 169.02 406.53)" d="m337.48 305.88c0.20142-0.60426 93.156-50.882 125.22-67.73 5.76-3.0266 10.126-5.5076 9.7031-5.5134-1.7231-0.0236-33.622 16.722-116.4 61.102-15.67 8.4018-19.132 10.028-19.844 9.3197-1.2208-1.2143-4.5297-17.852-3.709-18.65 0.35427-0.34435 18.464-10.329 40.245-22.188 64.343-35.033 83.754-45.897 87.661-49.06 1.9078-1.5448 1.3283-2.7896-1.2986-2.7896-2.282 0-2.332-0.37615-0.98568-7.4126 1.5631-8.1696 3.6628-11.143 11.34-16.056 3.3304-2.1316 4.6068-3.7565 2.2849-2.909-2.616 0.95489-8.2622 4.4411-10.268 6.34-2.2958 2.1733-3.7169 6.0531-4.8763 13.313-0.66083 4.1382-0.3497 8.4399 0.65537 9.061 0.30404 0.18791 1.1732 0.01 1.9315-0.3962 2.4634-1.3184 2.0181-0.21536-0.61716 1.5286-4.8559 3.2135-127.81 69.316-128.2 68.924-0.21588-0.21588-0.26977-0.51507-0.11977-0.66485 0.15-0.1498 28.473-15.498 62.941-34.108 62.13-33.545 62.664-33.851 62.182-35.564-0.80236-2.857-0.33971-9.3217 1.0574-14.775 1.5993-6.2431 3.9759-9.0136 11.112-12.954 2.6402-1.4578 4.9586-3.0632 5.1521-3.5674 1.0578-2.7566 7.2484-3.5818 13.329-1.7766 8.994 2.67 13.876 6.713 17.472 14.469 1.9596 4.2264 2.1346 7.7499 1.017 20.476-0.66643 7.5883-1.7169 10.44-5.1463 13.971-3.7202 3.8305-8.4575 5.2348-17.541 5.1996l-7.7533-0.03-68.138 36.575c-37.476 20.116-68.252 36.575-68.393 36.575s-0.14875-0.31979-0.0185-0.71063zm154.6-74.835c7.4251-2.2346 10.16-6.4441 11.091-17.074 1.1044-12.602 0.90174-16.057-1.1932-20.339-2.9597-6.0494-9.4366-12.245-10.375-9.924-0.19467 0.48143-0.34781 0.35574-0.37858-0.31069-0.0366-0.79293-1.312-1.5084-4.3752-2.4546-5.5566-1.7162-10.078-1.747-12.131-0.0827-2.1958 1.7802-1.0365 2.4322 1.9389 1.0904 3.3565-1.5136 7.4481-0.81264 14.438 2.4734 3.2985 1.5507 7.4927 5.9922 9.3341 9.8844 1.5459 3.2678 1.8683 4.8055 1.8582 8.8629-0.0135 5.4353-1.4472 16.435-2.4741 18.982-2.0668 5.1264-8.7542 8.4045-17.476 8.5666-2.16 0.0402-4.6637 0.30884-5.5637 0.59707-3.078 0.98577 12.02 0.7174 15.307-0.27209z" fill="#ffb380"/>
     <path transform="matrix(1.3194 -.077062 .062125 1.4808 169.02 406.53)" d="m330.75 293.83c-1.8693-8.3349-2.7369-13.415-2.2909-13.414 0.39911 1e-3 2.0539 5.9595 3.7267 13.418 1.8693 8.3349 2.7369 13.415 2.2909 13.414-0.39911-1e-3 -2.0539-5.9595-3.7267-13.418zm0.76955-5.8341c-0.0284-0.69001 0.12628-1.0766 0.34378-0.8591s0.24076 0.78205 0.0517 1.2546c-0.20895 0.52216-0.36405 0.36705-0.39546-0.39546z" fill="#ffb380"/>
     <path transform="matrix(1.3194 -.077062 .062125 1.4808 169.02 406.53)" d="m336.16 303.12c-0.37033-0.44623-1.1521-2.8675-1.7372-5.3807-0.58512-2.5131-1.3658-5.6035-1.7348-6.8675-0.36901-1.264-0.57337-3.291-0.45414-4.5045 0.21639-2.2024 0.29117-2.247 42.108-25.066 74.277-40.532 87.055-47.818 87.055-49.635 0-0.61569-0.77675-1.0447-2.1273-1.1749-2.525-0.24345-2.6258-0.93942-1.1514-7.9483 1.6609-7.8954 3.5268-10.488 11.327-15.738 3.6085-2.4286 4.0409-3.0476 2.3673-3.3884-0.82114-0.16724-0.66678-0.5549 0.73585-1.848 1.7523-1.6154 1.7692-1.6175 1.3223-0.16364-0.54206 1.7635 0.22744 1.8772 3.0002 0.44341 3.6953-1.9109 13.244 1.0658 18.632 5.8084 4.5089 3.9689 6.8065 9.2172 6.7909 15.512-0.0135 5.4353-1.4472 16.435-2.4741 18.982-2.0342 5.0457-8.7412 8.3961-17.149 8.5666-1.98 0.0402-4.3364 0.32788-5.2364 0.63939-1.0385 0.35942 1.5211 0.50651 7.005 0.40256 4.7528-0.0901 8.5484-0.0709 8.4348 0.0427-0.61713 0.61712-8.4051 1.4022-14.889 1.5009l-7.4237 0.11302-12.436 6.2326c-11.1 5.5628-48.438 25.352-98.51 52.211-23.838 12.787-22.658 12.22-23.455 11.26z" fill="#ffb380"/>
     <path transform="matrix(1.3194 -.077062 .062125 1.4808 169.02 406.53)" d="m336.15 303.11c-1.0263-1.2366-3.3844-11.535-3.5572-15.535l-0.14472-3.3506 23.891-13.091c105.14-57.611 106.22-58.228 105-60.207-0.18972-0.30697-1.2112-0.55812-2.27-0.55812-2.3097 0-2.4142-0.8616-0.94918-7.8262 1.6595-7.8888 3.5437-10.513 11.299-15.738 3.6206-2.4391 4.053-3.0508 2.3953-3.3884-0.82114-0.16724-0.66678-0.5549 0.73585-1.848 1.7523-1.6154 1.7692-1.6175 1.3223-0.16364-0.54401 1.7698 0.2275 1.8772 3.0395 0.42305 2.4861-1.2856 5.4428-0.90486 11.356 1.4624 5.7415 2.2985 10.082 6.3133 12.393 11.463 1.7694 3.9427 1.8202 4.3541 1.4378 11.651-0.46592 8.8928-1.4614 14.712-2.948 17.234-2.3184 3.9325-9.1408 6.9226-16.152 7.079-1.8 0.0402-4.0091 0.32833-4.9091 0.64039-1.0435 0.36181 1.378 0.50557 6.6835 0.39679 4.5759-0.0938 8.2243-0.0751 8.1076 0.0417-0.61879 0.61879-8.3766 1.4087-14.895 1.5165l-7.4237 0.12284-17.018 8.6542c-9.3601 4.7598-36.017 18.817-59.237 31.237-62.668 33.522-57.323 30.784-58.153 29.783z" fill="#ffb380"/>
     <path transform="matrix(1.3194 -.077062 .062125 1.4808 169.02 406.53)" d="m336.09 303.05c-0.99088-1.1939-4.0979-15.136-3.8452-17.254 0.17737-1.4872 3.2966-3.3715 27.037-16.333 67.935-37.091 96.458-52.992 100.72-56.15 1.6508-1.2232 0.89733-2.9361-1.2916-2.9361-1.7407 0-1.7413-2e-3 -1.2988-3.9122 0.58649-5.1838 1.9928-9.7722 3.8314-12.501 0.82437-1.2233 3.8261-3.9728 6.6705-6.1101 3.9861-2.9952 4.912-3.977 4.0391-4.2832-0.99527-0.34913-0.92051-0.59316 0.61694-2.0139 1.7364-1.6046 1.746-1.6057 1.2968-0.14393-0.54469 1.7721 0.10871 1.8502 3.189 0.3813 1.9611-0.93518 2.7842-0.9803 5.7495-0.31517 8.5436 1.9164 14.864 6.6272 17.866 13.317 1.7512 3.9022 1.8039 4.3325 1.4223 11.617-0.46592 8.8928-1.4614 14.712-2.948 17.234-2.2766 3.8617-9.1731 6.9384-15.825 7.0598-1.62 0.0296-3.5346 0.33032-4.2546 0.66833-0.86953 0.40821 1.2813 0.53131 6.4056 0.36662 4.2431-0.13637 7.597-0.13017 7.453 0.0138-0.65692 0.65692-8.1885 1.4559-14.944 1.5853l-7.4237 0.1422-8.5092 4.2405c-10.224 5.0948-30.45 15.773-81.492 43.022-47.921 25.583-43.56 23.395-44.465 22.305z" fill="#ffb380"/>
     <path transform="matrix(1.3194 -.077062 .062125 1.4808 169.02 406.53)" d="m331.44 296.61c-0.0157-0.09-0.29505-3.1091-0.62079-6.7092-0.32575-3.6-0.74972-7.2819-0.94216-8.1819-0.19245-0.90001 0.0643-0.45819 0.57049 0.98183 0.50621 1.44 0.94302 3.87 0.97069 5.4 0.0277 1.53 0.34485 2.7818 0.70486 2.7818 0.36 0 0.65455 0.44182 0.65455 0.98182 0 0.54001-0.24354 0.98183-0.54119 0.98183s-0.4115 0.88365-0.25298 1.9637c0.15851 1.08 0.10749 1.9636-0.11337 1.9636s-0.4144-0.0736-0.4301-0.16364z" fill="#ffb380"/>
     <path transform="matrix(1.3194 -.077062 .062125 1.4808 169.02 406.53)" d="m331.59 282.7c-0.0133-1.08 0.12244-1.6011 0.30174-1.1579 0.1793 0.44315 0.19021 1.3268 0.0242 1.9636-0.16595 0.63686-0.31265 0.27428-0.32599-0.80573z" fill="#ffb380"/>
     <path transform="matrix(1.3194 -.077062 .062125 1.4808 169.02 406.53)" d="m335.21 304.51c0.14759-0.96626-0.48715-5.1254-1.4106-9.2425-2.2946-10.231-2.2676-10.536 1.1029-12.464 1.53-0.87534 24.431-13.441 50.891-27.924 54.069-29.594 70.502-38.828 73.461-41.279 2.2761-1.8848 2.0225-3.2253-0.61022-3.2253-1.6686 0-1.6857-0.0498-1.291-3.7637 0.22003-2.07 0.84641-5.2364 1.392-7.0364 1.7503-5.7748 2.7742-6.9713 11.877-13.878 1.4044-1.0656 1.6847-1.589 1.0747-2.0066-0.61927-0.42397-0.39481-0.96258 0.89949-2.1584 1.7233-1.5921 1.7243-1.5922 1.272-0.12068-0.54086 1.7596-0.47542 1.7684 2.9481 0.39862 2.2609-0.90464 3.2183-0.95437 6.0679-0.31517 8.464 1.8986 14.797 6.6333 17.788 13.3 1.7512 3.9022 1.8039 4.3325 1.4223 11.617-0.70798 13.513-2.1969 18.222-6.627 20.96-2.9638 1.8317-7.9205 3.27-11.491 3.3343-1.62 0.0292-3.5346 0.3301-4.2546 0.66866-0.87218 0.41012 1.1592 0.52975 6.0865 0.35846 4.0676-0.14141 7.2742-0.13567 7.1258 0.0127-0.66454 0.66454-8.1618 1.4634-14.952 1.5931l-7.4237 0.14189-7.2001 3.587c-9.3272 4.6467-33.818 17.571-82.146 43.349-21.42 11.426-40.469 21.541-42.331 22.479-1.8621 0.93801-3.5101 2.0803-3.6622 2.5384-0.15216 0.45811-0.1559 0.0423-8e-3 -0.92392z" fill="#ffb380"/>
    </g>
    <path transform="matrix(1.3194 -.077062 .062125 1.4808 169.02 406.53)" d="m331.13 230.5c-0.52639-1.4872-1.681-7.2067-1.4916-7.3889 0.10223-0.0983 14.03-7.0016 30.95-15.341 24.584-12.116 30.534-15.291 29.618-15.803-1.3272-0.74329-1.3846-1.3256-0.45877-4.6592 0.47857-1.7232 1.59-3.1417 3.76-4.7986 1.6944-1.2937 2.9334-2.5097 2.7534-2.7022-0.78795-0.84248 4.8489-0.70074 7.3595 0.18507 5.7408 2.0255 7.603 5.4859 6.7267 12.5-0.54512 4.363-2.9794 7.3782-6.0176 7.4538-1.624 0.0404-1.6902 0.11482-0.54126 0.60855 0.92925 0.39931 0.14595 0.57589-2.6996 0.60855-2.2048 0.0253-5.1502 0.44912-6.5455 0.94181-1.3953 0.4927-15.981 7.2673-32.414 15.055-16.432 7.7874-30.064 14.159-30.294 14.159-0.22921 0-0.54707-0.36818-0.70635-0.81819z" fill="#fca"/>
   </g>
   <g transform="matrix(-.30629 .01949 .015172 .29196 362.14 542.05)">
    <g transform="matrix(2.2792 .010953 .0078672 2.4663 -787.93 -951.6)">
     <g transform="matrix(.47587 -.0029465 -.0021164 .42554 322.11 372.02)">
      <g transform="matrix(1.8987 .01858 .013345 2.216 -558.66 -794.91)">
       <g fill="none" stroke="#000" stroke-width="1px">
        <path transform="matrix(1.3194 -.077062 .062125 1.4808 169.02 406.53)" d="m328.58 225.17 69.382-32.073"/>
        <path transform="matrix(1.3194 -.077062 .062125 1.4808 169.02 406.53)" d="m332.51 235.64 72.655-33.382s17.018 3.2728 15.055-9.8183c0 0 3.2728-5.891-3.9273-11.782 0 0-10.473-5.2364-12.436-0.65455 0 0-7.8546 2.6182-7.8546 5.891 0 0-2.6182 6.5455 0 8.5092"/>
        <path transform="matrix(1.3194 -.077062 .062125 1.4808 169.02 406.53)" d="m327.93 223.86 3.2728 12.436"/>
       </g>
       <path transform="matrix(1.3194 -.077062 .062125 1.4808 169.02 406.53)" d="m330.59 230.53c-0.61212-2.5505-1.0278-4.7224-0.9237-4.8265 0.10409-0.10409 15.501-7.253 34.214-15.886 20.475-9.4462 34.106-16.09 34.227-16.683 0.14819-0.72391-0.18248-0.88509-1.2455-0.6071-1.3767 0.36002-1.425 0.23921-0.99046-2.4783 0.69234-4.3296 1.7515-5.9472 4.9797-7.6052 1.62-0.83203 3.5209-1.9574 4.2241-2.5007 1.7239-1.332 3.5509-1.2442 7.8896 0.37905 2.7564 1.0313 4.0646 1.9881 5.3273 3.8961 1.5488 2.3404 1.6444 2.9098 1.281 7.6331-0.26065 3.3877-0.78793 5.6355-1.568 6.6846-1.5838 2.1298-5.6439 3.4595-9.6266 3.1525-3.1048-0.23931-5.1033 0.58519-38.946 16.068-19.62 8.9761-36.136 16.566-36.702 16.866-0.85091 0.45126-1.2205-0.25504-2.1414-4.0919z" fill="#ffb380"/>
      </g>
      <path transform="matrix(1.3194 -.077062 .062125 1.4808 169.02 406.53)" d="m336.06 303.01c-1.1989-1.4446-4.3794-17.849-3.6053-18.595 0.35427-0.3415 14.341-8.0446 31.081-17.118 78.423-42.506 98.183-53.72 98.183-55.72 0-0.94041-0.50256-1.2047-2.2909-1.2047-2.6968 0-2.7324-0.1955-1.3516-7.4126 1.568-8.1954 3.488-10.816 12.152-16.584 1.62-1.0787 4.1237-2.7723 5.5637-3.7636 3.0786-2.1193 5.1962-2.0057 12.225 0.65587 5.6173 2.1271 9.7327 5.7683 12.279 10.864 1.6788 3.3597 2.0029 4.7682 1.991 8.6538-0.0201 6.579-1.5532 17.359-2.8159 19.8-2.5754 4.9789-9.3467 8.0772-17.653 8.0772-7.0064 0-11.942 2.2292-51.845 23.415-17.08 9.0685-90.895 48.591-92.709 49.639-0.22921 0.13243-0.77099-0.18605-1.2039-0.70773z" fill="#ffb380"/>
      <path transform="matrix(1.3194 -.077062 .062125 1.4808 169.02 406.53)" d="m336.08 303.03c-1.2111-1.4593-4.4-17.861-3.6205-18.621 0.35427-0.34555 15.666-8.7799 34.026-18.743 62.195-33.75 90.961-49.811 94.092-52.535 1.8745-1.6308 1.4065-2.7573-1.1455-2.7573-2.6968 0-2.7324-0.1955-1.3516-7.4126 1.6668-8.7117 3.1545-10.565 14.77-18.402 6.3498-4.284 7.0969-4.3475 15.17-1.2904 5.6173 2.1271 9.7327 5.7683 12.279 10.864 1.7147 3.4315 2.0034 4.7326 1.9925 8.9811-0.0141 5.4834-1.4431 16.482-2.474 19.041-1.0109 2.5096-4.7213 5.7173-7.9885 6.9063-1.6187 0.58905-5.8993 1.298-9.5125 1.5754-8.127 0.62406-10.799 1.7239-35.322 14.537-14.127 7.3812-78.396 41.695-104.8 55.955-4.5832 2.475-5.4206 2.7354-6.1131 1.9011z" fill="#ffb380"/>
      <path transform="matrix(1.3194 -.077062 .062125 1.4808 169.02 406.53)" d="m337.48 305.88c0.20142-0.60426 93.156-50.882 125.22-67.73 5.76-3.0266 10.126-5.5076 9.7031-5.5134-1.7231-0.0236-33.622 16.722-116.4 61.102-15.67 8.4018-19.132 10.028-19.844 9.3197-1.2208-1.2143-4.5297-17.852-3.709-18.65 0.35427-0.34435 18.464-10.329 40.245-22.188 64.343-35.033 83.754-45.897 87.661-49.06 1.9078-1.5448 1.3283-2.7896-1.2986-2.7896-2.282 0-2.332-0.37615-0.98568-7.4126 1.5631-8.1696 3.6628-11.143 11.34-16.056 3.3304-2.1316 4.6068-3.7565 2.2849-2.909-2.616 0.95489-8.2622 4.4411-10.268 6.34-2.2958 2.1733-3.7169 6.0531-4.8763 13.313-0.66083 4.1382-0.3497 8.4399 0.65537 9.061 0.30404 0.18791 1.1732 0.01 1.9315-0.3962 2.4634-1.3184 2.0181-0.21536-0.61716 1.5286-4.8559 3.2135-127.81 69.316-128.2 68.924-0.21588-0.21588-0.26977-0.51507-0.11977-0.66485 0.15-0.1498 28.473-15.498 62.941-34.108 62.13-33.545 62.664-33.851 62.182-35.564-0.80236-2.857-0.33971-9.3217 1.0574-14.775 1.5993-6.2431 3.9759-9.0136 11.112-12.954 2.6402-1.4578 4.9586-3.0632 5.1521-3.5674 1.0578-2.7566 7.2484-3.5818 13.329-1.7766 8.994 2.67 13.876 6.713 17.472 14.469 1.9596 4.2264 2.1346 7.7499 1.017 20.476-0.66643 7.5883-1.7169 10.44-5.1463 13.971-3.7202 3.8305-8.4575 5.2348-17.541 5.1996l-7.7533-0.03-68.138 36.575c-37.476 20.116-68.252 36.575-68.393 36.575s-0.14875-0.31979-0.0185-0.71063zm154.6-74.835c7.4251-2.2346 10.16-6.4441 11.091-17.074 1.1044-12.602 0.90174-16.057-1.1932-20.339-2.9597-6.0494-9.4366-12.245-10.375-9.924-0.19467 0.48143-0.34781 0.35574-0.37858-0.31069-0.0366-0.79293-1.312-1.5084-4.3752-2.4546-5.5566-1.7162-10.078-1.747-12.131-0.0827-2.1958 1.7802-1.0365 2.4322 1.9389 1.0904 3.3565-1.5136 7.4481-0.81264 14.438 2.4734 3.2985 1.5507 7.4927 5.9922 9.3341 9.8844 1.5459 3.2678 1.8683 4.8055 1.8582 8.8629-0.0135 5.4353-1.4472 16.435-2.4741 18.982-2.0668 5.1264-8.7542 8.4045-17.476 8.5666-2.16 0.0402-4.6637 0.30884-5.5637 0.59707-3.078 0.98577 12.02 0.7174 15.307-0.27209z" fill="#ffb380"/>
      <path transform="matrix(1.3194 -.077062 .062125 1.4808 169.02 406.53)" d="m330.75 293.83c-1.8693-8.3349-2.7369-13.415-2.2909-13.414 0.39911 1e-3 2.0539 5.9595 3.7267 13.418 1.8693 8.3349 2.7369 13.415 2.2909 13.414-0.39911-1e-3 -2.0539-5.9595-3.7267-13.418zm0.76955-5.8341c-0.0284-0.69001 0.12628-1.0766 0.34378-0.8591s0.24076 0.78205 0.0517 1.2546c-0.20895 0.52216-0.36405 0.36705-0.39546-0.39546z" fill="#ffb380"/>
      <path transform="matrix(1.3194 -.077062 .062125 1.4808 169.02 406.53)" d="m336.16 303.12c-0.37033-0.44623-1.1521-2.8675-1.7372-5.3807-0.58512-2.5131-1.3658-5.6035-1.7348-6.8675-0.36901-1.264-0.57337-3.291-0.45414-4.5045 0.21639-2.2024 0.29117-2.247 42.108-25.066 74.277-40.532 87.055-47.818 87.055-49.635 0-0.61569-0.77675-1.0447-2.1273-1.1749-2.525-0.24345-2.6258-0.93942-1.1514-7.9483 1.6609-7.8954 3.5268-10.488 11.327-15.738 3.6085-2.4286 4.0409-3.0476 2.3673-3.3884-0.82114-0.16724-0.66678-0.5549 0.73585-1.848 1.7523-1.6154 1.7692-1.6175 1.3223-0.16364-0.54206 1.7635 0.22744 1.8772 3.0002 0.44341 3.6953-1.9109 13.244 1.0658 18.632 5.8084 4.5089 3.9689 6.8065 9.2172 6.7909 15.512-0.0135 5.4353-1.4472 16.435-2.4741 18.982-2.0342 5.0457-8.7412 8.3961-17.149 8.5666-1.98 0.0402-4.3364 0.32788-5.2364 0.63939-1.0385 0.35942 1.5211 0.50651 7.005 0.40256 4.7528-0.0901 8.5484-0.0709 8.4348 0.0427-0.61713 0.61712-8.4051 1.4022-14.889 1.5009l-7.4237 0.11302-12.436 6.2326c-11.1 5.5628-48.438 25.352-98.51 52.211-23.838 12.787-22.658 12.22-23.455 11.26z" fill="#ffb380"/>
      <path transform="matrix(1.3194 -.077062 .062125 1.4808 169.02 406.53)" d="m336.15 303.11c-1.0263-1.2366-3.3844-11.535-3.5572-15.535l-0.14472-3.3506 23.891-13.091c105.14-57.611 106.22-58.228 105-60.207-0.18972-0.30697-1.2112-0.55812-2.27-0.55812-2.3097 0-2.4142-0.8616-0.94918-7.8262 1.6595-7.8888 3.5437-10.513 11.299-15.738 3.6206-2.4391 4.053-3.0508 2.3953-3.3884-0.82114-0.16724-0.66678-0.5549 0.73585-1.848 1.7523-1.6154 1.7692-1.6175 1.3223-0.16364-0.54401 1.7698 0.2275 1.8772 3.0395 0.42305 2.4861-1.2856 5.4428-0.90486 11.356 1.4624 5.7415 2.2985 10.082 6.3133 12.393 11.463 1.7694 3.9427 1.8202 4.3541 1.4378 11.651-0.46592 8.8928-1.4614 14.712-2.948 17.234-2.3184 3.9325-9.1408 6.9226-16.152 7.079-1.8 0.0402-4.0091 0.32833-4.9091 0.64039-1.0435 0.36181 1.378 0.50557 6.6835 0.39679 4.5759-0.0938 8.2243-0.0751 8.1076 0.0417-0.61879 0.61879-8.3766 1.4087-14.895 1.5165l-7.4237 0.12284-17.018 8.6542c-9.3601 4.7598-36.017 18.817-59.237 31.237-62.668 33.522-57.323 30.784-58.153 29.783z" fill="#ffb380"/>
      <path transform="matrix(1.3194 -.077062 .062125 1.4808 169.02 406.53)" d="m336.09 303.05c-0.99088-1.1939-4.0979-15.136-3.8452-17.254 0.17737-1.4872 3.2966-3.3715 27.037-16.333 67.935-37.091 96.458-52.992 100.72-56.15 1.6508-1.2232 0.89733-2.9361-1.2916-2.9361-1.7407 0-1.7413-2e-3 -1.2988-3.9122 0.58649-5.1838 1.9928-9.7722 3.8314-12.501 0.82437-1.2233 3.8261-3.9728 6.6705-6.1101 3.9861-2.9952 4.912-3.977 4.0391-4.2832-0.99527-0.34913-0.92051-0.59316 0.61694-2.0139 1.7364-1.6046 1.746-1.6057 1.2968-0.14393-0.54469 1.7721 0.10871 1.8502 3.189 0.3813 1.9611-0.93518 2.7842-0.9803 5.7495-0.31517 8.5436 1.9164 14.864 6.6272 17.866 13.317 1.7512 3.9022 1.8039 4.3325 1.4223 11.617-0.46592 8.8928-1.4614 14.712-2.948 17.234-2.2766 3.8617-9.1731 6.9384-15.825 7.0598-1.62 0.0296-3.5346 0.33032-4.2546 0.66833-0.86953 0.40821 1.2813 0.53131 6.4056 0.36662 4.2431-0.13637 7.597-0.13017 7.453 0.0138-0.65692 0.65692-8.1885 1.4559-14.944 1.5853l-7.4237 0.1422-8.5092 4.2405c-10.224 5.0948-30.45 15.773-81.492 43.022-47.921 25.583-43.56 23.395-44.465 22.305z" fill="#ffb380"/>
      <path transform="matrix(1.3194 -.077062 .062125 1.4808 169.02 406.53)" d="m331.44 296.61c-0.0157-0.09-0.29505-3.1091-0.62079-6.7092-0.32575-3.6-0.74972-7.2819-0.94216-8.1819-0.19245-0.90001 0.0643-0.45819 0.57049 0.98183 0.50621 1.44 0.94302 3.87 0.97069 5.4 0.0277 1.53 0.34485 2.7818 0.70486 2.7818 0.36 0 0.65455 0.44182 0.65455 0.98182 0 0.54001-0.24354 0.98183-0.54119 0.98183s-0.4115 0.88365-0.25298 1.9637c0.15851 1.08 0.10749 1.9636-0.11337 1.9636s-0.4144-0.0736-0.4301-0.16364z" fill="#ffb380"/>
      <path transform="matrix(1.3194 -.077062 .062125 1.4808 169.02 406.53)" d="m331.59 282.7c-0.0133-1.08 0.12244-1.6011 0.30174-1.1579 0.1793 0.44315 0.19021 1.3268 0.0242 1.9636-0.16595 0.63686-0.31265 0.27428-0.32599-0.80573z" fill="#ffb380"/>
      <path transform="matrix(1.3194 -.077062 .062125 1.4808 169.02 406.53)" d="m335.21 304.51c0.14759-0.96626-0.48715-5.1254-1.4106-9.2425-2.2946-10.231-2.2676-10.536 1.1029-12.464 1.53-0.87534 24.431-13.441 50.891-27.924 54.069-29.594 70.502-38.828 73.461-41.279 2.2761-1.8848 2.0225-3.2253-0.61022-3.2253-1.6686 0-1.6857-0.0498-1.291-3.7637 0.22003-2.07 0.84641-5.2364 1.392-7.0364 1.7503-5.7748 2.7742-6.9713 11.877-13.878 1.4044-1.0656 1.6847-1.589 1.0747-2.0066-0.61927-0.42397-0.39481-0.96258 0.89949-2.1584 1.7233-1.5921 1.7243-1.5922 1.272-0.12068-0.54086 1.7596-0.47542 1.7684 2.9481 0.39862 2.2609-0.90464 3.2183-0.95437 6.0679-0.31517 8.464 1.8986 14.797 6.6333 17.788 13.3 1.7512 3.9022 1.8039 4.3325 1.4223 11.617-0.70798 13.513-2.1969 18.222-6.627 20.96-2.9638 1.8317-7.9205 3.27-11.491 3.3343-1.62 0.0292-3.5346 0.3301-4.2546 0.66866-0.87218 0.41012 1.1592 0.52975 6.0865 0.35846 4.0676-0.14141 7.2742-0.13567 7.1258 0.0127-0.66454 0.66454-8.1618 1.4634-14.952 1.5931l-7.4237 0.14189-7.2001 3.587c-9.3272 4.6467-33.818 17.571-82.146 43.349-21.42 11.426-40.469 21.541-42.331 22.479-1.8621 0.93801-3.5101 2.0803-3.6622 2.5384-0.15216 0.45811-0.1559 0.0423-8e-3 -0.92392z" fill="#ffb380"/>
     </g>
     <path transform="matrix(1.3194 -.077062 .062125 1.4808 169.02 406.53)" d="m331.13 230.5c-0.52639-1.4872-1.681-7.2067-1.4916-7.3889 0.10223-0.0983 14.03-7.0016 30.95-15.341 24.584-12.116 30.534-15.291 29.618-15.803-1.3272-0.74329-1.3846-1.3256-0.45877-4.6592 0.47857-1.7232 1.59-3.1417 3.76-4.7986 1.6944-1.2937 2.9334-2.5097 2.7534-2.7022-0.78795-0.84248 4.8489-0.70074 7.3595 0.18507 5.7408 2.0255 7.603 5.4859 6.7267 12.5-0.54512 4.363-2.9794 7.3782-6.0176 7.4538-1.624 0.0404-1.6902 0.11482-0.54126 0.60855 0.92925 0.39931 0.14595 0.57589-2.6996 0.60855-2.2048 0.0253-5.1502 0.44912-6.5455 0.94181-1.3953 0.4927-15.981 7.2673-32.414 15.055-16.432 7.7874-30.064 14.159-30.294 14.159-0.22921 0-0.54707-0.36818-0.70635-0.81819z" fill="#fca"/>
    </g>
   </g>
   <g transform="matrix(.22149 0 0 .18784 114.17 653.97)">
    <g transform="matrix(5.6263 0 0 5.5894 -1378.5 -3836.1)">
     <path d="m299.78 836.36s3.9273 20.291 0 25.528" fill="none" stroke="#000" stroke-width="1px"/>
     <path d="m324 837.01s-3.2728 15.709 2.6182 23.564" fill="none" stroke="#000" stroke-width="1px"/>
     <path d="m299.78 859.27 26.837 1.3091" fill="none" stroke="#000" stroke-width="1px"/>
     <path transform="translate(0 520.87)" d="m298.48 315.49 25.528 0.65456" fill="none" stroke="#000" stroke-width="1px"/>
     <path transform="translate(0 520.87)" d="m308.81 338.18-6.6148-0.21109-0.35909-9.6328c-0.1975-5.298-0.566-10.148-0.81889-10.778-0.41303-1.029 0.03-1.1451 4.3557-1.1421 2.6485 2e-3 7.6137 0.18869 11.034 0.41518l6.2182 0.41178 0.0233 7.9304c0.0165 5.6182 0.32818 8.7414 1.0689 10.712l1.0456 2.7818-4.6689-0.13805c-2.5679-0.0759-7.6456-0.23303-11.284-0.34913z" fill="#fca"/>
    </g>
    <path transform="translate(0 520.87)" d="m308.1 459.91-1.4408-1.1309 2.2494-4.5819c2.6396-5.3766 2.6719-5.5637 0.95949-5.5637-1.0909 0-1.3091-0.43637-1.3091-2.6182 0-2.469 0.11117-2.6182 1.9512-2.6182 2.1336 0 2.0822 0.10814 3.2678-6.8728 1.7244-10.153 1.951-42.088 0.39756-56.023-0.21711-1.9476-0.9822-9.0589-1.7002-15.803-1.6385-15.39-5.1163-39.319-6.2803-43.212-0.2398-0.80193-1.0164-1.1455-2.5894-1.1455-2.1827 0-2.2468-0.0743-2.2468-2.6029v-2.6029l7.0364 0.33002c3.87 0.18151 31.484 0.90533 61.364 1.6085 72.785 1.7128 74.292 1.7796 74.292 3.292 0 0.65785 0.6069 1.3887 1.3487 1.6241 1.0542 0.33458 1.2711 0.80874 0.99344 2.1714-3.7451 18.38-5.4758 55.78-3.406 73.601 2.4439 21.042 8.0634 39.075 15.837 50.823 1.539 2.3256 1.5474 2.4172 0.43444 4.7143l-1.1351 2.3426-3.9273-0.25827c-2.16-0.14205-31.468-1.5595-65.128-3.1498s-63.779-3.0734-66.93-3.2956c-5.1694-0.36459-5.7681-0.28737-6.1297 0.79067-1.2048 3.5923-5.14 11.338-5.7538 11.326-0.39323-8e-3 -1.3633-0.52346-2.1558-1.1455zm145.65-9.8037c-0.12579-0.27-1.8787-3.8782-3.8953-8.0183-5.2313-10.74-8.0934-19.965-10.458-33.709-1.4309-8.3161-2.7958-37.784-2.198-47.455 0.54687-8.8467 2.1974-24.201 3.3329-31.003 0.53275-3.1917 0.88002-5.8757 0.77171-5.9643-0.27448-0.22465-129.75-3.4778-130-3.2664-0.11294 0.0944 0.38902 3.5157 1.1154 7.6028 4.077 22.938 6.3757 45.192 7.3257 70.923 0.68668 18.598 0.65105 22.046-0.31791 30.764-0.6002 5.4-1.2616 10.776-1.4698 11.946l-0.37849 2.1273 4.1652 0.0462c2.9878 0.0331 114.08 5.4845 130.71 6.414 0.84001 0.0469 1.4244-0.13554 1.2986-0.40554v1e-5z" fill="#fca"/>
   </g>
   <g transform="matrix(.44745 0 0 .43153 29.976 434.91)">
    <g transform="matrix(2.0036 0 0 1.7712 -295.73 -602.5)">
     <g transform="matrix(1.0371 0 0 .97254 -41.885 -6.8192)">
      <path d="m352.15 812.14s0.65455 20.946-6.5455 22.255" fill="none" stroke="#000" stroke-width="1px"/>
      <path d="m369.17 810.83s0 20.946 7.8546 26.837" fill="none" stroke="#000" stroke-width="1px"/>
      <path transform="translate(0 520.87)" d="m352.8 291.93 17.018-0.65455" fill="none" stroke="#000" stroke-width="1px"/>
      <path transform="translate(0 520.87)" d="m346.91 311.57 29.455 1.9637" fill="none" stroke="#000" stroke-width="1px"/>
      <path transform="translate(0 520.87)" d="m359.22 311.66-9.227-0.62069 0.9365-2.7128c0.51507-1.492 1.2378-5.511 1.606-8.9311 0.36826-3.42 0.74147-6.2971 0.82936-6.3935 0.0879-0.0964 3.5173-0.24367 7.621-0.32728l7.4612-0.152 0.16207 1.9636c0.42273 5.1218 1.7266 12.081 2.7902 14.891l1.1766 3.1091-2.0644-0.10288c-1.1354-0.0566-6.2166-0.38218-11.291-0.72356z" fill="#fca"/>
     </g>
     <g transform="matrix(.34124 0 0 .22174 204.3 629.45)">
      <path transform="translate(0 520.87)" d="m420.65 281.17c-0.99227-1.3836-2.835-4.4739-4.095-6.8673s-2.6177-4.3541-3.0172-4.3571c-0.39942-3e-3 -17.438-1.6255-37.863-3.6056-20.425-1.98-37.216-3.6-37.312-3.6-0.0967 0-0.99329 1.1795-1.9923 2.6211-1.6315 2.3542-5.9309 5.7489-6.5157 5.1446-0.96929-1.0016-0.24367-2.6106 2.2706-5.0347 1.8584-1.7918 2.6374-2.9544 2.1199-3.1637-1.6048-0.64904-0.91052-2.7424 0.98183-2.9602 1.6481-0.18963 1.9754-0.73203 3.878-6.4254 3.6729-10.991 5.5649-22.583 7.0945-43.47 0.52964-7.2318 0.96525-18.672 0.96803-25.422l5e-3 -12.273h3.2728l-6e-3 7.691c-9e-3 10.92-1.133 31.597-2.3152 42.589-1.4053 13.065-3.2417 22.712-5.8611 30.79-1.2321 3.7996-2.1778 6.9581-2.1016 7.0188 0.21516 0.17131 70.003 6.8328 71.519 6.8268 1.3147-5e-3 1.3034-0.12768-0.5293-5.7327-5.7939-17.72-10.256-47.601-11.386-76.255l-0.43256-10.964h-3.2685c-3.1087 0-35.281 1.6809-41.855 2.1868-2.8961 0.22287-3.1091 0.13373-3.1091-1.301 0-0.84716 0.36818-1.5421 0.81819-1.5442 0.45-2e-3 10.98-0.58949 23.4-1.3052s22.803-1.303 23.073-1.3052c0.27001-2e-3 0.49092-0.88757 0.49092-1.9676 0-1.623 0.26598-1.9636 1.5335-1.9636h1.5335l0.43678 11.578c1.1397 30.21 4.9644 59.154 10.255 77.605 3.1299 10.916 3.3852 11.375 6.558 11.801 3.175 0.42586 3.4116 0.59225 2.8656 2.0151-0.25543 0.66566-1.1581 1.0755-2.3688 1.0755h-1.9561l2.101 3.7637c1.1555 2.07 2.82 4.7227 3.6988 5.8948s1.4168 2.424 1.1956 2.7818c-0.79949 1.2936-2.3158 0.6013-4.0845-1.865z" fill="#fca"/>
     </g>
     <g transform="matrix(.60873 0 0 .55067 93.773 353.31)">
      <g transform="matrix(.55462 0 0 .58152 225.38 351.46)">
       <g transform="matrix(2.2668 0 0 1.8439 -580.32 -591.16)" fill="none" stroke="#000" stroke-width="1px">
        <path transform="translate(0 520.87)" d="m354.11 295.2 5.2364-37.964c-6.5455-0.65455-19.637-17.673-19.637-17.673 1.3091 3.2728 16.364 3.2728 16.364 3.2728-4.5819-1.3091-13.091-12.436-13.091-12.436 1.3091 3.9273 17.673 4.5819 17.673 4.5819-5.2364 0.65456-13.091-18.327-13.091-18.327 5.2364 7.8546 26.837 4.5819 26.837 4.5819l16.364 30.764 12.436-30.109s20.291 5.891 26.182-5.2364c0 0-5.2364 17.018-13.091 17.673 0 0 20.291-3.2728 20.946-9.1637 0 0-4.5819 15.055-13.746 18.327 0 0 9.8183 5.2364 15.055-3.2728 0 0-13.091 17.018-19.637 18.327l11.782 36.655s-35.346 19.637-76.583 0z"/>
        <path transform="translate(0 520.87)" d="m382.26 234.98 16.364-0.65455"/>
        <path transform="translate(0 520.87)" d="m377.02 292.58 1.3091-20.946h14.4v21.6z"/>
        <path transform="translate(0 520.87)" d="m396 270.33 7.8546 24.873 5.891-26.182 11.782-0.65456"/>
        <path transform="translate(0 520.87)" d="m411.06 269.68 2.6182 22.909 12.436-1.3091"/>
        <path transform="translate(0 520.87)" d="m412.37 280.8 11.782-0.65455"/>
        <path transform="translate(0 520.87)" d="m363.93 269.68-2.6182 20.291 12.436 1.3091"/>
        <path transform="translate(0 520.87)" d="m367.86 221.24 22.909 40.582"/>
        <path transform="translate(0 520.87)" d="m408.44 222.55-17.018 38.619"/>
        <path transform="translate(0 520.87)" d="m354.11 221.24 7.2001 14.4"/>
        <path transform="translate(0 520.87)" d="m350.19 233.67 4.5819 10.473"/>
        <path transform="translate(0 520.87)" d="m348.22 242.18 10.473 15.055"/>
        <path transform="translate(0 520.87)" d="m420.22 222.55-3.2728 13.091"/>
        <path transform="translate(0 520.87)" d="m428.08 231.06-4.5819 12.436"/>
        <path transform="translate(0 520.87)" d="m427.42 244.15-7.8546 13.746"/>
       </g>
       <path d="m290.95 812.4 25.922-0.95268" fill="none" stroke="#000" stroke-width="1.5497px"/>
       <path transform="translate(0 520.87)" d="m281.46 294.11c-13.256-19.097-23.903-34.92-23.66-35.162s2.5808-0.54906 5.1961-0.68113l4.7551-0.24012 18.601 28.515c10.231 15.683 18.799 28.526 19.04 28.539 0.54035 0.0297 7.9824-14.164 19.842-37.844l8.9673-17.904 3.7029 0.45092c2.0366 0.248 3.925 0.6626 4.1964 0.92133 0.41265 0.39335-34.679 66.191-36.078 67.645-0.25449 0.26476-11.308-15.143-24.564-34.24z" fill="#f0f"/>
       <path transform="translate(0 520.87)" d="m230.94 277.84c-1.4307-1.0522-4.1868-3.7768-6.1246-6.0546-4.0442-4.7539-12.137-16.81-11.626-17.321 0.18837-0.18838 1.9672 0.16963 3.9529 0.79557l3.6104 1.1381 6.92 11.274c3.806 6.2008 6.92 11.456 6.92 11.677 0 0.81698-1.1155 0.35584-3.6526-1.5099z" fill="#f0f"/>
       <path transform="translate(0 520.87)" d="m211.92 285.13c-2.1113-1.7596-4.2738-3.7268-4.8056-4.3714-0.91215-1.1056-0.80088-1.1445 1.9637-0.68658 1.6118 0.267 3.1571 0.61959 3.434 0.78354 0.73597 0.43585 3.8916 6.8287 3.5429 7.1774-0.16297 0.16297-2.0237-1.1434-4.135-2.903z" fill="#f0f"/>
       <path transform="translate(0 520.87)" d="m220.14 314.66c-6.2734-4.2235-11.228-8.2358-18.254-14.782l-4.8834-4.5502 4.515 0.48352c2.4833 0.26594 5.1842 0.66421 6.0021 0.88506 1.1492 0.31029 16.987 17.947 18.909 21.056 0.84534 1.3678-1.044 0.43882-6.2884-3.092z" fill="#f0f"/>
       <path transform="translate(0 520.87)" d="m368.12 277.36c0-0.53955 4.6828-16.16 4.9377-16.471 0.0944-0.11505 1.8778-0.65474 3.9632-1.1993 2.0854-0.54457 5.1969-1.7023 6.9146-2.5727s3.3082-1.5825 3.5345-1.5825c0.6095 0-3.4561 7.0078-6.2581 10.787-1.34 1.8072-3.9038 4.6535-5.6975 6.325-3.1715 2.9554-7.3944 5.6473-7.3944 4.7136z" fill="#f0f"/>
       <path transform="translate(0 520.87)" d="m382.6 294.36c0.1358-0.34327 1.9797-4.4872 4.0975-9.2087l3.8506-8.5845 5.3131-1.7544c2.9222-0.96494 6.1505-2.1834 7.174-2.7077s1.9905-0.82358 2.149-0.66507c0.66897 0.66897-6.9059 10.966-11.175 15.19-4.0488 4.0067-12.093 9.4564-11.41 7.7301z" fill="#f0f"/>
       <path transform="translate(0 520.87)" d="m381.09 311.66 7.0597-9.9819 6.4944-0.18911 6.4944-0.18911-1.9469 2.0595c-4.8521 5.1328-22.632 18.283-24.72 18.283-0.24296 0 2.7351-4.4919 6.6179-9.9819z" fill="#f0f"/>
       <path transform="translate(0 520.87)" d="m289.91 286.79-2.3171-3.4364 6.3907-0.44106c3.5149-0.24258 10.704-0.54037 15.976-0.66174l9.5851-0.22069-1.8516 3.668-1.8516 3.668-7.9999 0.43015c-4.3999 0.23659-9.7131 0.43015-11.807 0.43015h-3.8072l-2.3172-3.4364z" fill="#f0f"/>
       <path transform="translate(0 520.87)" d="m252.27 385.01c-7.7379-0.70382-14.132-1.3431-14.21-1.4206-0.21943-0.21943 5.7766-37.36 6.0811-37.667 1.073-1.0829 0.7106 2.6756-1.7558 18.211-1.5455 9.7346-2.6472 17.862-2.4482 18.061 0.19895 0.19896 6.2944 0.85049 13.545 1.4478 9.91 0.81642 13.184 1.2999 13.184 1.9472 0 0.47358-0.0736 0.82503-0.16364 0.78101-0.09-0.044-6.4946-0.65588-14.233-1.3597z" fill="#f0f"/>
       <path transform="translate(0 520.87)" d="m286.14 389.07c-6.3867-0.23701-11.817-0.63599-12.068-0.88662s0.19562-8.918 0.99167-19.261c0.79604-10.343 1.4401-19.173 1.4313-19.623-0.0124-0.63398 3.8155-0.81819 17.002-0.81819h17.018v41.236l-6.3819-0.10835c-3.51-0.0596-11.607-0.30227-17.994-0.53928zm23.067-19.971v-19.309h-15.709c-13.82 0-15.709 0.12326-15.709 1.0247 0 0.5636-0.6144 8.8347-1.3653 18.38-0.75093 9.5456-1.1967 17.524-0.99064 17.73 0.32512 0.32512 15.712 1.0466 29.356 1.3764l4.4182 0.10681v-19.309z" fill="#f0f"/>
       <path transform="translate(0 520.87)" d="m325.99 370.99c-7.6903-19.76-9.5692-25.337-8.0053-23.759 0.14863 0.15 3.7103 9.1092 7.9149 19.909 4.2046 10.8 7.9203 20.34 8.2572 21.2 0.33692 0.85994 0.74957 1.4265 0.91701 1.2591s3.1126-10.427 6.5449-22.8c3.4322-12.372 6.3486-22.603 6.4807-22.735 0.42112-0.42112 26.025-1.5695 26.41-1.1846 0.82981 0.82981-0.81569 1.0465-12.618 1.6614-6.7856 0.35357-12.547 0.87021-12.803 1.1481-0.25586 0.27788-3.336 10.962-6.8449 23.742s-6.565 23.592-6.7916 24.026c-0.22658 0.43394-4.4848-9.6763-9.4627-22.467z" fill="#f0f"/>
       <path transform="translate(0 520.87)" d="m356.7 387.59c-0.3391-1.0823-5.5935-39.273-5.5935-40.655 0-0.59003 0.2609-1.0728 0.57978-1.0728s1.1224 4.1414 1.7857 9.2031c0.66326 5.0617 1.3779 9.4814 1.5881 9.8215 0.23971 0.38786 4.9886 0.3784 12.738-0.0254 6.7954-0.35407 12.496-0.5028 12.669-0.33049 0.86409 0.86409-1.5134 1.189-12.795 1.7489-6.7553 0.33522-12.342 0.66875-12.414 0.74117-0.16497 0.16496 2.5444 19.671 2.7738 19.97 0.0924 0.12035 5.3242-0.24783 11.626-0.81819 13.041-1.1803 15.486-1.2585 15.486-0.49523 0 0.29798-5.8173 1.0384-12.927 1.6453-15.353 1.3105-15.19 1.3077-15.516 0.26748z" fill="#f0f"/>
       <path transform="translate(0 520.87)" d="m294.16 407.01c-24.143-2.0451-42.936-5.763-62.117-12.289-3.7442-1.2739-7.0795-2.588-7.4117-2.9202-0.46658-0.46658 9.0771-60.308 10.934-68.559 0.21782-0.96788-0.12959-1.5264-1.2214-1.9637-1.2978-0.51972-21.348-23.203-21.348-24.152 0-0.77931 8.286 0.56982 9.3865 1.5283 1.1082 0.9652 1.2711 0.95819 2.0358-0.0876 0.45717-0.62523 1.3142-1.1368 1.9045-1.1368 2.1711 0 1.1552-2.4433-1.4493-3.4854-2.3856-0.95453-4.1851-3.5624-8.4473-12.242-0.0934-0.19022 4.7666 0.12924 10.8 0.70991 6.0335 0.58067 11.355 0.91921 11.826 0.7523 0.4707-0.1669 0.6911-0.73267 0.4898-1.2573-0.3173-0.82685-11.176-18.666-14.007-23.011l-1.0109-1.5516 3.5634 0.49274c1.9598 0.27101 7.7566 0.67469 12.882 0.89707l9.3183 0.40433-2.9937 6.3736c-1.6466 3.5055-2.8943 6.6642-2.7728 7.0193s2.5402-2.0199 5.3749-5.2778c2.8347-3.258 5.3804-5.6803 5.6572-5.383s11.319 16.152 24.539 35.232c13.219 19.08 24.147 34.812 24.284 34.96 0.13708 0.14779 0.7665-0.18196 1.3987-0.73278 0.63222-0.55082 1.444-0.90214 1.804-0.78072 0.36001 0.12143 9.1632-15.544 19.563-34.812 14.832-27.48 19.129-34.948 19.934-34.639 0.56422 0.21651 5.9317 0.38976 11.928 0.385l10.902-9e-3 -2.6788 8.8143c-1.6019 5.271-3.0123 8.8143-3.5084 8.8143-1.1645 0-1.0346 2.3197 0.19894 3.5533 1.3724 1.3724 2.071 1.2962 2.5714-0.28052 0.22853-0.72 0.96971-1.3091 1.6471-1.3091 0.67737 0 4.8544-0.73637 9.2822-1.6364s8.4006-1.6364 8.8282-1.6364c1.0639 0-6.694 17.045-8.4236 18.507-0.7556 0.63901-1.2584 1.262-1.1174 1.3843 0.141 0.12236 2.0236 0.8354 4.1837 1.5845 2.16 0.74914 3.858 1.6597 3.7732 2.0235-0.27131 1.1645-14.664 21.299-15.961 22.329-1.2119 0.96216-1.1487 1.241 2.1178 9.3517 1.8518 4.598 3.2552 8.4709 3.1185 8.6065-0.13663 0.1356-3.783 0.42721-8.103 0.64801s-10.246 0.56395-13.168 0.76255l-5.3139 0.3611-6.1293 22.182c-3.3712 12.2-6.3176 21.971-6.5477 21.712s-3.9171-9.5258-8.1934-20.594c-6.0874-15.757-8.0236-20.125-8.9205-20.127-0.63001-1e-3 -1.1519 0.3654-1.1598 0.81541-0.0234 1.3354 18.524 48.892 18.963 48.621 0.2212-0.1367 3.4857-11.462 7.2544-25.167s7.0118-24.92 7.2069-24.923c0.19511-2e-3 1.651 9.4223 3.2354 20.944 1.5843 11.521 3.0906 21.287 3.3473 21.703 0.34953 0.56554 4.0966 0.45475 14.928-0.44141 13.138-1.0869 14.462-1.3061 14.462-2.3934 0-1.498-1.1674-1.5126-15.975-0.19978-6.086 0.53959-11.135 0.90416-11.22 0.81015-0.085-0.094-0.71487-4.3293-1.3996-9.4117l-1.2451-9.2408 5.2651-0.40997c2.8958-0.22548 7.2122-0.41173 9.592-0.41389 7.2421-7e-3 10.401-0.64019 10.401-2.0865 0-1.3571 1.0236-1.3487-19.418-0.15929-7.0212 0.40856-6.1768 1.5062-7.7745-10.107-0.93886-6.8241-0.97265-8.1831-0.21541-8.6628 0.78746-0.49882 7.1572-0.80791 18.363-0.89108l3.3922-0.0252 9.3059 23.564 9.3059 23.564-5.989 2.1815c-13.132 4.7832-30.637 8.8708-48.208 11.257-9.7012 1.3174-37.503 2.2634-45.819 1.559v2e-5zm17.018-37.907v-21.273h-35.126l-1.1186 14.057c-2.0714 26.031-2.0995 27.168-0.67372 27.259 3.6461 0.23365 25.032 1.0134 30.536 1.1134l6.3819 0.11593v-21.273zm-43.855 16.497c0-1.4827-0.17853-1.5175-13.145-2.5629-7.2296-0.5829-13.3-1.2148-13.489-1.4043-0.18944-0.18944 0.86875-7.9462 2.3515-17.237 1.4828-9.2911 2.6929-17.408 2.6892-18.038-4e-3 -0.70683-0.50811-1.1455-1.3159-1.1455-0.72001 0-1.3091 0.28005-1.3091 0.62233 0 0.34227-1.3368 9.0692-2.9706 19.393-1.6338 10.324-2.8857 18.85-2.7818 18.947 0.10384 0.0969 6.6689 0.75893 14.589 1.4711 7.9201 0.7122 14.621 1.3315 14.891 1.3762s0.49091-0.59508 0.49091-1.4218z" fill="#0ff"/>
       <path transform="translate(0 520.87)" d="m288.11 387.11c-6.3867-0.23701-11.778-0.59709-11.981-0.80018-0.20309-0.20308 0.23595-8.0308 0.97565-17.395 0.73969-9.3641 1.3449-17.35 1.3449-17.746 0-0.50359 4.5343-0.72063 15.055-0.72063h15.055v37.31l-4.4182-0.10835c-2.43-0.0596-9.6437-0.30226-16.03-0.53928z" fill="#0ff"/>
       <path transform="translate(0 520.87)" d="m261.17 331.2 4.5819-21.6-20.946 5.2364 6.5455-26.837 1.3091 18.327 24.218-5.2364z" fill="none" stroke="#000" stroke-width="1px"/>
       <path transform="translate(0 520.87)" d="m264.05 322.44c0-0.44639 0.61103-3.6318 1.3578-7.0788s1.2544-6.3706 1.1279-6.4971c-0.12646-0.12646-4.7796 0.91497-10.34 2.3143s-10.146 2.4872-10.19 2.4176c-0.0437-0.0696 0.99944-4.3976 2.318-9.6176 2.3941-9.4779 2.3981-9.4866 2.8437-6.2905 0.24543 1.7603 0.44625 4.6321 0.44625 6.3819s0.23105 3.1814 0.51345 3.1814c0.28239 0 5.185-1.0309 10.895-2.2909 5.7097-1.26 10.761-2.2909 11.224-2.2909 0.50341 0-1.0292 3.6265-3.8036 9.0001-5.0188 9.7205-6.3926 12.035-6.3926 10.771z" fill="#ff0"/>
       <path transform="translate(0 520.87)" d="m250.14 384.52c-6.0289-0.61731-11.112-1.2731-11.297-1.4572-0.18417-0.18417 0.32469-4.726 1.1308-10.093s1.5693-9.2286 1.696-8.5813c0.12668 0.6473-0.23581 4.12-0.80555 7.7172-0.56973 3.5972-1.0359 7.3787-1.0359 8.4034 0 2.1621-0.65866 2.0078 15.693 3.6739 5.571 0.56762 10.259 1.1622 10.418 1.3213 0.48926 0.48926-4.3564 0.18737-15.8-0.9843z" fill="#ff0"/>
       <path transform="translate(0 520.87)" d="m293.86 389c-8.9806-0.28215-17.007-0.68333-17.837-0.89151-1.2753-0.32007-1.5095-0.80613-1.5168-3.1479-0.0157-5.0474 2.1366-34.834 2.5491-35.277 0.22277-0.2393 7.8424-0.64732 16.932-0.90672l16.527-0.47164v20.707c0 11.389-0.0736 20.661-0.16364 20.604-0.09-0.0565-7.5114-0.33363-16.492-0.61578zm15.347-19.9v-19.309h-31.394l-0.3021 1.4727c-0.28392 1.3842-1.1039 12.781-2.0721 28.8-0.23391 3.87-0.1692 7.0725 0.14381 7.1166 2.913 0.41055 16.196 1.0307 23.969 1.1191l9.6546 0.10978v-19.309z" fill="#ff0"/>
       <path transform="translate(0 520.87)" d="m356.99 387.53c0-0.12221-0.73616-5.4977-1.6359-11.946-1.4682-10.522-2.1786-19.038-1.0598-12.705l0.40475 2.2909 12.109-0.0862c13.571-0.0966 13.354 0.0841-1.2298 1.0243-5.5365 0.3569-10.191 0.77319-10.342 0.9251s0.32789 4.579 1.0662 9.8379c0.73832 5.2589 1.3424 9.738 1.3424 9.9534 0 0.21542 3.9028 0.24318 8.6728 0.0617 6.1107-0.23251 7.3192-0.17737 4.091 0.18665-4.817 0.54316-13.418 0.83613-13.418 0.45704z" fill="#ff0"/>
       <path transform="translate(0 520.87)" d="m349.52 344.6c0.74958-0.31541 6.0514-0.72803 11.782-0.91694 8.8798-0.29272 9.4037-0.26167 3.5463 0.21013-14.814 1.1932-16.69 1.2797-15.328 0.70681z" fill="#ff0"/>
       <path transform="translate(0 520.87)" d="m334.52 390.75c-0.2165-0.5642-0.13288-1.0258 0.18582-1.0258s0.90145-0.81001 1.295-1.8c0.69223-1.7414 0.70426-1.7261 0.36955 0.47046-0.40746 2.674-1.2947 3.8034-1.8504 2.3554z" fill="#ff0"/>
       <path transform="translate(0 520.87)" d="m344 360.27c0-0.90001 0.14856-1.2682 0.33015-0.81819 0.18158 0.45 0.18158 1.1864 0 1.6364-0.18159 0.45-0.33015 0.0818-0.33015-0.81819z" fill="#ff0"/>
       <path transform="translate(0 520.87)" d="m341.99 367.19c-0.0284-0.69001 0.12628-1.0766 0.34378-0.8591s0.24076 0.78205 0.0517 1.2546c-0.20895 0.52216-0.36405 0.36706-0.39546-0.39545z" fill="#ff0"/>
       <path transform="translate(0 520.87)" d="m340.68 371.77c-0.0284-0.69001 0.12629-1.0766 0.34379-0.8591s0.24075 0.78205 0.0517 1.2546c-0.20895 0.52215-0.36405 0.36705-0.39546-0.39546z" fill="#ff0"/>
       <path transform="translate(0 520.87)" d="m321.4 362.53c-0.22447-0.58497-0.37586-1.9968-0.33642-3.1374 0.0625-1.8065 0.14512-1.6995 0.64131 0.83043 0.58414 2.9784 0.4224 4.2022-0.30489 2.3069z" fill="#ff0"/>
       <path transform="translate(0 520.87)" d="m344.65 357.97c0-0.72 0.25314-1.8982 0.56254-2.6182 0.56254-1.3091 0.56254-1.3091 0.56254 0 0 0.72-0.25314 1.8982-0.56254 2.6182-0.56254 1.3091-0.56254 1.3091-0.56254 0z" fill="#ff0"/>
      </g>
      <path d="m361.41 812.08c-3e-3 -0.14767 0.64147-1.7787 1.4311-3.6246l1.4357-3.3561-1.074-0.16327c-0.86621-0.13168-0.7125-0.17063 0.79456-0.20136 1.7927-0.0366 1.8916-4e-3 2.4369 0.80319l0.56836 0.8413-1.8404 1.925c-1.0122 1.0588-2.2695 2.4019-2.794 2.9847s-0.95572 0.93879-0.95825 0.79112z" fill="#ff0"/>
     </g>
    </g>
    <path d="m372.98 839.23c-0.6138-1.0122-2.3707-3.9569-3.9043-6.5438l-2.7883-4.7033h13.637l-1.0299 3.1469c-1.1288 3.4492-4.0814 9.9406-4.5215 9.9406-0.15213 0-0.77888-0.8282-1.3927-1.8404z" fill="#0ff"/>
   </g>
   <g transform="matrix(.94111 0 0 .92342 -13.041 64.113)">
    <path transform="matrix(-.52786 .097503 -.091352 -.54002 397.01 826.78)" d="m384.22 239.89c0 50.429-42.639 91.31-95.237 91.31s-95.237-40.881-95.237-91.31 42.639-91.31 95.237-91.31 95.237 40.881 95.237 91.31z" fill="url(#l)" fill-rule="evenodd" stroke-width="0"/>
    <path d="m245.57 790.54c35.453-66.001-6.009-108-6.009-108l28.843 5.4546 7.8117 36-6.009 40.364-25.839 29.455" fill="url(#m)" stroke-width="0"/>
    <path d="m198.21 791.2c-35.453-66.001 6.009-108 6.009-108l-28.843 5.4546-7.8117 36 6.009 40.364 25.839 29.455" fill="url(#n)" stroke-width="0"/>
    <path d="m193.68 768.11c-15.82-16.933-15.282-40.915-12.503-56.922 1.75-10.082 4.3886-17 4.3886-17l18.682-11.73s-27.042 46.229-10.567 85.651z" fill="url(#o)"/>
    <g transform="matrix(-.99701 .077329 .079023 1.0188 291.97 4.1136)">
     <g transform="matrix(1.0002 0 0 .91911 34.024 53.668)" fill="none" stroke="#000" stroke-width="1px">
      <path transform="translate(0 520.87)" d="m54.328 183.93s12.436-13.091 29.455-2.6182"/>
      <path transform="translate(0 520.87)" d="m58.91 180.66 0.65455 22.255"/>
      <path transform="translate(0 520.87)" d="m77.892 179.35 1.3091 22.255"/>
      <path transform="translate(0 520.87)" d="m58.255 200.29s11.127 14.4 20.946 0.65455"/>
      <path transform="translate(0 520.87)" d="m54.328 175.42s0.65455 3.2728 7.2001 5.2364"/>
      <path transform="translate(0 520.87)" d="m48.437 179.35c6.5455 3.9273 1.9637 2.6182 7.2001 4.5819"/>
     </g>
     <path transform="translate(0 520.87)" d="m98.398 199.26c-1.2857-0.67969-2.7121-1.687-3.1698-2.2386-1.1699-1.4096-1.9099-19.791-0.76839-19.085 0.45603 0.28185 1.1319 0.0493 1.5739-0.54143 0.89992-1.2028 8.0287-2.3401 11.755-1.8752 1.3749 0.17155 2.7184 0.78376 3.029 1.3802 0.30694 0.58958 0.76506 5.1957 1.018 10.236 0.45374 9.0397 0.43929 9.1828-1.0653 10.555-0.8389 0.76492-2.1686 1.7221-2.955 2.1271-2.1517 1.1082-6.7853 0.834-9.4171-0.55731v0z" stroke="#faf8f7" stroke-linecap="round" stroke-linejoin="round" stroke-width="1.3091"/>
     <path transform="translate(0 520.87)" d="m106.04 182.29c0 2.3497-2.3444 4.2546-5.2364 4.2546s-5.2364-1.9048-5.2364-4.2546 2.3444-4.2546 5.2364-4.2546 5.2364 1.9048 5.2364 4.2546z" color="#000000" fill-opacity="0"/>
     <path transform="matrix(.73684 0 0 .77778 51.641 474.54)" d="m69.382 295.2c0 3.2535-2.784 5.891-6.2182 5.891s-6.2182-2.6375-6.2182-5.891 2.784-5.891 6.2182-5.891 6.2182 2.6375 6.2182 5.891z" color="#000000" fill="#fff" fill-opacity=".99291"/>
     <path transform="matrix(.73684 0 0 .77778 58.186 481.08)" d="m69.382 295.2c0 3.2535-2.784 5.891-6.2182 5.891s-6.2182-2.6375-6.2182-5.891 2.784-5.891 6.2182-5.891 6.2182 2.6375 6.2182 5.891z" color="#000000" fill="#fff" fill-opacity=".99291"/>
    </g>
    <path d="m258.97 767.33c-12.888-50.981-60.034-79.78-60.034-79.78l61.73-10.725s22.815 46.615-1.6956 90.506z" fill="url(#p)"/>
    <g transform="translate(-1.3091 .65455)">
     <path d="m178.04 706.76-1.9637-17.673s7.8546-22.255 40.582-22.255c0 0 38.619-3.2728 49.091 23.564l1.9636 20.946z" fill="url(#r)"/>
     <path d="m185.89 695.63s-3.9273-18.982 24.873-28.8c0 0 32.073-1.9636 41.237 13.091z" fill="url(#s)"/>
     <g transform="matrix(1.0796 .11589 -.11485 1.0699 173.99 29.662)">
      <path transform="matrix(.56727 0 0 .52904 -76.546 540.14)" d="m314.18 52.037c0 7.4107-5.8611 13.418-13.091 13.418s-13.091-6.0076-13.091-13.418 5.861-13.418 13.091-13.418 13.091 6.0076 13.091 13.418z" color="#000000" stroke="#070704" stroke-width="1px"/>
      <path d="m147.64 594.55c-33.414 12.937-81.448 24.88-81.448 24.88s-11.486-45.778 35.503-51.749c0 0 46.989-3.9807 45.945 26.87z" fill="none" stroke="#000" stroke-width="1.5574px"/>
      <path d="m92.946 574.54s-12.436 25.528-1.3091 36.655" fill="none" stroke="#000" stroke-width="1px"/>
      <path d="m91.637 568.65s33.382 4.5819 38.619 31.418" fill="none" stroke="#000" stroke-width="1px"/>
      <path d="m65.455 621.01s28.146 21.6 60.219 15.055c0 0 42.546-5.2364 36.655-26.837 0 0-7.2001-10.473-17.018-15.709" fill="none" stroke="#000" stroke-width="1px"/>
      </g>
     <path d="m202.32 691.92c-3.8798-6.6755-2.4597-17.879 3.9086-30.836 2.1813-4.4382 2.5512-4.8259 4.7671-4.9966 1.3213-0.10178 3.3308-0.76092 4.4655-1.4648l2.0631-1.2797 3.8221 2.0642c6.4295 3.4724 11.502 7.5901 15.509 12.59 3.8737 4.8337 7.3394 12.551 7.3601 16.388 0.01 1.8085-0.31879 2.045-4.02 2.895-7.0351 1.6156-34.838 6.756-35.836 6.6257-0.5271-0.0688-1.445-0.96241-2.0397-1.9857z" fill-opacity="0" stroke="#faf8f7" stroke-linecap="round" stroke-linejoin="round" stroke-width="1.415"/>
     <path d="m202.13 688.9c-1.7708-5.0614-0.67852-13.962 2.7127-22.105 3.4191-8.2103 3.9563-8.8558 8.9043-10.699l4.3259-1.6113 5.1529 3.2012c6.3223 3.9277 11.365 8.5473 14.627 13.4 2.8208 4.1958 5.9372 12.443 5.224 13.825-0.6352 1.231-34.716 8.0228-38.318 7.6362-0.98526-0.10576-1.7731-1.1983-2.6297-3.6469z" fill-opacity="0" stroke="#faf8f7" stroke-linecap="round" stroke-linejoin="round" stroke-width="1.415"/>
     <path d="m204.11 690.73c-2.4697-3.6867-2.3178-11.567 0.38413-19.932 2.7914-8.642 4.4072-11.143 8.5941-13.301 2.0327-1.048 4.1061-1.8614 4.6074-1.8075 1.2331 0.13237 8.6176 4.9054 11.853 7.6609 5.93 5.0511 12.204 15.09 12.074 19.319-0.0705 2.2956-1.5475 2.7912-17.593 5.9028-14.469 2.8059-19.146 3.3125-19.919 2.1579v0z" fill-opacity="0" stroke="#faf8f7" stroke-linecap="round" stroke-linejoin="round" stroke-width="1.415"/>
     <path d="m203.96 687.74c-0.66148-2.1998-0.59695-4.3854 0.29881-10.121 1.4842-9.5029 4.1126-15.589 7.8625-18.205 4.3437-3.0302 5.9037-2.9123 11.649 0.8805 8.2888 5.4714 18.473 19.349 16.708 22.768-0.64752 1.2548-7.8685 3.09-20.934 5.3202-15.418 2.6318-14.589 2.6661-15.585-0.64385z" fill-opacity="0" stroke="#faf8f7" stroke-linecap="round" stroke-linejoin="round" stroke-width="1.415"/>
     <path d="m204.83 686.8c-0.38924-3.2242 0.89998-12.677 2.3681-17.363 2.2705-7.2475 6.3072-11.365 10.682-10.895 3.2324 0.347 9.5892 5.4406 15.058 12.065 4.9347 5.9783 7.0495 9.9686 6.1782 11.657-0.29201 0.56588-2.4424 1.5132-4.7787 2.105-6.6591 1.6871-22.958 4.6367-26.242 4.7488-2.9071 0.0993-2.9793 0.048-3.2649-2.3179z" fill-opacity="0" stroke="#faf8f7" stroke-linecap="round" stroke-linejoin="round" stroke-width="1.415"/>
     <path d="m205.72 685.17c-0.18154-4.1957 1.6672-13.973 3.4371-18.178 0.74648-1.7736 2.3913-4.2141 3.6551-5.4235 1.8603-1.7801 2.7689-2.1348 4.7713-1.8628 3.5571 0.48323 10.24 6.0089 15.482 12.802 4.6792 6.063 5.6076 8.2605 4.1026 9.7103-0.93244 0.89819-15.209 3.9631-24.139 5.1821-2.5933 0.35402-5.2666 0.74163-5.9407 0.86137-0.97996 0.1741-1.2542-0.4453-1.3687-3.0911z" fill-opacity="0" stroke="#faf8f7" stroke-linecap="round" stroke-linejoin="round" stroke-width="1.415"/>
     <path d="m206.79 684.09c0.0385-6.1047 2.372-15.25 4.8789-19.121 3.2138-4.963 4.9832-5.3252 10.174-2.0827 4.6606 2.9112 15.066 15.063 14.824 17.313-0.11026 1.0271-1.0061 1.6747-3.1326 2.2646-3.7753 1.0471-24.622 4.8652-25.846 4.7337-0.56151-0.0603-0.9104-1.2664-0.89878-3.107z" fill-opacity="0" stroke="#faf8f7" stroke-linecap="round" stroke-linejoin="round" stroke-width="1.415"/>
     <path d="m208.04 680.68c0.6408-5.8559 2.8122-12.463 5.3744-16.354 1.702-2.5846 1.9007-2.6763 4.4514-2.0545 3.3451 0.81536 7.7549 4.5231 13.341 11.217 5.465 6.5489 5.317 7.3858-1.562 8.8291-8.4852 1.7803-19.771 3.6948-21.002 3.5627-0.96714-0.10382-1.0663-0.96017-0.60234-5.2002z" fill-opacity="0" stroke="#faf8f7" stroke-linecap="round" stroke-linejoin="round" stroke-width="1.415"/>
     <path d="m208.83 682.82c-0.3714-2.6146 2.1988-11.888 4.4712-16.133 1.8995-3.5482 2.1824-3.7794 4.1147-3.3636 1.1412 0.24561 3.2807 1.3265 4.7544 2.402 3.5382 2.5821 11.892 12.118 11.753 13.416-0.0602 0.56132-1.2965 1.3692-2.7472 1.7952-3.2363 0.95039-19.748 3.8335-21.115 3.6868-0.54448-0.0584-1.0984-0.86969-1.231-1.8028z" fill-opacity="0" stroke="#faf8f7" stroke-linecap="round" stroke-linejoin="round" stroke-width="1.415"/>
     <path d="m210.64 678.08c1.0466-6.0073 4.2249-13.31 5.9948-13.774 1.8308-0.48009 6.7506 3.2368 11.567 8.7389 4.1815 4.7765 4.5935 5.5072 3.559 6.3122-1.1568 0.90021-7.4051 2.2425-17.111 3.6757l-5.0019 0.73863 0.99167-5.6917v0z" fill="#2ad4ff" stroke="#faf8f7" stroke-linecap="round" stroke-linejoin="round" stroke-width="1.415"/>
     <path d="m202.09 692.07c-2.2736-4.4503-2.551-7.6338-1.3178-15.124 1.1546-7.0123 2.7807-11.696 6.1137-17.607 1.4396-2.5534 2.273-3.2483 4.4377-3.6996 1.4659-0.30565 3.4556-1.0397 4.4216-1.6312 2.0281-1.2418 3.0597-0.81684 11.434 4.7106 8.4895 5.6035 16.676 17.626 17.282 25.381l0.19842 2.5389-11.926 2.4008c-6.5594 1.3205-15.249 2.9676-19.309 3.6602-4.0607 0.69264-7.9941 1.3786-8.741 1.5244-0.98258 0.1918-1.6994-0.40349-2.5937-2.1539zm18.13-10.354c5.1159-0.86799 9.9029-1.9274 10.638-2.3542 1.228-0.71321 1.1069-1.0665-1.4954-4.3606-3.36-4.2532-9.9913-9.925-11.836-10.123-0.71933-0.0772-1.6697 0.38604-2.1118 1.0295-2.0555 2.991-6.1198 17.212-4.9549 17.337 0.25206 0.0271 4.644-0.66098 9.7598-1.529v0z" fill="#2ad4ff" stroke="#faf8f7" stroke-linecap="round" stroke-linejoin="round" stroke-width="1.415"/>
     <path d="m212.17 678.25c1.1124-4.7012 3.4149-10.741 4.392-11.522 1.2148-0.97029 3.3766 0.40529 8.4865 5.4003 4.8703 4.7607 5.691 6.4464 3.3487 6.8781-0.70187 0.12935-3.9026 0.73151-7.1127 1.3381-3.2101 0.60662-6.7733 1.2252-7.9182 1.3747l-2.0816 0.2718 0.88529-3.7413z" fill="#2ad4ff" stroke="#faf8f7" stroke-linecap="round" stroke-linejoin="round" stroke-width="1.415"/>
     <path d="m175.34 696.41c-0.40338-4.3626 1.2884-16.302 2.9498-20.818 3.5724-9.7106 10.477-17.197 19.615-21.268l4.8285-2.151 2.0329 1.6692 2.0328 1.6692-2.9779 6.4468c-5.6741 12.284-7.048 23.555-3.6428 29.886 0.78813 1.4652 1.3306 2.7209 1.2054 2.7904-0.12517 0.0695-5.4587 0.91538-11.852 1.8798-6.3936 0.96443-12.155 1.8428-12.804 1.952-0.85179 0.14335-1.237-0.42734-1.3875-2.056z" fill="url(#t)" stroke="#faf8f7" stroke-linecap="round" stroke-linejoin="round" stroke-width="1.415"/>
     <path d="m246.06 683.43c-0.41659-4.5054-3.776-11.87-7.5797-16.616-3.9456-4.9234-8.8169-8.8691-15.755-12.761-6.1623-3.457-5.5786-4.094 2.9153-3.181 23.05 2.4775 37.836 12.668 38.254 26.366 0.074 2.4254-0.20758 3.413-1.1988 4.2047-1.1324 0.90447-14.258 4.4595-15.839 4.2898-0.32422-0.0348-0.68262-1.0706-0.79646-2.3018z" fill="url(#u)" stroke="#faf8f7" stroke-linecap="round" stroke-linejoin="round" stroke-width="1.415"/>
     <path d="m210.12 721.08c-2.8633-0.83767-8.418-3.026-12.344-4.8631-9.3935-4.3955-24.092-14.104-22.675-14.977 0.2042-0.12586 5.7637-1.0227 12.354-1.9929 17.528-2.5804 55.661-9.7076 67.106-12.542 6.8255-1.6906 10.256-2.2272 11.013-1.7228 1.916 1.2764 8.3738 8.8464 10.807 12.668 1.8524 2.9096 2.2783 4.2798 2.0349 6.547-0.40398 3.7632-3.124 7.984-6.8898 10.691-11.972 8.6066-42.597 11.695-61.405 6.1925z" fill="url(#v)" stroke="#faf8f7" stroke-linecap="round" stroke-linejoin="round" stroke-width="1.415"/>
    </g>
    <g transform="matrix(1 0 0 1.0219 104.07 10.346)">
     <g transform="matrix(1.0002 0 0 .91911 34.024 53.668)" fill="none" stroke="#000" stroke-width="1px">
      <path transform="translate(0 520.87)" d="m54.328 183.93s12.436-13.091 29.455-2.6182"/>
      <path transform="translate(0 520.87)" d="m58.91 180.66 0.65455 22.255"/>
      <path transform="translate(0 520.87)" d="m77.892 179.35 1.3091 22.255"/>
      <path transform="translate(0 520.87)" d="m58.255 200.29s11.127 14.4 20.946 0.65455"/>
      <path transform="translate(0 520.87)" d="m54.328 175.42s0.65455 3.2728 7.2001 5.2364"/>
      <path transform="translate(0 520.87)" d="m48.437 179.35c6.5455 3.9273 1.9637 2.6182 7.2001 4.5819"/>
     </g>
     <path transform="translate(0 520.87)" d="m98.398 199.26c-1.2857-0.67969-2.7121-1.687-3.1698-2.2386-1.1699-1.4096-1.9099-19.791-0.76839-19.085 0.45603 0.28185 1.1319 0.0493 1.5739-0.54143 0.89992-1.2028 8.0287-2.3401 11.755-1.8752 1.3749 0.17155 2.7184 0.78376 3.029 1.3802 0.30694 0.58958 0.76506 5.1957 1.018 10.236 0.45374 9.0397 0.43929 9.1828-1.0653 10.555-0.8389 0.76492-2.1686 1.7221-2.955 2.1271-2.1517 1.1082-6.7853 0.834-9.4171-0.55731v0z" stroke="#faf8f7" stroke-linecap="round" stroke-linejoin="round" stroke-width="1.3091"/>
     <path transform="translate(0 520.87)" d="m106.04 182.29c0 2.3497-2.3444 4.2546-5.2364 4.2546s-5.2364-1.9048-5.2364-4.2546 2.3444-4.2546 5.2364-4.2546 5.2364 1.9048 5.2364 4.2546z" color="#000000" fill-opacity="0"/>
     <path transform="matrix(.73684 0 0 .77778 51.641 474.54)" d="m69.382 295.2c0 3.2535-2.784 5.891-6.2182 5.891s-6.2182-2.6375-6.2182-5.891 2.784-5.891 6.2182-5.891 6.2182 2.6375 6.2182 5.891z" color="#000000" fill="#fff" fill-opacity=".99291"/>
     <path transform="matrix(.73684 0 0 .77778 58.186 481.08)" d="m69.382 295.2c0 3.2535-2.784 5.891-6.2182 5.891s-6.2182-2.6375-6.2182-5.891 2.784-5.891 6.2182-5.891 6.2182 2.6375 6.2182 5.891z" color="#000000" fill="#fff" fill-opacity=".99291"/>
    </g>
    <path transform="matrix(.58333 0 0 .44444 187.42 669.3)" d="m91.637 203.57c0 13.014-10.55 23.564-23.564 23.564s-23.564-10.55-23.564-23.564h23.564z" color="#000000" fill="url(#q)"/>
    <g transform="translate(138.76 1.9637)" fill="#f0f">
     <path transform="translate(0 520.87)" d="m53.673 225.82s-4.5819 5.2364-3.2728 9.8183"/>
     <path d="m59.564 746.69s-4.5819 5.2364-3.2728 9.8183"/>
     <path d="m64.146 746.69s-4.5819 5.2364-3.2728 9.8183"/>
    </g>
    <g transform="matrix(-1 0 0 1 310.02 1.9637)" fill="#f0f">
     <path transform="translate(0 520.87)" d="m53.673 225.82s-4.5819 5.2364-3.2728 9.8183"/>
     <path d="m59.564 746.69s-4.5819 5.2364-3.2728 9.8183"/>
     <path d="m64.146 746.69s-4.5819 5.2364-3.2728 9.8183"/>
    </g>
   </g>
   <g transform="matrix(.75609 .039347 -.03172 .67365 -111.74 225.02)" stroke="#000">
    <g transform="translate(81.412 154.72)" fill="none" stroke-width="1px">
     <path transform="translate(0 520.87)" d="m329.24 249.38 13.091-40.582s32.073 6.5455 47.782-1.9636l18.982 36.655"/>
     <path transform="translate(0 520.87)" d="m350.84 210.11-12.436 40.582"/>
     <path transform="translate(0 520.87)" d="m358.69 210.77-8.5092 38.619"/>
     <path transform="translate(0 520.87)" d="m365.89 210.11-3.2728 37.964"/>
     <path transform="translate(0 520.87)" d="m373.75 210.77 1.9637 37.309"/>
     <path transform="translate(0 520.87)" d="m379.64 208.8 8.5092 38.619"/>
     <path transform="translate(0 520.87)" d="m385.53 207.49 13.746 39.273"/>
     <path transform="translate(0 520.87)" d="m329.89 246.77 8.5092 1.9636"/>
     <path transform="translate(0 520.87)" d="m339.71 245.46h10.473"/>
     <path transform="translate(0 520.87)" d="m350.84 249.38 11.782-1.9636"/>
     <path transform="translate(0 520.87)" d="m361.97 244.15h13.746"/>
     <path transform="translate(0 520.87)" d="m375.71 248.08 11.782-2.6182"/>
     <path transform="translate(0 520.87)" d="m388.15 242.18h8.5092"/>
     <path transform="translate(0 520.87)" d="m399.28 246.11 9.1637-4.5819"/>
     <path transform="translate(0 520.87)" d="m342.33 208.15 1.9637-4.5819s36.655 3.9273 45.164-3.2728l1.3091 7.8546"/>
    </g>
    <path d="m415.5 922.49c-1.26-0.3599-2.3914-0.75287-2.5141-0.87328-0.12277-0.1204 2.3728-8.3267 5.5458-18.236l5.769-18.017 2.9634 0.37962c1.6298 0.2088 3.1421 0.56236 3.3606 0.78569 0.21847 0.22334-2.1137 8.5798-5.1825 18.57-6.0037 19.544-5.4987 18.661-9.9421 17.391z" fill="#0ff" stroke-linecap="round" stroke-linejoin="round" stroke-opacity=".48052" stroke-width=".72132"/>
    <path d="m422.88 919.14c0.18082-0.4712 2.4951-8.0025 5.1428-16.736l4.814-15.88 2.9455 0.4337c1.62 0.23854 3.0028 0.48805 3.0729 0.55447 0.0701 0.0664-1.4763 7.3129-3.4364 16.103-1.9601 8.7904-3.5638 16.072-3.5638 16.182s-2.0934 0.19922-4.6519 0.19922c-3.5642 0-4.575-0.20031-4.3231-0.85672z" fill="#f0f" stroke-linecap="round" stroke-linejoin="round" stroke-opacity=".48052" stroke-width=".72132"/>
    <path d="m445.6 916.88c-5e-3 -2.3411 1.9675-26.276 2.3065-27.982 0.2067-1.0406 0.86614-1.3478 3.2147-1.4977 3.6028-0.22997 3.4381-0.75517 3.9588 12.625 0.21015 5.4001 0.5585 11.806 0.7741 14.237l0.392 4.4182h-10.642l-4e-3 -1.8z" fill="#f0f" stroke-linecap="round" stroke-linejoin="round" stroke-opacity=".48052" stroke-width=".72132"/>
    <path d="m468.87 915.9c-0.79696-2.5412-6.4134-29.337-6.1892-29.529 0.14774-0.12603 1.1523-0.39566 2.2323-0.59917l1.9636-0.37002 5.1686 14.84c2.8427 8.1619 5.3042 15.208 5.4701 15.658 0.22211 0.60266-0.84304 0.81819-4.0436 0.81819-2.9029 0-4.4303-0.27158-4.6018-0.81819z" fill="#f0f" stroke-linecap="round" stroke-linejoin="round" stroke-opacity=".48052" stroke-width=".72132"/>
    <path d="m433.93 918.19c0.69508-3.15 2.5073-11.324 4.0272-18.164l2.7634-12.436 2.7689-0.20127c1.6131-0.11726 2.7689 0.0835 2.7689 0.48091 0 0.37521-0.62911 7.3877-1.398 15.583s-1.4317 15.778-1.4728 16.85c-0.0724 1.8891-0.21507 1.9731-4.6566 2.7416-2.52 0.43607-4.9155 0.81095-5.3233 0.83307-0.50979 0.0277-0.34659-1.7493 0.52233-5.6871z" fill="#0ff" stroke-linecap="round" stroke-linejoin="round" stroke-opacity=".48052" stroke-width=".72132"/>
    <path d="m457.78 918.57c-0.53574-5.9269-1.7924-30.782-1.5665-30.982 0.10435-0.0923 1.1215-0.36729 2.2604-0.6111 1.6662-0.35671 2.1383-0.21183 2.4171 0.74173 0.54057 1.8489 6.9669 31.535 6.9669 32.183 0 0.31762-1.7971 0.93106-3.9936 1.3632s-4.3798 0.9339-4.8519 1.115c-0.63064 0.242-0.95753-0.7685-1.2324-3.8096z" fill="#0ff" stroke-linecap="round" stroke-linejoin="round" stroke-opacity=".48052" stroke-width=".72132"/>
    <path d="m479.72 916.86c-5.2291-14.27-11.114-31.834-10.823-32.304 1.3273-2.1476 2.911 0.14176 10.97 15.858 4.625 9.0191 8.3068 16.49 8.1819 16.601s-1.7418 0.96361-3.593 1.8933l-3.3658 1.6904-1.3701-3.739v0z" fill="#0ff" stroke-linecap="round" stroke-linejoin="round" stroke-opacity=".48052" stroke-width=".72132"/>
    <path d="m439.39 885.6c-0.72001-0.10895-4.3025-0.54565-7.961-0.97045l-6.6519-0.77236 0.61191-1.7553 0.61191-1.7553 14.778 0.2647c14.829 0.26561 21.72-0.2924 27.114-2.1955l2.4548-0.86611 0.31042 2.0748c0.3473 2.3212-0.33013 3.0318-2.9046 3.0466-0.96001 6e-3 -1.8633 0.36348-2.0073 0.79548-0.1457 0.43709-1.4037 0.7789-2.8364 0.77065-1.416-8e-3 -2.7556 0.25389-2.9767 0.58231-0.37608 0.5584-17.669 1.2155-20.543 0.78056z" fill="#ff0" stroke-linecap="round" stroke-linejoin="round" stroke-opacity=".48052" stroke-width=".72132"/>
   </g>
   <g transform="matrix(.76949 0 0 .73457 -92.124 276.1)">
    <g fill="none" stroke="#000" stroke-width="1px">
     <path transform="translate(0 520.87)" d="m382.91 407.79-1.9636-23.564-25.528 0.65455s-0.65455 17.673-13.091 18.982c0 0-12.436 4.5819-7.8546 10.473 0 0 1.3091 5.2364 9.1637 5.891l39.928-0.65455z"/>
     <path transform="translate(0 520.87)" d="m355.42 384.88s7.8546 11.127 10.473 11.127"/>
     <path transform="translate(0 520.87)" d="m380.95 384.22s-6.5455 13.746-13.091 13.091"/>
     <path transform="translate(0 520.87)" d="m361.31 392.73-7.8546 3.9273"/>
     <path transform="translate(0 520.87)" d="m355.42 390.11 3.2728 10.473-13.091 1.9636"/>
     <path transform="translate(0 520.87)" d="m352.15 399.28 1.9637 9.1637-12.436-1.9637"/>
     <path transform="translate(0 520.87)" d="m350.19 401.89-5.2364 10.473"/>
     <path transform="translate(0 520.87)" d="m364.59 394.04 3.2728 3.9273"/>
    </g>
    <path transform="translate(0 520.87)" d="m366.75 395.22c-0.47929-0.57751-1.5282-1.2997-2.331-1.6049-0.80277-0.30521-2.6953-2.1155-4.2055-4.0228l-2.746-3.4678 4.1786-0.41441c6.0547-0.60046 17.601-0.65072 17.576-0.0765-0.0475 1.1031-5.1807 7.5258-7.2135 9.0256-2.5365 1.8714-4.0379 2.0315-5.2584 0.56086z" fill="#f0f"/>
    <path transform="translate(0 520.87)" d="m339.65 418.41c-3.845-2.1266-5.8238-6.1223-4.3738-8.8316 0.94782-1.771 6.0102-4.5363 6.0102-3.283 0 0.56847 0.9213 1.1237 2.2909 1.3806 2.6322 0.4938 2.6173 0.45892 1.2923 3.0212-0.89736 1.7353-0.89628 1.9312 0.0106 1.9312 0.55508 0 1.4791-0.98536 2.0534-2.1897 1.0113-2.1206 1.1296-2.1732 3.7531-1.6649 4.2126 0.81615 4.5257 0.74889 4.1474-0.89092-1.3772-5.9698-1.4924-5.59 1.8472-6.0908 2.7045-0.40556 2.9979-0.61044 2.6443-1.8464-1.2164-4.251-1.1714-4.7115 0.53645-5.4897 1.095-0.49892 1.8082-0.53465 2.0744-0.10393 0.22312 0.36101 1.5823 1.3991 3.0203 2.307 1.9845 1.2528 3.0932 1.5454 4.6004 1.2144 2.4466-0.53736 6.7063-4.2853 9.0487-7.9614l1.7538-2.7524 0.78543 9.298c0.43199 5.1139 0.96045 12.123 1.1744 15.577l0.38892 6.279-4.1159 0.4302c-7.0148 0.7332-37.486 0.47213-38.942-0.33365z" fill="#0ff"/>
    <path transform="translate(0 520.87)" d="m356.64 391.2c-1.5556-3.723-0.8946-4.6963 1.1676-1.7195 2.0849 3.0096 2.1355 3.241 0.81836 3.7465-0.68102 0.26133-1.2892-0.35944-1.986-2.027z" fill="#0ff"/>
    <path transform="translate(0 520.87)" d="m353.07 400.12c0-0.25827-0.15316-0.8687-0.34035-1.3565-0.21254-0.55388 0.41435-1.1718 1.6694-1.6455 1.861-0.70243 2.0558-0.63755 2.6313 0.876 0.34181 0.89904 0.62148 1.7305 0.62148 1.8477s-1.0309 0.33341-2.2909 0.48051-2.2909 0.0561-2.2909-0.20213z" fill="#0ff"/>
    <path transform="translate(0 520.87)" d="m350.28 406.94c-1.3577-0.3548-1.3549-0.33672-0.38585-2.4635 0.89128-1.9561 2.5132-2.2218 2.5132-0.4116 0 0.69056 0.17878 1.7215 0.3973 2.2909 0.40141 1.046-0.21306 1.1882-2.5246 0.58416z" fill="#0ff"/>
    <path transform="translate(0 520.87)" d="m345.21 406.23c-3.5004-0.43981-3.5809-0.91123-0.36599-2.1432 1.7787-0.68161 3.3482-1.1252 3.4876-0.98573 0.13947 0.13947-0.13766 0.94679-0.61584 1.794-0.61947 1.0976-1.3398 1.4814-2.5058 1.3349z" fill="#0ff"/>
   </g>
   <g transform="matrix(-.49992 -.51181 .51714 -.36807 -19.57 1397.9)">
    <g fill="none" stroke="#000" stroke-width="1px">
     <path transform="translate(0 520.87)" d="m382.91 407.79-1.9636-23.564-25.528 0.65455s-0.65455 17.673-13.091 18.982c0 0-12.436 4.5819-7.8546 10.473 0 0 1.3091 5.2364 9.1637 5.891l39.928-0.65455z"/>
     <path transform="translate(0 520.87)" d="m355.42 384.88s7.8546 11.127 10.473 11.127"/>
     <path transform="translate(0 520.87)" d="m380.95 384.22s-6.5455 13.746-13.091 13.091"/>
     <path transform="translate(0 520.87)" d="m361.31 392.73-7.8546 3.9273"/>
     <path transform="translate(0 520.87)" d="m355.42 390.11 3.2728 10.473-13.091 1.9636"/>
     <path transform="translate(0 520.87)" d="m352.15 399.28 1.9637 9.1637-12.436-1.9637"/>
     <path transform="translate(0 520.87)" d="m350.19 401.89-5.2364 10.473"/>
     <path transform="translate(0 520.87)" d="m364.59 394.04 3.2728 3.9273"/>
    </g>
    <path transform="translate(0 520.87)" d="m366.75 395.22c-0.47929-0.57751-1.5282-1.2997-2.331-1.6049-0.80277-0.30521-2.6953-2.1155-4.2055-4.0228l-2.746-3.4678 4.1786-0.41441c6.0547-0.60046 17.601-0.65072 17.576-0.0765-0.0475 1.1031-5.1807 7.5258-7.2135 9.0256-2.5365 1.8714-4.0379 2.0315-5.2584 0.56086z" fill="#f0f"/>
    <path transform="translate(0 520.87)" d="m339.65 418.41c-3.845-2.1266-5.8238-6.1223-4.3738-8.8316 0.94782-1.771 6.0102-4.5363 6.0102-3.283 0 0.56847 0.9213 1.1237 2.2909 1.3806 2.6322 0.4938 2.6173 0.45892 1.2923 3.0212-0.89736 1.7353-0.89628 1.9312 0.0106 1.9312 0.55508 0 1.4791-0.98536 2.0534-2.1897 1.0113-2.1206 1.1296-2.1732 3.7531-1.6649 4.2126 0.81615 4.5257 0.74889 4.1474-0.89092-1.3772-5.9698-1.4924-5.59 1.8472-6.0908 2.7045-0.40556 2.9979-0.61044 2.6443-1.8464-1.2164-4.251-1.1714-4.7115 0.53645-5.4897 1.095-0.49892 1.8082-0.53465 2.0744-0.10393 0.22312 0.36101 1.5823 1.3991 3.0203 2.307 1.9845 1.2528 3.0932 1.5454 4.6004 1.2144 2.4466-0.53736 6.7063-4.2853 9.0487-7.9614l1.7538-2.7524 0.78543 9.298c0.43199 5.1139 0.96045 12.123 1.1744 15.577l0.38892 6.279-4.1159 0.4302c-7.0148 0.7332-37.486 0.47213-38.942-0.33365z" fill="#0ff"/>
    <path transform="translate(0 520.87)" d="m356.64 391.2c-1.5556-3.723-0.8946-4.6963 1.1676-1.7195 2.0849 3.0096 2.1355 3.241 0.81836 3.7465-0.68102 0.26133-1.2892-0.35944-1.986-2.027z" fill="#0ff"/>
    <path transform="translate(0 520.87)" d="m353.07 400.12c0-0.25827-0.15316-0.8687-0.34035-1.3565-0.21254-0.55388 0.41435-1.1718 1.6694-1.6455 1.861-0.70243 2.0558-0.63755 2.6313 0.876 0.34181 0.89904 0.62148 1.7305 0.62148 1.8477s-1.0309 0.33341-2.2909 0.48051-2.2909 0.0561-2.2909-0.20213z" fill="#0ff"/>
    <path transform="translate(0 520.87)" d="m350.28 406.94c-1.3577-0.3548-1.3549-0.33672-0.38585-2.4635 0.89128-1.9561 2.5132-2.2218 2.5132-0.4116 0 0.69056 0.17878 1.7215 0.3973 2.2909 0.40141 1.046-0.21306 1.1882-2.5246 0.58416z" fill="#0ff"/>
    <path transform="translate(0 520.87)" d="m345.21 406.23c-3.5004-0.43981-3.5809-0.91123-0.36599-2.1432 1.7787-0.68161 3.3482-1.1252 3.4876-0.98573 0.13947 0.13947-0.13766 0.94679-0.61584 1.794-0.61947 1.0976-1.3398 1.4814-2.5058 1.3349z" fill="#0ff"/>
   </g>
   <g transform="translate(-316.8 -2.6182)" fill="#aa3cdd">
    <path d="m404.51 785.96 2.6182-84.437 15.709 0.65456-2.6182 84.437z"/>
    <path d="m433.68 785.23-47.82-69.64 13.055-8.7617 47.82 69.64z"/>
    <path d="m456.57 751.48-84.473 0.88975 2e-3 -15.723 84.473-0.88974z"/>
    <path d="m382.61 772.74 51.959-66.609 12.294 9.8019-51.959 66.609z"/>
    <path d="m372.44 757.11 75.129-38.629 7.0403 14.059-75.129 38.629z"/>
    <path d="m379.89 721.04 75.461 37.975-7.2169 13.969-75.461-37.975z"/>
   </g>
   <g transform="translate(-117.82 11.127)" fill="#aa3cdd">
    <path d="m404.51 785.96 2.6182-84.437 15.709 0.65456-2.6182 84.437z"/>
    <path d="m433.68 785.23-47.82-69.64 13.055-8.7617 47.82 69.64z"/>
    <path d="m456.57 751.48-84.473 0.88975 2e-3 -15.723 84.473-0.88974z"/>
    <path d="m382.61 772.74 51.959-66.609 12.294 9.8019-51.959 66.609z"/>
    <path d="m372.44 757.11 75.129-38.629 7.0403 14.059-75.129 38.629z"/>
    <path d="m379.89 721.04 75.461 37.975-7.2169 13.969-75.461-37.975z"/>
   </g>
  </g>
 </g>
</svg>