<?xml version="1.0" encoding="UTF-8"?>
<svg enable-background="new 0 0 1644.099 1644.099" version="1.1" viewBox="0 0 1644.099 1644.099" xmlns="http://www.w3.org/2000/svg">
 <path d="m1004.8 59.284s38.849-38.421 91.979-8.948c8.982 6.737 34.168 26.386 29.158 60.597 0 0-9.544 10.632-18.505-5.635 0 0-2.817-12.912 10.112-12.912-19.088-21.86-67.298-20.19-62.859 29.158 3.947-12.316 40.403-34.189 54.982 12.933 1.112 7.277 2.737 36.316-22.509 53.123l22.175 0.561s22.754-16.688 31.165-52c7.284-1.123 19.263-8.912 14.596-26.912-3.684-14.203 38.561-49.789 53.845-28.596-10.407-14.432-40.379-35.333-68.421 8.4 3.93-20.21-52.625-105.49-147.41-46.596 1e-3 -1e-3 2.201 13.472 11.696 16.827z"/>
 <path d="m59.284 639.34s-38.421-38.849-8.948-91.979c6.737-8.982 26.386-34.168 60.597-29.158 0 0 10.632 9.544-5.635 18.505 0 0-12.912 2.817-12.912-10.112-21.86 19.088-20.19 67.298 29.158 62.859-12.316-3.947-34.189-40.403 12.933-54.982 7.277-1.112 36.316-2.737 53.123 22.509l0.561-22.175s-16.688-22.754-52-31.165c-1.123-7.284-8.912-19.263-26.912-14.596-14.203 3.684-49.789-38.561-28.596-53.845-14.432 10.407-35.333 40.379 8.4 68.421-20.21-3.93-105.49 52.624-46.596 147.41-1e-3 -1e-3 13.472-2.201 16.827-11.696z"/>
 <path d="m639.34 1584.8s-38.849 38.421-91.979 8.948c-8.982-6.737-34.168-26.386-29.158-60.597 0 0 9.544-10.632 18.505 5.635 0 0 2.817 12.912-10.112 12.912 19.088 21.86 67.298 20.19 62.859-29.158-3.947 12.316-40.403 34.189-54.982-12.933-1.112-7.277-2.737-36.316 22.509-53.123l-22.175-0.561s-22.754 16.688-31.165 52c-7.284 1.123-19.263 8.912-14.596 26.912 3.684 14.203-38.561 49.789-53.845 28.596 10.407 14.432 40.379 35.333 68.421-8.4-3.93 20.21 52.624 105.49 147.41 46.596-1e-3 1e-3 -2.201-13.472-11.696-16.827z"/>
 <path d="m1584.8 1004.8s38.421 38.849 8.948 91.979c-6.737 8.982-26.386 34.168-60.597 29.158 0 0-10.632-9.544 5.635-18.505 0 0 12.912-2.817 12.912 10.112 21.86-19.088 20.19-67.298-29.158-62.859 12.316 3.947 34.189 40.403-12.933 54.982-7.277 1.112-36.316 2.737-53.123-22.509l-0.561 22.175s16.688 22.754 52 31.165c1.123 7.284 8.912 19.263 26.912 14.596 14.203-3.684 49.789 38.561 28.596 53.845 14.432-10.407 35.333-40.379-8.4-68.421 20.21 3.93 105.49-52.625 46.596-147.41 1e-3 1e-3 -13.472 2.201-16.827 11.696z"/>
 <path d="m1584.8 639.34s38.421-38.849 8.948-91.979c-6.737-8.982-26.386-34.168-60.597-29.158 0 0-10.632 9.544 5.635 18.505 0 0 12.912 2.817 12.912-10.112 21.86 19.088 20.19 67.298-29.158 62.859 12.316-3.947 34.189-40.403-12.933-54.982-7.277-1.112-36.316-2.737-53.123 22.509l-0.561-22.175s16.688-22.754 52-31.165c1.123-7.284 8.912-19.263 26.912-14.596 14.203 3.684 49.789-38.561 28.596-53.845 14.432 10.407 35.333 40.379-8.4 68.421 20.21-3.93 105.49 52.624 46.596 147.41 1e-3 -1e-3 -13.472-2.201-16.827-11.696z"/>
 <path d="m639.34 59.284s-38.849-38.421-91.979-8.948c-8.982 6.737-34.168 26.386-29.158 60.597 0 0 9.544 10.632 18.505-5.635 0 0 2.817-12.912-10.112-12.912 19.088-21.86 67.298-20.19 62.859 29.158-3.947-12.316-40.403-34.189-54.982 12.933-1.112 7.277-2.737 36.316 22.509 53.123l-22.175 0.561s-22.754-16.688-31.165-52c-7.284-1.123-19.263-8.912-14.596-26.912 3.684-14.203-38.561-49.789-53.845-28.596 10.407-14.432 40.379-35.333 68.421 8.4-3.93-20.21 52.624-105.49 147.41-46.596-1e-3 -1e-3 -2.201 13.472-11.696 16.827z"/>
 <path d="m59.284 1004.8s-38.421 38.849-8.948 91.979c6.737 8.982 26.386 34.168 60.597 29.158 0 0 10.632-9.544-5.635-18.505 0 0-12.912-2.817-12.912 10.112-21.86-19.088-20.19-67.298 29.158-62.859-12.316 3.947-34.189 40.403 12.933 54.982 7.277 1.112 36.316 2.737 53.123-22.509l0.561 22.175s-16.688 22.754-52 31.165c-1.123 7.284-8.912 19.263-26.912 14.596-14.203-3.684-49.789 38.561-28.596 53.845-14.432-10.407-35.333-40.379 8.4-68.421-20.21 3.93-105.49-52.625-46.596-147.41-1e-3 1e-3 13.472 2.201 16.827 11.696z"/>
 <path d="m1004.8 1584.8s38.849 38.421 91.979 8.948c8.982-6.737 34.168-26.386 29.158-60.597 0 0-9.544-10.632-18.505 5.635 0 0-2.817 12.912 10.112 12.912-19.088 21.86-67.298 20.19-62.859-29.158 3.947 12.316 40.403 34.189 54.982-12.933 1.112-7.277 2.737-36.316-22.509-53.123l22.175-0.561s22.754 16.688 31.165 52c7.284 1.123 19.263 8.912 14.596 26.912-3.684 14.203 38.561 49.789 53.845 28.596-10.407 14.432-40.379 35.333-68.421-8.4 3.93 20.21-52.625 105.49-147.41 46.596 1e-3 1e-3 2.201-13.472 11.696-16.827z"/>
 <path d="m822.05 121.19c2.669 7.724 2.669 15.991 2.669 15.991 60.537 41.509 75.667 69.551 131.21 86.421 70 21.263 134.32-18.316 134.32-18.316l-29.842-2.888c-30.852 12.877-60.157-0.116-66.333-5.695-28.596-28.666-39.06-20.428-45.438-11.824 0.562-7.839 24.14-39.804 1.14-71.207-22.965-31.424-58.298 2.772-58.298 2.772 9.098-34.6-14.389-51.396-25.228-53.284-28.71-4.207-40.032 9.727-44.195 24.611-4.164-14.884-15.486-28.818-44.196-24.611-10.839 1.888-34.326 18.684-25.228 53.284 0 0-35.333-34.196-58.298-2.772-23 31.403 0.579 63.368 1.14 71.207-6.379-8.604-16.842-16.842-45.438 11.824-6.176 5.579-35.481 18.572-66.333 5.695l-29.842 2.888s64.316 39.579 134.32 18.316c55.544-16.87 70.673-44.912 131.21-86.421 1e-3 0 1e-3 -8.267 2.67-15.991zm700.86 700.86c-7.724 2.669-15.991 2.669-15.991 2.669-41.508 60.537-69.551 75.667-86.421 131.21-21.263 70 18.316 134.32 18.316 134.32l2.888-29.842c-12.877-30.852 0.116-60.157 5.694-66.333 28.667-28.596 20.428-39.06 11.824-45.438 7.839 0.562 39.804 24.14 71.207 1.14 31.424-22.965-2.772-58.298-2.772-58.298 34.6 9.098 51.396-14.389 53.284-25.228 4.207-28.71-9.727-40.032-24.611-44.195 14.884-4.164 28.818-15.486 24.611-44.196-1.888-10.839-18.684-34.326-53.284-25.228 0 0 34.196-35.333 2.772-58.298-31.403-23-63.368 0.579-71.207 1.14 8.604-6.379 16.842-16.842-11.824-45.438-5.579-6.176-18.572-35.481-5.694-66.333l-2.888-29.842s-39.579 64.316-18.316 134.32c16.87 55.544 44.912 70.673 86.421 131.21 0 1e-3 8.267 1e-3 15.991 2.67zm-700.86 700.86c-2.669-7.724-2.669-15.991-2.669-15.991-60.537-41.508-75.667-69.551-131.21-86.421-70-21.263-134.32 18.316-134.32 18.316l29.842 2.888c30.852-12.877 60.157 0.116 66.333 5.694 28.596 28.667 39.06 20.428 45.438 11.824-0.562 7.839-24.14 39.804-1.14 71.207 22.965 31.424 58.298-2.772 58.298-2.772-9.098 34.6 14.389 51.396 25.228 53.284 28.71 4.207 40.032-9.727 44.196-24.611 4.164 14.884 15.486 28.818 44.195 24.611 10.839-1.888 34.326-18.684 25.228-53.284 0 0 35.333 34.196 58.298 2.772 23-31.403-0.579-63.368-1.14-71.207 6.379 8.604 16.842 16.842 45.438-11.824 6.176-5.579 35.481-18.572 66.333-5.694l29.842-2.888s-64.316-39.579-134.32-18.316c-55.544 16.87-70.673 44.912-131.21 86.421 0 0 0 8.267-2.67 15.991zm-700.86-700.86c7.724-2.669 15.991-2.669 15.991-2.669 41.509-60.537 69.551-75.667 86.421-131.21 21.263-70-18.316-134.32-18.316-134.32l-2.888 29.842c12.877 30.852-0.116 60.157-5.695 66.333-28.666 28.596-20.428 39.06-11.824 45.438-7.839-0.562-39.804-24.14-71.207-1.14-31.424 22.965 2.772 58.298 2.772 58.298-34.6-9.098-51.396 14.389-53.284 25.228-4.207 28.71 9.727 40.032 24.611 44.196-14.884 4.164-28.818 15.486-24.611 44.195 1.888 10.839 18.684 34.326 53.284 25.228 0 0-34.196 35.333-2.772 58.298 31.403 23 63.368-0.579 71.207-1.14-8.604 6.379-16.842 16.842 11.824 45.438 5.579 6.176 18.572 35.481 5.695 66.333l2.888 29.842s39.579-64.316 18.316-134.32c-16.87-55.544-44.912-70.673-86.421-131.21 0 0-8.267 0-15.991-2.67zm833.06-632.68c13.456-5.593 38.702 29.74 57.186 29.754 0 0-34.765 0.547-59.993-10.681 0 1e-3 -10.632-13.473 2.807-19.073zm-764.88 500.49c-5.593-13.456 29.74-38.702 29.754-57.186 0 0 0.547 34.765-10.681 59.993 1e-3 0-13.473 10.632-19.073-2.807zm500.49 764.88c-13.456 5.593-38.702-29.74-57.186-29.754 0 0 34.765-0.547 59.993 10.681 0 0 10.632 13.474-2.807 19.073zm764.88-500.49c5.593 13.456-29.74 38.702-29.754 57.186 0 0-0.547-34.765 10.681-59.993 0 0 13.474-10.632 19.073 2.807zm-19.073-261.58c-11.228-25.228-10.681-59.993-10.681-59.993 0.014 18.484 35.347 43.73 29.754 57.186-5.599 13.439-19.073 2.807-19.073 2.807zm-743-484.22c-25.228 11.228-59.993 10.681-59.993 10.681 18.484-0.014 43.73-35.347 57.186-29.754 13.439 5.599 2.807 19.073 2.807 19.073zm-484.22 743c11.228 25.228 10.681 59.993 10.681 59.993-0.014-18.484-35.347-43.73-29.754-57.186 5.599-13.439 19.073-2.807 19.073-2.807zm743 484.22c25.228-11.228 59.993-10.681 59.993-10.681-18.484 0.014-43.73 35.347-57.186 29.754-13.439-5.599-2.807-19.073-2.807-19.073zm-100.35-1355.4c28.063-10.084 40.386 32.266 27.754 45.179-2.526 2.224-16.842 14-26.649-4.512-0.842-2.786-1.667-14.014 8.972-13.452-1.937 1.417-9.077 3.228-4.481 12.33 4.06 8.126 23.393 2.337 15.719-12.316-8.326-15.874-26.105-5.088-27.474 3.916-1.702 22.983 16.614 30.26 28.481 27.463 10.442-2.467 13.565-11.182 30.923-15.66 42.656-6.737 47.141 30.28 37.035 47.67-10.105 17.382 1.088 34.224 1.088 34.224-12.035-6.751-84.947-53.312-99.502-79.979-2.252-5.039-19.918-34.772 8.134-44.863zm-770.84 712.77c-10.084-28.063 32.266-40.386 45.179-27.754 2.224 2.526 14 16.842-4.512 26.649-2.786 0.842-14.014 1.667-13.452-8.972 1.417 1.937 3.228 9.077 12.33 4.481 8.126-4.06 2.337-23.393-12.316-15.719-15.874 8.326-5.088 26.105 3.916 27.474 22.983 1.702 30.26-16.614 27.463-28.481-2.467-10.442-11.182-13.565-15.66-30.923-6.737-42.656 30.28-47.141 47.67-37.035 17.382 10.105 34.224-1.088 34.224-1.088-6.751 12.035-53.312 84.947-79.979 99.502-5.039 2.251-34.772 19.918-44.863-8.134zm712.77 770.84c-28.063 10.084-40.386-32.266-27.754-45.179 2.526-2.224 16.842-14 26.649 4.512 0.842 2.786 1.667 14.014-8.972 13.453 1.937-1.417 9.077-3.228 4.481-12.33-4.06-8.126-23.393-2.337-15.719 12.316 8.326 15.874 26.105 5.088 27.474-3.916 1.702-22.983-16.614-30.26-28.481-27.463-10.442 2.467-13.565 11.182-30.923 15.66-42.656 6.737-47.141-30.281-37.035-47.67 10.105-17.382-1.088-34.224-1.088-34.224 12.035 6.751 84.947 53.312 99.502 79.979 2.251 5.038 19.918 34.771-8.134 44.862zm770.84-712.77c10.084 28.063-32.266 40.386-45.179 27.754-2.224-2.526-14-16.842 4.512-26.649 2.786-0.842 14.014-1.667 13.453 8.972-1.417-1.937-3.228-9.077-12.33-4.481-8.126 4.06-2.337 23.393 12.316 15.719 15.874-8.326 5.088-26.105-3.916-27.474-22.983-1.702-30.26 16.614-27.463 28.481 2.467 10.442 11.182 13.565 15.66 30.923 6.737 42.656-30.281 47.141-47.67 37.035-17.382-10.105-34.224 1.088-34.224 1.088 6.751-12.035 53.312-84.947 79.979-99.502 5.038-2.252 34.771-19.918 44.862 8.134zm-44.863-49.942c-26.667-14.554-73.228-87.467-79.979-99.502 0 0 16.842 11.193 34.224 1.088 17.39-10.105 54.407-5.621 47.67 37.035-4.477 17.358-13.193 20.481-15.66 30.923-2.796 11.866 4.481 30.182 27.463 28.481 9.003-1.369 19.789-19.147 3.916-27.474-14.652-7.674-20.442 11.66-12.316 15.719 9.102 4.596 10.912-2.544 12.33-4.481 0.562 10.639-10.666 9.814-13.453 8.972-18.512-9.807-6.737-24.123-4.512-26.649 12.912-12.631 55.263-0.309 45.179 27.754-10.09 28.053-39.823 10.386-44.862 8.134zm-717.85-676.04c-14.554 26.667-87.467 73.228-99.502 79.979 0 0 11.193-16.842 1.088-34.224-10.105-17.39-5.621-54.407 37.035-47.67 17.358 4.477 20.481 13.193 30.923 15.66 11.866 2.796 30.182-4.481 28.481-27.463-1.369-9.003-19.147-19.789-27.474-3.916-7.674 14.652 11.66 20.442 15.719 12.316 4.596-9.102-2.544-10.912-4.481-12.33 10.639-0.562 9.814 10.666 8.972 13.452-9.807 18.512-24.123 6.737-26.649 4.512-12.631-12.912-0.309-55.263 27.754-45.179 28.053 10.091 10.386 39.824 8.134 44.863zm-676.04 717.85c26.667 14.554 73.228 87.467 79.979 99.502 0 0-16.842-11.193-34.224-1.088-17.39 10.105-54.407 5.621-47.67-37.035 4.477-17.358 13.193-20.481 15.66-30.923 2.796-11.866-4.481-30.182-27.463-28.481-9.003 1.369-19.789 19.147-3.916 27.474 14.652 7.674 20.442-11.66 12.316-15.719-9.102-4.596-10.912 2.544-12.33 4.481-0.562-10.639 10.666-9.814 13.452-8.972 18.512 9.807 6.737 24.123 4.512 26.649-12.912 12.631-55.263 0.309-45.179-27.754 10.091-28.053 39.824-10.387 44.863-8.134zm717.85 676.04c14.554-26.667 87.467-73.228 99.502-79.979 0 0-11.193 16.842-1.088 34.224 10.105 17.39 5.621 54.407-37.035 47.67-17.358-4.477-20.481-13.193-30.923-15.66-11.866-2.796-30.182 4.481-28.481 27.463 1.369 9.003 19.147 19.789 27.474 3.916 7.674-14.652-11.66-20.442-15.719-12.316-4.596 9.102 2.544 10.912 4.481 12.33-10.639 0.562-9.814-10.666-8.972-13.453 9.807-18.512 24.123-6.737 26.649-4.512 12.631 12.912 0.309 55.263-27.754 45.179-28.053-10.09-10.387-39.823-8.134-44.862z"/>
 <path d="m822.05 246.71l355.04-0.047 223.99-3.649-3.649 223.99-0.047 355.04 0.047 355.04 3.649 223.99-223.99-3.649-355.04-0.047-355.04 0.047-223.99 3.649 3.649-223.99 0.047-355.04-0.047-355.04-3.649-223.99 223.99 3.649 355.04 0.047zm585.46-10.119l-227.72-3.71c-2.816 0.36-5.648 0.35-8.343-0.045-35.146-5e-3 -226.74-0.03-349.39-0.046-122.65 0.016-314.25 0.041-349.39 0.046-2.695 0.395-5.527 0.404-8.343 0.045l-227.72 3.71-3.71 227.72c0.36 2.816 0.35 5.648-0.045 8.343-5e-3 35.146-0.03 226.74-0.046 349.39 0.016 122.65 0.041 314.25 0.046 349.39 0.395 2.695 0.404 5.527 0.045 8.343l3.71 227.72 227.72 3.709c2.816-0.36 5.648-0.35 8.343 0.045 35.146 5e-3 226.74 0.03 349.39 0.045 122.65-0.016 314.25-0.041 349.39-0.045 2.695-0.395 5.527-0.405 8.343-0.045l227.72-3.709 3.709-227.72c-0.36-2.816-0.35-5.648 0.045-8.343 5e-3 -35.146 0.03-226.74 0.045-349.39-0.016-122.65-0.041-314.25-0.045-349.39-0.395-2.695-0.405-5.527-0.045-8.343l-3.709-227.72z"/>
 <path d="m1443.1 200.95c-36.222 2.042-43.777-5.856-63.229-19.842-21.87-15.705-42.596-54.968-93.08-63.403-52.807-8.807-69.912 28.4-74.368 42.175 4.165-23.53-24.421-45.087-49.018-26.526-34.895 26.351-7.298 51.053-7.298 51.053-42.087 5.579-92.543 14.54-146.38-18.582-8.968-7.838-42.063-31.417-25.765-75.137 0 0-10.667-3.93-15.719-13.474 0 0-47.14 117.19 123.35 126.21 16.246 2.26 51.316-5.544 78.789-4.947 10.782 0 24.888 3.305 24.053 13.544-1.544 18.989-29.877 16.505-32.449 7.79-1.375-4.667 0-6.421 0-6.421-1.789 10.007 16.046 10 16.432 0.772 0.579-13.789-23.614-15.915-23.614 0.772 0 10.86 7.507 16.578 16.583 17.908 2.695 0.395 5.527 0.404 8.343 0.045 11.684-1.493 23.075-9.312 23.075-22.068 0-17.456-20.912-20.797-31.176-20.797 45.983-17.916 147.1-29.67 196.46 0.632 25.343 15.563 48.918 18.399 68.666 16.643-1.756 19.749 1.08 43.323 16.643 68.666 30.302 49.35 18.547 150.47 0.632 196.46 0-10.263-3.34-31.176-20.797-31.176-12.756 0-20.575 11.391-22.068 23.075-0.36 2.816-0.35 5.648 0.045 8.343 1.33 9.075 7.048 16.582 17.908 16.582 16.688 0 14.561-24.193 0.772-23.614-9.228 0.386-9.235 18.221 0.772 16.432 0 0-1.754 1.375-6.421 0-8.716-2.572-11.2-30.905 7.79-32.449 10.239-0.835 13.544 13.27 13.544 24.053 0.596 27.474-7.207 62.544-4.948 78.789 9.018 170.49 126.21 123.35 126.21 123.35-9.544-5.052-13.474-15.719-13.474-15.719-43.719 16.298-67.298-16.796-75.137-25.765-33.123-53.831-24.161-104.29-18.583-146.38 0 0 24.702 27.596 51.053-7.298 18.561-24.596-2.997-53.182-26.526-49.018 13.776-4.456 50.982-21.561 42.175-74.368-8.435-50.484-47.698-71.21-63.403-93.08-13.987-19.453-21.884-27.008-19.842-63.23zm0 1242.2c-2.042-36.222 5.856-43.777 19.842-63.229 15.705-21.87 54.968-42.596 63.403-93.08 8.807-52.807-28.4-69.912-42.175-74.368 23.53 4.165 45.088-24.421 26.526-49.018-26.351-34.895-51.053-7.298-51.053-7.298-5.579-42.087-14.54-92.543 18.583-146.38 7.839-8.968 31.417-42.063 75.137-25.765 0 0 3.93-10.667 13.474-15.719 0 0-117.19-47.14-126.21 123.35-2.26 16.246 5.544 51.316 4.948 78.789 0 10.782-3.305 24.888-13.544 24.053-18.99-1.544-16.505-29.877-7.79-32.449 4.667-1.375 6.421 0 6.421 0-10.007-1.789-10 16.046-0.772 16.432 13.789 0.579 15.915-23.614-0.772-23.614-10.86 0-16.578 7.507-17.908 16.583-0.395 2.695-0.405 5.527-0.045 8.343 1.493 11.684 9.312 23.075 22.068 23.075 17.456 0 20.797-20.912 20.797-31.176 17.916 45.983 29.67 147.1-0.632 196.46-15.563 25.343-18.399 48.918-16.643 68.666-19.749-1.756-43.323 1.08-68.666 16.643-49.351 30.302-150.47 18.547-196.46 0.632 10.263 0 31.176-3.34 31.176-20.797 0-12.756-11.391-20.575-23.075-22.068-2.816-0.36-5.648-0.35-8.343 0.045-9.075 1.33-16.583 7.048-16.583 17.908 0 16.688 24.193 14.561 23.614 0.772-0.386-9.228-18.221-9.235-16.432 0.772 0 0-1.375-1.754 0-6.421 2.572-8.716 30.905-11.2 32.449 7.79 0.835 10.239-13.27 13.544-24.053 13.544-27.474 0.596-62.544-7.207-78.789-4.948-170.49 9.018-123.35 126.21-123.35 126.21 5.052-9.544 15.719-13.474 15.719-13.474-16.298-43.719 16.796-67.298 25.765-75.137 53.831-33.123 104.29-24.161 146.38-18.583 0 0-27.596 24.702 7.298 51.053 24.596 18.561 53.182-2.997 49.018-26.526 4.456 13.776 21.561 50.982 74.368 42.175 50.484-8.435 71.21-47.698 93.08-63.403 19.451-13.987 27.007-21.884 63.229-19.842zm-1242.2 0c36.222-2.042 43.778 5.856 63.228 19.842 21.87 15.705 42.596 54.968 93.08 63.403 52.807 8.807 69.912-28.4 74.368-42.175-4.165 23.53 24.421 45.088 49.018 26.526 34.895-26.351 7.298-51.053 7.298-51.053 42.087-5.579 92.543-14.54 146.38 18.583 8.968 7.839 42.063 31.417 25.765 75.137 0 0 10.667 3.93 15.719 13.474 0 0 47.14-117.19-123.35-126.21-16.246-2.26-51.316 5.544-78.789 4.948-10.783 0-24.888-3.305-24.053-13.544 1.544-18.99 29.877-16.505 32.449-7.79 1.375 4.667 0 6.421 0 6.421 1.789-10.007-16.046-10-16.432-0.772-0.579 13.789 23.614 15.915 23.614-0.772 0-10.86-7.507-16.578-16.582-17.908-2.695-0.395-5.527-0.405-8.343-0.045-11.684 1.493-23.075 9.312-23.075 22.068 0 17.456 20.912 20.797 31.176 20.797-45.982 17.916-147.1 29.67-196.46-0.632-25.343-15.563-48.918-18.399-68.666-16.643 1.756-19.749-1.08-43.323-16.643-68.666-30.302-49.351-18.547-150.47-0.632-196.46 0 10.263 3.34 31.176 20.797 31.176 12.756 0 20.575-11.391 22.068-23.075 0.36-2.816 0.35-5.648-0.045-8.343-1.331-9.075-7.048-16.583-17.908-16.583-16.688 0-14.561 24.193-0.772 23.614 9.228-0.386 9.235-18.221-0.772-16.432 0 0 1.754-1.375 6.421 0 8.716 2.572 11.2 30.905-7.79 32.449-10.239 0.835-13.544-13.27-13.544-24.053-0.596-27.474 7.207-62.544 4.947-78.789-9.018-170.49-126.21-123.35-126.21-123.35 9.544 5.052 13.474 15.719 13.474 15.719 43.719-16.298 67.298 16.796 75.137 25.765 33.123 53.831 24.161 104.29 18.582 146.38 0 0-24.702-27.596-51.053 7.298-18.561 24.596 2.997 53.182 26.526 49.018-13.775 4.456-50.982 21.561-42.175 74.368 8.435 50.484 47.698 71.21 63.403 93.08 13.988 19.451 21.886 27.007 19.844 63.229zm0-1242.2c2.042 36.222-5.856 43.778-19.842 63.228-15.705 21.87-54.968 42.596-63.403 93.08-8.807 52.807 28.4 69.912 42.175 74.368-23.53-4.165-45.087 24.421-26.526 49.018 26.351 34.895 51.053 7.298 51.053 7.298 5.579 42.087 14.54 92.543-18.582 146.38-7.838 8.968-31.417 42.063-75.137 25.765 0 0-3.93 10.667-13.474 15.719 0 0 117.19 47.14 126.21-123.35 2.26-16.246-5.544-51.316-4.947-78.789 0-10.783 3.305-24.888 13.544-24.053 18.989 1.544 16.505 29.877 7.79 32.449-4.667 1.375-6.421 0-6.421 0 10.007 1.789 10-16.046 0.772-16.432-13.789-0.579-15.915 23.614 0.772 23.614 10.86 0 16.578-7.507 17.908-16.582 0.395-2.695 0.404-5.527 0.045-8.343-1.493-11.684-9.312-23.075-22.068-23.075-17.456 0-20.797 20.912-20.797 31.176-17.916-45.982-29.67-147.1 0.632-196.46 15.563-25.343 18.399-48.918 16.643-68.666 19.749 1.756 43.323-1.08 68.666-16.643 49.35-30.302 150.47-18.547 196.46-0.632-10.263 0-31.176 3.34-31.176 20.797 0 12.756 11.391 20.575 23.075 22.068 2.816 0.36 5.648 0.35 8.343-0.045 9.075-1.331 16.582-7.048 16.582-17.908 0-16.688-24.193-14.561-23.614-0.772 0.386 9.228 18.221 9.235 16.432-0.772 0 0 1.375 1.754 0 6.421-2.572 8.716-30.905 11.2-32.449-7.79-0.835-10.239 13.27-13.544 24.053-13.544 27.474-0.596 62.544 7.207 78.789 4.947 170.49-9.018 123.35-126.21 123.35-126.21-5.052 9.544-15.719 13.474-15.719 13.474 16.298 43.719-16.796 67.298-25.765 75.137-53.831 33.123-104.29 24.161-146.38 18.582 0 0 27.596-24.702-7.298-51.053-24.596-18.561-53.182 2.997-49.018 26.526-4.456-13.775-21.561-50.982-74.368-42.175-50.484 8.435-71.21 47.698-93.08 63.403-19.453 13.988-27.008 21.886-63.23 19.844zm1100.5-64.179c16.263 5.052 33.649 11.228 57.193 39.298 0 0-40.93-34.807-134.6-12.4 0 0 7.316-42.07 77.403-26.898zm-1164.6 205.91c5.052-16.263 11.228-33.649 39.298-57.193 0 0-34.807 40.93-12.4 134.6 0 0-42.07-7.316-26.898-77.403zm205.91 1164.6c-16.263-5.052-33.649-11.228-57.193-39.298 0 0 40.93 34.807 134.6 12.4 0 0-7.316 42.07-77.403 26.898zm1164.6-205.91c-5.052 16.263-11.228 33.649-39.298 57.193 0 0 34.807-40.93 12.4-134.6 0 0 42.07 7.316 26.898 77.403zm-26.898-881.34c22.407-93.667-12.4-134.6-12.4-134.6 28.07 23.544 34.246 40.93 39.298 57.193 15.172 70.087-26.898 77.403-26.898 77.403zm-1060.3-256.41c-93.667-22.407-134.6 12.4-134.6 12.4 23.544-28.07 40.93-34.246 57.193-39.298 70.087-15.172 77.403 26.898 77.403 26.898zm-256.41 1060.3c-22.407 93.667 12.4 134.6 12.4 134.6-28.07-23.544-34.246-40.93-39.298-57.193-15.172-70.087 26.898-77.403 26.898-77.403zm1060.3 256.41c93.667 22.407 134.6-12.4 134.6-12.4-23.544 28.07-40.93 34.246-57.193 39.298-70.087 15.172-77.403-26.898-77.403-26.898zm-58.333-1305c-3.362-5.6-10.632-22.421 10.684-30.842 21.288-8.407 29.624 18.084 20.158 24.702-9.474 6.621-17.947 7.839-17.947 7.839s-9.527 3.916-12.895-1.699zm-990.26 302.99c-5.6 3.362-22.421 10.632-30.842-10.684-8.407-21.288 18.084-29.624 24.702-20.158 6.621 9.474 7.839 17.947 7.839 17.947s3.916 9.527-1.699 12.895zm302.99 990.26c3.362 5.6 10.632 22.421-10.684 30.842-21.288 8.407-29.624-18.084-20.158-24.702 9.474-6.621 17.947-7.839 17.947-7.839s9.527-3.915 12.895 1.699zm990.26-302.99c5.6-3.362 22.421-10.632 30.842 10.684 8.407 21.288-18.084 29.624-24.702 20.158-6.621-9.474-7.839-17.947-7.839-17.947s-3.915-9.527 1.699-12.895zm-1.698-700.16s1.218-8.474 7.839-17.947c6.618-9.466 33.109-1.13 24.702 20.158-8.421 21.316-25.242 14.046-30.842 10.684-5.615-3.368-1.699-12.895-1.699-12.895zm-1001.5-288.4s-8.474-1.218-17.947-7.839c-9.466-6.618-1.13-33.109 20.158-24.702 21.316 8.421 14.046 25.242 10.684 30.842-3.368 5.615-12.895 1.699-12.895 1.699zm-288.4 1001.5s-1.218 8.474-7.839 17.947c-6.618 9.466-33.109 1.13-24.702-20.158 8.421-21.316 25.242-14.046 30.842-10.684 5.615 3.369 1.699 12.895 1.699 12.895zm1001.5 288.4s8.474 1.218 17.947 7.839c9.466 6.618 1.13 33.109-20.158 24.702-21.316-8.421-14.046-25.242-10.684-30.842 3.369-5.615 12.895-1.699 12.895-1.699z"/>
 <path d="m1013.8 82.21c15.074-14.526 7.509-34.235 7.509-34.235s-2.19 5.07-4.856 7.954c-11.046 11.923-18.625 3.368-21.649-0.667-4.642-6.182-5.081-13.252 1.323-17.663 6.403-4.414 14.796-5.088 14.796-5.088s-24.224-9.783-39.533 8.175c-12.807 15.017-4.088 32.575 3.976 40.638 8.059 8.065 26.287 12.598 38.434 0.886z"/>
 <path d="m82.21 630.27c-14.526-15.074-34.235-7.509-34.235-7.509s5.07 2.19 7.954 4.856c11.923 11.046 3.368 18.625-0.667 21.649-6.182 4.642-13.252 5.081-17.663-1.323-4.414-6.403-5.088-14.796-5.088-14.796s-9.783 24.224 8.175 39.533c15.017 12.807 32.575 4.088 40.638-3.976 8.065-8.058 12.598-26.287 0.886-38.434z"/>
 <path d="m630.27 1561.9c-15.074 14.526-7.509 34.235-7.509 34.235s2.19-5.07 4.856-7.954c11.046-11.923 18.625-3.368 21.649 0.667 4.642 6.182 5.081 13.252-1.323 17.663-6.403 4.414-14.796 5.088-14.796 5.088s24.224 9.783 39.533-8.175c12.807-15.017 4.088-32.575-3.976-40.638-8.058-8.065-26.287-12.598-38.434-0.886z"/>
 <path d="m1561.9 1013.8c14.526 15.074 34.235 7.509 34.235 7.509s-5.07-2.19-7.954-4.856c-11.923-11.046-3.368-18.625 0.667-21.649 6.182-4.642 13.252-5.081 17.663 1.323 4.414 6.403 5.088 14.796 5.088 14.796s9.783-24.224-8.175-39.533c-15.017-12.807-32.575-4.088-40.638 3.976-8.065 8.059-12.598 26.287-0.886 38.434z"/>
 <path d="m1561.9 630.27c14.526-15.074 34.235-7.509 34.235-7.509s-5.07 2.19-7.954 4.856c-11.923 11.046-3.368 18.625 0.667 21.649 6.182 4.642 13.252 5.081 17.663-1.323 4.414-6.403 5.088-14.796 5.088-14.796s9.783 24.224-8.175 39.533c-15.017 12.807-32.575 4.088-40.638-3.976-8.065-8.058-12.598-26.287-0.886-38.434z"/>
 <path d="m630.27 82.21c-15.074-14.526-7.509-34.235-7.509-34.235s2.19 5.07 4.856 7.954c11.046 11.923 18.625 3.368 21.649-0.667 4.642-6.182 5.081-13.252-1.323-17.663-6.403-4.414-14.796-5.088-14.796-5.088s24.224-9.783 39.533 8.175c12.807 15.017 4.088 32.575-3.976 40.638-8.058 8.065-26.287 12.598-38.434 0.886z"/>
 <path d="m82.21 1013.8c-14.526 15.074-34.235 7.509-34.235 7.509s5.07-2.19 7.954-4.856c11.923-11.046 3.368-18.625-0.667-21.649-6.182-4.642-13.252-5.081-17.663 1.323-4.414 6.403-5.088 14.796-5.088 14.796s-9.783-24.224 8.175-39.533c15.017-12.807 32.575-4.088 40.638 3.976 8.065 8.059 12.598 26.287 0.886 38.434z"/>
 <path d="m1013.8 1561.9c15.074 14.526 7.509 34.235 7.509 34.235s-2.19-5.07-4.856-7.954c-11.046-11.923-18.625-3.368-21.649 0.667-4.642 6.182-5.081 13.252 1.323 17.663 6.403 4.414 14.796 5.088 14.796 5.088s-24.224 9.783-39.533-8.175c-12.807-15.017-4.088-32.575 3.976-40.638 8.059-8.065 26.287-12.598 38.434-0.886z"/>
</svg>
