<?xml version='1.0' encoding='utf-8'?>
<svg xmlns="http://www.w3.org/2000/svg" width="3000" height="2680.554" viewBox="0 0 793.75 709.23"><g paint-order="fill markers stroke"><path d="M55.125 91.87a18.334 18.334 0 0 0-18.374 18.374V709.23H793.75V110.245a18.334 18.334 0 0 0-18.374-18.374z" fill-opacity=".15"/><path d="M18.374 55.128A18.334 18.334 0 0 0 0 73.5v598.985h756.999V73.5a18.334 18.334 0 0 0-18.374-18.373z" fill="#f9f9f9"/><path d="M18.374 55.121A18.334 18.334 0 0 0 0 73.495v91.869h757V73.495a18.334 18.334 0 0 0-18.374-18.374h-91.869v51.447a22 22 0 0 1-22.048 22.048h-66.146a22 22 0 0 1-22.048-22.048V55.12h-316.03v51.447a22 22 0 0 1-22.048 22.048H132.29a22 22 0 0 1-22.048-22.048V55.12z" fill="#5fbcd3"/><path d="M143.316 0a14.667 14.667 0 0 0-14.7 14.699v80.844c0 8.144 6.556 14.7 14.7 14.7h44.097a14.667 14.667 0 0 0 14.699-14.7V14.7a14.667 14.667 0 0 0-14.7-14.7zm426.27 0a14.667 14.667 0 0 0-14.698 14.699v80.844c0 8.144 6.555 14.7 14.699 14.7h44.097a14.667 14.667 0 0 0 14.698-14.7V14.7A14.667 14.667 0 0 0 613.684 0z" fill="#5fbcd3"/><path d="M198.437 363.799h110.25v110.25h-110.25zM73.493 363.799h110.25v110.25H73.493zM573.269 238.855h110.25v110.25h-110.25zM448.325 238.855h110.25v110.25h-110.25zM323.381 238.855h110.25v110.25H323.38zM198.437 238.855h110.25v110.25h-110.25zM73.493 238.855h110.25v110.25H73.493z" fill="#afe9c6"/><path d="M323.381 363.799h110.25v110.25H323.38z" fill="#ffd42a"/><path d="M573.269 488.743h110.25v110.249h-110.25zM448.325 488.743h110.25v110.249h-110.25zM323.381 488.743h110.25v110.249H323.38zM198.437 488.743h110.25v110.249h-110.25zM73.493 488.743h110.25v110.249H73.493zM573.269 363.799h110.25v110.25h-110.25zM448.325 363.799h110.25v110.25h-110.25z" fill="#ff8080"/><path d="M378.504 374.276c-6.176 0-16.262 3.84-14.17 15.228l5.292 28.8c1.154 6.28 2.494 11.525 8.878 11.525s7.724-5.245 8.878-11.525l5.292-28.8c2.105-11.462-7.98-15.228-14.17-15.228Zm0 64.161a12.568 12.568 0 0 0-12.568 12.568 12.568 12.568 0 0 0 12.568 12.567 12.568 12.568 0 0 0 12.568-12.567 12.568 12.568 0 0 0-12.568-12.568z" fill="#333"/></g></svg>