<?xml version="1.0" encoding="UTF-8"?>
<svg viewBox="0 0 744.09448819 1052.3622047" xmlns="http://www.w3.org/2000/svg" xmlns:xlink="http://www.w3.org/1999/xlink">
 <defs>
  <filter id="w">
   <feGaussianBlur stdDeviation=".9274"/>
  </filter>
  <filter id="v">
   <feGaussianBlur stdDeviation="1.7331"/>
  </filter>
  <filter id="u">
   <feGaussianBlur stdDeviation="7.6806"/>
  </filter>
  <filter id="t">
   <feGaussianBlur stdDeviation="16.9489"/>
  </filter>
  <linearGradient id="c">
   <stop stop-color="#fff" offset="0"/>
   <stop stop-color="#fff" stop-opacity="0" offset="1"/>
  </linearGradient>
  <linearGradient id="d">
   <stop offset="0"/>
   <stop stop-color="#dbdbdb" offset=".5023"/>
   <stop stop-color="#dbdbdb" offset=".5437"/>
   <stop offset="1"/>
  </linearGradient>
  <linearGradient id="e">
   <stop stop-color="#fff" offset="0"/>
   <stop stop-color="#fc0" stop-opacity="0" offset="1"/>
  </linearGradient>
  <linearGradient id="f">
   <stop stop-color="#fcea9f" offset="0"/>
   <stop stop-color="#d4aa00" offset=".094"/>
   <stop stop-color="#917918" offset=".2586"/>
   <stop stop-color="#fae697" offset=".49"/>
   <stop stop-color="#917918" offset=".7137"/>
   <stop stop-color="#d4aa00" offset=".9228"/>
   <stop stop-color="#fcea9f" offset="1"/>
  </linearGradient>
  <linearGradient id="s" x1="189.39" x2="572.97" gradientUnits="userSpaceOnUse">
   <stop stop-color="#fcea9f" offset="0"/>
   <stop stop-color="#d4aa00" offset=".2223"/>
   <stop stop-color="#917918" offset=".2925"/>
   <stop stop-color="#fae697" offset=".4997"/>
   <stop stop-color="#917918" offset=".6338"/>
   <stop stop-color="#d4aa00" offset=".6927"/>
   <stop stop-color="#fcea9f" offset="1"/>
  </linearGradient>
  <linearGradient id="q" x1="512.21" x2="582.33" y1="271.18" y2="245.17" gradientUnits="userSpaceOnUse">
   <stop offset="0"/>
   <stop stop-color="#dbdbdb" offset=".3234"/>
   <stop stop-color="#dbdbdb" offset=".7588"/>
   <stop offset="1"/>
  </linearGradient>
  <linearGradient id="r" x1="189.84" x2="572.73" gradientUnits="userSpaceOnUse" xlink:href="#d"/>
  <linearGradient id="a" x1="189.84" x2="572.09" gradientUnits="userSpaceOnUse" xlink:href="#f"/>
  <linearGradient id="p" x1="187.09" x2="290.25" y1="268.61" y2="288.11" gradientUnits="userSpaceOnUse" xlink:href="#d"/>
  <linearGradient id="o" x1="149.06" x2="630.63" gradientUnits="userSpaceOnUse" xlink:href="#f"/>
  <radialGradient id="n" cx="-554.8" cy="296.78" r="151.14" gradientTransform="matrix(.99998 .00699 -.00945 1.3531 2.7916 -100.91)" gradientUnits="userSpaceOnUse">
   <stop stop-color="#d45500" offset="0"/>
   <stop stop-color="#108ff2" stop-opacity=".9961" offset=".523"/>
   <stop stop-color="#fff" stop-opacity=".9961" offset=".6555"/>
   <stop stop-color="#fff" stop-opacity=".9961" offset=".7956"/>
   <stop stop-color="#108ff2" stop-opacity=".9961" offset=".9506"/>
   <stop stop-color="#d45500" stop-opacity=".986" offset="1"/>
  </radialGradient>
  <radialGradient id="m" cx="-563.29" cy="876" r="200.82" gradientTransform="matrix(1.345 -.00207 .00050791 .33078 193.9 585.08)" gradientUnits="userSpaceOnUse">
   <stop stop-color="#fff9f9" offset="0"/>
   <stop stop-color="#fff9f9" stop-opacity="0" offset="1"/>
  </radialGradient>
  <radialGradient id="j" cx="-558.4" cy="121.36" r="160.06" gradientTransform="matrix(1.1406 -.0392 .00303 .08824 1024.9 68.912)" gradientUnits="userSpaceOnUse">
   <stop stop-color="#fff" offset="0"/>
   <stop stop-color="#ccc" stop-opacity="0" offset="1"/>
  </radialGradient>
  <radialGradient id="h" cx="-560.52" cy="633.27" r="71.766" gradientTransform="matrix(1.6512 -.02159 .04077 3.1183 1286.1 -1410.9)" gradientUnits="userSpaceOnUse">
   <stop stop-color="#fcf6f6" offset="0"/>
   <stop stop-color="#808080" stop-opacity="0" offset="1"/>
  </radialGradient>
  <radialGradient id="b" cx="-484.87" cy="248.28" r="29.286" gradientUnits="userSpaceOnUse" xlink:href="#c"/>
  <radialGradient id="l" cx="-560.43" cy="941.32" r="196.66" gradientTransform="matrix(1.5674 .05054 -.00788 .24428 1272.3 608.86)" gradientUnits="userSpaceOnUse" xlink:href="#c"/>
  <radialGradient id="k" cx="-558.62" cy="100.04" r="160.06" gradientTransform="matrix(.46312 .00931 -.0031 .15418 647.36 89.318)" gradientUnits="userSpaceOnUse" xlink:href="#c"/>
  <radialGradient id="i" cx="-557.75" cy="420.43" r="160.06" gradientTransform="matrix(1.0261 -.01722 .02134 1.2719 955.63 -189.55)" gradientUnits="userSpaceOnUse" xlink:href="#e"/>
  <radialGradient id="g" cx="-558.4" cy="341.14" r="160.06" gradientTransform="matrix(.41876 -.01552 .07236 1.9528 597.49 -371.26)" gradientUnits="userSpaceOnUse" xlink:href="#e"/>
 </defs>
 <path transform="matrix(.91945 0 0 .91945 901.76 -10.073)" d="m-650.58477,92.97768c-77.9122-.12046-151.6455,5.78817-146.6563,19.75 .8143,3.01864 1.6619,6.04906 2.4687,9.0625 .0137.0511.0176.1052.0313.15625 .3892,1.45499.7538,2.89362 1.125,4.34375 .0213.083.0413.167.0625.25 .3617,1.41779.7283,2.83919 1.0625,4.25 .2862,1.20715.5529,2.42442.8125,3.625 .0605.28041.1286.56375.1875.84375 .0284.1346.0658.27174.0937.40625 .7405,3.56925 1.3406,7.11123 1.7188,10.59375l.0625.59375c.1263,1.24475.2165,2.48852.2813,3.71875 .0115.21779.0217.43894.0312.65625 .1748,4.05141-.006,8.02367-.6875,11.875-.0491.27791-.102.56704-.1563.84375-.475,2.41167-1.1559,4.78212-2.0624,7.09375-.012.0306-.0192.0632-.0313.0937-1.2627,3.19622-2.9788,6.27938-5.2187,9.25-.2617.34725-.505.68739-.7813,1.03125-3.9132-1.12533-7.7822-2.42719-11.5937-3.84375-2.18-.81013-4.3597-1.64097-6.5-2.53125-.6042-.25148-1.2117-.5239-1.8126-.78125l-1.7187-.75c-.8184-.35978-1.6257-.72392-2.4375-1.09375l-.2188-.0937c-.9553-.43659-1.8979-.89422-2.8437-1.34375-.4706-.22354-.9381-.4297-1.4063-.65625l-1.5312-.75c-1.7515-.86461-3.4732-1.75503-5.1875-2.65625-.1157-.0608-.2282-.12651-.3437-.1875-4.2248-2.22982-8.3422-4.55636-12.3126-6.9375l-.8437-.5c-1.6302-.98544-3.2307-1.97056-4.8125-2.96875-1.2298-.77598-2.426-1.56396-3.625-2.34375-.2876-.18704-.5892-.37534-.875-.5625-14.2822-9.35391-26.2915-18.80544-34.875-25.53125-20.413,83.22134 9.4165,161.02221 60.625,236.53125 .4925.72608.9723,1.46187 1.4688,2.1875 1.441,2.10673 2.9016,4.20925 4.375,6.3125 .5236.74744 1.0348,1.50301 1.5624,2.25 1.7719,2.50891 3.5598,5.02702 5.375,7.53125 2.3567,3.25025 4.7619,6.47602 7.1876,9.71875 13.9368,18.63656 28.9904,37.17812 44.6874,55.625l1.2188,4.125 1.75-.625c1.4294,1.67033 2.8731,3.33075 4.3125,5 .7279,2.30293 1.4508,4.59164 2.1875,6.90625 .6306-.73301 1.2714-1.42988 1.9062-2.15625l1.7188,1.96875 5.25-1.75c1.3379,3.95473 2.6925,7.9187 4.0625,11.90625l.6563-.6875 .2812.8125c.0687.20031.1499.39337.2188.59375 1.3478,3.92518 2.6959,7.86026 4.0624,11.8125 1.6412,4.74699 3.2912,9.53372 4.9376,14.3125 1.2351,3.58475 2.461,7.15128 3.6874,10.75 .2737.80295.5397,1.60271.8126,2.40625 1.1544,3.39889 2.3013,6.81098 3.4374,10.21875 .3335,1.00031.6686,1.99908 1,3 1.064,3.21296 2.118,6.43857 3.1563,9.65625 1.0993,3.40744 2.1876,6.80876 3.25,10.21875 .2528.81126.4996,1.62619.75,2.4375 1.115,3.61297 2.2195,7.23191 3.2813,10.84375l.5312,1.8125c1.1114,3.81577 2.1801,7.62745 3.2188,11.4375 .0252.0927.0372.18857.0624.28125l-1.1562-.21875c8.7948,31.47698 15.0393,62.74789 15.4688,92.6875-.002.64527.008,1.29354 0,1.9375-.8145,67.44772-32.6639,127.70641-133.8438,167.90625-.306.12158-.5989.25379-.9062.375-.7826,1.4487-1.4738,2.895-2.125,4.34375-.142.31602-.3016.62148-.4376.9375-.4015.9319-.7732,1.88058-1.125,2.8125-.218.57913-.4253,1.17086-.625,1.75-.2617.75809-.5183,1.52315-.75,2.28125-.0961.31516-.1901.62234-.2812.9375-.1387.47839-.2788.95911-.4062,1.4375-.0936.35252-.1624.70998-.25,1.0625-.0965.38673-.1917.76952-.2813,1.15625-.0504.21821-.108.43804-.1563.65625-.3046,1.37374-.5567,2.75124-.7812,4.125-.0343.21092-.0925.41408-.125.625-.005.0308.005.0629 0,.0937-.0223.14555-.0411.29195-.0625.4375-.3378,2.27962-.5614,4.56411-.7187,6.84375-.056.81969-.1199,1.64905-.1563,2.46875-.1373,3.04673-.1345,6.07831-.0625,9.125-.0105,1.08601-.0454,2.16397-.0312,3.25 .0391.0153.0858.016.125.0312 .2597,6.44377.7752,12.86951 1.125,19.3125 .017.32247.0465.64628.0624.96875l-13.8437,1.8125-1.3125.1875-.0312.59375-.9688,16.59375c.737.40182 1.4898.79514 2.25,1.1875-.3443-.0855-.6869-.16394-1.0312-.25l-.7188,122.12502c39.1458,23.5326 115.5937,33.5495 196,32.8437 2.5127-.022 5.0431-.082 7.5625-.125 7.5582-.1286 15.137-.3434 22.7187-.6563s15.1684-.7262 22.7188-1.2187c62.9201-4.1039 123.7945-14.3431 166.7188-29.4062l.7187-127.40627c.0823-.0377.1682-.0872.25-.125l-2.8437-17.96875-.0313-.21875-.0313-.25-.0624-.34375-.0626-.40625-.4374.0937-8.6563,1.90625c.3169-.74514.6044-1.47415.875-2.21875 .098-.26443.1883-.51683.2813-.78125 .0463-.13463.0799-.27162.125-.40625 3.2489-9.50119 3.2907-19.00258 1.8124-28.5-.0629-.40453-.1192-.81422-.1874-1.21875-.0667-.3941-.1473-.7934-.2188-1.1875-.062-.3423-.1221-.68895-.1875-1.03125-.088-.45937-.1873-.91563-.2813-1.375-.006-.0321-.0246-.0616-.0312-.0937-.6497-3.16395-1.4229-6.3359-2.2812-9.5-.205-.75808-.4126-1.52316-.625-2.28125-1.5886-5.64899-3.3375-11.28687-4.9376-16.9375-.4529-1.6019-.8947-3.21041-1.3124-4.8125-.0298-.11426-.0642-.22949-.0938-.34375-102.9738-27.75496-132.2443-90.40563-131.0625-157.875l.0937-.0312c1.1414-32.33958 9.0654-65.64174 19-96.625-.4477.0672-.8959.1215-1.3437.1875 .44-1.40834.8951-2.81957 1.3437-4.21875 .6121-1.90886 1.2487-3.79703 1.875-5.6875 2.8567-8.62135 5.8494-17.03629 8.875-25.1875 .9395-2.52961 1.8699-4.99372 2.8126-7.46875 .1354-.35581.2708-.70787.4062-1.0625 .9199-2.40748 1.8338-4.83671 2.75-7.1875 6.3205-16.23006 12.4225-30.92075 17.4688-43.6875 .0774-.19567.1418-.3678.2187-.5625 1.1605-2.94112 2.316-5.88328 3.3437-8.59375 .1056-.27808.2086-.53694.3126-.8125 .4508-1.19529.8605-2.32179 1.2812-3.46875 .2358-.64206.4617-1.24841.6875-1.875 .2725-.75648.5238-1.45397.7813-2.1875 .3386-.96363.6573-1.88928.9687-2.8125l.3437-1.03125c.4112-1.24009.8001-2.43191 1.1563-3.59375l6.0625,1.03125c8.1953-9.07191 16.4482-18.86808 24.6562-29.21875l.0626-.0625c3.9634-4.99949 7.9224-10.13237 11.8437-15.375l.4375-.59375c1.8228-2.44226 3.6287-4.91735 5.4375-7.40625 .8825-1.21396 1.7776-2.43183 2.6563-3.65625 1.0651-1.48477 2.1285-2.96928 3.1874-4.46875 .2712-.38385.5418-.77146.8126-1.15625 69.1286-98.2863 123.9604-226.79714 79.1874-281.53125-14.1515,14.239-29.1952,27.5991-45.625,39.5625-1.4994,1.09186-3.0084,2.18152-4.5312,3.25-.0546.0382-.1017.0868-.1562.125-3.7828,2.65059-7.6563,5.19209-11.5938,7.6875-3.1702,2.00452-6.3771,3.97954-9.6562,5.875-.2177.12607-.4382.24943-.6563.375-1.8674,1.07272-3.7519,2.12057-5.6563,3.15625-2.0434,1.11271-4.0989,2.21357-6.1874,3.28125-2.2559,1.15318-4.5347,2.27518-6.8438,3.375-9.0641-18.62478-12.5124-37.50492-2.2812-57.09375 .5817-1.11819 1.2033-2.2519 1.875-3.375 .4649-.77402.9595-1.53626 1.4687-2.3125 .6222-.95129 1.277-1.92127 1.9687-2.875 1.9972-2.70131-.6982-5.16766-6.9374-7.40625l.9374-.40625c-14.6322-6.36877-57.8936-10.89351-107.8124-12.96875l-2.0313,1.15625c-18.4486-.72207-37.6835-1.12682-56.7187-1.15625zm227.5312,87.21875c13.4299-.4444 16.3882,10.70302 14.2188,27.5-8.147,49.11841-25.8882,86.48474-48.375,118-.005.007.005.0243 0,.0312-1.1196,1.56876-2.2638,3.11571-3.4063,4.65625-.6735.90717-1.3501,1.82099-2.0313,2.71875-.4763.62846-.9574,1.25102-1.4374,1.875-.4422.57422-.8673,1.14824-1.3126,1.71875-.7342.94192-1.4764,1.88039-2.2187,2.8125l-.5937.75c-.8591,1.07278-1.7246,2.12714-2.5938,3.1875l-.2812.34375-.125.15625c-.9147,1.11091-1.8249,2.21453-2.75,3.3125-.2998.35601-.6055.70781-.9063,1.0625-.6686.7877-1.3262,1.56235-2,2.34375-1.8058,2.09594-3.6283,4.16524-5.4687,6.21875-.1573.1754-.3113.35614-.4688.53125-1.1054,1.22942-2.2271,2.44063-3.3438,3.65625-.902.98185-1.8098,1.96395-2.7187,2.9375-4.0532,4.34166-8.1771,8.60986-12.3437,12.8125-.1867.18824-.3758.37449-.5626.5625-.8686-52.75062-1.2119-105.52525 17.6876-159.59375 .7574-.22852 1.501-.48163 2.25-.71875 1.6663-.5276 3.3172-1.08271 4.9374-1.65625 .2799-.0991.5654-.18075.8438-.28125 .6093-.21996 1.2103-.42915 1.8125-.65625l.5625-.21875c.812-.3105 1.6081-.64448 2.4062-.96875 .7031-.2855 1.4019-.57838 2.0938-.875 .2786-.11949.567-.2224.8438-.34375 .9633-.42213 1.9036-.86719 2.8437-1.3125 1.8806-.89162 3.7195-1.82084 5.5-2.8125 .73-.40615 1.4441-.82594 2.1563-1.25l.4687-.28125c.9543-.57693 1.8923-1.17013 2.8125-1.78125l.5625-.375c.3452-.23385.6911-.44856 1.0313-.6875 1.0252-.72041 1.9913-1.48175 2.9687-2.25l.0625-.0312c.7545-.59426 1.4941-1.21967 2.2188-1.84375 .2298-.19773.4607-.39295.6874-.59375 1.2438-1.10259 2.4458-2.2391 3.5938-3.4375l.4688-.5c.5055-.54008 1.0144-1.09617 1.5-1.65625 .3381-.3902.6717-.78738 1-1.1875 2.404-2.92997 4.5399-6.12519 6.375-9.625 4.2802-1.40803 7.932-2.14745 11.0312-2.25zm-431.8438,8.09375c.6956-.0241 1.4295-.0137 2.1876.0312 .7149.0423 1.4469.11351 2.2187.21875l.1875.0312c.7482.10626 1.5094.23922 2.3125.40625 .1979.0411.3925.11136.5937.15625 .6889.15335 1.3955.30169 2.125.5l1.0626.3125c.6094.17881 1.2062.3528 1.8437.5625 .4019.76658.8195,1.51191 1.25,2.25 .1721.29511.3547.5844.5313.875 .3911.64385.7746,1.28402 1.1874,1.90625 .0703.10579.148.20733.2188.3125 1.0027,1.48955 2.0645,2.91179 3.1875,4.28125 1.008,1.2282 2.0565,2.39493 3.1563,3.53125 .2184.22622.4342.46478.6562.6875 .2559.2561.5208.49851.7812.75 .7133.69042 1.4406,1.3745 2.1876,2.03125l.0937.0625c1.4935,1.30836 3.036,2.53716 4.6563,3.71875 .0235.0171.0389.0454.0624.0625 4.1007,2.98257 8.6049,5.56227 13.4063,7.84375 .964.45742 1.949.91061 2.9375,1.34375 .0127.006.0185.0257.0312.0312 .9764.4274 1.9699.81376 2.9688,1.21875 3.9744,1.61134 8.1219,3.07468 12.4062,4.375 .0951.0288.1863.0652.2813.0937 1.801,5.15224 3.4073,10.30766 4.875,15.4375-2.252,2.90896-4.4981,5.83519-6.7187,8.84375 4.9571,21.38183 7.3868,42.58329 8.5,63.6875 2.5741-4.37129 5.2108-8.63087 7.9062-12.8125 .4609,5.08719.8361,10.1756 1.125,15.25 .3863-.60769.7675-1.20836 1.1562-1.8125 1.5039,23.75187 1.2329,47.37188.8438,71-.6538-.65803-1.3173-1.30774-1.9688-1.96875-4.087-4.14623-8.1202-8.3704-12.0937-12.65625-.5204-.56129-1.0444-1.12337-1.5625-1.6875-.7428-.80882-1.4808-1.62263-2.2188-2.4375-.5313-.58692-1.065-1.1598-1.5937-1.75l-2-2.25c-.0786-.089-.1402-.19218-.2187-.28125-1.2055-1.3663-2.4038-2.73972-3.5938-4.125-.5474-.63761-1.1123-1.26441-1.6562-1.90625l-1.2813-1.53125c-.4327-.51593-.8509-1.04373-1.2813-1.5625-1.0046-1.21025-2.0084-2.42995-3-3.65625-.5615-.69508-1.1303-1.3933-1.6874-2.09375l-1.5313-1.9375c-.1926-.24572-.3704-.5036-.5625-.75-.7859-1.0075-1.5673-2.01211-2.3438-3.03125-.8582-1.12742-1.7163-2.26401-2.5624-3.40625-.5713-.7705-1.1532-1.53503-1.7188-2.3125-8.972-12.34311-17.205-25.57966-24.4375-40.0625-11.5363-23.09939-20.4909-49.35898-25.625-80.3125-2.086-16.15095.5724-27.04831 12.7187-27.46875z" fill="#b3b3b3" filter="url(#t)"/>
 <path d="m190.5 847.85-0.65675 112.3c71.986 43.274 281.2 36.769 382.23 1.3135l0.65676-117.56c-126.62 29.106-253.87 36.024-382.23 3.9405z"/>
 <path d="m376.24 86.728c-71.637-0.11076-139.43 5.322-134.84 18.159 6.097 22.601 13.378 45.364-0.91946 63.155-36.243-10.423-68.275-35.76-85.452-49.22-27.047 110.27 41.791 210.21 127.23 308.36l5.5742-1.8676c42.468 125.97 108 271.58-77.091 344.59-10.703 19.814-7.5076 39.634-6.4936 59.448l-13.935 1.8389-0.91945 15.803c82.045 44.734 322.35 25.496 383.58-2.7871l-2.7871-17.642-8.3613 1.8389c9.2175-21.672-0.88592-43.322-6.4936-64.994-212.09-57.165-84.114-275.31-63.155-343.67l5.5742 0.94818c80.555-89.171 168.62-253.86 117.95-315.8-24.074 24.223-50.869 45.734-83.584 61.316-9.5389-19.6-12.322-39.535 2.7871-60.368 8.6604-11.714-77.475-18.982-158.66-19.107zm209.2 80.194c12.348-0.4086 15.068 9.8409 13.073 25.285-11.985 72.259-46.517 116.84-85.452 156.02-0.79866-48.502-1.1144-97.026 16.263-146.74 20.098-6.063 36.974-15.335 45.973-32.497 3.9356-1.2946 7.2932-1.9745 10.143-2.0688zm-397.06 7.4418c3.127-0.10824 6.9304 0.52964 11.522 2.04 8.9987 17.162 25.875 26.463 45.973 32.526 17.377 49.714 17.062 98.237 16.263 146.74-38.935-39.184-73.467-83.789-85.452-156.05-1.918-14.85 0.52636-24.87 11.694-25.256z" fill="url(#o)"/>
 <g transform="matrix(.79458 0 0 .87539 810.07 1.0538)" fill="#1a1a1a" filter="url(#u)">
  <path d="m-511.47 106.56c-73.694 42.279-138.48 86.127-194.47 156.41 5.62 22.458 8.363 44.74 9.625 66.906 69.973-110.09 180.27-161.76 292.66-210.34-14.632-6.3688-57.894-10.894-107.81-12.969z" opacity=".4959"/>
  <path d="m-440.44 274.53c-93.236 51.61-174.29 93.421-243.38 164.84l11.344 35.75 4.75-1.5938c1.5066 4.4687 3.0441 8.9581 4.5938 13.469 65.83-70.891 152.14-112.07 240.41-150.44 0.50925-16.957 1.6958-33.971 4.2188-51.062l-21.938-10.969z" opacity=".5369"/>
 </g>
 <g transform="matrix(.91945 0 0 .91945 895.26 -23.076)">
  <g transform="translate(5.7143 12.857)" fill="url(#n)">
   <path d="m-511.47 106.56c-73.694 42.279-138.48 86.127-194.47 156.41 5.62 22.458 8.363 44.74 9.625 66.906 69.973-110.09 180.27-161.76 292.66-210.34-14.632-6.3688-57.894-10.894-107.81-12.969z" opacity=".4959"/>
   <path d="m-440.44 274.53c-93.236 51.61-174.29 93.421-243.38 164.84l11.344 35.75 4.75-1.5938c1.5066 4.4687 3.0441 8.9581 4.5938 13.469 65.83-70.891 152.14-112.07 240.41-150.44 0.50925-16.957 1.6958-33.971 4.2188-51.062l-21.938-10.969z" opacity=".5369"/>
  </g>
 </g>
 <path d="m376.24 86.728c-71.637-0.11076-139.43 5.322-134.84 18.159 5.9898 22.204 13.107 44.558-0.20113 62.207l4.4249 41.749 0.2586 0.0862c17.377 49.714 17.062 98.237 16.263 146.74-0.60599-0.60986-1.2064-1.2263-1.8102-1.8389l23.13 72.953 4.3674-1.4654c10.135 30.063 21.587 61.243 30.629 92.29l135.65 2.8446c13.933-42.05 31.405-78.963 38.071-100.71l3.6778 0.63212 17.728-72.666c-0.1716 0.17308-0.34542 0.34433-0.51719 0.51719-0.79866-48.502-1.1144-97.026 16.263-146.74 0.6965-0.21012 1.3802-0.44284 2.0688-0.66086l0.71833-34.623c-9.5389-19.6-12.322-39.535 2.7871-60.368 8.6604-11.714-77.475-18.982-158.66-19.107z" fill="url(#g)"/>
 <path transform="matrix(.91945 0 0 .91945 901.76 -10.073)" d="m-632.28 581.38c9.3811 33.575 15.852 66.915 15.469 98.656 36.068 7.2508 72.433 6.6451 109.06-0.71875 1.1413-32.34 9.0654-65.642 19-96.625-47.841 7.1808-95.691 7.4525-143.53-1.3125z" fill="#4d4d4d" filter="url(#w)"/>
 <path d="m320.41 528.19c8.6255 30.871 14.575 61.525 14.223 90.71 33.163 6.6668 66.598 6.1099 100.28-0.66086 1.0494-29.735 8.3353-60.355 17.47-88.842-43.987 6.6025-87.983 6.8522-131.97-1.2068z" fill="url(#h)"/>
 <path d="m376.24 86.728c-71.637-0.11076-139.43 5.322-134.84 18.159 5.9898 22.204 13.107 44.558-0.20113 62.207l4.4249 41.749 0.2586 0.0862c17.377 49.714 17.062 98.237 16.263 146.74-0.60599-0.60986-1.2064-1.2263-1.8102-1.8389l23.13 72.953 4.3674-1.4654c10.135 30.063 21.587 61.243 30.629 92.29l135.65 2.8446c13.933-42.05 31.405-78.963 38.071-100.71l3.6778 0.63212 17.728-72.666c-0.1716 0.17308-0.34542 0.34433-0.51719 0.51719-0.79866-48.502-1.1144-97.026 16.263-146.74 0.6965-0.21012 1.3802-0.44284 2.0688-0.66086l0.71833-34.623c-9.5389-19.6-12.322-39.535 2.7871-60.368 8.6604-11.714-77.475-18.982-158.66-19.107z" fill="url(#i)"/>
 <path d="m376.24 86.728c-71.637-0.11076-139.43 5.322-134.84 18.159 0.85039 3.1524 1.7225 6.3084 2.5572 9.4531 98.638-17.903 192.68-12.734 284.8 1.9538 1.5827-3.4594 3.6048-6.9511 6.1488-10.459 8.6604-11.714-77.475-18.982-158.66-19.107z" fill="#ccc"/>
 <path d="m376.24 86.728c-71.637-0.11076-139.43 5.322-134.84 18.159 0.85039 3.1524 1.7225 6.3084 2.5572 9.4531 98.638-17.903 192.68-12.734 284.8 1.9538 1.5827-3.4594 3.6048-6.9511 6.1488-10.459 8.6604-11.714-77.475-18.982-158.66-19.107z" fill="url(#j)"/>
 <path d="m376.24 86.728c-71.637-0.11076-139.43 5.322-134.84 18.159 0.85039 3.1524 1.7225 6.3084 2.5572 9.4531 98.638-17.903 192.68-12.734 284.8 1.9538 1.5827-3.4594 3.6048-6.9511 6.1488-10.459 8.6604-11.714-77.475-18.982-158.66-19.107z" fill="url(#k)"/>
 <path d="m570.3 827.26c-118.62 33.675-242.93 44.527-379.99 4.4249l-0.0287 0.0575-0.89072 15.257c82.045 44.734 322.35 25.496 383.58-2.7871l-2.6722-16.952z" fill="#d4aa00"/>
 <path d="m563.69 822.84c-165.08 33.254-200.55 32.808-358.99 5.5742l-0.51719 0.0575c0.0161 0.29649 0.0423 0.59422 0.0575 0.89072l-12.729 1.6665c90.639 32.304 244.07 35.922 378.84-3.333l-0.11493-0.74706-0.45973-0.28733-7.959 1.7527c0.78664-1.8495 1.4051-3.6962 1.9251-5.5455l-0.0575-0.0287z" fill="#ccc"/>
 <path transform="matrix(.91945 0 0 .91945 901.76 -10.073)" d="m-376.69 841.59c-84.522 34.84-275.79 39.745-373.97 6.3438-0.30601 0.12158-0.59897 0.25379-0.90625 0.375-7.0833 13.114-8.5454 26.228-8.375 39.344 92.654 36.26 313.95 25.821 393.31-7.625-1.994-12.811-6.7204-25.621-10.062-38.438z" fill="url(#m)" filter="url(#v)"/>
 <path d="m555.42 768.33c-77.714 32.034-253.58 36.544-343.85 5.8328-0.28136 0.11179-0.55073 0.23335-0.83326 0.3448-6.5128 12.057-7.8571 24.116-7.7004 36.175 85.191 33.339 288.66 23.742 361.63-7.0108-1.8334-11.779-6.1791-23.557-9.252-35.342z" fill="url(#l)"/>
 <path d="m187.09 142.3 3.2181 32.095c2.7307 0.15204 5.9053 0.79696 9.5968 2.0113 7.1933 13.719 19.425 22.383 34.307 28.417l-4.3961-40.312c-15.578-5.7893-30.114-13.951-42.726-22.211zm13.16 131.17 5.5742 55.455c14.566 22.2 31.23 44.159 49.133 66l-5.7466-52.696c-18.628-20.092-35.661-42.125-48.961-68.758z" fill="url(#p)"/>
 <path d="m573.75 141.26c-11.03 8.0313-22.729 15.39-35.342 21.837l-2.8446 36.347c15.092-5.2914 27.937-12.823 36.318-24.825l1.8676-33.359zm-7.9878 141.62c-11.878 19.807-25.869 37.015-40.83 53.041l-4.5111 57.897c14.65-18.474 29.1-38.88 42.467-60.167l2.8733-50.771z" fill="url(#q)"/>
 <path transform="matrix(1.3719 0 0 1.2201 1121.8 -91.407)" d="m-461.64 266.46-20.564-14.218 5.4394 24.402-8.2795-23.59-9.9426 22.939 7.1677-23.951-21.527 12.714 19.877-15.164-24.888-2.3674 24.994-0.58452-18.744-16.544 20.564 14.218-5.4394-24.402 8.2795 23.59 9.9426-22.939-7.1677 23.951 21.527-12.714-19.877 15.164 24.888 2.3675-24.994 0.58451z" fill="url(#b)"/>
 <path transform="matrix(2.3937 0 0 2.2802 1488.5 215.29)" d="m-461.64 266.46-20.564-14.218 5.4394 24.402-8.2795-23.59-9.9426 22.939 7.1677-23.951-21.527 12.714 19.877-15.164-24.888-2.3674 24.994-0.58452-18.744-16.544 20.564 14.218-5.4394-24.402 8.2795 23.59 9.9426-22.939-7.1677 23.951 21.527-12.714-19.877 15.164 24.888 2.3675-24.994 0.58451z" fill="url(#b)"/>
 <path d="m572.09 942.5c-110.78 29.574-245.13 47.389-382.22 0.9375l-0.0312 6c71.986 43.274 281.18 36.768 382.22 1.3125l0.0312-8.25z" fill="url(#a)"/>
 <path d="m572.09 928.93c-110.78 29.574-245.13 47.389-382.22 0.9375l-0.0312 6c71.986 43.274 281.18 36.768 382.22 1.3125l0.0312-8.25z" fill="url(#a)"/>
 <path d="m572.09 881.08c-110.78 29.574-245.13 47.389-382.22 0.9375l-0.0312 6c71.986 43.274 281.18 36.768 382.22 1.3125l0.0312-8.25z" fill="url(#a)"/>
 <path d="m572.09 866.79c-110.78 29.574-245.13 47.389-382.22 0.9375l-0.0312 6c71.986 43.274 281.18 36.768 382.22 1.3125l0.0312-8.25z" fill="url(#a)"/>
 <path d="m190.5 847.85-0.65675 112.3c71.986 43.274 281.2 36.769 382.23 1.3135l0.65676-117.56c-126.62 29.106-253.87 36.024-382.23 3.9405z" fill="url(#r)" opacity=".8156"/>
 <path d="m570.3 827.26c-118.62 33.675-242.93 44.527-379.99 4.4249l-0.0287 0.0575-0.89072 15.257c82.045 44.734 322.35 25.496 383.58-2.7871l-2.6722-16.952z" fill="url(#s)"/>
 <path transform="matrix(1.7353 0 0 1.5433 1113 -281.76)" d="m-461.64 266.46-20.564-14.218 5.4394 24.402-8.2795-23.59-9.9426 22.939 7.1677-23.951-21.527 12.714 19.877-15.164-24.888-2.3674 24.994-0.58452-18.744-16.544 20.564 14.218-5.4394-24.402 8.2795 23.59 9.9426-22.939-7.1677 23.951 21.527-12.714-19.877 15.164 24.888 2.3675-24.994 0.58451z" fill="url(#b)"/>
</svg>
