<?xml version='1.0' encoding='utf-8'?>
<svg xmlns="http://www.w3.org/2000/svg" width="297.00009mm" height="210.00029mm" viewBox="0 0 297.00009 210.00029" version="1.1" id="svg5"> <defs id="defs2"/> <g id="layer1" transform="translate(197.41491,1.4803731e-4)"> <g id="g1858" transform="translate(-197.4149,1.4831699e-4)"> <rect style="fill:#0092f0;fill-opacity:0.919831;fill-rule:evenodd;stroke:#ffffff;stroke-width:2.64583;stroke-linecap:round;stroke-linejoin:round;stroke-dasharray:0.661458, 0.661458;paint-order:stroke fill markers" id="rect1156" width="294.35397" height="207.35423" x="1.3230958" y="1.3226186" ry="12.054515"/> <g id="g1010"> <path style="fill:#00ffff;fill-rule:evenodd;stroke:#008080;stroke-width:2.64583;stroke-linecap:round;stroke-linejoin:round;stroke-dasharray:0.661458, 0.661458;paint-order:stroke fill markers" id="path111" d="m 43.417373,145.98305 c 27.426437,-24.93312 -46.813888,0.37899 -12.513835,-13.67009 34.300052,-14.04908 -36.3652622,19.99122 0.671312,18.52071 37.036575,-1.47051 -36.1051248,-29.80106 -0.799186,-18.51564 35.305939,11.28543 -40.7075175,-8.06097 -11.390631,14.61921 29.316887,22.68017 -8.502373,-46.03687 11.289411,-14.69751 19.791784,31.33936 -26.0022736,-32.341354 -18.122772,3.8772 7.879502,36.21856 23.078734,-40.731507 18.095567,-4.00225 -4.983166,36.72926 0.869723,-41.488853 -16.375066,-8.67898 -17.2447901,32.80986 43.861044,-16.36743 16.434606,8.5657 -27.4264383,24.93312 27.334767,-31.22326 -6.965285,-17.17418 -34.300053,14.04908 44.120285,15.65517 7.08371,17.12567 -37.0365745,1.47051 41.00957,-6.34795 5.70363,-17.63338 -35.305939,-11.28543 23.735154,40.35252 -5.581732,17.67235 -29.3168859,-22.68018 35.495539,21.49763 15.703754,-9.84173 -19.791785,-31.339364 -7.755919,46.16849 -15.63542,9.94993 -7.879501,-36.218554 13.372751,39.28423 18.355916,2.55498 4.983166,-36.729262 -35.617912,30.3817 -18.373121,-2.42817 17.24479,-32.809865 -15.007296,38.68931 12.419142,13.75618 z" transform="translate(-9.8347354,57.055238)"/> <path style="fill:#f9f9f9;fill-rule:evenodd;stroke:#008080;stroke-width:2.64583;stroke-linecap:round;stroke-linejoin:round;stroke-dasharray:0.661458, 0.661458;paint-order:stroke fill markers" id="path325" d="m 43.417373,145.98305 c 27.426437,-24.93312 -46.813888,0.37899 -12.513835,-13.67009 34.300052,-14.04908 -36.3652622,19.99122 0.671312,18.52071 37.036575,-1.47051 -36.1051248,-29.80106 -0.799186,-18.51564 35.305939,11.28543 -40.7075175,-8.06097 -11.390631,14.61921 29.316887,22.68017 -8.502373,-46.03687 11.289411,-14.69751 19.791784,31.33936 -26.0022736,-32.341354 -18.122772,3.8772 7.879502,36.21856 23.078734,-40.731507 18.095567,-4.00225 -4.983166,36.72926 0.869723,-41.488853 -16.375066,-8.67898 -17.2447901,32.80986 43.861044,-16.36743 16.434606,8.5657 -27.4264383,24.93312 27.334767,-31.22326 -6.965285,-17.17418 -34.300053,14.04908 44.120285,15.65517 7.08371,17.12567 -37.0365745,1.47051 41.00957,-6.34795 5.70363,-17.63338 -35.305939,-11.28543 23.735154,40.35252 -5.581732,17.67235 -29.3168859,-22.68018 35.495539,21.49763 15.703754,-9.84173 -19.791785,-31.339364 -7.755919,46.16849 -15.63542,9.94993 -7.879501,-36.218554 13.372751,39.28423 18.355916,2.55498 4.983166,-36.729262 -35.617912,30.3817 -18.373121,-2.42817 17.24479,-32.809865 -15.007296,38.68931 12.419142,13.75618 z" transform="translate(-9.8347354,15.081534)"/> <path style="fill:#00ffff;fill-rule:evenodd;stroke:#008080;stroke-width:2.64583;stroke-linecap:round;stroke-linejoin:round;stroke-dasharray:0.661458, 0.661458;paint-order:stroke fill markers" id="path327" d="m 43.417373,145.98305 c 27.426437,-24.93312 -46.813888,0.37899 -12.513835,-13.67009 34.300052,-14.04908 -36.3652622,19.99122 0.671312,18.52071 37.036575,-1.47051 -36.1051248,-29.80106 -0.799186,-18.51564 35.305939,11.28543 -40.7075175,-8.06097 -11.390631,14.61921 29.316887,22.68017 -8.502373,-46.03687 11.289411,-14.69751 19.791784,31.33936 -26.0022736,-32.341354 -18.122772,3.8772 7.879502,36.21856 23.078734,-40.731507 18.095567,-4.00225 -4.983166,36.72926 0.869723,-41.488853 -16.375066,-8.67898 -17.2447901,32.80986 43.861044,-16.36743 16.434606,8.5657 -27.4264383,24.93312 27.334767,-31.22326 -6.965285,-17.17418 -34.300053,14.04908 44.120285,15.65517 7.08371,17.12567 -37.0365745,1.47051 41.00957,-6.34795 5.70363,-17.63338 -35.305939,-11.28543 23.735154,40.35252 -5.581732,17.67235 -29.3168859,-22.68018 35.495539,21.49763 15.703754,-9.84173 -19.791785,-31.339364 -7.755919,46.16849 -15.63542,9.94993 -7.879501,-36.218554 13.372751,39.28423 18.355916,2.55498 4.983166,-36.729262 -35.617912,30.3817 -18.373121,-2.42817 17.24479,-32.809865 -15.007296,38.68931 12.419142,13.75618 z" transform="translate(-9.8347354,-26.892171)"/> <path style="fill:#f9f9f9;fill-rule:evenodd;stroke:#008080;stroke-width:2.64583;stroke-linecap:round;stroke-linejoin:round;stroke-dasharray:0.661458, 0.661458;paint-order:stroke fill markers" id="path329" d="m 43.417373,145.98305 c 27.426437,-24.93312 -46.813888,0.37899 -12.513835,-13.67009 34.300052,-14.04908 -36.3652622,19.99122 0.671312,18.52071 37.036575,-1.47051 -36.1051248,-29.80106 -0.799186,-18.51564 35.305939,11.28543 -40.7075175,-8.06097 -11.390631,14.61921 29.316887,22.68017 -8.502373,-46.03687 11.289411,-14.69751 19.791784,31.33936 -26.0022736,-32.341354 -18.122772,3.8772 7.879502,36.21856 23.078734,-40.731507 18.095567,-4.00225 -4.983166,36.72926 0.869723,-41.488853 -16.375066,-8.67898 -17.2447901,32.80986 43.861044,-16.36743 16.434606,8.5657 -27.4264383,24.93312 27.334767,-31.22326 -6.965285,-17.17418 -34.300053,14.04908 44.120285,15.65517 7.08371,17.12567 -37.0365745,1.47051 41.00957,-6.34795 5.70363,-17.63338 -35.305939,-11.28543 23.735154,40.35252 -5.581732,17.67235 -29.3168859,-22.68018 35.495539,21.49763 15.703754,-9.84173 -19.791785,-31.339364 -7.755919,46.16849 -15.63542,9.94993 -7.879501,-36.218554 13.372751,39.28423 18.355916,2.55498 4.983166,-36.729262 -35.617912,30.3817 -18.373121,-2.42817 17.24479,-32.809865 -15.007296,38.68931 12.419142,13.75618 z" transform="translate(-9.8347354,-68.865875)"/> <path style="fill:#00ffff;fill-rule:evenodd;stroke:#008080;stroke-width:2.64583;stroke-linecap:round;stroke-linejoin:round;stroke-dasharray:0.661458, 0.661458;paint-order:stroke fill markers" id="path331" d="m 43.417373,145.98305 c 27.426437,-24.93312 -46.813888,0.37899 -12.513835,-13.67009 34.300052,-14.04908 -36.3652622,19.99122 0.671312,18.52071 37.036575,-1.47051 -36.1051248,-29.80106 -0.799186,-18.51564 35.305939,11.28543 -40.7075175,-8.06097 -11.390631,14.61921 29.316887,22.68017 -8.502373,-46.03687 11.289411,-14.69751 19.791784,31.33936 -26.0022736,-32.341354 -18.122772,3.8772 7.879502,36.21856 23.078734,-40.731507 18.095567,-4.00225 -4.983166,36.72926 0.869723,-41.488853 -16.375066,-8.67898 -17.2447901,32.80986 43.861044,-16.36743 16.434606,8.5657 -27.4264383,24.93312 27.334767,-31.22326 -6.965285,-17.17418 -34.300053,14.04908 44.120285,15.65517 7.08371,17.12567 -37.0365745,1.47051 41.00957,-6.34795 5.70363,-17.63338 -35.305939,-11.28543 23.735154,40.35252 -5.581732,17.67235 -29.3168859,-22.68018 35.495539,21.49763 15.703754,-9.84173 -19.791785,-31.339364 -7.755919,46.16849 -15.63542,9.94993 -7.879501,-36.218554 13.372751,39.28423 18.355916,2.55498 4.983166,-36.729262 -35.617912,30.3817 -18.373121,-2.42817 17.24479,-32.809865 -15.007296,38.68931 12.419142,13.75618 z" transform="translate(-9.8347354,-110.83958)"/> <g id="g987"> <g aria-label="Diary" id="g945" style="font-size:47.625px;line-height:29.7657px;font-family:Pristina;-inkscape-font-specification:Pristina;text-align:end;direction:rtl;text-anchor:end;fill:#00ffff;fill-rule:evenodd;stroke:#008080;stroke-width:1.87952;stroke-linecap:round;stroke-linejoin:round;stroke-dasharray:0.469881, 0.469881;paint-order:stroke fill markers" transform="matrix(1.4322796,0,0,1.3835705,-57.322169,-28.423802)"> <path d="m 130.25208,80.048035 q -0.72089,5.395019 -3.48816,11.650451 -2.51148,5.697327 -5.58106,9.766844 -3.06958,4.04627 -4.92993,4.06952 -2.30219,0 -6.55774,-2.86029 -0.32556,-0.23254 -0.32556,-0.53485 0,-0.74414 0.86041,-0.74414 0.23255,0 0.46509,0.11627 1.74408,1.09296 3.86023,1.20923 2.9068,0.13953 7.44141,-8.534363 4.48809,-8.557618 5.20898,-15.278138 0.23254,-2.162658 -2.32544,-3.209106 -0.62787,-0.232544 -1.04645,-0.186035 -4.4881,0.627868 -8.67389,3.255615 -2.18591,5.208984 -4.41833,12.324829 -2.44171,7.766968 -3.53467,13.441038 -0.23254,1.16272 -0.97668,1.16272 -0.27906,0 -0.65113,-0.16278 -1.20923,-0.62787 -1.5813,-1.02319 -0.51159,-0.53485 -0.51159,-1.46503 0,-1.95337 0.62787,-4.674132 0.16278,-0.674378 0.48834,-0.674378 0.30231,0 1.60455,1.069702 3.1626,-10.766784 5.99964,-18.440735 -5.18573,3.255616 -7.99952,6.278687 -0.65112,0.720886 -0.65112,1.674316 0,0.860413 0.55811,1.953369 0.5581,1.092957 0.5581,1.255738 0,0.395324 -0.53485,0.395324 -0.46509,0 -0.69763,-0.255798 -2.9068,-3.418396 -2.9068,-4.720642 0,-1.372009 1.86035,-3.046326 3.92999,-3.557922 11.39465,-7.859985 1.23249,-2.883545 1.79059,-2.883545 0.41858,0 1.72083,1.255737 1.27899,-0.581359 2.55798,-1.162719 1.0697,-0.465088 1.74408,-0.465088 1.11621,0 2.99982,1.255737 0.093,-0.09302 0.3023,-0.09302 1.30225,0 3.97651,2.418457 1.44177,1.3255 1.44177,2.86029 0,0.37207 -0.0698,0.860413 z" id="path935" style="fill:#00ffff;stroke:#008080;stroke-width:1.33516"/> <path d="m 139.46082,79.001587 q 0.37207,0.279053 0.37207,0.627869 0,0.674377 -1.99988,2.092895 -1.3255,0.906921 -2.55799,0.651123 -0.69763,-0.139526 -1.20922,-0.511597 -0.16278,-0.139526 -0.2558,-0.279052 -0.0698,-0.162781 -0.0233,-0.255799 0.0698,-0.09302 0.27906,-0.04651 2.1394,-1.860352 2.81378,-2.674256 0.53485,-0.604614 0.76739,-0.604614 0.41858,0 1.81385,0.999939 z m -3.27887,10.185425 q -0.55811,3.139343 -2.9068,10.441223 0.67437,-0.604614 1.86035,-2.209168 0.16278,-0.209289 0.32556,-0.209289 0.37207,0 0.093,0.651123 -0.11627,0.255798 -1.95337,3.185849 -1.39527,2.23242 -2.04639,3.95325 -0.20929,0.53485 -0.76739,0.53485 -0.55811,0 -1.51154,-0.53485 -0.60461,-0.32556 -0.60461,-0.48834 0,-0.13953 0.25579,-0.60462 1.25574,-2.20916 2.79053,-7.394894 1.46503,-5.022949 1.65106,-7.464661 0.0698,-1.046447 -0.20929,-1.046447 -0.20929,0 -0.74414,0.511596 l -1.44177,1.348755 q -0.76739,0.697632 -0.76739,0.06976 0,-0.186035 0.20929,-0.465088 1.09295,-1.53479 2.32544,-2.906799 0.37207,-0.395325 0.72088,-0.395325 0.37207,0 1.09296,0.511597 1.0697,0.279053 1.18597,0.348816 0.53485,0.325562 0.53485,1.209229 0,0.418579 -0.093,0.95343 z" id="path937" style="fill:#00ffff;stroke:#008080;stroke-width:1.33516"/> <path d="m 154.87848,89.512573 q -2.13941,5.929871 -2.95331,9.952881 0.34882,-0.325561 0.90692,-0.999939 0.58136,-0.674377 0.72089,-0.790649 0.32556,-0.418579 0.69763,-0.418579 0.34882,0 0.34882,0.348816 0,0.209289 -0.18604,0.488342 -2.18591,3.232365 -2.9068,6.534485 -0.20929,0.93018 -0.62787,0.93018 -0.39532,0 -1.46502,-0.74415 -0.62787,-0.41857 -0.72089,-0.69763 -0.11627,-0.2558 0,-1.02319 0.97668,-5.906617 2.44171,-9.813355 -2.02313,3.27887 -5.51129,7.255375 -3.04633,3.4649 -4.39508,4.41833 -0.97669,0.67438 -1.48828,0.67438 -0.41858,0 -1.27899,-0.67438 -1.23249,-0.74414 -1.23249,-2.04639 0,-0.25579 0.0465,-0.58136 0.41858,-3.441646 3.02307,-7.999507 2.6045,-4.581116 5.97638,-7.720459 1.09296,-1.023193 1.95337,-0.999939 0.83716,0.04651 3.18585,2.209167 0.20929,0.186036 0.20929,0.395325 0,0.37207 -0.48834,0.37207 -0.18603,0 -0.34881,-0.06976 -1.65107,-0.697632 -2.65101,0.04651 -2.18591,1.604553 -4.83691,5.650818 -3.06958,4.650879 -3.69745,8.371575 -0.0232,0.16278 -0.0232,0.30231 0,0.58136 0.46509,0.58136 0.79064,0 1.8836,-1.09296 2.60449,-2.534722 5.58106,-6.371697 3.04632,-3.976501 3.90673,-5.999633 0.62787,-1.488282 0.81391,-2.092896 0.30231,-1.046448 0.65112,-1.046448 0.34882,0 1.62781,0.95343 0.53485,0.395325 0.58136,0.720887 0.0465,0.279052 -0.20929,0.976684 z" id="path939" style="fill:#00ffff;stroke:#008080;stroke-width:1.33516"/> <path d="m 171.9007,87.512695 q 0,3.046326 -0.81391,5.813599 -0.2558,0.837158 -0.69763,0.837158 -0.32556,0 -1.44177,-0.930176 -0.55811,-0.465088 -0.27906,-1.3255 0.65113,-2.11615 0.65113,-3.395142 0,-0.441833 -0.18604,-0.441833 -0.27905,0 -0.90692,0.837158 -4.83691,6.301941 -7.23212,14.138671 -0.76739,2.48822 -1.30224,2.48822 -0.20929,0 -1.8371,-0.8139 -0.79065,-0.39533 -0.53485,-1.53479 1.8371,-8.046023 3.95325,-13.580569 -1.72083,1.813843 -2.18592,2.48822 -0.18603,0.279053 -0.51159,0.279053 -0.39533,0 -0.39533,-0.348816 0,-0.20929 0.18604,-0.465088 1.13946,-1.372009 3.04632,-4.185791 0.58136,-1.023193 1.16272,-1.023193 0.41858,0 1.69757,0.651123 0.72089,0.37207 0.23255,0.999939 -0.5116,0.674377 -1.93012,4.76715 -1.34875,3.976502 -1.86035,6.232178 3.1626,-7.046081 7.18561,-12.441101 0.76739,-1.023193 1.23248,-1.023193 0.41858,0 1.13947,0.558105 0.97668,0.116272 1.23248,0.302307 0.39533,0.279053 0.39533,1.116211 z" id="path941" style="fill:#00ffff;stroke:#008080;stroke-width:1.33516"/> <path d="m 189.22522,88.907959 q -3.23236,14.906071 -6.0694,22.300961 -5.48803,14.37122 -12.60388,14.37122 -4.16254,0 -8.95294,-4.53461 -0.41858,-0.39532 -0.41858,-0.83716 0,-0.69763 0.65112,-0.69763 0.32556,0 0.62787,0.2558 3.79047,3.23236 6.76703,3.23236 5.46478,0 9.92963,-9.11572 3.51141,-7.1391 6.1159,-19.161622 0.16278,-0.860413 0.53485,-2.627747 -2.44171,3.976501 -5.46478,7.836731 -2.9068,3.720708 -4.58111,5.115968 -0.93018,0.76739 -1.48829,0.76739 -0.44183,0 -0.90692,-0.48834 -0.48834,-0.62787 -0.99994,-1.23248 -0.23254,-0.27905 -0.23254,-0.5116 0,-0.0233 0,-0.0465 0.0465,-0.27905 0.41858,-0.39532 1.11621,-1.51154 2.09289,-6.534486 0.74414,-3.953247 1.0232,-7.51117 0.0465,-0.837158 -0.20929,-0.837158 -0.0698,0 -1.09296,0.837158 -1.62781,1.372009 -1.76733,1.372009 -0.32556,0 -0.32556,-0.325561 0,-0.162781 0.13952,-0.325562 0.39533,-0.488342 1.76734,-2.441711 1.23248,-1.74408 1.65106,-1.74408 0.32556,0 0.88367,0.279053 1.18597,-0.186035 1.3255,-0.186035 0.79065,0 0.79065,1.209228 0,2.023133 -1.16272,7.929749 -1.16272,5.883366 -1.90686,7.604186 2.32543,-1.8371 6.04614,-7.208861 3.62768,-5.232239 4.51135,-7.88324 0.0465,-1.558044 0.67438,-1.558044 0.48834,0 1.81384,0.999938 0.74414,0.558106 0.41858,2.092896 z" id="path943" style="fill:#00ffff;stroke:#008080;stroke-width:1.33516"/> </g> <g aria-label="Diary" id="text387" style="font-size:47.625px;line-height:29.7657px;font-family:Pristina;-inkscape-font-specification:Pristina;text-align:end;direction:rtl;text-anchor:end;fill:#ffffff;fill-rule:evenodd;stroke:#008080;stroke-width:1.87952;stroke-linecap:round;stroke-linejoin:round;stroke-dasharray:0.469881, 0.469881;paint-order:stroke fill markers" transform="matrix(1.4322796,0,0,1.3835705,-57.888392,-29.968159)"> <path d="m 130.25208,80.048035 q -0.72089,5.395019 -3.48816,11.650451 -2.51148,5.697327 -5.58106,9.766844 -3.06958,4.04627 -4.92993,4.06952 -2.30219,0 -6.55774,-2.86029 -0.32556,-0.23254 -0.32556,-0.53485 0,-0.74414 0.86041,-0.74414 0.23255,0 0.46509,0.11627 1.74408,1.09296 3.86023,1.20923 2.9068,0.13953 7.44141,-8.534363 4.48809,-8.557618 5.20898,-15.278138 0.23254,-2.162658 -2.32544,-3.209106 -0.62787,-0.232544 -1.04645,-0.186035 -4.4881,0.627868 -8.67389,3.255615 -2.18591,5.208984 -4.41833,12.324829 -2.44171,7.766968 -3.53467,13.441038 -0.23254,1.16272 -0.97668,1.16272 -0.27906,0 -0.65113,-0.16278 -1.20923,-0.62787 -1.5813,-1.02319 -0.51159,-0.53485 -0.51159,-1.46503 0,-1.95337 0.62787,-4.674132 0.16278,-0.674378 0.48834,-0.674378 0.30231,0 1.60455,1.069702 3.1626,-10.766784 5.99964,-18.440735 -5.18573,3.255616 -7.99952,6.278687 -0.65112,0.720886 -0.65112,1.674316 0,0.860413 0.55811,1.953369 0.5581,1.092957 0.5581,1.255738 0,0.395324 -0.53485,0.395324 -0.46509,0 -0.69763,-0.255798 -2.9068,-3.418396 -2.9068,-4.720642 0,-1.372009 1.86035,-3.046326 3.92999,-3.557922 11.39465,-7.859985 1.23249,-2.883545 1.79059,-2.883545 0.41858,0 1.72083,1.255737 1.27899,-0.581359 2.55798,-1.162719 1.0697,-0.465088 1.74408,-0.465088 1.11621,0 2.99982,1.255737 0.093,-0.09302 0.3023,-0.09302 1.30225,0 3.97651,2.418457 1.44177,1.3255 1.44177,2.86029 0,0.37207 -0.0698,0.860413 z" id="path439" style="fill:#ffffff;stroke:#008080;stroke-width:1.33516"/> <path d="m 139.46082,79.001587 q 0.37207,0.279053 0.37207,0.627869 0,0.674377 -1.99988,2.092895 -1.3255,0.906921 -2.55799,0.651123 -0.69763,-0.139526 -1.20922,-0.511597 -0.16278,-0.139526 -0.2558,-0.279052 -0.0698,-0.162781 -0.0233,-0.255799 0.0698,-0.09302 0.27906,-0.04651 2.1394,-1.860352 2.81378,-2.674256 0.53485,-0.604614 0.76739,-0.604614 0.41858,0 1.81385,0.999939 z m -3.27887,10.185425 q -0.55811,3.139343 -2.9068,10.441223 0.67437,-0.604614 1.86035,-2.209168 0.16278,-0.209289 0.32556,-0.209289 0.37207,0 0.093,0.651123 -0.11627,0.255798 -1.95337,3.185849 -1.39527,2.23242 -2.04639,3.95325 -0.20929,0.53485 -0.76739,0.53485 -0.55811,0 -1.51154,-0.53485 -0.60461,-0.32556 -0.60461,-0.48834 0,-0.13953 0.25579,-0.60462 1.25574,-2.20916 2.79053,-7.394894 1.46503,-5.022949 1.65106,-7.464661 0.0698,-1.046447 -0.20929,-1.046447 -0.20929,0 -0.74414,0.511596 l -1.44177,1.348755 q -0.76739,0.697632 -0.76739,0.06976 0,-0.186035 0.20929,-0.465088 1.09295,-1.53479 2.32544,-2.906799 0.37207,-0.395325 0.72088,-0.395325 0.37207,0 1.09296,0.511597 1.0697,0.279053 1.18597,0.348816 0.53485,0.325562 0.53485,1.209229 0,0.418579 -0.093,0.95343 z" id="path441" style="fill:#ffffff;stroke:#008080;stroke-width:1.33516"/> <path d="m 154.87848,89.512573 q -2.13941,5.929871 -2.95331,9.952881 0.34882,-0.325561 0.90692,-0.999939 0.58136,-0.674377 0.72089,-0.790649 0.32556,-0.418579 0.69763,-0.418579 0.34882,0 0.34882,0.348816 0,0.209289 -0.18604,0.488342 -2.18591,3.232365 -2.9068,6.534485 -0.20929,0.93018 -0.62787,0.93018 -0.39532,0 -1.46502,-0.74415 -0.62787,-0.41857 -0.72089,-0.69763 -0.11627,-0.2558 0,-1.02319 0.97668,-5.906617 2.44171,-9.813355 -2.02313,3.27887 -5.51129,7.255375 -3.04633,3.4649 -4.39508,4.41833 -0.97669,0.67438 -1.48828,0.67438 -0.41858,0 -1.27899,-0.67438 -1.23249,-0.74414 -1.23249,-2.04639 0,-0.25579 0.0465,-0.58136 0.41858,-3.441646 3.02307,-7.999507 2.6045,-4.581116 5.97638,-7.720459 1.09296,-1.023193 1.95337,-0.999939 0.83716,0.04651 3.18585,2.209167 0.20929,0.186036 0.20929,0.395325 0,0.37207 -0.48834,0.37207 -0.18603,0 -0.34881,-0.06976 -1.65107,-0.697632 -2.65101,0.04651 -2.18591,1.604553 -4.83691,5.650818 -3.06958,4.650879 -3.69745,8.371575 -0.0232,0.16278 -0.0232,0.30231 0,0.58136 0.46509,0.58136 0.79064,0 1.8836,-1.09296 2.60449,-2.534722 5.58106,-6.371697 3.04632,-3.976501 3.90673,-5.999633 0.62787,-1.488282 0.81391,-2.092896 0.30231,-1.046448 0.65112,-1.046448 0.34882,0 1.62781,0.95343 0.53485,0.395325 0.58136,0.720887 0.0465,0.279052 -0.20929,0.976684 z" id="path443" style="fill:#ffffff;stroke:#008080;stroke-width:1.33516"/> <path d="m 171.9007,87.512695 q 0,3.046326 -0.81391,5.813599 -0.2558,0.837158 -0.69763,0.837158 -0.32556,0 -1.44177,-0.930176 -0.55811,-0.465088 -0.27906,-1.3255 0.65113,-2.11615 0.65113,-3.395142 0,-0.441833 -0.18604,-0.441833 -0.27905,0 -0.90692,0.837158 -4.83691,6.301941 -7.23212,14.138671 -0.76739,2.48822 -1.30224,2.48822 -0.20929,0 -1.8371,-0.8139 -0.79065,-0.39533 -0.53485,-1.53479 1.8371,-8.046023 3.95325,-13.580569 -1.72083,1.813843 -2.18592,2.48822 -0.18603,0.279053 -0.51159,0.279053 -0.39533,0 -0.39533,-0.348816 0,-0.20929 0.18604,-0.465088 1.13946,-1.372009 3.04632,-4.185791 0.58136,-1.023193 1.16272,-1.023193 0.41858,0 1.69757,0.651123 0.72089,0.37207 0.23255,0.999939 -0.5116,0.674377 -1.93012,4.76715 -1.34875,3.976502 -1.86035,6.232178 3.1626,-7.046081 7.18561,-12.441101 0.76739,-1.023193 1.23248,-1.023193 0.41858,0 1.13947,0.558105 0.97668,0.116272 1.23248,0.302307 0.39533,0.279053 0.39533,1.116211 z" id="path445" style="fill:#ffffff;stroke:#008080;stroke-width:1.33516"/> <path d="m 189.22522,88.907959 q -3.23236,14.906071 -6.0694,22.300961 -5.48803,14.37122 -12.60388,14.37122 -4.16254,0 -8.95294,-4.53461 -0.41858,-0.39532 -0.41858,-0.83716 0,-0.69763 0.65112,-0.69763 0.32556,0 0.62787,0.2558 3.79047,3.23236 6.76703,3.23236 5.46478,0 9.92963,-9.11572 3.51141,-7.1391 6.1159,-19.161622 0.16278,-0.860413 0.53485,-2.627747 -2.44171,3.976501 -5.46478,7.836731 -2.9068,3.720708 -4.58111,5.115968 -0.93018,0.76739 -1.48829,0.76739 -0.44183,0 -0.90692,-0.48834 -0.48834,-0.62787 -0.99994,-1.23248 -0.23254,-0.27905 -0.23254,-0.5116 0,-0.0233 0,-0.0465 0.0465,-0.27905 0.41858,-0.39532 1.11621,-1.51154 2.09289,-6.534486 0.74414,-3.953247 1.0232,-7.51117 0.0465,-0.837158 -0.20929,-0.837158 -0.0698,0 -1.09296,0.837158 -1.62781,1.372009 -1.76733,1.372009 -0.32556,0 -0.32556,-0.325561 0,-0.162781 0.13952,-0.325562 0.39533,-0.488342 1.76734,-2.441711 1.23248,-1.74408 1.65106,-1.74408 0.32556,0 0.88367,0.279053 1.18597,-0.186035 1.3255,-0.186035 0.79065,0 0.79065,1.209228 0,2.023133 -1.16272,7.929749 -1.16272,5.883366 -1.90686,7.604186 2.32543,-1.8371 6.04614,-7.208861 3.62768,-5.232239 4.51135,-7.88324 0.0465,-1.558044 0.67438,-1.558044 0.48834,0 1.81384,0.999938 0.74414,0.558106 0.41858,2.092896 z" id="path447" style="fill:#ffffff;stroke:#008080;stroke-width:1.33516"/> </g> </g> <g id="g763"> <rect style="fill:#00ffff;fill-rule:evenodd;stroke:#008080;stroke-width:2.64583;stroke-linecap:round;stroke-linejoin:round;stroke-dasharray:0.661458, 0.661458;paint-order:stroke fill markers" id="rect601" width="18.247881" height="65.440674" x="259.87949" y="72.279663" ry="9.1239405"/> <path style="fill:#008080;fill-rule:evenodd;stroke:#ffffff;stroke-width:5.17402;stroke-linecap:round;stroke-linejoin:round;stroke-dasharray:1.29351, 1.29351;paint-order:stroke fill markers" id="path655" d="m -119.55508,100.09343 c 50.593577,-15.102452 -22.90625,-75.813593 -7.8038,-25.220017 15.10245,50.593577 43.295683,-40.473483 -7.29789,-25.371032 -50.59358,15.102451 22.90625,75.813589 7.8038,25.220015 -15.10245,-50.593576 -43.29569,40.473484 7.29789,25.371034 z" transform="matrix(0,0.51073606,-0.51200162,0,307.30008,169.91776)"/> </g> </g> </g> </g> </svg>