<?xml version="1.0" encoding="UTF-8"?>
<svg viewBox="0 0 79 47" xmlns="http://www.w3.org/2000/svg">
 <defs>
  <filter id="c" x="-.84" y="-.84" width="2.68" height="2.68">
   <feGaussianBlur stdDeviation=".7"/>
  </filter>
  <linearGradient id="b" x1=".98295" x2="14.244" y1="5.3601" y2="5.9793" gradientUnits="userSpaceOnUse">
   <stop stop-color="#fff" offset="0"/>
   <stop stop-color="#fff" stop-opacity="0" offset="1"/>
  </linearGradient>
  <radialGradient id="a" cx="9.7143" cy="8.79" r="7.5" gradientTransform="matrix(-7.9383e-8 .60379 -1 -3.6299e-7 16.29 5.8618)" gradientUnits="userSpaceOnUse">
   <stop stop-color="#ffcfec" offset="0"/>
   <stop stop-color="#ff5bdd" offset=".51012"/>
   <stop stop-color="#af009a" offset="1"/>
  </radialGradient>
 </defs>
 <g transform="translate(-90.411 -1)">
  <path transform="translate(122.41 4.0483e-6)" d="m14.5 8.5a7 7 0 1 1 -14 0 7 7 0 1 1 14 0z" fill="url(#a)" stroke="#000" stroke-linecap="round" stroke-linejoin="round"/>
  <path transform="matrix(.059876 .82171 -1.2823 .038369 136.84 -.92332)" d="m13.422 5.7143a4.8541 4 0 1 1 -9.7082 0 4.8541 4 0 1 1 9.7082 0z" fill="url(#b)"/>
  <path d="m124.91 8.5c0 3.312 2.24 5 5 5s5-1.688 5-5h-10z" fill="#fff" stroke="#000" stroke-linecap="round" stroke-linejoin="round"/>
  <path d="m125.91 6.5c0-2 3-2 3 0" fill="none" stroke="#000" stroke-linecap="round" stroke-linejoin="round"/>
  <path d="m130.91 6.5c0-2 3-2 3 0" fill="none" stroke="#000" stroke-linecap="round" stroke-linejoin="round"/>
  <path d="m131.91 13v-4.5m-4 0v4.5" fill="none" stroke="#000" stroke-linecap="round" stroke-linejoin="round"/>
 </g>
 <g transform="translate(-90.411 -1)">
  <path transform="translate(90.411 4.0483e-6)" d="m14.5 8.5a7 7 0 1 1 -14 0 7 7 0 1 1 14 0z" fill="url(#a)" stroke="#000" stroke-linecap="round" stroke-linejoin="round"/>
  <path transform="matrix(.059876 .82171 -1.2823 .038369 104.8 -.85011)" d="m13.422 5.7143a4.8541 4 0 1 1 -9.7082 0 4.8541 4 0 1 1 9.7082 0z" fill="url(#b)"/>
  <path d="m93.911 8.5c0 3 2 4 4 4s4-1 4-4" fill="none" stroke="#000" stroke-linecap="round" stroke-linejoin="round"/>
  <path transform="translate(75.411 1)" d="m21.5 4.5a1 1 0 1 1 -2 0 1 1 0 1 1 2 0z" stroke="#000" stroke-linecap="round" stroke-linejoin="round"/>
  <path transform="translate(79.411 1)" d="m21.5 4.5a1 1 0 1 1 -2 0 1 1 0 1 1 2 0z" stroke="#000" stroke-linecap="round" stroke-linejoin="round"/>
 </g>
 <g transform="translate(-90.411 -1)">
  <path transform="translate(122.41 32)" d="m14.5 8.5a7 7 0 1 1 -14 0 7 7 0 1 1 14 0z" fill="url(#a)" stroke="#000" stroke-linecap="round" stroke-linejoin="round"/>
  <path transform="matrix(.059876 .82171 -1.2823 .038369 136.72 31.155)" d="m13.422 5.7143a4.8541 4 0 1 1 -9.7082 0 4.8541 4 0 1 1 9.7082 0z" fill="url(#b)"/>
  <path transform="translate(107.41 33)" d="m21.5 4.5a1 1 0 1 1 -2 0 1 1 0 1 1 2 0z" stroke="#000" stroke-linecap="round" stroke-linejoin="round"/>
  <path transform="translate(111.41 33)" d="m21.5 4.5a1 1 0 1 1 -2 0 1 1 0 1 1 2 0z" stroke="#000" stroke-linecap="round" stroke-linejoin="round"/>
  <path d="m125.91 42.5h8" fill="#ff8d72" stroke="#000" stroke-linecap="round" stroke-linejoin="round"/>
 </g>
 <g transform="translate(-90.411 -1)">
  <path transform="translate(106.41 4.0483e-6)" d="m14.5 8.5a7 7 0 1 1 -14 0 7 7 0 1 1 14 0z" fill="url(#a)" stroke="#000" stroke-linecap="round" stroke-linejoin="round"/>
  <path transform="matrix(.059876 .82171 -1.2823 .038369 120.79 -.84703)" d="m13.422 5.7143a4.8541 4 0 1 1 -9.7082 0 4.8541 4 0 1 1 9.7082 0z" fill="url(#b)"/>
  <path d="m117.91 8.5h-8c0 3 2 4 4 4s4-1 4-4z" fill="#fff" stroke="#000" stroke-linecap="round" stroke-linejoin="round"/>
  <path transform="translate(91.411 1)" d="m21.5 4.5a1 1 0 1 1 -2 0 1 1 0 1 1 2 0z" stroke="#000" stroke-linecap="round" stroke-linejoin="round"/>
  <path transform="translate(95.411 1)" d="m21.5 4.5a1 1 0 1 1 -2 0 1 1 0 1 1 2 0z" stroke="#000" stroke-linecap="round" stroke-linejoin="round"/>
 </g>
 <g transform="translate(-90.411 -1)">
  <path transform="translate(138.41 4.0483e-6)" d="m14.5 8.5a7 7 0 1 1 -14 0 7 7 0 1 1 14 0z" fill="url(#a)" stroke="#000" stroke-linecap="round" stroke-linejoin="round"/>
  <path transform="matrix(.059876 .82171 -1.2823 .038369 152.69 -.79552)" d="m13.422 5.7143a4.8541 4 0 1 1 -9.7082 0 4.8541 4 0 1 1 9.7082 0z" fill="url(#b)"/>
  <path d="m141.91 7.5c0 4 2 5 4 5s4-1 4-4" fill="none" stroke="#000" stroke-linecap="round" stroke-linejoin="round"/>
  <path transform="translate(127.41 1)" d="m21.5 4.5a1 1 0 1 1 -2 0 1 1 0 1 1 2 0z" stroke="#000" stroke-linecap="round" stroke-linejoin="round"/>
  <path d="m144.91 5.5h-2" fill="#ecf3f7" stroke="#000" stroke-linecap="round" stroke-linejoin="round"/>
 </g>
 <g transform="translate(-90.411 -1)">
  <path transform="translate(122.41 16)" d="m14.5 8.5a7 7 0 1 1 -14 0 7 7 0 1 1 14 0z" fill="url(#a)" stroke="#000" stroke-linecap="round" stroke-linejoin="round"/>
  <path transform="matrix(.059876 .82171 -1.2823 .038369 136.72 15.18)" d="m13.422 5.7143a4.8541 4 0 1 1 -9.7082 0 4.8541 4 0 1 1 9.7082 0z" fill="url(#b)"/>
  <path d="m125.91 27.5c0-2 2-3 4-3s4 1 4 3" fill="none" stroke="#000" stroke-linecap="round" stroke-linejoin="round"/>
  <path transform="translate(107.41 17)" d="m21.5 4.5a1 1 0 1 1 -2 0 1 1 0 1 1 2 0z" stroke="#000" stroke-linecap="round" stroke-linejoin="round"/>
  <path transform="translate(111.41 17)" d="m21.5 4.5a1 1 0 1 1 -2 0 1 1 0 1 1 2 0z" stroke="#000" stroke-linecap="round" stroke-linejoin="round"/>
 </g>
 <g transform="translate(-90.411 -1)">
  <path transform="translate(90.411 32)" d="m14.5 8.5a7 7 0 1 1 -14 0 7 7 0 1 1 14 0z" fill="url(#a)" stroke="#000" stroke-linecap="round" stroke-linejoin="round"/>
  <path transform="matrix(.059876 .82171 -1.2823 .038369 104.77 31.155)" d="m13.422 5.7143a4.8541 4 0 1 1 -9.7082 0 4.8541 4 0 1 1 9.7082 0z" fill="url(#b)"/>
  <path transform="translate(75.411 33)" d="m21.5 4.5a1 1 0 1 1 -2 0 1 1 0 1 1 2 0z" stroke="#000" stroke-linecap="round" stroke-linejoin="round"/>
  <path transform="matrix(.97959 0 0 1.0323 79.829 32.855)" d="m22.031 4.5a1.5312 1.4531 0 1 1 -3.0625 0 1.5312 1.4531 0 1 1 3.0625 0z" stroke="#000" stroke-linecap="round" stroke-linejoin="round" stroke-width=".99445"/>
  <path d="m100.91 43.5c0 1-1.344 2-3 2s-3-1-3-2c0-1.656 1.344-3 3-3s3 1.344 3 3z" fill="#fff" stroke="#000" stroke-linecap="round" stroke-linejoin="round"/>
 </g>
 <g transform="translate(-90.411 -1)">
  <path transform="translate(138.41 32)" d="m14.5 8.5a7 7 0 1 1 -14 0 7 7 0 1 1 14 0z" fill="url(#a)" stroke="#000" stroke-linecap="round" stroke-linejoin="round"/>
  <path transform="matrix(.059876 .82171 -1.2823 .038369 152.95 31.155)" d="m13.422 5.7143a4.8541 4 0 1 1 -9.7082 0 4.8541 4 0 1 1 9.7082 0z" fill="url(#b)"/>
  <path transform="matrix(.97959 0 0 1.0323 123.83 32.855)" d="m22.031 4.5a1.5312 1.4531 0 1 1 -3.0625 0 1.5312 1.4531 0 1 1 3.0625 0z" stroke="#000" stroke-linecap="round" stroke-linejoin="round" stroke-width=".99445"/>
  <path d="m144.91 43.5h2" fill="#404040" stroke="#000" stroke-linecap="round" stroke-linejoin="round"/>
  <path transform="translate(127.41 33)" d="m21.5 4.5a1 1 0 1 1 -2 0 1 1 0 1 1 2 0z" stroke="#000" stroke-linecap="round" stroke-linejoin="round"/>
 </g>
 <g transform="translate(-90.411 -1)">
  <path transform="translate(106.41 16)" d="m14.5 8.5a7 7 0 1 1 -14 0 7 7 0 1 1 14 0z" fill="url(#a)" stroke="#000" stroke-linecap="round" stroke-linejoin="round"/>
  <path transform="matrix(.059876 .82171 -1.2823 .038369 120.74 15.18)" d="m13.422 5.7143a4.8541 4 0 1 1 -9.7082 0 4.8541 4 0 1 1 9.7082 0z" fill="url(#b)"/>
  <path transform="translate(90.411 18)" d="m21.5 4.5a1 1 0 1 1 -2 0 1 1 0 1 1 2 0z" stroke="#000" stroke-linecap="round" stroke-linejoin="round"/>
  <path d="m109.91 27.5c1-2 3-3 4-1s3 1 4-1" fill="none" stroke="#000" stroke-linecap="round" stroke-linejoin="round"/>
  <path transform="matrix(.97959 0 0 1.0323 95.829 16.855)" d="m22.031 4.5a1.5312 1.4531 0 1 1 -3.0625 0 1.5312 1.4531 0 1 1 3.0625 0z" stroke="#000" stroke-linecap="round" stroke-linejoin="round" stroke-width=".99445"/>
 </g>
 <path transform="translate(16,31)" d="m14.5 8.5a7 7 0 1 1 -14 0 7 7 0 1 1 14 0z" fill="url(#a)" stroke="#000" stroke-linecap="round" stroke-linejoin="round"/>
 <path transform="matrix(.059876 .82171 -1.2823 .038369 30.33 30.155)" d="m13.422 5.7143a4.8541 4 0 1 1 -9.7082 0 4.8541 4 0 1 1 9.7082 0z" fill="url(#b)"/>
 <path transform="translate(1,32)" d="m21.5 4.5a1 1 0 1 1 -2 0 1 1 0 1 1 2 0z" stroke="#000" stroke-linecap="round" stroke-linejoin="round"/>
 <path transform="translate(5,32)" d="m21.5 4.5a1 1 0 1 1 -2 0 1 1 0 1 1 2 0z" stroke="#000" stroke-linecap="round" stroke-linejoin="round"/>
 <path transform="matrix(.67969 0 0 .67969 -2.668 25.168)" d="m39.971 25.5a1.4713 1.4713 0 1 1 -2.9425 0 1.4713 1.4713 0 1 1 2.9425 0z" stroke="#000" stroke-linecap="round" stroke-linejoin="round" stroke-width="1.4713"/>
 <path transform="translate(-16,17)" d="m36.5 23.5a1 1 0 1 1 -2 0 1 1 0 1 1 2 0z" fill="#c00" filter="url(#c)"/>
 <path transform="translate(-8,17)" d="m36.5 23.5a1 1 0 1 1 -2 0 1 1 0 1 1 2 0z" fill="#c00" filter="url(#c)"/>
 <g transform="translate(-90.411 -1)">
  <path transform="translate(90.411 16)" d="m14.5 8.5a7 7 0 1 1 -14 0 7 7 0 1 1 14 0z" fill="url(#a)" stroke="#000" stroke-linecap="round" stroke-linejoin="round"/>
  <path transform="matrix(.059876 .82171 -1.2823 .038369 104.77 15.308)" d="m13.422 5.7143a4.8541 4 0 1 1 -9.7082 0 4.8541 4 0 1 1 9.7082 0z" fill="url(#b)"/>
  <path transform="translate(75.411 17)" d="m21.5 4.5a1 1 0 1 1 -2 0 1 1 0 1 1 2 0z" stroke="#000" stroke-linecap="round" stroke-linejoin="round"/>
  <path transform="translate(79.411 17)" d="m21.5 4.5a1 1 0 1 1 -2 0 1 1 0 1 1 2 0z" stroke="#000" stroke-linecap="round" stroke-linejoin="round"/>
  <path d="m96.911 25.5v3c0 1 4 1 4 0v-3" fill="#fda7ff" stroke="#6b1a6f" stroke-linecap="round" stroke-linejoin="round"/>
  <path d="m98.911 25.5v2" fill="none" stroke="#6b1a6f" stroke-linecap="round" stroke-linejoin="round"/>
  <path d="m93.911 25.5h8" fill="none" stroke="#000" stroke-linecap="round" stroke-linejoin="round"/>
 </g>
 <g transform="translate(-90.411 -1)">
  <path transform="translate(154.41 16)" d="m14.5 8.5a7 7 0 1 1 -14 0 7 7 0 1 1 14 0z" fill="url(#a)" stroke="#000" stroke-linecap="round" stroke-linejoin="round"/>
  <path d="m157.91 27.5c0-1 2-2 4-2s4 1 4 2" fill="none" stroke="#000" stroke-linecap="round" stroke-linejoin="round"/>
  <path transform="matrix(.059876 .82171 -1.2823 .038369 168.79 15.052)" d="m13.422 5.7143a4.8541 4 0 1 1 -9.7082 0 4.8541 4 0 1 1 9.7082 0z" fill="url(#b)"/>
  <path d="m158.91 19.5 3 1" fill="#fff" stroke="#000" stroke-linecap="round" stroke-linejoin="round"/>
  <path d="m161.91 20.5 3-1" fill="#fff" stroke="#000" stroke-linecap="round" stroke-linejoin="round"/>
  <path transform="translate(139.41 18)" d="m21.5 4.5a1 1 0 1 1 -2 0 1 1 0 1 1 2 0z" stroke="#000" stroke-linecap="round" stroke-linejoin="round"/>
  <path transform="translate(143.41 18)" d="m21.5 4.5a1 1 0 1 1 -2 0 1 1 0 1 1 2 0z" stroke="#000" stroke-linecap="round" stroke-linejoin="round"/>
 </g>
 <g transform="translate(-90.411 -1)">
  <path transform="translate(138.41 16)" d="m14.5 8.5a7 7 0 1 1 -14 0 7 7 0 1 1 14 0z" fill="url(#a)" stroke="#000" stroke-linecap="round" stroke-linejoin="round"/>
  <path transform="matrix(.059876 .82171 -1.2823 .038369 152.82 15.308)" d="m13.422 5.7143a4.8541 4 0 1 1 -9.7082 0 4.8541 4 0 1 1 9.7082 0z" fill="url(#b)"/>
  <path d="m149.91 23.5c0-1-0.9375-1-1.9375-1" fill="none" stroke="#00cfff" stroke-linecap="round" stroke-linejoin="round" stroke-width="2"/>
  <path d="m148.91 20.5-2 2h3" fill="none" stroke="#000" stroke-linecap="round" stroke-linejoin="round"/>
  <path d="m143.97 22.5c-1 0-2.0625 0-2.0625 1" fill="none" stroke="#00cfff" stroke-linecap="round" stroke-linejoin="round" stroke-width="2"/>
  <path d="m142.91 20.5 2 2h-3" fill="none" stroke="#000" stroke-linecap="round" stroke-linejoin="round"/>
  <path d="m142.91 24.5c-1 1-1 3 0 4 2-1 4-1 6 0 1-1 1-3 0-4-2 1-4 1-6 0z" fill="#fff" stroke="#000" stroke-linecap="round" stroke-linejoin="round"/>
 </g>
 <g transform="translate(-90.411 -1)">
  <path transform="translate(154.41 4.0483e-6)" d="m14.5 8.5a7 7 0 1 1 -14 0 7 7 0 1 1 14 0z" fill="url(#a)" stroke="#000" stroke-linecap="round" stroke-linejoin="round"/>
  <path d="m157.91 8.5c0 1 2 2 4 2s4-1 4-2" fill="none" stroke="#000" stroke-linecap="round" stroke-linejoin="round"/>
  <path transform="matrix(.059876 .82171 -1.2823 .038369 168.79 -.79552)" d="m13.422 5.7143a4.8541 4 0 1 1 -9.7082 0 4.8541 4 0 1 1 9.7082 0z" fill="url(#b)"/>
  <path d="m155.91 5.5h12" fill="#c1c1c1" stroke="#000" stroke-linecap="round" stroke-linejoin="round"/>
  <path d="m162.91 4.5v2h2v-2h-2z" stroke="#000" stroke-linecap="round" stroke-linejoin="round"/>
  <path d="m158.91 4.5v2h2v-2h-2z" stroke="#000" stroke-linecap="round" stroke-linejoin="round"/>
 </g>
 <g transform="translate(-90.411 -1)">
  <path transform="translate(154.41 32)" d="m14.5 8.5a7 7 0 1 1 -14 0 7 7 0 1 1 14 0z" fill="url(#a)" stroke="#000" stroke-linecap="round" stroke-linejoin="round"/>
  <path transform="matrix(.059876 .82171 -1.2823 .038369 168.92 31.155)" d="m13.422 5.7143a4.8541 4 0 1 1 -9.7082 0 4.8541 4 0 1 1 9.7082 0z" fill="url(#b)"/>
  <path transform="translate(139.41 32)" d="m21.5 4.5a1 1 0 1 1 -2 0 1 1 0 1 1 2 0z" stroke="#000" stroke-linecap="round" stroke-linejoin="round"/>
  <path transform="translate(143.41 32)" d="m21.5 4.5a1 1 0 1 1 -2 0 1 1 0 1 1 2 0z" stroke="#000" stroke-linecap="round" stroke-linejoin="round"/>
  <path d="m162.91 43.5h2" fill="#404040" stroke="#000" stroke-linecap="round" stroke-linejoin="round"/>
 </g>
</svg>
