<?xml version='1.0' encoding='utf-8'?>
<svg xmlns="http://www.w3.org/2000/svg" id="bbc5321b-812d-4f38-869c-6f9ba96d8507" data-name="图层 1" viewBox="0 0 389.09 603.84"><defs><style>.ada648a8-a8b5-4510-806d-7bb4ed2f1e45{fill:#fff;}.abd4595c-5519-497d-8b10-f098c9e5736b{fill:#f69;}</style></defs><title>玉兔食月饼</title><path d="M382.4,623.62c-.89-1.23-1.82-2.43-2.66-3.7A77.06,77.06,0,0,1,367,580.27a118.68,118.68,0,0,1,6.11-42.71,72.63,72.63,0,0,1,12.3-23.13c3-3.71,5.88-7.71,9.51-10.74,2.84-2.37,1.89-4.65,1.65-7.24-.31-3.33-.72-6.67-.8-10a67.51,67.51,0,0,1,.48-9.21,40,40,0,0,1,1.56-6.51,77.75,77.75,0,0,1,2.83-8.59,58.88,58.88,0,0,1,4.28-8c1.57-2.53,3.45-4.87,5.18-7.31a3.57,3.57,0,0,0,.3-.88c-1.87-.18-3.62-.42-5.39-.51a26.7,26.7,0,0,1-11.87-3.52,45.31,45.31,0,0,1-20.88-25.38,41.61,41.61,0,0,1-2.42-15c.14-4.48.27-9,.75-13.43a84.3,84.3,0,0,1,1.93-8.91c.38-1.71.69-3.43,1.15-5.11s1.11-3.54,1.69-5.3,1.1-3.4,1.67-5.09,1.07-3.2,1.67-4.77c.78-2,1.56-4.07,2.48-6,.77-1.66,1.72-3.23,2.62-4.84.69-1.25,1.37-2.52,2.14-3.73,1.26-2,2.59-3.94,3.89-5.91a49.86,49.86,0,0,1,2.9-4.4c1.18-1.44,2.63-2.66,3.92-4,.57-.6.95-1.38,1.55-1.93,1.77-1.63,3.55-3.26,5.46-4.72,1.44-1.1,3.09-1.89,4.61-2.89s2.73-2,4.16-2.94a39.35,39.35,0,0,1,4.2-2.37c2.08-1,4.18-2,6.35-2.83,1.7-.66,3.52-1,5.27-1.57s3.26-1.13,4.91-1.62a35.21,35.21,0,0,1,3.9-1c1.77-.33,3.56-.59,5.34-.82,1.45-.18,2.9-.35,4.36-.42,5.6-.25,11.22-.85,16.8-.58a111.84,111.84,0,0,1,27.63,5.23c16.8,5.18,31.5,14.09,45.44,24.54,5.62,4.21,11.61,7.93,17.58,11.62,2.31,1.43,5.06,2.17,7.6,3.23l.24-.46c-1.68-3.17-3.46-6.29-5-9.52-3-6.23-6-12.44-8.69-18.8a156.61,156.61,0,0,1-8.1-25.42,162.56,162.56,0,0,1-3.89-26.9A106.25,106.25,0,0,1,539.83,234a59.91,59.91,0,0,1,9.83-20.21c2.89-3.78,6.05-7.39,10.22-9.92,2.71-1.66,5.3-3.55,8.09-5.08a30.9,30.9,0,0,1,5.19-1.81c1.72-.58,3.42-1.28,5.18-1.69a25.16,25.16,0,0,1,5.11-.64A43.4,43.4,0,0,1,590,195a42.87,42.87,0,0,1,5.65,1.33,41.24,41.24,0,0,1,4.21,1.35c2.27.87,4.54,1.75,6.73,2.8,2.75,1.34,5.49,2.75,8.1,4.33a42.13,42.13,0,0,1,4.35,3.47c1.36,1.08,2.77,2.09,4.11,3.19a27.73,27.73,0,0,1,3.26,2.95c3.71,4.23,7.53,8.37,10.93,12.83a126.07,126.07,0,0,1,9.46,14,188.81,188.81,0,0,1,9,18.09,133.15,133.15,0,0,1,8.79,29.45,191.87,191.87,0,0,1,2.94,21.16c.81,12.61.74,25.27,1.54,37.88.67,10.41.6,20.91,3,31.17a47.87,47.87,0,0,0,6.52,14.82q4.38,6.94,9,13.77c2.31,3.45,4.8,6.79,7.14,10.24s4.78,7.09,7,10.72,4.32,7.12,6.3,10.77a84.36,84.36,0,0,1,8.05,23,103.69,103.69,0,0,1,2.44,23.81c-.15,5.87-.56,11.74-1,17.6a102.07,102.07,0,0,1-6.23,26.4c-3.18,8.68-7.32,16.88-13.31,24-2.92,3.47-6.09,6.74-9.32,9.93a30,30,0,0,1-4.71,3.24,2.59,2.59,0,0,0-1.08,3.09c1.08,4.56,2.18,9.11,3.13,13.69a219.62,219.62,0,0,1,4.48,30.65c1.17,17.82-4.58,33.24-15.67,46.93-.28.34-.54.7-.9,1.17,2,1,2,2.91,1.92,4.66-.18,12.89-1,25.72-3.59,38.4-1.94,9.6-5.57,18.62-9.67,27.45a118.3,118.3,0,0,1-25.59,36.44A106.64,106.64,0,0,1,600.09,793a74.16,74.16,0,0,1-34.1,5.27,42.82,42.82,0,0,1-9.25-1.4,43.48,43.48,0,0,1-8.73-3.78,44,44,0,0,1-7.73-5.2,46.6,46.6,0,0,1-6.18-6.82,59.15,59.15,0,0,1-4.82-7.31,60.51,60.51,0,0,1-4.07-8.38,96.9,96.9,0,0,1-3.4-11.07c-1-4.14-1.7-8.37-2.59-12.86h-1.57c-5.14-.11-10.31.07-15.42-.42a91.13,91.13,0,0,1-27.44-6.72c-3.7-1.59-6.72-.93-10,.85-2.22,1.2-4.83,1.67-7.18,2.65a49.59,49.59,0,0,0-6,3c-6.42,3.75-12.77,7.62-19.2,11.36-2.21,1.28-4.64,2.19-6.85,3.48-2.68,1.56-5.23,3.34-7.83,5a63.47,63.47,0,0,1-15.08,7.3,24.28,24.28,0,0,1-9.29,1.51c-2.42-.17-4.89.26-7.29,0a35.89,35.89,0,0,1-7.56-1.74,49.94,49.94,0,0,1-8.85-3.81,77.09,77.09,0,0,1-10.38-7.15c-8.47-7-14.85-15.81-20.07-25.43a81.6,81.6,0,0,1-9-29.43,79.33,79.33,0,0,1-.92-10.52,164.31,164.31,0,0,1,.94-16.75,101.71,101.71,0,0,1,2.86-15.73,60.8,60.8,0,0,1,5.33-12.62c1.84-3.36,4.69-6.16,6.72-9.43,1.44-2.34,3.5-4,5.19-6,3.27-3.88,7.79-5.65,12-7.92,3-1.61,6.35-1.14,9.58-.72,1.74.23,3.43.85,5.17,1.2s3.32.53,5,.79Zm215.73-39.54c.25-.2.54-.39.79-.62A101.28,101.28,0,0,1,620.13,569c2.82-1.42,5.45,0,5.81,3.17.38,3.37-2.67,8.51-6,10.06a86,86,0,0,0-28,20.66c-7.17,8-12.43,17-13.2,28.11-.25,3.57-.14,7.11,1.38,10.43,2.67,5.87,7,10.36,12,14.34a84.22,84.22,0,0,0,10.11,7.63,94.8,94.8,0,0,0,12.15,5.46,27.57,27.57,0,0,0,5.71,1.62,22.62,22.62,0,0,0,4.73.1c4.45-.22,8.95-.19,13.35-.85a82,82,0,0,0,13.08-3.15A42.48,42.48,0,0,0,671.7,653c7.11-8.78,9.41-19,8.54-30.1a239.64,239.64,0,0,0-5.91-35.31c-2-8.73-4.5-17.35-6.78-26-.69-2.62,1.14-7.87,3.41-9.39,2.54-1.7,5.28-3.12,7.75-4.92,3.19-2.33,6.32-4.77,9.27-7.4a55.47,55.47,0,0,0,12.67-17.51,72.43,72.43,0,0,0,6.58-22,80.16,80.16,0,0,0-.22-22.89c-1.58-10.42-5.74-19.81-11.47-28.54-4.6-7-9.43-13.86-14-20.85-4.11-6.23-8.16-12.5-12.07-18.85-4.29-7-6.54-14.69-7.93-22.66-2.12-12.14-2.54-24.45-3-36.72-.46-13-.22-26-1.85-38.88a136.11,136.11,0,0,0-6.39-28,126.69,126.69,0,0,0-21.88-39.07,76.55,76.55,0,0,0-11.94-12c-1.1-.86-2.16-1.78-3.25-2.65-1.26-1-2.48-2.09-3.81-3a25.47,25.47,0,0,0-3.31-1.85c-1.56-.76-3.15-1.44-4.72-2.16a44.31,44.31,0,0,0-4.41-2,46.72,46.72,0,0,0-4.89-1.07c-1.36-.29-2.71-.63-4.09-.82a23.44,23.44,0,0,0-4.42-.33,27.31,27.31,0,0,0-4.91.79,50,50,0,0,0-8,2.28c-2.56,1.1-4.84,2.83-7.27,4.24a30.84,30.84,0,0,0-8.26,7.51c-5.48,6.7-7.95,14.59-8.46,23.09a91.18,91.18,0,0,0,1.5,21.17,121.17,121.17,0,0,0,7.48,26.27c3.33,7.94,7.11,15.7,11,23.39a139.36,139.36,0,0,0,7.63,13c2.94,4.54,6.2,8.88,9.25,13.35a38.75,38.75,0,0,1,4,6.5,15.68,15.68,0,0,1,.77,5.55,20,20,0,0,1-2.41,11.05c-1,1.75-2.44,2.84-4.51,2.3a8.14,8.14,0,0,1-2.71-1.65c-4.4-3.57-8.82-7.2-14.09-9.37a110,110,0,0,1-21.33-12.31c-6.72-4.75-13.29-9.74-20.19-14.22-9.56-6.21-20.13-10.17-31.17-13a101,101,0,0,0-18.9-2.78c-4.59-.27-9.22.12-13.82.29a25.09,25.09,0,0,0-3.94.56c-1.7.33-3.38.73-5.05,1.14-1.93.46-3.86.94-5.77,1.45-1.56.42-3.1.88-4.64,1.36s-3.09.93-4.57,1.55c-1.88.8-3.71,1.73-5.52,2.68-1.37.72-2.72,1.51-4,2.35-1.44.94-2.81,2-4.22,3s-2.74,1.67-4,2.68c-1.7,1.39-3.31,2.9-4.89,4.44a31,31,0,0,0-2.74,3.1c-1,1.31-1.92,2.71-2.93,4s-2.21,2.63-3.21,4a29.42,29.42,0,0,0-2,3.29c-.95,1.75-1.88,3.51-2.75,5.3-.66,1.34-1.25,2.72-1.79,4.12-.63,1.67-1.16,3.38-1.77,5.06-.67,1.88-1.39,3.74-2.06,5.62q-.8,2.28-1.53,4.59c-.52,1.58-1.07,3.16-1.48,4.77s-.77,3.52-1.12,5.29c-.55,2.81-1.24,5.6-1.58,8.44s-.41,5.89-.46,8.84a29.28,29.28,0,0,0,1.75,11.09,2.26,2.26,0,0,0,1.33,1.33,55.53,55.53,0,0,0,8.58,1.12,36.3,36.3,0,0,0,7.51-1,48.94,48.94,0,0,0,5.74-1.7c1.31-.43,2.58-1,3.88-1.52,1.55-.59,3.14-1.08,4.66-1.74a29.47,29.47,0,0,0,3.49-1.9c1.5-.93,2.95-1.95,4.44-2.9,1.75-1.12,3.54-2.19,5.3-3.29q2.1-1.32,4.2-2.67c1.38-.88,2.81-1.71,4.13-2.68s2.72-2.24,4.11-3.32c1.7-1.29,3.43-2.53,5.16-3.78,1.34-1,2.7-1.92,4.05-2.88s2.73-1.83,4-2.84,2.66-2.32,4-3.42c1.71-1.36,3.48-2.65,5.23-3.95,1.24-.93,2.48-1.86,3.76-2.73s2.86-1.81,4.28-2.74c1.87-1.24,3.72-2.5,5.58-3.76.27-.18.49-.46.77-.63,1.6-1,3.16-2,4.84-2.87s3.29-1.27,4.93-1.92,3.44-1.72,5.26-2.06c3.17-.6,6.43-.73,9.65-1.13,3.85-.48,7.51.47,11,1.69a39.58,39.58,0,0,1,16.19,10.93c2.61,2.82,4.84,6,5.2,10,.21,2.38-1.22,3.68-3.57,3.34-2.8-.41-4.83-2.19-7-3.82a11.05,11.05,0,0,0-3.94-2.29,32.68,32.68,0,0,0-7.88-.77,55.53,55.53,0,0,0-8.27,1.21,13,13,0,0,0-3.28,1.17c-1.5.73-2.93,1.6-4.38,2.42-1.12.62-2.22,1.26-3.34,1.86-1.46.78-3,1.47-4.39,2.31a29.34,29.34,0,0,0-3.12,2.21c-1.42,1.13-2.78,2.35-4.19,3.5-.9.73-1.84,1.4-2.77,2.1s-1.75,1.33-2.64,2l-3.79,2.71c-1.37,1-2.76,2-4.09,3s-2.75,2.25-4.14,3.35c-1,.78-2,1.53-3.06,2.24-1.4,1-2.85,1.83-4.25,2.8-1.82,1.25-3.6,2.54-5.39,3.83-1.2.87-2.38,1.76-3.58,2.63-1.47,1.08-2.92,2.19-4.41,3.23s-3.13,1.94-4.57,3.06c-3,2.31-5.94,4.63-8.77,7.11a93.77,93.77,0,0,0-8.61,8.17,61.72,61.72,0,0,0-6.66,9.24,54.55,54.55,0,0,0-4.68,9.82,59.62,59.62,0,0,0-2.59,10.8,49.11,49.11,0,0,0-.68,11.08,73.6,73.6,0,0,0,2.37,13.41,113.22,113.22,0,0,0,4.67,13c1,2.48.83,3.41-1.75,4.29a15.7,15.7,0,0,1-9.28,0c-2.29-.61-4.49-1.41-5.31-4.1a11.65,11.65,0,0,0-1.75,1.27c-2.56,2.77-5.12,5.55-7.6,8.39a74.82,74.82,0,0,0-10.36,16,82.14,82.14,0,0,0-6.43,18.79A69.61,69.61,0,0,0,375,579.8a68.15,68.15,0,0,0,4.22,19.81c5.22,14.73,15.93,23.5,30.4,28a55,55,0,0,0,16.47,2.52,45.31,45.31,0,0,0,13.46-1.78,110.06,110.06,0,0,0,12.71-5.2A30.37,30.37,0,0,0,463.93,614a24.06,24.06,0,0,0,5-16.34,35,35,0,0,0-6.15-17.74c-9-13.75-21.11-24.45-34.38-33.88a10.82,10.82,0,0,1-3.31-13c.74-1.6,3.32-2.45,4.54-1.44,6.26,5.16,12.56,10.27,18.65,15.62,3.17,2.78,5.94,6,8.94,9.09.29-.14.6-.26.88-.43a102.55,102.55,0,0,1,34.66-13.54c3.92-.75,7.76-1.75,11.83-1.59,3.49.13,4.33.5,5.7,3.7A13.76,13.76,0,0,0,511,546c1.69,2.84,3.53,5.35,7.49,4.88,1.73-.21,3.46.11,4.19,2.26a5.37,5.37,0,0,0,1.74,2.08,11.4,11.4,0,0,0,14.66-.18c.64-.57,1.22-1.21,1.89-1.75,1.51-1.22,2.17-1.07,3.61.15a8.38,8.38,0,0,0,3.24,1.77,9.23,9.23,0,0,0,9.45-3.1,5.6,5.6,0,0,1,8.06-.29c4.48,4,9.1,7.83,13.55,11.85,3.68,3.33,7.35,6.71,10.77,10.31C592.62,577.16,595.24,580.63,598.13,584.08ZM423.38,646.47q3,36.88,30.83,60.57c18.59,15.78,40.32,22.46,64.46,21.31.53-5.1.91-10.06,1.58-15a77.45,77.45,0,0,1,10.88-31.13c8.46-13.49,20-22.49,36.24-24.67,1.14-.15,2.27-.43,3.52-.68a47.5,47.5,0,0,1-1.72-22.24c2-13.46,7.78-25.34,15.85-36.17.85-1.14,1.72-2.25,2.54-3.33a41.11,41.11,0,0,0-3-4.4c-4.4-5.11-10.05-8.59-15.9-11.77a4,4,0,0,0-1.79-.56,7.61,7.61,0,0,0-2.68.39c-3.1,1.14-6.33,1.92-9.45.65a67.07,67.07,0,0,1-9-4.79c-1.93-1.15-3.77-1.39-4.75-.11a20.94,20.94,0,0,1-10.17,7.25c-3.14,1-6.24,2.66-9.65,1.84-3-.72-6.23-1.28-8.64-2.95a12.06,12.06,0,0,1-5.3-8.68c-.11-1.1-.65-1.37-1.7-1.39-5.59-.09-10.71-1.29-14.24-6.2a2.77,2.77,0,0,0-1.86-1.19c-7.22.23-14.36.93-21.16,3.61-.78.3-1.54.65-2.44,1,.44.76.75,1.35,1.11,1.92a68.41,68.41,0,0,1,10.19,32.6c.52,8.61-.75,16.94-5.63,24.27a45.08,45.08,0,0,1-6.61,7.15,30.45,30.45,0,0,1-4.85,3.54,53.73,53.73,0,0,1-5.84,3.26,68.46,68.46,0,0,1-6.37,2.51,57,57,0,0,1-6.24,1.94,50.38,50.38,0,0,1-6.6,1c-2.28.22-4.58.25-6.87.32C426.59,646.51,425,646.47,423.38,646.47Zm191.23,39.16c.15,4-1.52,7.44-4.05,10.41a13.46,13.46,0,0,1-3.74,2.91,1.89,1.89,0,0,1-2.92-1.37,37.4,37.4,0,0,0-5-11.09,32,32,0,0,0-25.48-14.76,52.61,52.61,0,0,0-18.06,2c-10.54,3.09-17.93,9.45-21.51,20-4.2,12.37-4.89,25.07-3.59,37.94a69.57,69.57,0,0,0,5.4,21.8A90.37,90.37,0,0,0,542,765.55a41.18,41.18,0,0,0,9.21,9.9A35.39,35.39,0,0,0,563,781.8a53.63,53.63,0,0,0,12.15,2,76.92,76.92,0,0,0,23.67-2.49,75.55,75.55,0,0,0,41.12-26.5c12-15,18.77-32.52,22.84-51.11,2.38-10.85,2.27-22,2.78-32.94C646.21,684.22,636.06,684.6,614.61,685.63ZM458.28,726.25c-.43-.29-.79-.55-1.17-.79a99.79,99.79,0,0,1-24.42-21.61c-14-17.36-21.68-37.11-22.45-59.48a2.43,2.43,0,0,0-1-1.69,16.85,16.85,0,0,0-3.48-1.35c-2.37-.71-4.82-1.21-7.16-2-6.58-2.32-13.15-4.57-20.27-4.62a33.69,33.69,0,0,0-17.61,4.52,22.14,22.14,0,0,0-7.05,5.75,44.5,44.5,0,0,0-7.07,16,79.87,79.87,0,0,0-2.17,18.95,132.31,132.31,0,0,0,1,16.17,118.57,118.57,0,0,0,3.12,16.67A109.07,109.07,0,0,0,354.18,728a57.87,57.87,0,0,0,5.5,9.09c2.6,3.76,6.28,6.47,10,8.94a37.06,37.06,0,0,0,12.37,5.52,67.06,67.06,0,0,0,9.07,1.61,50,50,0,0,0,8.9-.22,55.76,55.76,0,0,0,7.42-1.51c4.44-1.09,8.88-2.21,12.86-4.57,4.72-2.78,9.4-5.65,14.16-8.36,4.27-2.43,8.53-4.92,13-7,3.49-1.61,6.47-4.34,10.46-4.87C458,726.65,458.08,726.5,458.28,726.25ZM555.76,572a38.29,38.29,0,0,0,5.29-.75c2.87-.81,4.36-3.19,5.61-5.69a6.13,6.13,0,0,0-2.49-8.17,3.32,3.32,0,0,0-2.55.07c-1.41.7-2.59,1.84-4,2.58-2.64,1.43-5.31,3-8.49,2.56-2.07-.26-4.1-.86-6.17-1.06-3.53-.34-6.65,1.43-9.82,2.49a14,14,0,0,1-11-.43,10.46,10.46,0,0,1-3.84-3.2,3.46,3.46,0,0,0-3.07-1.71c-3.56,0-6.13-1.52-7.35-5a19.26,19.26,0,0,0-.82-2.43,8,8,0,0,0-1.89-2.74c-2-1.52-6.56-1.12-8.42.52a6.93,6.93,0,0,0-1.55,7.87c1.66,3.55,4.19,6.2,8.24,6.71a27.68,27.68,0,0,0,6.09-.22c1.8-.18,2.17,0,2.25,1.79.24,5.46,3.58,9.07,8.9,10.13A18.36,18.36,0,0,0,533,573.83a11.25,11.25,0,0,0,2.58-1.26c1.8-1.66,3.41-3.54,5.18-5.25s2.31-1.55,4-.08C548,570,551.79,571.16,555.76,572Z" transform="translate(-329.36 -194.67)"/><path class="ada648a8-a8b5-4510-806d-7bb4ed2f1e45" d="M423.38,646.47c1.66,0,3.21,0,4.76,0,2.29-.07,4.59-.1,6.87-.32a50.38,50.38,0,0,0,6.6-1,57,57,0,0,0,6.24-1.94,68.46,68.46,0,0,0,6.37-2.51,53.73,53.73,0,0,0,5.84-3.26,30.45,30.45,0,0,0,4.85-3.54,45.08,45.08,0,0,0,6.61-7.15c4.88-7.33,6.15-15.66,5.63-24.27A68.41,68.41,0,0,0,467,569.82c-.36-.57-.67-1.16-1.11-1.92.9-.39,1.66-.74,2.44-1,6.8-2.68,13.94-3.38,21.16-3.61a2.77,2.77,0,0,1,1.86,1.19c3.53,4.91,8.65,6.11,14.24,6.2,1.05,0,1.59.29,1.7,1.39a12.06,12.06,0,0,0,5.3,8.68c2.41,1.67,5.68,2.23,8.64,2.95,3.41.82,6.51-.8,9.65-1.84A20.94,20.94,0,0,0,541,574.57c1-1.28,2.82-1,4.75.11a67.07,67.07,0,0,0,9,4.79c3.12,1.27,6.35.49,9.45-.65a7.61,7.61,0,0,1,2.68-.39,4,4,0,0,1,1.79.56c5.85,3.18,11.5,6.66,15.9,11.77a41.11,41.11,0,0,1,3,4.4c-.82,1.08-1.69,2.19-2.54,3.33-8.07,10.83-13.84,22.71-15.85,36.17a47.5,47.5,0,0,0,1.72,22.24c-1.25.25-2.38.53-3.52.68-16.19,2.18-27.78,11.18-36.24,24.67a77.45,77.45,0,0,0-10.88,31.13c-.67,4.91-1,9.87-1.58,15-24.14,1.15-45.87-5.53-64.46-21.31S425.4,671.06,423.38,646.47Z" transform="translate(-329.36 -194.67)"/><path class="ada648a8-a8b5-4510-806d-7bb4ed2f1e45" d="M614.61,685.63c21.45-1,31.6-1.41,50.93-14.88-.51,11-.4,22.09-2.78,32.94-4.07,18.59-10.83,36.1-22.84,51.11a75.55,75.55,0,0,1-41.12,26.5,76.92,76.92,0,0,1-23.67,2.49,53.63,53.63,0,0,1-12.15-2,35.39,35.39,0,0,1-11.77-6.35,41.18,41.18,0,0,1-9.21-9.9,90.37,90.37,0,0,1-6.32-12.11,69.57,69.57,0,0,1-5.4-21.8c-1.3-12.87-.61-25.57,3.59-37.94,3.58-10.55,11-16.91,21.51-20a52.61,52.61,0,0,1,18.06-2,32,32,0,0,1,25.48,14.76,37.4,37.4,0,0,1,5,11.09,1.89,1.89,0,0,0,2.92,1.37,13.46,13.46,0,0,0,3.74-2.91C613.09,693.07,614.76,689.66,614.61,685.63Z" transform="translate(-329.36 -194.67)"/><path class="ada648a8-a8b5-4510-806d-7bb4ed2f1e45" d="M458.28,726.25c-.2.25-.27.4-.35.41-4,.53-7,3.26-10.46,4.87-4.45,2.05-8.71,4.54-13,7-4.76,2.71-9.44,5.58-14.16,8.36-4,2.36-8.42,3.48-12.86,4.57a55.76,55.76,0,0,1-7.42,1.51,50,50,0,0,1-8.9.22,67.06,67.06,0,0,1-9.07-1.61A37.06,37.06,0,0,1,369.71,746c-3.75-2.47-7.43-5.18-10-8.94a57.87,57.87,0,0,1-5.5-9.09,109.07,109.07,0,0,1-5.68-15.27,118.57,118.57,0,0,1-3.12-16.67,132.31,132.31,0,0,1-1-16.17,79.87,79.87,0,0,1,2.17-18.95,44.5,44.5,0,0,1,7.07-16,22.14,22.14,0,0,1,7.05-5.75,33.69,33.69,0,0,1,17.61-4.52c7.12.05,13.69,2.3,20.27,4.62,2.34.83,4.79,1.33,7.16,2a16.85,16.85,0,0,1,3.48,1.35,2.43,2.43,0,0,1,1,1.69c.77,22.37,8.47,42.12,22.45,59.48a99.79,99.79,0,0,0,24.42,21.61C457.49,725.7,457.85,726,458.28,726.25Z" transform="translate(-329.36 -194.67)"/><path class="ada648a8-a8b5-4510-806d-7bb4ed2f1e45" d="M555.76,572c-4-.8-7.79-2-11-4.72-1.7-1.47-2.34-1.53-4,.08s-3.38,3.59-5.18,5.25a11.25,11.25,0,0,1-2.58,1.26,18.36,18.36,0,0,1-12.38,1.46c-5.32-1.06-8.66-4.67-8.9-10.13-.08-1.77-.45-2-2.25-1.79a27.68,27.68,0,0,1-6.09.22c-4.05-.51-6.58-3.16-8.24-6.71a6.93,6.93,0,0,1,1.55-7.87c1.86-1.64,6.42-2,8.42-.52a8,8,0,0,1,1.89,2.74,19.26,19.26,0,0,1,.82,2.43c1.22,3.47,3.79,5,7.35,5a3.46,3.46,0,0,1,3.07,1.71,10.46,10.46,0,0,0,3.84,3.2,14,14,0,0,0,11,.43c3.17-1.06,6.29-2.83,9.82-2.49,2.07.2,4.1.8,6.17,1.06,3.18.39,5.85-1.13,8.49-2.56,1.39-.74,2.57-1.88,4-2.58a3.32,3.32,0,0,1,2.55-.07,6.13,6.13,0,0,1,2.49,8.17c-1.25,2.5-2.74,4.88-5.61,5.69A38.29,38.29,0,0,1,555.76,572Z" transform="translate(-329.36 -194.67)"/><path d="M616.5,447.26c-.38,9.63-.65,17.38-3.36,24.73-5.21,14.1-14.08,22.64-30.11,24.2-11.37,1.11-20.29-2.89-26.9-12-2.21-3.05-4.78-6-5.55-9.95-.47-2.42-.28-3.2,1.86-4.33,8.46-4.42,17.09-8.55,25.38-13.29,10.47-6,20.66-12.45,31-18.69,1.46-.88,3-1.65,4.51-2.45,1-.52,1.5-.1,1.64.93C615.56,440.65,616.16,444.88,616.5,447.26Zm-5.23-3.64c-5.25,3.53-10.12,7.11-15.29,10.19-12.19,7.26-24.38,14.51-35.69,23.12-.84.64-1.17,1.16-.38,2.06,1,1.16,1.9,2.43,3,3.54a22.3,22.3,0,0,0,6.73,4.94c.17-1.68.22-3.16.49-4.61.87-4.74,3.55-8.12,8.13-9.66a14.34,14.34,0,0,1,5-.36c5.29.2,7.9,2.68,9.06,7.88.6,2.68,1.14,5.47-.39,8.47,4.49-1.33,8.26-3.11,11.11-6.44a35.61,35.61,0,0,0,7.51-14.68c1.69-6.72,1.68-13.6,1.37-20.47A35.39,35.39,0,0,0,611.27,443.62Z" transform="translate(-329.36 -194.67)"/><path d="M493.37,488.51c-5.81-.11-10.69-.85-14.58-3.58a37.93,37.93,0,0,1-8.66-9.11c-5.75-8-5.8-17.13-3.62-26.33a47.74,47.74,0,0,1,8.9-17.85,12.58,12.58,0,0,1,1.92-1.94c2.34-2,3-1.86,5,.5,5.42,6.34,10.84,12.69,16.36,18.95,5.18,5.87,10.5,11.62,15.74,17.45a24.05,24.05,0,0,1,3.4,4.24,8.21,8.21,0,0,1,.78,4.06c0,.66-1,1.33-1.55,1.94-.42.45-.95.79-1.4,1.22-4.82,4.6-10.26,8.13-16.85,9.6C496.71,488.13,494.54,488.33,493.37,488.51Zm5-4.05a4,4,0,0,0,.78.06,8.25,8.25,0,0,0,1-.28c4-1.32,7-4,9.59-7.2a1.9,1.9,0,0,0,.21-2.47c-2-3.15-3.64-6.51-5.9-9.42-6.18-7.93-12.6-15.67-18.94-23.48-1.93-2.38-3.88-4.73-5.86-7.14-10.93,16-9.65,34.87,1.1,43.77,0-.42,0-.73,0-1.05-.26-6.54,4.52-12.86,12.36-11.78a8.36,8.36,0,0,1,3.95,1.81,12.43,12.43,0,0,1,2.59,15.7Z" transform="translate(-329.36 -194.67)"/><path d="M537.09,518.7c-7.55.17-13.41-4.05-17.28-11.44-1-1.85-.14-5,1.76-6.92s3.82-2.43,5.83-1.57a4.11,4.11,0,0,1,2.35,3.53,7.69,7.69,0,0,1-.06,3.06c-.45,1.81.27,2.73,1.81,3.52,4.65,2.38,9.52,2.38,14.49,1.56a29.4,29.4,0,0,0,13-5.79c1.06-.8,2.22-1.3,3.28-.52s1,2.2.26,3.38a9.8,9.8,0,0,1-1.63,2.36A34.31,34.31,0,0,1,537.09,518.7Z" transform="translate(-329.36 -194.67)"/><path class="ada648a8-a8b5-4510-806d-7bb4ed2f1e45" d="M707,477.42c-1.58-10.42-5.74-19.81-11.47-28.54-4.6-7-9.43-13.86-14-20.85-4.11-6.23-8.16-12.5-12.07-18.85-4.29-7-6.54-14.69-7.93-22.66-2.12-12.14-2.54-24.45-3-36.72-.46-13-.22-26-1.85-38.88a136.11,136.11,0,0,0-6.39-28,126.69,126.69,0,0,0-21.88-39.07,76.55,76.55,0,0,0-11.94-12c-1.1-.86-2.16-1.78-3.25-2.65-1.26-1-2.48-2.09-3.81-3a25.47,25.47,0,0,0-3.31-1.85c-1.56-.76-3.15-1.44-4.72-2.16a44.31,44.31,0,0,0-4.41-2,46.72,46.72,0,0,0-4.89-1.07c-1.36-.29-2.71-.63-4.09-.82a23.44,23.44,0,0,0-4.42-.33,27.31,27.31,0,0,0-4.91.79,50,50,0,0,0-8,2.28c-2.56,1.1-4.84,2.83-7.27,4.24a30.84,30.84,0,0,0-8.26,7.51c-5.48,6.7-7.95,14.59-8.46,23.09a91.18,91.18,0,0,0,1.5,21.17,121.17,121.17,0,0,0,7.48,26.27c3.33,7.94,7.11,15.7,11,23.39a139.36,139.36,0,0,0,7.63,13c2.94,4.54,6.2,8.88,9.25,13.35a38.75,38.75,0,0,1,4,6.5,15.68,15.68,0,0,1,.77,5.55,20,20,0,0,1-2.41,11.05c-1,1.75-2.44,2.84-4.51,2.3a8.14,8.14,0,0,1-2.71-1.65c-4.4-3.57-8.82-7.2-14.09-9.37a110,110,0,0,1-21.33-12.31c-6.72-4.75-13.29-9.74-20.19-14.22-9.56-6.21-20.13-10.17-31.17-13a101,101,0,0,0-18.9-2.78c-4.59-.27-9.22.12-13.82.29a25.09,25.09,0,0,0-3.94.56c-1.7.33-3.38.73-5.05,1.14-1.93.46-3.86.94-5.77,1.45-1.56.42-3.1.88-4.64,1.36s-3.09.93-4.57,1.55c-1.88.8-3.71,1.73-5.52,2.68-1.37.72-2.72,1.51-4,2.35-1.44.94-2.81,2-4.22,3s-2.74,1.67-4,2.68c-1.7,1.39-3.31,2.9-4.89,4.44a31,31,0,0,0-2.74,3.1c-1,1.31-1.92,2.71-2.93,4s-2.21,2.63-3.21,4a29.42,29.42,0,0,0-2,3.29c-.95,1.75-1.88,3.51-2.75,5.3-.66,1.34-1.25,2.72-1.79,4.12-.63,1.67-1.16,3.38-1.77,5.06-.67,1.88-1.39,3.74-2.06,5.62q-.8,2.28-1.53,4.59c-.52,1.58-1.07,3.16-1.48,4.77s-.77,3.52-1.12,5.29c-.55,2.81-1.24,5.6-1.58,8.44s-.41,5.89-.46,8.84a29.28,29.28,0,0,0,1.75,11.09,2.26,2.26,0,0,0,1.33,1.33,55.53,55.53,0,0,0,8.58,1.12,36.3,36.3,0,0,0,7.51-1,48.94,48.94,0,0,0,5.74-1.7c1.31-.43,2.58-1,3.88-1.52,1.55-.59,3.14-1.08,4.66-1.74a29.47,29.47,0,0,0,3.49-1.9c1.5-.93,2.95-1.95,4.44-2.9,1.75-1.12,3.54-2.19,5.3-3.29q2.1-1.32,4.2-2.67c1.38-.88,2.81-1.71,4.13-2.68s2.72-2.24,4.11-3.32c1.7-1.29,3.43-2.53,5.16-3.78,1.34-1,2.7-1.92,4.05-2.88s2.73-1.83,4-2.84,2.66-2.32,4-3.42c1.71-1.36,3.48-2.65,5.23-3.95,1.24-.93,2.48-1.86,3.76-2.73s2.86-1.81,4.28-2.74c1.87-1.24,3.72-2.5,5.58-3.76.27-.18.49-.46.77-.63,1.6-1,3.16-2,4.84-2.87s3.29-1.27,4.93-1.92,3.44-1.72,5.26-2.06c3.17-.6,6.43-.73,9.65-1.13,3.85-.48,7.51.47,11,1.69a39.58,39.58,0,0,1,16.19,10.93c2.61,2.82,4.84,6,5.2,10,.21,2.38-1.22,3.68-3.57,3.34-2.8-.41-4.83-2.19-7-3.82a11.05,11.05,0,0,0-3.94-2.29,32.68,32.68,0,0,0-7.88-.77,55.53,55.53,0,0,0-8.27,1.21,13,13,0,0,0-3.28,1.17c-1.5.73-2.93,1.6-4.38,2.42-1.12.62-2.22,1.26-3.34,1.86-1.46.78-3,1.47-4.39,2.31a29.34,29.34,0,0,0-3.12,2.21c-1.42,1.13-2.78,2.35-4.19,3.5-.9.73-1.84,1.4-2.77,2.1s-1.75,1.33-2.64,2l-3.79,2.71c-1.37,1-2.76,2-4.09,3s-2.75,2.25-4.14,3.35c-1,.78-2,1.53-3.06,2.24-1.4,1-2.85,1.83-4.25,2.8-1.82,1.25-3.6,2.54-5.39,3.83-1.2.87-2.38,1.76-3.58,2.63-1.47,1.08-2.92,2.19-4.41,3.23s-3.13,1.94-4.57,3.06c-3,2.31-5.94,4.63-8.77,7.11a93.77,93.77,0,0,0-8.61,8.17,61.72,61.72,0,0,0-6.66,9.24,54.55,54.55,0,0,0-4.68,9.82,59.62,59.62,0,0,0-2.59,10.8,49.11,49.11,0,0,0-.68,11.08,73.6,73.6,0,0,0,2.37,13.41,113.22,113.22,0,0,0,4.67,13c1,2.48.83,3.41-1.75,4.29a15.7,15.7,0,0,1-9.28,0c-2.29-.61-4.49-1.41-5.31-4.1a11.65,11.65,0,0,0-1.75,1.27c-2.56,2.77-5.12,5.55-7.6,8.39a74.82,74.82,0,0,0-10.36,16,82.14,82.14,0,0,0-6.43,18.79A69.61,69.61,0,0,0,375,579.8a68.15,68.15,0,0,0,4.22,19.81c5.22,14.73,15.93,23.5,30.4,28a55,55,0,0,0,16.47,2.52,45.31,45.31,0,0,0,13.46-1.78,110.06,110.06,0,0,0,12.71-5.2A30.37,30.37,0,0,0,463.93,614a24.06,24.06,0,0,0,5-16.34,35,35,0,0,0-6.15-17.74c-9-13.75-21.11-24.45-34.38-33.88a10.82,10.82,0,0,1-3.31-13c.74-1.6,3.32-2.45,4.54-1.44,6.26,5.16,12.56,10.27,18.65,15.62,3.17,2.78,5.94,6,8.94,9.09.29-.14.6-.26.88-.43a102.55,102.55,0,0,1,34.66-13.54c3.92-.75,7.76-1.75,11.83-1.59,3.49.13,4.33.5,5.7,3.7A13.76,13.76,0,0,0,511,546c1.69,2.84,3.53,5.35,7.49,4.88,1.73-.21,3.46.11,4.19,2.26a5.37,5.37,0,0,0,1.74,2.08,11.4,11.4,0,0,0,14.66-.18c.64-.57,1.22-1.21,1.89-1.75,1.51-1.22,2.17-1.07,3.61.15a8.38,8.38,0,0,0,3.24,1.77,9.23,9.23,0,0,0,9.45-3.1,5.6,5.6,0,0,1,8.06-.29c4.48,4,9.1,7.83,13.55,11.85,3.68,3.33,7.35,6.71,10.77,10.31,3,3.14,5.61,6.61,8.5,10.06.25-.2.54-.39.79-.62A101.28,101.28,0,0,1,620.13,569c2.82-1.42,5.45,0,5.81,3.17.38,3.37-2.67,8.51-6,10.06a86,86,0,0,0-28,20.66c-7.17,8-12.43,17-13.2,28.11-.25,3.57-.14,7.11,1.38,10.43,2.67,5.87,7,10.36,12,14.34a84.22,84.22,0,0,0,10.11,7.63,94.8,94.8,0,0,0,12.15,5.46,27.57,27.57,0,0,0,5.71,1.62,22.62,22.62,0,0,0,4.73.1c4.45-.22,8.95-.19,13.35-.85a82,82,0,0,0,13.08-3.15A42.48,42.48,0,0,0,671.7,653c7.11-8.78,9.41-19,8.54-30.1a239.64,239.64,0,0,0-5.91-35.31c-2-8.73-4.5-17.35-6.78-26-.69-2.62,1.14-7.87,3.41-9.39,2.54-1.7,5.28-3.12,7.75-4.92,3.19-2.33,6.32-4.77,9.27-7.4a55.47,55.47,0,0,0,12.67-17.51,72.43,72.43,0,0,0,6.58-22A80.16,80.16,0,0,0,707,477.42Zm-188.4-2.52c0,.66-1,1.33-1.55,1.94-.42.45-.95.79-1.4,1.22-4.82,4.6-10.26,8.13-16.85,9.6-2.1.47-4.27.67-5.44.85-5.81-.11-10.69-.85-14.58-3.58a37.93,37.93,0,0,1-8.66-9.11c-5.75-8-5.8-17.13-3.62-26.33a47.74,47.74,0,0,1,8.9-17.85,12.58,12.58,0,0,1,1.92-1.94c2.34-2,3-1.86,5,.5,5.42,6.34,10.84,12.69,16.36,18.95,5.18,5.87,10.5,11.62,15.74,17.45a24.05,24.05,0,0,1,3.4,4.24A8.21,8.21,0,0,1,518.61,474.9Zm43.94,32.61a9.8,9.8,0,0,1-1.63,2.36,34.31,34.31,0,0,1-23.83,8.83c-7.55.17-13.41-4.05-17.28-11.44-1-1.85-.14-5,1.76-6.92s3.82-2.43,5.83-1.57a4.11,4.11,0,0,1,2.35,3.53,7.69,7.69,0,0,1-.06,3.06c-.45,1.81.27,2.73,1.81,3.52,4.65,2.38,9.52,2.38,14.49,1.56a29.4,29.4,0,0,0,13-5.79c1.06-.8,2.22-1.3,3.28-.52S563.29,506.33,562.55,507.51ZM613.14,472c-5.21,14.1-14.08,22.64-30.11,24.2-11.37,1.11-20.29-2.89-26.9-12-2.21-3.05-4.78-6-5.55-9.95-.47-2.42-.28-3.2,1.86-4.33,8.46-4.42,17.09-8.55,25.38-13.29,10.47-6,20.66-12.45,31-18.69,1.46-.88,3-1.65,4.51-2.45,1-.52,1.5-.1,1.64.93.6,4.23,1.2,8.46,1.54,10.84C616.12,456.89,615.85,464.64,613.14,472Z" transform="translate(-329.36 -194.67)"/><path class="ada648a8-a8b5-4510-806d-7bb4ed2f1e45" d="M611.27,443.62a35.39,35.39,0,0,1,.61,4c.31,6.87.32,13.75-1.37,20.47A35.61,35.61,0,0,1,603,482.75c-2.85,3.33-6.62,5.11-11.11,6.44,1.53-3,1-5.79.39-8.47-1.16-5.2-3.77-7.68-9.06-7.88a14.34,14.34,0,0,0-5,.36c-4.58,1.54-7.26,4.92-8.13,9.66-.27,1.45-.32,2.93-.49,4.61a22.3,22.3,0,0,1-6.73-4.94c-1.06-1.11-2-2.38-3-3.54-.79-.9-.46-1.42.38-2.06,11.31-8.61,23.5-15.86,35.69-23.12C601.15,450.73,606,447.15,611.27,443.62Z" transform="translate(-329.36 -194.67)"/><path class="ada648a8-a8b5-4510-806d-7bb4ed2f1e45" d="M498.41,484.46l.85-1.48a12.43,12.43,0,0,0-2.59-15.7,8.36,8.36,0,0,0-3.95-1.81c-7.84-1.08-12.62,5.24-12.36,11.78,0,.32,0,.63,0,1.05-10.75-8.9-12-27.75-1.1-43.77,2,2.41,3.93,4.76,5.86,7.14,6.34,7.81,12.76,15.55,18.94,23.48,2.26,2.91,3.94,6.27,5.9,9.42a1.9,1.9,0,0,1-.21,2.47c-2.62,3.19-5.59,5.88-9.59,7.2a8.25,8.25,0,0,1-1,.28A4,4,0,0,1,498.41,484.46Z" transform="translate(-329.36 -194.67)"/><ellipse class="abd4595c-5519-497d-8b10-f098c9e5736b" cx="310" cy="326.85" rx="22.97" ry="18.19"/><ellipse class="abd4595c-5519-497d-8b10-f098c9e5736b" cx="103.35" cy="301.68" rx="17.22" ry="14.5"/></svg>