<?xml version='1.0' encoding='utf-8'?>
<svg xmlns="http://www.w3.org/2000/svg" enable-background="new -59 -24.2453 2038 837.4906" version="1.1" viewBox="-59 -24.2453 2038 837.4906">
	<path d="m381.58 0h51.85c8.1 1.3 16.32 1.74 24.5 2.28 49.32 4.31 98.19 12.42 147.33 18.35 23.49 2.65 47.07 5.21 70.74 5.37 21.69 0.34 43.91-2.42 65.03 3.92 22.05 5.79 39.62 21.04 59.31 31.73 6.48 3.33 12.68 7.44 19.86 9.15 16.76 4.56 34.34 1.36 50.82-2.81 40.38-10.81 78.57-29.58 120.21-35.65 24.1-3.44 49.94-2.1 71.71 9.74 4.9701 2.98 10.39 5.47 14.36 9.81-9.51 7.31-17.44 16.74-22.98 27.39-2.8999 6.98-6.1799 14.06-6.62 21.72-0.59 10.46-0.38 20.95 0.62 31.38 0.41-0.26 0.8401-0.51 1.29-0.76 0.91 10.55 7.04 19.59 12.58 28.27 3.01 5.07 6.8601 10.48 12.81 12.2 1.95 1.4 3.9399 2.78 5.98 4.09 0.36 0.26 1.09 0.78 1.46 1.04-0.2899 0.73-0.5699 1.51-1.2 2.02-9.54 8.46-17.51 18.48-26.64 27.36-8.11 7.58-14.91 16.39-22.98 24.01-8.02 8.97-16.55 17.45-24.98 26.02-6.7 7.95-14.37 14.98-21.38 22.65-6.47 7.5-13.88 14.1-20.6 21.37-5.7 6.93-12.38 12.96-18.45 19.55-5.36 6.12-11.08 11.9-16.93 17.53-7.63-1.88-15.54-1.65-23.29-2.73-6.38-0.93-13.06-0.39-19.15-2.8-42.53-36.12-84.91-72.43-127.4-108.59-2.54-2.09-5.28-3.99-7.33-6.58 3.74-3.93 8.56-6.66 12.21-10.7 7.85-8.54 13.91-18.83 17.01-30.03 1.61-4.61 2.73-9.41 2.98-14.3 0.49-10.16 0.54-20.66-3.16-30.3-6.39-21.41-23.02-39.59-43.72-47.93-3.85-2.3-8.16-3.6-12.55-4.41 1.72-0.06 3.45-0.28 5.16-0.59-11.85-3.33-24.36-5.54-36.65-3.51-26.04 2.45-48.85 20.77-60.1 43.96-0.99 1.89-1.28 4.03-1.72 6.1-0.42-0.23-0.83-0.46-1.23-0.68-0.11 2.62-0.94 5.09-1.8 7.54-2.77 12.6-2.88 25.84 0.19 38.41 2.22 7.07 5.28 13.84 8.46 20.53 0.74 1.44 1.79 2.68 2.76 3.98 2.21 3.06 4.18 6.35 6.96 8.95 2.19 2.15 4.83 3.81 6.96 6.03 1.26 1.04 0.54 2.76 0.59 4.14-9.5 9.93-18.05 20.74-27.94 30.3-4.81 4.9-8.52 10.76-13.58 15.43-14.04 15.93-28.02 31.96-42.8 47.22-3.45 4.19-6.68 8.58-10.74 12.23-5.88 6.77-11.48 13.8-17.87 20.11-13.2 14.79-26.39 29.62-39.87 44.16-6.57 8.38-14.16 15.82-21.54 23.45-2.35 2.5-4.76 5.15-5.52 8.62-32.07-23.05-64.17-46.07-96.29-69.07-11.29-8.39-23.08-16.14-34.15-24.81 9-6.05 17.29-13.54 22.55-23.16 8.88-15.17 10.7-34.13 5.36-50.82-4.06-12.99-12.77-24.23-23.7-32.21-5.6-3.91-11.84-7.06-18.64-8.13 0.05-0.29 0.16-0.87 0.21-1.15 0.08-0.33 0.25-0.97 0.34-1.29-7.06-2.9-14.72-3.85-22.28-4.37-6.16 0.18-12.23 1.57-18.41 1.58 0.28 0.43 0.57 0.87 0.86 1.32-4.32-0.01-7.89 2.48-11.71 4.09-8.06 3.29-14.34 9.64-20 16.04-7.27 7.92-11.52 18.18-13.64 28.62-3.3 14.48 0.18 29.78 6.89 42.79 2.92 6.01 7.26 11.19 11.96 15.89 1.35 1.46 3.27 2.11 5.06 2.89 8.31 6.66 17.63 12.51 28.21 14.66 2.92 0.54 5.9 0.71 8.84 1.13-2.7-0.1-5.82-0.59-8 1.41-9.95 8.36-20.55 15.96-30.03 24.89-3.41 3.32-7.23 6.19-10.8 9.34-10.8 0.93-21.66 0.27-32.46 1.21-5.55 0.48-11.13 0.38-16.69 0.76-10.99 0.91-22.05 0.47-33.03 1.52-20.92 0.69-42.6 1.17-62.47-6.43-9.25-3.35-18.06-9.84-21.64-19.3-3.24-8.05-1.82-17.13 1.18-25.02 5.03-12.3 13.34-22.98 22.65-32.35 9.82-9.04 20.18-17.64 31.92-24.07 16.17-9.8 34.07-16.67 52.57-20.48 6.51-1.44 13.2-1.6 19.76-2.63-2.98-2.99-7.2-4.41-9.97-7.63-2.51-2.93-2.43-7.29-0.62-10.55 3.24-5.89 8.78-10.03 14.24-13.75 7.41-5.15 15.4-9.38 23.33-13.67 39.91-19.39 81.87-34.03 123.37-49.6 8.87-3.31 17.78-6.59 26.33-10.68 1.61-0.98 3.93-1.62 4.38-3.71 0.99-3.88-0.06-8.3-2.83-11.23-4.53-4.9-10.75-7.73-16.82-10.21-15.9-6.11-32.63-9.55-49.04-13.93-15.97-3.99-32.13-7.9-47.1-14.9-6.9-3.65-14.92-8.03-16.72-16.34-1.48-8.04 3.62-15.39 9.09-20.74 6.63-7.18 14.68-12.81 22.77-18.22 17.63-11.38 38.31-16.9 58.83-20.19 7.7299-1.42 15.66-1.4 23.32-3.24z" fill="#BBF4FD" stroke="#BBF4FD" stroke-width=".4"/>
	<path d="m1088 45.1c13.59-7.5 29.62-9.87 44.93-8.04 5.77 0.57 11.25 2.57 16.93 3.63-0.63 0.57-1.26 1.14-1.89 1.68-9.74-2.99-20.03-2.12-30.05-1.9-15.46 2.13-30.56 8.72-41.76 19.74-7.89 7.36-14.76 16.14-18.41 26.39-6.54 12.34-6.92 26.86-5.8101 40.48 1.64 11.3 5.83 22.29 12.28 31.73-0.52 0.27-1.5601 0.81-2.0801 1.08-5.5399-8.68-11.67-17.72-12.58-28.27-0.45 0.25-0.88 0.5-1.29 0.76-1-10.43-1.21-20.92-0.62-31.38 0.4401-7.66 3.7201-14.74 6.62-21.72 5.54-10.65 13.47-20.08 22.98-27.39 3.43-2.5 7.05-4.71 10.75-6.79z" fill="#FAF90D" stroke="#FAF90D" stroke-width=".4"/>
	<path d="m693.39 75.26c12.29-2.03 24.8 0.18 36.65 3.51-1.71 0.31-3.44 0.53-5.16 0.59-14.88-3.27-30.78-2.18-44.95 3.5-16.51 6.27-30.57 18.6-39.09 34.05-8.89 15.52-11.65 34.18-8.53 51.72 1.15 6.24 3.41 12.17 5.55 18.12-0.38 2.97 0.69 5.78 2.09 8.35-0.97-1.3-2.02-2.54-2.76-3.98-3.18-6.69-6.24-13.46-8.46-20.53-3.07-12.57-2.96-25.81-0.19-38.41 0.86-2.45 1.69-4.92 1.8-7.54 0.4 0.22 0.81 0.45 1.23 0.68 0.44-2.07 0.73-4.21 1.72-6.1 11.25-23.19 34.06-41.51 60.1-43.96z" fill="#FCF70C" stroke="#FCF70C" stroke-width=".4"/>
	<path d="m679.93 82.86c14.17-5.68 30.07-6.77 44.95-3.5 4.39 0.81 8.7 2.11 12.55 4.41-10.11-1.8-20-5.46-30.43-5.11-16.22 0.66-32.51 5.88-45.26 16.11-14.54 11.22-24.8 27.86-28.04 45.96-3.06 17.22-0.4 35.71 8.7 50.8 2.41 4.84 6.4 8.72 8.47 13.76-5.69-5.15-8.97-12.17-13.01-18.54-2.14-5.95-4.4-11.88-5.55-18.12-3.12-17.54-0.36-36.2 8.53-51.72 8.52-15.45 22.58-27.78 39.09-34.05z" fill="#EA4165" stroke="#EA4165" stroke-width=".4"/>
	<path d="m661.74 94.77c12.75-10.23 29.04-15.45 45.26-16.11 10.43-0.35 20.32 3.31 30.43 5.11 20.7 8.34 37.33 26.52 43.72 47.93-0.36 5.9 2.11 11.45 2.16 17.31 0.08 4 0.09 8.01-0.05 12.01-0.13 5.17-2.57 10.04-1.93 15.28-3.1 11.2-9.16 21.49-17.01 30.03-3.65 4.04-8.47 6.77-12.21 10.7 2.05 2.59 4.79 4.49 7.33 6.58 42.49 36.16 84.87 72.47 127.4 108.59 8.7 7.4 17.29 14.92 26.11 22.17 1.53 1.34 3.05 2.68 4.58 4.04 4.6 4.45 10.1 7.86 14.51 12.53 5.69 4.36 11.34 8.83 16.13 14.2 0.01 2.14-1.32 4.04-2.06 6-7.74 8.34-13.88 17.97-21.19 26.65-9.44-7-17.77-15.4-26.76-22.97-22.04-19.31-44.03-38.67-66.12-57.92-0.79-0.8-1.55-1.6-2.3-2.41-0.93-2.24-2.72-3.77-5-4.51-1.52-1.06-3.03-2.12-4.5-3.22-2.17-2.13-4.38-4.2-6.6-6.26-1.47-2.29-3.43-4.18-5.96-5.25-3.5-2.77-6.88-5.69-10.05-8.82-1.55-2.17-3.52-3.97-5.89-5.2-2.15-1.76-4.3-3.52-6.41-5.33-2.21-2.4-4.36-5.09-7.56-6.18 0.21 2.9 0.99 5.71 1.85 8.48 4.6 17.04 8.58 34.24 13.2 51.27 13.99 55.49 28.22 110.92 42.26 166.4 2.86 11.56 6.23 23.02 8.57 34.69-20.47 2.68-40.94 5.51-61.44 7.96 0.03 5.88 2.24 11.47 3.09 17.26-0.32 8.27 2.89 16.05 4.12 24.12 5.77 25.87 11.17 51.82 17 77.67 0.23 1.32 0.39 2.66 0.43 4.02-15.15 0.0699-30.33 0.24-45.46-0.09-0.48-1.19-0.8-2.42-1.1-3.63-3.75-30.71-8.43-61.26-12.29-91.95-1.63-7.08-1.18-14.54-3.65-21.44l-0.81-0.15c-22.84-0.5-45.7-0.07-68.54-0.21-6.84 0.15-13.69-0.33-20.51 0.23-0.44 7.05-1.27 14.12-0.84 21.19l-0.73 0.5c-0.04-1.73-0.14-3.46-0.26-5.18-2.12 9.22-0.7 18.88-2.3799 28.21-1.3701 9.34-0.39 18.83-1.85 28.17-1.45 9.93-0.59 20.04-2.09 29.97-0.76 4.74-0.44 9.63-1.57 14.32-9.91 0.42-19.85-0.08-29.78 0.18-2.88-0.12-6.13 0.64-8.57-1.31 2.9-7.56 1.68-15.76 3.42-23.53 1.22-5.99 0.55-12.18 1.89-18.15 1.35-5.98 0.58-12.19 1.9-18.17 0.76-3.45 1.07-6.98 1.12-10.51 0.01-5.44 1.71-10.69 1.88-16.11 0.14-7.39 2.29-14.55 2.24-21.95-0.04-4.62 2.38-9.27 0.93-13.8-1.91-0.42-3.87-0.5-5.8-0.46-9.04 0.53-17.97-1.1299-26.96-1.58-12.59-0.73-25.13-2.21-37.74-2.72 0.12-1.04 0.33-2.06 0.56-3.06 6.52-14.6 11.82-29.71 17.98-44.46 0.83-1.19 1.73-2.33 2.42-3.61 24.11-60.23 48.16-120.5 72.3-180.73 2.72-7.58 6.71-14.76 8.23-22.72 1.06-2.89 2.16-5.77 3.07-8.71-3.3 2.6-6.26 5.6-8.98 8.79-0.96 1.02-1.94 2.01-2.9 3.03-39.21 40.13-78.12 80.56-117.23 120.79-7.02 6.95-13.55 14.42-20.87 21.05 0.6-1.88 1.34-3.75 1.49-5.73-8.48-7.13-18.23-12.64-26.75-19.73 12.42-14.79 25.72-28.81 38.46-43.31 47.13-52.2 93.98-104.66 141.15-156.81 0.82-1.02 1.58-2.1 2.22-3.25-0.93-1.24-2.03-2.33-3.18-3.36-2.24-2-4.44-4.05-6.4-6.31-2.07-5.04-6.06-8.92-8.47-13.76-9.1-15.09-11.76-33.58-8.7-50.8 3.24-18.1 13.5-34.74 28.04-45.96m18.84 33.95c-2.98 1.35-6.12 3.75-6.35 7.28-0.54 3.48 0.23 7.37 3.34 9.42 4.77 4.72 13.76 1.68 15.3-4.68 2.62-7.06-5.24-14.8-12.29-12.02m45.78 8.78c-4.02 1.15-7.16 5.25-6.79 9.51-0.18 5.42 5.12 10.02 10.46 9.35 7.09-0.5 11.49-9.73 6.97-15.38-2.33-3.47-6.76-4.36-10.64-3.48m-0.2 44.78c-14.47 5.99-31.92 4.43-44.74-4.69-5.36-3.56-8.88-9.01-13.34-13.48 4.93 16.45 20.53 29.6 37.94 30.25 12.42 0.85 25.08-3.63 34.1-12.24 7.09-6.91 12.56-16.07 13.73-26.02-5.76 11.62-15.35 21.66-27.69 26.18z" fill="#FF00B3" stroke="#FF00B3" stroke-width=".4"/>
	<path d="m1052 127.08c-1.11-13.62-0.73-28.14 5.8101-40.48-0.4501 4.53-2.27 8.73-3.1801 13.16-5.3 21.53 0.36 45.24 13.97 62.62 3.62 5.04 8.4501 9.02 12.39 13.8-2.04-1.31-4.03-2.69-5.98-4.09-3.64-4.38-7.4-8.66-10.73-13.28-6.4501-9.44-10.64-20.43-12.28-31.73z" fill="#3D94A1" stroke="#3D94A1" stroke-width=".4"/>
	<path d="m1107.4 91.44c6.54-2.98 14.44 3.65 12.93 10.6-0.6901 7.05-10.13 10.59-15.45 6.12-5.88-4.1-4.53-14.67 2.52-16.72m5.86 5.78c-0.52 1.17-0.48 2.32 0.13 3.44 2.63 1.3 4.87-1.87 2.5801-3.81-0.6801 0.1-2.0301 0.28-2.7101 0.37z" fill="#010103" stroke="#010103" stroke-width=".4"/>
	<path d="m1157.4 95.49c6.16-2.9 14.21 2.66 13.29 9.5 0.1799 6.93-8.67 11.6-14.42 7.81-6.93-3.28-6.12-14.93 1.13-17.31m6.84 9.36c2.2301 0.74 3.9301-1.7 2.5-3.57-2.5-2.18-5.23 2.08-2.5 3.57z" fill="#010104" stroke="#010104" stroke-width=".4"/>
	<path d="m1113.2 97.22c0.6801-0.09 2.03-0.27 2.7101-0.37 2.2899 1.94 0.0499 5.11-2.5801 3.81-0.61-1.12-0.6501-2.27-0.13-3.44z" fill="#FEFEFB" stroke="#FEFEFB" stroke-width=".4"/>
	<path d="m1164.2 104.85c-2.73-1.49 0-5.75 2.5-3.57 1.43 1.87-0.2699 4.31-2.5 3.57z" fill="#FDFBFA" stroke="#FDFBFA" stroke-width=".4"/>
	<path d="m1438.6 102.51c20.76-2.27 42.16 1.02 61.18 9.71 16.45 7.25 31.24 19.31 39.65 35.42 3.6899 6.71 5.62 14.13 7.77 21.42 2.0399-1.6 3.61-3.69 5.12-5.79 3.9199-5.74 9.76-9.78 15.53-13.47 9.4399-5.23 19.86-8.57 30.45-10.55 23.15-4.17 46.98-2.62 70.02 1.49 19.31 3.71 38.23 9.59 56.07 17.88 15.93 7.76 31.4 17.45 42.81 31.23 9.73 11.05 15.34 26.52 11.95 41.18-2.01 8.6-6.2899 16.51-11.57 23.51-12.33 15.16-27.99 27.23-44.58 37.38-15.54 9.11-31.8 17.01-48.64 23.41-19.37 7.88-39.21 14.6-59.46 19.8-5.96-7.38-11.82-14.83-17.68-22.29-1.1801-1.6-2.99-2.45-4.7001-3.27-1.4-1.22-2.46-3.26-4.53-3.23-6.99-0.79-14.05-0.88-21.06-0.63 12.02-11.07 18.98-27.36 18.59-43.71 0.04-17.67-8.5699-35.13-22.63-45.83-4.46-3.33-8.97-6.86-14.41-8.39-3.28-1.69-6.7401-3.09-10.41-3.56 0.21-0.33 0.62-1.01 0.8199-1.34-10.92-3.22-22.64-3.09-33.65-0.39-19.48 5.89-34.89 22.38-40.77 41.68-1.3 5.85-0.9701 11.88-1.02 17.83 0.1799 4.78-0.1801 9.74 1.51 14.32 2.6 7.14 5.48 14.43 10.61 20.19 3.79 4.17 7.5499 8.52 12.48 11.41 5.26 3.44 10.59 6.84 16.23 9.66-15.88 8.95-31.74 17.95-47.55 27.05-10.25 5.81-20.65 11.36-30.72 17.49-11.31 0.15-22.62-0.95-33.94-0.48 1.2999-0.47 2.61-0.91 3.9399-1.36-12.68 0.69-25.33-1.03-38.01-0.72-1.6599-0.1-3.11 0.72-4.51 1.43l-0.5699 0.17c-0.9301-1.09-1.86-2.18-2.8-3.24-52.09-54.57-104.23-109.1-156.32-163.67-5.65-6.15-11.83-11.85-17.13-18.31 3.27-3.82 7.5601-6.66 10.63-10.69 8.46-10.09 14.14-22.42 16.44-35.38 0.1901 1.5 0.42 3.01 0.88 4.47 3.15 0.61 6.4901 0.39 9.54 1.57 3.9501 1.81 6.71 5.37 9.15 8.83 6.97 9.86 11.37 21.2 17.42 31.59 3.09 5.33 6.47 10.76 11.56 14.42 8.71 6.4 19.17 9.79 29.55 12.4 21.74 4.86 44.1 5.35 66.27 6.07 6.4199 0.18 12.94 1.5 19.33 0.31 2.2-7.26 6.34-14.24 13.17-18 9.6899-5.84 21.3-7.83 32.5-7.41 6.08 0.14 11.88 2.2 17.91 2.86-3.48-4.51-8.48-7.47-12.24-11.71-7.78-8.46-15.73-17.29-19.73-28.26-2.7-6.6-3.13-14.13-0.92-20.93 1.66-5.1 5.75-8.87 9.65-12.34 8.6-7.23 20.01-9.51 30.82-11.23z" fill="#BBF4FD" stroke="#BBF4FD" stroke-width=".4"/>
	<path d="m1174.8 132.84c3.3799-3.75 5.6799-8.27 8.0399-12.69-1.59 11.57-8.14 22.22-17.18 29.51-12.32 9.95-30.1 12.62-44.69 6.35-12.09-4.82-20.73-15.79-24.83-27.89 1.76 1.84 3.28 3.89 4.87 5.88 8.38 10.39 21.55 16.9 34.96 16.67 14.77 0.4 29.38-6.54 38.83-17.83z" fill="#000106" stroke="#000106" stroke-width=".4"/>
	<path d="m680.58 128.72c7.05-2.78 14.91 4.96 12.29 12.02-1.54 6.36-10.53 9.4-15.3 4.68-3.11-2.05-3.88-5.94-3.34-9.42 0.23-3.53 3.37-5.93 6.35-7.28m6.7 5.52c-2.94 0.6-1.32 5.17 1.3 4.17 2.29-0.89 1.18-4.81-1.3-4.17z" fill="#030103" stroke="#030103" stroke-width=".4"/>
	<path d="m781.15 131.7c3.7 9.64 3.65 20.14 3.16 30.3-0.25 4.89-1.37 9.69-2.98 14.3-0.64-5.24 1.8-10.11 1.93-15.28 0.14-4 0.13-8.01 0.05-12.01-0.05-5.86-2.52-11.41-2.16-17.31z" fill="#D72EB1" stroke="#D72EB1" stroke-width=".4"/>
	<path d="m687.28 134.24c2.48-0.64 3.59 3.28 1.3 4.17-2.62 1-4.24-3.57-1.3-4.17z" fill="#FDFBFA" stroke="#FDFBFA" stroke-width=".4"/>
	<path d="m726.36 137.5c3.88-0.88 8.31 0.01 10.64 3.48 4.52 5.65 0.12 14.88-6.97 15.38-5.34 0.67-10.64-3.93-10.46-9.35-0.37-4.26 2.77-8.36 6.79-9.51m5.25 8.89c1.84 2.49 5.3-0.96 3.09-3.05-2.03-1.15-4.61 1.01-3.09 3.05z" fill="#020102" stroke="#020102" stroke-width=".4"/>
	<path d="m731.61 146.39c-1.52-2.04 1.06-4.2 3.09-3.05 2.21 2.09-1.25 5.54-3.09 3.05z" fill="#FDFEFE" stroke="#FDFEFE" stroke-width=".4"/>
	<path d="m726.16 182.28c12.34-4.52 21.93-14.56 27.69-26.18-1.17 9.95-6.64 19.11-13.73 26.02-9.02 8.61-21.68 13.09-34.1 12.24-17.41-0.65-33.01-13.8-37.94-30.25 4.46 4.47 7.98 9.92 13.34 13.48 12.82 9.12 30.27 10.68 44.74 4.69z" fill="#050004" stroke="#050004" stroke-width=".4"/>
	<path d="m1064.3 158.81c3.33 4.62 7.09 8.9 10.73 13.28-5.95-1.72-9.8-7.13-12.81-12.2 0.5201-0.27 1.5601-0.81 2.0801-1.08z" fill="#C4F1A9" stroke="#C4F1A9" stroke-width=".4"/>
	<path d="m1082.4 177.22c1.3401 1.18 3.92 2.19 3.26 4.4-2.85 4.09-6.88 7.19-10.15 10.92-7.2101 8.1-14.96 15.67-22.44 23.5-7.6899 8.62-16.01 16.65-23.93 25.05-6.97 8.05-14.89 15.2-21.9 23.2-7.29 8.04-15.32 15.37-22.45 23.54-22.5 23.47-44.97 46.95-67.3 70.58-1.53-1.36-3.05-2.7-4.58-4.04 5.22-5.76 11.03-10.95 16.33-16.64 5.85-5.63 11.57-11.41 16.93-17.53 6.07-6.59 12.75-12.62 18.45-19.55 6.72-7.27 14.13-13.87 20.6-21.37 7.01-7.67 14.68-14.7 21.38-22.65 8.43-8.57 16.96-17.05 24.98-26.02 8.0699-7.62 14.87-16.43 22.98-24.01 9.13-8.88 17.1-18.9 26.64-27.36 0.63-0.51 0.91-1.29 1.1999-2.02z" fill="#FBF908" stroke="#FBF908" stroke-width=".4"/>
	<path d="m637.86 186.75c4.04 6.37 7.32 13.39 13.01 18.54 1.96 2.26 4.16 4.31 6.4 6.31-0.95 0.86-1.9 1.72-2.81 2.62-0.05-1.38 0.67-3.1-0.59-4.14-2.13-2.22-4.77-3.88-6.96-6.03-2.78-2.6-4.75-5.89-6.96-8.95-1.4-2.57-2.47-5.38-2.09-8.35z" fill="#FEE75D" stroke="#FEE75D" stroke-width=".4"/>
	<path d="m289.59 202.31c6.18-0.01 12.25-1.4 18.41-1.58 7.56 0.52 15.22 1.47 22.28 4.37-0.09 0.32-0.26 0.96-0.34 1.29-5.63-0.84-11.21-2.31-16.95-2.03-18.49-0.65-36.86 7.76-48.83 21.8-10.24 11.25-15.7 26.65-14.81 41.84-0.57 8.64 1.84 17.03 4.84 25.04-0.08 0.6-0.26 1.8-0.34 2.41-0.47-0.07-1.4-0.21-1.86-0.28-6.71-13.01-10.19-28.31-6.89-42.79 2.12-10.44 6.37-20.7 13.64-28.62 5.66-6.4 11.94-12.75 20-16.04 3.82-1.61 7.39-4.1 11.71-4.09-0.29-0.45-0.58-0.89-0.86-1.32z" fill="#F8FA0E" stroke="#F8FA0E" stroke-width=".4"/>
	<path d="m1505.2 202.49c11.01-2.7 22.73-2.83 33.65 0.39-0.2 0.33-0.61 1.01-0.8199 1.34-12.59-1.37-26.23-1.16-37.42 5.51-17.34 7.91-29.65 25.47-31.9 44.31-0.7799 9.44-0.4399 19.1 2.2001 28.25 3.5699 9.75 10.22 17.99 17.1 25.63-4.9301-2.89-8.6899-7.24-12.48-11.41-5.13-5.76-8.01-13.05-10.61-20.19-1.6901-4.58-1.3301-9.54-1.51-14.32 0.0499-5.95-0.28-11.98 1.02-17.83 5.8799-19.3 21.29-35.79 40.77-41.68z" fill="#FDF70D" stroke="#FDF70D" stroke-width=".4"/>
	<path d="m1500.6 209.73c11.19-6.67 24.83-6.88 37.42-5.51 3.6699 0.47 7.13 1.87 10.41 3.56-6.9801 0-13.4-3.56-20.42-3.19-9.51-0.77-18.33 3.15-27.41 5.14z" fill="#EF9B7F" stroke="#EF9B7F" stroke-width=".4"/>
	<path d="m264.16 226.16c11.97-14.04 30.34-22.45 48.83-21.8 5.74-0.28 11.32 1.19 16.95 2.03-0.05 0.28-0.16 0.86-0.21 1.15 6.8 1.07 13.04 4.22 18.64 8.13 10.93 7.98 19.64 19.22 23.7 32.21 5.34 16.69 3.52 35.65-5.36 50.82-5.26 9.62-13.55 17.11-22.55 23.16 11.07 8.67 22.86 16.42 34.15 24.81 32.12 23 64.22 46.02 96.29 69.07 1.31 0.89 2.67 1.73 4.02 2.59 8.52 7.09 18.27 12.6 26.75 19.73-0.15 1.98-0.89 3.85-1.49 5.73-2.87 2.15-5.07 4.99-7 7.99-3.12 3.64-5.46 7.96-8.98 11.25-5.46-2.56-9.6-7.2-14.58-10.54-26.4-20.92-53.27-41.24-79.75-62.05-2.11-1.71-4.29-3.37-6.76-4.55-0.6 11.69-0.01 23.41-0.07 35.11 0.72 18.64 0.85 37.29 1 55.94 0.3 12.32 0.49 24.64 0.73 36.96 1.94 17.71 3.85 35.42 6.07 53.09 1.23 10.82 2.2 21.68 3.92 32.43 1.48 8.41 1.38 16.99 2.21 25.47 0.49 3.62 1.35 7.19 1.78 10.83-0.63 5.8101 0.73 11.53 1 17.31 0.32 7.62 3.33 15.19 1.51 22.84-4.86 1.44-9.97 1.54-15 1.56-7.39-0.09-14.58 2.11-21.97 1.96-3.86-0.16-7.72 0.78-11.56 0.26-2.13-6.9301-1.28-14.32-2.89-21.34-1.26-5.65-0.64-11.51-1.88-17.15-1.2-5.33-0.82-10.84-1.72-16.2-1.56-7.6-1.28-15.42-2.89-23.01-0.24-7.05-1.52-13.96-2.32-20.94 0.09-6.76-2.09-13.27-2.13-20.02-0.08-6.07-2.01-11.93-2.02-18-0.06-5.41-1.71-10.63-1.88-16.02-0.15-3.71-0.12-7.5699-1.76-10.99-3.7 2.1-4.34 6.51-4.88 10.33-12.67 33.95-26.44 67.49-39.24 101.39-5.44 13.1-10.27 26.46-15.6 39.6-2.83 5.52-3.62 11.95-7.27 17.06-3.28 0.52-6.46-0.65-9.6-1.42-3.98-1.06-8.11-1.31-12.21-1.28 0.91-0.43 1.81-0.86 2.72-1.29-6.29-0.1-12.58-1.07-18.57-3.02-0.31-1.03-0.43-2.08-0.36-3.14 2.74-4.81 4.03-10.22 5.83-15.4 11.58-34.4 23.07-68.84 34.86-103.18 0.79-2.25 1.11-4.62 1.43-6.97 1.63-6.24 3.84-12.32 6.03-18.39 0.89-1.59 1.82-3.18 2.3-4.95 1.83-7.04 5.25-13.57 6.95-20.65 0.94-15.54 0.84-31.12 1.28-46.68 0.69-8.21 1.09-16.46 0.72-24.7 0-16.85 1.7-33.71 0.9-50.54-2.08-0.84-3.48 1.93-5.08 2.95-11.97 8.75-23.33 18.31-35.03 27.43-6.19 5.05-12.64 9.78-18.74 14.94-0.13 1.68 0.11 3.35 0.47 5 4.23 18.29 8.01 36.68 12.16 54.99 0.46 2.2 0.97 4.44 0.83 6.71-1.41 2.51-3.73 4.32-5.72 6.35-3.38 3.17-6.32 6.84-10.17 9.48-1.31-2.79-1.98-5.8-2.64-8.78-4.07-14.09-8.14-28.19-11.83-42.38-1.71-4.86-3.17-9.8-4.26-14.83-1.45-6.76-4.33-13.11-5.73-19.89-0.14-1.24-0.53-2.81 0.5-3.78 3-3.29 6.36-6.23 9.67-9.21 6.15-5.17 11.43-11.27 17.52-16.52 5.54-4.77 10.45-10.21 15.99-14.98 7.19-6.14 13.4-13.32 20.6-19.45 11.36-10.78 24.32-19.68 36.22-29.83-0.23-0.3-0.7-0.91-0.93-1.21-2.94-0.42-5.92-0.59-8.84-1.13-10.58-2.15-19.9-8-28.21-14.66-6.11-6.07-10.94-13.25-14.82-20.91-3-8.01-5.41-16.4-4.84-25.04-0.89-15.19 4.57-30.59 14.81-41.84m28.21 20.38c-4.96 1.54-8.09 7.4-6.31 12.35 1.58 5.43 8.55 8.29 13.53 5.63 5.82-2.56 7.11-11.33 2.49-15.58-2.5-2.54-6.34-3.23-9.71-2.4m40.13 0.16c-6.95 2.26-8.78 12.35-2.99 16.82 4.95 4.5 13.66 1.73 15.4-4.65 2.63-7.18-5.3-14.76-12.41-12.17m13.08 34.87c-8.03 9.86-20.78 15.92-33.56 15.12-10.91 0.26-20.71-5.9-28.03-13.51 5.73 12.91 19.92 21.66 34.08 20.58 19.4-0.39 36.41-18.43 35.7-37.8-2.12 5.48-4.12 11.2-8.19 15.61z" fill="#00BFFE" stroke="#00BFFE" stroke-width=".4"/>
	<path d="m1500.6 209.73c9.0801-1.99 17.9-5.91 27.41-5.14 7.02-0.37 13.44 3.19 20.42 3.19 5.4399 1.53 9.95 5.06 14.41 8.39 14.06 10.7 22.67 28.16 22.63 45.83 0.39 16.35-6.5699 32.64-18.59 43.71-0.33 0.33-0.98 0.99-1.3101 1.32 0.8401 2.33 3.89 1.8 5.88 2.29 6.99 0.23 14.03 1.15 21.02 0.25 1.7101 0.82 3.52 1.67 4.7001 3.27 5.86 7.46 11.72 14.91 17.68 22.29 25.93 33.06 52.15 65.88 78.17 98.87 3.72 5.04 8.15 9.58 11.37 14.98-3.4401 4.05-7.98 6.94-11.92 10.46-4.15 3.22-7.7999 7.14-12.36 9.81-1.1899-0.91-2.26-1.92-3.33-2.9-3.1801-6.56-8.03-12.09-12.07-18.11-16.94-22.73-33.62-45.66-50.48-68.44-4.6-7.26-10.53-13.59-14.9-21-2.23-3.65-4.39-7.64-8.25-9.8 0.4 4.1 2.38 7.78 4.9501 10.93 1.65 2.34 3.28 4.71 4.87 7.11 2.72 6.38 6.4199 12.26 9.66 18.39 4.7599 8.5 9.3199 17.12 14.14 25.59 16.22 29.97 32.89 59.71 48.92 89.78-16.98 4.01-34.32 6.43-51.24 10.62-0.1801 3.14 0.4399 6.24 0.88 9.33 1.49 9.46 2.22 19.05 4.1799 28.43 0.52 4.88 0.88 9.77 0.9 14.68 0.4401-0.91 0.89-1.81 1.37-2.71-0.25 6.29 0.8301 12.53 0.62 18.83 0.41-1.33 0.8301-2.66 1.28-3.98-0.01 5.81 0.85 11.59 0.62 17.41 0.49-0.28 0.99-0.56 1.51-0.8199 0.04 5.1299 0.53 10.26 0.67 15.4 0.4199-1.33 0.84-2.66 1.2799-3.98-0.2699 6.7 0.8201 13.35 0.7101 20.06 0.49-1.48 0.37-3.32 1.21-4.59-0.03 6.18 0.73 12.34 0.75 18.53 0.42-1.35 0.83-2.69 1.29-4.02-0.0801 4.85 0.5599 9.71 0.0599 14.56-12.08-0.48-24.17 1.62-36.22 0.69-0.51-0.75-0.95-1.51-1.35-2.29 0.6899-6.68-0.6801-13.32-0.5701-19.99 0.03-5.06-1.5699-9.93-1.85-14.95-0.25-4.02-0.1-8.06-0.14-12.08-0.36 2.71-0.7999 5.42-1.1599 8.14 0.39-10.07-1.2001-20.06-0.8501-30.13-0.48 3.19-0.6499 6.42-1.1 9.62 0.14-8.71-0.33-17.42-1.73-26.02-0.5699-9.18-1.42-18.35-1.16-27.55-0.58 3.66-0.73 7.38-1.1699 11.07 0.37-9.58-0.7001-19.1-0.9601-28.65-1.51-0.44-3.0699-0.67-4.59-0.79-14.47-0.5-28.99-0.24-43.46-0.16-1.53 7.09-1.11 14.42-1.8 21.62-1.1699 13.41-1.9299 26.86-3.24 40.26-0.84 7.22-0.66 14.5-0.83 21.76-0.5-2.72-0.6901-5.47-1.1-8.18 0.1799 11.08-0.9901 22.11-0.88 33.19-0.3201-2.41-0.8201-4.79-1.15-7.19 0.2 10.31-0.7001 20.58-0.92 30.87-0.14 3.28-4.16 2.76-6.4199 2.83-9.9901-0.5-20.14 2.09-30 0.22-1.55-4.2 0.23-8.55 0.3899-12.81 0.17-8.3701 1.29-16.7 1-25.09 0.4701 3.2 0.65 6.43 1.0601 9.64-0.22-9.89 1.3199-19.74 0.9-29.64 0.2999 3.38 0.73 6.74 1.1599 10.12-0.37-9.73 1.29-19.37 0.8401-29.09 0.33 3.3701 0.6899 6.75 1.14 10.11-0.3501-9.74 1.3199-19.4 0.86-29.15 0.3099 3.38 0.73 6.75 1.15 10.13 0.0199-6.59-0.15-13.23 1.1399-19.72 1.25-5.86 0.87-11.88 1.7001-17.79 0.22-4.49 1.83-9.08 0.6-13.53-1.6-0.4-3.2-0.59-4.8101-0.73-6.3999-0.64-12.83-0.62-19.25-0.68-7-0.04-13.96-0.95-20.95-0.93-3.75-0.1-7.53 0.23-11.23-0.36-0.3101-0.9-0.5701-1.8-0.77-2.71 2.3201-2.79 2.38-6.58 3.73-9.82 2.0801-5.08 2.73-10.57 4.4601-15.76 6.5299-20.6 12.36-41.41 18.85-62.01 3.14-7.71 4.12-16.07 7.12-23.83 3.33-9.04 5.39-18.47 8.4399-27.6 0.8101-2.42 1.3401-4.93 1.4-7.48-1.53 0.31-3.0699 0.72-4.3099 1.67-1.3101 0.95-2.52 2-3.7201 3.06-15.64 9.91-30.75 20.65-46.12 30.97-3.2 2.34-7.2999 1.09-10.91 0.96-14.16-1.09-28.31-2.31-42.42-4.04-12.14-0.82-24.31-1.26-36.4-2.77-7.01-0.87-14.05-1.58-21.11-1.87-4.25-0.34-8.65-0.19-12.69-1.71 4.1899-2.36 7.0699-6.3 10.51-9.55 4.92-4.75 10.15-9.17 14.68-14.32 2.16-3.04 6.3-1.94 9.37-3.35l0.5699-0.17c2.3501 3.57 6.91 2.2 10.5 2.89 7.64 1.07 15.36 0.51 23.05 0.62 6.37-0.22 12.64 1.38 19.02 1.13 7.37-0.22 14.71 0.91 22.07 0.56 1.66 0.07 3.01-0.98 4.37-1.8 18.86-10.77 37.68-21.62 56.57-32.35 6.1799-3.51 12.56-6.71 18.55-10.58 1.1101-0.72 1.7101-1.96 2.3101-3.1-1.89-0.35-3.78-0.58-5.65-0.78-5.64-2.82-10.97-6.22-16.23-9.66-6.88-7.64-13.53-15.88-17.1-25.63-2.64-9.15-2.98-18.81-2.2001-28.25 2.2506-18.84 14.561-36.4 31.901-44.31m4.81 34.85c-3.98 1.69-6.7001 6.08-5.89 10.43 0.5599 5.94 7.51 10.1 12.98 7.61 6.1-1.99 8.25-10.42 4.02-15.17-2.55-3.39-7.27-4.04-11.11-2.87m36.93 3.94c-7.1699 2.37-8.48 13.29-1.9 17.13 5.88 4.33 14.98-0.39 15.02-7.63 0.55-6.72-6.8999-12.08-13.12-9.5m-50.21 19.42c0.7 15.58 13.53 29.39 28.81 32.04 17.59 3.8 37.01-6.92 43.06-23.85-2.95 3.02-5.61 6.36-9.09 8.81-13.5 10.32-33.54 11.48-47.75 1.89-6.99-4.42-11.64-11.52-15.03-18.89z" fill="#F578C6" stroke="#F578C6" stroke-width=".4"/>
	<path d="m654.46 214.22c0.91-0.9 1.86-1.76 2.81-2.62 1.15 1.03 2.25 2.12 3.18 3.36-0.64 1.15-1.4 2.23-2.22 3.25-47.17 52.15-94.02 104.61-141.15 156.81-12.74 14.5-26.04 28.52-38.46 43.31-1.35-0.86-2.71-1.7-4.02-2.59 0.76-3.47 3.17-6.12 5.52-8.62 7.38-7.63 14.97-15.07 21.54-23.45 13.48-14.54 26.67-29.37 39.87-44.16 6.39-6.31 11.99-13.34 17.87-20.11 4.06-3.65 7.29-8.04 10.74-12.23 14.78-15.26 28.76-31.29 42.8-47.22 5.06-4.67 8.77-10.53 13.58-15.43 9.89-9.56 18.44-20.37 27.94-30.3z" fill="#FDF808" stroke="#FDF808" stroke-width=".4"/>
	<path d="m1505.4 244.58c3.84-1.17 8.5599-0.52 11.11 2.87 4.23 4.75 2.08 13.18-4.02 15.17-5.47 2.49-12.42-1.67-12.98-7.61-0.81-4.35 1.9101-8.74 5.89-10.43m6.72 9.47c0.65-0.09 1.95-0.27 2.6-0.35 0.5-1.14 0.48-2.27-0.04-3.39-2.66-1.5-5.07 1.89-2.56 3.74z" fill="#020102" stroke="#020102" stroke-width=".4"/>
	<path d="m292.37 246.54c3.37-0.83 7.21-0.14 9.71 2.4 4.62 4.25 3.33 13.02-2.49 15.58-4.98 2.66-11.95-0.2-13.53-5.63-1.78-4.95 1.35-10.81 6.31-12.35m5.06 9.05c1.71 1.65 4.74 0.2 4.02-2.19-1.4-2.68-5.37-0.54-4.02 2.19z" fill="#010203" stroke="#010203" stroke-width=".4"/>
	<path d="m332.5 246.7c7.11-2.59 15.04 4.99 12.41 12.17-1.74 6.38-10.45 9.15-15.4 4.65-5.79-4.47-3.96-14.56 2.99-16.82m5.94 5.72c-0.21 0.64-0.61 1.9-0.81 2.54 0.58 1.93 3.89 2.22 4.11-0.06 0.61-2.02-1.68-2.98-3.3-2.48z" fill="#010204" stroke="#010204" stroke-width=".4"/>
	<path d="m1204.6 246.96c0.3301 0.21 0.99 0.63 1.3201 0.84 0.0599 2.26 0.49 4.55 2.08 6.28 34.62 43.34 69.06 86.84 103.72 130.15 0.99 1.45 2.8301 1.53 4.41 1.86 0.7001 0.78 1.4301 1.54 2.2001 2.29 4.0399 1.52 8.4399 1.37 12.69 1.71 7.0601 0.29 14.1 1 21.11 1.87 12.09 1.51 24.26 1.95 36.4 2.77 14.11 1.73 28.26 2.95 42.42 4.04 3.61 0.13 7.71 1.38 10.91-0.96 15.37-10.32 30.48-21.06 46.12-30.97-0.2999 4.44-1.74 8.65-3.1799 12.82-6.9401 23.11-13.79 46.24-20.89 69.29-12.56 1.69-25.27 0.81-37.89 0.99-61.55-2.74-123.34-8.09-183.36-22.63-7.59-1.73-14.96-4.62-22.77-5.18-2.03-6.53-1.41-13.51-2.1801-20.23-4.73-51.61-8.32-103.33-13.11-154.94z" fill="#BBF4FD" stroke="#BBF4FD" stroke-width=".4"/>
	<path d="m1205.9 247.8c0.52 0.31 1.5499 0.94 2.0699 1.26 0.13 1.83 1.2101 3.33 2.9501 3.98 1.5599 2.09 3.1699 4.14 4.85 6.15 0.39 1.76 1.49 3.27 3.29 3.82 0.1699 0.27 0.5199 0.82 0.7 1.1 0.37 1.77 1.4399 3.29 3.22 3.89 0.22 0.27 0.66 0.8 0.89 1.06 2.23 3.11 4.62 6.11 7.15 8.99 0.1899 0.27 0.58 0.82 0.77 1.1 0.34 1.78 1.4299 3.29 3.22 3.88 0.1799 0.27 0.54 0.81 0.73 1.09 0.38 1.79 1.48 3.33 3.3 3.89 0.1699 0.28 0.52 0.84 0.6899 1.12 0.37 1.77 1.4301 3.31 3.24 3.86 0.17 0.26 0.5 0.77 0.66 1.03 0.01 1.48 1.05 2.65 2.51 2.95 0.17 0.25 0.51 0.74 0.6799 0.98 1.0901 1.93 2.4701 3.68 4.12 5.18 0.2101 0.25 0.63 0.74 0.8401 0.99 4.13 6.48 9.02 12.53 14.37 18.04 0.16 0.27 0.49 0.81 0.65 1.08 0.33 1.8 1.47 3.28 3.2699 3.84 0.1801 0.25 0.54 0.75 0.7201 1.01 0.3199 1.84 1.45 3.38 3.25 4.03 0.1799 0.26 0.5499 0.77 0.74 1.03 0.3099 1.83 1.46 3.34 3.27 3.93 0.1899 0.25 0.5599 0.74 0.75 0.98 0.2699 1.87 1.4099 3.45 3.2899 4 0.13 0.27 0.41 0.81 0.55 1.07 0.17 1.41 1.13 2.55 2.54 2.92 1.4199 2.11 2.97 4.14 4.59 6.13 0.4 1.74 1.48 3.21 3.23 3.82 0.22 0.26 0.67 0.78 0.89 1.04 2.24 3.11 4.63 6.1 7.16 8.99 0.1899 0.27 0.58 0.82 0.7799 1.09 0.3201 1.81 1.42 3.36 3.27 3.88 0.16 0.28 0.49 0.84 0.65 1.12 0.39 1.75 1.46 3.24 3.1899 3.92 2.4401 3.31 5.1101 6.47 7.17 10.05-1.58-0.33-3.42-0.41-4.41-1.86-34.66-43.31-69.1-86.81-103.72-130.15-1.5896-1.73-2.0196-4.02-2.0796-6.28z" fill="#CAF190" stroke="#CAF190" stroke-width=".4"/>
	<path d="m1542.3 248.52c6.2201-2.58 13.67 2.78 13.12 9.5-0.0399 7.24-9.14 11.96-15.02 7.63-6.58-3.84-5.27-14.76 1.9-17.13m5.93 5.79c-0.62 1.13-0.61 2.25 0.04 3.37 1.3999 0.58 3.8199 0.35 3.62-1.67 0.22-2.09-2.2401-2.36-3.66-1.7z" fill="#020102" stroke="#020102" stroke-width=".4"/>
	<path d="m1512.1 254.05c-2.51-1.85-0.1-5.24 2.5599-3.74 0.52 1.12 0.54 2.25 0.04 3.39-0.6499 0.08-1.9499 0.26-2.5999 0.35z" fill="#FEFEFB" stroke="#FEFEFB" stroke-width=".4"/>
	<path d="m297.43 255.59c-1.35-2.73 2.62-4.87 4.02-2.19 0.72 2.39-2.31 3.84-4.02 2.19z" fill="#FDFBFA" stroke="#FDFBFA" stroke-width=".4"/>
	<path d="m338.44 252.42c1.62-0.5 3.91 0.46 3.3 2.48-0.22 2.28-3.53 1.99-4.11 0.06 0.2-0.64 0.6-1.9 0.81-2.54z" fill="#FEFEFB" stroke="#FEFEFB" stroke-width=".4"/>
	<path d="m1548.3 254.31c1.4199-0.66 3.88-0.39 3.66 1.7 0.2 2.02-2.2201 2.25-3.62 1.67-0.65-1.12-0.66-2.24-0.04-3.37z" fill="#FDFBFA" stroke="#FDFBFA" stroke-width=".4"/>
	<path d="m1060.2 269.55c1.5699-2.14 3.23-4.5 5.9199-5.3-0.0499 11.99-0.0699 24.01-0.71 35.98-0.58-11.13 0.41-22.3-0.36-33.42-1.61 0.84-3.04 2.25-2.85 4.21-0.14 11.01-0.6901 22.01-0.4901 33.02 0.1201 3.37-0.3999 6.71-1.3899 9.93-1.64-14.77 0.8801-29.62-0.1199-44.42z" fill="#D2F072" stroke="#D2F072" stroke-width=".4"/>
	<path d="m1066.1 264.25l0.78-0.29c0.6 5.32 0.24 10.69 0.16 16.03-0.5801 18.33-0.3101 36.67-0.41 55.01-0.11 6.12 0.37 12.27-0.48 18.36l-1.12-0.35c-0.48-8.34 0.5-16.68 0.0699-25.01 0.3201-8.42 0.48-16.86 0.13-25.28 0.04-0.62 0.12-1.87 0.16-2.49 0.6401-11.97 0.6601-23.99 0.7101-35.98z" fill="#378F9E" stroke="#378F9E" stroke-width=".4"/>
	<path d="m345.58 281.57c4.07-4.41 6.07-10.13 8.19-15.61 0.71 19.37-16.3 37.41-35.7 37.8-14.16 1.08-28.35-7.67-34.08-20.58 7.32 7.61 17.12 13.77 28.03 13.51 12.78 0.8 25.53-5.26 33.56-15.12z" fill="#000308" stroke="#000308" stroke-width=".4"/>
	<path d="m1062.2 271.02c-0.1901-1.96 1.24-3.37 2.85-4.21 0.77 11.12-0.22 22.29 0.36 33.42-0.04 0.62-0.12 1.87-0.16 2.49-2.22 8.21-1.39 16.91-1.29 25.33-1.2999 31.64 0.0601 63.32-1.1499 94.96-0.2001 3.75-0.0601 7.5 0.13 11.25-4 18.3-8.4301 36.51-12.02 54.9-2.98 10.98-4.8 22.21-7.4601 33.27-3.2999 13.16-5.58 26.54-8.9399 39.69-2.16 12.3-5.59 24.33-7.84 36.62-0.48 2.3-1.27 4.53-1.88 6.8-2.46 14.43-6.52 28.53-9.28 42.91-2.22 11.37-5.31 22.55-7.44 33.94-1.59 0.14-3.19 0.27-4.77 0.28-0.13-3.67 0.78-7.26 1.64-10.79 11.09-49.67 21.98-99.38 32.96-149.08 2.03-6.77 2.6-13.87 4.51-20.67 3.14-15.08 7.0499-29.99 9.95-45.11 1.6901-8.29 3.9-16.46 5.77-24.7 0.9401-8.4 0.25-16.89 0.5601-25.32 1.23-24.64 0.6799-49.33 0.9299-74 0.2001-6.34-0.59-12.76 0.6901-19.03 0.99-3.22 1.51-6.56 1.3899-9.93-0.2002-11.01 0.3498-22.01 0.4899-33.02z" fill="#FBF90B" stroke="#FBF90B" stroke-width=".4"/>
	<path d="m1492.1 267.94c3.39 7.37 8.04 14.47 15.03 18.89 14.21 9.59 34.25 8.43 47.75-1.89 3.48-2.45 6.14-5.79 9.09-8.81-6.05 16.93-25.47 27.65-43.06 23.85-15.28-2.65-28.11-16.46-28.81-32.04z" fill="#050003" stroke="#050003" stroke-width=".4"/>
	<path d="m1223.9 269.06c2.84 2.6 5.25 5.62 7.15 8.99-2.53-2.88-4.92-5.88-7.15-8.99z" fill="#000308" stroke="#000308" stroke-width=".4"/>
	<path d="m1010.8 322.92c16.03-18.18 33.16-35.36 49.37-53.37 1 14.8-1.52 29.65 0.12 44.42-12.65-2.65-25.86-0.15-37.71 4.59-3.8401 1.68-7.7001 3.34-11.78 4.36z" fill="#BBF4FD" stroke="#BBF4FD" stroke-width=".4"/>
	<path d="m644.88 298.92c2.72-3.19 5.68-6.19 8.98-8.79-0.91 2.94-2.01 5.82-3.07 8.71-2.62 4.34-4.23 9.15-6.09 13.83-23.81 59.53-47.63 119.05-71.42 178.58-1.95 4.83-4.0601 9.61-5.44 14.65-6.16 14.75-11.46 29.86-17.98 44.46-1.72-0.36-4.05 0.24-5.25-1.27 0.8-3.14 2.14-6.11 3.38-9.09 9.51-23.51 18.42-47.24 28.04-70.71 3.77-7.6 6.17-15.79 9.66-23.51 3.36-9.74 8.37-18.94 10.71-29.01 0.39 0.15 0.79 0.31 1.2 0.47 1.1801-7.16 6.13-13.16 6.7401-20.43 0.42 0.09 0.84 0.18 1.27 0.28 3.49-11.15 8.39-21.78 12.66-32.64 3.5-6.87 5.93-14.21 8.89-21.3 5.8399-14.78 11.89-29.46 17.72-44.23z" fill="#FDF809" stroke="#FDF809" stroke-width=".4"/>
	<path d="m777.77 289.72c3.2 1.09 5.35 3.78 7.56 6.18-1.71-0.67-3.43-1.3-5.2-1.72-0.23 1.33-0.4 2.67-0.51 4.02-0.86-2.77-1.64-5.58-1.85-8.48z" fill="#F2B6CD" stroke="#F2B6CD" stroke-width=".4"/>
	<path d="m254.19 293.04c3.88 7.66 8.71 14.84 14.82 20.91-1.79-0.78-3.71-1.43-5.06-2.89-4.7-4.7-9.04-9.88-11.96-15.89 0.46 0.07 1.39 0.21 1.86 0.28 0.08-0.61 0.26-1.81 0.34-2.41z" fill="#FAEF41" stroke="#FAEF41" stroke-width=".4"/>
	<path d="m780.13 294.18c1.77 0.42 3.49 1.05 5.2 1.72 2.11 1.81 4.26 3.57 6.41 5.33 1.75 1.96 3.75 3.66 5.89 5.2 3.17 3.13 6.55 6.05 10.05 8.82 1.64 2.11 3.68 3.86 5.96 5.25 2.22 2.06 4.43 4.13 6.6 6.26 3.06 3.69 6.58 6.96 10.32 9.95-8.57 3.8-17.84 5.69-26.42 9.47-3.62 1.52-7.22 3.74-11.32 3.29-4.62-17.03-8.6-34.23-13.2-51.27 0.11-1.35 0.28-2.69 0.51-4.02z" fill="#BCF3FC" stroke="#BCF3FC" stroke-width=".4"/>
	<path d="m1246.8 297.95c1.89 1.27 3.3501 3.01 4.12 5.18-1.6499-1.5-3.0299-3.25-4.12-5.18z" fill="#3C919C" stroke="#3C919C" stroke-width=".4"/>
	<path d="m641.98 301.95c0.96-1.02 1.94-2.01 2.9-3.03-5.83 14.77-11.88 29.45-17.72 44.23-2.96 7.09-5.39 14.43-8.89 21.3 0.35-1.73 0.62-3.47 1.16-5.15 7.34-19.18 15.66-38 22.55-57.35z" fill="#D9F397" stroke="#D9F397" stroke-width=".4"/>
	<path d="m644.7 312.67c1.86-4.68 3.47-9.49 6.09-13.83-1.52 7.96-5.5099 15.14-8.23 22.72-24.14 60.23-48.19 120.5-72.3 180.73-0.69 1.28-1.59 2.42-2.42 3.61 1.3799-5.04 3.49-9.82 5.44-14.65 23.79-59.53 47.61-119.05 71.42-178.58z" fill="#ED535F" stroke="#ED535F" stroke-width=".4"/>
	<path d="m791.74 301.23c2.37 1.23 4.34 3.03 5.89 5.2-2.14-1.54-4.14-3.24-5.89-5.2z" fill="#FEF807" stroke="#FEF807" stroke-width=".4"/>
	<path d="m524.75 422.74c39.11-40.23 78.02-80.66 117.23-120.79-6.89 19.35-15.21 38.17-22.55 57.35-0.54 1.68-0.81 3.42-1.16 5.15-4.27 10.86-9.17 21.49-12.66 32.64-0.43-0.1-0.85-0.19-1.27-0.28-0.61 7.27-5.56 13.27-6.7401 20.43-0.41-0.16-0.81-0.32-1.2-0.47-2.34 10.07-7.35 19.27-10.71 29.01-3.49 7.72-5.89 15.91-9.66 23.51-10.01-0.12-19.48-3.68-29.04-6.22-7.05-1.85-13.99-4.07-21.01-6.02-9.5-2.69-19.31-4.13-29.1-5.27 1.93-3 4.13-5.84 7-7.99 7.3201-6.63 13.85-14.1 20.87-21.05z" fill="#BBF4FD" stroke="#BBF4FD" stroke-width=".4"/>
	<path d="m1063.9 328.05c-0.1-8.42-0.9299-17.12 1.29-25.33 0.35 8.42 0.1901 16.86-0.13 25.28l-1.16 0.05z" fill="#E0F852" stroke="#E0F852" stroke-width=".4"/>
	<path d="m1251.8 304.12c2.0599 1.62 4.03 3.38 5.58 5.53 2.98 4.13 6.76 7.75 8.79 12.51-5.35-5.51-10.24-11.56-14.37-18.04z" fill="#348EA4" stroke="#348EA4" stroke-width=".4"/>
	<path d="m1565.6 307.03c0.3301-0.33 0.9801-0.99 1.3101-1.32 7.01-0.25 14.07-0.16 21.06 0.63 2.0701-0.03 3.13 2.01 4.53 3.23-6.99 0.9-14.03-0.02-21.02-0.25-1.9899-0.49-5.0399 0.04-5.88-2.29z" fill="#FDEF46" stroke="#FDEF46" stroke-width=".4"/>
	<path d="m807.68 315.25c2.53 1.07 4.49 2.96 5.96 5.25-2.28-1.39-4.32-3.14-5.96-5.25z" fill="#FEE75D" stroke="#FEE75D" stroke-width=".4"/>
	<path d="m1456.7 344.63c15.81-9.1 31.67-18.1 47.55-27.05 1.87 0.2 3.76 0.43 5.65 0.78-0.6 1.14-1.2 2.38-2.3101 3.1-5.99 3.87-12.37 7.07-18.55 10.58-18.89 10.73-37.71 21.58-56.57 32.35-3.0599 0.5-6.1499 0.79-9.23 0.7 0.85-1.04 1.77-2.02 2.74-2.97 10.07-6.13 20.47-11.68 30.72-17.49z" fill="#FDF80B" stroke="#FDF80B" stroke-width=".4"/>
	<path d="m820.24 326.76c1.47 1.1 2.98 2.16 4.5 3.22 1.42 1.75 3.11 3.25 5 4.51 0.75 0.81 1.51 1.61 2.3 2.41-0.37-0.05-1.11-0.14-1.48-0.19-3.74-2.99-7.26-6.26-10.32-9.95z" fill="#FDF70D" stroke="#FDF70D" stroke-width=".4"/>
	<path d="m1063.9 328.05l1.16-0.05c0.4301 8.33-0.5499 16.67-0.0699 25.01-0.5 9.01-0.6901 18.06-0.15 27.07l-0.1 0.79c-1.01 5.32-0.72 10.75-0.78 16.13 0 8.34-0.34 16.67-0.3 25.01-0.0199 4.09 0.28 8.25-0.7799 12.25-0.1901-3.75-0.3301-7.5-0.13-11.25 1.2099-31.64-0.1501-63.32 1.1498-94.96z" fill="#BCE367" stroke="#BCE367" stroke-width=".4"/>
	<path d="m298.06 331.15c2.18-2 5.3-1.51 8-1.41 0.23 0.3 0.7 0.91 0.93 1.21-11.9 10.15-24.86 19.05-36.22 29.83-7.2 6.13-13.41 13.31-20.6 19.45-5.54 4.77-10.45 10.21-15.99 14.98-6.09 5.25-11.37 11.35-17.52 16.52-3.31 2.98-6.67 5.92-9.67 9.21-1.03 0.97-0.64 2.54-0.5 3.78 1.4 6.78 4.28 13.13 5.73 19.89 1.09 5.03 2.55 9.97 4.26 14.83 3.69 14.19 7.76 28.29 11.83 42.38 0.02 1.74-0.18 3.53-1.27 4.97-2.31-1.03-2.58-3.72-3.21-5.85-1.72-8.21-5.81-15.93-6.13-24.41-0.44 0.29-0.88 0.59-1.32 0.9-0.04-4.76-1.91-9.15-3.17-13.64-1.64-7.33-4.15-14.42-5.89-21.71-1.52-7.77-4.98-15.15-5.74-23.04 4.98-6.46 11.85-11.12 17.47-17 7.28-7.73 15.76-14.2 23.03-21.95 4.68-5.3 10.9-8.98 15.15-14.71 3.57-3.15 7.39-6.02 10.8-9.34 9.48-8.93 20.08-16.53 30.03-24.89z" fill="#FAFA0B" stroke="#FAFA0B" stroke-width=".4"/>
	<path d="m824.74 329.98c2.28 0.74 4.07 2.27 5 4.51-1.89-1.26-3.58-2.76-5-4.51z" fill="#DF3D86" stroke="#DF3D86" stroke-width=".4"/>
	<path d="m1591.1 349c3.86 2.16 6.02 6.15 8.25 9.8-1.1-0.58-2.2-1.12-3.2999-1.6v2.73c-2.5701-3.15-4.5501-6.83-4.9501-10.93z" fill="#F6A08F" stroke="#F6A08F" stroke-width=".4"/>
	<path d="m1065 353.01l1.12 0.35c0.0399 8.89 0.7 18-1.27 26.72-0.54-9.01-0.35-18.06 0.15-27.07z" fill="#1A81B4" stroke="#1A81B4" stroke-width=".4"/>
	<path d="m1293.9 357.04c2.84 2.61 5.24 5.65 7.16 8.99-2.53-2.89-4.92-5.88-7.16-8.99z" fill="#010203" stroke="#010203" stroke-width=".4"/>
	<path d="m1596 357.2c1.1 0.48 2.2 1.02 3.2999 1.6 4.37 7.41 10.3 13.74 14.9 21 16.86 22.78 33.54 45.71 50.48 68.44 4.04 6.02 8.89 11.55 12.07 18.11-1.6801-0.58-3.48-1.1-4.4401-2.7-4.1899-5.49-8.1799-11.14-12.27-16.69-4.21-6.39-9.5199-11.96-13.58-18.44-5.29-7.34-10.61-14.65-16.12-21.81-5.71-8.27-11.73-16.32-17.75-24.36-3.86-5.15-7.2-10.7-11.72-15.31-1.59-2.4-3.22-4.77-4.87-7.11 1e-4 -0.69 1e-4 -2.05 1e-4 -2.73z" fill="#FEE75D" stroke="#FEE75D" stroke-width=".4"/>
	<path d="m1353.4 360.99c1.4-0.71 2.8501-1.53 4.51-1.43 12.68-0.31 25.33 1.41 38.01 0.72-1.33 0.45-2.64 0.89-3.9399 1.36 11.32-0.47 22.63 0.63 33.94 0.48-0.97 0.95-1.89 1.93-2.74 2.97 3.0801 0.09 6.17-0.2 9.23-0.7-1.36 0.82-2.71 1.87-4.37 1.8-7.36 0.35-14.7-0.78-22.07-0.56-6.38 0.25-12.65-1.35-19.02-1.13-7.6899-0.11-15.41 0.45-23.05-0.62-3.59-0.69-8.15 0.68-10.5-2.89z" fill="#FAEF41" stroke="#FAEF41" stroke-width=".4"/>
	<path d="m1491.7 363.78c1.24-0.95 2.7799-1.36 4.3099-1.67-0.0599 2.55-0.59 5.06-1.4 7.48-3.0499 9.13-5.11 18.56-8.4399 27.6-3 7.76-3.98 16.12-7.12 23.83-6.49 20.6-12.32 41.41-18.85 62.01-1.7301 5.19-2.38 10.68-4.4601 15.76-1.35 3.24-1.4099 7.03-3.73 9.82-1.61-0.36-3.2-0.69-4.75-1.13 0.97-5.92 4.0601-11.27 4.99-17.23 3.6801-8.58 5.64-17.74 8.4401-26.62 7.3999-24.02 14.61-48.1 21.87-72.16 2.9999-9.24 5.0899-18.83 9.14-27.69z" fill="#FEF807" stroke="#FEF807" stroke-width=".4"/>
	<path d="m1488 366.84c1.2001-1.06 2.41-2.11 3.7201-3.06-4.05 8.86-6.14 18.45-9.14 27.69-7.26 24.06-14.47 48.14-21.87 72.16-2.8 8.88-4.76 18.04-8.4401 26.62 2.89-14.01 8-27.47 11.66-41.3 7.1-23.05 13.95-46.18 20.89-69.29 1.44-4.17 2.88-8.38 3.18-12.82z" fill="#E4F791" stroke="#E4F791" stroke-width=".4"/>
	<path d="m1064 397c0.0601-5.38-0.23-10.81 0.78-16.13 0.47 4.36 0.5599 8.75 0.33 13.13-0.58 13.26-0.1 26.55-0.62 39.8-3.42 17.21-7.76 34.23-11.26 51.42-14.69 66.59-29.76 133.11-44.06 199.78 9.59 0.66 19.23 0.74 28.78 2.04 10.27 0.55 20.58 0.18 30.81 1.52 8.6799 1.25 17.47 0.44 26.19 1.21 4.6101 0.24 9.1901 1.06 13.82 1.11 2.03-4.99 2.38-10.46 2.6899-15.78 0.24-5.43 1.8301-10.7 1.88-16.15-0.0299-5.4 1.77-10.59 1.9501-15.97 0.1-7.53 2.2799-14.83 2.37-22.37 1.6699-8.83 1.64-17.85 3.33-26.68 0.29-8.85 2.4301-17.48 2.71-26.33 1.4701-7.93 1.64-16.03 3.03-23.97 0.8201-5.14 0.86-10.36 1.5701-15.5 0.63 0.79 0.98 1.72 1.0599 2.79-0.09 0.69-0.28 2.07-0.37 2.77-3.16 23.31-5.4 46.76-8.27 70.11-2.5699 22.73-5.21 45.45-7.78 68.17-0.8099 6.33-1.6699 12.66-1.84 19.04-0.28 0.28-0.85 0.83-1.13 1.1-34.02-2.6-68.14-3.91-102.19-6.13 0.04-1.21 0.14-2.4 0.28-3.59 2.13-11.39 5.22-22.57 7.44-33.94 2.76-14.38 6.82-28.48 9.28-42.91 0.61-2.27 1.4-4.5 1.88-6.8 2.25-12.29 5.6799-24.32 7.84-36.62 3.36-13.15 5.64-26.53 8.9399-39.69 2.66-11.06 4.4801-22.29 7.4601-33.27 3.59-18.39 8.02-36.6 12.02-54.9 1.0599-4 0.76-8.16 0.7799-12.25-0.0401-8.34 0.2999-16.67 0.2999-25.01z" fill="#3894A9" stroke="#3894A9" stroke-width=".4"/>
	<path d="m287.15 385.7c1.6-1.02 3-3.79 5.08-2.95 0.8 16.83-0.9 33.69-0.9 50.54-0.52-3.35-0.56-6.73-0.56-10.11l-0.56 0.3c0.15 10.85-1.03 21.66-0.84 32.51-0.1 8.87 0.28 17.78-0.68 26.62-0.75 7.27-0.71 14.58-1.24 21.86-1.72 8.8-6.52 16.8-7.37 25.8-2.19 6.07-4.4 12.15-6.03 18.39-1.84 3.53-3.12 7.3-4.29 11.1-11 32.93-22.28 65.76-33.27 98.69-1.58 4.93-3.64 9.73-4.56 14.85-1.84 0.6-3.79 1.07-5.72 0.55 0.44-4.49 2.45-8.6 3.81-12.85 3.39-10.23 7.02-20.39 10.13-30.72 2.89-6.41 4.9-13.15 7.14-19.8 11.11-32.85 22.16-65.72 33.22-98.57 1.5-4.53 3.4-9.03 3.51-13.87 0.54-14.02 0.45-28.05 0.41-42.07 0.59 8.01 0.68 16.04 1.14 24.06-0.01-13.34-0.15-26.69 0.24-40.03 0.71-11.31 0.66-22.64 0.63-33.97 1.46-6.67 1.19-13.57 0.71-20.33z" fill="#FBFA08" stroke="#FBFA08" stroke-width=".4"/>
	<path d="m252.12 413.13c11.7-9.12 23.06-18.68 35.03-27.43 0.48 6.76 0.75 13.66-0.71 20.33-8.98 2.87-16.9 8.21-25.59 11.79-8.74 3.59-16.76 8.94-25.79 11.79-0.42-0.39-1.26-1.16-1.68-1.54 6.1-5.16 12.55-9.89 18.74-14.94z" fill="#FDFEFE" stroke="#FDFEFE" stroke-width=".4"/>
	<path d="m386.81 385.89c2.47 1.18 4.65 2.84 6.76 4.55 26.48 20.81 53.35 41.13 79.75 62.05-21.44 3.14-42.17 9.75-62.83 16.08-7.52 2.96-15.73 4.24-22.75 8.37-0.15-18.65-0.28-37.3-1-55.94 0.06-11.7-0.53-23.42 0.07-35.11z" fill="#BBF4FD" stroke="#BBF4FD" stroke-width=".4"/>
	<path d="m260.85 417.82c8.69-3.58 16.61-8.92 25.59-11.79 0.03 11.33 0.08 22.66-0.63 33.97-0.39 13.34-0.25 26.69-0.24 40.03-0.46-8.02-0.55-16.05-1.14-24.06 0.04 14.02 0.13 28.05-0.41 42.07-0.11 4.84-2.01 9.34-3.51 13.87-1.24-0.17-2.51-0.49-3.76-0.22-36.25 9.14-73.94 14.35-111.33 10.88-8.93-0.8-18.3-2.06-26-7.01-3.9-2.34-5.38-7.21-4.54-11.51 1.54-7.59 6.79-13.72 11.88-19.28 14.75-14.37 31.91-26 49.67-36.31 3.58-2.21 8.08-3.04 10.89-6.38 1.74 7.29 4.25 14.38 5.89 21.71 1.26 4.49 3.13 8.88 3.17 13.64 0.44-0.31 0.88-0.61 1.32-0.9 0.32 8.48 4.41 16.2 6.13 24.41 0.63 2.13 0.9 4.82 3.21 5.85 1.09-1.44 1.29-3.23 1.27-4.97 0.66 2.98 1.33 5.99 2.64 8.78 3.85-2.64 6.79-6.31 10.17-9.48 1.99-2.03 4.31-3.84 5.72-6.35 0.14-2.27-0.37-4.51-0.83-6.71-4.15-18.31-7.93-36.7-12.16-54.99-0.36-1.65-0.6-3.32-0.47-5 0.42 0.38 1.26 1.15 1.68 1.54 9.03-2.85 17.05-8.2 25.79-11.79z" fill="#BBF4FD" stroke="#BBF4FD" stroke-width=".4"/>
	<path d="m290.21 423.48l0.56-0.3c0 3.38 0.04 6.76 0.56 10.11 0.37 8.24-0.03 16.49-0.72 24.7-0.44 15.56-0.34 31.14-1.28 46.68-1.7 7.08-5.12 13.61-6.95 20.65-0.48 1.77-1.41 3.36-2.3 4.95 0.85-9 5.65-17 7.37-25.8 0.53-7.28 0.49-14.59 1.24-21.86 0.96-8.84 0.58-17.75 0.68-26.62-0.19-10.85 0.99-21.66 0.84-32.51z" fill="#A2EA6C" stroke="#A2EA6C" stroke-width=".4"/>
	<path d="m1138.4 439.37c0.45-1.32 2.03-1.2 3.16-1.22 9.5 23.78 18.23 47.88 27.55 71.74 21.49 56.82 43.35 113.51 64.76 170.35 0.9301 1.72 3.47 1.12 5.13 1.12 15.71-2.85 31.54-5 47.28-7.77 8.6799-1.11 17.24-3.6801 26.06-3.34-11.65 2.82-23.53 4.31-35.34 6.17-13.69 2.41-27.45 4.31-41.14 6.63-3.52 0.89-3.46-3.91-4.5699-6.07-26.75-70.33-53.58-140.62-80.36-210.94-3.7201-8.99-6.4401-18.42-10.76-27.15-0.0901 0.45-0.27 1.35-0.36 1.79-0.4801 2.53-0.9801 5.06-1.4 7.61-0.2399-2.94-1.2699-6.09-0.0099-8.92z" fill="#3E96A2" stroke="#3E96A2" stroke-width=".4"/>
	<path d="m1140.2 438.89c4.3199 8.73 7.0399 18.16 10.76 27.15 26.78 70.32 53.61 140.61 80.36 210.94-0.11 0.68-0.3201 2.05-0.42 2.74-2.38 0.6201-2.91-2.28-3.74-3.84-16.25-43.34-33.04-86.47-49.32-129.79-12.11-31.87-24.26-63.7-36.39-95.56-1.3301-3.1-1.9701-6.48-1.61-9.85 0.0899-0.44 0.2699-1.34 0.3599-1.79z" fill="#F2F823" stroke="#F2F823" stroke-width=".4"/>
	<path d="m1504.2 513.29c1.6101 0.14 3.2101 0.33 4.8101 0.73 1.23 4.45-0.38 9.04-0.6 13.53-0.8301 5.91-0.4501 11.93-1.7001 17.79-1.2899 6.49-1.12 13.13-1.1399 19.72-0.42-3.38-0.8401-6.75-1.15-10.13 0.46 9.75-1.2101 19.41-0.86 29.15-0.4501-3.36-0.8101-6.74-1.14-10.11 0.45 9.72-1.2101 19.36-0.8401 29.09-0.4299-3.38-0.86-6.74-1.1599-10.12 0.4199 9.9-1.12 19.75-0.9 29.64-0.41-3.21-0.59-6.44-1.0601-9.64 0.29 8.39-0.83 16.72-1 25.09-0.1599 4.2599-1.9399 8.61-0.3899 12.81-1.5701-1.6801-3.6901-2.52-5.77-3.32-0.16-10.88 2.1899-21.66 2.74-32.53 1.8199-15.9 3.36-31.83 4.9099-47.76 1.3301-11.87 2.5701-23.75 3.65-35.64 0.7101-6.08 1.73-12.16 1.6-18.3z" fill="#FDF80A" stroke="#FDF80A" stroke-width=".4"/>
	<path d="m332.06 526.31c0.54-3.82 1.18-8.23 4.88-10.33 1.64 3.42 1.61 7.28 1.76 10.99 0.17 5.39 1.82 10.61 1.88 16.02 0.01 6.07 1.94 11.93 2.02 18 0.04 6.75 2.22 13.26 2.13 20.02 0.8 6.98 2.08 13.89 2.32 20.94 1.61 7.59 1.33 15.41 2.89 23.01 0.9 5.36 0.52 10.87 1.72 16.2 1.24 5.64 0.62 11.5 1.88 17.15 1.61 7.02 0.76 14.41 2.89 21.34 3.84 0.52 7.7-0.42 11.56-0.26 7.39 0.15 14.58-2.05 21.97-1.96 5.03-0.02 10.14-0.12 15-1.56 1.82-7.65-1.19-15.22-1.51-22.84-0.27-5.78-1.63-11.5-1-17.31 1.96 7.9901 1.12 16.4 3.7 24.26 0.07 5.63 0.7 11.23 1.04 16.85-1.87 1.95-4.79 1.39-7.22 1.54-7.76-0.46-15.26 2.32-23.02 1.94-7.28-0.46-14.5 1.96-21.74 0.85-0.78-0.99-1.43-2.06-2.09-3.11 1.22-7.04-0.7-14.02-1.18-21.02-2.14-24.1-5.79-48.02-7.97-72.11-2.2-17.53-4-35.08-6.12-52.61-0.35-4.48 0.61-9.55-1.92-13.53-0.98 0.79-1.52 1.93-1.86 3.12-0.15 0.45-0.43 1.34-0.57 1.78-0.48 0.8801-0.96 1.7501-1.44 2.6301z" fill="#5BD19D" stroke="#5BD19D" stroke-width=".4"/>
	<path d="m1586.9 515.62c1.52 0.12 3.08 0.35 4.59 0.79 0.26 9.55 1.3301 19.07 0.9601 28.65 0.4399-3.69 0.59-7.41 1.1699-11.07-0.26 9.2 0.5901 18.37 1.16 27.55 1.4 8.6 1.87 17.31 1.73 26.02 0.4501-3.2 0.62-6.43 1.1-9.62-0.35 10.07 1.2401 20.06 0.8501 30.13 0.36-2.72 0.7999-5.43 1.1599-8.14 0.04 4.02-0.11 8.06 0.14 12.08 0.28 5.02 1.88 9.89 1.85 14.95-0.11 6.67 1.26 13.31 0.5701 19.99-1.27-0.13-2.53-0.28-3.76-0.45-2.2-23.15-4.6-46.33-6.66-69.5-0.52-4.06 0.2101-8.55-2.0399-12.16 1.22-10.3-1.3401-20.58-1.87-30.85-0.1802-6.14-1.8902-12.22-0.9502-18.37z" fill="#FCF811" stroke="#FCF811" stroke-width=".4"/>
	<path d="m334.07 521.9c0.34-1.19 0.88-2.33 1.86-3.12 2.53 3.98 1.57 9.05 1.92 13.53-0.48-3.59-0.87-7.24-1.96-10.7-0.46 0.07-1.37 0.22-1.82 0.29z" fill="#AEF26B" stroke="#AEF26B" stroke-width=".4"/>
	<path d="m334.07 521.9c0.45-0.07 1.36-0.22 1.82-0.29 1.09 3.46 1.48 7.11 1.96 10.7 2.12 17.53 3.92 35.08 6.12 52.61 2.18 24.09 5.83 48.01 7.97 72.11 0.48 7 2.4 13.98 1.18 21.02-0.67-0.15-2.01-0.45-2.69-0.6-1.9-11.48-2.7-23.13-4.23-34.68-1.05-8.33-2.08-16.65-2.85-25.01-1.55-13.58-2.96-27.17-4.85-40.69-0.13-8.11-2.24-16-2.41-24.1-1.66-9.67-2.49-19.48-2.59-29.29 0.14-0.44 0.42-1.33 0.57-1.78z" fill="#F7FA13" stroke="#F7FA13" stroke-width=".4"/>
	<path d="m977.25 529.15c19.97-3.96 40.3-5.85 60.64-6.35-10.98 49.7-21.87 99.41-32.96 149.08-0.86 3.53-1.77 7.12-1.64 10.79 1.58-0.01 3.18-0.14 4.77-0.28-0.14 1.19-0.24 2.38-0.28 3.59 2.5699 1.63 5.8799 1.08 8.8 1.59 11.89 1.51 23.92 0.63 35.81 2.05 12.81 1.53 25.77 0.69 38.59 2.27 6.29 0.31 12.75 1.65 18.99 0.22 0.28-0.27 0.85-0.82 1.13-1.1 2.3301-3.89 1.23-8.66 2.0801-12.94 1.33-7.33 1.4199-14.81 2.7699-22.13 0.91-5.36 0.74-10.85 1.78-16.19 1.1-5.67 0.88-11.49 1.92-17.16 1.13-5.9 0.96-11.94 2.0699-17.83 1.03-5.69 0.9-11.5 1.9601-17.17 1.11-5.9 0.9099-11.96 2.09-17.85 1.1-5.66 0.87-11.47 1.91-17.14 1.13-6.19 1.1-12.52 2.24-18.7 16.19 3.09 31.93 8.1 47.89 12.19 16.28 43.32 33.07 86.45 49.32 129.79 0.83 1.56 1.36 4.46 3.74 3.84 0.1-0.6899 0.3101-2.06 0.42-2.74 1.11 2.16 1.0499 6.96 4.5699 6.07 13.69-2.32 27.45-4.22 41.14-6.63 11.81-1.86 23.69-3.35 35.34-6.17 6.39-1.28 12.96-1.65 19.22-3.49 3.34-0.7 6.7999-0.36 10.16-1.02-0.49-4.55-2.84-8.61-5.02-12.54-4.38-7.17-7.48-15.01-11.49-22.38-9.61-19.42-19.81-38.53-29.17-58.06 8-0.52 15.95 0.94 23.96 0.62 13.51 0.09 27.05-0.85 40.42-2.86 26.14-4.28 51.97-10.91 78.52-12.22 11.07-0.17 22.24-0.56 33.19 1.45 9.25 1.2 18.03 4.46 26.81 7.48-1.5499 15.93-3.09 31.86-4.9099 47.76-0.55 10.87-2.9 21.65-2.74 32.53 2.08 0.8 4.2 1.64 5.77 3.32 9.86 1.87 20.01-0.72 30-0.22 2.2599-0.07 6.2799 0.45 6.4199-2.83 0.22-10.29 1.12-20.56 0.92-30.87 0.33 2.4 0.83 4.78 1.15 7.19-0.1101-11.08 1.0599-22.11 0.88-33.19 0.4099 2.71 0.6 5.46 1.1 8.18 0.1699-7.2599-0.01-14.54 0.83-21.76 17.75-0.1201 35.26-5.15 51.32-12.5 2.25 3.61 1.5199 8.1 2.0399 12.16 2.0601 23.17 4.4601 46.35 6.66 69.5 1.23 0.17 2.49 0.32 3.76 0.45 0.4 0.78 0.84 1.54 1.35 2.29 12.05 0.93 24.14-1.17 36.22-0.69 0.5-4.85-0.14-9.71-0.0599-14.56-0.4601 1.33-0.87 2.67-1.29 4.02-0.02-6.19-0.78-12.35-0.75-18.53-0.84 1.27-0.72 3.11-1.21 4.59 0.11-6.71-0.98-13.36-0.7101-20.06-0.4399 1.32-0.86 2.65-1.2799 3.98-0.14-5.14-0.63-10.27-0.67-15.4-0.52 0.2599-1.02 0.54-1.51 0.8199 0.23-5.8199-0.63-11.6-0.62-17.41-0.45 1.32-0.87 2.65-1.28 3.98 0.2101-6.3-0.87-12.54-0.62-18.83-0.48 0.9-0.9299 1.8-1.37 2.71-0.02-4.91-0.38-9.8-0.9-14.68 14.62-5.02 30.3-5.84 45.62-4.99 5.2699 0.16 10.05 2.65 15.17 3.63 11.81 2.41 23.88 3.03 35.78 4.83 10.61 1.42 21.48 3.15 31.05 8.24 5.99 3.03 10.7 8.04 14.66 13.37 3.3401 4.93 6.16 10.63 6.0601 16.73 0.23 7.6-3.9401 14.5-8.7101 20.08-6.9199 7.85-15.74 13.61-23.61 20.39-1.95 1.9-4.6899 4.1-4.1 7.15 1.02 2.39 3.72 3.27 6.02 3.99 8.76 2.42 17.9 2.7401 26.89 3.8 28.66 1.37 57.49 2.21 85.72 7.8199 16.51 3.59 33.48 8.2401 47.1 18.7 6.9501 5.2 11.73 12.66 14.91 20.65v10.06c-5.62 13.99-18.66 22.75-30.97 30.38-17.77 10.33-37.85 15.87-57.85 20-10.07 1.71-20.11 3.6-30.29 4.48-26.54 2.55-53.21 4.67-79.89 3.53-47.48-1.29-94.55-8.84-142.01-10.38-11.61 0.1-23.25-0.48-34.83 0.54-24.74 1.31-49.02 6.62-73.42 10.58-27.58 5.01-55.99 7.68-83.85 3.41-24.99-3.8-47.58-16.82-72.77-19.63-15.68-2.03-31.5-0.44-47.19 0.59-37.49 3.61-74.35 11.92-111.84 15.59-12.36 0.83-24.68 2.33-37.08 1.9301-70.52 1.44-138.83-20.28-209.03-23.01-31.08-0.71-62.11 2.79-92.59 8.74-56.33 10.74-111.23 28.64-168.27 35.66-9.82 1.75-19.82 1.77-29.7 2.96h-27.85c-14.11-1.37-28.63-3.46-41.29-10.27-10.68-6.19-15.27-18.3-20.11-28.98-4.59-10.42-10.89-21.55-22.17-25.73-19.83-7.21-41.05-9.54-62.01-10.36-21.04-0.5-42.01 1.59-62.9 3.82-24.79 3.52-49.52 7.5-74.09 12.32-15.07 2.14-29.89 5.74-45.01 7.51-17.18 2.91-34.56 4.78-51.97 5.51-20.68 1.18-41.3 3.3-62 3.86-28.77 1.37-57.82 1.3-86.27-3.7-18.09-3.82-36.42-9.18-51.56-20.18-5.0698-3.54-8.5498-8.8-11.19-14.3v-10.01c6.12-15.28 19.47-25.85 32.83-34.62 12.18-7.7 25-14.51 38.51-19.57 24.64-8.39 50.7-11.66 76.6-12.92 7.36-0.05 14.68-1.08 22.05-0.96 23.38-0.12 46.77 0.03 70.16-0.14-3.11 10.33-6.74 20.49-10.13 30.72-1.36 4.25-3.37 8.36-3.81 12.85 1.93 0.52 3.88 0.05 5.72-0.55v0.91c-0.07 1.06 0.05 2.11 0.36 3.14 5.99 1.95 12.28 2.92 18.57 3.02-0.91 0.43-1.81 0.86-2.72 1.29 4.1-0.03 8.23 0.22 12.21 1.28 3.14 0.77 6.32 1.94 9.6 1.42 3.65-5.11 4.44-11.54 7.27-17.06 5.33-13.14 10.16-26.5 15.6-39.6 17.03-2.19 34.14-4.67 50.53-9.94 0.77 8.36 1.8 16.68 2.85 25.01 1.53 11.55 2.33 23.2 4.23 34.68 0.68 0.15 2.02 0.45 2.69 0.6 0.66 1.05 1.31 2.12 2.09 3.11 7.24 1.11 14.46-1.31 21.74-0.85 7.76 0.38 15.26-2.4 23.02-1.94 2.43-0.15 5.35 0.41 7.22-1.54-0.34-5.62-0.97-11.22-1.04-16.85-2.58-7.86-1.74-16.27-3.7-24.26-0.43-3.64-1.29-7.21-1.78-10.83-0.83-8.48-0.73-17.06-2.21-25.47 15.89-5.88 31.95-11.34 48.33-15.67 19.96-5.36 40.54-8.15 61.15-9.33 16.7-0.19 33.46-0.66 50.11 0.86 17.85 0.98 35.6 3.14 53.34 5.21-1.06 6.47-1.2 13.03-1.72 19.56-1.85 15.64-3.38 31.32-5.38 46.95-0.7599 10.86-3.03 21.62-2.97 32.53 1.41 0.21 2.83 0.3 4.27 0.41 0.11 0.76 0.33 2.28 0.45 3.05l0.18 0.96c9.54 0.98 19.19 0.07 28.78 0.41 3.87-0.06 7.84 0.4 11.62-0.65 1.58-2.83 1.63-6.18 1.88-9.32 0.33-7.83 0-15.71 1.28-23.47 1.45-8.78 0.42-17.72 1.6899-26.52 0.91-6.42 1.3-12.91 1.2401-19.39-0.08-6.53 1.27-12.94 2-19.39 29.1 2.55 58.38 4.96 87.58 2.48 2.84 16.36 4.59 32.88 7.03 49.3 1.54 12.88 3.84 25.66 4.98 38.58 0.17 1.2 0.31 2.5 1.09 3.52 0.7 0.08 2.11 0.24 2.81 0.32 0.4 0.04 1.19 0.12 1.59 0.16 0.11 0.72 0.34 2.16 0.45 2.88 1.82 0.69 3.82 0.54 5.75 0.59 13.01-0.18 26.02 0.01 39.02-0.06 1.4 0.01 3.94-0.35 3.38-2.39-0.6-6.22-2.74-12.16-3.88-18.28-4.43-20.53-8.84-41.06-13.39-61.56-1.35-6.27-2.78-12.51-3.65-18.86 5.76-1.85 11.73-2.84 17.61-4.22 58.13-13.69 113.3-38.12 172.17-48.93z" fill="#9AD05E" stroke="#9AD05E" stroke-width=".4"/>
	<path d="m1129 533.69l0.9301 0.21c-1.14 6.18-1.11 12.51-2.24 18.7-1.04 5.67-0.8101 11.48-1.91 17.14-1.1801 5.89-0.98 11.95-2.09 17.85-1.0601 5.67-0.9301 11.48-1.9601 17.17-1.11 5.89-0.9399 11.93-2.0699 17.83-1.04 5.67-0.8201 11.49-1.92 17.16-1.04 5.34-0.87 10.83-1.78 16.19-1.35 7.32-1.4399 14.8-2.7699 22.13-0.8501 4.28 0.25 9.05-2.0801 12.94 0.17-6.38 1.03-12.71 1.84-19.04 2.5701-22.72 5.2101-45.44 7.78-68.17 2.8699-23.35 5.1099-46.8 8.2699-70.11z" fill="#7AC599" stroke="#7AC599" stroke-width=".4"/>
	<path d="m269.76 559.76c1.17-3.8 2.45-7.57 4.29-11.1-0.32 2.35-0.64 4.72-1.43 6.97-11.79 34.34-23.28 68.78-34.86 103.18-1.8 5.18-3.09 10.59-5.83 15.4v-0.91c0.92-5.12 2.98-9.92 4.56-14.85 10.99-32.93 22.27-65.76 33.27-98.69z" fill="#5BD19D" stroke="#5BD19D" stroke-width=".4"/>
	<path d="m614 557.72c1.93-0.04 3.89 0.04 5.8 0.46 1.45 4.53-0.97 9.18-0.93 13.8 0.05 7.4-2.1 14.56-2.24 21.95-0.17 5.42-1.87 10.67-1.88 16.11-0.05 3.53-0.36 7.06-1.12 10.51-1.32 5.98-0.55 12.19-1.9 18.17-1.34 5.97-0.67 12.16-1.89 18.15-1.7401 7.77-0.52 15.97-3.42 23.53l-0.83-0.46c4.41-35.93 7.85-71.97 11.99-107.93 0.1-4.26 1.53-8.73 0.34-12.88-1.33-0.27-2.67-0.47-4-0.61l0.08-0.8z" fill="#EA3C67" stroke="#EA3C67" stroke-width=".4"/>
	<path d="m611.39 580.49c1.21-7.28 1.67-14.65 2.53-21.97 1.33 0.14 2.67 0.34 4 0.61 1.19 4.15-0.24 8.62-0.34 12.88-4.14 35.96-7.58 72-11.99 107.93-1.44-0.11-2.86-0.2-4.27-0.41-0.06-10.91 2.21-21.67 2.97-32.53 2-15.63 3.53-31.31 5.38-46.95 0.52-6.53 0.66-13.09 1.72-19.56z" fill="#FDF90B" stroke="#FDF90B" stroke-width=".4"/>
	<path d="m743.54 564.33l0.81 0.15c2.47 6.9 2.02 14.36 3.65 21.44 3.86 30.69 8.54 61.24 12.29 91.95-0.13 0.53-0.37 1.58-0.5 2.11-0.4-0.04-1.19-0.12-1.59-0.16 0.68-9.01-1.58-17.87-2.53-26.77-2.98-19.35-5.07-38.82-8.15-58.14-1-8.62-1.99-17.23-3.57-25.76-0.18-1.6101-0.3-3.2201-0.41-4.8201z" fill="#E93A68" stroke="#E93A68" stroke-width=".4"/>
	<path d="m739.74 564.64c0.82 0.05 2.45 0.14 3.26 0.19 0.4 1.41 0.69 2.87 0.95 4.32 1.58 8.53 2.57 17.14 3.57 25.76 3.08 19.32 5.17 38.79 8.15 58.14 0.95 8.9 3.21 17.76 2.53 26.77-0.7-0.08-2.11-0.24-2.81-0.32-0.78-1.02-0.92-2.32-1.09-3.52-1.14-12.92-3.44-25.7-4.98-38.58-2.44-16.42-4.19-32.94-7.03-49.3-0.21-7.8999-2.61-15.57-2.55-23.46z" fill="#FCF710" stroke="#FCF710" stroke-width=".4"/>
	<path d="m785.3 575.78c0.62 2.2 1.39 4.36 2.17 6.52 0.8701 6.35 2.3 12.59 3.65 18.86 4.55 20.5 8.96 41.03 13.39 61.56 1.14 6.1201 3.28 12.06 3.88 18.28 0.56 2.04-1.98 2.4-3.38 2.39-13 0.07-26.01-0.12-39.02 0.06-1.93-0.05-3.93 0.1-5.75-0.59-0.11-0.72-0.34-2.16-0.45-2.88 0.13-0.53 0.37-1.58 0.5-2.11 0.3 1.21 0.62 2.44 1.1 3.63 15.13 0.33 30.31 0.16 45.46 0.09-0.04-1.36-0.2-2.7-0.43-4.02-5.83-25.85-11.23-51.8-17-77.67-1.23-8.07-4.44-15.85-4.12-24.12z" fill="#D0348A" stroke="#D0348A" stroke-width=".4"/>
	<path d="m650.28 609.07c1.68-9.33 0.2599-18.99 2.3799-28.21 0.1201 1.72 0.22 3.45 0.26 5.18-1.72 29.68-4.05 59.31-5.9 88.98-0.21 2.59-0.23 5.27-1.18 7.73-13.24 0.67-26.54 0.11-39.8 0.24-0.12-0.77-0.34-2.29-0.45-3.05l0.83 0.46c2.44 1.95 5.69 1.19 8.57 1.31 9.93-0.26 19.87 0.24 29.78-0.18 1.13-4.69 0.81-9.58 1.57-14.32 1.5-9.93 0.64-20.04 2.09-29.97 1.4601-9.34 0.4801-18.83 1.8501-28.17z" fill="#CB3485" stroke="#CB3485" stroke-width=".4"/>
	<path d="m652.92 586.04l0.73-0.5 1.06 0.08c-0.73 6.45-2.08 12.86-2 19.39 0.06 6.48-0.33 12.97-1.2401 19.39-1.27 8.8-0.24 17.74-1.6899 26.52-1.28 7.76-0.95 15.64-1.28 23.47-0.25 3.14-0.3 6.49-1.88 9.32-3.78 1.05-7.75 0.59-11.62 0.65-9.59-0.34-19.24 0.57-28.78-0.41l-0.18-0.96c13.26-0.13 26.56 0.43 39.8-0.24 0.95-2.46 0.97-5.14 1.18-7.73 1.85-29.67 4.18-59.3 5.9-88.98z" fill="#C8A087" stroke="#C8A087" stroke-width=".4"/>
	<path d="m1007.8 685.98c34.05 2.22 68.17 3.53 102.19 6.13-6.24 1.43-12.7 0.09-18.99-0.22-12.82-1.58-25.78-0.74-38.59-2.27-11.89-1.42-23.92-0.54-35.81-2.05-2.9199-0.51-6.2299 0.04-8.7999-1.59z" fill="#79C59A" stroke="#79C59A" stroke-width=".4"/>
	<path d="m1350.1 357.92c-52.09-54.57-104.23-109.1-156.32-163.67-5.6499-6.15-11.83-11.85-17.13-18.31 3.27-3.82 7.5601-6.66 10.63-10.69 8.46-10.09 14.14-22.42 16.44-35.38 1.9199-12.82 1.3999-26.22-2.95-38.53-8.0598-23.64-28.37-42.95-52.72-48.97-9.74-2.9901-20.03-2.12-30.05-1.9-15.46 2.13-30.56 8.72-41.76 19.74-7.8901 7.36-14.76 16.14-18.41 26.39-0.45 4.5299-2.27 8.73-3.1799 13.16-5.3003 21.53 0.3599 45.24 13.97 62.62 3.6201 5.04 8.4502 9.02 12.39 13.8 0.3599 0.26 1.0898 0.78 1.46 1.04 1.3401 1.18 3.9199 2.19 3.26 4.4-2.8499 4.09-6.8801 7.19-10.15 10.92-7.2102 8.1-14.96 15.67-22.44 23.5-7.6899 8.62-16.01 16.65-23.93 25.05-6.9702 8.05-14.89 15.2-21.9 23.2-7.29 8.04-15.32 15.37-22.45 23.54-22.5 23.47-44.97 46.95-67.3 70.58 4.5999 4.45 10.1 7.86 14.51 12.53 5.6899 4.36 11.34 8.83 16.13 14.2 0.01 2.14-1.3198 4.04-2.0601 6 13.01-12.68 24.93-26.43 37.5-39.54 9.1301-9.5 17.76-19.49 27.2-28.68 16.03-18.18 33.16-35.36 49.37-53.37 1.5698-2.14 3.23-4.5 5.9199-5.3l0.7798-0.29c0.6001 5.32 0.2402 10.69 0.1602 16.03-0.5801 18.33-0.3101 36.67-0.4102 55.01-0.1099 6.12 0.3701 12.27-0.48 18.36 0.04 8.89 0.7002 18-1.27 26.72l-0.0999 0.79c0.47 4.36 0.5598 8.75 0.3298 13.13-0.5798 13.26-0.0999 26.55-0.6199 39.8-3.4202 17.21-7.76 34.23-11.26 51.42-14.69 66.59-29.76 133.11-44.06 199.78 9.5901 0.66 19.23 0.74 28.78 2.04 10.27 0.55 20.58 0.18 30.81 1.52 8.6799 1.25 17.47 0.44 26.19 1.21 4.6101 0.24 9.1902 1.06 13.82 1.11 2.03-4.99 2.3799-10.46 2.6899-15.78 0.24-5.43 1.8301-10.7 1.8799-16.15-0.0298-5.4 1.77-10.59 1.9502-15.97 0.1001-7.53 2.2798-14.83 2.3701-22.37 1.6699-8.83 1.6399-17.85 3.3298-26.68 0.29-8.85 2.4299-17.48 2.71-26.33 1.47-7.93 1.6399-16.03 3.03-23.97 0.8201-5.14 0.8599-10.36 1.5701-15.5 0.6301 0.79 0.98 1.72 1.0598 2.79 2.4402-27.6 6.3801-55.06 9.0503-82.63-0.2402-2.94-1.27-6.09-0.0103-8.92 0.4502-1.32 2.0303-1.2 3.1602-1.22 9.5 23.78 18.23 47.88 27.55 71.74 21.49 56.82 43.35 113.51 64.76 170.35 0.9299 1.72 3.4697 1.12 5.1299 1.12 15.71-2.85 31.54-5 47.28-7.77 8.6799-1.11 17.24-3.6801 26.06-3.34 6.3901-1.28 12.96-1.65 19.22-3.49 3.3398-0.7 6.7998-0.36 10.16-1.02-0.49-4.55-2.8401-8.61-5.02-12.54-4.3801-7.17-7.48-15.01-11.49-22.38-9.6099-19.42-19.81-38.53-29.17-58.06-16.87-32.54-33.22-65.35-49.79-98.04-8.73-17.56-18.15-34.79-26.38-52.59-2.0303-6.53-1.4102-13.51-2.1802-20.23-4.73-51.61-8.3198-103.33-13.11-154.94 0.3301 0.21 0.9897 0.63 1.3198 0.84 0.52 0.31 1.55 0.94 2.0701 1.2599 0.2795 0.0285 0.5376 0.091 0.7805 0.1743l-0.564 0.4484 4.4395 5.5831c0.6399 0.8251 1.2925 1.6423 1.9519 2.4545l94.579 118.94 0.1555-0.1237c2.3372 3.1301 4.8411 6.1521 6.7971 9.5516 0.7002 0.78 1.4302 1.54 2.2002 2.29 4.1899-2.36 7.0698-6.3 10.51-9.55 4.9202-4.75 10.15-9.17 14.68-14.32 2.1602-3.04 6.3-1.94 9.3701-3.35-0.9299-1.0897-1.8598-2.1797-2.8-3.2397zm-192.71-262.43c6.1602-2.9 14.21 2.6599 13.29 9.5 0.1802 6.9299-8.6699 11.6-14.42 7.8101-6.93-3.28-6.1201-14.93 1.1299-17.31zm-50.01-4.05c6.54-2.98 14.44 3.65 12.93 10.6-0.6902 7.0499-10.13 10.59-15.45 6.1199-5.88-4.1-4.53-14.67 2.5201-16.72zm58.32 58.22c-12.32 9.95-30.1 12.62-44.69 6.35-12.09-4.82-20.73-15.79-24.83-27.89 1.7603 1.8401 3.2803 3.8901 4.8701 5.8801 8.3799 10.39 21.55 16.9 34.96 16.67 14.77 0.4 29.38-6.54 38.83-17.83 3.3799-3.75 5.6799-8.27 8.04-12.69-1.5901 11.57-8.1401 22.22-17.18 29.51z" fill="#0080FF"/>
</svg>