<?xml version="1.0" encoding="UTF-8"?>
<!DOCTYPE svg PUBLIC "-//W3C//DTD SVG 1.1//EN" "http://www.w3.org/Graphics/SVG/1.1/DTD/svg11.dtd">
<!-- Creator: CorelDRAW SE -->
<svg xmlns="http://www.w3.org/2000/svg" xml:space="preserve" width="581.584mm" height="306.176mm" version="1.1" style="shape-rendering:geometricPrecision; text-rendering:geometricPrecision; image-rendering:optimizeQuality; fill-rule:evenodd; clip-rule:evenodd"
viewBox="0 0 86520 45549"
 xmlns:xlink="http://www.w3.org/1999/xlink">
 <defs>
  <style type="text/css">
   <![CDATA[
    .str6 {stroke:#1B4577;stroke-width:11.336}
    .str7 {stroke:#64B383;stroke-width:11.336}
    .str2 {stroke:#9A4617;stroke-width:11.336}
    .str3 {stroke:#C61D80;stroke-width:11.336}
    .str1 {stroke:#D2BD84;stroke-width:11.336}
    .str5 {stroke:#DC7C0C;stroke-width:11.336}
    .str4 {stroke:#E41E1D;stroke-width:11.336}
    .str0 {stroke:#F0BB53;stroke-width:11.336}
    .fil3 {fill:#141414}
    .fil8 {fill:#1B4577}
    .fil9 {fill:#64B383}
    .fil2 {fill:#9A4617}
    .fil4 {fill:#C61D80}
    .fil1 {fill:#D2BD84}
    .fil5 {fill:#D36F6F}
    .fil7 {fill:#DC7C0C}
    .fil6 {fill:#E41E1D}
    .fil0 {fill:#F0BB53}
    .fil10 {fill:white}
   ]]>
  </style>
 </defs>
 <g id="Vrstva_x0020_1">
  <metadata id="CorelCorpID_0Corel-Layer"/>
  <g id="_562575952">
   <path class="fil0 str0" d="M18775 9779c72,-508 327,-1883 243,-2352 -100,-560 -399,-1528 -669,-1915 -581,-831 -1543,-2346 -2548,-2707 -264,-95 -729,-277 -1016,-242 -394,47 -755,-49 -1233,14 -1274,169 -2720,1226 -3286,1972 -655,864 -1277,2674 -1017,4152 290,1641 656,2696 1603,3617 385,374 1024,767 1613,1015 759,319 1327,362 2304,315 2266,-109 3723,-1899 4006,-3869zm-3181 -161c307,-683 423,-2728 1143,-2790 271,358 -105,1138 -203,1632 -273,1379 -973,3665 -2713,3682 -457,5 -1375,-240 -1671,-436 -433,-287 -791,-639 -1074,-1075 -386,-598 -531,-589 -681,-1470 -116,-682 -188,-1147 -211,-1901 877,-726 687,635 692,844 7,347 218,1412 366,1629 581,853 974,1546 2239,1727 1211,173 1630,-768 2113,-1842zm-1156 -4227c-5,640 169,2455 -406,2200 -274,-122 -233,-1160 -235,-1554 -3,-452 -163,-1515 411,-1274 255,108 233,286 230,628zm-2210 -129c704,-322 633,294 580,881 -31,344 50,1384 -106,1576 -129,161 -343,198 -444,-24 -124,-269 -76,-2223 -30,-2433z"/>
   <path class="fil0 str0" d="M3717 7628c-45,-726 -131,-1378 -675,-1784 -253,-188 -670,-492 -1092,-517 -466,-27 -913,118 -1150,516 -340,573 -81,1299 297,1818 448,613 1276,760 1974,880 153,27 275,2 427,5 320,7 411,121 601,216 516,-209 911,-521 1172,-1040 214,-427 522,-1351 205,-1726 -307,-9 -396,108 -561,256 -369,333 -338,400 -438,674l-12 31c-147,382 -1,588 -109,796 -187,358 -617,218 -639,-125z"/>
   <path class="fil0 str0" d="M21789 26184c-213,459 -386,1278 -257,1903 74,355 469,1217 978,1187 584,-35 797,-850 880,-1328 204,-1188 -205,-1577 -270,-1874 -40,-181 -20,-358 97,-447 156,-120 264,-41 437,3 638,163 1336,-80 826,-912 -178,-289 -313,-410 -551,-525 -755,-365 -783,-26 -964,198 -248,307 -373,137 -482,291 -19,27 -125,347 -154,407 -56,118 -119,237 -184,375 -120,255 -233,457 -356,722z"/>
   <path class="fil1 str1" d="M19308 25877c132,-480 181,-1753 193,-2244 10,-450 -73,-832 -117,-1253 -44,-423 -138,-771 -203,-1174 -74,-457 -81,-754 -209,-1171 -113,-366 -189,-737 -306,-1069 -124,-355 -263,-620 -420,-961l-987 -1770c-645,-1 -832,497 -2922,421 -815,-30 -1424,-74 -2163,-373 -216,-87 -343,-205 -596,-229 -792,1101 -1300,2626 -1645,3910 -655,2438 -784,4713 -5,7254 224,728 539,1287 882,1869 547,929 2038,1911 3613,1914 1691,3 2827,-1112 3549,-2013 311,-388 805,-1274 1003,-1796 319,-843 227,-929 333,-1315z"/>
   <path class="fil2 str2" d="M21310 42779c890,-1042 -89,-1739 -1037,-2032 -997,-308 -2389,-91 -3069,372 61,396 1317,1964 1580,2198 900,799 2051,17 2526,-538z"/>
   <path class="fil2 str2" d="M6735 43608c1469,-151 1679,-109 1434,-1707 -59,-385 -116,-89 -428,-359 -172,-149 -329,-182 -585,-244 -582,-140 -865,-119 -1408,70 -519,181 -1916,1001 -1585,1640 147,284 702,421 1091,512 581,138 825,155 1481,88z"/>
   <g>
    <path class="fil3" d="M22510 29274c-509,30 -904,-832 -978,-1187 -129,-625 44,-1444 257,-1903 123,-265 236,-467 356,-722 65,-138 128,-257 184,-375 29,-60 135,-380 154,-407 109,-154 234,16 482,-291 181,-224 209,-563 964,-198 238,115 373,236 551,525 510,832 -188,1075 -826,912 -173,-44 -281,-123 -437,-3 -117,89 -137,266 -97,447 65,297 474,686 270,1874 -83,478 -296,1293 -880,1328zm-5306 11845c680,-463 2072,-680 3069,-372 948,293 1927,990 1037,2032 -475,555 -1626,1337 -2526,538 -263,-234 -1519,-1802 -1580,-2198zm55 -24884l987 1770c157,341 296,606 420,961 117,332 193,703 306,1069 128,417 135,714 209,1171 65,403 159,751 203,1174 44,421 127,803 117,1253 -12,491 -61,1764 -193,2244 -106,386 -14,472 -333,1315 -198,522 -692,1408 -1003,1796 -722,901 -1858,2016 -3549,2013 -1575,-3 -3066,-985 -3613,-1914 -343,-582 -658,-1141 -882,-1869 -779,-2541 -650,-4816 5,-7254 345,-1284 853,-2809 1645,-3910 253,24 380,142 596,229 739,299 1348,343 2163,373 2090,76 2277,-422 2922,-421zm-13096 26773c-331,-639 1066,-1459 1585,-1640 543,-189 826,-210 1408,-70 256,62 413,95 585,244 312,270 369,-26 428,359 245,1598 35,1556 -1434,1707 -656,67 -900,50 -1481,-88 -389,-91 -944,-228 -1091,-512zm-64 -34246c-190,-95 -281,-209 -601,-216 -152,-3 -274,22 -427,-5 -698,-120 -1526,-267 -1974,-880 -378,-519 -637,-1245 -297,-1818 237,-398 684,-543 1150,-516 422,25 839,329 1092,517 544,406 630,1058 675,1784 22,343 452,483 639,125 108,-208 -38,-414 109,-796 3,-10 8,-21 12,-31 100,-274 69,-341 438,-674 165,-148 254,-265 561,-256 317,375 9,1299 -205,1726 -261,519 -656,831 -1172,1040zm6641 7243l-704 1730c-263,586 -737,2022 -896,2713 -303,1322 -447,2659 -423,4044 10,589 279,1587 383,2151 243,1325 799,1985 905,2495 -74,103 -136,141 -208,233 -280,353 -861,1655 -982,2111 -128,481 -254,909 -361,1399 -54,245 -87,461 -125,730 -89,612 -453,1653 -483,2194 -31,559 -148,1020 -195,1557 -100,1144 10,2365 38,3496 -558,-47 -1088,-245 -1674,-114 -449,100 -967,378 -1303,583 -265,162 -830,650 -1006,880 -330,431 -191,1085 140,1380 287,257 890,418 1356,531 707,171 1085,71 1777,66 520,-5 1091,-90 1506,-378 486,-337 447,-700 359,-1434 -55,-458 -140,-906 -339,-1300 -45,-89 -60,-66 -102,-153 -221,-467 -165,-3045 -95,-3649 132,-1137 265,-2156 584,-3249 252,-860 213,-1707 792,-3034 154,-351 331,-804 581,-1103 88,-106 43,-63 157,-123 217,124 561,576 842,769 348,240 608,429 998,639 779,420 1824,534 2720,483 7,11 4,28 21,35 16,6 14,26 18,35 16,39 21,62 36,102l121 309c32,81 55,87 86,164 76,186 167,533 219,729 194,734 391,2532 453,3338 48,615 132,1104 199,1683 61,522 108,2206 16,2756 -27,162 -18,303 36,420 258,552 639,352 777,651 287,621 757,1130 1196,1637 135,156 359,294 521,426 179,146 428,189 693,240 759,143 1508,-219 2067,-668 643,-516 1137,-1367 745,-2263 -135,-307 -416,-533 -717,-701 -1074,-602 -1796,-731 -3093,-523 -517,82 -1165,402 -1473,441 -70,-359 -78,-1987 -92,-2465 -10,-361 -99,-772 -149,-1124 -103,-738 -42,-1599 -232,-2304 -90,-333 -99,-775 -163,-1129 -108,-598 -215,-984 -416,-1518 -69,-182 -174,-260 -229,-421 666,-253 1193,-450 1756,-918 289,-239 448,-358 704,-626 457,-478 1101,-1419 1358,-2035 715,-1715 839,-3457 685,-5322 -37,-456 -160,-728 -198,-1133 -78,-843 -376,-2435 -788,-3200 -204,-379 -360,-852 -589,-1259 -5,-9 -11,-19 -16,-27l-279 -531c180,31 809,455 920,535 866,628 1671,1780 2060,2809 40,106 69,158 121,265 163,339 233,785 364,1144 160,438 511,2072 488,2507 -5,83 -38,241 -68,324 -64,180 -17,62 -2,300 -315,181 -439,739 -628,1050 -487,804 -726,1821 -534,2799 102,517 340,795 613,1101 262,293 451,735 1112,556 927,-251 1194,-1244 1323,-2109 137,-915 -137,-1106 -131,-1510 479,-11 1062,-19 1279,-443 458,-894 -322,-1728 -982,-2192 -701,-494 -1066,-79 -1352,-152 -99,-199 -180,-864 -215,-1090 -179,-1165 -750,-2965 -1366,-3916 -429,-663 -953,-1250 -1518,-1792 -352,-337 -812,-485 -1207,-771 -304,-220 -992,-610 -1426,-348 -906,545 -3032,610 -4014,376 -631,-150 -889,-442 -1467,-439 -79,0 -170,-44 -301,-39 -121,5 -154,78 -257,104 -1081,27 -3198,-2002 -3740,-2558 -348,-357 -1766,-2235 -2020,-2673 -103,-178 -183,-323 -289,-485 -113,-174 -244,-312 -323,-497 148,-317 1289,-955 1448,-2623 51,-536 -97,-1275 -792,-1197 -535,59 -841,460 -1195,783 -8,7 -22,18 -28,23 -7,6 -20,17 -29,25 -156,-133 -233,-353 -374,-509 -414,-456 -921,-861 -1581,-993 -930,-186 -2040,611 -2125,1264 -121,926 342,1903 1030,2404 941,684 812,434 1843,728 240,69 550,-2 813,52 357,72 488,392 675,621 75,91 126,149 187,249 597,983 779,1106 1440,1998 578,779 884,1178 1607,1833 309,280 573,544 914,804 333,253 638,493 995,727 361,236 727,394 1217,509z"/>
    <path class="fil3" d="M9249 8701c-260,-1478 362,-3288 1017,-4152 566,-746 2012,-1803 3286,-1972 478,-63 839,33 1233,-14 287,-35 752,147 1016,242 1005,361 1967,1876 2548,2707 270,387 569,1355 669,1915 84,469 -171,1844 -243,2352 -283,1970 -1740,3760 -4006,3869 -977,47 -1545,4 -2304,-315 -589,-248 -1228,-641 -1613,-1015 -947,-921 -1313,-1976 -1603,-3617zm6751 -6593c201,-88 295,-205 445,-253 31,34 31,26 63,79 124,205 243,498 528,624 384,169 740,42 994,-141 248,-179 406,-400 509,-773 91,-330 54,-879 -159,-1050 -183,91 -177,104 -245,331 -174,582 -229,1039 -813,1048 -551,-535 -416,-620 -296,-945 218,-591 -102,-745 -366,-987 -909,162 -491,774 -502,1240 -164,110 -296,228 -537,324 -255,100 -552,35 -704,-107 -36,-81 -32,96 -30,-105 1,-141 125,-423 -35,-780 -44,-98 -46,-69 -85,-172 -196,-524 -509,-542 -649,-259l-202 356c-187,376 47,630 71,894 -260,170 -325,188 -597,6 -24,-460 115,-442 -40,-909 -97,-295 -324,-358 -605,-454 -112,-2 -437,308 -411,620 60,717 608,658 -10,1308 -553,581 -998,-139 -1012,-483 -14,-340 238,-559 289,-860 -472,-566 -842,473 -866,774 -59,718 453,1034 730,1334 -121,131 -217,169 -381,277 -333,222 -805,600 -1048,885 -713,841 -1426,2508 -1452,3697 -62,2842 1231,5513 3918,6438 565,194 1641,311 2342,245 1796,-169 3259,-1144 3922,-2505 469,-964 455,-862 689,-1892l155 -1167c122,-1222 194,-1121 -135,-2259 -184,-636 -72,-353 -326,-963l-1055 -1566c-301,-414 -1241,-1377 -1644,-1584 -200,-102 -311,-118 -450,-266z"/>
    <path class="fil3" d="M16737 6828c-720,62 -836,2107 -1143,2790 -483,1074 -902,2015 -2113,1842 -1265,-181 -1658,-874 -2239,-1727 -148,-217 -359,-1282 -366,-1629 -5,-209 185,-1570 -692,-844 23,754 95,1219 211,1901 150,881 295,872 681,1470 283,436 641,788 1074,1075 296,196 1214,441 1671,436 1740,-17 2440,-2303 2713,-3682 98,-494 474,-1274 203,-1632z"/>
    <path class="fil3" d="M14208 4763c-574,-241 -414,822 -411,1274 2,394 -39,1432 235,1554 575,255 401,-1560 406,-2200 3,-342 25,-520 -230,-628z"/>
    <path class="fil3" d="M12228 5262c-46,210 -94,2164 30,2433 101,222 315,185 444,24 156,-192 75,-1232 106,-1576 53,-587 124,-1203 -580,-881z"/>
   </g>
  </g>
  <g id="_562577368">
   <path class="fil0 str0" d="M28117 7278c-323,924 359,2279 985,2793 261,214 902,706 1268,692 181,-7 411,-47 549,-123 650,-359 2040,-2073 2008,-3236 -577,-34 -1191,733 -1450,1168 -177,297 -601,371 -690,-60 -180,-872 -506,-2274 -1966,-1824 -373,115 -572,212 -704,590z"/>
   <path class="fil0 str0" d="M38685 11698c-222,702 -88,1419 -390,1791l-265 -11 -122 -119c-90,-964 262,-1544 319,-2383l363 -99c174,184 292,201 95,821zm-1910 -881c-367,567 -752,1544 -937,2204 -326,1156 -207,2499 426,3521 312,503 499,818 975,1134 426,283 820,526 1419,655 853,182 1855,133 2524,-442 690,-593 922,-1005 1313,-1828 205,-432 338,-1198 353,-1755 30,-1094 -24,-993 -197,-1908 -144,-759 -421,-1683 -920,-2270 -470,-554 -316,-362 -767,-781 -241,-223 -643,-494 -1001,-565 -578,-113 -1212,199 -1615,418 -1054,576 -1015,752 -1573,1617zm2834 2447c-77,156 -97,134 -291,178 -229,-313 -54,-827 17,-1237 138,-795 119,-393 164,-1301 200,-154 135,-209 510,-208 267,320 157,277 85,689 -50,281 -97,509 -156,793 -69,333 -185,798 -329,1086zm788 2197c76,-303 109,-475 298,-632 378,45 322,653 220,991 -362,1196 -1067,1760 -2353,1432 -1125,-286 -1605,-1174 -1848,-2185 -137,-567 -105,-743 418,-719 42,52 75,73 112,140 63,113 39,84 60,201l217 643 22 63c226,614 433,1013 1207,1200 1004,243 1441,-304 1647,-1134z"/>
   <path class="fil0 str0" d="M48066 6450c-35,202 71,859 -483,800 -509,-54 -674,-1014 -1124,-1066 -245,185 -650,1529 199,2031 377,223 514,129 1096,84 1094,-84 1256,-79 2173,-720 223,-156 583,-507 762,-702 593,-650 755,-1151 868,-2019 58,-439 15,-923 -178,-1192 -140,-196 -132,-252 -445,-269 -258,-13 -453,6 -680,71 -1155,331 -1976,1760 -2188,2982z"/>
   <path class="fil4 str3" d="M36530 29247l-1846 4373c324,201 1800,56 2267,51 398,-3 748,40 1163,42 416,1 829,-6 1247,-2 1212,12 2370,32 3577,-66l1067 -17c75,-19 112,-59 119,-63 112,-349 -739,-1959 -889,-2347 -338,-878 -183,-624 -647,-1554 -126,-252 -193,-552 -294,-826l-831 -2472c-360,-1159 -488,-1355 -965,-2397 -128,-280 -183,-497 -331,-745 -78,-131 -111,-251 -184,-379l-404 -713c-40,-61 -59,-73 -111,-148 -141,-204 -386,-606 -623,-788 -99,159 -61,196 -90,411 -77,578 -577,2364 -759,2868 -213,589 -451,1603 -727,2373 -92,258 -201,518 -276,793 -138,506 -288,1104 -463,1606z"/>
   <path class="fil5" d="M37792 26652c836,-175 2375,-295 3193,-213 818,83 915,366 1064,747 149,381 351,859 418,1195 67,336 0,530 -538,624 -537,93 -1545,86 -2576,60 -1031,-27 -2084,-71 -2599,-236 -515,-164 -493,-448 -415,-724 79,-276 213,-545 348,-796 134,-250 269,-481 1105,-657z"/>
   <path class="fil6 str4" d="M43652 42151c-1323,-356 -1685,237 -2362,666 -45,717 597,1968 1098,2106 376,103 1036,-110 1354,-208 1284,-397 1660,-2093 -90,-2564z"/>
   <path class="fil6 str4" d="M36783 43635c-211,-176 -345,-115 -541,-315 -287,-294 33,-368 -301,-603 -1068,-752 -3333,-203 -3740,959 -305,873 1387,1284 2256,1224 509,-35 1018,-150 1390,-382 286,-178 891,-572 936,-883z"/>
   <g>
    <path class="fil3" d="M46459 6184c450,52 615,1012 1124,1066 554,59 448,-598 483,-800 212,-1222 1033,-2651 2188,-2982 227,-65 422,-84 680,-71 313,17 305,73 445,269 193,269 236,753 178,1192 -113,868 -275,1369 -868,2019 -179,195 -539,546 -762,702 -917,641 -1079,636 -2173,720 -582,45 -719,139 -1096,-84 -849,-502 -444,-1846 -199,-2031zm-5169 36633c677,-429 1039,-1022 2362,-666 1750,471 1374,2167 90,2564 -318,98 -978,311 -1354,208 -501,-138 -1143,-1389 -1098,-2106zm-3176 -9104c-415,-2 -765,-45 -1163,-42 -467,5 -1943,150 -2267,-51l1846 -4373c175,-502 325,-1100 463,-1606 75,-275 184,-535 276,-793 276,-770 514,-1784 727,-2373 182,-504 682,-2290 759,-2868 29,-215 -9,-252 90,-411 237,182 482,584 623,788 52,75 71,87 111,148l404 713c73,128 106,248 184,379 148,248 203,465 331,745 477,1042 605,1238 965,2397l831 2472c101,274 168,574 294,826 464,930 309,676 647,1554 150,388 1001,1998 889,2347 -7,4 -44,44 -119,63l-1067 17c-1207,98 -2365,78 -3577,66 -418,-4 -831,3 -1247,2zm-1331 9922c-45,311 -650,705 -936,883 -372,232 -881,347 -1390,382 -869,60 -2561,-351 -2256,-1224 407,-1162 2672,-1711 3740,-959 334,235 14,309 301,603 196,200 330,139 541,315zm-3856 -36231c32,1163 -1358,2877 -2008,3236 -138,76 -368,116 -549,123 -366,14 -1007,-478 -1268,-692 -626,-514 -1308,-1869 -985,-2793 132,-378 331,-475 704,-590 1460,-450 1786,952 1966,1824 89,431 513,357 690,60 259,-435 873,-1202 1450,-1168zm4807 15720c-123,491 -358,914 -455,1391 -56,271 -127,439 -198,710 -186,712 -431,1431 -677,2121 -246,691 -363,1455 -660,2135 -98,225 -157,460 -269,682 -311,615 -505,1336 -794,1958 -181,390 -395,903 -635,1257 -263,389 -651,532 -42,865 401,219 1440,16 1913,114 148,31 172,270 232,414 122,290 242,1010 258,1299 35,641 2,1452 -3,2110 -8,1002 -171,1946 -177,2925 -2,355 11,731 -4,1082 -323,-24 -1647,-835 -3314,126 -142,82 -437,212 -551,309 -213,181 -603,653 -726,944 -175,414 -25,914 282,1201 853,799 2089,905 3231,675 190,-38 486,-127 647,-209 438,-222 654,-351 979,-652 186,-171 692,-648 552,-1099l-292 -520c-115,-176 -65,-102 -84,-351 -11,-148 -33,-205 -38,-386 -15,-566 -32,-1113 -12,-1680 38,-1070 154,-2122 141,-3225 -9,-826 93,-1477 -122,-2295 -52,-194 -147,-501 -178,-677l3821 3c14,266 89,406 94,687l108 2325c27,1005 -132,2026 -178,3010 -24,502 -19,1026 -40,1552 -8,201 -110,492 -82,678 17,108 176,250 238,576 128,677 608,1691 1124,2088 658,506 1904,190 2508,-141 1157,-634 1580,-2036 529,-3067 -129,-126 -300,-196 -478,-296 -256,-145 -303,-120 -584,-231 -435,-171 -905,-186 -1349,-94 -630,129 -691,325 -1152,503 -168,-221 -112,-656 -86,-908 101,-955 17,-1952 137,-2887 81,-632 3,-1282 -17,-1901l-62 -1448c-16,-130 -58,-312 -64,-449 793,-41 1614,-59 2415,-52 433,4 1334,151 1467,-322 62,-219 -49,-301 -127,-448 -167,-317 -200,-549 -308,-901 -55,-178 -127,-257 -191,-412 -66,-160 -130,-290 -198,-442 -191,-423 -335,-854 -564,-1286 -205,-387 -698,-1789 -862,-2239 -112,-304 -181,-580 -292,-911 -112,-332 -241,-611 -331,-919 -177,-603 -380,-1266 -635,-1814l-589 -1258c-66,-141 -171,-312 -203,-432 811,-338 842,-163 1650,-971 535,-535 764,-780 1223,-1398 668,-898 1273,-1862 1699,-2906 881,-2163 1402,-2578 1898,-5328l383 -2281c69,-431 121,-737 117,-1222 496,-33 434,71 1031,-43 845,-161 1595,-720 2187,-1298 207,-202 341,-406 527,-637 167,-208 301,-445 419,-736 215,-527 328,-1415 223,-2081 -253,-1601 -1784,-1469 -2857,-728 -682,472 -1202,1178 -1513,1967l-314 895c-423,-168 -648,-777 -1218,-565 -621,230 -727,1626 -604,2167 5,24 96,312 116,345 39,65 163,180 226,240l477 466c120,96 179,76 326,147 132,63 108,104 333,140 33,961 -595,4035 -973,5201 -301,931 -746,1759 -1130,2611 -851,1892 -1017,2031 -2033,3522 -244,357 -584,664 -879,971 -387,403 -838,847 -1672,840 -106,-193 -211,-376 -332,-575 -117,-192 -261,-393 -361,-585 -148,-285 -341,-625 -573,-846 -105,-101 -151,-117 -296,-174 -214,-86 -431,-243 -682,-35 -181,151 -127,378 -78,635 74,392 -1,521 -50,848 -23,150 -4,304 -38,455 -23,108 -78,232 -110,365 -662,-41 -2281,-1122 -2771,-1595l-1087 -1065c-1087,-990 -2152,-2418 -2715,-3827 -483,-1211 -552,-2929 -556,-4388 782,-423 1631,-1153 2053,-1942 158,-296 343,-534 468,-860 225,-585 632,-1676 -310,-1757 -367,-32 -754,200 -946,363 -214,181 -477,607 -772,609l-269 -725c-62,-122 -367,-455 -479,-552 -213,-183 -412,-221 -688,-344 -1037,-460 -2966,489 -2316,2409 167,493 391,959 677,1382 302,447 895,960 1389,1190 57,26 106,56 176,76 285,82 361,-86 403,820 42,933 82,1918 287,2810 177,771 486,1553 888,2199 138,222 231,429 392,640 506,658 718,1079 1350,1747l1058 1006c359,348 659,685 1055,1009l1264 801c238,122 425,241 676,352 264,117 400,247 598,448z"/>
    <path class="fil3" d="M39963 8782c358,71 760,342 1001,565 451,419 297,227 767,781 499,587 776,1511 920,2270 173,915 227,814 197,1908 -15,557 -148,1323 -353,1755 -391,823 -623,1235 -1313,1828 -669,575 -1671,624 -2524,442 -599,-129 -993,-372 -1419,-655 -476,-316 -663,-631 -975,-1134 -633,-1022 -752,-2365 -426,-3521 185,-660 570,-1637 937,-2204 558,-865 519,-1041 1573,-1617 403,-219 1037,-531 1615,-418zm-6962 5598c249,16 330,-269 384,-500 115,-490 559,-1664 799,-2041 324,-506 1463,-1500 2213,-1585l-613 1159c-98,203 -173,392 -261,601 -470,1124 -700,2572 -310,3778 237,736 867,1767 1359,2161 587,469 1470,1015 2445,1118 1327,140 2462,-305 3151,-1142 382,-464 810,-1087 1025,-1679 353,-976 573,-2827 249,-3841 -78,-242 -145,-429 -202,-699 -143,-682 -422,-1109 -444,-1373 839,79 1286,1040 1770,1602 272,316 538,868 594,1293 16,121 8,249 24,376 24,194 71,555 367,262 81,-81 107,-228 124,-347 143,-1044 -529,-1816 -1088,-2553 -467,-615 -709,-896 -1361,-1170l-172 -101c768,-138 449,-56 1282,-52l84 -115c-234,-484 -1138,-580 -1775,-291 -107,49 -123,87 -263,106 0,-208 146,-483 272,-633l750 -905c94,-132 85,-71 81,-287 -652,-158 -1353,839 -1599,1435l-73 145c-401,-129 -711,-1002 -2193,-854 -705,70 -1143,262 -1722,556 -228,116 -272,228 -543,274 -232,-407 -1056,-1011 -1541,-1207l-164 -51c-215,-65 -428,-82 -630,-11 66,117 332,220 472,300 263,150 1175,758 1286,1072 -318,-61 -282,-179 -987,-206 -375,-14 -845,-3 -1183,69 -528,114 -1519,538 -1226,1078 388,-82 480,-848 2323,-778 403,15 593,87 864,227l-782 264c-570,240 -1409,963 -1821,1398 -312,328 -608,851 -767,1378 -132,436 -437,1312 -198,1769z"/>
    <path class="fil3" d="M40695 14829c-189,157 -222,329 -298,632 -206,830 -643,1377 -1647,1134 -774,-187 -981,-586 -1207,-1200 -4,-12 -18,-50 -22,-63l-217 -643c-21,-117 3,-88 -60,-201 -37,-67 -70,-88 -112,-140 -523,-24 -555,152 -418,719 243,1011 723,1899 1848,2185 1286,328 1991,-236 2353,-1432 102,-338 158,-946 -220,-991z"/>
    <path class="fil3" d="M39318 13442c194,-44 214,-22 291,-178 144,-288 260,-753 329,-1086 59,-284 106,-512 156,-793 72,-412 182,-369 -85,-689 -375,-1 -310,54 -510,208 -45,908 -26,506 -164,1301 -71,410 -246,924 -17,1237z"/>
    <path class="fil3" d="M38030 13478l265 11c302,-372 168,-1089 390,-1791 197,-620 79,-637 -95,-821l-363 99c-57,839 -409,1419 -319,2383l122 119z"/>
   </g>
  </g>
  <g id="_562579048">
   <path class="fil6 str4" d="M62877 30976c-605,-647 -1156,-1399 -1652,-2175 -232,-364 -456,-844 -703,-1190 -474,-664 -1094,-1681 -1344,-2487 -66,-211 -149,-486 -246,-698l-261 -466c-93,-174 38,-77 -130,-151 -99,326 -148,1052 -204,1439 -261,1784 -1591,5659 -2658,7147l-716 932c198,146 944,94 1162,73 365,-36 817,-29 1217,-21 826,16 1583,-84 2409,-99 865,-15 1573,-18 2407,-83 476,-37 2140,69 2421,-128 -46,-236 -263,-394 -414,-542 -408,-398 -803,-1032 -1288,-1551z"/>
   <path class="fil0 str0" d="M59231 14447c312,152 33,1022 -28,1433 -70,467 -177,1069 -574,1179 -196,-358 -50,-1102 21,-1536 61,-373 14,-1352 581,-1076zm-906 -1435c-1866,600 -3438,2638 -3440,4528 -3,2422 2657,3684 4522,3440 1042,-136 2082,-832 2550,-1452 550,-729 841,-1982 616,-3218 -213,-1173 -467,-1879 -1224,-2775 -454,-537 -373,-609 -1275,-713 -603,-69 -1258,33 -1749,190zm2053 4378c396,540 -268,1515 -533,1749 -453,400 -1010,662 -1804,452 -762,-201 -1174,-404 -1517,-972 -280,-464 -605,-1355 -265,-1856 831,-60 212,395 682,1389 258,544 536,694 1178,854 1592,398 1673,-1380 2259,-1616zm-2856 -2857c143,-106 405,-56 480,114 119,233 -27,952 -82,1283 -141,841 -504,617 -576,452 -106,-244 79,-931 78,-1249 0,-225 -42,-493 100,-600z"/>
   <path class="fil0 str0" d="M67601 17904c-275,241 -488,472 -644,869 -68,174 -123,354 -170,561 -78,347 15,622 -410,618 -105,-1 -175,-3 -269,-40 -281,-109 -453,-363 -627,-487 -223,-158 -197,-185 -353,-205 -188,300 -209,1799 1650,1723l150 -166c688,29 239,105 651,102 410,-4 834,-162 1103,-431 142,-141 295,-219 414,-360 1708,-2041 95,-3576 -1495,-2184z"/>
   <path class="fil0 str0" d="M52262 32290c482,-604 349,-1663 175,-2347 -42,-165 -27,-353 -45,-525 -547,-27 -315,-262 -701,-464 -262,-137 -795,-69 -1040,44 -153,71 -141,113 -355,204 -291,124 -794,546 -733,1065 837,659 2105,-924 2106,221 -125,223 -262,249 -547,534 -167,168 -324,446 -423,686 -348,845 8,1267 897,1002 291,-86 511,-225 666,-420z"/>
   <path class="fil7 str5" d="M52822 43046c244,600 1077,1186 2020,1089 397,-41 928,-164 1278,-281 411,-139 557,-493 670,-927 91,-352 201,-552 -585,-805 -437,-140 -885,-174 -1402,-164 -734,15 -2315,267 -1981,1088z"/>
   <path class="fil7 str5" d="M63207 42377c-194,184 -427,574 -294,945 204,566 918,848 1565,1033 985,280 1328,-658 1260,-1175 -146,-1116 -1995,-1314 -2531,-803z"/>
   <g>
    <path class="fil3" d="M66778 20943c-1859,76 -1838,-1423 -1650,-1723 156,20 130,47 353,205 174,124 346,378 627,487 94,37 164,39 269,40 425,4 332,-271 410,-618 47,-207 102,-387 170,-561 156,-397 369,-628 644,-869 1590,-1392 3203,143 1495,2184 -119,141 -272,219 -414,360 -269,269 -693,427 -1103,431 -412,3 37,-73 -651,-102l-150 166zm-3865 22379c-133,-371 100,-761 294,-945 536,-511 2385,-313 2531,803 68,517 -275,1455 -1260,1175 -647,-185 -1361,-467 -1565,-1033zm-7234 -10927c1067,-1488 2397,-5363 2658,-7147 56,-387 105,-1113 204,-1439 168,74 37,-23 130,151l261 466c97,212 180,487 246,698 250,806 870,1823 1344,2487 247,346 471,826 703,1190 496,776 1047,1528 1652,2175 485,519 880,1153 1288,1551 151,148 368,306 414,542 -281,197 -1945,91 -2421,128 -834,65 -1542,68 -2407,83 -826,15 -1583,115 -2409,99 -400,-8 -852,-15 -1217,21 -218,21 -964,73 -1162,-73l716 -932zm-2857 10651c-334,-821 1247,-1073 1981,-1088 517,-10 965,24 1402,164 786,253 676,453 585,805 -113,434 -259,788 -670,927 -350,117 -881,240 -1278,281 -943,97 -1776,-489 -2020,-1089zm-2171 -14048c245,-113 778,-181 1040,-44 386,202 154,437 701,464 18,172 3,360 45,525 174,684 307,1743 -175,2347 -155,195 -375,334 -666,420 -889,265 -1245,-157 -897,-1002 99,-240 256,-518 423,-686 285,-285 422,-311 547,-534 -1,-1145 -1269,438 -2106,-221 -61,-519 442,-941 733,-1065 214,-91 202,-133 355,-204zm-536 2045l179 4c17,498 -832,1312 -30,2046 237,217 539,391 1011,348 239,-22 858,-210 1042,-323 587,-358 887,-864 935,-1769 35,-664 -47,-1209 -249,-1820 -259,-787 -538,-224 788,-1646 349,-373 773,-691 1205,-1031 344,-271 2249,-1617 2692,-1742 1,293 -172,964 -248,1258 -80,311 -197,583 -257,893 -99,509 -276,994 -476,1471 -376,901 -391,1142 -932,2164 -184,349 -336,677 -548,1002 -229,352 -384,619 -657,894l-818 708c-21,341 -4,431 236,552 226,115 2118,-7 2460,-4 26,637 120,1234 121,1904 1,1281 -201,2646 -37,3915 54,414 171,1475 163,1888 -584,-39 -690,-440 -2362,-317 -730,54 -1590,334 -1941,748 -191,225 -276,707 -140,1054 114,292 372,622 560,812 498,500 1256,725 1992,725 435,0 1116,-140 1478,-260 674,-223 1062,-801 1098,-1509 41,-811 140,-469 139,-776 0,-104 -143,-440 -177,-694 -35,-267 -82,-558 -98,-810 -35,-542 -73,-1100 -137,-1624 -123,-1008 169,-2423 74,-3344 -58,-557 -24,-1161 -70,-1724 1095,-8 1926,-108 2984,-116l1805 -34c3,566 242,1108 267,1720 14,325 -9,661 -3,991 6,349 41,636 51,945 16,487 -64,1563 22,1955 138,627 16,1283 18,1918 1,336 13,557 -45,861 -101,522 66,333 122,736 122,894 302,954 964,1394 289,193 629,352 970,454 526,156 1015,306 1455,-99 1311,-1209 489,-3102 -1107,-3245 -1386,-125 -1052,115 -1692,131l-47 -1934c-189,-1463 45,-3351 -164,-4877l-169 -991c652,-9 1331,-20 1940,-33 433,-9 948,140 1052,-343 66,-304 -797,-1217 -1013,-1427 -359,-349 -550,-765 -885,-1137 -790,-877 -1146,-1221 -1765,-2236l-740 -1239c-151,-244 -719,-1000 -732,-1279 406,82 837,217 1288,234 1296,48 2860,225 3835,-708 1654,-1582 1578,-3392 1964,-4228 527,-158 950,-141 1375,-436 464,-323 633,-373 979,-827 534,-700 946,-1876 396,-2680 -544,-795 -1706,-994 -2527,-481 -400,251 -680,521 -964,841 -350,395 -419,699 -616,1239 -274,-50 -309,-255 -523,-407 -164,-115 -366,-316 -644,-203 -696,285 -671,1736 285,2494 318,252 811,393 1215,402 81,2 190,8 234,64 123,307 -251,1336 -366,1625 -400,1004 -751,1975 -1790,2434 -238,105 -514,188 -799,243 -441,85 -2106,31 -2469,-54 -243,-56 -421,-78 -641,-132 -323,-78 -317,-107 -624,-71 -37,-142 -112,-334 -175,-472 -105,-233 -137,-487 -248,-696 -46,-85 -62,-168 -91,-251l-164 -531c-7,-29 -17,-74 -26,-102l-48 -123c-42,-112 -38,-145 -94,-250 -186,-350 -505,-740 -913,-763 -141,-9 -203,17 -317,-9 -140,434 -57,512 -30,957 21,333 -35,679 -107,948 -11,8 -39,20 -32,24l-2180 1487c-723,494 -1465,1005 -2081,1616 -410,406 -867,816 -1219,1274 -563,50 -648,-323 -1570,-98 -657,161 -765,343 -1177,668 -561,444 -859,1171 -192,1693 199,155 476,163 772,171z"/>
    <path class="fil3" d="M59407 20980c-1865,244 -4525,-1018 -4522,-3440 2,-1890 1574,-3928 3440,-4528 491,-157 1146,-259 1749,-190 902,104 821,176 1275,713 757,896 1011,1602 1224,2775 225,1236 -66,2489 -616,3218 -468,620 -1508,1316 -2550,1452zm-3112 -7628c-34,193 -47,187 -177,297l-630 659c-138,183 -216,276 -363,497 -342,513 -632,1284 -777,1887 -144,594 -193,906 -50,1528 259,1124 787,1979 1761,2580 190,117 396,179 601,304 988,602 1846,554 2876,515 1015,-39 2715,-1010 3252,-2030 214,-407 376,-775 472,-1287 84,-456 207,-1086 124,-1598 -164,-1002 -205,-1227 -499,-2127 -82,-252 -252,-396 -275,-673 361,-136 315,-267 1056,-378 782,-117 2527,35 3113,385 793,474 578,-228 370,-413l-433 -253c-763,-324 -2370,-471 -3230,-347 -271,39 -404,99 -660,110 89,-300 372,-581 618,-767 273,-206 567,-329 978,-408 554,-107 1293,-147 1903,-48 161,26 349,110 543,93 212,-501 -590,-703 -1051,-737 -999,-73 -2316,119 -3016,845 -549,569 -508,742 -792,1179 -143,-55 -14,22 -135,-73 -35,-27 -70,-67 -110,-101 -576,-495 -1111,-720 -2013,-745 -1470,-42 -2285,526 -2596,580 -427,-809 -786,-1433 -2007,-1421 -735,7 -2413,336 -2570,840 844,12 2440,-909 3350,-217 221,169 509,573 505,857 -575,-31 -869,-84 -1357,14 -445,90 -1029,316 -1435,472l-632 333c-453,311 -655,533 -667,1394 231,-76 106,-43 355,-367 113,-146 204,-296 307,-421 309,-374 1491,-776 1959,-879 431,-94 839,-201 1332,-79z"/>
    <path class="fil3" d="M60378 17390c-586,236 -667,2014 -2259,1616 -642,-160 -920,-310 -1178,-854 -470,-994 149,-1449 -682,-1389 -340,501 -15,1392 265,1856 343,568 755,771 1517,972 794,210 1351,-52 1804,-452 265,-234 929,-1209 533,-1749z"/>
    <path class="fil3" d="M58629 17059c397,-110 504,-712 574,-1179 61,-411 340,-1281 28,-1433 -567,-276 -520,703 -581,1076 -71,434 -217,1178 -21,1536z"/>
    <path class="fil3" d="M58002 14647c-75,-170 -337,-220 -480,-114 -142,107 -100,375 -100,600 1,318 -184,1005 -78,1249 72,165 435,389 576,-452 55,-331 201,-1050 82,-1283z"/>
   </g>
  </g>
  <g id="_562581544">
   <path class="fil0 str0" d="M78398 23643c47,115 73,1152 68,1345 -11,496 -388,704 -565,194 -108,-309 -78,-953 -150,-1281 -123,-559 529,-548 647,-258zm293 -1966c-892,-665 -3226,972 -3847,1909 -453,685 -1025,2008 -814,3130 107,567 349,977 628,1359 338,464 615,546 1128,855 1707,1027 4431,1167 5610,-989 508,-929 444,-1648 243,-2668 -39,-202 12,-70 -78,-191 -163,-220 20,52 -54,-272 -59,-261 -554,-1018 -719,-1270 -246,-377 -627,-745 -958,-1023 -348,-293 -776,-568 -1139,-840zm-2266 2660c4,187 2,378 -8,564 -36,694 -484,461 -556,338 -138,-235 50,-765 -100,-1064 -209,-419 641,-826 664,162zm-435 2065c745,372 1803,390 2707,386 344,-1 1180,-204 1285,92 313,881 -3213,474 -3784,294 -359,-113 -880,-232 -1022,-525 -102,-211 92,-413 264,-438 167,-24 437,135 550,191z"/>
   <path class="fil8 str6" d="M76152 35353c-5,534 161,971 119,1631 -43,658 -17,1051 12,1728 364,33 655,128 1079,127 429,-1 742,-62 1160,-94 359,-28 2253,36 2366,-41 53,-79 229,-1358 262,-1549 107,-614 181,-936 194,-1631 18,-889 110,-2832 -281,-3350 -438,-33 -828,36 -1293,23 -1205,-35 -2793,-302 -3738,-243 -70,1008 131,2120 120,3399z"/>
   <path class="fil9 str7" d="M74138 42991c-601,-24 -1394,153 -1212,746 213,691 1663,845 2172,449 145,-113 454,-371 449,-579 -7,-283 -1013,-601 -1409,-616z"/>
   <path class="fil9 str7" d="M81921 42787c-938,-24 -1787,946 -1655,1186 99,180 1270,310 1616,296 636,-25 867,-533 626,-1107 -116,-275 -216,-365 -587,-375z"/>
   <g>
    <path class="fil10" d="M79032 37489c-26,-47 139,-235 320,-230 72,2 91,19 114,73 46,111 2,209 -122,214 -66,3 -293,-23 -312,-57zm-771 -1019c-6,-131 -11,-207 -3,-334 9,-128 -24,-213 -23,-316 2,-247 -37,-463 -23,-658 183,-11 490,40 724,47 90,3 165,-11 250,-4 76,100 58,476 54,648 -2,135 -17,197 -37,316 -7,37 -41,284 -51,300 -22,15 -388,2 -458,8 -81,6 -141,18 -224,18 -82,0 -139,-18 -209,-25zm-650 973c-35,-115 118,-149 235,-145 76,3 271,65 272,120 1,40 -59,90 -87,112 -98,77 -379,47 -420,-87zm-87 -2514c-13,25 39,233 45,274 -105,0 -196,-98 -318,-53 -25,109 25,91 99,106 42,9 127,26 153,48 -16,23 -85,79 -109,95 -44,29 -78,52 -119,84 -116,90 6,142 146,21 37,-31 79,-60 118,-90 50,-38 67,-61 139,-63 59,-1 121,28 168,42l161 40c85,21 78,33 89,120 9,69 17,102 16,184 -1,57 -6,151 3,206 33,200 -14,226 -1,376 6,70 17,110 -11,175 -64,149 177,123 258,126 -1,91 -63,250 -87,345 -15,61 -36,96 -49,167 -11,66 -19,123 -44,171 -57,-4 -188,-97 -328,-105 -151,-9 -237,34 -313,107 -144,139 22,323 168,368 110,34 245,54 346,-4 84,-48 63,-49 121,-96 50,-40 118,-3 138,-77 10,-36 -4,-125 8,-185 10,-53 28,-118 38,-177 23,-145 129,-366 127,-505l242 -26c6,7 5,2 15,18 46,73 66,235 71,315 6,122 39,233 56,350 21,152 -88,271 66,289 113,13 221,66 333,73 113,8 243,-9 308,-96 63,-83 45,-239 -12,-314 -69,-93 -126,-127 -289,-102 -156,23 -161,77 -273,134 -22,-29 -31,-126 -37,-166l-34 -259c-2,-24 -11,-52 -15,-76 -10,-56 -24,-107 -26,-169 99,1 285,31 363,-12 58,-32 34,-86 43,-157l54 -337c40,-229 10,-336 17,-542 89,-15 175,-76 252,-115l232 -137c50,-3 176,144 221,182 34,30 134,129 169,46 4,-60 -18,-69 -50,-98l-148 -144c-27,-25 -50,-39 -67,-74 101,-89 270,-98 221,-189 -37,-68 -141,-2 -187,28 -9,7 -18,12 -32,21 -22,15 -42,31 -66,37 -7,-71 1,-189 9,-259l-43 -32c-79,-42 -78,43 -77,94 0,38 -29,210 -31,294l-97 70c-50,38 -116,60 -171,94 -39,23 -94,67 -140,65l-9 -98c-2,-41 -9,-51 -11,-93 -4,-75 -10,-108 -56,-141 -53,-38 -440,-7 -571,-27 -58,-9 -117,-14 -178,-23l-368 -32c-18,13 -34,27 -52,39 -92,59 -24,113 -31,277l-337 -80c-51,-25 -67,-158 -81,-212 -55,-216 -136,-134 -145,-116z"/>
    <path class="fil10" d="M77825 34148c-41,-217 70,-473 157,-606 120,-181 572,-498 745,-369 70,52 153,106 220,162 64,54 138,126 186,198 32,49 127,196 139,246 14,63 -21,10 10,53 18,23 8,-2 16,37 38,197 51,337 -48,516 -228,418 -755,391 -1086,192 -99,-60 -152,-76 -218,-166 -54,-74 -101,-153 -121,-263zm776 -1240c-25,-69 -68,-228 -119,-289 -21,-26 -75,-64 -99,-24 -44,71 104,229 107,447 -210,74 -372,186 -528,339 -44,43 -59,62 -96,119 -15,23 -24,44 -39,70 -95,161 -100,224 -121,410 -19,164 -23,217 43,354 85,175 152,228 314,326 43,26 95,64 134,82 79,36 233,79 327,97 143,26 253,-4 387,-23 85,-12 212,-87 277,-143 93,-78 237,-253 255,-393 9,-71 23,-98 23,-184 1,-290 -73,-426 -218,-637 -38,-55 -50,-77 -97,-119 -40,-37 -68,-68 -113,-103 -69,-54 -47,-18 -122,-95 -36,-37 -85,-55 -121,-87 21,-39 91,-101 132,-134 74,-58 132,-80 135,-133 -96,-39 -185,51 -245,77 12,-34 74,-104 98,-138 15,-21 30,-48 43,-73 43,-78 12,-96 -14,-119 -76,14 -118,129 -170,184 -65,68 -123,176 -173,189z"/>
    <path class="fil10" d="M78046 34135c28,57 129,80 198,102 111,35 793,114 733,-57 -21,-57 -182,-18 -249,-18 -175,1 -380,-2 -524,-75 -22,-10 -74,-41 -107,-37 -33,5 -70,44 -51,85z"/>
    <path class="fil10" d="M78545 33603c14,64 8,189 29,248 34,99 107,59 109,-37 1,-38 -4,-238 -13,-261 -23,-56 -149,-58 -125,50z"/>
    <path class="fil10" d="M78160 33656c29,58 -8,161 19,206 14,24 101,69 108,-65 2,-36 2,-73 1,-109 -4,-192 -169,-113 -128,-32z"/>
   </g>
   <g>
    <path class="fil3" d="M80266 43973c-132,-240 717,-1210 1655,-1186 371,10 471,100 587,375 241,574 10,1082 -626,1107 -346,14 -1517,-116 -1616,-296zm-3983 -5261c-29,-677 -55,-1070 -12,-1728 42,-660 -124,-1097 -119,-1631 11,-1279 -190,-2391 -120,-3399 945,-59 2533,208 3738,243 465,13 855,-56 1293,-23 391,518 299,2461 281,3350 -13,695 -87,1017 -194,1631 -33,191 -209,1470 -262,1549 -113,77 -2007,13 -2366,41 -418,32 -731,93 -1160,94 -424,1 -715,-94 -1079,-127zm-3357 5025c-182,-593 611,-770 1212,-746 396,15 1402,333 1409,616 5,208 -304,466 -449,579 -509,396 -1959,242 -2172,-449zm-448 -12988c-66,128 199,1205 234,1415 -546,0 -1015,-507 -1647,-272 -129,562 129,467 513,549 216,45 659,130 792,244 -82,119 -439,409 -564,491 -230,152 -401,270 -615,435 -601,464 31,736 755,110 190,-164 406,-309 610,-466 256,-197 347,-316 718,-324 306,-7 623,143 867,214l831 207c442,109 402,171 459,622 45,357 91,526 84,948 -5,297 -30,784 16,1064 172,1034 -71,1168 -4,1943 31,361 84,571 -59,906 -329,769 914,636 1334,651 -6,471 -326,1293 -449,1783 -78,314 -188,494 -252,861 -60,343 -101,634 -231,885 -295,-23 -972,-500 -1692,-543 -779,-47 -1227,177 -1617,553 -745,715 113,1666 866,1900 569,177 1269,278 1791,-20 433,-248 321,-251 624,-494 259,-208 608,-17 710,-398 50,-187 -19,-646 41,-956 53,-277 149,-613 197,-915 122,-751 669,-1890 659,-2613l1247 -133c34,37 26,10 78,94 236,377 344,1216 366,1626 34,633 205,1207 288,1808 109,788 -453,1402 343,1495 586,69 1143,342 1720,380 586,38 1256,-51 1593,-498 324,-430 230,-1233 -60,-1622 -360,-480 -652,-656 -1494,-529 -806,121 -833,398 -1414,694 -111,-152 -156,-652 -189,-856l-175 -1339c-13,-125 -58,-269 -79,-394 -50,-290 -125,-555 -133,-873 508,5 1470,160 1876,-63 299,-164 172,-444 219,-811l282 -1739c203,-1182 50,-1739 86,-2801 459,-78 902,-395 1302,-592l1199 -711c260,-16 909,743 1140,943 176,151 692,665 874,238 19,-314 -90,-357 -259,-508l-763 -742c-138,-134 -260,-205 -346,-385 524,-461 1394,-507 1142,-975 -191,-354 -730,-11 -964,146 -49,33 -94,59 -167,107 -114,75 -219,157 -340,191 -37,-366 2,-975 45,-1339l-220 -167c-410,-214 -403,225 -402,490 1,195 -151,1084 -160,1516l-498 361c-261,198 -600,313 -888,486 -199,120 -483,346 -722,337l-42 -507c-11,-211 -47,-261 -60,-481 -21,-388 -49,-559 -287,-728 -274,-194 -2277,-36 -2951,-141 -300,-47 -606,-70 -918,-117l-1904 -163c-90,65 -176,137 -270,198 -473,308 -122,587 -158,1434l-1740 -415c-264,-127 -346,-818 -418,-1096 -285,-1113 -702,-691 -750,-599z"/>
    <path class="fil3" d="M74030 26716c-211,-1122 361,-2445 814,-3130 621,-937 2955,-2574 3847,-1909 363,272 791,547 1139,840 331,278 712,646 958,1023 165,252 660,1009 719,1270 74,324 -109,52 54,272 90,121 39,-11 78,191 201,1020 265,1739 -243,2668 -1179,2156 -3903,2016 -5610,989 -513,-309 -790,-391 -1128,-855 -279,-382 -521,-792 -628,-1359zm4013 -6409c-129,-356 -353,-1176 -618,-1493 -109,-131 -384,-329 -509,-124 -228,370 538,1184 551,2314 -1085,378 -1923,956 -2726,1746 -226,223 -306,325 -498,619 -78,118 -122,228 -200,360 -490,830 -517,1157 -627,2116 -98,848 -118,1124 225,1832 438,903 783,1176 1621,1683 222,134 490,330 694,424 407,187 1201,408 1688,499 738,138 1307,-18 1996,-115 441,-63 1095,-452 1435,-740 480,-406 1225,-1306 1316,-2033 46,-365 119,-503 120,-948 3,-1497 -379,-2204 -1127,-3290 -197,-286 -261,-399 -500,-618 -208,-190 -352,-347 -587,-532 -354,-278 -239,-89 -630,-488 -185,-190 -435,-283 -621,-449 108,-204 467,-525 679,-692 385,-304 682,-416 696,-690 -495,-202 -955,263 -1262,399 59,-176 380,-539 504,-715 77,-108 154,-248 225,-378 219,-403 60,-492 -73,-615 -396,74 -611,672 -880,951 -338,352 -634,914 -892,977z"/>
    <path class="fil3" d="M75176 26649c142,293 663,412 1022,525 571,180 4097,587 3784,-294 -105,-296 -941,-93 -1285,-92 -904,4 -1962,-14 -2707,-386 -113,-56 -383,-215 -550,-191 -172,25 -366,227 -264,438z"/>
    <path class="fil3" d="M77751 23901c72,328 42,972 150,1281 177,510 554,302 565,-194 5,-193 -21,-1230 -68,-1345 -118,-290 -770,-301 -647,258z"/>
    <path class="fil3" d="M75761 24175c150,299 -38,829 100,1064 72,123 520,356 556,-338 10,-186 12,-377 8,-564 -23,-988 -873,-581 -664,-162z"/>
   </g>
  </g>
 </g>
</svg>
