<?xml version='1.0' encoding='utf-8'?>
<svg xmlns="http://www.w3.org/2000/svg" id="Camada_1" viewBox="0 0 800 800"><defs><style>.cls-1{fill:#fff;}.cls-2{fill:#ffaab5;}.cls-3{fill:#e5e6e6;}.cls-4{fill:#cbcccd;}.cls-5{stroke:#511812;stroke-linecap:round;stroke-linejoin:round;stroke-width:1.67px;}.cls-5,.cls-6{fill:none;}.cls-7{clip-path:url(#clippath);}.cls-8{fill:#f5df4d;}.cls-9{fill:#f0624c;}.cls-10{fill:#fff5d1;}.cls-11{fill:#e35d48;}.cls-12{fill:#f5c34d;}.cls-13{fill:#511812;}.cls-14{fill:#d35252;}.cls-15{fill:#fff8e0;}</style><clipPath id="clippath"><path class="cls-6" d="M234.82,445.41l29.36,37.86,37.7,44.98c23.88-4.56,47.48,2.01,71.26,7.07l47.71-13.12c32.63,10.85,66.21,24.63,100.6,24.4,34.38-.22,70.6-13.65,89.5-42.38,24.89-37.84,13.44-89.14,29.48-131.51,7.21-19.05,20.05-36.54,21.39-56.87,1.42-21.57-10.47-41.66-23.35-59.02-10.78-14.52-22.77-28.47-37.77-38.56-21.59-14.52-69.01-63.86-94.49-69.09-50.86-10.45-80.53,22.91-131.39,12.47-12.49-2.56-25.42-5.13-37.86-2.34-15.1,3.39-27.39,14.21-37.84,25.62-15.38,16.79-28.4,35.75-38.56,56.13-9.89,19.85-20.06,43.71-41.63,48.9-9.41,2.26-19.26,.3-28.94,.22-21.83-.18-43.53,9.89-57.49,26.68-7.82,9.4-13.36,21.34-12.53,33.54,1.17,17.07,14.44,31.1,29.3,39.57,14.86,8.47,31.68,12.85,47.15,20.16,15.47,7.3,33.38,18.94,38.42,35.28Z"/></clipPath></defs><path class="cls-3" d="M204.13,409.84c-11.9,40.53-23.8,81.07-35.71,121.6-2.27,7.73-4.56,15.7-3.81,23.73,.75,8.02,9.06,19.65,16.58,22.54,81.51,31.37,149.72,48.8,234.59,69.36,17.31,4.19,35.42,8.16,52.76,4.1,17.35-4.07,30.41-21.64,35.43-38.73,11.65-39.68,20.17-80.27,25.43-121.29-.79-1.29-49.09-88.61-72.65-129.79-10.49-18.34-30.08-43-50.27-49.24-17.96-5.55-37.15,1.31-54.69,8.1-54.18,20.95-146.92,87.79-147.66,89.62Z"/><path class="cls-14" d="M638.64,408.52c5.92,5.95,10.59,13.75,12.86,21.97,2.7-3.78,5.82-7.38,9.53-10.8,7.01-6.47,16.42-2.56,18.09,6.4,4.56,24.54-15.93,43.11-33.96,55.99-4.52,3.23-12.38,1.83-15.08-3.21-10.81-20.09-14.32-42.15-9.52-64.54,1.68-7.8,12.13-11.82,18.08-5.81Z"/><path class="cls-14" d="M573.62,164.56c5.92,5.95,10.6,13.75,12.86,21.97,2.7-3.78,5.82-7.38,9.53-10.8,7.01-6.47,16.42-2.56,18.09,6.4,4.56,24.54-15.93,43.11-33.96,55.99-4.52,3.23-12.38,1.83-15.08-3.21-10.81-20.09-14.32-42.15-9.52-64.54,1.68-7.8,12.13-11.82,18.08-5.81Z"/><path class="cls-14" d="M273.09,258.99c-7.83,3.02-15.28,8.24-20.7,14.82-.92-4.55-2.3-9.11-4.3-13.74-3.77-8.77-13.95-9.03-19.13-1.53-14.17,20.55-3.02,45.86,8.19,64.97,2.81,4.79,10.56,6.72,15.08,3.21,18.06-13.94,30.26-32.65,35-55.05,1.65-7.8-6.26-15.73-14.14-12.68Z"/><path class="cls-14" d="M345.05,196.59c-4.26,1.65-8.32,4.49-11.27,8.07-.5-2.48-1.25-4.96-2.34-7.48-2.05-4.77-7.6-4.92-10.42-.83-7.72,11.19-1.65,24.98,4.46,35.38,1.53,2.61,5.75,3.66,8.21,1.75,9.84-7.59,16.48-17.78,19.06-29.98,.9-4.25-3.41-8.57-7.7-6.9Z"/><path class="cls-4" d="M204.13,409.84c.08-.19,1.21-1.12,3.14-2.61,30.28,41.41,61.09,82.43,95.1,120.88,16.88-2.67,33.97-3.28,50.81,.27,7.11,1.5,13.52,4.03,19.42,7.29,53.01-12.65,102.89-33.05,155.01-47.73,1.07,1.91,1.71,3.06,1.79,3.2-.08,.6-.17,1.2-.25,1.8-50.6,14.24-99.1,33.84-150.39,46.54,15.23,10.32,27.16,25.46,39.64,39.82,19.56,22.49,37.83,46,55.12,70.25-1.62,.65-3.27,1.21-4.98,1.62-16.31-22.41-33.2-44.24-51.22-65.17-21.52-24.98-40.58-50.1-75.61-53.93-32.17-3.52-63.69,6.04-94.16,15.26-25.21,7.63-50.39,15.34-75.59,23.02-1.19-1.43-2.3-2.94-3.27-4.53,30.49-9.38,60.95-18.93,91.59-27.79,11.77-3.4,23.85-6.62,36.08-8.89-33.01-37.62-63.1-77.56-92.65-117.92,.14-.46,.28-.93,.41-1.39Z"/><g class="cls-7"><g><path class="cls-9" d="M387.76,471.77c7.52,15.35,19.84,31.35,40.12,44.45,5.92,3.88,12.53,7.45,19.96,10.69,1.95,.87,3.95,1.71,6.05,2.52,7.41,2.85,15.82,.59,20.52-5.73,6.39-8.5,3.8-20.82-5.58-25.74-.42-.23-.85-.47-1.27-.7-4.66-2.57-9.79-6.16-14.93-11.07-8.03-7.4-16.38-17.83-23.99-32.6-13.66,5.99-27.24,12.17-40.88,18.18Z"/><path class="cls-12" d="M387.76,471.75c7.54,15.37,19.85,31.35,40.12,44.47l24.74-30.03c-8.01-7.39-16.38-17.82-23.98-32.59-13.65,5.98-27.23,12.18-40.87,18.16Z"/><path class="cls-9" d="M311.07,408.95c-5.08,6.12-5.39,14.8-.82,21.32,1.81,2.62,3.63,5.1,5.49,7.45,2.49,3.22,5.02,6.21,7.61,9,18.99,20.64,39.69,30.43,58.24,34.66,2.63-14.68,5.54-29.34,8.21-43.99-16.17-4.04-28.33-9.77-37.42-15.92-5.97-3.98-10.61-8.16-14.2-12.12-.28-.29-.56-.58-.8-.87-7-7.98-19.54-7.68-26.32,.46Z"/><path class="cls-12" d="M325.2,444.06c-.67,.85-1.29,1.73-1.86,2.66,19.01,20.64,39.7,30.44,58.25,34.66,2.63-14.7,5.54-29.34,8.22-43.99-16.17-4.04-28.34-9.78-37.42-15.91-3.17,1.95-6.16,4.2-9.07,6.44-6.5,4.83-13.02,9.8-18.12,16.14Z"/><path class="cls-11" d="M357.6,487.19l-.28,11.12c-6.86,9.28-24.71,16.55-35.91,19.93-23.84,7.23-50.91-4.98-66.52-23.2-12.02-14-13.9-30.61-16.99-47.5-.69-3.94-1.45-7.9-2.46-11.85-1.03-4.1-2.43-8.18-4.14-12.23-6.44-15.52-17.1-30.27-28.22-41.91-15.32-16.01-32.81-27.15-52.44-36.96,14.9-.97,28.71-4.15,43.79-3.07,16.56,1.18,31.45,5.92,46.17,13.35,8.92,4.53,16.75,9.46,23.7,15.24,8.33,6.89,15.49,15.02,22.04,25.04,3.43,5.21,6.33,10.77,9.01,16.44,4.74,10.13,8.68,20.81,12.82,30.91,9.23,22.2,21.82,44.62,49.43,44.68Z"/><path class="cls-10" d="M295.36,411.61c-4.19,15.27-16.92,28.28-32.15,33.41-6.84,2.33-14.15,3.23-21.42,2.88-1.31-.07-2.58-.16-3.9-.34-.69-3.94-1.45-7.9-2.46-11.85-1.03-4.1-2.43-8.18-4.14-12.23-6.44-15.52-17.1-30.27-28.22-41.91-15.32-16.01-32.81-27.15-52.44-36.96,14.9-.97,28.71-4.15,43.79-3.07,16.56,1.18,31.45,5.92,46.17,13.35,8.92,4.53,16.75,9.46,23.7,15.24,8.33,6.89,15.49,15.02,22.04,25.04,3.43,5.21,6.33,10.77,9.01,16.44Z"/><path class="cls-9" d="M328.18,464.98c-.62,.89-1.19,1.81-1.75,2.83-1.92,2.94-3.64,6.04-5.3,9.26-9.48,18.84-4.26,41.86,12.34,54.99l8.22,6.51c23.08,18.26,56.78,13.07,73.35-11.26,.16-.2,.27-.44,.46-.69,2.59-3.79,5.13-8.02,7.6-12.47,9.03-16.44,16.77-37.48,20.49-63.79l-51.63-37.61s-39.71,16.08-63.78,52.23Z"/><path class="cls-9" d="M356.38,529.98l7.32,44.05s-.01,.06,0,.1c-.79,8.56,5.71,16.01,14.29,16.41,4.97,.25,9.58-1.98,12.51-5.68,1.37-1.73,2.36-3.75,2.87-6.01l-.03-10.09-.11-42.36-36.84,3.6Z"/><path class="cls-9" d="M293.71,523.31c-5.68,6.49-4.77,16.4,1.99,21.75,2.87,2.27,6.31,3.34,9.74,3.24,3.44-.08,6.84-1.38,9.58-3.78l2.9-1.79,32.58-20.29-21.61-34.2-30.65,30.53-4.53,4.53Z"/><path class="cls-10" d="M350.78,468.97c-2.54,3.21-4.87,6.48-6.98,9.75-9.08,14.11-6.03,32.79,7.12,43.2h0c13.16,10.41,32.04,9.08,43.68-3,2.71-2.81,5.35-5.83,7.89-9.04,21.94-27.73,28.18-59.4,13.9-70.7-14.28-11.3-43.67,2.05-65.61,29.78Z"/><path class="cls-8" d="M328.18,464.98c-.62,.89-1.19,1.81-1.75,2.83,9.72,11.58,21.68,21.37,33.95,30.35,10.53,7.69,21.47,14.96,33.31,20.6,7,3.35,14.33,6.07,21.82,7.87,2.59-3.79,5.13-8.02,7.6-12.47,9.03-16.44,16.77-37.48,20.49-63.79l-51.63-37.61s-39.71,16.08-63.78,52.23Z"/><g><path class="cls-9" d="M540.31,424.62l.02-.61c1.35-11.53,3.03-91.89,3.03-91.89,1.49-2.16,46.21-54.3,105.8-35.8,0,0-9.11,128-108.85,128.3Z"/><path class="cls-2" d="M540.63,420.4l2.16-63.87c40.55-17.09,70.48-51.75,102.33-57.47,0,0-8.78,113.66-104.5,121.33Z"/></g><path class="cls-12" d="M379.42,432.99c-4.26,6.77,2.86,18.92,15.92,27.14,13.05,8.22,27.09,9.39,31.35,2.62,4.26-6.77-2.86-18.92-15.92-27.14-13.05-8.22-27.09-9.39-31.35-2.62Z"/><g><path class="cls-9" d="M388.74,294.22l.58-.19c10.72-4.44,87.58-27.98,87.58-27.98,1.67-2.02,39.63-59.27,5.57-111.55,0,0-120.66,43.69-93.73,139.72Z"/><path class="cls-2" d="M392.71,292.77l60.85-19.51c5.37-43.68,30.56-81.93,27.37-114.13,0,0-106.95,39.46-88.22,133.64Z"/></g><path class="cls-15" d="M316.49,321.2c7.76,44.5,36.73,90.08,36.73,90.08,.22,.26,.41,.58,.58,.81,19.83,31.04,50.72,53.26,86.57,61.35l25.35,5.77c61.87,10.26,95.4,2.46,108.01-1.95,4.07-1.44,6-2.51,6-2.51-16.23-6.56-20.93-17.67-21.97-25.77-31.83-12.15-57.17-27.05-75.95-40.35-26.67-18.91-40.17-34.6-40.17-34.6-76.92-14.98-110.66-35.62-125.15-52.83Z"/><path class="cls-9" d="M316.88,280.12s12.8,18.89,34.29,11.64c0,0,82.28-69.89,161.85-30.65,1.33,.65,2.68,1.29,4.05,1.89,7.23,3.12,36.74,18.32,47.62,61.77,0,0,10.97,36.66-6.63,114.24,0,0-.75,3.07-.51,7.52,1.48,8.37,6.94,22.08,22.18,28.24,0,0-1.93,1.07-6,2.51-15.36-3.73-29.95-10.49-43.13-19.2-47.59-31.45-86.05-79.5-86.05-79.5-76.92-14.96-113.57-40.18-128.04-57.36-1.65-9.46-2.32-18.85-1.55-27.75,0,0,7.53,10.53,13.89,9.21,0,0-12.18-14.34-11.97-22.56Z"/><path class="cls-13" d="M458,385.63c-2.5,3.92-12.13,8.29-18.46,4.26-6.34-4.04-6.98-14.95-4.49-18.87,2.5-3.92,9.66-3.83,15.99,.21,6.34,4.04,9.45,10.48,6.96,14.4Z"/><path class="cls-1" d="M483.67,399.03c-12.83-8.82-15.87-26.7-6.78-39.92,9.09-13.22,26.87-16.78,39.7-7.96,12.83,8.83,15.87,26.7,6.78,39.92-9.09,13.22-26.86,16.79-39.7,7.96Z"/><path class="cls-13" d="M481.31,392.54c-9.68-6.66-11.97-20.14-5.11-30.11,6.86-9.97,20.26-12.66,29.94-6,9.68,6.66,11.97,20.14,5.11,30.11-6.86,9.97-20.26,12.66-29.94,6Z"/><path class="cls-1" d="M412.99,356.38c-12.84-8.83-15.87-26.7-6.78-39.92,9.09-13.22,26.87-16.78,39.7-7.96,12.84,8.83,15.87,26.7,6.78,39.92-9.09,13.22-26.86,16.79-39.7,7.96Z"/><path class="cls-13" d="M419.9,354.55c-9.68-6.66-11.97-20.14-5.11-30.11,6.86-9.97,20.26-12.66,29.94-6,9.68,6.66,11.97,20.14,5.11,30.11-6.86,9.97-20.26,12.66-29.94,6Z"/><path class="cls-9" d="M558.83,425.5c5.01,11.91,13.31,22.77,23.87,30.21-10.63,.09-21.25-3.71-29.41-10.52-.58-6.51,1.87-14.28,5.53-19.69Z"/><path class="cls-9" d="M531.87,275.98c5.63,4.13,12.91,5.94,19.82,4.93,1.82-.27,3.66-.74,5.16-1.81,1.5-1.07,2.6-2.84,2.47-4.67-.12-1.68-1.25-3.18-2.67-4.08-1.42-.91-3.11-1.3-4.79-1.51-4.91-.64-10,.12-14.51,2.15,3.61-3.29,5.75-8.05,7.06-12.76,.46-1.66,.76-3.42,.39-5.1-.37-1.68-1.52-3.28-3.17-3.77-2.29-.68-4.63,.89-6.23,2.65-2.76,3.05-4.52,6.99-4.95,11.08-.59-2.03-1.38-3.98-2.79-5.56-1.41-1.58-3.83-2.48-5.7-1.49-1.12,.59-1.87,1.76-2.16,3-.3,1.24-.19,2.53,.04,3.78,1.15,6.1,7.03,9.49,12.04,13.15Z"/><path class="cls-5" d="M456.48,403.83c-4.23,2.15-9.74,1.44-13.3-1.7-3.56-3.15-4.93-8.53-3.31-12.99"/><path class="cls-5" d="M418.37,383.69c.61,4.71,4.3,8.86,8.9,10.03,4.6,1.17,9.82-.74,12.6-4.59"/><path class="cls-13" d="M426.01,393.82s-1.82,3.71-2.94,8.01c-1.19,4.84-1.57,10.46,2.42,12.57,4.36,2.23,8.61-1.06,11.82-4.82,3.16-3.8,5.27-8.07,5.27-8.07-3.54-1.87-4.43-6.58-3.83-10.58-3.42,2.94-8.4,4.19-12.75,2.9Z"/><path class="cls-2" d="M424.17,402.83c-.98,3.98-1.29,8.6,1.99,10.33,3.58,1.83,7.08-.87,9.72-3.97,.37-1.93,0-4.02-1.3-5.59-1.8-2.19-4.98-3.11-7.74-2.26-.99,.3-1.87,.85-2.68,1.48Z"/><path class="cls-13" d="M537.57,359.99c-1.5-7.77-7.17-14.38-14.11-17.05-1.12-.43-1.68-1.69-1.25-2.81,.46-1.21,1.92-1.75,3.05-1.14,7.97,4.16,13.24,12.29,13.96,20.77,.08,1.03-1.46,1.25-1.66,.22h0Z"/><path class="cls-13" d="M436.79,291.1c8.32-1.79,17.63,.89,23.93,7.31,.85,.85,.85,2.24-.01,3.09-.86,.84-2.23,.83-3.07-.03-4.6-5.96-12.61-9.56-20.58-8.72-1.03,.12-1.29-1.43-.27-1.65h0Z"/><path class="cls-10" d="M363.7,574.12c-.79,8.56,5.71,16.01,14.29,16.41,4.97,.25,9.58-1.98,12.51-5.68,1.37-1.73,2.36-3.75,2.87-6.01l-.03-10.09-29.64,5.38Z"/><path class="cls-10" d="M293.71,523.31c-5.68,6.49-4.77,16.4,1.99,21.75,2.87,2.27,6.31,3.34,9.74,3.24,3.44-.08,6.84-1.38,9.58-3.78l2.9-1.79-19.68-23.95-4.53,4.53Z"/><path class="cls-10" d="M467.55,497.26l-19.71,29.65c1.95,.87,3.95,1.71,6.05,2.52,7.41,2.85,15.82,.59,20.52-5.73,6.39-8.5,3.8-20.82-5.58-25.74-.42-.23-.85-.47-1.27-.7Z"/><path class="cls-10" d="M311.07,408.95c-5.08,6.12-5.39,14.8-.82,21.32,1.81,2.62,3.63,5.1,5.49,7.45l22.45-28.37c-.28-.29-.56-.58-.8-.87-7-7.98-19.54-7.68-26.32,.46Z"/><path class="cls-10" d="M470.94,501.19c1.28-1.7,3.68-2.46,5.7-1.81,2.03,.65,3.54,2.66,3.6,4.78,.06,2.13-1.33,4.22-3.32,4.98-2.68-1.63-4.58-5.13-5.98-7.95Z"/><path class="cls-10" d="M325.6,403.51c.74-1.22,1.5-2.47,2.59-3.38,1.09-.91,2.61-1.45,3.97-1.04,1.62,.5,2.61,2.23,2.7,3.92,.09,1.69-.55,3.33-1.31,4.84-2.19-1.17-5.76-3.18-7.95-4.34Z"/></g></g></svg>