<?xml version='1.0' encoding='utf-8'?>
<svg xmlns="http://www.w3.org/2000/svg" enable-background="new 0 0 1208 1208" version="1.1" viewBox="0 0 1208 1208"> <path d="m689.5 874.94c-1.1-0.442-3.753-0.836-5.895-0.875-4.047-0.073-16.053-5.275-20.809-9.016-3.511-2.761-9.588-11.968-14.126-21.401l-3.67-7.629v-24.39c0-19.418 0.306-25.122 1.5-27.98 0.825-1.974 1.5-4.933 1.5-6.575s0.393-4.019 0.874-5.282 1.674-4.772 2.652-7.797c2.547-7.876 6.108-14.661 11.113-21.174 2.399-3.121 4.361-5.933 4.361-6.25s-1.913-0.576-4.25-0.576c-4.107 1e-3 -4.688 0.435-17.25 12.877-22.951 22.731-39.329 40.587-40.079 43.695-2.093 8.669-8.773 18.438-20.606 30.137-9.434 9.328-12.67 11.318-22.614 13.91-9.369 2.442-18.565 1.345-34.966-4.171-8.528-2.868-23.28-11.546-30.094-17.702-2.281-2.06-4.5-3.746-4.932-3.746s-5.175-4.401-10.54-9.78c-11.015-11.044-20.07-23.719-25.845-36.174l-3.92-8.454 0.422-14.546c0.615-21.18 1.945-26.592 9.339-37.984 6.901-10.631 15.842-18.724 26.835-24.286 11.201-5.668 18.061-7.804 27.25-8.484 6.64-0.492 7.445-1.065 4.273-3.045-3.025-1.89-6.004-8.617-7.106-16.044-0.546-3.687-1.411-8.953-1.92-11.703-0.51-2.75-1.468-8.044-2.129-11.764-1.066-5.992-1.424-6.694-3.139-6.15-8.971 2.847-46.046 3.974-54.229 1.649-2.2-0.626-6.072-1.583-8.606-2.129-2.533-0.545-6.583-1.866-9-2.935-2.416-1.069-6.041-2.643-8.055-3.498-4.102-1.743-16.618-9.706-22.345-14.216-4.857-3.825-24.109-23.076-27.994-27.993-6.368-8.058-10.61-15.825-15.167-27.769-1.32-3.462-3.078-5.699-6.285-8-5.319-3.818-19.207-17.651-23.896-23.803-4.6-6.034-11.875-17.425-14.759-23.109-5.062-9.976-1.779-24.349 6.901-30.218 2.087-1.411 4.173-2.565 4.635-2.565s1.163-2.583 1.558-5.74c1.41-11.286 8.388-19.617 18.606-22.212 5.704-1.449 6.179-1.796 7.426-5.423 1.701-4.951 6.691-10.144 12.698-13.214 6.253-3.196 16.026-3.348 21.922-0.34 5.047 2.575 16.259 13.829 18.864 18.935 1.583 3.103 3.266 4.422 9.032 7.08 8.436 3.888 15.548 11.083 18.28 18.492 0.998 2.707 2.423 9.422 3.168 14.922l1.353 10 9.332 9.563c9.324 9.555 19.401 17.701 20.517 16.585 0.325-0.325 0.025-2.611-0.666-5.08-1.991-7.113-0.936-15.983 2.884-24.235 1.824-3.943 3.051-7.599 2.725-8.126s-3.788-2.856-7.695-5.177c-10.561-6.275-19.536-14.554-27.933-25.77l-7.5-10.017-5.761-0.436c-4.734-0.359-6.339-0.984-9-3.511-1.782-1.692-4.364-3.407-5.739-3.812-6.308-1.859-16.255-11.168-22.751-21.291-6.626-10.326-15.987-34.164-19.71-50.193-2.201-9.479-2.045-28.144 0.289-34.53 1.006-2.751 1.644-5.555 1.418-6.231-0.934-2.802 2.966-11.198 6.816-14.676 2.169-1.96 4.392-3.563 4.941-3.563 0.615 0 1.006-5.46 1.021-14.25 0.013-7.837 0.514-16.05 1.113-18.25s1.454-7.15 1.901-11c1.048-9.046 2.307-14.913 4.399-20.5 0.927-2.475 2.067-6.3 2.534-8.5 2.624-12.357 19.544-45.738 31.327-61.802 3.607-4.917 33.915-35.705 37.702-38.299 1.925-1.319 5.975-4.218 9-6.442 11.134-8.189 17.541-12.142 32.211-19.875 8.353-4.4036 10.041-5.092 28.789-11.739 14.844-5.2634 16.307-5.6272 37-9.1997 3.025-0.5222 6.767-1.443 8.315-2.0462 1.797-0.7001 12.691-1.0967 30.124-1.0967 21.719 0 28.18 0.3071 31.561 1.5 2.338 0.825 5.778 1.5 7.644 1.5 4.697 0 15.683 2.9126 35.356 9.3731 12.467 4.0943 15.503 5.3637 28.976 12.115 12.635 6.3312 19.398 10.374 27.524 16.453 2.2 1.646 6.25 4.524 9 6.396 2.75 1.871 11.766 10.324 20.035 18.783 16.64 17.022 26.532 30.636 36.586 50.355 5.764 11.305 6.032 11.58 14.712 15.131 4.195 1.716 10.167 7.613 10.167 10.039 0 0.653 0.337 1.338 0.75 1.522 0.413 0.183 3.273 3.045 6.358 6.36 4.886 5.25 6.012 7.27 8.75 15.692 1.728 5.316 3.142 10.788 3.142 12.158 0 1.371 0.524 3.76 1.164 5.308 1.217 2.943 2.966 22.146 3.034 33.315 0.121 19.871-4.504 38.953-10.177 41.989-1.077 0.576-3.149 3.08-4.604 5.563-1.456 2.483-3.932 5.18-5.502 5.992-3.421 1.769-4.915 4.288-4.915 8.287 0 1.629-1.619 7.396-3.598 12.816-1.978 5.419-4.461 12.308-5.516 15.309-1.696 4.822-6.166 12.707-12.104 21.353-2.114 3.078-2.049 3.258 3.337 9.191 1.498 1.65 4.446 6.545 6.552 10.877l3.829 7.877 7 1.815c3.85 0.999 8.768 1.842 10.929 1.873 4.364 0.064 4.545 0.111 23.571 6.131 17.597 5.567 18.897 6.236 36 18.515 8.449 6.066 17.567 16.525 28.052 32.179 13.836 20.657 12.315 17.708 19.718 38.233 3.564 9.885 5.424 19.769 4.162 22.127-1.433 2.678-0.94 5.096 3.546 17.373 5.507 15.071 7.42 25.822 5.478 30.782-0.693 1.77-3.619 5.693-6.502 8.718-2.884 3.025-5.936 6.884-6.784 8.575-2.263 4.518-8.672 9.887-14.266 11.953-2.697 0.996-5.579 2.357-6.404 3.025-2.589 2.096-9.838 5.447-11.782 5.447-3.761 0-11.831-3.374-15.886-6.641-3.011-2.426-5.174-3.359-7.79-3.359-7.007 0-16.74-7.409-19.993-15.218-1.721-4.13-2.016-10.951-0.666-15.383 0.486-1.594 1.453-4.797 2.15-7.117l1.266-4.218-5.931-7.782c-3.262-4.28-7.104-9.582-8.537-11.782-2.441-3.745-18.196-20.332-22.205-23.376-2.48-1.884-7.404-2.876-11.736-2.364l-3.61 0.426 0.489 7.157c0.269 3.936 0.881 7.915 1.36 8.841 0.479 0.927 0.871 4.133 0.871 7.125s0.675 7.353 1.5 9.691c1.058 2.998 1.5 8.353 1.5 18.158 0 14.53-0.775 18.198-4.973 23.535-2.649 3.367-2.558 5.874 0.55 15.131 2.841 8.461 5.092 16.295 6.658 23.176 1.463 6.427 2.084 27.856 0.927 32-3.625 12.986-4.728 15.838-7.526 19.451-1.725 2.227-3.802 4.467-4.616 4.977-0.814 0.511-3.117 2.536-5.118 4.5l-3.638 3.572 0.879 7.5c1.473 12.581 3.055 33.131 3.078 40 0.027 7.944-1.753 27.042-3.029 32.5-2.085 8.919-7.016 20.655-9.261 22.042-0.603 0.373-2.664 3.128-4.579 6.123-6.56 10.253-25.14 20.215-40.844 21.897-5.61 0.601-6.294 0.97-10.755 5.79-8.971 9.695-17.466 18.148-20.359 20.261-4.994 3.647-15.63 7.595-22.477 8.343-3.62 0.396-6.995 0.961-7.5 1.256-0.504 0.296-1.817 0.176-2.917-0.267zm13.852-10.935c5.947-1.304 10.914-3.771 10.134-5.032-0.318-0.516-3.146-0.699-6.283-0.407-3.136 0.291-7.053 0.066-8.703-0.5-2.691-0.923-2.537-0.976 1.5-0.508 6.222 0.721 3.181-1.007-4.5-2.557-11.729-2.366-26.628-12.551-31.148-21.292-1.257-2.431-0.156-1.655 4.756 3.35 12.039 12.267 30.106 18.893 49.241 18.06 2.007-0.087 4.298-1.603 7.75-5.129 2.696-2.753 4.901-5.409 4.901-5.902s-3.324-0.91-7.387-0.926c-22.785-0.089-42.557-15.111-49.987-37.975-1.374-4.23-2.64-8.514-2.813-9.518-0.374-2.179-9.017-6.194-11.381-5.286-1.445 0.554-1.574 3.125-1.2 23.866 0.492 27.251 1.81 33.456 8.486 39.965 6.345 6.186 23.76 12.618 30.282 11.184 0.825-0.181 3.683-0.808 6.352-1.393zm-48.499-32.76c-2.299-20.674 0.561-51.491 6.222-67.038 2.143-5.885 2.427-7.682 0.763-4.815-2.566 4.419-5.929 14.519-7.982 23.97-3.613 16.641-2.929 54.633 0.984 54.633 0.42 0 0.426-3.038 0.013-6.75zm80.147 3.742c0-0.458-1.462-1.144-3.25-1.524-6.382-1.357-17.346-7.304-23.149-12.555-3.245-2.936-5.391-4.388-4.769-3.227 0.622 1.162 3.951 4.702 7.399 7.867 5.577 5.119 5.772 5.417 1.769 2.693-7.31-4.973-16.278-15.473-21.313-24.953-4.566-8.598-6.746-16.164-8.226-28.557-2.128-17.805-4.243-19.985-6.957-7.173-1.88 8.875-1.869 13.265 0.06 23.577 2.888 15.443 12.03 29.772 22.443 35.174 2.848 1.477 5.373 2.686 5.611 2.686s-2.002-2.87-4.978-6.378c-5.243-6.181-13.538-21.057-12.385-22.21 0.313-0.313 2.746 3.388 5.407 8.225 9.938 18.065 22.21 27.325 36.088 27.231 3.438-0.023 6.25-0.417 6.25-0.876zm30.398-8.033c6.222-1.922 12.795-5.949 17.602-10.785 2.122-2.134 2.197-2.396 0.5-1.73-7.985 3.134-13.957 4.966-20 6.135-3.85 0.744-8.125 1.614-9.5 1.933-1.987 0.461-3.52-0.339-7.468-3.894-4.175-3.759-6.012-4.667-11.5-5.68-7.792-1.439-17.433-5.602-24.152-10.428-2.686-1.931-5.124-3.51-5.416-3.51-2.339 0-13.018-13.937-16.449-21.467-2.545-5.587-3.591-5.402-2.084 0.37 0.588 2.253 1.558 6.01 2.156 8.347 1.287 5.028 7.01 15.685 11.327 21.092 5.426 6.795 19.582 15.907 31.586 20.334 5.839 2.153 7.548 2.336 16.813 1.808 5.685-0.324 13.127-1.457 16.585-2.525zm-206.05-0.481c4.99-1.474 10.628-4.866 9.639-5.799-0.267-0.251-4.535 0.8-9.485 2.337-4.95 1.538-10.575 3.242-12.5 3.788-3.455 0.979-3.431 0.993 1.846 1.094 2.94 0.056 7.665-0.583 10.5-1.42zm-7.346-5.947c5.775-1.348 12.523-3.081 14.995-3.85 4.302-1.339 4.529-1.603 5.294-6.163 0.439-2.62 0.599-4.963 0.355-5.207s-5.105 1.149-10.803 3.096c-10.06 3.437-23.873 6.666-34.591 8.085-2.888 0.383-5.25 1.125-5.25 1.651 0 1.888 8.486 4.813 14 4.826 3.025 7e-3 10.225-1.09 16-2.438zm197.23-14.919c-0.27-5.163-0.177-11.483 0.208-14.044 0.665-4.44 0.939-4.764 5.88-6.957 2.85-1.264 6.757-2.896 8.682-3.626 7.379-2.799 19.887-9.496 29.25-15.66 8.655-5.698 9.75-6.748 9.75-9.349 0-3.875-3.783-6.469-8.158-5.594-3.364 0.672-29.145 16.059-38.724 23.11-3.198 2.354-6.895 6.019-8.216 8.144-2.164 3.482-2.398 4.953-2.364 14.864 0.027 8.015 0.488 12.018 1.699 14.75 0.913 2.062 1.846 3.75 2.073 3.75 0.226 0 0.19-4.224-0.08-9.388zm-224.66 7.329c8.723-1.556 32.87-7.646 40.934-10.323l7-2.324-0.145-5.242c-0.079-2.883-0.565-5.662-1.078-6.175-0.578-0.578-3.568 0.183-7.855 2.002-13.424 5.692-36.394 11.398-54.672 13.579-3.163 0.377-5.732 0.991-5.71 1.364 0.088 1.502 10.633 8.082 13.026 8.128 1.412 0.028 5.237-0.426 8.5-1.009zm249.2-2.352c3.995-1.364 9.555-3.726 12.355-5.251 5.16-2.807 10.881-8.67 10.881-11.149 0-1.629 0.233-1.725-8.5 3.493-8.505 5.082-17.811 8.302-26.5 9.169l-6.5 0.649-0.325 3.4-0.324 3.4 5.824-0.616c3.204-0.339 9.094-1.732 13.089-3.095zm-189.92-10.469c1.334-38.997-22.057-67.957-60.341-74.707-17.553-3.094-35.166-0.725-49.688 6.683-5.411 2.761-13.812 10.692-13.812 13.041 0 1.025 0.152 1.863 0.337 1.863 0.186 0 2.295-1.862 4.688-4.138 4.915-4.676 15.568-10.052 24.435-12.33 8.989-2.31 27.214-2.042 37.102 0.545 9.813 2.569 22.374 8.699 29.857 14.572 15.569 12.219 24.581 33.304 24.581 57.509 0 8.129 0.255 9.987 1.235 9.007 0.776-0.776 1.373-5.26 1.606-12.045zm156.78 6.13c-0.283-0.962-0.813-3.438-1.179-5.5-0.569-3.213-1.043-3.752-3.303-3.764-1.452-7e-3 -3.722-0.303-5.045-0.657-1.728-0.463-2.198-0.306-1.667 0.554 2.049 3.315-20.626-6.64-26.777-11.755-2.431-2.023-2.01-0.449 1.001 3.74 6.234 8.673 24.361 18.475 35.166 19.016 1.761 0.088 2.194-0.304 1.804-1.634zm-146.26-8.5c2.665-4.814 3.753-8.37 4.737-15.478 1.729-12.481 0.914-13.024-6.144-4.095-3.251 4.114-3.954 5.786-3.954 9.413 0 3.401 0.371 4.41 1.622 4.41 1.186 0 1.343 0.337 0.584 1.252-0.943 1.136-1.543 10.748-0.672 10.748 0.203 0 1.925-2.812 3.827-6.25zm175.64 3.029c8.815-2.686 23.052-10.138 27.918-14.612 3.92-3.604 4-3.818 4.654-12.417 0.473-6.224 0.339-8.75-0.464-8.75-0.621 0-5.061 2.663-9.868 5.918-10.091 6.833-24.199 14.064-32.49 16.652-4.459 1.392-5.78 2.26-5.884 3.863-0.224 3.449 0.311 11.014 0.841 11.888 0.635 1.046 6.977-8e-3 15.293-2.542zm-251.36-2.294c26.43-5.39 51.356-13.226 51.356-16.144 0-3.35-4.273-11.341-6.064-11.341-1 0-2.064 0.398-2.365 0.885s-5.165 2.728-10.809 4.981c-14.651 5.848-36.62 11.069-57.512 13.668-2.887 0.36-5.25 0.933-5.25 1.275 0 1.579 9.648 10.191 11.415 10.191 1.095 0 9.748-1.582 19.229-3.515zm222.24-10.516c0.901-3.591 2.579-8.016 3.729-9.831 2.949-4.658 14.868-13.235 32.062-23.073 12.363-7.074 15.619-8.508 20.171-8.886l5.429-0.45-0.576-9.114c-0.467-7.385-3.191-23.155-4.216-24.408-0.131-0.162-2.92 2.387-6.197 5.664-20.707 20.707-65.455 38.287-94.138 36.984-5.056-0.229-8.147 0.013-8.141 0.638 5e-3 0.554 1.087 3.32 2.403 6.148 2.991 6.424 4.599 7.101 21.087 8.877 4.356 0.469 11.675-0.453 24.5-3.087 6.182-1.269 2.428 0.657-5.16 2.648-4.037 1.059-12.088 2.213-17.891 2.565-8.924 0.54-11.127 0.366-14.286-1.134-4.313-2.046-5.773-1.394-3.212 1.436 3.063 3.384 22.594 6.462 31.375 4.943 3.12-0.539 7.249-1.225 9.174-1.523l3.5-0.543-2.942 1.629c-1.618 0.895-5.443 1.959-8.5 2.363-6.661 0.882-25.645-0.847-28.808-2.622-3.005-1.687-2.859-0.114 0.261 2.817 4.921 4.623 17.524 11.357 25.388 13.565 2.531 0.711 6.569 1.209 8.975 1.108l4.374-0.183 1.639-6.531zm-70.887-6.148c0-7.431 0.137-8.072 4.534-21.228 2.125-6.358 2.43-8.376 1.555-10.297-0.599-1.315-1.089-3.324-1.089-4.465 0-1.739-0.245-1.872-1.512-0.821-3.135 2.602-8.817 16.351-12.54 30.347-2.562 9.629-2.512 11.606 0.302 11.791 1.237 0.081 2.997 0.194 3.91 0.25 0.912 0.056 2 0.439 2.416 0.852 1.841 1.824 2.424 0.278 2.424-6.429zm-166.5 3.01c12.849-2.336 27.912-5.977 38.5-9.306 8.916-2.804 21.001-8.118 20.997-9.233-1e-3 -0.436-1.736-2.802-3.854-5.259l-3.852-4.467-5.896 3.134c-3.242 1.723-8.37 4.09-11.395 5.258-9.274 3.583-34.819 9.783-48 11.651-6.875 0.974-12.654 1.877-12.841 2.006-0.847 0.582 1.151 4.422 3.548 6.819 2.988 2.988 3.044 2.987 22.793-0.603zm90.894-11.724 5.832-5.893-0.042-13.714 1.893 6c1.042 3.3 1.9 8.587 1.908 11.75s0.365 5.75 0.793 5.75c1.399 0 4.243-11.539 4.578-18.572 0.624-13.131-3.356-27.147-10.956-38.578-6.017-9.051-17.154-20.805-22.521-23.767l-4.379-2.418 2 2.409c1.1 1.325 5.09 5.777 8.866 9.893 9.264 10.098 17.714 22.702 17.587 26.233-0.025 0.715-1.209-0.936-2.631-3.67-3.224-6.201-8.986-13.968-13.696-18.462-3.897-3.718-5.718-3.665-3.255 0.095 1.995 3.045 6.632 15.387 6.617 17.61-7e-3 0.954-1.107-0.188-2.458-2.551-3.831-6.701-8.763-13.228-9.95-13.165-1.132 0.059-9.083 10.483-10.183 13.35-0.442 1.151 1.044 3.423 4.843 7.406 4.691 4.918 8.76 10.777 8.76 12.614 0 0.289-3.655-3.281-8.123-7.935-12.398-12.914-22.683-18.845-41.87-24.146-19.825-5.477-43.685-1.541-59.651 9.84-4.051 2.887-9.109 10.394-7.852 11.652 0.213 0.212 2.365-1.236 4.783-3.217 10.449-8.562 24.921-12.621 45-12.621 16.456 0 25.195 1.962 38.713 8.692 7.946 3.956 10.973 6.209 18.502 13.769 9.926 9.967 14.972 18.512 18.201 30.821 0.969 3.695 2.009 6.718 2.311 6.718s3.173-2.652 6.38-5.893zm-93.394-2.718c23.182-4.968 49.7-13.868 50.722-17.021 0.346-1.07-11.665-9.368-13.559-9.368-0.488 0-3.761 1.284-7.275 2.854-13.193 5.895-37.109 12.384-57.708 15.659-2.375 0.377-4.559 1.311-4.852 2.074-0.293 0.764 0.69 3.475 2.185 6.025l2.717 4.636 5.635-0.661c3.099-0.364 13.06-2.253 22.135-4.198zm115.51-5.395c0.998-1.104 1.539-2.282 1.202-2.619s0.014-1.24 0.781-2.007c1.862-1.862 1.229-20.297-0.968-28.177-3.889-13.949-12.1-26.357-24.375-36.838-13.416-11.455-27.083-17.667-41.646-18.929-4.4-0.381-7.775-0.46-7.5-0.175 0.275 0.286 2.975 1.57 6 2.855 7.409 3.147 25.087 13.056 30.883 17.31 6.334 4.65 14.176 13.076 18.589 19.975 4.657 7.28 11.528 21.47 11.528 23.808 0 0.992 0.436 1.803 0.969 1.803 0.532 0 0.707 0.681 0.388 1.513-0.32 0.832-0.144 2.069 0.39 2.75 0.534 0.68 0.922 5.624 0.862 10.986-0.06 5.363 0.159 9.75 0.486 9.75 0.327 1e-3 1.412-0.902 2.411-2.005zm-135.51-7.45c5.775-1.362 13.58-3.17 17.345-4.018 10.445-2.352 25.753-7.611 29.577-10.162l3.422-2.283-2.922-1.112c-9.37-3.568-19.357-3.762-27.661-0.539-3.444 1.337-10.761 3.406-16.261 4.599-13.97 3.029-18.5 6.467-18.5 14.037 0 2.566 0.307 2.903 2.25 2.464 1.238-0.28 6.975-1.624 12.75-2.986zm146.46-7.657c-0.3-0.945-0.077-2.008 0.495-2.362 0.605-0.373 1.041 0.31 1.041 1.63 0 2.083 0.134 2.139 1.598 0.676 2.221-2.221 2.116-18.633-0.162-25.429-3.707-11.06-9.658-20.587-18.4-29.456-13.865-14.068-26.647-19.879-47.301-21.504-7.397-0.582-7.815 0.586-0.735 2.055 4.852 1.007 16.889 6.643 22.643 10.602 7.728 5.316 20.062 17.689 24.921 24.997 8.426 12.675 12.081 23.153 12.929 37.07 0.213 3.484 0.428 6.559 0.479 6.834 0.05 0.275 0.754-0.376 1.564-1.448 0.811-1.071 1.228-2.72 0.928-3.665zm87.843 0.17c2.306-0.519 7.568-1.711 11.693-2.65 21.609-4.915 52.086-20.782 64.89-33.781 5.977-6.068 5.821-4.87 2.319-17.845-0.998-3.696-2.095-7.001-2.439-7.345s-1.836 1.33-3.314 3.72c-14.409 23.282-63.19 47.844-95.021 47.844-5.006 0-9.393 0.291-9.749 0.648-0.357 0.356 0.31 2.352 1.481 4.435 1.556 2.769 3.098 4.047 5.731 4.749 4.778 1.275 19.153 1.407 24.409 0.225zm-67.627-16.614c3.866-3.737 4.134-4.328 3.408-7.5-2.837-12.395-21.49-32.081-38.5-40.631l-5.088-2.558 6.62 6.892c8.567 8.917 15.374 19.525 19.879 30.977l3.604 9.163 2.948-1.23c1.622-0.677 4.299-1.561 5.949-1.964 4.474-1.094 1.751 0.858-3.131 2.244-4.967 1.41-7.121 3.553-5.515 5.488 0.688 0.829 0.746 1.676 0.155 2.267-0.519 0.519-0.691 1.909-0.383 3.088l0.561 2.145 2.649-2.162c1.456-1.189 4.536-3.988 6.844-6.219zm64.561-0.875c13.227-2.865 39.617-14.783 51.759-23.375 8.02-5.675 23.034-20.571 25.085-24.888 1.366-2.876 1.349-4.199-0.171-13.262-0.929-5.537-2.204-10.687-2.832-11.445-2.604-3.136-18.096-9.785-29.401-12.618-11.727-2.938-42.379-6.077-45.952-4.706-1.216 0.466-1.459 2.141-1.221 8.404 1.133 29.819-8.566 61.223-23.773 76.974-3.165 3.279-4.694 5.605-4.206 6.396 0.986 1.594 20.961 0.632 30.712-1.48zm-36.972-6.645c5.165-2.353 14.308-20.757 18.41-37.059 1.599-6.358 2.18-10.405 1.579-11.006s-3.306-0.569-7.355 0.088c-3.521 0.571-8.955 1.042-12.073 1.046l-5.671 8e-3 -0.629 6.75c-0.785 8.423-4.289 26.53-6.043 31.225-2.469 6.61-2.645 8.837-0.738 9.336 3.394 0.886 10.185 0.676 12.52-0.388zm-109.27-9.423c2.784-4.125 5.497-7.5 6.03-7.5 0.534 0 0.97-0.635 0.97-1.411 0-1.762-5.853-6.79-7.376-6.337-1.62 0.482-11.624 15.818-11.624 17.82 0 1.74 3.57 4.783 5.72 4.876 0.67 0.028 3.496-3.323 6.28-7.448zm-97.252 2.172c7.318-5.125 16.773-8.746 27.752-10.627l9.999-1.713 0.654-4.416c0.799-5.4 4.138-13.298 7.469-17.665 2.667-3.496 2.623-3.552-2.57-3.259-13.51 0.764-32.381 12.224-40.948 24.866-5.876 8.673-9.396 16.142-7.606 16.142 0.273 0 2.636-1.498 5.25-3.328zm194.38-15.096c3.811-15.233 3.517-39.799-0.722-60.371-1.804-8.757-6.111-17.418-8.411-16.915-0.825 0.181-1.323 0.977-1.106 1.769 0.217 0.793 1.243 4.366 2.28 7.941 3.348 11.544 6.008 32.502 6.028 47.5 0.019 14.04-2.231 30.886-4.407 33-1.087 1.055-1.091 1.124 1.257-20.886 1.007-9.437 1.021-14.954 0.066-26.779-0.662-8.191-1.457-15.555-1.768-16.364-0.31-0.809-1.753-1.47-3.207-1.468-4.259 5e-3 -46.12 13.693-46.136 15.086-4e-3 0.325 1.187 1.134 2.647 1.799 15.78 7.19 35.8 28.833 43.881 47.438l2.965 6.827 2.307-5.25c1.268-2.888 3.215-8.885 4.326-13.327zm28.307 9.881c5.496-9.138 8.089-15.435 11.214-27.234 4.478-16.905 4.466-55.931-0.019-62.334-1.354-1.933-1.494 0.38-1.4 23.232 0.1 24.209-0.022 25.955-2.65 37.879-2.901 13.164-7.374 25.901-11.365 32.361-1.312 2.123-1.84 3.679-1.175 3.457 0.666-0.222 3.094-3.534 5.395-7.361zm-140.57 0.926c0.656-1.439 3.653-5.886 6.661-9.882 3.007-3.996 5.468-7.48 5.468-7.742 0-0.897-10.498-7.445-15.5-9.668-5.623-2.498-19.572-6.073-23.74-6.084-2.116-5e-3 -3.537 1.076-6.236 4.743-3.975 5.402-7.524 13.967-7.524 18.158 0 2.813 0.057 2.839 7.859 3.519 7.688 0.671 26.139 6.171 28.448 8.48 1.774 1.774 3.293 1.267 4.564-1.524zm91.943-12.633c-2.751-5.053-18.386-20.983-25.185-25.661-6.359-4.375-16.277-8.215-19.274-7.463-1.295 0.325-2.35 0.88-2.344 1.232 6e-3 0.353 3.268 1.869 7.25 3.369 10.671 4.019 18.976 9.918 30.739 21.836 5.775 5.85 10.641 10.705 10.814 10.787 0.173 0.083-0.727-1.763-2-4.1zm168.27-0.75c1.729 0 0.919-2.651-1.508-4.93-3.72-3.495-6.078-0.749-3.497 4.073 0.645 1.207 1.679 1.781 2.581 1.435 0.828-0.318 1.919-0.578 2.424-0.578zm-3.293-13.458c3.677-4.675 6.471-15.716 6.056-23.931-0.207-4.112-0.679-7.779-1.049-8.148-0.369-0.369-3.962 0.429-7.984 1.774l-7.312 2.445 0.154 4.409c0.084 2.425 1.08 9.134 2.213 14.909 1.134 5.775 2.077 10.612 2.097 10.75s0.903 0.25 1.963 0.25c1.061 0 2.798-1.106 3.862-2.458zm13.019-0.783c0.225-1.889-0.245-2.763-1.741-3.238-3.975-1.261-5.699 2.522-2.317 5.085 2.395 1.815 3.692 1.224 4.058-1.847zm3.157-6.693c1.662-3.105 1.21-4.799-1.414-5.301-4.259-0.814-6.21 3.255-2.801 5.843 2.371 1.8 3.005 1.718 4.215-0.542zm-129.97-5.035c1.93-0.512 2.575-1.419 2.824-3.977 0.309-3.166 0.196-3.287-2.5-2.696-1.553 0.341-6.648 0.878-11.323 1.194-12.633 0.854-13 0.982-13 4.534v3.048l10.749-0.72c5.913-0.396 11.875-1.019 13.25-1.383zm131.81-6.781c0.301-3.117 0.168-3.25-3.25-3.25-3.246 0-3.563 0.252-3.563 2.833 0 3.561 0.774 4.335 3.963 3.963 2.056-0.24 2.596-0.912 2.85-3.546zm-234.08-2c2.341-0.962 4.258-2.057 4.26-2.432 4e-3 -0.766-5.437-4.818-6.47-4.818-0.366 0-2.746 1.431-5.288 3.18l-4.622 3.181 3.442 1.243c4.483 1.62 3.81 1.647 8.678-0.354zm96.268 0.69c4.649-0.583 8.792-1.595 9.209-2.25 1.101-1.731 0.957-12.467-0.176-13.167-0.908-0.561-27.172 1.296-27.857 1.969-0.176 0.173-5e-3 3.508 0.379 7.411l0.699 7.097h4.647c2.556 0 8.451-0.477 13.099-1.06zm-147-2.989c0-0.625-2.043-0.957-5.042-0.82-6.99 0.319-8.435-1.408-10.562-12.631-5.164-27.253-6.108-30.995-7.907-31.351-1.589-0.314-1.7 0.207-1.064 5 1.425 10.758 5.711 30.443 7.371 33.851 0.991 2.036 3.168 4.232 5.204 5.248 3.819 1.908 12 2.387 12 0.703zm22.564-5.083c1.136-1.028 2.711-1.85 3.5-1.827 0.839 0.023 0.084 1.197-1.814 2.822-1.788 1.531-3.25 3.087-3.25 3.46 0 0.372 2.407 0.677 5.35 0.677 4.682 0 6.46-0.664 14.25-5.326 4.895-2.929 14.75-7.859 21.9-10.956s17.725-7.719 23.5-10.273c5.775-2.553 12.49-5.16 14.923-5.793 2.433-0.634 4.632-1.786 4.886-2.561 0.32-0.972-0.049-1.213-1.185-0.777-3.148 1.208-23.981 2.86-28.161 2.233-7.229-1.084-13.128-5.66-16.508-12.804-1.624-3.434-2.954-7.229-2.954-8.434-1e-3 -1.205-0.435-2.459-0.965-2.787-3.295-2.036-47.61 41.122-45.586 44.396 0.32 0.519 0.125 1.226-0.434 1.572-1.261 0.779-1.358 10.51-0.105 10.51 0.501 0 2.007-1.302 3.346-2.893 3.124-3.714 16.073-14.959 21.186-18.4 4.229-2.846 6.57-2.805 2.503 0.044-5.448 3.815-22.892 20.528-22.347 21.41 0.613 0.991 4.35-1.023 7.965-4.293zm-23.045-3.118c-0.279-3.438-0.623-15.137-0.763-26-0.141-10.862-0.531-19.75-0.868-19.75-0.336 0-4.519 1.831-9.295 4.069-7.267 3.406-8.595 4.385-8.138 6 0.3 1.062 0.76 2.719 1.022 3.681 0.263 0.962 1.565 8.093 2.894 15.845 2.272 13.245 4.441 19.935 7.019 21.64 0.61 0.404 2.804 0.741 4.874 0.75l3.764 0.015-0.509-6.25zm66.934 5.089c1.401-0.638 2.547-1.5 2.547-1.915 0-0.416-1.82-2.197-4.044-3.959l-4.044-3.203-4.446 1.698c-2.445 0.934-4.674 2.067-4.953 2.519-0.7 1.132 7.48 5.934 10.19 5.982 1.212 0.021 3.349-0.483 4.75-1.122zm218.55-1.839c0-1.65-0.394-3-0.875-3s-2.281-0.281-4-0.625c-3.04-0.608-3.125-0.527-3.125 3 0 3.563 0.069 3.625 4 3.625 3.778 0 4-0.167 4-3zm-205.29-3.522 3.643-1.522-3.371-3.478c-1.854-1.913-4.174-3.478-5.155-3.478-2.371 0-9.824 3.015-9.824 3.973 0 1.199 7.314 5.9 9.282 5.967 0.98 0.033 3.421-0.625 5.425-1.462zm167.29-6.896c0-2.98-0.28-6.147-0.621-7.037-0.628-1.635-5.351-4.545-7.378-4.545-1.086 0-4.937 7.446-4.979 9.627-0.012 0.62 2.202 2.084 4.921 3.253 2.719 1.17 5.22 2.575 5.559 3.123 1.481 2.396 2.498 0.596 2.498-4.421zm36.835 1.553c0.465-3.288-1.08-4.46-4.804-3.642-5.877 1.291-4.648 6.897 1.384 6.308 2.374-0.232 3.162-0.846 3.42-2.666zm-190.51-0.729c2.573-0.877 4.678-2.032 4.678-2.567 0-1.545-5.12-7.84-6.369-7.829-1.921 0.016-11.631 4.845-11.631 5.784 0 0.874 6.925 6.206 8.06 6.206 0.321 0 2.689-0.717 5.262-1.594zm59.075-1.065 3.897-0.566-0.623-11.63c-0.343-6.396-1.059-11.774-1.591-11.952-0.532-0.177-0.694-1.035-0.359-1.907 0.483-1.261 0.114-1.463-1.807-0.99-1.328 0.328-8.911 1.529-16.851 2.67s-14.641 2.279-14.892 2.53 0.013 1.029 0.587 1.73 2.325 5.921 3.892 11.601l2.85 10.328 10.5-0.624c5.775-0.343 12.254-0.879 14.397-1.19zm114.6-3.564c0-1.013-1.013-2.248-2.25-2.746-1.237-0.497-1.688-0.933-1-0.968 1.472-0.074 1.719-5.063 0.25-5.063-0.55 0-1-0.494-1-1.099 0-0.604-0.626-2.517-1.391-4.25-0.766-1.733-1.949-5.289-2.63-7.901-1.813-6.953-4.013-6.328-3.519 1 0.213 3.163 0.469 5.975 0.57 6.25s0.167 3.312 0.146 6.75c-0.03 4.819 0.295 6.25 1.416 6.25 1.23 0 1.206 0.378-0.155 2.456-2.447 3.735-1.076 4.564 4.565 2.761 3.609-1.155 4.998-2.11 4.998-3.44zm-156.75-0.419c0.962-0.271 1.75-1.155 1.75-1.965 0-2.211-3.888-9.393-5.085-9.393-1.624 0-10.915 4.167-10.915 4.895 0 0.357 1.403 2.351 3.117 4.431 3.222 3.908 3.979 4.046 11.133 2.032zm122.86-3.858c1.044-2.75 1.72-5.472 1.502-6.049s-2.014-1.545-3.992-2.153l-3.596-1.103-0.999 3.707c-2.293 8.518-2.343 9.882-0.382 10.406 4.178 1.115 5.556 0.228 7.467-4.808zm45.229 3.422c3.508-0.973 3.783-1.298 3.18-3.744-0.989-4.004-2.044-4.618-5.486-3.192-3.822 1.583-4.258 2.273-3.456 5.468 0.731 2.913 0.642 2.89 5.762 1.468zm-253.54-15.672c8.087-8.112 18.181-17.225 22.432-20.25 6.862-4.884 7.702-5.827 7.5-8.423-0.126-1.608-0.685-3.072-1.243-3.255-1.634-0.535-20.164 15.499-30.608 26.486-7.858 8.265-13.877 16.802-13.877 19.681 0 1.384 2.181-0.582 15.796-14.239zm197.1 11c2.025-7.825 1.917-8.314-2.155-9.722-2.069-0.715-3.938-1.014-4.154-0.664-0.309 0.5-2.585 11.725-2.585 12.746 0 0.403 3.352 1.15 5.711 1.274 1.754 0.092 2.413-0.661 3.183-3.634zm-10.805-4.756c0.678-3.029 0.95-5.788 0.605-6.133s-2.31-0.68-4.367-0.744c-3.736-0.117-3.742-0.11-4.97 5.331-0.677 2.997-1.007 5.809-0.734 6.25 0.272 0.441 2.236 0.802 4.364 0.802h3.87l1.232-5.506zm-13.219 2.749c0.517-0.967 1.096-3.78 1.285-6.25l0.345-4.493-4.76-0.305c-5.264-0.338-5.255-0.349-6.128 6.994-0.555 4.67-0.545 4.69 2.666 5.09 1.772 0.22 3.769 0.473 4.437 0.561s1.638-0.631 2.155-1.597zm-24.37-5.743v-6l-3.25-0.313c-3.177-0.307-3.25-0.224-3.25 3.685 0 6.064 1.552 9.331 4.252 8.947 2.045-0.29 2.248-0.859 2.248-6.319zm11.623 3.426c0.373-1.334 0.722-3.849 0.777-5.588 0.093-2.949-0.179-3.209-4.024-3.859-5.044-0.852-6 0.253-5.637 6.516 0.238 4.106 0.52 4.549 3.261 5.125 4.137 0.87 4.844 0.594 5.623-2.194zm61.877 0.132c0-1.211-2.35-3.716-6.25-6.661-9.99-7.545-10.443-8.823-0.616-1.738 5.061 3.649 6.866 4.138 6.866 1.858 0-0.815-3.708-3.965-8.241-7-9.262-6.2-8.732-7.335 0.942-2.017 3.502 1.925 6.577 3.5 6.833 3.5 1.14 0 0.311-7.525-1.172-10.65-2.395-5.047-15.51-16.709-25.862-22.997l-9-5.467-0.554 7.807c-1.193 16.788-5.762 19.714-40.196 25.741-2.314 0.405-3.75 1.214-3.75 2.111 0 1.103 1.379 1.455 5.698 1.455 7.276 0 31.687 1.813 40.802 3.03 7.922 1.057 23.285 6.498 29.112 10.309 4.752 3.108 5.388 3.193 5.388 0.719zm28.158-1.085c3.359-0.933 3.598-1.239 2.928-3.745-0.522-1.949-1.352-2.708-2.908-2.657-7.777 0.255-8.178 0.389-8.178 2.729 0 2.42 1.678 4.704 3.45 4.694 0.578-3e-3 2.696-0.462 4.708-1.021zm-259.37-8.822c9.233-10.616 22.911-22.778 34.254-30.458 3.648-2.47 4.061-3.132 3.441-5.5-1.04-3.973-2.213-12.75-4.102-30.693-3.043-28.904 0.128-32.628 35.619-41.84 32.269-8.376 41.443-10.495 68-15.707 13.81-2.71 25.178-2.557 31.5 0.424 2.75 1.297 6.008 3.455 7.241 4.795 4.782 5.201 8.841 19.393 12.678 44.328 3.111 20.223 2.923 19.5 5.078 19.5 5.082 0 24.036 12.303 30.408 19.737 3.565 4.16 4.083 4.47 4.089 2.449 8e-3 -3.163-4.52-24.782-6.233-29.754-1.768-5.132-7.794-14.24-11.757-17.771-6.299-5.612-18.565-27.043-23.056-40.283-2.772-8.171-3.404-11.742-4.314-24.378-0.179-2.475-0.732-4.341-1.229-4.146-0.498 0.194-2.03 0.911-3.405 1.593-22.827 11.319-38.511 16.888-67.5 23.965-37.395 9.131-52.39 11.422-80.25 12.26-11.688 0.352-21.25 0.983-21.25 1.401 0 0.419 0.845 2.733 1.878 5.142 2.482 5.791 3.199 10.438 3.29 21.336 0.09 10.726-0.484 14.836-3.825 27.397-2.301 8.651-10.145 31.776-12.398 36.552-3.13 6.637-6.16 25.5-4.095 25.5 0.468 0 3.139-2.632 5.938-5.849zm256.96-0.867c1.788-0.3 3.25-0.657 3.25-0.793 0-0.655-3.07-7.491-3.364-7.491-0.186 0-1.719 0.481-3.407 1.07-3.508 1.223-4.495 3.022-3.605 6.569 0.448 1.784 1.079 2.299 2.249 1.836 0.895-0.355 3.089-0.891 4.877-1.191zm-180.75-3.379c2.475-0.576 13.05-2.341 23.5-3.922 32.324-4.893 62.018-10.153 74.5-13.199 6.797-1.659 11.668-4.414 12.358-6.989 1.497-5.589-0.225-24.235-4.46-48.295-1.066-6.05-2.603-15.725-3.416-21.5-3.121-22.151-7.309-25.883-26.883-23.95-21.836 2.155-95.619 18.859-105.44 23.87-6.475 3.304-9.156 7.314-9.156 13.695 0 6.293 9.15 61.3 11.499 69.125 1.476 4.919 5.405 10.26 7.546 10.26 1.283 0 1.208-0.61-0.472-3.858-2.804-5.423-12.573-63.117-12.573-74.256 0-6.563 2.345-9.039 11.709-12.364 17.294-6.139 60.435-16.093 84.373-19.467 19.705-2.777 25.958-2.735 28.595 0.195 3.596 3.994 3.526 4.802-0.226 2.589-3.531-2.084-4.03-2.117-13.31-0.894-23.836 3.143-46.838 7.615-74.424 14.468-16.38 4.07-30.938 8.157-32.35 9.082-3.046 1.996-3.369-1.555 3.726 41.005 6.879 41.267 8.018 45.117 12.617 42.655 1.531-0.819 2.298-0.627 3.607 0.902 1.902 2.221 2.517 2.281 8.683 0.848zm290.92-6.118c8.638-4.324 10.948-5.983 13.5-9.698 1.693-2.466 5.498-7.153 8.455-10.416l5.377-5.932-0.537-5.621c-0.484-5.059-6.296-25.12-7.278-25.12-0.22 0-3.671 3.314-7.669 7.365-7.496 7.594-17.249 13.282-29.27 17.069-7.178 2.262-20.448 3.512-23.367 2.201-1.993-0.895-2.661-0.701-4.219 1.222-4.54 5.608-3.607 14.447 2.165 20.502 2.17 2.278 3.669 3.357 3.33 2.399-0.574-1.622-0.369-1.639 2.955-0.25 4.603 1.923 4.312 2.033 5.052-1.911 0.351-1.872 1.248-3.638 1.994-3.924 1.307-0.502 2.359 1.391 5.666 10.195 1.474 3.926 6.147 7.122 10.424 7.13 1.65 3e-3 7.69-2.342 13.422-5.211zm-114.88 0.193c4.206-2.146 4.484-2.613 2.969-4.98-0.838-1.31-1.439-1.246-4.735 0.5-2.359 1.25-3.894 2.844-4.094 4.25-0.394 2.775 0.78 2.821 5.86 0.23zm-328.15-4.87c3.363-3.24 6.114-5.569 6.114-5.176s-1.56 2.908-3.467 5.59c-3.428 4.821-3.941 6.89-1.131 4.558 0.797-0.662 3.364-4.095 5.705-7.629 2.34-3.534 4.466-6.213 4.725-5.954s-1.285 3.065-3.43 6.236c-2.146 3.171-4.049 6.093-4.228 6.493-0.179 0.401 1.621 0.495 4 0.209s5.065-0.533 5.968-0.549c2.608-0.046 5.389-3.84 8.345-11.388 1.507-3.85 2.973-7.225 3.255-7.5 0.283-0.275 0.304 1.805 0.046 4.622-0.285 3.104-1.364 6.378-2.738 8.308-1.248 1.752-2.008 3.445-1.69 3.763s3.779-0.451 7.691-1.709c8.006-2.575 8.278-2.948 9.479-12.984 2.62-21.896-2.539-44.396-14.532-63.386-5.117-8.102-13.034-15.614-16.455-15.614-1.399 0-2.543 0.277-2.543 0.616s1.518 2.701 3.374 5.25c10.796 14.827 17.865 35.274 17.506 50.634l-0.116 5-0.91-5c-3.729-20.488-6.272-28.127-13.268-39.846-2.247-3.766-5.704-8.603-7.682-10.75-3.782-4.105-6.55-5.175-5.569-2.154 5.175 15.953 6.726 22.519 7.118 30.146 0.243 4.732 0.23 7.479-0.028 6.104-2.674-14.22-11.084-36.812-14.876-39.959-2.547-2.115-2.728-0.7-0.541 4.244 2.625 5.934 4.311 26.356 2.964 35.889-2.416 17.092-14.958 37.959-28.765 47.859-5.303 3.802-5.549 5.772-0.566 4.521 1.529-0.384 2.29-0.251 1.926 0.337-0.33 0.534-0.122 1.266 0.461 1.626 1.035 0.64 2.353-0.093 8.472-4.715l3-2.266-2.75 3.665c-1.512 2.016-2.75 3.868-2.75 4.116 0 0.247 1.238 0.693 2.75 0.991 2.135 0.42 3.531-0.169 6.241-2.633 2.299-2.091 2.725-2.3 1.25-0.611-2.899 3.318-2.831 4.282 0.259 3.691 1.375-0.263 2.5-0.09 2.5 0.384 0 0.473 1.974 0.861 4.386 0.861 3.993 0 4.934-0.528 10.5-5.89zm327.44-3.568c1.486-1.12 1.62-1.769 0.715-3.46-1.332-2.488-0.995-2.452-4.87-0.519-3.812 1.902-4.485 2.882-3.693 5.378 0.515 1.62 1.036 1.77 3.315 0.951 1.487-0.535 3.527-1.592 4.533-2.35zm-368.42-2.177c4.897-2.813 9.088-6.246 9.088-7.444 0-0.402-1.913-1.856-4.25-3.232s-7.557-5.284-11.6-8.686c-4.689-3.945-7.947-5.995-9-5.66-2.712 0.861-19.615 7.82-20.077 8.265-1.408 1.36 10.415 10.517 21.427 16.596 6.247 3.448 8.643 3.475 14.412 0.161zm89.371-1.993c7.053-3.553 10.717-6.237 10.717-7.849 0-1.011-1.039-0.839-4.224 0.699-2.323 1.123-6.148 2.866-8.5 3.874-3.034 1.3-4.276 2.424-4.276 3.868 0 2.566 0.018 2.564 6.283-0.592zm257.26-0.122c-1.285-5.256-15.578-18.156-28.348-25.583-6.822-3.969-9.796-4.673-8.803-2.085 0.334 0.87 0.607 2.39 0.607 3.378 0 1.086 1.286 2.328 3.25 3.137 5.112 2.108 19.659 12.251 26.25 18.302 3.3 3.03 6.386 5.53 6.858 5.555 0.473 0.025 0.556-1.191 0.186-2.704zm17.3-2.296c3.112-1.898 3.245-2.188 1.914-4.192-2.033-3.062-3.184-3.166-6.147-0.559-1.918 1.688-2.446 2.893-1.994 4.547 0.76 2.775 1.946 2.814 6.227 0.204zm11.62-2.839c0.329-1.037 0.148-2.949-0.402-4.25-0.952-2.254-4.306-21.734-5.571-32.365-1.153-9.682-3.741-23.537-4.483-23.995-1.235-0.763-17.229 4.238-18.138 5.671-0.462 0.728-0.846 2.367-0.855 3.641-0.011 1.734 0.425 2.192 1.735 1.818 15.953-4.557 21.998-4.715 8.51-0.222-7.692 2.562-10.172 4.009-8.956 5.224 0.424 0.425 11.807-2.591 16.324-4.324 0.754-0.29 1.372-0.111 1.372 0.397s-3.269 1.927-7.265 3.153c-8.851 2.715-10.195 3.495-9.435 5.476 0.516 1.345 1.578 1.233 8.395-0.885 9.17-2.848 8.305-2.697 8.305-1.454 0 0.55-0.562 1.002-1.25 1.005-1.97 7e-3 -12.782 4.618-14.079 6.004-0.929 0.993-0.395 1.134 2.579 0.684 4.357-0.659 4.704-0.262 1.331 1.525l-2.419 1.282 11.169 16.729c6.143 9.201 11.476 16.739 11.852 16.75 0.375 0.012 0.951-0.827 1.281-1.864zm-278.23-4.15c2.961-1.376 3.83-3.189 4.226-8.818 0.141-2.006 0.533-4.322 0.872-5.147 1.225-2.987 2.671-18.682 2.671-29 0-17.353-3.084-36.165-6.378-38.899-0.945-0.784-5.061 0.401-15.558 4.478-7.851 3.05-14.465 5.353-14.699 5.119s1.95-1.437 4.855-2.674c2.904-1.237 7.08-3.052 9.28-4.033s5.767-2.516 7.927-3.41c2.881-1.194 3.631-1.923 2.815-2.739-0.815-0.815-2.194-0.678-5.177 0.515-2.236 0.895-4.065 1.382-4.065 1.083s1.35-1.015 3-1.59 3-1.443 3-1.929c0-1.921-4.941-1.955-10.085-0.069-2.978 1.092-9.557 3.502-14.62 5.356-5.063 1.853-9.537 3.701-9.943 4.107-0.406 0.405 1.756 3.313 4.803 6.461s6.478 7.1 7.624 8.781c7.647 11.224 14.634 32.716 15.856 48.77 0.632 8.306 0.795 8.796 2.768 8.32 2.003-0.483 1.996-0.436-0.153 1.046-2.709 1.867-3.073 4.791-0.5 4.008 0.962-0.293 4.196-1.462 7.185-2.598 8.191-3.113 7.36-1.643-1.303 2.305-4.198 1.913-7.632 3.93-7.632 4.481 0 0.967 7.478-1.251 13.231-3.924zm-80.866-1.393c12.195-13.333 18.235-34.631 15.68-55.293-1.191-9.634-4.723-19.937-7.675-22.387-1.105-0.917-1.377-0.581-1.405 1.736-0.103 8.452-3.085 19.304-8.062 29.333-4.653 9.376-6.308 11.578-15.948 21.218l-10.757 10.756 6.651 5.346c8.578 6.895 16.418 12.555 17.516 12.647 0.476 0.04 2.276-1.47 4-3.356zm362.63-3.322c-5e-3 -7.034-7.499-51.153-8.932-52.586-0.567-0.567-1.349-0.712-1.738-0.323-0.692 0.691 1.419 16.663 4.183 31.659 0.76 4.125 2.135 11.888 3.055 17.25s2.069 9.75 2.554 9.75 0.88-2.587 0.878-5.75zm-266.58-8.556c4.3-14.096 5.588-22.168 5.587-35.009-2e-3 -10.906-1.686-25.234-3.517-29.908-0.622-1.587-6.981-3.612-8.034-2.558-0.253 0.253 0.53 4.244 1.739 8.87 1.856 7.102 2.207 11.213 2.255 26.411 0.032 9.9-0.304 23.062-0.746 29.25s-0.581 11.25-0.31 11.25 1.633-3.738 3.026-8.306zm-138.91-0.988c9.241-3.589 15.436-7.873 24.338-16.827 13.056-13.132 20.027-27.112 20.884-41.879l0.494-8.5-4.108-4.417c-2.26-2.429-4.271-4.229-4.469-4-0.198 0.23-1.147 3.682-2.109 7.673-3.055 12.68-10.413 25.813-20.47 36.541-8.097 8.637-25.721 18.748-36.31 20.832-3.163 0.622-5.75 1.316-5.75 1.543 0 0.226 0.922 1.401 2.048 2.61 2.021 2.169 2.093 2.174 5.25 0.368l3.202-1.831-2.424 2.59c-3.016 3.223-1.655 3.34 2.942 0.252 7.491-5.033 9.377-6.116 8.68-4.985-0.399 0.647-3.398 2.962-6.665 5.143l-5.941 3.967 2.94 2.436c3.632 3.009 6.45 2.764 17.468-1.516zm481.49-1.764c16.665-2.09 36.215-13.781 42.106-25.18 1.863-3.606 3.84-15.762 2.562-15.762-0.344 0-1.812 2.342-3.263 5.205-5.111 10.086-23.37 25.089-34.396 28.261l-2.5 0.719 2.4-1.754c1.32-0.965 4.345-2.739 6.723-3.943 9.784-4.954 20.612-14.91 26.931-24.764 3.511-5.475 3.918-8.2 1.983-13.267-1.637-4.285-3.537-5.943-3.537-3.085 0 2.337-9.472 15.854-15.031 21.449-9.576 9.638-23.728 17.336-35.51 19.316-6.517 1.095-7.133 1.399-6.656 3.285 0.681 2.688 7.09 10.578 8.594 10.578 0.635 0 4.953-0.476 9.594-1.058zm-331.64-19.942c2.634-13.114 2.829-16.281 1.653-26.963-1.248-11.341-3.051-17.037-5.394-17.037-2.595 0-2.669 1.593-0.501 10.659 1.849 7.729 2.057 10.955 1.652 25.642-0.255 9.241-0.115 16.441 0.31 16 0.426-0.441 1.452-4.176 2.28-8.301zm-171.58 5.574c28.466-7.578 53.232-35.341 53.232-59.675 0-5.735-0.374-7.223-2.415-9.593-1.328-1.543-2.575-2.581-2.771-2.306s-1.392 4.55-2.658 9.5c-3.008 11.759-6.79 19.49-13.513 27.621-10.04 12.144-27.229 21.189-42.893 22.573-3.972 0.351-6.75 1.058-6.75 1.719 0 1.449 4.793 8.713 6.821 10.337 2 1.601 4.417 1.562 10.947-0.176zm493.94-3.614c13.273-2.234 30.608-15.008 40.343-29.729 7.4-11.191 7.69-12.753 3.84-20.649-1.765-3.62-3.505-6.582-3.866-6.582s-1.691 2.495-2.955 5.545c-4.778 11.528-19.18 27.571-30.273 33.722-3.463 1.921-9.447 4.469-13.297 5.662-3.85 1.194-8.303 2.583-9.897 3.089-1.593 0.505-3.28 0.682-3.75 0.391-0.469-0.29-0.853-0.099-0.853 0.425s0.675 1.211 1.5 1.528c0.825 0.316 1.5 1.348 1.5 2.292s0.973 2.752 2.161 4.018c2.298 2.446 2.68 2.453 15.547 0.288zm-496.71-13.629c8.46-2.326 20.663-9.125 27.135-15.117 3.216-2.977 7.828-8.63 10.251-12.563 4.188-6.801 6.364-11.651 5.226-11.651-0.287 0-3.182 3.488-6.432 7.75-3.25 4.263-8.108 9.792-10.795 12.289-10.755 9.992-26.736 16.961-38.895 16.961-7.074 0-8.226 1.266-3.411 3.748 2.72 1.402 8.394 0.927 16.921-1.417zm488.3-2.801c9.997-2.897 16.249-6.153 23.367-12.172 6.351-5.371 15.132-16.888 19.756-25.914 3.265-6.373 3.38-6.928 1.996-9.604-0.808-1.562-1.631-2.84-1.829-2.84s-2.165 3.038-4.372 6.75c-5.339 8.984-15.498 18.925-27.716 27.121-11.791 7.909-14.838 9.422-23.5 11.671-9.85 2.558-9.468 2.39-8.244 3.614 1.089 1.089 14.235-0.892 22.061-3.324 1.824-0.567 3.523-0.825 3.776-0.573 0.689 0.69-15.148 5.741-17.999 5.741-1.362 0-2.754 0.45-3.094 1-1.127 1.824 7.063 1.062 15.798-1.47zm-493.36-4.016c15.309-3.22 25.354-9.653 36.149-23.149 4.889-6.112 11.204-18.16 12.51-23.865l0.686-3-2.008 2.5c-1.104 1.375-3.011 4.075-4.237 6-2.566 4.028-2.233 2.333 1.476-7.5 3.17-8.407 3.591-18.219 1.141-26.636-5.058-17.384-31.085-28.533-38.87-16.65-2.589 3.95-3.034 8.242-1.289 12.419 3.75 8.975 9.694 11.517 20.652 8.832 3.781-0.927 7.122-2.085 7.425-2.575 0.856-1.385 2.432-1.047 2.432 0.521 0 2.143-5.772 6.547-12.277 9.368-3.785 1.642-5.644 2.985-5.315 3.841 0.277 0.724 0.13 1.548-0.328 1.831-0.459 0.283-2.022 4.325-3.474 8.982-2.652 8.508-3.451 16.102-2.17 20.631l0.689 2.436-2.046-2.5c-1.125-1.375-2.309-3.288-2.63-4.25-0.674-2.022-2.449-2.364-2.449-0.473 0 0.703 0.606 2.166 1.347 3.25 0.74 1.085 2.146 3.323 3.123 4.973 1.69 2.853 1.611 2.825-1.597-0.57-1.855-1.963-3.886-4.438-4.512-5.5-1.098-1.86-1.244-1.832-4 0.766-7.133 6.723-21.375 9.579-31.477 6.313-2.961-0.958-7.448-3.039-9.972-4.625-2.523-1.586-4.911-2.884-5.306-2.884-1.737 0 3.479 6.743 10.07 13.02 7.772 7.401 19.605 13.98 25.144 13.98 3.749 0 10.885-2.302 17.68-5.703 2.75-1.377 6.125-2.909 7.5-3.406 2.418-0.873 2.434-0.851 0.5 0.676-4.603 3.633-14.248 8.694-20.726 10.875-6.298 2.121-7.15 3.265-2.589 3.479 0.926 0.043 4.863-0.59 8.748-1.407zm394.04-1.823c-0.013-0.655-1.353-3.891-2.978-7.191s-2.965-6.541-2.978-7.203c-0.012-0.662-2.025-6.585-4.473-13.164-5.23-14.057-9.202-27.762-10.985-37.907-0.703-4.001-1.504-7.499-1.779-7.774s-1.127 0.259-1.892 1.186c-2.71 3.282-0.852 20.402 3.783 34.862 2.393 7.465 12.868 29.169 15.706 32.542 1.364 1.621 2.768 3.856 3.121 4.967 0.656 2.067 2.515 1.828 2.475-0.318zm92.899-4.789c17.436-6.676 34.157-20.098 42.987-34.506 4.595-7.498 4.852-10.185 1.368-14.32l-2.885-3.423-2.252 4.65c-2.706 5.59-6.853 9.285-11.964 10.662-4.945 1.331-13.316-0.796-22.131-5.624-11.211-6.14-15.663-9.952-18.577-15.91-2.642-5.399-2.668-5.654-1.965-19.29l0.712-13.82-7.835-2.571c-4.309-1.414-9.521-2.723-11.583-2.91l-3.748-0.34-0.268 18.717c-0.152 10.544-0.699 19.146-1.253 19.7-0.644 0.644-0.983-5.69-0.983-18.384 0-10.651-0.225-19.585-0.5-19.852s-1.625-0.642-3-0.833l-2.5-0.348-0.098 12c-0.117 14.458-1.61 19.78-7.719 27.524-7.202 9.13-18.746 14.007-36.683 15.498-6.313 0.525-8.094 0.313-11.25-1.341-4.589-2.405-4.664-1.895-1.175 8.009 6.255 17.758 12.249 31.037 13.624 30.187 0.428-0.265 0.515 0.206 0.192 1.045-0.322 0.84 0.075 2.187 0.882 2.994 1.562 1.562 4.649 1.101 20.358-3.034l6.132-1.615 1.259-14.633c1.997-23.211 2.865-24.624 2.661-4.337l-0.183 18.296 2.5-0.617c1.375-0.34 2.831-0.939 3.235-1.332 0.405-0.393 1.276-5.318 1.936-10.944s1.506-9.885 1.88-9.465c0.373 0.421 0.274 4.789-0.222 9.708-1.501 14.9-0.664 14.463 3.73-1.943 0.736-2.75 1.773-7.25 2.304-10 0.887-4.591 0.953-4.237 0.819 4.335-0.081 5.134-0.511 9.559-0.955 9.834-0.445 0.275-0.535 1.361-0.2 2.415 0.34 1.071 0.137 1.916-0.46 1.916-2.091 0-1.072 3.765 1.183 4.37 3.832 1.027 11.75 0.711 11.75-0.469 0-0.604 1.239-2.292 2.753-3.75 4.615-4.444 8.544-10.241 12.978-19.15 2.327-4.676 4.24-7.961 4.25-7.301 0.038 2.427-7.139 20.915-9.522 24.529-1.352 2.05-2.46 4.075-2.46 4.5-1e-3 0.424-1.14 2.095-2.532 3.714l-2.531 2.942 2.488 2.308c1.369 1.269 3.399 2.307 4.512 2.307 2.484 0 9.682-2.747 13.064-4.986 6.238-4.129 12.431-7.283 11.093-5.648-1.837 2.242-16.59 12.634-17.936 12.634-0.572 0-1.339 0.485-1.705 1.077-1.093 1.769 8.211-0.03 16.425-3.175zm-105.2-3.277c-1.475-2.252-3.794-7.513-9.31-21.125-3.711-9.159-6.31-20.427-7.021-30.444-0.353-4.981-0.877-9.056-1.164-9.056s-1.344 0.745-2.35 1.655c-2.174 1.967-2.502 11.072-0.705 19.546 2.301 10.85 11.479 30.222 18.158 38.325 3.274 3.972 4.705 4.63 2.392 1.099zm-393.2-17.049c4.838-2.021 13.951-8.952 16.963-12.9 1.406-1.844 2.991-5.562 3.523-8.264 0.531-2.702 1.434-6.484 2.005-8.405 1.571-5.288 1.274-6.967-1.413-7.989-1.349-0.512-4.316-2.108-6.595-3.547-2.279-1.438-4.213-2.47-4.298-2.293-4.928 10.209-8.771 14.228-16.96 17.738-2.96 1.269-4.758 2.821-5.587 4.821-1.788 4.316-10.007 11.987-14.518 13.548l-3.908 1.353 3.358 2.431c1.847 1.337 4.731 2.959 6.409 3.605 4.335 1.668 16.935 1.61 21.021-0.098zm109.95-1.443c0.294-0.477-0.129-4.639-0.94-9.25-1.745-9.914-1.673-8.883-0.616-8.883 0.967 0 3.138 9.803 3.138 14.167 0 3.24 1.862 3.675 6.153 1.436 1.46-0.761 4.385-1.948 6.5-2.638 2.116-0.69 6.097-2.261 8.847-3.492s6.086-2.57 7.413-2.975c4.688-1.431-0.641-2.813-8.312-2.156-20.269 1.736-19.7 1.723-11.101 0.241 4.4-0.759 10.146-1.679 12.769-2.045 9.252-1.292 3.693-2.566-9.086-2.082-14.354 0.543-14.455-0.136-0.183-1.229 7.454-0.57 9.5-1.05 9.5-2.227 0-1.135-1.703-1.642-7-2.083-6.793-0.565-16.5-4.111-16.5-6.027 0-2.397-2.127-0.392-3.946 3.72-2.546 5.757-2.659 7.866-0.969 18.14 1.245 7.572 2.692 10.038 4.333 7.383zm125.47-7.207c8.586-1.111 18.762-2.681 22.612-3.488 3.85-0.808 11.5-2.385 17-3.505 18.672-3.804 41.135-9.772 55.591-14.769 16.013-5.535 28.5-10.573 30.858-12.448 0.853-0.678 3.351-2.129 5.551-3.225 3.994-1.988 13.5-10.813 13.5-12.533 0-0.5-1.237-0.409-2.75 0.201-21.529 8.683-31.32 12.141-34.25 12.094-2.769-0.044-3.082 0.118-1.5 0.776 2.132 0.885 2.078 0.905-3.75 1.371-0.688 0.055-1.523 0.472-1.856 0.926-0.993 1.353-22.159 8.397-40.894 13.609-17.089 4.754-20.352 5.569-26.5 6.626-1.65 0.283-6.15 1.141-10 1.906s-9.25 1.675-12 2.023-9.05 1.266-14 2.041-15.3 1.881-23 2.458-19.4 1.48-26 2.006c-6.6 0.527-13.013 0.968-14.25 0.981-6.735 0.071 3.864 4.259 13.75 5.433 7.328 0.87 36.915-0.545 51.888-2.483zm-263.59-6.277c3.313-1.384 9.702-7.848 9.702-9.816 0-3.722-13.085-17.422-19.678-20.602-4.362-2.104-8.306-0.384-11.289 4.924-3.073 5.467-2.46 12.353 1.614 18.151 5.591 7.954 12.241 10.439 19.651 7.343zm226.7-6.154c6.325-0.834 12.85-1.893 14.5-2.352 2.814-0.783 2.983-1.108 2.731-5.239-0.426-6.963-0.378-6.924-6.921-5.409-3.195 0.74-11.66 2.061-18.81 2.936s-14.35 1.783-16 2.018c-9.816 1.401-12.559 1.64-17.718 1.549-3.145-0.055-7.319 0.2-9.276 0.567-2.885 0.541-3.341 0.929-2.41 2.051 0.632 0.761 1.746 1.384 2.477 1.384 0.73 0 1.714 0.691 2.187 1.536 0.473 0.844 2.182 1.964 3.8 2.489 3.936 1.277 31.098 0.362 45.44-1.53zm55.09-5.083c10.521-1.438 12.91-2.065 12.91-3.388 0-0.893-0.415-2.051-0.922-2.574-0.507-0.522-1.214-2.537-1.57-4.477-0.926-5.048 2.067-8.503 9.151-10.562l5.527-1.607 2.95 2.826c1.646 1.577 3.426 4.716 4.026 7.098 0.889 3.532 1.488 4.272 3.457 4.272 2.832 0 3.068-2.35 0.852-8.5-0.792-2.2-1.433-4.9-1.424-6 0.016-1.945 0.056-1.948 1.441-0.118 0.784 1.034 1.925 4.289 2.536 7.232s1.418 5.535 1.793 5.761c0.784 0.469 25.54-5.794 28.933-7.32 2.774-1.248 2.989-5.53 0.627-12.461-1.399-4.106-1.916-4.676-3.75-4.134-1.17 0.346-5.502 1.316-9.627 2.155-8.991 1.829-23.845 5.211-45.5 10.358-8.8 2.092-22.862 5.087-31.25 6.656-17.011 3.182-16.046 2.356-13.819 11.823 1.94 8.246 2.851 8.714 12.692 6.52 4.432-0.987 13.867-2.59 20.967-3.56zm275.7 0.108c3.541-2.98 5.477-7.275 5.033-11.163-0.553-4.83-3.056-3.384-5.197 3.002l-1.964 5.86-3.845-0.516c-4.337-0.582-27.64-11.534-29.588-13.907-1.728-2.103-2.079-7.776-1.065-17.183 0.597-5.544 0.513-8.292-0.282-9.25-2.591-3.123-3.603-1.382-4.291 7.387-1.594 20.294-0.425 22.743 14.46 30.294 16.774 8.508 21.891 9.556 26.739 5.476zm-250.29-4.876c4.681-1.233 4.98-1.503 4.691-4.23-0.17-1.603-1.07-4.489-2-6.414-1.544-3.196-2.053-3.493-5.857-3.42-8.519 0.164-11.576 5.23-7.345 12.17 2.2 3.608 3.271 3.801 10.511 1.894zm133.5-0.679c17.359-2.831 27.568-8.983 32.11-19.347 1.868-4.262 2.255-7.005 2.316-16.403 0.058-8.896-0.237-11.478-1.392-12.193-2.595-1.605-3.729 0.607-3.254 6.344 0.247 2.968-0.053 9.12-0.665 13.67-1.323 9.824-3.67 13.527-11.362 17.92-7.81 4.461-27.987 8.111-31.219 5.648-2.876-2.192-3.659-31.976-1.001-38.104 0.827-1.908 0.754-1.928-1.583-0.434-1.347 0.862-3.575 3.787-4.95 6.5-2.241 4.423-2.498 6.126-2.479 16.434 0.026 13.93 1.767 18.747 7.479 20.692 3.544 1.206 4.377 1.169 16-0.727zm113.83-5.041c1.668-7.223 1.493-8.814-1.379-12.58-4.191-5.495-5.449-4.52-5.449 4.223 0 7.337-0.067 7.547-2.195 6.871-1.208-0.383-4.295-1.988-6.861-3.567s-5.239-2.871-5.941-2.871c-0.952 0-1.099-1.204-0.582-4.75 0.381-2.613 0.955-7.109 1.275-9.993l0.582-5.243-3.607-1.507c-1.984-0.829-4.018-1.507-4.521-1.507s-1.241 3.488-1.64 7.75c-0.398 4.262-0.847 8.425-0.997 9.25-0.639 3.51 1.571 6.062 7.703 8.892 3.456 1.596 9.646 4.522 13.756 6.504 4.109 1.982 7.744 3.604 8.078 3.604s1.134-2.284 1.778-5.076zm-532.21 2.453c6.804-3.229 9.143-10.008 5.755-16.677-2.615-5.146-11.092-16.213-15.402-20.107-2.441-2.204-4.994-3.593-6.607-3.593-6.128 0-14.365 8.618-14.365 15.03 0 4.655 2.059 7.739 10.903 16.329 7.148 6.943 8.405 7.78 10.783 7.184 3.195-0.802 7.95-4.049 11.032-7.535 1.406-1.589 2.23-1.994 2.25-1.103 0.049 2.174-7.797 9.111-11.038 9.759-1.594 0.319-2.653 0.975-2.355 1.458 0.86 1.391 5.315 1.024 9.044-0.745zm170.29-0.485c11.764-1.142 33.701-4.69 48.594-7.859 5.5-1.171 14.725-2.997 20.5-4.059 5.775-1.061 14.55-2.844 19.5-3.962s11.25-2.505 14-3.084 13.1-2.993 23-5.366c9.9-2.372 22.725-5.311 28.5-6.531 18.878-3.988 46.923-12.567 64-19.577 6.325-2.597 13.975-5.572 17-6.612 3.025-1.039 9.438-3.518 14.25-5.508 7.413-3.066 8.75-3.97 8.75-5.917 0-3.332-1.376-3.702-5.684-1.528-11.135 5.618-49.469 20.827-67.82 26.907-27.397 9.077-43.165 13.458-65.496 18.198-44.068 9.354-67.263 13.346-107.48 18.501-19.932 2.555-46.706 3.459-56.422 1.905-3.275-0.524-4.1-0.353-4.1 0.85 0 4.191 6.609 5.553 24.5 5.047 7.7-0.217 18.683-0.849 24.406-1.405zm244.3-4.142c1.326-1.044 1.664-4.524 2.044-21.084l0.456-19.833-3.603 0.656c-4.922 0.897-5.917 2.135-7.172 8.928-1.3 7.031-0.464 29.236 1.176 31.211 1.42 1.712 5 1.774 7.099 0.122zm13.177-2.733c1.085-1.085 3.012-35.439 2.123-37.825-0.324-0.868-1.92-1.204-4.747-1-4.219 0.305-4.265 0.35-4.935 4.808-0.372 2.475-0.709 11.646-0.75 20.381l-0.074 15.881 3.664-0.595c2.015-0.327 4.139-1.07 4.719-1.65zm94.726-8.846c0.21-5.906 0.03-6.489-2.692-8.714-1.604-1.312-3.442-2.401-4.084-2.421-1.111-0.034-3.333 7.936-3.333 11.957 0 2.061 7.955 7.458 9.175 6.224 0.39-0.394 0.811-3.565 0.934-7.046zm-335.11 4.83c21.164-2.17 45.938-6.305 82.793-13.82 18.411-3.754 23.432-5.188 18.124-5.175-2.43 6e-3 -20.103 3.013-29.417 5.007-6.724 1.438-25.583 4.662-33 5.64-3.3 0.435-16.35 0.756-29 0.714-20.923-0.069-24.264-0.326-37-2.849-32.318-6.401-57.061-18.62-81.286-40.143-4.302-3.822-5.115-4.244-4.363-2.267 0.543 1.429 0.571 4.658 0.067 7.845-0.965 6.108-1.456 5.133 7.973 15.834 14.12 16.025 33.766 26.847 54.822 30.196 6.875 1.094 35.492 0.535 50.287-0.982zm250.57-0.484c5.127-3.91 6.557-9.087 6.222-22.517l-0.288-11.5-4.76-0.305c-3.251-0.209-4.897 0.109-5.191 1-0.913 2.77-1.068 35.805-0.168 35.805 0.512 0 2.395-1.117 4.185-2.483zm-74.925-13.017c1.259-0.825 3.2-1.5 4.314-1.5 2.527 0 19.217-6.227 22.557-8.416 2.327-1.525 8.105-11.3 7.209-12.197-0.228-0.227-2.071 0.279-4.096 1.125s-7.309 2.685-11.743 4.085c-7.569 2.391-7.965 2.654-6.472 4.304 2.203 2.433 2.01 5.831-0.372 6.587-2.309 0.733-6.038-1.011-6.038-2.823 0-3.34-2.205-3.35-11.308-0.052-5.056 1.831-11.381 3.89-14.057 4.576-2.676 0.687-5.057 1.746-5.29 2.354s0.465 3.181 1.552 5.717l1.977 4.611 9.738-3.436c5.357-1.889 10.77-4.11 12.029-4.935zm-347.64 1.385c0-9.265 6.903-18.351 14.724-19.382 1.527-0.201 2.905-0.396 3.063-0.434s-1.521-2.733-3.732-5.989c-6.578-9.685-12.465-12.901-20.218-11.041-5.503 1.32-12.895 7.273-14.829 11.942-1.239 2.992-1.07 3.304 9.004 16.534 5.646 7.417 10.654 13.485 11.127 13.485 0.474 0 0.861-2.302 0.861-5.115zm225.5-0.86c7.7-1.136 14.675-2.268 15.5-2.515s9.375-1.833 19-3.526c18.244-3.208 27.582-5.488 29.817-7.282 0.724-0.582 4.859-1.1 9.189-1.151 4.331-0.052 7.338 0.246 6.684 0.662-4.171 2.652 9.971-1.074 33.668-8.87 22.743-7.482 54.854-21.948 63.465-28.592 14.628-11.285 29.658-35.756 33.51-54.558l1.372-6.693-2.723-3.138c-1.944-2.239-2.925-4.748-3.426-8.763-0.387-3.094-1.044-5.415-1.46-5.158-0.417 0.257-1.337 3.076-2.046 6.263-2.672 12.022-15.701 37.052-26.278 50.485-9.303 11.816-23.573 24.267-37.272 32.52-10.869 6.549-46.15 21.266-54.469 22.722-4.421 0.773-2.889-0.756 2.469-2.465 5.692-1.815 26.366-11.181 35.206-15.949 41.42-22.341 67.003-54.694 77.476-97.977 1.632-6.742 2.049-11.593 1.984-23.04-0.086-15.032-1.661-32.895-3.019-34.253-0.429-0.429-0.592 3.888-0.362 9.592 0.809 20.113-2.835 46.155-8.838 63.161-7.962 22.556-18.896 38.646-37.447 55.106-25.063 22.239-51.41 33.992-107.5 47.956-12.016 2.991-39.334 7.705-55.5 9.575-15.414 1.784-46.389 1.519-59.995-0.514-26.108-3.901-47.854-12.712-66.94-27.124-6.694-5.055-21.23-19.084-25.384-24.499-6.861-8.945-20.805-33.96-24.678-44.272-2.698-7.186-3.101-4.78-0.587 3.501 5.532 18.219 14.627 37.449 22.584 47.75 8.218 10.638 24.721 24.621 37.66 31.911 12.012 6.767 36.271 15.334 51.34 18.131 8.248 1.531 23.651 2.491 45 2.806 14.086 0.207 21.044-0.184 32-1.802zm3-12.908c25.64-3.581 46.612-8.582 76.089-18.145 16.237-5.267 26.883-9.819 39.922-17.07 32.951-18.324 52.472-39.872 64.229-70.902 9.326-24.61 10.638-60.716 3.286-90.364-2.625-10.585-8.465-25.53-9.552-24.444-0.279 0.279 1.275 6.763 3.453 14.408 4.969 17.437 6.247 26.931 6.175 45.881-0.108 28.741-4.328 46.733-16.415 69.994-7.454 14.346-22.581 29.941-40.867 42.132-7.666 5.111-24.43 13.616-36.82 18.68-20.609 8.424-70.919 21.347-92 23.632-51.674 5.602-86.747 1.8-115.12-12.478-15.296-7.7-32.215-23.443-43.998-40.941-7.274-10.802-17.791-31.958-21.376-43-3.855-11.873-7.312-30.585-8.143-44.073l-0.734-11.927-1.385 4.5c-1.13 3.672-1.188 7.115-0.313 18.707 1.243 16.451 2.707 24.136 7.096 37.233 10.753 32.087 31.281 60.586 54.968 76.315 11.746 7.8 16.657 10.197 32.364 15.798 9.537 3.401 25.929 6.885 39.136 8.318 9.427 1.022 46.52-0.371 60-2.254zm197.04-21.867c-0.596-3.28-3.998-8.419-4.763-7.194-0.153 0.244-0.958 1.794-1.789 3.444-0.83 1.65-2.958 3.675-4.728 4.5s-3.227 1.837-3.239 2.25 3.403 0.75 7.589 0.75h7.612l-0.682-3.75zm-375.77-0.5c1.025-1.267-2.106-15.267-5.401-24.151-0.837-2.254-2.19-6.349-3.008-9.099s-1.842-5.9-2.275-7c-0.434-1.1-1.438-4.025-2.232-6.5-0.793-2.475-1.985-4.387-2.647-4.25-1.597 0.332-1.556-1.464 0.046-2.007 2.587-0.877-18.033-57.531-22.894-62.902-3.051-3.372-5.14-4.067-8.694-2.894-3.235 1.067-6.662 5.426-6.662 8.472 0 0.886 1.358 4.018 3.018 6.959 4.743 8.405 10.628 22.594 17.469 42.122 3.469 9.9 7.52 20.7 9.003 24s3.778 9.6 5.099 14 2.823 8.9 3.337 10 1.434 3.636 2.044 5.635c1.73 5.669 4.916 8.732 9.158 8.804 1.995 0.033 4.082-0.501 4.639-1.189zm-21.317-9.481c0.366-0.952 0.189-1.889-0.393-2.083-0.581-0.194-1.057-1.44-1.057-2.769 0-1.33-0.378-2.417-0.841-2.417-0.462 0-1.414-2.587-2.114-5.75s-1.546-6.2-1.88-6.75-0.74-1.9-0.903-3c-1.111-7.501-20.817-60.288-25.012-67-1.233-1.974-1.276-1.969-3.25 0.361-2.717 3.207-2.548 4.787 1.426 13.3 4.446 9.523 6.639 15.132 13.033 33.339 4.952 14.098 8.182 22.324 12.645 32.195 1.043 2.307 1.896 4.419 1.896 4.693 0 1.121 4.257 7.612 4.992 7.612 0.437 0 1.093-0.779 1.458-1.731zm-15.941-16.478c-0.958-2.36-4.659-13.066-8.225-23.791-7.965-23.958-12.159-35-13.294-35-1.747 0 1.522 13.666 7.534 31.501 2.099 6.224 9.891 23.52 12.39 27.499 0.518 0.825 1.21 2.352 1.537 3.393 0.328 1.041 0.867 1.623 1.198 1.292s-0.182-2.533-1.14-4.894zm90.491-17.894c0-1.569-5.349-10.895-6.25-10.896-1.829-2e-3 0.411 6.881 3.497 10.749 1.234 1.546 2.753 1.627 2.753 0.147zm139.63-26.978c14.103-1.962 26.007-9.075 33.396-19.956 9.602-14.139 13.778-35.037 8.235-41.213-2.177-2.427-3.067-2.25-9.294 1.844-20.302 13.348-42.484 19.394-71.181 19.402-13.522 4e-3 -14.799 0.161-15.75 1.938-1.927 3.601-1.05 6.731 3.827 13.659 10.915 15.505 23.957 23.39 41.816 25.282 0.647 0.069 4.675-0.362 8.951-0.956zm-157.48-9.604c-5.903-20.399-7.443-31.871-7.001-52.158 0.192-8.832 0.028-15.736-0.365-15.343-1.339 1.34-2.927 24.454-2.328 33.898 0.888 13.998 3.507 25.172 8.839 37.704 2.813 6.609 3.29 4.316 0.855-4.101zm-12.152 4.266c0-0.231-0.667-3.043-1.483-6.25-6.027-23.696-5.857-60.416 0.401-86.703 5.189-21.797 17.38-46.043 33.463-66.555 2.553-3.257-2.546 0.746-11.768 9.236-12.237 11.266-21.104 23.093-28.632 38.191-7.34 14.721-9.953 24.338-10.932 40.239-1.331 21.614 1.41 38.393 9.337 57.149 3.565 8.436 7.472 15.092 8.864 15.105 0.413 4e-3 0.75-0.182 0.75-0.412zm23.419-5.331c-0.341-1.512-0.998-4.325-1.46-6.25s-1.631-9.434-2.597-16.687c-0.967-7.252-2.119-12.963-2.56-12.691-2.135 1.32 0.513 25.399 3.716 33.787 1.911 5.003 3.897 6.264 2.901 1.841zm351.15-9.307c2.464-2.044 0.954-26.139-6.606-105.43-1.152-12.083-2.371-14.941-6.746-15.816-8.569-1.714-9.587 1.347-7.68 23.103 1.919 21.887 7.044 62.961 9.094 72.872 0.891 4.308 1.716 8.483 1.832 9.278 0.117 0.795 0.787 1.637 1.489 1.871 0.965 0.322 0.986 0.604 0.087 1.159-0.851 0.526-0.985 2.792-0.473 7.987l0.715 7.253 3.449-0.559c1.897-0.308 4.075-1.079 4.839-1.714zm11.772-18.577c0.472-16.136-6.777-80.089-9.875-87.116-0.788-1.787-2.115-3.25-2.949-3.25-2.045 0-1.965 3.687 0.535 24.5 1.123 9.35 2.907 24.65 3.965 34 1.057 9.35 2.347 19.243 2.868 21.984 0.52 2.741 0.732 5.328 0.472 5.75-0.261 0.421-0.13 1.322 0.29 2.002 0.42 0.679 0.638 2.693 0.484 4.475-0.373 4.332 0.659 5.928 2.587 4.001 0.849-0.849 1.541-3.556 1.623-6.346zm-66.795-4.821c2.848-2.847 3.195-7.043 0.858-10.379-2.171-3.101-5.352-2.439-7.706 1.604-2.07 3.554-1.755 7.029 0.876 9.66 2.13 2.13 3.102 1.986 5.972-0.885zm-369.09-13.295c2.043-10.331 9.017-30.08 15.093-42.737 10.194-21.237 23.494-40.332 39.143-56.194 11.557-11.715 15.79-15.209 28.966-23.905 34.105-22.512 77.357-37.124 122.35-41.334 17.792-1.665 49.847 0.715 66.153 4.912 25.61 6.591 55.383 21.009 74.101 35.884 14.926 11.861 34.222 33.363 45.878 51.124 2.368 3.609 3.163 1.974 1.262-2.596-4.677-11.252-19.286-30.224-34.705-45.074-19.461-18.743-41.956-32.108-69.471-41.275-18.412-6.135-32.333-8.872-52.495-10.322-25.338-1.821-57.355 1.597-83.232 8.887-4.95 1.394-11.065 3.116-13.589 3.825-11.556 3.246-36.397 14.797-51.911 24.137-43.214 26.017-74.634 68.113-88.011 117.92-2.402 8.942-3.872 25.5-2.265 25.5 0.551 0 1.781-3.938 2.732-8.75zm354.54-2.822c0-7.412-3.258-24.196-6.642-34.222-3.073-9.102-11.347-26.512-15.58-32.782-4.468-6.619-8.578-10.088-4.945-4.174 12.972 21.118 25.144 57.396 25.163 75 2e-3 2.062 0.454 3.75 1.004 3.75 0.579 0 1-3.191 1-7.572zm84.578-26.183c-1.58-11.419-4.108-23.928-5.568-27.552-0.853-2.119-0.885-2.106-0.947 0.383-0.034 1.417 0.599 7.292 1.408 13.056s2.147 16.53 2.973 23.924c2.643 23.654 3.016 25.017 3.339 12.189 0.156-6.203-0.385-16.077-1.205-22zm-274.25 28.71c5.033-3.96 6.109-16.39 2.662-30.768-3.691-15.395-9.654-24.222-16.32-24.155-3.822 0.038-5.734 1.378-8.543 5.986-6.272 10.289 2.674 43.561 13.382 49.769 2.979 1.727 5.918 1.449 8.819-0.832zm-174.33-3.264c1e-3 -3.607 4.881-20.291 9.223-31.531 17.069-44.19 46.11-79.054 85.276-102.37 31.79-18.929 65.007-31.111 99.5-36.492 15.892-2.479 56.634-2.466 72.5 0.024 37.192 5.836 71.519 21.289 102.05 45.936 9.922 8.012 23.474 22.298 28.599 30.151 4.361 6.683 4.691 6.714 1.89 0.178-1.081-2.521-1.731-4.583-1.444-4.583 0.286 0 1.408 2.006 2.493 4.459 1.084 2.452 2.457 4.758 3.05 5.125 0.73 0.451 0.643 0.935-0.27 1.499-1.011 0.625-1.062 1.12-0.206 1.976s1.325 0.566 1.873-1.161c1.099-3.462-11.883-28.395-20.316-39.018-3.658-4.609-13.191-14.955-21.184-22.991-12.74-12.809-16.522-15.919-30.671-25.221-40.317-26.508-83.813-39.206-127.86-37.327-48.013 2.048-97.746 20.673-134.5 50.371-15.17 12.257-33.305 32.947-44.015 50.215-4.847 7.816-13.367 24.492-17.152 33.573-7.108 17.051-12.66 43.388-13.552 64.285-0.522 12.226-0.417 13.395 1.315 14.661 2.311 1.69 3.404 1.126 3.405-1.755zm378.12-10.227c3.322-7.511 2.614-26.592-1.498-40.334-4.96-16.576-12.946-31.495-24.648-46.042-19.681-24.468-40.517-37.868-70.832-45.552-11.71-2.969-17.32-3.291-8.641-0.497 3.3 1.062 6.582 1.938 7.294 1.946 0.711 8e-3 2.507 1.14 3.989 2.515l2.697 2.5h-2.502c-1.376 0-6.097-1.142-10.49-2.538-8.477-2.694-20.748-4.464-18.988-2.739 0.55 0.539 3.925 1.755 7.5 2.703 14.578 3.864 40.575 18.134 53.64 29.443 8.603 7.446 18.905 19.147 27.851 31.631 10.771 15.033 21.716 41.667 24.449 59.5 1.89 12.331 1.749 12 5.135 12 2.642 0 3.299-0.591 5.044-4.536zm-114.24-7.572c5.971-2.082 8.291-11.334 6.208-24.757-2.898-18.674-9.982-30.11-18.665-30.128-3.13-7e-3 -6.078 2.364-8.299 6.677-1.39 2.699-1.428 15.25-0.065 21.316 2.862 12.732 9.294 25.143 13.94 26.898 3.339 1.261 3.246 1.261 6.881-6e-3zm-179.78-16.028c7.79-2.604 14.226-12.485 14.335-22.007 0.047-4.155-0.425-6.183-1.79-7.693-4.625-5.117-13.209-3.085-18.584 4.399-7.692 10.712-8.019 22.494-0.705 25.445 2.865 1.157 2.851 1.157 6.744-0.144zm26.502-40.546c13.39-6.557 21.681-23.125 14.942-29.863-4.823-4.824-13.379-2.432-22.787 6.368-9.144 8.553-12.282 18.744-7.303 23.722 3.273 3.274 8.149 3.2 15.148-0.227zm199.94-10.773c3.131-3.13 3.284-9.201 0.382-15.196-4.121-8.512-16.679-17.349-24.655-17.349-6.938 0-12.212 6.934-10.365 13.627 3.982 14.421 26.718 26.839 34.638 18.918zm-47.801-28.748c3.864-3.207-1.64-12.846-8.401-14.713-8.176-2.257-13.15 4.078-8.172 10.407 4.246 5.397 12.633 7.577 16.573 4.306zm50.921 672.16c-5.839-0.98-17.925-6.587-22.457-10.419-4.52-3.821-3.252-4.451 1.476-0.733 6.727 5.291 19.549 10.083 30.816 11.517 2.259 0.288 2.012 0.39-1 0.415-2.2 0.017-6.176-0.333-8.835-0.78zm-25.265-112.79c0.404-0.653 3.118-1.161 6.201-1.161 5.942 0 18.115-2.255 25.364-4.698 2.494-0.841 10.385-4.42 17.535-7.952 15.687-7.751 12.773-4.898-3.686 3.61-13.089 6.765-23.23 9.682-37.223 10.709-6.645 0.487-8.726 0.358-8.191-0.508zm5.6-4.156c0-0.99 1.771-1.6 7.5-2.588 5.223-0.9 16.831-5.065 21.397-7.678 1.981-1.134 9.147-5.147 15.922-8.917 14.509-8.073 23.906-14.319 34.123-22.681 4.092-3.35 7.677-5.856 7.965-5.567 0.92 0.92-13.111 13.263-21.401 18.825-9.248 6.206-23.94 14.78-34.042 19.867-10.458 5.267-31.464 11.101-31.464 8.739zm-62.5-109.42c1.65-0.761 7.05-1.894 12-2.517 8.528-1.073 15.741-2.357 51-9.079 8.25-1.573 17.128-3.164 19.729-3.535s9.576-1.934 15.5-3.473 10.923-2.65 11.108-2.469c0.185 0.18-0.792 1.068-2.172 1.972-3.618 2.37-9.396 3.477-89.165 17.076-7.7 1.313-15.575 2.617-17.5 2.898l-3.5 0.512 3-1.385zm-3.5-10.55c0-1.603 3.116-2.738 11-4.006 4.125-0.664 11.1-2.045 15.5-3.07s14.975-3.239 23.5-4.922c24.73-4.879 22.453-4.035 22.818-8.454 0.431-5.211-2.461-27.347-4.779-36.583-1.036-4.125-2.256-9.512-2.711-11.971-1.347-7.272-2.728-7.457-21.137-2.825-8.63 2.171-22.891 5.486-31.691 7.367-11.164 2.386-16.397 3.95-17.313 5.174-1.524 2.037-1.321 3.915 2.879 26.598 1.614 8.714 2.934 16.219 2.934 16.679 0 2.181 3.118 3.884 5.473 2.988 2.924-1.111 36.79-8.451 48.408-10.491 9.015-1.583 14.35-0.709 8.018 1.313-2.974 0.95-21.696 5.409-47.399 11.29-9.745 2.23-13.897 2.339-15.82 0.415-1.808-1.808-4.035-11.739-6.736-30.037-2.319-15.708-2.017-19.751 1.656-22.157 3.642-2.387 41.47-12.302 54.46-14.276 3.542-0.538 8.118-1.28 10.17-1.65 3.318-0.598 4.056-0.323 6.687 2.494 1.994 2.135 3.341 5.026 4.135 8.877 2.393 11.612 7.361 16.986 16.581 17.938 6.327 0.653 6.989-1.039 0.798-2.043-7.802-1.267-15.431-11.058-15.431-19.805 0-13.645 19.416-17.652 28.182-5.816 4.271 5.765 3.132 17.233-2.328 23.451-3.234 3.684-2.467 4.431 2.581 2.512 1.411-0.537 2.565-0.738 2.565-0.448s-1.35 0.998-3 1.573c-3.068 1.069-4.089 2.85-1.635 2.85 3.777 0 10.19 8.69 12.02 16.287 1.741 7.225-5.125 17.495-13.135 19.648-5.398 1.451-11.341 0.025-16.32-3.915-3.457-2.735-3.609-2.764-4.782-0.886-0.666 1.067-2.263 2.34-3.55 2.829-2.219 0.843-22.94 5.371-32.598 7.122-2.475 0.449-11.925 2.181-21 3.85-18.45 3.392-19 3.453-19 2.1zm100.7-21.285c3.388-3.56 4.976-8.719 3.498-11.361-0.789-1.41-1.137-1.103-2.117 1.865-3.266 9.895-13.29 12.044-17.571 3.766-3.747-7.246 0.504-15.02 8.213-15.02 3.466 0 6.277 1.343 6.277 2.999 0 0.33-1.585 0.414-3.522 0.188-1.938-0.226-4.863 0.144-6.5 0.822-2.383 0.987-2.978 1.843-2.978 4.284 0 4.275 2.538 6.707 7 6.707 8.516 0 11.523-12.61 3.941-16.53-5.489-2.839-12.965-1.129-16.38 3.747-2.112 3.014-2.077 12.601 0.056 15.646 2.622 3.744 7.459 6.129 12.437 6.133 3.839 3e-3 5.039-0.506 7.646-3.246zm-9.653-36.75c0.486 0 2.474-1.397 4.418-3.104 2.948-2.588 3.535-3.772 3.535-7.131 0-3.441-0.656-4.684-4.5-8.528-4.204-4.205-4.77-4.464-8.612-3.949-4.623 0.62-9.361 4.475-10.351 8.422-1.193 4.75 1.212 9.105 6.8 12.315 2.84 1.632 5.762 2.743 6.495 2.471 0.732-0.273 1.729-0.496 2.215-0.496zm-79.829 25.445c4.034-2.19 37.269-10.461 41.568-10.345 3.612 0.097 3.554 0.151-2.117 1.984-6.57 2.123-38.927 9.938-40.892 9.876-0.703-0.022-0.054-0.704 1.441-1.515zm-10.883-19.014c-0.69-1.798 0.582-4.57 2.37-5.166 1.567-0.522 4.444 2.721 4.086 4.606-0.437 2.311-5.612 2.759-6.456 0.56zm12.165-4.237c2.878-2.728 37.979-10.339 35.292-7.653-0.297 0.298-7.46 2.085-15.916 3.971-8.457 1.886-16.501 3.699-17.876 4.029-1.593 0.383-2.137 0.257-1.5-0.347zm42.25-5.274c-2.492-1.452-2.164-3.774 0.72-5.088 4.356-1.985 7.775 2.896 3.596 5.133-2.302 1.232-2.12 1.234-4.316-0.045zm224.48 66.83c-0.558-0.688-2.338-4.175-3.954-7.75s-3.69-7.118-4.607-7.872c-1.782-1.466-2.271-4.128-0.758-4.128 1.673 0 6.024 6.045 7.05 9.795 0.558 2.038 1.92 5.178 3.027 6.979 1.106 1.801 2.012 3.488 2.012 3.75 0 0.945-1.778 0.448-2.77-0.774zm7.069-2c-2.636-2.895-3.938-5.46-6.869-13.542-3.021-8.329-2.283-9.427 1.082-1.61 1.398 3.246 3.822 8.489 5.388 11.652 1.565 3.163 2.756 5.75 2.647 5.75s-1.121-1.013-2.248-2.25zm-511.3-33.98c2.59-2.609 21.576-15.26 20.021-13.34-1.272 1.572-15.619 11.627-20.021 14.032-1.333 0.729-1.333 0.652 0-0.692zm283.49-94.781c-0.258-0.418 0.538-0.989 1.769-1.268s7.413-2.394 13.738-4.7c12.367-4.509 19.149-6.337 13-3.503-1.925 0.887-5.975 2.469-9 3.515s-8.546 2.985-12.269 4.309c-3.722 1.324-6.98 2.065-7.238 1.647zm-65.826-2.656c-1.212-1.211-0.693-6.067 0.778-7.287 2.108-1.75 5.968-0.894 6.41 1.422 0.325 1.703 0.159 1.789-1.227 0.638-2.101-1.744-4.628-0.71-4.628 1.894 0 2.544 2.511 3.651 4.513 1.989 1.212-1.006 1.487-0.934 1.487 0.389 0 1.172-0.925 1.622-3.333 1.622-1.834 0-3.634-0.3-4-0.667zm55.794-14.396c-1.158-1.873 2.65-4.937 6.135-4.937 4.262 0 5.338 1.826 2.452 4.162-2.48 2.009-7.542 2.466-8.587 0.775zm-195.63-11.46c-6.528-3.399-26.772-23.107-30.193-29.394-3.358-6.169-2.696-6.715 1.011-0.833 4.149 6.584 23.149 24.962 29.597 28.628 5.396 3.067 6.767 4.185 5 4.075-0.413-0.025-2.849-1.139-5.415-2.476zm-98.288-11.727c0.818-2.702 9.475-12.926 11.511-13.596 0.793-0.261-0.229 1.381-2.272 3.649s-4.861 5.94-6.263 8.16c-2.836 4.493-4.009 5.197-2.976 1.787zm26.999-218.25c3.63-15.849 15.799-41.251 26.108-54.5 9.521-12.237 9.962-11.796 1.396 1.392-10.811 16.642-18.611 31.718-23.081 44.608-3.318 9.568-5.729 14.202-4.423 8.5zm384.78-39.982c-1.003-1.365-3.848-5.445-6.323-9.067-2.475-3.621-5.737-8.191-7.25-10.155-3.217-4.177-3.645-6.416-0.721-3.77 3.018 2.731 17.861 25.474 16.625 25.474-0.28 0-1.329-1.117-2.331-2.482zm-322.82-47.214c24.392-24.271 72.803-47.006 111.32-52.28 10.295-1.4097 43.174-1.4634 53.542-0.0875 8.886 1.1793 22.155 4.215 28.133 6.4362 5.768 2.1434 3.771 1.9499-8.322-0.8062-18.252-4.1597-25.661-4.8225-48.408-4.3309-19.408 0.4194-22.496 0.74-35.27 3.6613-21.461 4.9079-39.595 11.485-58.299 21.144-15.055 7.774-20.445 11.255-42.701 27.573l-5 3.666 5-4.976zm13.826 2.977c0.375-0.606 4.392-3.562 8.927-6.571 25.968-17.223 67.729-31.943 101.25-35.688 19.122-2.1365 65.5-0.526 65.5 2.275 0 0.515-1.237 0.653-2.75 0.306-6.133-1.4057-43.956-1.8639-55.75-0.6754-21.269 2.1434-48.503 8.7024-69.398 16.713-9.668 3.706-36.313 16.518-39.102 18.801-2.788 2.282-9.359 5.948-8.674 4.839zm49.757-14.647c0.229-0.201 4.833-1.986 10.23-3.967 11.628-4.268 31.229-9.194 44.597-11.21 11.218-1.691 12.389-1.75 11.671-0.589-0.295 0.478-3.359 1.178-6.809 1.555-9.231 1.011-38.94 7.991-49.02 11.517-7.793 2.726-11.881 3.758-10.669 2.694zm177.14 418.18c-2.427-1.212-4.057-5.434-2.605-6.751 0.482-0.437 3.077-1.614 5.765-2.615l4.888-1.82 1.862 2.299c2.316 2.86 2.339 4.282 0.112 6.964-2.117 2.549-6.919 3.471-10.022 1.923z"/> </svg>