<?xml version='1.0' encoding='utf-8'?>
<svg xmlns="http://www.w3.org/2000/svg" width="1920" height="1920" version="1"> <defs> <radialGradient id="radialGradient39493" cx="4779.9" cy="1644.1" r="53.782" gradientTransform="matrix(-1.3173 0 0 1.1757 8561.3 -1083.1)" gradientUnits="userSpaceOnUse"> <stop stop-color="#89faf9" offset="0"/> <stop stop-color="#1c7577" offset="1"/> </radialGradient> </defs> <title>Inkscape Logo</title> <style>.specularity{opacity:.5}.low-specularity{opacity:.25}.full-specularity{opacity:1}.black{fill:#000}.white{fill:#fff}.outline-big{stroke-width:16;stroke:none;opacity:.1;fill:none}.outline-small{stroke-width:8}.outline-small,.stroke-highlight{fill:none;stroke:none;opacity:.2}.base-shadow{fill:#000;opacity:75}</style> <style>.specularity{opacity:.5}.low-specularity{opacity:.25}.full-specularity{opacity:1}.black{fill:#000}.white{fill:#fff}.outline-big{stroke-width:16;stroke:none;opacity:.1;fill:none}.outline-small{stroke-width:8}.outline-small,.stroke-highlight{fill:none;stroke:none;opacity:.2}.base-shadow{fill:#000;opacity:75}</style> <style>.specularity{opacity:.5}.low-specularity{opacity:.25}.full-specularity{opacity:1}.black{fill:#000}.white{fill:#fff}.outline-big{stroke-width:16;stroke:none;opacity:.1;fill:none}.outline-small{stroke-width:8}.outline-small,.stroke-highlight{fill:none;stroke:none;opacity:.2}.base-shadow{fill:#000;opacity:75}</style> <style>.specularity{opacity:.5}.low-specularity{opacity:.25}.full-specularity{opacity:1}.black{fill:#000}.white{fill:#fff}.outline-big{stroke-width:16;stroke:none;opacity:.1;fill:none}.outline-small{stroke-width:8}.outline-small,.stroke-highlight{fill:none;stroke:none;opacity:.2}.base-shadow{fill:#000;opacity:75}</style> <style>.specularity{opacity:.5}.low-specularity{opacity:.25}.full-specularity{opacity:1}.black{fill:#000}.white{fill:#fff}.outline-big{stroke-width:16;stroke:none;opacity:.1;fill:none}.outline-small{stroke-width:8}.outline-small,.stroke-highlight{fill:none;stroke:none;opacity:.2}.base-shadow{fill:#000;opacity:75}</style> <style>.specularity{opacity:.5}.low-specularity{opacity:.25}.full-specularity{opacity:1}.black{fill:#000}.white{fill:#fff}.outline-big{stroke-width:16;stroke:none;opacity:.1;fill:none}.outline-small{stroke-width:8}.outline-small,.stroke-highlight{fill:none;stroke:none;opacity:.2}.base-shadow{fill:#000;opacity:75}</style> <style>.specularity{opacity:.5}.low-specularity{opacity:.25}.full-specularity{opacity:1}.black{fill:#000}.white{fill:#fff}.outline-big{stroke-width:16;stroke:none;opacity:.1;fill:none}.outline-small{stroke-width:8}.outline-small,.stroke-highlight{fill:none;stroke:none;opacity:.2}.base-shadow{fill:#000;opacity:75}</style> <style>.specularity{opacity:.5}.low-specularity{opacity:.25}.full-specularity{opacity:1}.black{fill:#000}.white{fill:#fff}.outline-big{stroke-width:16;stroke:none;opacity:.1;fill:none}.outline-small{stroke-width:8}.outline-small,.stroke-highlight{fill:none;stroke:none;opacity:.2}.base-shadow{fill:#000;opacity:75}</style> <style>.specularity{opacity:.5}.low-specularity{opacity:.25}.full-specularity{opacity:1}.black{fill:#000}.white{fill:#fff}.outline-big{stroke-width:16;stroke:none;opacity:.1;fill:none}.outline-small{stroke-width:8}.outline-small,.stroke-highlight{fill:none;stroke:none;opacity:.2}.base-shadow{fill:#000;opacity:75}</style> <style>.specularity{opacity:.5}.low-specularity{opacity:.25}.full-specularity{opacity:1}.black{fill:#000}.white{fill:#fff}.outline-big{stroke-width:16;stroke:none;opacity:.1;fill:none}.outline-small{stroke-width:8}.outline-small,.stroke-highlight{fill:none;stroke:none;opacity:.2}.base-shadow{fill:#000;opacity:75}</style> <style>.specularity{opacity:.5}.low-specularity{opacity:.25}.full-specularity{opacity:1}.black{fill:#000}.white{fill:#fff}.outline-big{stroke-width:16;stroke:none;opacity:.1;fill:none}.outline-small{stroke-width:8}.outline-small,.stroke-highlight{fill:none;stroke:none;opacity:.2}.base-shadow{fill:#000;opacity:75}</style> <style>.specularity{opacity:.5}.low-specularity{opacity:.25}.full-specularity{opacity:1}.black{fill:#000}.white{fill:#fff}.outline-big{stroke-width:16;stroke:none;opacity:.1;fill:none}.outline-small{stroke-width:8}.outline-small,.stroke-highlight{fill:none;stroke:none;opacity:.2}.base-shadow{fill:#000;opacity:75}</style> <style>.specularity{opacity:.5}.low-specularity{opacity:.25}.full-specularity{opacity:1}.black{fill:#000}.white{fill:#fff}.outline-big{stroke-width:16;stroke:none;opacity:.1;fill:none}.outline-small{stroke-width:8}.outline-small,.stroke-highlight{fill:none;stroke:none;opacity:.2}.base-shadow{fill:#000;opacity:75}</style> <style>.specularity{opacity:.5}.low-specularity{opacity:.25}.full-specularity{opacity:1}.black{fill:#000}.white{fill:#fff}.outline-big{stroke-width:16;stroke:none;opacity:.1;fill:none}.outline-small{stroke-width:8}.outline-small,.stroke-highlight{fill:none;stroke:none;opacity:.2}.base-shadow{fill:#000;opacity:75}</style> <style>.specularity{opacity:.5}.low-specularity{opacity:.25}.full-specularity{opacity:1}.black{fill:#000}.white{fill:#fff}.outline-big{stroke-width:16;stroke:none;opacity:.1;fill:none}.outline-small{stroke-width:8}.outline-small,.stroke-highlight{fill:none;stroke:none;opacity:.2}.base-shadow{fill:#000;opacity:75}</style> <style>.specularity{opacity:.5}.low-specularity{opacity:.25}.full-specularity{opacity:1}.black{fill:#000}.white{fill:#fff}.outline-big{stroke-width:16;stroke:none;opacity:.1;fill:none}.outline-small{stroke-width:8}.outline-small,.stroke-highlight{fill:none;stroke:none;opacity:.2}.base-shadow{fill:#000;opacity:75}</style> <style>.specularity{opacity:.5}.low-specularity{opacity:.25}.full-specularity{opacity:1}.black{fill:#000}.white{fill:#fff}.outline-big{stroke-width:16;stroke:none;opacity:.1;fill:none}.outline-small{stroke-width:8}.outline-small,.stroke-highlight{fill:none;stroke:none;opacity:.2}.base-shadow{fill:#000;opacity:75}</style> <style>.specularity{opacity:.5}.low-specularity{opacity:.25}.full-specularity{opacity:1}.black{fill:#000}.white{fill:#fff}.outline-big{stroke-width:16;stroke:none;opacity:.1;fill:none}.outline-small{stroke-width:8}.outline-small,.stroke-highlight{fill:none;stroke:none;opacity:.2}.base-shadow{fill:#000;opacity:75}</style> <style>.specularity{opacity:.5}.low-specularity{opacity:.25}.full-specularity{opacity:1}.black{fill:#000}.white{fill:#fff}.outline-big{stroke-width:16;stroke:none;opacity:.1;fill:none}.outline-small{stroke-width:8}.outline-small,.stroke-highlight{fill:none;stroke:none;opacity:.2}.base-shadow{fill:#000;opacity:75}</style> <style>.specularity{opacity:.5}.low-specularity{opacity:.25}.full-specularity{opacity:1}.black{fill:#000}.white{fill:#fff}.outline-big{stroke-width:16;stroke:none;opacity:.1;fill:none}.outline-small{stroke-width:8}.outline-small,.stroke-highlight{fill:none;stroke:none;opacity:.2}.base-shadow{fill:#000;opacity:75}</style> <style>.specularity{opacity:.5}.low-specularity{opacity:.25}.full-specularity{opacity:1}.black{fill:#000}.white{fill:#fff}.outline-big{stroke-width:16;stroke:none;opacity:.1;fill:none}.outline-small{stroke-width:8}.outline-small,.stroke-highlight{fill:none;stroke:none;opacity:.2}.base-shadow{fill:#000;opacity:75}</style> <style>.specularity{opacity:.5}.low-specularity{opacity:.25}.full-specularity{opacity:1}.black{fill:#000}.white{fill:#fff}.outline-big{stroke-width:16;stroke:none;opacity:.1;fill:none}.outline-small{stroke-width:8}.outline-small,.stroke-highlight{fill:none;stroke:none;opacity:.2}.base-shadow{fill:#000;opacity:75}</style> <style>.specularity{opacity:.5}.low-specularity{opacity:.25}.full-specularity{opacity:1}.black{fill:#000}.white{fill:#fff}.outline-big{stroke-width:16;stroke:none;opacity:.1;fill:none}.outline-small{stroke-width:8}.outline-small,.stroke-highlight{fill:none;stroke:none;opacity:.2}.base-shadow{fill:#000;opacity:75}</style> <style>.specularity{opacity:.5}.low-specularity{opacity:.25}.full-specularity{opacity:1}.black{fill:#000}.white{fill:#fff}.outline-big{stroke-width:16;stroke:none;opacity:.1;fill:none}.outline-small{stroke-width:8}.outline-small,.stroke-highlight{fill:none;stroke:none;opacity:.2}.base-shadow{fill:#000;opacity:75}</style> <style>.specularity{opacity:.5}.low-specularity{opacity:.25}.full-specularity{opacity:1}.black{fill:#000}.white{fill:#fff}.outline-big{stroke-width:16;stroke:none;opacity:.1;fill:none}.outline-small{stroke-width:8}.outline-small,.stroke-highlight{fill:none;stroke:none;opacity:.2}.base-shadow{fill:#000;opacity:75}</style> <style>.specularity{opacity:.5}.low-specularity{opacity:.25}.full-specularity{opacity:1}.black{fill:#000}.white{fill:#fff}.outline-big{stroke-width:16;stroke:none;opacity:.1;fill:none}.outline-small{stroke-width:8}.outline-small,.stroke-highlight{fill:none;stroke:none;opacity:.2}.base-shadow{fill:#000;opacity:75}</style> <style>.specularity{opacity:.5}.low-specularity{opacity:.25}.full-specularity{opacity:1}.black{fill:#000}.white{fill:#fff}.outline-big{stroke-width:16;stroke:none;opacity:.1;fill:none}.outline-small{stroke-width:8}.outline-small,.stroke-highlight{fill:none;stroke:none;opacity:.2}.base-shadow{fill:#000;opacity:75}</style> <style>.specularity{opacity:.5}.low-specularity{opacity:.25}.full-specularity{opacity:1}.black{fill:#000}.white{fill:#fff}.outline-big{stroke-width:16;stroke:none;opacity:.1;fill:none}.outline-small{stroke-width:8}.outline-small,.stroke-highlight{fill:none;stroke:none;opacity:.2}.base-shadow{fill:#000;opacity:75}</style> <style>.specularity{opacity:.5}.low-specularity{opacity:.25}.full-specularity{opacity:1}.black{fill:#000}.white{fill:#fff}.outline-big{stroke-width:16;stroke:none;opacity:.1;fill:none}.outline-small{stroke-width:8}.outline-small,.stroke-highlight{fill:none;stroke:none;opacity:.2}.base-shadow{fill:#000;opacity:75}</style> <style>.specularity{opacity:.5}.low-specularity{opacity:.25}.full-specularity{opacity:1}.black{fill:#000}.white{fill:#fff}.outline-big{stroke-width:16;stroke:none;opacity:.1;fill:none}.outline-small{stroke-width:8}.outline-small,.stroke-highlight{fill:none;stroke:none;opacity:.2}.base-shadow{fill:#000;opacity:75}</style> <style>.specularity{opacity:.5}.low-specularity{opacity:.25}.full-specularity{opacity:1}.black{fill:#000}.white{fill:#fff}.outline-big{stroke-width:16;stroke:none;opacity:.1;fill:none}.outline-small{stroke-width:8}.outline-small,.stroke-highlight{fill:none;stroke:none;opacity:.2}.base-shadow{fill:#000;opacity:75}</style> <style>.specularity{opacity:.5}.low-specularity{opacity:.25}.full-specularity{opacity:1}.black{fill:#000}.white{fill:#fff}.outline-big{stroke-width:16;stroke:none;opacity:.1;fill:none}.outline-small{stroke-width:8}.outline-small,.stroke-highlight{fill:none;stroke:none;opacity:.2}.base-shadow{fill:#000;opacity:75}</style> <style>.specularity{opacity:.5}.low-specularity{opacity:.25}.full-specularity{opacity:1}.black{fill:#000}.white{fill:#fff}.outline-big{stroke-width:16;stroke:none;opacity:.1;fill:none}.outline-small{stroke-width:8}.outline-small,.stroke-highlight{fill:none;stroke:none;opacity:.2}.base-shadow{fill:#000;opacity:75}</style> <style>.specularity{opacity:.5}.low-specularity{opacity:.25}.full-specularity{opacity:1}.black{fill:#000}.white{fill:#fff}.outline-big{stroke-width:16;stroke:none;opacity:.1;fill:none}.outline-small{stroke-width:8}.outline-small,.stroke-highlight{fill:none;stroke:none;opacity:.2}.base-shadow{fill:#000;opacity:75}</style> <style>.specularity{opacity:.5}.low-specularity{opacity:.25}.full-specularity{opacity:1}.black{fill:#000}.white{fill:#fff}.outline-big{stroke-width:16;stroke:none;opacity:.1;fill:none}.outline-small{stroke-width:8}.outline-small,.stroke-highlight{fill:none;stroke:none;opacity:.2}.base-shadow{fill:#000;opacity:75}</style> <style>.specularity{opacity:.5}.low-specularity{opacity:.25}.full-specularity{opacity:1}.black{fill:#000}.white{fill:#fff}.outline-big{stroke-width:16;stroke:none;opacity:.1;fill:none}.outline-small{stroke-width:8}.outline-small,.stroke-highlight{fill:none;stroke:none;opacity:.2}.base-shadow{fill:#000;opacity:75}</style> <style>.specularity{opacity:.5}.low-specularity{opacity:.25}.full-specularity{opacity:1}.black{fill:#000}.white{fill:#fff}.outline-big{stroke-width:16;stroke:none;opacity:.1;fill:none}.outline-small{stroke-width:8}.outline-small,.stroke-highlight{fill:none;stroke:none;opacity:.2}.base-shadow{fill:#000;opacity:75}</style> <style>.specularity{opacity:.5}.low-specularity{opacity:.25}.full-specularity{opacity:1}.black{fill:#000}.white{fill:#fff}.outline-big{stroke-width:16;stroke:none;opacity:.1;fill:none}.outline-small{stroke-width:8}.outline-small,.stroke-highlight{fill:none;stroke:none;opacity:.2}.base-shadow{fill:#000;opacity:75}</style> <g> <path d="m1920 0h-1920v1920h1920z" fill="#72c38d" overflow="visible" stroke-width="17.218"/> <g transform="translate(1.2375e-5)"> <path d="m-2.475e-5 0v1062.4a2322.7 623.82 0 0 1 960-56.679 2322.7 623.82 0 0 1 960 56.584v-1062.3z" fill="#80c998" fill-rule="evenodd" shape-rendering="crispEdges"/> <path d="m1572.3 989.09-17.692 32.007 24.622-27.041-23.596 27.941 29.424-21.718-28.594 22.801 33.096-15.56-32.492 16.784 35.496-8.8047-35.142 10.123 36.531-1.7107-36.442 3.0723 36.163 5.4491-36.341-4.0963 34.405 12.4-34.844-11.107 31.325 18.873-32.007-17.692 27.041 24.622-27.941-23.596 21.718 29.424-22.801-28.594 15.56 33.096-16.784-32.492 8.8047 35.496-10.123-35.142 1.7107 36.531-3.0723-36.442-5.4491 36.163 4.0963-36.341-12.4 34.405 11.107-34.844-18.873 31.325 17.692-32.007-24.622 27.041 23.596-27.941-29.424 21.718 28.594-22.801-33.096 15.56 32.492-16.784-35.496 8.8047 35.142-10.123-36.531 1.7106 36.442-3.0722-36.163-5.4491 36.341 4.0963-34.405-12.4 34.844 11.107-31.325-18.873 32.007 17.692-27.041-24.622 27.941 23.596-21.718-29.424 22.801 28.594-15.56-33.096 16.784 32.492-8.8047-35.496 10.123 35.142-1.7107-36.531 3.0723 36.442 5.4491-36.163-4.0963 36.341 12.4-34.405-11.107 34.844z" fill="#9cd5af" stop-color="#000000" style="-inkscape-stroke:none"/> </g> </g> <metadata> </metadata> <ellipse transform="scale(-1,1)" cx="-984.8" cy="1766.5" rx="669.56" ry="86.477" fill="#60a477" overflow="visible" stop-color="#000000" stroke-linecap="round" stroke-opacity="0" stroke-width="51.96" style="-inkscape-stroke:none;font-variation-settings:normal;isolation:auto;mix-blend-mode:normal"/> <style type="text/css">.specularity {opacity:0.5;} .low-specularity {opacity:0.25;} .full-specularity {opacity:1;} .black {fill:#000000;} .white {fill:#ffffff;} .outline-big {stroke-width:16;stroke:none;opacity:0.1;fill:none;} .outline-small {stroke-width:8;stroke:none;opacity:0.2;fill:none;} .stroke-highlight {fill:none;stroke:none;opacity:0.2;} .base-shadow {fill:black;opacity:75;}</style> <g> <path d="m807.76 122.97a16.002 16.002 0 0 0-0.02344 0.00586c-81.046 0.9247-167.62 14.763-264.96 42.939a16.002 16.002 0 0 0-2.9316 1.1738c-136.16 70.787-200.07 186.01-233.23 310.12-33.119 123.98-37.123 257.76-54.814 371.37-0.68847 2.438-1.3423 4.7227-1.7441 7.1914-0.2453 1.5069-0.59821 2.8915-0.26758 6.1348 0.16531 1.6216 0.30729 3.9298 2.5566 7.4707s8.6903 7.5957 13.809 7.5957a16.002 16.002 0 0 0 15.787-13.404c0.51574-3.1372 0.86949-5.9229 1.2441-8.4629 4.2637-14.374 17.797-49.129 30.979-81.754 1.9607 9.5078 4.6713 18.964 8.1719 28.287l14.201 196.43a16.002 16.002 0 0 0 30.539 5.4317l7.1133-15.75 3.2266 12.32c-13.949 106.89-29.76 224.29-14.836 323.81 7.5334 50.238 23.049 96.232 51.691 133.23 25.363 32.765 61.142 57.848 108.3 72.002l-42.287 94.119-5.5703 3.9785a16.002 16.002 0 0 0-6.5254 10.658l-6.0488 40.522-23.17 40.242a16.002 16.002 0 0 0 2.1777 18.908c1.3277 1.4205 2.6051 2.4316 3.9219 3.6875 0.0598 0.6516 0.12965 1.2908 0.20898 1.9063 3.2e-4 0-3.2e-4 0.0097 0 0.0097 0.17736 1.3886 0.41083 2.8987 0.77539 4.5411a16.002 16.002 0 0 0 0.00586 0.0234c0.19763 0.8842 0.33197 1.34 0.33789 1.3633 0.35407 1.4018 0.78291 2.886 1.3398 4.4433a16.002 16.002 0 0 0 0.00586 0.0176c0.25774 0.718 0.41562 1.0854 0.4375 1.1406 0.46257 1.1942 1.0125 2.519 1.7246 3.9532a16.002 16.002 0 0 0 0.06836 0.0879c12.561 25.103 43.725 33.414 69.266 22.226a16.002 16.002 0 0 0 0.23242-0.0488c6.7145-2.9747 13.064-7.3661 18.605-13.041 1.9094 0.025 3.82 0.021 5.8359 0.084a16.002 16.002 0 0 0 13.475-6.625l8.4434-11.692a16.002 16.002 0 0 0 1.7988-15.52l0.5625 1.3516 10.398-12a16.002 16.002 0 0 0 3.0254-5.2344l10.666-30.74 77.939-150.81 15.127-13.039c1.8429-0.011 3.7262-0.0642 5.5352-0.0372l-17.25 81.549a16.002 16.002 0 0 0-0.31836 2.375l-0.21094 3.5937c-0.63854 2.5123-1.3036 5.0855-1.9219 8.0215a16.002 16.002 0 0 0-0.32813 2.6231c-0.50071 11.881-0.64997 21.651-0.17578 30.596l-1.2598 21.41a16.002 16.002 0 0 0 9.9004 15.482c5.4567 11.515 13.465 22.357 24.453 35.998a16.002 16.002 0 0 0 7.3418 5.123c31.976 10.795 62.036 28.57 93.982 45.77a16.002 16.002 0 0 0 2.4316 1.0586c73.769 25.099 144.51 56.71 214.91 91.086a16.002 16.002 0 0 0 8.6152 1.543l5.3457-0.5352 17.537 6.8633a16.002 16.002 0 0 0 12.002-0.7988l23.447 9.8711a16.002 16.002 0 0 0 10.022 0.7929c30.99-7.6034 44.412-24.64 54.127-34.785a16.002 16.002 0 0 0 3.8789-6.8496c9.3559-34.253 11.111-61.65-4.7461-93.938a16.002 16.002 0 0 0-10.371-8.4415l-34.779-8.9589a16.002 16.002 0 0 0-3.914-4.7246l-30.164-23.576 193.49-108.74a16.002 16.002 0 0 0 0.8418-0.5078l25.139-16.234a16.002 16.002 0 0 0 4.4375 9.0508l141.41 139.59 2.4863 4.9805a16.002 16.002 0 0 0 2.6289 3.7812l24.611 26.313 10.826 26.644a16.002 16.002 0 0 0 17.522 9.748c6.2082-1.0621 12.036-1.8018 17.725-2.4199l1.3789 3.8867a16.002 16.002 0 0 0 13.836 10.602c38.513 3.0016 77.522 3.6987 111.44-12.568a16.002 16.002 0 0 0 4.6523-3.3769c17.148-17.962 16.205-38.306 18.377-48.691a16.002 16.002 0 0 0-5.9258-15.973l-22.98-17.619a16.002 16.002 0 0 0-7.0215-8.9297l-4.3984-2.6367-9.0547-24.162a16.002 16.002 0 0 0-12.205-10.143l-9.9687-1.7559-183.69-214.75-1.9355-9.6836a16.002 16.002 0 0 0-6.9199-10.246l-26.635-17.453a16.002 16.002 0 0 0-0.9258-0.5625l-44.088-24.801a16.002 16.002 0 0 0-14.465-0.6211l-19.574 8.8965-105.31 37.117 4.1953-44.291 19.838-36.066a16.002 16.002 0 0 0-4.6094-20.65l-7.6992-5.5996v-98.797l6.205-32.275a16.002 16.002 0 0 0 0.1075-5.418l-3.2461-21.434a16.002 16.002 0 0 0-2.2813-4.8964c2.8206-18.841-1.4646-35.812-10.172-48.248 3.6795-1.586 7.351-3.1754 10.838-4.8183 5.4016-0.6037 10.92-1.7132 16.545-3.3321l6.2949 9.5059a16.002 16.002 0 0 0 19.459 5.9492c2.9128-1.2055 5.5717-2.5237 8.3769-3.7773l-3.3515 26.226a16.002 16.002 0 0 0 31.002 7.2305l18.342-53.361 11.287 85.164a16.002 16.002 0 0 0 31.508 1.252l39.264-183.22 14.963 33.863a16.002 16.002 0 0 0 29.742-1.1973c37.956-108.82 59.49-227.57 57.773-341.51a16.002 16.002 0 0 0 0.7012-0.88671c15.058-38.613 10.636-100.26-12.272-159.39a16.002 16.002 0 0 0-2.3223-4.0859c-3.5294-4.506-6.9863-8.6763-10.394-12.832-25.197-89.824-71.048-170.31-142.6-230.13a16.002 16.002 0 0 0-2.2402-1.5684c-177.97-103.12-328.31-163.94-506.63-161.91zm-368.03 920.33 45.162 99.828a16.002 16.002 0 0 0 28.066 1.2227l14.02 33.297a16.002 16.002 0 0 0 30.535-8.7949c-5.6848-34.715-7.9693-69.366-7.9609-104.08 38.039 22.118 85.679 43.242 146.45 63.496l-31.459 93.475-9.4473 5.6289a16.002 16.002 0 0 0-7.3828 10.074l-11.621 49.307-76.871 160.82a16.002 16.002 0 0 0-0.16016 0.3437l-20.449 45.516c-80.681-27.175-116-91.559-130.44-175.46-11.184-64.988-8.1495-140.5-0.82422-213.58a16.002 16.002 0 0 0 27.213-8.5449l5.168-52.551zm662.92 101.39c-0.6413 3.108-1.1873 6.3117-1.5723 9.6777a16.002 16.002 0 0 0-12.078 14.098l-1.9473 33.736-5.6894 90.783a16.002 16.002 0 0 0-6.0664-4.1035l-0.2813-0.4903a16.002 16.002 0 0 0-5.8301-5.8574l-11.641-6.7695-20.646-23.969a16.002 16.002 0 0 0-1.3906-4.8125l-20.828-41.652 4.9511-42.1a16.002 16.002 0 0 0 0.0547-2.4121c29.215-4.2943 57.018-9.7603 82.965-16.129zm83.857 10.902 0.3789 0.3984a16.002 16.002 0 0 0-0.3848 0.0039c0.0098-0.1387-0.0029-0.2641 0.0059-0.4023zm-182.47 256.77 26.529 22.66 1.9062 6.4785a16.002 16.002 0 0 0 5.2481 7.8946l27.928 22.732a16.002 16.002 0 0 0 0.0488 0.0391l3.959 3.1972-36.662 9.0235-24.947-41.734-4.0098-30.291zm-281.01 23.865-4.8184 29.357-10.199 16.024c-3.1808-0.3701-6.2777-0.5885-9.3477-0.7598l24.365-44.621z" color="#000000" fill="#fff" stroke-linecap="round" stroke-linejoin="round" stroke-width="32" style="-inkscape-stroke:none"/> <g> <path d="m1331.8 861.68c47.471 93.798 35.972 193.15-93.284 246.64l-13.12-19.812c-149.15 61.723-148.06-298.53 10.683-239.85l17.251-15.988z" fill="#506567" fill-rule="evenodd" stroke-opacity="0"/> <g transform="matrix(5.196 0 0 5.196 154.11 -924.5)" fill="#fff9e9" fill-rule="evenodd" stroke-opacity="0"> <path d="m154.77 406.67c13.666 15.382 19.527 22.897 33.72 37.797 11.993 11.125-4.563 21.354-10.235 14.047l-38.148-35.865c-9.116-7.348 7.391-25.024 14.663-15.979z" stroke-width="3.408"/> <path d="m107.98 401.07-19.819 44.391-5.12 9.795c-6.43 12.103 11.23 20.228 13.929 12.655l26.378-48.563c5.075-8.198-11.854-27.695-15.368-18.278z" stroke-width="2.478"/> <path d="m81.548 458.21c3.118-5.426 22.58-3.081 15.627 10.934l-23.32 43.46c-4.317 10.938-20.588 5.647-12.697-6.765z" stroke-width="2.476"/> <path d="m121.4 397.01-13.59 6.715c2.947 25.603 10.054 45.99 3.234 59.874-5.272 8.829-4.713 19.247-6.87 37.618l34.387 7.566 33.648-8.805c-0.24-6.665 0.99-10.959-1.825-17.199-3.48-7.716-7.13-18.21-9.337-26.337-4.266-15.702-1.65-29.991-6.884-49.679l-19.107-10.557z" stroke-width="3.069"/> </g> <g transform="matrix(5.196 0 0 5.196 154.11 -924.5)" fill-rule="evenodd" stroke-opacity="0"> <path d="m128.17 397.12-3.161 2.297 6.889 5.443 11.421-6.197-1.494-0.738-13.656-0.805z" fill="#f8ded8" stroke-width="3.391"/> <path d="m178.39 453.37c-0.569 6.691 15.134 12.936 17.575-3.674l2.398-47.164c2.882-12.285-12.547-16.26-13.18-0.49z" fill="#fff9e9" stroke-width="3.42"/> <path d="m135.03 400.4c36.329 0.448 72.594-9.652 77.424-21.115l4.025-11.566c7.793-14.879 12.59-30.445 16.757-46.405 8.79-43.441-7.945-78.066-30.329-92.53-47.46-36.452-128.95-29.862-154.37 29.12-10.875 29.585-15.286 53.312 5.13 99.804 9.964 15.799 26.96 30.117 81.363 42.692z" fill="#fff9e9" stroke-width="3.125"/> <path d="m179 272.98-117.5 51 6.979 50.12a79.463 79.463 0 0 0 7.69 5.264l2.081-36.384 72-49c4.662 18.478-0.922 44.369-8.75 72l42-29.5 16.5-13 7.5 23.25 7-8.75c1.779 7.684 3.643 15.197 2.828 28.07 7.29-14.372 11.893-29.368 15.904-44.73 0.227-1.119 0.425-2.228 0.618-3.335z" fill="#f8ded8"/> </g> <g transform="matrix(1.9232 -.16321 .19346 1.6225 -3814.7 -29.972)" shape-rendering="crispEdges"> <path d="m2226.6 800.76a37.375 55.869 0 0 0 37.375 55.869 37.375 55.869 0 0 0 37.375-55.869 37.375 55.869 0 0 0-37.375-55.869 37.375 55.869 0 0 0-37.375 55.869" fill="url(#radialGradient39493)"/> <path d="m2264 750.1-1.5289 25.678-4.8508-24.739 1.8518 25.631-7.9864-22.849 5.1614 24.598-10.815-20.081 8.2726 22.621-13.228-16.541 11.066 19.773-15.133-12.366 13.434 16.166-16.456-7.7153 15.286 11.938-17.146-2.7681 16.55 7.2511-17.178 2.2854 17.178 2.2855-16.55 7.2511 17.146-2.7681-15.286 11.938 16.456-7.7153-13.434 16.166 15.133-12.366-11.066 19.773 13.228-16.541-8.2726 22.621 10.815-20.081-5.1614 24.598 7.9864-22.849-1.8518 25.631 4.8508-24.739 1.5289 25.678 1.5289-25.678 4.8509 24.739-1.8518-25.631 7.9863 22.849-5.1613-24.598 10.815 20.081-8.2725-22.621 13.228 16.541-11.066-19.773 15.133 12.366-13.434-16.166 16.456 7.7153-15.286-11.938 17.147 2.7681-16.55-7.2511 17.178-2.2855-17.178-2.2854 16.55-7.2511-17.147 2.7681 15.286-11.938-16.456 7.7152 13.434-16.166-15.133 12.366 11.066-19.773-13.228 16.541 8.2725-22.621-10.815 20.081 5.1613-24.598-7.9863 22.849 1.8518-25.631-4.8509 24.739z" fill="#80e5ff" opacity=".2"/> <path d="m2241.4 800.76a22.619 33.812 0 0 0 22.619 33.811 22.619 33.812 0 0 0 22.619-33.811 22.619 33.812 0 0 0-22.619-33.811 22.619 33.812 0 0 0-22.619 33.811" fill="#506567"/> <path d="m2294.8 769.15a37.375 55.869 0 0 1 6.0648 22.582 111.8 56.114 0 0 0-36.885-3.1415 111.8 56.114 0 0 0-36.883 3.1415 37.375 55.869 0 0 1 6.0648-22.582 111.8 56.114 0 0 1 0.6289-0.0901 111.8 56.114 0 0 1 0.866-0.12007 111.8 56.114 0 0 1 0.8691-0.11691 111.8 56.114 0 0 1 0.8706-0.11383 111.8 56.114 0 0 1 0.8723-0.10898 111.8 56.114 0 0 1 0.8738-0.10591 111.8 56.114 0 0 1 0.8755-0.10275 111.8 56.114 0 0 1 0.877-0.0995 111.8 56.114 0 0 1 0.8785-0.0948 111.8 56.114 0 0 1 0.8802-0.0917 111.8 56.114 0 0 1 0.8817-0.0884 111.8 56.114 0 0 1 0.8834-0.0853 111.8 56.114 0 0 1 0.8849-0.0809 111.8 56.114 0 0 1 0.8849-0.0793 111.8 56.114 0 0 1 0.888-0.0728 111.8 56.114 0 0 1 0.8881-0.0712 111.8 56.114 0 0 1 0.8881-0.0663 111.8 56.114 0 0 1 0.8912-0.0631 111.8 56.114 0 0 1 0.8912-0.0599 111.8 56.114 0 0 1 0.8912-0.0566 111.8 56.114 0 0 1 0.8928-0.0518 111.8 56.114 0 0 1 0.8944-0.0494 111.8 56.114 0 0 1 0.8944-0.0461 111.8 56.114 0 0 1 0.896-0.0413 111.8 56.114 0 0 1 0.8959-0.038 111.8 56.114 0 0 1 0.896-0.0348 111.8 56.114 0 0 1 0.8975-0.0299 111.8 56.114 0 0 1 0.8976-0.0283 111.8 56.114 0 0 1 0.8975-0.0235 111.8 56.114 0 0 1 0.8976-0.0194 111.8 56.114 0 0 1 0.8991-0.0162 111.8 56.114 0 0 1 0.8991-0.0146 111.8 56.114 0 0 1 0.8992-8e-3 111.8 56.114 0 0 1 0.8975-8e-3 111.8 56.114 0 0 1 0.8991 0 111.8 56.114 0 0 1 0.7253 0 111.8 56.114 0 0 1 0.8992 8e-3 111.8 56.114 0 0 1 0.8991 8e-3 111.8 56.114 0 0 1 0.8991 0.013 111.8 56.114 0 0 1 0.8991 0.0162 111.8 56.114 0 0 1 0.8976 0.0186 111.8 56.114 0 0 1 0.8975 0.0218 111.8 56.114 0 0 1 0.8976 0.0267 111.8 56.114 0 0 1 0.8975 0.0299 111.8 56.114 0 0 1 0.896 0.0348 111.8 56.114 0 0 1 0.8959 0.0364 111.8 56.114 0 0 1 0.896 0.0413 111.8 56.114 0 0 1 0.8944 0.0445 111.8 56.114 0 0 1 0.8944 0.0494 111.8 56.114 0 0 1 0.8928 0.0518 111.8 56.114 0 0 1 0.8928 0.055 111.8 56.114 0 0 1 0.8912 0.0583 111.8 56.114 0 0 1 0.8912 0.0631 111.8 56.114 0 0 1 0.8881 0.0663 111.8 56.114 0 0 1 0.8896 0.0696 111.8 56.114 0 0 1 0.8865 0.0728 111.8 56.114 0 0 1 0.8865 0.0777 111.8 56.114 0 0 1 0.8833 0.0809 111.8 56.114 0 0 1 0.8833 0.0837 111.8 56.114 0 0 1 0.8834 0.0884 111.8 56.114 0 0 1 0.8801 0.0901 111.8 56.114 0 0 1 0.8786 0.0948 111.8 56.114 0 0 1 0.877 0.0995 111.8 56.114 0 0 1 0.877 0.10113 111.8 56.114 0 0 1 0.8739 0.1059 111.8 56.114 0 0 1 0.8722 0.10898 111.8 56.114 0 0 1 0.8707 0.11222 111.8 56.114 0 0 1 0.8691 0.11537 111.8 56.114 0 0 1 0.8675 0.12006 111.8 56.114 0 0 1 0.7964 0.11384z" fill="#1c787a"/> <path d="m2294.8 769.15a111.8 56.114 0 0 0-0.7964-0.11383 111.8 56.114 0 0 0-0.8675-0.12006 111.8 56.114 0 0 0-0.8691-0.11537 111.8 56.114 0 0 0-0.8707-0.11222 111.8 56.114 0 0 0-0.8722-0.10898 111.8 56.114 0 0 0-0.8739-0.10591 111.8 56.114 0 0 0-0.877-0.10113 111.8 56.114 0 0 0-0.877-0.0995 111.8 56.114 0 0 0-0.8786-0.0948 111.8 56.114 0 0 0-0.8801-0.0901 111.8 56.114 0 0 0-0.8834-0.0884 111.8 56.114 0 0 0-0.8833-0.0837 111.8 56.114 0 0 0-0.8833-0.0809 111.8 56.114 0 0 0-0.8865-0.0777 111.8 56.114 0 0 0-0.8865-0.0728 111.8 56.114 0 0 0-0.8896-0.0696 111.8 56.114 0 0 0-0.8881-0.0663 111.8 56.114 0 0 0-0.8912-0.0631 111.8 56.114 0 0 0-0.8912-0.0583 111.8 56.114 0 0 0-0.8928-0.055 111.8 56.114 0 0 0-0.8928-0.0518 111.8 56.114 0 0 0-0.8944-0.0494 111.8 56.114 0 0 0-0.8944-0.0445 111.8 56.114 0 0 0-0.896-0.0413 111.8 56.114 0 0 0-0.8959-0.0364 111.8 56.114 0 0 0-0.896-0.0348 111.8 56.114 0 0 0-0.8975-0.0299 111.8 56.114 0 0 0-0.8976-0.0267 111.8 56.114 0 0 0-0.8975-0.0218 111.8 56.114 0 0 0-0.8976-0.0186 111.8 56.114 0 0 0-0.8991-0.0162 111.8 56.114 0 0 0-0.8991-0.0129 111.8 56.114 0 0 0-0.8991-8e-3 111.8 56.114 0 0 0-0.8992-8e-3 111.8 56.114 0 0 0-0.7253 0 111.8 56.114 0 0 0-0.8991 0 111.8 56.114 0 0 0-0.8975 8e-3 111.8 56.114 0 0 0-0.8992 8e-3 111.8 56.114 0 0 0-0.8991 0.0146 111.8 56.114 0 0 0-0.8991 0.0162 111.8 56.114 0 0 0-0.8976 0.0194 111.8 56.114 0 0 0-0.8975 0.0235 111.8 56.114 0 0 0-0.8976 0.0283 111.8 56.114 0 0 0-0.8975 0.0299 111.8 56.114 0 0 0-0.896 0.0348 111.8 56.114 0 0 0-0.8959 0.038 111.8 56.114 0 0 0-0.896 0.0413 111.8 56.114 0 0 0-0.8944 0.0461 111.8 56.114 0 0 0-0.8944 0.0494 111.8 56.114 0 0 0-0.8928 0.0518 111.8 56.114 0 0 0-0.8912 0.0566 111.8 56.114 0 0 0-0.8912 0.0599 111.8 56.114 0 0 0-0.8912 0.0631 111.8 56.114 0 0 0-0.8881 0.0663 111.8 56.114 0 0 0-0.8881 0.0712 111.8 56.114 0 0 0-0.888 0.0728 111.8 56.114 0 0 0-0.8849 0.0793 111.8 56.114 0 0 0-0.8849 0.0809 111.8 56.114 0 0 0-0.8834 0.0854 111.8 56.114 0 0 0-0.8817 0.0884 111.8 56.114 0 0 0-0.8802 0.0917 111.8 56.114 0 0 0-0.8785 0.0948 111.8 56.114 0 0 0-0.877 0.0995 111.8 56.114 0 0 0-0.8755 0.10275 111.8 56.114 0 0 0-0.8738 0.10591 111.8 56.114 0 0 0-0.8723 0.10897 111.8 56.114 0 0 0-0.8706 0.11384 111.8 56.114 0 0 0-0.8691 0.11691 111.8 56.114 0 0 0-0.866 0.12006 111.8 56.114 0 0 0-0.6289 0.0901 37.375 55.869 0 0 1 30.818-24.261 37.375 55.869 0 0 1 0.158 0 37.375 55.869 0 0 1 30.662 24.261z" fill="#2ea9d4"/> <path d="m2264.1 744.89a37.375 55.869 0 0 1 37.242 55.869 37.375 55.869 0 0 1-37.375 55.869 37.375 55.869 0 0 1-37.375-55.869 37.375 55.869 0 0 1 37.375-55.869 37.375 55.869 0 0 1 0.1337 0zm-0.074 6.5614a32.986 49.307 0 0 0-0.061 0 32.986 49.307 0 0 0-32.986 49.308 32.986 49.307 0 0 0 32.986 49.308 32.986 49.307 0 0 0 32.986-49.308 32.986 49.307 0 0 0-32.925-49.308z" fill="#506567"/> <path d="m2264.1 757.54a29.627 44.286 0 0 1 0.2545 0.01 27.433 41.008 0 0 0-0.2545-0.01zm-0.3762 0a27.433 41.008 0 0 0-27.116 41.006 27.433 41.008 0 0 0 27.434 41.008 27.433 41.008 0 0 0 27.434-41.008 27.433 41.008 0 0 0-26.747-40.995 29.627 44.286 0 0 1 28.94 44.273 29.627 44.286 0 0 1-29.626 44.287 29.627 44.286 0 0 1-29.626-44.287 29.627 44.286 0 0 1 29.309-44.284zm0.6868 0a29.627 44.286 0 0 1 0.2113 0.01 27.433 41.008 0 0 0-0.2113-0.01z" fill="#fff" opacity=".3"/> <path d="m2245.8 800.76a18.22 27.235 0 0 0 18.22 27.235 18.22 27.235 0 0 0 18.22-27.235 18.22 27.235 0 0 0-18.22-27.235 18.22 27.235 0 0 0-18.22 27.235" fill="#2faaab"/> <g transform="matrix(.4806 0 0 .4806 632.62 4.0913)"> <path d="m3453.3 1617.3a38.514 38.514 0 0 1-38.514 38.514 38.514 38.514 0 0 1-38.514-38.514 38.514 38.514 0 0 1 38.514-38.514 38.514 38.514 0 0 1 38.514 38.514" fill="#fff" opacity=".75"/> <path d="m3375.9 1699.8a15.293 15.293 0 0 1-15.293 15.293 15.293 15.293 0 0 1-15.293-15.293 15.293 15.293 0 0 1 15.293-15.293 15.293 15.293 0 0 1 15.293 15.293" fill="#fff"/> <path d="m3382.2 1668.6a10.237 10.237 0 0 1-10.237 10.237 10.237 10.237 0 0 1-10.237-10.237 10.237 10.237 0 0 1 10.237-10.237 10.237 10.237 0 0 1 10.237 10.237" fill="#70fefe" opacity=".9"/> </g> </g> <g transform="matrix(5.196 0 0 5.196 154.11 -924.5)" fill-rule="evenodd" stroke-opacity="0"> <path d="m211.31 374.37c-10.615-4.3-18.41-5.145-26.785-1.427 3.27-7.784 17.726-12.87 26.785 1.427z" fill="#506567" stroke-width="2.295"/> <path d="m155.52 473.72 68.014-25.13 10.072 5.27 46.845 54.824c12.092 7.315-3.512 19.61-16.622 7.453l-41.843-42.523-59.1 36.07c-21.495-1.582-30.043-37.633-7.366-35.964z" fill="#fff9e9" stroke-width="3.125"/> <path d="m263.62 519.6 1.375 3.875c7.262 0.566 14.246 0.575 19.875-2.125 2.506-2.625 2.201-5.25 2.75-7.875l-7.5-5.75z" fill="#fff"/> <path d="m144.75 488.73 6.75-11.5 14.493-9.68 11.49-2.828 43.134-15.202 3.89-1.768 8.485 4.773 5.126 3.359 0.53 2.651 36.593 42.78 3.006 0.53 2.12 5.657 1.769 1.061c-2.243 14.52-9.685 10.134-24.239 12.624l-2.298-5.656-5.126-5.48-0.707-1.415-27.578-27.223 1.302-2.814-1.547 1.105-0.795-2.784-8.486 5.48-42.78 24.042-17.677-2.652-9.193-12.197z" fill="#506567"/> <path d="m202.94 310.39c-16.875 34.153-37.38 47.383-69.297 64.347 19.533-28.234 20.581-49.842 26.87-83.085-26.692 24.083-50.778 34.596-82.731 49.144-4.154 20.847-6.622 41.572-3.182 62.579l-11.314-26.87 3.182 20.152-13.435-29.698-2.121 21.567-7.778-29.699-4.95 10.96-4.243-58.69s-13.788 32.527-12.374 32.527c7.323-44.546 2.698-104.09 54.093-130.81 59.28-17.16 96.562-6.102 146.1 22.602 36.864 30.82 37.318 91.283 20.067 140.74l-6.718-15.203-9.546 44.547-3.889-29.345-7.778 22.628 6.01-47.023-5.303-27.577-7.778 32.88z" fill="#d35f5f"/> <path d="m82.84 346.45c14.481-15.143 41.534-11.257 55.105-6.052-7.357-17.946-54.595-16.001-55.105 6.052z" fill="#506567" stroke-width="3.125"/> <path d="m59.902 508.22c-1.168 2.757-1.072 5.063-0.213 6.793 3.14 2.22 5.726 2.733 9.383 2.84 1.957-0.867 3.728-2.566 4.783-5.24l0.934-1.739z" fill="#f8ded8"/> <path d="m105.12 404.16-4.188 10.875-2.937 1.75-2.313 9.812-14.937 31.25-15.5 34.5-1.75 1.25-1.25 8.375-4.75 8.25c5.211 5.575 10.392 4.647 17.625 4.875l1.625-2.25-0.625-1.5 3.25-3.75 2.125-6.125 15.375-29.75 3.625-3.125-0.125-4 12.63-23.12 0.625 3.625 5.625-3.625 5-19.5-10-21.5z" fill="#fff"/> <path d="m185.1 402.7-0.518 3.91 13.564 0.211 0.194-3.789c-4.778 0.974-8.75 1.015-13.24-0.332z" fill="#f8ded8"/> <path d="m161 413.23 10.875 12.625 2.688 1.563 1.437 2.5 0.5-1 2.25 3.562 0.813-1.437s0.062 2.187 0.312 2.375c0.25 0.187 0.813-3.813 0.813-3.813l0.75-1.187 1.187-18.938 0.375-6.5c6.205 5.363 8.463 2.654 16 0.375l0.625 4.125-1.25 6.5v20.875l2.75 2-4.125 7.5-1.125 11.875-6 4.375-9.25 0.875-3.25-2.625-5.375-4.375-0.625-2.125-12-10.25-8.625-8.5-1-11.875 4-9z" fill="#fff"/> <path d="m156.94 415.6-2.313 7.875 1.262 15.187 3.488 3.438 12 10.25 0.125 0.425c0.701-4.646-3.292-6.185-6.563-8.925l1.125-3.688c-1.69 1.073-3.45 1.191-5.375 0 0.824-11.872-2.317-13.145 5.434-20.992l-0.615-0.715z" fill="#e9ecf5"/> <path d="m109.15 402.54-4.023 1.624-0.773 2.01-0.584 2.771c14.149 7.785 12.455 12.49 13.347 27.578l-2.918 3.27-2.209-8.043 0.176 7.336-4.684-3.36-0.353 8.663-10.783 17.59 1.502 2.208s-6.275 3.449-5.657 3.272c0.561-0.16 6.985-2.566 8.295-3.057l12.51-22.91 0.625 3.625 2.291-1.477 3.918-4.424 4.416-17.224-6.953-14.952z" fill="#e9ecf5"/> <path d="m110.84 402.32 7.778 8.662c3.71 13.71 4.8 25.203-6.187 32.527l0.445 9.221-1.375 8.375-4.375 6.875-4.125 19.5-0.75 12.75 40.232-5.632c19.896-5.813 9.547-17.362 25.042-27.706l-6.149-10.287-2.25-17-0.25-17.75-2.625-17.5-12.844-3.822-10.28 5.647-12.98-8.966z" fill="#d8b59f"/> <path d="m115.93 508.37 12.931 7.893 52.194 20.092c9.362-1.05 12.397-20.42-0.553-22.028l-41.45-29.847-11.973-10.88c-23.179-2.774-34.147 32.886-11.149 34.77z" fill="#fff9e9" stroke-width="2.957"/> <path d="m174.48 535.08 6.717 2.828c5.262-1.291 6.826-3.64 8.927-5.834 1.741-6.374 2.055-10.286-0.707-15.91l-11.667-3.005z" fill="#fff"/> <path d="m160.38 417.23c-5.544 2.127-12.873 6.04-23.125 12.875-11.453-6.476-15.365-11.119-21.375-17.75z" fill="#c09b84"/> <path d="m107.3 395.78c28.675-4.626 31.043-4.144 56.215 5.656l-1.06 9.016 4.42 8.839c-15.59-2.432-16.971 2.788-30.053 11.844-7.913-9.498-17.765-15.72-28.019-22.274l-2.121-3.8-5.569 9.103z" fill="#d35f5f"/> <path d="m159.26 462.98c-2.322 5.564-7.973 7.57-8.89 13.616l11.123-7.316c-11.484 15.514-7.071 18.078-14.373 20.191l-20.25-15.875-15.87 1.13c16.677-13.854 26.114 4.542 48.5-12.625z" fill="#c09b84"/> </g> <g transform="matrix(5.196 0 0 5.196 154.11 -924.5)" fill="#506567" fill-rule="evenodd" stroke-opacity="0"> <path d="m49 343.98c-2.931 44.466-25.237 118.15 29.775 126.88 20.706-3.494 34.164-5.58 46.475 5.122l-0.375-2.125c-24.91-16.412-31.686-1.838-47.654-4.36-51.031-12.07-27.749-91.9-26.226-124.77z"/> <path d="m102.53 490.17c-0.389 9.23 0.264 11.16 5.657 17.855 6.561 2.215 12.492 5.747 18.562 9.015 14.375 4.891 28.11 11.032 41.72 17.678l1.767-0.177 4.066 1.591c9.855-9.381 7.165-9.58 6.54-23.157l-21.036-16.44-1.768 0.176c-11.426-6.17-20.346-15.063-29.698-23.865-16.152-1.41-23.106 4.484-25.81 17.324z"/> <path d="m41.2 341.45c3.31 2.197 6.889 3.906 10.42 5.71 22.383-1.192 36.41-32.258 23.333-47.731l-9.017-1.403-1.403-4.304c-32.815 0.481-38.613 28.903-23.334 47.728z"/> <path d="m57.187 296.16c13.834-21.808 27.904-38.189 44.738-47.333 56.448-30.616 109.01-17.953 148.83 32.884 4.171 10.767 4.716 22.414 2.364 28.445-25.179-59.575-85.873-75.21-140.17-48.782-22.173 11.1-32.95 29.438-45.069 49.016l-9.192-13.788z"/> </g> <g transform="matrix(5.196 0 0 5.196 154.11 -924.5)" fill-rule="evenodd" stroke-opacity="0"> <path d="m41.25 332.73c-7.725-4.64-5.548-17.319-1.022-24.117 5.425-8.15 16.129-12.95 23.022-10.758 14.146 11.634-2.427 39.006-22 34.875z" fill="#7b9699"/> <path d="m159.88 409.48c-18.141-8.684-22.67-6.663-42.25-5.125 15.133 5.254 26.757 5.544 42.25 5.125z" fill="#be4747"/> <path d="m117.92 452.73c8.957 5.925 22.838 6.098 33.206 7.25-18.942 1.09-20.104 3.98-33.206-7.25z" fill="#c09b84"/> <path d="m176.5 428.91-0.5 1-0.127-0.22-0.81 6.97 2.875-3.875-0.25 2.188 1.875 8.687-0.313-7.375 6.25 7.375-5.313-10.75-0.011-0.355c-0.113 0.513-0.222 0.914-0.301 0.855-0.25-0.187-0.313-2.375-0.313-2.375l-0.812 1.438z" fill="#e9ecf5"/> </g> </g> </g> </svg>