<?xml version='1.0' encoding='utf-8'?>
<svg xmlns:xlink="http://www.w3.org/1999/xlink" xmlns="http://www.w3.org/2000/svg" width="167.47479mm" height="137.34152mm" viewBox="0 0 167.47479 137.34152" version="1.1" id="svg5"> <defs id="defs2"> <linearGradient xlink:href="#grad26" id="grad27" x1="543.13947" y1="226.80421" x2="543.13947" y2="250.40318" gradientTransform="matrix(0.34368137,0,0,0.36211492,33.349148,14.835874)" gradientUnits="userSpaceOnUse"/> <linearGradient id="grad26"> <stop offset="0.0000%" stop-color="#a90000" stop-opacity="1.0000" id="stop24161"/> <stop offset="12.0000%" stop-color="#cf3600" stop-opacity="1.0000" id="stop24163"/> <stop offset="34.0000%" stop-color="#ff000a" stop-opacity="1.0000" id="stop24165"/> <stop offset="90.0000%" stop-color="#ffc4cb" stop-opacity="1.0000" id="stop24167"/> <stop offset="100.0000%" stop-color="#ffffff" stop-opacity="1.0000" id="stop24169"/> </linearGradient> <linearGradient xlink:href="#grad26" id="grad25" x1="546.34821" y1="190.90636" x2="546.34821" y2="204.79703" gradientTransform="matrix(0.35388923,0,0,0.35166981,33.349148,14.835874)" gradientUnits="userSpaceOnUse"/> <linearGradient xlink:href="#grad26" id="grad23" x1="557.31018" y1="170.01973" x2="557.31018" y2="181.40189" gradientTransform="matrix(0.34447609,0,0,0.3612795,33.349148,14.835874)" gradientUnits="userSpaceOnUse"/> <linearGradient xlink:href="#grad26" id="grad21" x1="554.0434" y1="206.56075" x2="554.0434" y2="227.80171" gradientTransform="matrix(0.34620402,0,0,0.35947635,33.349148,14.835874)" gradientUnits="userSpaceOnUse"/> <linearGradient id="grad19" x1="330.53024" y1="303.39581" x2="428.13049" y2="303.39581" gradientUnits="userSpaceOnUse" gradientTransform="matrix(0.35277777,0,0,0.35277777,33.349148,14.835874)"> <stop offset="0.0000%" stop-color="#a90000" stop-opacity="1.0000" id="stop24070"/> <stop offset="12.0000%" stop-color="#cf3600" stop-opacity="1.0000" id="stop24072"/> <stop offset="34.0000%" stop-color="#ff000a" stop-opacity="1.0000" id="stop24074"/> <stop offset="90.0000%" stop-color="#ffc4cb" stop-opacity="1.0000" id="stop24076"/> <stop offset="100.0000%" stop-color="#ffffff" stop-opacity="1.0000" id="stop24078"/> </linearGradient> <linearGradient id="grad18" x1="33.659435" y1="57.663399" x2="131.2597" y2="57.663399" gradientUnits="userSpaceOnUse" gradientTransform="matrix(2.1136566,0,0,2.1137177,-53.856598,-48.477629)"> <stop offset="0.0000%" stop-color="#ff9e67" stop-opacity="1.0000" id="stop24013"/> <stop offset="41.0000%" stop-color="#ffce03" stop-opacity="1.0000" id="stop24015"/> <stop offset="70.0000%" stop-color="#fdf527" stop-opacity="1.0000" id="stop24017"/> <stop offset="100.0000%" stop-color="#ffffff" stop-opacity="1.0000" id="stop24019"/> </linearGradient> <linearGradient id="grad17" x1="173.10294" y1="170.8472" x2="270.70319" y2="170.8472" gradientUnits="userSpaceOnUse" gradientTransform="matrix(0.35277777,0,0,0.35277777,33.349149,14.835874)"> <stop offset="0.0000%" stop-color="#ff9e67" stop-opacity="1.0000" id="stop23873"/> <stop offset="41.0000%" stop-color="#ffce03" stop-opacity="1.0000" id="stop23875"/> <stop offset="70.0000%" stop-color="#fdf527" stop-opacity="1.0000" id="stop23877"/> <stop offset="100.0000%" stop-color="#ffffff" stop-opacity="1.0000" id="stop23879"/> </linearGradient> <linearGradient id="grad16" x1="178.51852" y1="40.7812" x2="276.1188" y2="40.7812" gradientUnits="userSpaceOnUse" gradientTransform="matrix(0.35277777,0,0,0.35277777,33.349148,14.835874)"> <stop offset="0.0000%" stop-color="#ff9e67" stop-opacity="1.0000" id="stop23860"/> <stop offset="41.0000%" stop-color="#ffce03" stop-opacity="1.0000" id="stop23862"/> <stop offset="70.0000%" stop-color="#fdf527" stop-opacity="1.0000" id="stop23864"/> <stop offset="100.0000%" stop-color="#ffffff" stop-opacity="1.0000" id="stop23866"/> </linearGradient> <linearGradient id="grad15" x1="30.970934" y1="176.3705" x2="128.5712" y2="176.3705" gradientUnits="userSpaceOnUse" gradientTransform="matrix(0.35277777,0,0,0.35277777,33.349149,14.835874)"> <stop offset="0.0000%" stop-color="#ff9e67" stop-opacity="1.0000" id="stop23847"/> <stop offset="41.0000%" stop-color="#ffce03" stop-opacity="1.0000" id="stop23849"/> <stop offset="70.0000%" stop-color="#fdf527" stop-opacity="1.0000" id="stop23851"/> <stop offset="100.0000%" stop-color="#ffffff" stop-opacity="1.0000" id="stop23853"/> </linearGradient> <linearGradient id="grad14" x1="464.08652" y1="176.8262" x2="561.68683" y2="176.8262" gradientUnits="userSpaceOnUse" gradientTransform="matrix(0.35277777,0,0,0.35277777,33.349148,14.835874)"> <stop offset="0.0000%" stop-color="#ff9e67" stop-opacity="1.0000" id="stop23834"/> <stop offset="41.0000%" stop-color="#ffce03" stop-opacity="1.0000" id="stop23836"/> <stop offset="70.0000%" stop-color="#fdf527" stop-opacity="1.0000" id="stop23838"/> <stop offset="100.0000%" stop-color="#ffffff" stop-opacity="1.0000" id="stop23840"/> </linearGradient> <linearGradient id="grad13" x1="86.450333" y1="597.33771" x2="184.0506" y2="597.33771" gradientUnits="userSpaceOnUse" gradientTransform="matrix(0.35277777,0,0,0.35277777,33.349148,14.835875)"> <stop offset="0.0000%" stop-color="#ff9e67" stop-opacity="1.0000" id="stop23821"/> <stop offset="41.0000%" stop-color="#ffce03" stop-opacity="1.0000" id="stop23823"/> <stop offset="70.0000%" stop-color="#fdf527" stop-opacity="1.0000" id="stop23825"/> <stop offset="100.0000%" stop-color="#ffffff" stop-opacity="1.0000" id="stop23827"/> </linearGradient> <linearGradient id="grad12" x1="172.48953" y1="305.1535" x2="270.08981" y2="305.1535" gradientUnits="userSpaceOnUse" gradientTransform="matrix(0.35277777,0,0,0.35277777,33.349148,14.835875)"> <stop offset="0.0000%" stop-color="#ff9e67" stop-opacity="1.0000" id="stop23808"/> <stop offset="41.0000%" stop-color="#ffce03" stop-opacity="1.0000" id="stop23810"/> <stop offset="70.0000%" stop-color="#fdf527" stop-opacity="1.0000" id="stop23812"/> <stop offset="100.0000%" stop-color="#ffffff" stop-opacity="1.0000" id="stop23814"/> </linearGradient> <linearGradient id="grad11" x1="468.94373" y1="429.77731" x2="566.54401" y2="429.77731" gradientUnits="userSpaceOnUse" gradientTransform="matrix(0.35277777,0,0,0.35277777,33.349148,14.835874)"> <stop offset="0.0000%" stop-color="#ff9e67" stop-opacity="1.0000" id="stop23795"/> <stop offset="41.0000%" stop-color="#ffce03" stop-opacity="1.0000" id="stop23797"/> <stop offset="70.0000%" stop-color="#fdf527" stop-opacity="1.0000" id="stop23799"/> <stop offset="100.0000%" stop-color="#ffffff" stop-opacity="1.0000" id="stop23801"/> </linearGradient> <linearGradient id="grad10" x1="170.48953" y1="429.83569" x2="268.08981" y2="429.83569" gradientUnits="userSpaceOnUse" gradientTransform="matrix(0.35277777,0,0,0.35277777,33.349148,14.835875)"> <stop offset="0.0000%" stop-color="#ff9e67" stop-opacity="1.0000" id="stop23782"/> <stop offset="41.0000%" stop-color="#ffce03" stop-opacity="1.0000" id="stop23784"/> <stop offset="70.0000%" stop-color="#fdf527" stop-opacity="1.0000" id="stop23786"/> <stop offset="100.0000%" stop-color="#ffffff" stop-opacity="1.0000" id="stop23788"/> </linearGradient> <linearGradient id="grad9" x1="479.11194" y1="38.9562" x2="576.71222" y2="38.9562" gradientUnits="userSpaceOnUse" gradientTransform="matrix(0.35277777,0,0,0.35277777,33.349148,14.835874)"> <stop offset="0.0000%" stop-color="#ff9e67" stop-opacity="1.0000" id="stop23769"/> <stop offset="41.0000%" stop-color="#ffce03" stop-opacity="1.0000" id="stop23771"/> <stop offset="70.0000%" stop-color="#fdf527" stop-opacity="1.0000" id="stop23773"/> <stop offset="100.0000%" stop-color="#ffffff" stop-opacity="1.0000" id="stop23775"/> </linearGradient> <linearGradient id="grad8" x1="18.657234" y1="425.66849" x2="116.2575" y2="425.66849" gradientUnits="userSpaceOnUse" gradientTransform="matrix(0.35277777,0,0,0.35277777,33.349148,14.835875)"> <stop offset="0.0000%" stop-color="#ff9e67" stop-opacity="1.0000" id="stop23756"/> <stop offset="41.0000%" stop-color="#ffce03" stop-opacity="1.0000" id="stop23758"/> <stop offset="70.0000%" stop-color="#fdf527" stop-opacity="1.0000" id="stop23760"/> <stop offset="100.0000%" stop-color="#ffffff" stop-opacity="1.0000" id="stop23762"/> </linearGradient> <linearGradient id="grad7" x1="27.882833" y1="301.5141" x2="125.4831" y2="301.5141" gradientUnits="userSpaceOnUse" gradientTransform="matrix(0.35277777,0,0,0.35277777,33.349148,14.835875)"> <stop offset="0.0000%" stop-color="#ff9e67" stop-opacity="1.0000" id="stop23743"/> <stop offset="41.0000%" stop-color="#ffce03" stop-opacity="1.0000" id="stop23745"/> <stop offset="70.0000%" stop-color="#fdf527" stop-opacity="1.0000" id="stop23747"/> <stop offset="100.0000%" stop-color="#ffffff" stop-opacity="1.0000" id="stop23749"/> </linearGradient> <linearGradient id="grad6" x1="326.99493" y1="165.9481" x2="424.59521" y2="165.9481" gradientUnits="userSpaceOnUse" gradientTransform="matrix(0.35277777,0,0,0.35277777,33.349148,14.835874)"> <stop offset="0.0000%" stop-color="#ff9e67" stop-opacity="1.0000" id="stop23730"/> <stop offset="41.0000%" stop-color="#ffce03" stop-opacity="1.0000" id="stop23732"/> <stop offset="70.0000%" stop-color="#fdf527" stop-opacity="1.0000" id="stop23734"/> <stop offset="100.0000%" stop-color="#ffffff" stop-opacity="1.0000" id="stop23736"/> </linearGradient> <linearGradient id="grad5" x1="325.54153" y1="424.9559" x2="423.14182" y2="424.9559" gradientUnits="userSpaceOnUse" gradientTransform="matrix(0.35277777,0,0,0.35277777,33.349148,14.835874)"> <stop offset="0.0000%" stop-color="#ff9e67" stop-opacity="1.0000" id="stop23717"/> <stop offset="41.0000%" stop-color="#ffce03" stop-opacity="1.0000" id="stop23719"/> <stop offset="70.0000%" stop-color="#fdf527" stop-opacity="1.0000" id="stop23721"/> <stop offset="100.0000%" stop-color="#ffffff" stop-opacity="1.0000" id="stop23723"/> </linearGradient> <linearGradient id="grad4" x1="467.16324" y1="300.80179" x2="564.76349" y2="300.80179" gradientUnits="userSpaceOnUse" gradientTransform="matrix(0.35277777,0,0,0.35277777,33.349148,14.835874)"> <stop offset="0.0000%" stop-color="#ff9e67" stop-opacity="1.0000" id="stop23704"/> <stop offset="41.0000%" stop-color="#ffce03" stop-opacity="1.0000" id="stop23706"/> <stop offset="70.0000%" stop-color="#fdf527" stop-opacity="1.0000" id="stop23708"/> <stop offset="100.0000%" stop-color="#ffffff" stop-opacity="1.0000" id="stop23710"/> </linearGradient> <linearGradient id="grad3" x1="267.66373" y1="593.52972" x2="365.26401" y2="593.52972" gradientUnits="userSpaceOnUse" gradientTransform="matrix(0.35277777,0,0,0.35277777,33.349148,14.835874)"> <stop offset="0.0000%" stop-color="#ff9e67" stop-opacity="1.0000" id="stop23691"/> <stop offset="41.0000%" stop-color="#ffce03" stop-opacity="1.0000" id="stop23693"/> <stop offset="70.0000%" stop-color="#fdf527" stop-opacity="1.0000" id="stop23695"/> <stop offset="100.0000%" stop-color="#ffffff" stop-opacity="1.0000" id="stop23697"/> </linearGradient> <linearGradient id="grad2" x1="465.86783" y1="621.1698" x2="563.46808" y2="621.1698" gradientUnits="userSpaceOnUse" gradientTransform="matrix(0.35277777,0,0,0.35277777,33.349148,14.835874)"> <stop offset="0.0000%" stop-color="#ff9e67" stop-opacity="1.0000" id="stop23678"/> <stop offset="41.0000%" stop-color="#ffce03" stop-opacity="1.0000" id="stop23680"/> <stop offset="70.0000%" stop-color="#fdf527" stop-opacity="1.0000" id="stop23682"/> <stop offset="100.0000%" stop-color="#ffffff" stop-opacity="1.0000" id="stop23684"/> </linearGradient> <linearGradient id="grad1" x1="344.53082" y1="43.221802" x2="442.1311" y2="43.221802" gradientUnits="userSpaceOnUse" gradientTransform="matrix(0.35277777,0,0,0.35277777,33.349148,14.835874)"> <stop offset="0.0000%" stop-color="#ff9e67" stop-opacity="1.0000" id="stop23665"/> <stop offset="41.0000%" stop-color="#ffce03" stop-opacity="1.0000" id="stop23667"/> <stop offset="70.0000%" stop-color="#fdf527" stop-opacity="1.0000" id="stop23669"/> <stop offset="100.0000%" stop-color="#ffffff" stop-opacity="1.0000" id="stop23671"/> </linearGradient> <linearGradient id="grad6-4" x1="447.08588" y1="284.51666" x2="542.68713" y2="284.51666" gradientUnits="userSpaceOnUse" gradientTransform="matrix(2.1064133,0,0,2.1106583,125.55523,-397.75419)"> <stop offset="0.0000%" stop-color="#ff9e67" stop-opacity="1.0000" id="stop27131"/> <stop offset="41.0000%" stop-color="#ffce03" stop-opacity="1.0000" id="stop27133"/> <stop offset="70.0000%" stop-color="#fdf528" stop-opacity="1.0000" id="stop27135"/> <stop offset="100.0000%" stop-color="#ffffff" stop-opacity="1.0000" id="stop27137"/> </linearGradient> <linearGradient id="grad5-2" x1="431.00854" y1="45.046501" x2="528.60883" y2="45.046501" gradientUnits="userSpaceOnUse" gradientTransform="matrix(2.1064133,0,0,2.1106583,-389.69321,-446.42399)"> <stop offset="0.0000%" stop-color="#ff9e67" stop-opacity="1.0000" id="stop27044"/> <stop offset="41.0000%" stop-color="#ffce03" stop-opacity="1.0000" id="stop27046"/> <stop offset="70.0000%" stop-color="#fdf528" stop-opacity="1.0000" id="stop27048"/> <stop offset="100.0000%" stop-color="#ffffff" stop-opacity="1.0000" id="stop27050"/> </linearGradient> <linearGradient id="grad3-3" x1="154.57993" y1="83.071602" x2="252.18021" y2="83.071602" gradientUnits="userSpaceOnUse" gradientTransform="matrix(0.35277777,0,0,0.35277778,33.349143,14.835865)"> <stop offset="0.0000%" stop-color="#ff9e67" stop-opacity="1.0000" id="stop26959"/> <stop offset="41.0000%" stop-color="#ffce03" stop-opacity="1.0000" id="stop26961"/> <stop offset="70.0000%" stop-color="#fdf528" stop-opacity="1.0000" id="stop26963"/> <stop offset="100.0000%" stop-color="#ffffff" stop-opacity="1.0000" id="stop26965"/> </linearGradient> <linearGradient id="grad2-8" x1="38.224533" y1="84.436699" x2="135.8248" y2="84.436699" gradientUnits="userSpaceOnUse" gradientTransform="matrix(0.35277777,0,0,0.35277778,33.349143,14.835865)"> <stop offset="0.0000%" stop-color="#ff9e67" stop-opacity="1.0000" id="stop26946"/> <stop offset="41.0000%" stop-color="#ffce03" stop-opacity="1.0000" id="stop26948"/> <stop offset="70.0000%" stop-color="#fdf528" stop-opacity="1.0000" id="stop26950"/> <stop offset="100.0000%" stop-color="#ffffff" stop-opacity="1.0000" id="stop26952"/> </linearGradient> <linearGradient id="grad1-5" x1="301.73734" y1="87.905502" x2="399.33759" y2="87.905502" gradientUnits="userSpaceOnUse" gradientTransform="matrix(0.35277777,0,0,0.35277778,33.349144,14.835865)"> <stop offset="0.0000%" stop-color="#ff9e67" stop-opacity="1.0000" id="stop26933"/> <stop offset="41.0000%" stop-color="#ffce03" stop-opacity="1.0000" id="stop26935"/> <stop offset="70.0000%" stop-color="#fdf528" stop-opacity="1.0000" id="stop26937"/> <stop offset="100.0000%" stop-color="#ffffff" stop-opacity="1.0000" id="stop26939"/> </linearGradient> </defs> <g id="layer1" transform="translate(-33.349142,-14.835878)"> <path d="m 64.432705,110.01942 c 4.524021,-9.65319 2.499926,-16.168047 -6.072202,-19.544547 -8.628819,-0.53218 -7.894825,1.83035 2.201999,7.08757 -10.223586,-3.64739 -9.623067,-1.71437 1.801632,5.798967 -10.687333,-4.131107 -10.264733,-2.77087 1.267817,4.08073 -6.961765,-2.22906 -6.694872,-1.36999 0.800754,2.57728 z" style="fill:#f5f6f6;fill-rule:evenodd;stroke:#1b1918;stroke-width:0.25;stroke-linecap:butt;stroke-linejoin:miter;stroke-dasharray:none" id="path23661"/> <path d="m 75.464112,109.99132 c -4.462045,-9.68197 -2.396222,-16.183697 6.197364,-19.505197 8.632055,-0.47687 7.882927,1.88092 -2.24738,7.0733 10.246755,-3.58177 9.63385,-1.65265 -1.83878,5.787297 10.713599,-4.062507 10.282286,-2.70499 -1.293938,4.07252 6.975902,-2.18438 6.703511,-1.32703 -0.817266,2.57208 z" style="fill:#f5f6f6;fill-rule:evenodd;stroke:#1b1918;stroke-width:0.25;stroke-linecap:butt;stroke-linejoin:miter;stroke-dasharray:none" id="path23663"/> <path d="m 107.98643,30.474237 a 7.8112417,7.8110157 0 0 1 7.81124,7.811014 7.8112417,7.8110157 0 1 1 -7.81124,-7.811014 z" style="fill:url(#grad1);stroke:#1b1918;stroke-width:0.25;stroke-linecap:butt;stroke-linejoin:miter;stroke-dasharray:none" id="path23676"/> <path d="m 184.7128,55.774988 a 7.8112417,7.8110157 0 0 1 7.81124,7.81101 7.8112417,7.8110157 0 1 1 -7.81124,-7.81101 z" style="fill:url(#grad2);stroke:#1b1918;stroke-width:0.25;stroke-linecap:butt;stroke-linejoin:miter;stroke-dasharray:none" id="path23689"/> <path d="m 151.63174,51.161868 a 7.8112417,7.8110157 0 0 1 7.81124,7.81102 7.8112417,7.8110157 0 1 1 -7.81124,-7.81102 z" style="fill:url(#grad3);stroke:#1b1918;stroke-width:0.25;stroke-linecap:butt;stroke-linejoin:miter;stroke-dasharray:none" id="path23702"/> <path d="m 128.45429,73.464131 a 7.8112417,7.8110157 0 0 1 7.81123,7.811015 7.8112417,7.8110157 0 1 1 -7.81123,-7.811015 z" style="fill:url(#grad4);stroke:#1b1918;stroke-width:0.25;stroke-linecap:butt;stroke-linejoin:miter;stroke-dasharray:none" id="path23715"/> <path d="m 104.81704,94.185348 a 7.8112417,7.8110157 0 0 1 7.81124,7.811022 7.8112417,7.8110157 0 1 1 -7.81124,-7.811022 z" style="fill:url(#grad5);stroke:#1b1918;stroke-width:0.25;stroke-linecap:butt;stroke-linejoin:miter;stroke-dasharray:none" id="path23728"/> <path d="m 105.05962,50.957156 a 7.8112417,7.8110157 0 0 1 7.81124,7.811017 7.8112417,7.8110157 0 1 1 -7.81124,-7.811017 z" style="fill:url(#grad6);stroke:#1b1918;stroke-width:0.25;stroke-linecap:butt;stroke-linejoin:miter;stroke-dasharray:none" id="path23741"/> <path d="m 57.500005,49.94906 a 7.8112417,7.8110157 0 0 1 7.811243,7.811015 7.8112417,7.8110157 0 1 1 -7.811243,-7.811015 z" style="fill:url(#grad7);stroke:#1b1918;stroke-width:0.25;stroke-linecap:butt;stroke-linejoin:miter;stroke-dasharray:none" id="path23754"/> <path d="m 55.960214,70.670327 a 7.8112417,7.8110157 0 0 1 7.811248,7.811001 7.8112417,7.8110157 0 1 1 -7.811248,-7.811001 z" style="fill:url(#grad8);stroke:#1b1918;stroke-width:0.25;stroke-linecap:butt;stroke-linejoin:miter;stroke-dasharray:none" id="path23767"/> <path d="m 130.44858,29.762311 a 7.8112417,7.8110157 0 0 1 7.81122,7.811015 7.8112417,7.8110157 0 1 1 -7.81122,-7.811015 z" style="fill:url(#grad9);stroke:#1b1918;stroke-width:0.25;stroke-linecap:butt;stroke-linejoin:miter;stroke-dasharray:none" id="path23780"/> <path d="m 81.301656,71.365831 a 7.8112417,7.8110157 0 0 1 7.811221,7.811017 7.8112417,7.8110157 0 1 1 -7.811221,-7.811017 z" style="fill:url(#grad10);stroke:#1b1918;stroke-width:0.25;stroke-linecap:butt;stroke-linejoin:miter;stroke-dasharray:none" id="path23793"/> <path d="m 128.75144,94.990036 a 7.8112417,7.8110157 0 0 1 7.81125,7.811014 7.8112417,7.8110157 0 1 1 -7.81125,-7.811014 z" style="fill:url(#grad11);stroke:#1b1918;stroke-width:0.25;stroke-linecap:butt;stroke-linejoin:miter;stroke-dasharray:none" id="path23806"/> <path d="m 81.635447,50.55647 a 7.8112417,7.8110157 0 0 1 7.811241,7.811015 7.8112417,7.8110157 0 1 1 -7.811241,-7.811015 z" style="fill:url(#grad12);stroke:#1b1918;stroke-width:0.25;stroke-linecap:butt;stroke-linejoin:miter;stroke-dasharray:none" id="path23819"/> <path d="m 70.229401,96.958383 a 7.8112417,7.8110157 0 0 1 7.811242,7.810997 7.8112417,7.8110157 0 1 1 -7.811242,-7.810997 z" style="fill:url(#grad13);stroke:#1b1918;stroke-width:0.25;stroke-linecap:butt;stroke-linejoin:miter;stroke-dasharray:none" id="path23832"/> <path d="m 127.94077,52.772702 a 7.8112417,7.8110157 0 0 1 7.81123,7.811017 7.8112417,7.8110157 0 1 1 -7.81123,-7.811017 z" style="fill:url(#grad14);stroke:#1b1918;stroke-width:0.25;stroke-linecap:butt;stroke-linejoin:miter;stroke-dasharray:none" id="path23845"/> <path d="m 152.55123,30.244392 a 7.8112417,7.8110157 0 0 1 7.81125,7.811018 7.8112417,7.8110157 0 1 1 -7.81125,-7.811018 z" style="fill:url(#grad15);stroke:#1b1918;stroke-width:0.25;stroke-linecap:butt;stroke-linejoin:miter;stroke-dasharray:none" id="path23858"/> <path d="m 80.278313,30.066903 a 7.8112417,7.8110157 0 0 1 7.811241,7.811014 7.8112417,7.8110157 0 1 1 -7.811241,-7.811014 z" style="fill:url(#grad16);stroke:#1b1918;stroke-width:0.25;stroke-linecap:butt;stroke-linejoin:miter;stroke-dasharray:none" id="path23871"/> <path d="m 176.27363,29.322558 a 7.8112417,7.8110157 0 0 1 7.81124,7.811013 7.8112417,7.8110157 0 1 1 -7.81124,-7.811013 z" style="fill:url(#grad17);stroke:#1b1918;stroke-width:0.25;stroke-linecap:butt;stroke-linejoin:miter;stroke-dasharray:none" id="path23884"/> <path d="m 110.54028,34.713006 a 1.1716829,1.171649 0 0 1 1.17168,1.171651 1.1716829,1.171649 0 1 1 -1.17168,-1.171651 z" style="fill:#1b1918;fill-rule:evenodd;stroke:#1b1918;stroke-width:0.25;stroke-linecap:butt;stroke-linejoin:miter;stroke-dasharray:none" id="path23886"/> <path d="m 187.26665,60.013728 a 1.1716829,1.171649 0 0 1 1.17168,1.17166 1.1716829,1.171649 0 1 1 -1.17168,-1.17166 z" style="fill:#1b1918;fill-rule:evenodd;stroke:#1b1918;stroke-width:0.25;stroke-linecap:butt;stroke-linejoin:miter;stroke-dasharray:none" id="path23888"/> <path d="m 154.18559,55.400648 a 1.1716829,1.171649 0 0 1 1.17168,1.17165 1.1716829,1.171649 0 1 1 -1.17168,-1.17165 z" style="fill:#1b1918;fill-rule:evenodd;stroke:#1b1918;stroke-width:0.25;stroke-linecap:butt;stroke-linejoin:miter;stroke-dasharray:none" id="path23890"/> <path d="m 131.00812,77.7029 a 1.1716829,1.171649 0 0 1 1.17169,1.171651 1.1716829,1.171649 0 1 1 -1.17169,-1.171651 z" style="fill:#1b1918;fill-rule:evenodd;stroke:#1b1918;stroke-width:0.25;stroke-linecap:butt;stroke-linejoin:miter;stroke-dasharray:none" id="path23892"/> <path d="m 107.37089,98.424106 a 1.1716829,1.171649 0 0 1 1.17168,1.171645 1.1716829,1.171649 0 1 1 -1.17168,-1.171645 z" style="fill:#1b1918;fill-rule:evenodd;stroke:#1b1918;stroke-width:0.25;stroke-linecap:butt;stroke-linejoin:miter;stroke-dasharray:none" id="path23894"/> <path d="m 84.355932,54.795229 a 1.1716829,1.171649 0 0 1 1.17168,1.171661 1.1716829,1.171649 0 1 1 -1.17168,-1.171661 z" style="fill:#1b1918;fill-rule:evenodd;stroke:#1b1918;stroke-width:0.25;stroke-linecap:butt;stroke-linejoin:miter;stroke-dasharray:none" id="path23896"/> <path d="m 72.783251,101.19714 a 1.1716829,1.171649 0 0 1 1.171685,1.17165 1.1716829,1.171649 0 1 1 -1.171685,-1.17165 z" style="fill:#1b1918;fill-rule:evenodd;stroke:#1b1918;stroke-width:0.25;stroke-linecap:butt;stroke-linejoin:miter;stroke-dasharray:none" id="path23898"/> <path d="m 130.49461,57.011457 a 1.1716829,1.171649 0 0 1 1.1717,1.17165 1.1716829,1.171649 0 1 1 -1.1717,-1.17165 z" style="fill:#1b1918;fill-rule:evenodd;stroke:#1b1918;stroke-width:0.25;stroke-linecap:butt;stroke-linejoin:miter;stroke-dasharray:none" id="path23900"/> <path d="m 155.10508,34.483148 a 1.1716829,1.171649 0 0 1 1.17168,1.171667 1.1716829,1.171649 0 1 1 -1.17168,-1.171667 z" style="fill:#1b1918;fill-rule:evenodd;stroke:#1b1918;stroke-width:0.25;stroke-linecap:butt;stroke-linejoin:miter;stroke-dasharray:none" id="path23902"/> <path d="m 82.832162,34.305657 a 1.1716829,1.171649 0 0 1 1.171685,1.171647 1.1716829,1.171649 0 1 1 -1.171685,-1.171647 z" style="fill:#1b1918;fill-rule:evenodd;stroke:#1b1918;stroke-width:0.25;stroke-linecap:butt;stroke-linejoin:miter;stroke-dasharray:none" id="path23904"/> <path d="m 178.82748,33.561314 a 1.1716829,1.171649 0 0 1 1.17168,1.171668 1.1716829,1.171649 0 1 1 -1.17168,-1.171668 z" style="fill:#1b1918;fill-rule:evenodd;stroke:#1b1918;stroke-width:0.25;stroke-linecap:butt;stroke-linejoin:miter;stroke-dasharray:none" id="path23906"/> <path d="m 107.69147,55.004261 a 1.1716829,1.171649 0 0 1 1.17167,1.171647 1.1716829,1.171649 0 1 1 -1.17167,-1.171647 z" style="fill:#1b1918;fill-rule:evenodd;stroke:#1b1918;stroke-width:0.25;stroke-linecap:butt;stroke-linejoin:miter;stroke-dasharray:none" id="path23908"/> <path d="m 105.50517,34.713006 a 1.1716829,1.171649 0 0 1 1.17168,1.171651 1.1716829,1.171649 0 1 1 -1.17168,-1.171651 z" style="fill:#1b1918;fill-rule:evenodd;stroke:#1b1918;stroke-width:0.25;stroke-linecap:butt;stroke-linejoin:miter;stroke-dasharray:none" id="path23910"/> <path d="m 182.23153,60.013728 a 1.1716829,1.171649 0 0 1 1.17169,1.17166 1.1716829,1.171649 0 1 1 -1.17169,-1.17166 z" style="fill:#1b1918;fill-rule:evenodd;stroke:#1b1918;stroke-width:0.25;stroke-linecap:butt;stroke-linejoin:miter;stroke-dasharray:none" id="path23912"/> <path d="m 149.15047,55.400648 a 1.1716829,1.171649 0 0 1 1.17169,1.17165 1.1716829,1.171649 0 1 1 -1.17169,-1.17165 z" style="fill:#1b1918;fill-rule:evenodd;stroke:#1b1918;stroke-width:0.25;stroke-linecap:butt;stroke-linejoin:miter;stroke-dasharray:none" id="path23914"/> <path d="m 125.97301,77.7029 a 1.1716829,1.171649 0 0 1 1.17169,1.171651 1.1716829,1.171649 0 1 1 -1.17169,-1.171651 z" style="fill:#1b1918;fill-rule:evenodd;stroke:#1b1918;stroke-width:0.25;stroke-linecap:butt;stroke-linejoin:miter;stroke-dasharray:none" id="path23916"/> <path d="m 54.405406,50.480898 a 3.0220142,3.0219269 0 0 1 3.022028,3.021929 3.0220142,3.0219269 0 1 1 -3.022028,-3.021929 z" style="fill:#f5f6f6;fill-rule:evenodd;stroke:#1b1918;stroke-width:0.25;stroke-linecap:butt;stroke-linejoin:miter;stroke-dasharray:none" id="path23918"/> <path d="m 53.124252,74.537402 a 1.8503146,1.8502611 0 0 1 1.850328,1.850276 1.8503146,1.8502611 0 1 1 -1.850328,-1.850276 z" style="fill:#f5f6f6;fill-rule:evenodd;stroke:#1b1918;stroke-width:0.25;stroke-linecap:butt;stroke-linejoin:miter;stroke-dasharray:none" id="path23920"/> <path d="m 131.83429,97.819176 a 1.8503146,1.8502611 0 0 1 1.85032,1.850262 1.8503146,1.8502611 0 1 1 -1.85032,-1.850262 z" style="fill:#f5f6f6;fill-rule:evenodd;stroke:#1b1918;stroke-width:0.25;stroke-linecap:butt;stroke-linejoin:miter;stroke-dasharray:none" id="path23922"/> <path d="m 126.11363,95.907348 a 3.4146893,3.4145906 0 0 1 3.41469,3.414588 3.4146893,3.4145906 0 1 1 -3.41469,-3.414588 z" style="fill:#f5f6f6;fill-rule:evenodd;stroke:#1b1918;stroke-width:0.25;stroke-linecap:butt;stroke-linejoin:miter;stroke-dasharray:none" id="path23924"/> <path d="m 60.464957,50.480898 a 3.0220142,3.0219269 0 0 1 3.022017,3.021929 3.0220142,3.0219269 0 1 1 -3.022017,-3.021929 z" style="fill:#f5f6f6;fill-rule:evenodd;stroke:#1b1918;stroke-width:0.25;stroke-linecap:butt;stroke-linejoin:miter;stroke-dasharray:none" id="path23926"/> <path d="m 59.064815,74.537402 a 1.8503146,1.8502611 0 0 1 1.850329,1.850256 1.8503146,1.8502611 0 1 1 -1.850329,-1.850256 z" style="fill:#f5f6f6;fill-rule:evenodd;stroke:#1b1918;stroke-width:0.25;stroke-linecap:butt;stroke-linejoin:miter;stroke-dasharray:none" id="path23928"/> <path d="m 131.77985,34.613735 a 2.2646085,1.4717407 76.789893 0 1 1.95029,1.868387 2.2646085,1.4717407 76.789893 1 1 -1.95029,-1.868387 z" style="fill:#f5f6f6;fill-rule:evenodd;stroke:#1b1918;stroke-width:0.25;stroke-linecap:butt;stroke-linejoin:miter;stroke-dasharray:none" id="path23930"/> <path d="m 129.48245,34.613503 a 1.471674,2.2646085 13.208706 0 0 -1.95019,1.868386 1.471674,2.2646085 13.208706 1 0 1.95019,-1.868386 z" style="fill:#f5f6f6;fill-rule:evenodd;stroke:#1b1918;stroke-width:0.25;stroke-linecap:butt;stroke-linejoin:miter;stroke-dasharray:none" id="path23932"/> <path d="m 54.405387,51.815909 a 1.686949,1.6869003 0 0 1 1.686949,1.686902 1.686949,1.6869003 0 1 1 -1.686949,-1.686902 z" style="fill:#1b1918;fill-rule:evenodd;stroke:#1b1918;stroke-width:0.25;stroke-linecap:butt;stroke-linejoin:miter;stroke-dasharray:none" id="path23934"/> <path d="m 53.221439,75.936331 a 1.0328855,1.0328557 0 0 1 1.032883,1.032857 1.0328855,1.0328557 0 1 1 -1.032883,-1.032857 z" style="fill:#1b1918;fill-rule:evenodd;stroke:#1b1918;stroke-width:0.25;stroke-linecap:butt;stroke-linejoin:miter;stroke-dasharray:none" id="path23936"/> <path d="m 131.84835,98.054376 a 1.0328855,1.0328557 0 0 1 1.03289,1.032848 1.0328855,1.0328557 0 1 1 -1.03289,-1.032848 z" style="fill:#1b1918;fill-rule:evenodd;stroke:#1b1918;stroke-width:0.25;stroke-linecap:butt;stroke-linejoin:miter;stroke-dasharray:none" id="path23938"/> <path d="m 125.37858,98.405894 a 1.906144,1.906089 0 0 1 1.90615,1.906096 1.906144,1.906089 0 1 1 -1.90615,-1.906096 z" style="fill:#1b1918;fill-rule:evenodd;stroke:#1b1918;stroke-width:0.25;stroke-linecap:butt;stroke-linejoin:miter;stroke-dasharray:none" id="path23940"/> <path d="m 60.464938,51.815909 a 1.686949,1.6869003 0 0 1 1.686949,1.686902 1.686949,1.6869003 0 1 1 -1.686949,-1.686902 z" style="fill:#1b1918;fill-rule:evenodd;stroke:#1b1918;stroke-width:0.25;stroke-linecap:butt;stroke-linejoin:miter;stroke-dasharray:none" id="path23942"/> <path d="m 58.852363,75.911601 a 0.92297924,1.0328557 0 0 1 0.922979,1.032857 0.92297924,1.0328557 0 1 1 -0.922979,-1.032857 z" style="fill:#1b1918;fill-rule:evenodd;stroke:#1b1918;stroke-width:0.25;stroke-linecap:butt;stroke-linejoin:miter;stroke-dasharray:none" id="path23944"/> <path d="m 132.27065,36.761278 a 1.0328572,0.92297785 76.787513 0 1 1.13456,0.79464 1.0328572,0.92297785 76.787513 1 1 -1.13456,-0.79464 z" style="fill:#1b1918;fill-rule:evenodd;stroke:#1b1918;stroke-width:0.25;stroke-linecap:butt;stroke-linejoin:miter;stroke-dasharray:none" id="path23946"/> <path d="m 128.99194,36.666429 a 0.93102238,1.0333915 14.341021 0 0 -1.14507,0.794624 0.93102238,1.0333915 14.341021 1 0 1.14507,-0.794624 z" style="fill:#1b1918;fill-rule:evenodd;stroke:#1b1918;stroke-width:0.25;stroke-linecap:butt;stroke-linejoin:miter;stroke-dasharray:none" id="path23948"/> <path d="m 79.320819,54.795229 a 1.1716829,1.171649 0 0 1 1.171685,1.171661 1.1716829,1.171649 0 1 1 -1.171685,-1.171661 z" style="fill:#1b1918;fill-rule:evenodd;stroke:#1b1918;stroke-width:0.25;stroke-linecap:butt;stroke-linejoin:miter;stroke-dasharray:none" id="path23950"/> <path d="m 67.748124,101.19714 a 1.1716829,1.171649 0 0 1 1.171699,1.17165 1.1716829,1.171649 0 1 1 -1.171699,-1.17165 z" style="fill:#1b1918;fill-rule:evenodd;stroke:#1b1918;stroke-width:0.25;stroke-linecap:butt;stroke-linejoin:miter;stroke-dasharray:none" id="path23952"/> <path d="m 125.4595,57.011457 a 1.1716829,1.171649 0 0 1 1.17168,1.17165 1.1716829,1.171649 0 1 1 -1.17168,-1.17165 z" style="fill:#1b1918;fill-rule:evenodd;stroke:#1b1918;stroke-width:0.25;stroke-linecap:butt;stroke-linejoin:miter;stroke-dasharray:none" id="path23954"/> <path d="m 150.06997,34.483148 a 1.1716829,1.171649 0 0 1 1.17168,1.171667 1.1716829,1.171649 0 1 1 -1.17168,-1.171667 z" style="fill:#1b1918;fill-rule:evenodd;stroke:#1b1918;stroke-width:0.25;stroke-linecap:butt;stroke-linejoin:miter;stroke-dasharray:none" id="path23956"/> <path d="m 77.797035,34.305657 a 1.1716829,1.171649 0 0 1 1.171685,1.171647 1.1716829,1.171649 0 1 1 -1.171685,-1.171647 z" style="fill:#1b1918;fill-rule:evenodd;stroke:#1b1918;stroke-width:0.25;stroke-linecap:butt;stroke-linejoin:miter;stroke-dasharray:none" id="path23958"/> <path d="m 173.79235,33.561314 a 1.1716829,1.171649 0 0 1 1.1717,1.171668 1.1716829,1.171649 0 1 1 -1.1717,-1.171668 z" style="fill:#1b1918;fill-rule:evenodd;stroke:#1b1918;stroke-width:0.25;stroke-linecap:butt;stroke-linejoin:miter;stroke-dasharray:none" id="path23960"/> <path d="m 102.65635,55.004261 a 1.1716829,1.171649 0 0 1 1.17169,1.171647 1.1716829,1.171649 0 1 1 -1.17169,-1.171647 z" style="fill:#1b1918;fill-rule:evenodd;stroke:#1b1918;stroke-width:0.25;stroke-linecap:butt;stroke-linejoin:miter;stroke-dasharray:none" id="path23962"/> <path d="m 102.52066,38.678933 c 4.00271,6.37807 7.67998,6.37807 11.03179,0" style="fill:none;stroke:#1b1918;stroke-width:0.25;stroke-linecap:butt;stroke-linejoin:miter;stroke-dasharray:none" id="path23964"/> <path d="m 179.24702,63.979678 c 4.00271,6.37807 7.67997,6.37807 11.03181,0" style="fill:none;stroke:#1b1918;stroke-width:0.25;stroke-linecap:butt;stroke-linejoin:miter;stroke-dasharray:none" id="path23966"/> <path d="m 122.9885,81.668825 c 4.00271,6.378069 7.67997,6.378069 11.03181,0" style="fill:none;stroke:#1b1918;stroke-width:0.25;stroke-linecap:butt;stroke-linejoin:miter;stroke-dasharray:none" id="path23968"/> <path d="m 99.351268,102.39005 c 4.002702,6.37807 7.679972,6.37807 11.031802,0" style="fill:none;stroke:#1b1918;stroke-width:0.25;stroke-linecap:butt;stroke-linejoin:miter;stroke-dasharray:none" id="path23970"/> <path d="m 147.05016,41.578866 c 4.00274,-3.804034 7.67997,-2.935256 11.0318,0" style="fill:none;stroke:#1b1918;stroke-width:0.25;stroke-linecap:butt;stroke-linejoin:miter;stroke-dasharray:none" id="path23972"/> <path d="m 74.777225,41.401359 c 4.00276,-3.804017 7.67999,-2.935239 11.031802,0" style="fill:none;stroke:#1b1918;stroke-width:0.25;stroke-linecap:butt;stroke-linejoin:miter;stroke-dasharray:none" id="path23974"/> <path d="m 100.81908,61.948021 h 8.53989" style="fill:none;stroke:#1b1918;stroke-width:0.25;stroke-linecap:butt;stroke-linejoin:miter;stroke-dasharray:none" id="path23976"/> <path d="m 80.524065,63.198787 6.207811,-2.378095" style="fill:none;stroke:#1b1918;stroke-width:0.25;stroke-linecap:butt;stroke-linejoin:miter;stroke-dasharray:none" id="path23978"/> <g id="Layer1000" transform="matrix(0.16690401,0,0,0.16689919,47.655666,-3.0705942)" style="stroke-width:1.49789"> <path d="m 127.4104,666.4705 v 8.1613 h 19.2172 v -8.1613 z" style="fill:#ffffff;fill-rule:evenodd;stroke:#ffffff;stroke-width:1.49789;stroke-linecap:butt;stroke-linejoin:miter;stroke-dasharray:none" id="path23980"/> <path d="m 151.9281,668.3071 c -1.1122,2.4164 -2.3723,4.4805 -3.761,6.1843 -3.3559,4.1282 -7.1298,6.1923 -11.3215,6.1923 -3.716,0 -7.2005,-2.1051 -10.4537,-6.3316 -1.3564,-1.7611 -2.6037,-3.8743 -3.7481,-6.3399 1.2537,0 2.5395,-0.5323 3.8575,-1.6053 1.035,-1.0075 2.0701,-2.015 3.1116,-3.0225 1.1186,-1.0731 2.0637,-1.6054 2.8417,-1.6054 0.8421,0 1.7037,0.1802 2.5844,0.5488 0.5979,0.303 1.2023,0.6143 1.8066,0.9337 1.6716,-0.9256 3.1888,-1.3925 4.5582,-1.3925 1.0543,0 2.7002,1.0731 4.944,3.2191 2.2373,2.146 4.1017,3.219 5.5803,3.219 z m -4.9889,0.7864 c -1.7101,0.0491 -4.1017,0.1638 -7.1748,0.3358 -0.4372,0.0492 -0.9837,0.1802 -1.6394,0.385 -0.5786,0.1802 -1.003,0.2621 -1.2794,0.2621 -0.2508,0 -0.6558,-0.1147 -1.2087,-0.3604 -0.6107,-0.254 -1.1829,-0.4014 -1.7101,-0.4505 -1.6972,-0.1966 -3.8703,-0.2458 -6.519,-0.172 1.2793,0.901 2.5652,1.7938 3.8638,2.6866 2.0959,1.3187 3.9538,1.9741 5.574,1.9741 2.5716,0 5.9404,-1.5563 10.0936,-4.6607 z" style="fill:#e30016;fill-rule:evenodd;stroke:#1b1918;stroke-width:1.49789;stroke-linecap:butt;stroke-linejoin:miter;stroke-dasharray:none" id="path23982"/> </g> <path d="m 80.160198,55.338833 v 0 q 0,0.222113 0.222132,0.222113 h 2.832059 q 0.222117,0 0.222117,-0.222113 v 0 q 0,-0.222125 -0.222117,-0.222125 H 80.38233 q -0.222132,0 -0.222132,0.222125 z" style="fill:#1b1918;fill-rule:evenodd;stroke:#1b1918;stroke-width:0.25;stroke-linecap:butt;stroke-linejoin:miter;stroke-dasharray:none" id="path23989"/> <path d="m 80.242397,54.507589 h 2.832045 c 0.122205,0 0.222131,0.04998 0.222131,0.111093 v 0 c 0,0.06108 -0.09993,0.111037 -0.222131,0.111037 h -2.832045 c -0.122173,0 -0.222132,-0.04993 -0.222132,-0.111037 v 0 c 0,-0.06112 0.09996,-0.111093 0.222132,-0.111093 z" style="fill:#1b1918;fill-rule:evenodd;stroke:#1b1918;stroke-width:0.25;stroke-linecap:butt;stroke-linejoin:miter;stroke-dasharray:none" id="path23991"/> <path d="m 57.686256,56.490956 a 3.7586283,3.7766617 0 0 1 3.75861,3.776663 3.7586283,3.7766617 0 1 1 -3.75861,-3.776663 z" style="fill:#1b1918;fill-rule:evenodd;stroke:#e30016;stroke-width:0.25;stroke-linecap:butt;stroke-linejoin:miter;stroke-dasharray:none" id="path23993"/> <path d="m 57.637549,62.1925 c 0.3844,-0.275985 0.768777,-0.413977 1.537639,-0.413977 0.848775,0 1.537605,0.24726 1.537605,0.551969 0,0.551969 -1.318142,1.858656 -3.319106,1.71399 -0.854817,0.08662 -2.831359,-1.162021 -2.831359,-1.71399 0,-0.304709 0.68883,-0.551969 1.537601,-0.551969 0.768829,0 1.153224,0.137992 1.53762,0.413977 z" style="fill:#e30016;fill-rule:evenodd;stroke:#1b1918;stroke-width:0.25;stroke-linecap:butt;stroke-linejoin:miter;stroke-dasharray:none" id="path23995"/> <g id="Layer1001" transform="matrix(0.16690401,0,0,0.16689919,44.701422,-0.70719899)" style="stroke-width:1.49789"> <path d="M 68.7068,487.628 A 10.8219,11.8178 0 0 1 79.5287,499.4458 10.8219,11.8178 0 1 1 68.7068,487.628 Z" style="fill:#1b1918;fill-rule:evenodd;stroke:#e30016;stroke-width:1.49789;stroke-linecap:butt;stroke-linejoin:miter;stroke-dasharray:none" id="path23997"/> <path d="m 68.5666,505.4691 c 1.1067,-0.8636 2.2135,-1.2954 4.4272,-1.2954 2.4438,0 4.4271,0.7737 4.4271,1.7272 0,1.7272 -3.7952,5.816 -9.5564,5.3633 -2.4612,0.271 -8.1522,-3.6361 -8.1522,-5.3633 0,-0.9535 1.9833,-1.7272 4.4271,-1.7272 2.2136,0 3.3204,0.4318 4.4272,1.2954 z" style="fill:#e30016;fill-rule:evenodd;stroke:#1b1918;stroke-width:1.49789;stroke-linecap:butt;stroke-linejoin:miter;stroke-dasharray:none" id="path23999"/> </g> <g id="Layer1002" transform="matrix(0.16690401,0,0,0.16689919,42.338027,22.926753)" style="stroke-width:1.49789"> <path d="m 530.4368,110.0804 a 6.4041,6.9934 0 0 1 6.4041,6.9934 6.4041,6.9934 0 1 1 -6.4041,-6.9934 z" style="fill:#1b1918;fill-rule:evenodd;stroke:#e30016;stroke-width:1.49789;stroke-linecap:butt;stroke-linejoin:miter;stroke-dasharray:none" id="path24002"/> <path d="m 530.3538,120.6382 c 0.655,-0.5111 1.3099,-0.7666 2.6199,-0.7666 1.4462,0 2.6199,0.4578 2.6199,1.0221 0,1.0221 -2.2459,3.4417 -5.6553,3.1738 -1.4564,0.1604 -4.8242,-2.1517 -4.8242,-3.1738 0,-0.5643 1.1737,-1.0221 2.6199,-1.0221 1.3099,0 1.9649,0.2555 2.6198,0.7666 z" style="fill:#e30016;fill-rule:evenodd;stroke:#1b1918;stroke-width:1.49789;stroke-linecap:butt;stroke-linejoin:miter;stroke-dasharray:none" id="path24004"/> </g> <path d="m 128.11028,62.35422 a 0.9901247,1.0812064 0 0 1 0.99013,1.081222 0.9901247,1.0812064 0 1 1 -0.99013,-1.081222 z" style="fill:#1b1918;fill-rule:evenodd;stroke:#e30016;stroke-width:0.25;stroke-linecap:butt;stroke-linejoin:miter;stroke-dasharray:none" id="path24007"/> <path d="m 128.09967,63.781092 c 0.18473,-0.239788 0.36944,-0.359685 0.73892,-0.359685 0.40787,0 0.73889,0.21483 0.73889,0.479581 0,0.479603 -0.63343,1.614968 -1.59499,1.489258 -0.41079,0.07526 -1.36064,-1.009655 -1.36064,-1.489258 0,-0.264751 0.33102,-0.479581 0.73891,-0.479581 0.36947,0 0.55418,0.119897 0.73891,0.359685 z" style="fill:#e30016;fill-rule:evenodd;stroke:#1b1918;stroke-width:0.25;stroke-linecap:butt;stroke-linejoin:miter;stroke-dasharray:none" id="path24009"/> <path d="m 128.14527,63.115578 c -0.18473,0.203918 -0.36944,0.305857 -0.73892,0.305857 -0.4079,0 -0.73892,-0.182666 -0.73892,-0.407797 0,-0.407819 0.63345,-1.37325 1.59502,-1.266367 0.41078,-0.06399 1.36062,0.858548 1.36062,1.266367 0,0.225131 -0.33103,0.407797 -0.7389,0.407797 -0.36946,0 -0.55419,-0.101939 -0.7389,-0.305857 z" style="fill:#e30016;fill-rule:evenodd;stroke:#1b1918;stroke-width:0.25;stroke-linecap:butt;stroke-linejoin:miter;stroke-dasharray:none" id="path24011"/> <g id="Layer1003" transform="matrix(0.16690401,0,0,0.16689919,42.338027,22.926753)" style="stroke-width:1.49789"> <defs id="defs24022"/> <path d="M 82.4589,59.6634 A 46.8008,46.8008 0 0 1 129.2597,106.4641 46.8008,46.8008 0 1 1 82.4589,59.6634 Z" style="fill:url(#grad18);stroke:#1b1918;stroke-width:1.49789;stroke-linecap:butt;stroke-linejoin:miter;stroke-dasharray:none" id="path24024"/> <path d="m 97.7602,85.0605 a 7.0201,7.0201 0 0 1 7.0201,7.0201 7.0201,7.0201 0 1 1 -7.0201,-7.0201 z" style="fill:#1b1918;fill-rule:evenodd;stroke:#1b1918;stroke-width:1.49789;stroke-linecap:butt;stroke-linejoin:miter;stroke-dasharray:none" id="path24026"/> <path d="m 67.5925,85.0605 a 7.0201,7.0201 0 0 1 7.0201,7.0201 7.0201,7.0201 0 1 1 -7.0201,-7.0201 z" style="fill:#1b1918;fill-rule:evenodd;stroke:#1b1918;stroke-width:1.49789;stroke-linecap:butt;stroke-linejoin:miter;stroke-dasharray:none" id="path24028"/> <path d="m 49.2216,127.5754 c 25.7378,-14.0153 47.3796,-10.7603 66.0967,0" style="fill:none;stroke:#1b1918;stroke-width:1.49789;stroke-linecap:butt;stroke-linejoin:miter;stroke-dasharray:none" id="path24030"/> <path d="m 47.8868,36.6901 c -0.5134,-1.4104 -0.5776,-3.01 -0.2004,-4.7961 0.38,-1.7785 1.268,-3.4659 2.6594,-5.0513 1.3987,-1.5883 3.2545,-2.799 5.5794,-3.6453 2.1575,-0.7852 4.2075,-1.0824 6.1531,-0.8841 1.9427,0.1908 3.6099,0.81 5.0165,1.852 1.3988,1.0446 2.3896,2.3676 2.9751,3.976 0.4605,1.2654 0.6037,2.4651 0.4399,3.6039 -0.1716,1.1415 -0.4818,2.1867 -0.9306,3.1358 -0.4565,0.9518 -1.3078,2.5738 -2.5409,4.8787 -0.3414,0.6509 -0.5985,1.2019 -0.7757,1.6636 -0.1774,0.4616 -0.2894,0.8651 -0.329,1.2074 -0.047,0.3453 -0.0559,0.6765 -0.0342,0.9967 0.0216,0.3202 0.0855,0.8753 0.1917,1.6654 0.2812,1.6503 -0.3229,2.7419 -1.817,3.2858 -0.77,0.2802 -1.5171,0.2674 -2.2262,-0.0444 -0.7195,-0.3165 -1.2507,-0.9693 -1.6141,-1.9679 -0.4551,-1.2502 -0.6584,-2.402 -0.6026,-3.4583 0.0559,-1.0563 0.2725,-2.0503 0.6604,-2.977 0.3906,-0.9191 0.9523,-2.0559 1.6957,-3.4057 0.6476,-1.1852 1.1062,-2.0601 1.3777,-2.6424 0.2743,-0.5746 0.4605,-1.1777 0.5587,-1.809 0.1011,-0.6239 0.0405,-1.2408 -0.1814,-1.8506 -0.4356,-1.1967 -1.2412,-2.0346 -2.4251,-2.536 -1.1889,-0.491 -2.4745,-0.4892 -3.8772,0.0213 -1.639,0.5966 -2.6935,1.4465 -3.1687,2.5605 -0.4702,1.1035 -0.6819,2.5619 -0.6301,4.3645 0.0996,1.8631 -0.5529,3.0588 -1.9632,3.5721 -0.8385,0.3052 -1.648,0.2632 -2.4334,-0.1158 -0.7882,-0.3864 -1.3081,-0.9137 -1.5578,-1.5998 z M 67.6894,57.203 c -0.9071,0.3302 -1.8082,0.3215 -2.7003,-0.0186 -0.892,-0.3399 -1.527,-1.0412 -1.91,-2.0932 -0.344,-0.9453 -0.302,-1.8498 0.1204,-2.7287 0.4226,-0.879 1.1064,-1.4904 2.0594,-1.8372 0.9376,-0.3413 1.8469,-0.3097 2.7203,0.0975 0.8734,0.4073 1.4795,1.0759 1.8235,2.0212 0.3773,1.0367 0.3416,1.9821 -0.1128,2.821 -0.4545,0.8387 -1.1162,1.4162 -2.0005,1.738 z" style="fill:#1b1918;fill-rule:evenodd;stroke-width:1.49789" id="path24032"/> <path d="m 72.3949,21.9801 c 0,-1.5008 0.4867,-3.026 1.452,-4.5754 0.9654,-1.5413 2.377,-2.8231 4.2266,-3.837 1.8577,-1.0141 4.0157,-1.5172 6.4898,-1.5172 2.296,0 4.324,0.4219 6.0844,1.2737 1.7603,0.8437 3.1152,1.9957 4.0805,3.456 0.9572,1.46 1.4358,3.0421 1.4358,4.7538 0,1.3466 -0.2757,2.5229 -0.8192,3.537 -0.5517,1.0139 -1.2007,1.8901 -1.947,2.6284 -0.7545,0.7382 -2.1092,1.9713 -4.0562,3.7154 -0.5435,0.4949 -0.9735,0.9248 -1.298,1.298 -0.3245,0.3731 -0.5678,0.7139 -0.7221,1.0221 -0.1622,0.3083 -0.2838,0.6165 -0.373,0.9249 -0.0892,0.3082 -0.219,0.8517 -0.3894,1.6305 -0.3002,1.6469 -1.2413,2.4661 -2.8313,2.4661 -0.8194,0 -1.517,-0.2675 -2.0768,-0.803 -0.5678,-0.5435 -0.8437,-1.3386 -0.8437,-2.4013 0,-1.3305 0.2029,-2.4823 0.6166,-3.4558 0.4138,-0.9735 0.9573,-1.8335 1.6387,-2.5717 0.6815,-0.73 1.5981,-1.6062 2.7583,-2.6203 1.0139,-0.8923 1.7441,-1.5576 2.1984,-2.0119 0.4543,-0.4461 0.8355,-0.9492 1.1437,-1.5088 0.3084,-0.5516 0.4625,-1.152 0.4625,-1.801 0,-1.2736 -0.4705,-2.3364 -1.4115,-3.2126 -0.9492,-0.8679 -2.158,-1.3059 -3.6507,-1.3059 -1.7441,0 -3.0258,0.438 -3.8533,1.3223 -0.8193,0.8761 -1.517,2.1741 -2.0848,3.8858 -0.5437,1.7847 -1.5657,2.6851 -3.0666,2.6851 -0.8923,0 -1.6386,-0.3163 -2.247,-0.941 -0.6086,-0.6327 -0.9167,-1.306 -0.9167,-2.0362 z m 11.5925,26.0488 c -0.9654,0 -1.809,-0.3163 -2.5311,-0.941 -0.7219,-0.6246 -1.0788,-1.5007 -1.0788,-2.6203 0,-1.006 0.3488,-1.8415 1.0464,-2.5229 0.6977,-0.6815 1.5494,-1.0221 2.5635,-1.0221 0.9978,0 1.8415,0.3406 2.5229,1.0221 0.6814,0.6814 1.0223,1.5169 1.0223,2.5229 0,1.1033 -0.357,1.9794 -1.0709,2.6123 -0.7139,0.6327 -1.5333,0.949 -2.4743,0.949 z" style="fill:#1b1918;fill-rule:evenodd;stroke-width:1.49789" id="path24034"/> <path d="m 100.3016,29.8908 c 0.5133,-1.4103 1.4923,-2.677 2.9294,-3.8028 1.4342,-1.1182 3.1991,-1.8399 5.284,-2.1601 2.0925,-0.3175 4.2924,-0.0522 6.6173,0.794 2.1575,0.7853 3.9189,1.8753 5.2818,3.2779 1.3656,1.3949 2.2448,2.9408 2.6525,4.6432 0.4,1.6994 0.3087,3.3497 -0.2768,4.9581 -0.4605,1.2654 -1.122,2.2765 -1.9795,3.0436 -0.8652,0.7641 -1.7747,1.3654 -2.7286,1.804 -0.9614,0.4356 -2.6562,1.131 -5.0823,2.104 -0.68,0.2792 -1.231,0.536 -1.6636,0.7758 -0.4326,0.2396 -0.7777,0.4766 -1.0281,0.7135 -0.2579,0.2342 -0.4777,0.4822 -0.6669,0.7415 -0.1893,0.2591 -0.4971,0.7254 -0.9236,1.3989 -0.8454,1.445 -2.0099,1.8929 -3.504,1.3491 -0.77,-0.2802 -1.334,-0.7703 -1.6769,-1.4649 -0.3476,-0.7049 -0.335,-1.5465 0.0285,-2.5451 0.455,-1.2502 1.0396,-2.2632 1.7613,-3.0365 0.7219,-0.7732 1.5267,-1.3955 2.4195,-1.8561 0.8901,-0.4529 2.051,-0.9627 3.4881,-1.5189 1.258,-0.4916 2.1717,-0.8671 2.754,-1.1386 0.5794,-0.2639 1.1098,-0.6062 1.5908,-1.0267 0.4784,-0.4129 0.8285,-0.9244 1.0505,-1.5342 0.4356,-1.1967 0.357,-2.3564 -0.2276,-3.5015 -0.5951,-1.1403 -1.5812,-1.9653 -2.9838,-2.4759 -1.639,-0.5965 -2.9932,-0.6233 -4.0733,-0.0754 -1.0694,0.5432 -2.169,1.5242 -3.288,2.9385 -1.1213,1.4911 -2.3897,1.9877 -3.8,1.4744 -0.8385,-0.3052 -1.4317,-0.8577 -1.7897,-1.6528 -0.3555,-0.8027 -0.4148,-1.5408 -0.165,-2.227 z m 1.9842,28.4428 c -0.9072,-0.3302 -1.5918,-0.916 -2.0566,-1.75 -0.4648,-0.8338 -0.5005,-1.7791 -0.1176,-2.8312 0.3441,-0.9453 0.9576,-1.6112 1.8462,-2.0129 0.8887,-0.4017 1.8055,-0.4305 2.7585,-0.0837 0.9376,0.3413 1.6139,0.9499 2.0212,1.8234 0.4072,0.8734 0.4417,1.7751 0.0977,2.7204 -0.3774,1.0367 -1.0125,1.7379 -1.8997,2.0884 -0.8873,0.3504 -1.7654,0.3674 -2.6497,0.0456 z" style="fill:#1b1918;fill-rule:evenodd;stroke-width:1.49789" id="path24036"/> </g> <path d="m 63.151096,81.595718 c 0.634166,0.17097 1.280534,0.24801 1.958965,0.24801 2.328666,0 4.217469,-0.97068 4.217469,-2.16742 0,-1.19673 -1.888803,-2.16742 -4.217469,-2.16742 -2.328663,0 -4.217466,0.97069 -4.217466,2.16742 0,0.52951 0.364269,1.00955 0.97831,1.38803 -1.029013,0.53954 -2.058026,1.07907 -3.087039,1.61862 4.36723,-1.08724 2.911456,-0.72482 4.36723,-1.08724 z" style="fill:#f5f6f6;fill-rule:evenodd;stroke:#1b1918;stroke-width:0.25;stroke-linecap:butt;stroke-linejoin:miter;stroke-dasharray:none" id="path24039"/> <text x="62.385811" y="81.004417" id="text24043" style="font-size:2.00282px;stroke-width:0.25" transform="scale(1.0000122,0.99998781)"><tspan font-family="Arial" font-size="2.33662px" fill="#1b1918" id="tspan24041" style="stroke-width:0.25">Uups!</tspan></text> <path d="m 81.808025,77.038188 c 1.431883,-2.733445 2.993906,-2.733478 4.686078,0" style="fill:none;stroke:#1b1918;stroke-width:0.25;stroke-linecap:butt;stroke-linejoin:miter;stroke-dasharray:none" id="path24045"/> <path d="m 75.81709,77.038188 c 1.431869,-2.733445 2.993906,-2.733478 4.686077,0" style="fill:none;stroke:#1b1918;stroke-width:0.25;stroke-linecap:butt;stroke-linejoin:miter;stroke-dasharray:none" id="path24047"/> <path d="m 87.058509,79.674488 c -4.006933,7.41941 -7.846895,7.41941 -11.519932,0 z" style="fill:#eeeeef;fill-rule:evenodd;stroke:#1b1918;stroke-width:0.25;stroke-linecap:butt;stroke-linejoin:miter;stroke-dasharray:none" id="path24049"/> <path d="m 134.50831,103.29869 c -4.00693,7.41941 -7.84691,7.41941 -11.51993,0 z" style="fill:#eeeeef;fill-rule:evenodd;stroke:#1b1918;stroke-width:0.25;stroke-linecap:butt;stroke-linejoin:miter;stroke-dasharray:none" id="path24051"/> <path d="m 78.899823,79.605678 v 4.7998" style="fill:none;stroke:#1b1918;stroke-width:0.25;stroke-linecap:butt;stroke-linejoin:miter;stroke-dasharray:none" id="path24053"/> <path d="m 126.34961,103.22988 v 4.79981" style="fill:none;stroke:#1b1918;stroke-width:0.25;stroke-linecap:butt;stroke-linejoin:miter;stroke-dasharray:none" id="path24055"/> <path d="m 83.529004,79.665548 v 4.81036" style="fill:none;stroke:#1b1918;stroke-width:0.25;stroke-linecap:butt;stroke-linejoin:miter;stroke-dasharray:none" id="path24057"/> <path d="m 130.97881,103.28976 v 4.81036" style="fill:none;stroke:#1b1918;stroke-width:0.25;stroke-linecap:butt;stroke-linejoin:miter;stroke-dasharray:none" id="path24059"/> <g id="Layer1004" transform="matrix(0.16690401,0,0,0.16689919,139.23723,0.47449861)" style="stroke-width:1.49789"> <path d="m 196.6858,246.268 c 18.2351,-33.7658 35.7103,-33.7658 52.4259,0 z" style="fill:#f5f6f6;fill-rule:evenodd;stroke:#1b1918;stroke-width:1.49789;stroke-linecap:butt;stroke-linejoin:miter;stroke-dasharray:none" id="path24061"/> <path d="m 233.8151,246.5812 v -21.844" style="fill:#f5f6f6;fill-rule:evenodd;stroke:#1b1918;stroke-width:1.49789;stroke-linecap:butt;stroke-linejoin:miter;stroke-dasharray:none" id="path24063"/> <path d="M 212.7481,246.3087 V 224.4166" style="fill:#f5f6f6;fill-rule:evenodd;stroke:#1b1918;stroke-width:1.49789;stroke-linecap:butt;stroke-linejoin:miter;stroke-dasharray:none" id="path24065"/> </g> <path d="m 112.49199,71.486745 c -5.11444,6.464502 -9.74185,6.464502 -13.882055,0 4.627295,3.232248 9.254705,3.232248 13.882055,0 z" style="fill:#1b1918;fill-rule:evenodd;stroke:#1b1918;stroke-width:0.25;stroke-linecap:butt;stroke-linejoin:miter;stroke-dasharray:none" id="path24068"/> <path d="m 105.6497,73.897063 a 7.8112417,7.8110157 0 0 1 7.81122,7.811015 7.8112417,7.8110157 0 1 1 -7.81122,-7.811015 z" style="fill:url(#grad19);stroke:#1b1918;stroke-width:0.25;stroke-linecap:butt;stroke-linejoin:miter;stroke-dasharray:none" id="path24083"/> <path d="m 107.89667,77.835606 a 1.1716829,1.171649 0 0 1 1.17168,1.171645 1.1716829,1.171649 0 1 1 -1.17168,-1.171645 z" style="fill:#1b1918;fill-rule:evenodd;stroke:#1b1918;stroke-width:0.25;stroke-linecap:butt;stroke-linejoin:miter;stroke-dasharray:none" id="path24085"/> <path d="m 103.42929,77.835606 a 1.1716829,1.171649 0 0 1 1.17168,1.171645 1.1716829,1.171649 0 1 1 -1.17168,-1.171645 z" style="fill:#1b1918;fill-rule:evenodd;stroke:#1b1918;stroke-width:0.25;stroke-linecap:butt;stroke-linejoin:miter;stroke-dasharray:none" id="path24087"/> <path d="m 111.40655,82.205722 c -4.00694,7.419388 -7.8469,7.419388 -11.519931,0 z" style="fill:#f5f6f6;fill-rule:evenodd;stroke:#1b1918;stroke-width:0.25;stroke-linecap:butt;stroke-linejoin:miter;stroke-dasharray:none" id="path24089"/> <path d="m 103.24786,82.136895 v 4.79982" style="fill:none;stroke:#1b1918;stroke-width:0.25;stroke-linecap:butt;stroke-linejoin:miter;stroke-dasharray:none" id="path24091"/> <path d="m 107.87704,82.196779 v 4.810366" style="fill:none;stroke:#1b1918;stroke-width:0.25;stroke-linecap:butt;stroke-linejoin:miter;stroke-dasharray:none" id="path24093"/> <path d="m 109.23655,76.152593 -3.1597,1.662948" style="fill:none;stroke:#1b1918;stroke-width:0.25;stroke-linecap:butt;stroke-linejoin:miter;stroke-dasharray:none" id="path24095"/> <path d="m 180.08577,31.479546 -3.15968,1.662932" style="fill:none;stroke:#1b1918;stroke-width:0.25;stroke-linecap:butt;stroke-linejoin:miter;stroke-dasharray:none" id="path24097"/> <path d="m 155.28533,53.635788 -2.81089,2.01826" style="fill:none;stroke:#1b1918;stroke-width:0.25;stroke-linecap:butt;stroke-linejoin:miter;stroke-dasharray:none" id="path24099"/> <path d="m 148.08174,53.635788 2.81088,2.01826" style="fill:none;stroke:#1b1918;stroke-width:0.25;stroke-linecap:butt;stroke-linejoin:miter;stroke-dasharray:none" id="path24101"/> <path d="m 75.786562,33.93135 3.159676,-1.662947" style="fill:none;stroke:#1b1918;stroke-width:0.25;stroke-linecap:butt;stroke-linejoin:miter;stroke-dasharray:none" id="path24103"/> <path d="m 105.09178,77.815541 -3.15969,-1.662948" style="fill:none;stroke:#1b1918;stroke-width:0.25;stroke-linecap:butt;stroke-linejoin:miter;stroke-dasharray:none" id="path24105"/> <path d="m 175.94101,33.142478 -3.15968,-1.662932" style="fill:none;stroke:#1b1918;stroke-width:0.25;stroke-linecap:butt;stroke-linejoin:miter;stroke-dasharray:none" id="path24107"/> <path d="m 81.67697,32.268403 3.159676,1.662947" style="fill:none;stroke:#1b1918;stroke-width:0.25;stroke-linecap:butt;stroke-linejoin:miter;stroke-dasharray:none" id="path24109"/> <path d="m 101.59662,99.539389 c 0.83244,1.489931 2.02173,1.489931 3.56775,0" style="fill:none;stroke:#1b1918;stroke-width:0.25;stroke-linecap:butt;stroke-linejoin:miter;stroke-dasharray:none" id="path24111"/> <path d="m 134.86183,58.873518 c 0.27501,-0.387255 0.51747,-0.564617 0.93734,-0.499512 0.46352,0.07188 0.78136,0.506352 0.70948,0.969868 -0.13019,0.83967 -1.10009,1.549142 -2.06999,2.258614 -0.70949,-0.969868 -1.41898,-1.939737 -1.28878,-2.779407 0.0719,-0.46351 0.50639,-0.781339 0.9699,-0.709472 0.41988,0.06511 0.59723,0.307561 0.74205,0.759909 z" style="fill:url(#grad21);stroke:#1b1918;stroke-width:0.25;stroke-linecap:butt;stroke-linejoin:miter;stroke-dasharray:none" id="path24127"/> <path d="m 133.97129,52.691739 c -0.0514,-0.254104 -0.0315,-0.416847 0.1513,-0.559646 0.20175,-0.157636 0.4934,-0.121837 0.65104,0.0799 0.28557,0.365458 0.20569,1.016482 0.12579,1.667506 -0.65104,-0.0799 -1.30208,-0.15979 -1.58766,-0.525248 -0.15763,-0.201732 -0.12185,-0.493388 0.0799,-0.651024 0.18276,-0.142783 0.34551,-0.122821 0.57964,-0.01148 z" style="fill:url(#grad23);stroke:#1b1918;stroke-width:0.25;stroke-linecap:butt;stroke-linejoin:miter;stroke-dasharray:none" id="path24143"/> <path d="m 135.22272,55.627029 c 0.30856,-0.100442 0.51246,-0.09904 0.71087,0.107481 0.21904,0.228022 0.2092,0.595584 -0.022,0.820493 -0.41879,0.407437 -1.23438,0.401828 -2.04999,0.39622 0.022,-0.820476 0.0439,-1.640952 0.46275,-2.048404 0.23118,-0.224913 0.59657,-0.222392 0.81562,0.0056 0.19841,0.206538 0.1929,0.41164 0.0827,0.718601 z" style="fill:url(#grad25);stroke:#1b1918;stroke-width:0.25;stroke-linecap:butt;stroke-linejoin:miter;stroke-dasharray:none" id="path24159"/> <path d="m 132.50321,62.782965 c 0.11079,-0.517104 0.2807,-0.805204 0.73877,-0.923437 0.5057,-0.130497 1.022,0.173962 1.15252,0.679633 0.23644,0.916058 -0.44321,2.068548 -1.12286,3.221038 -1.15252,-0.679633 -2.30505,-1.359265 -2.54148,-2.275323 -0.13051,-0.505671 0.17396,-1.021976 0.67964,-1.15249 0.45809,-0.118216 0.7462,0.05165 1.09341,0.450579 z" style="fill:url(#grad27);stroke:#1b1918;stroke-width:0.25;stroke-linecap:butt;stroke-linejoin:miter;stroke-dasharray:none" id="path24175"/> <path d="m 126.42959,103.5511 h 4.32257 v 4.95548 c 0,0.45863 -0.39226,0.83388 -0.87168,0.83388 h -2.57921 c -0.47942,0 -0.87168,-0.37525 -0.87168,-0.83388 z" style="fill:#f5f6f6;fill-rule:evenodd;stroke:#1b1918;stroke-width:0.25;stroke-linecap:butt;stroke-linejoin:miter;stroke-dasharray:none" id="path24177"/> <path d="m 123.66231,103.45628 h 2.6484 c 0.0457,0 0.0831,0.0436 0.0831,0.0969 v 4.01164 c 0,0.27038 -0.18949,0.49155 -0.42102,0.49155 h -1.9725 c -0.23154,0 -0.42103,-0.22117 -0.42103,-0.49155 v -4.01164 c 0,-0.0533 0.0374,-0.0969 0.0831,-0.0969 z" style="fill:#f5f6f6;fill-rule:evenodd;stroke:#1b1918;stroke-width:0.25;stroke-linecap:butt;stroke-linejoin:miter;stroke-dasharray:none" id="path24179"/> <path d="m 125.93736,76.744681 a 2.2444084,2.2443435 0 0 1 2.24441,2.244324 2.2444084,2.2443435 0 1 1 -2.24441,-2.244324 z" style="fill:none;stroke:#1b1918;stroke-width:0.25;stroke-linecap:butt;stroke-linejoin:miter;stroke-dasharray:none" id="path24181"/> <path d="m 130.93667,76.732948 a 2.2444084,2.2443435 0 0 1 2.24441,2.244324 2.2444084,2.2443435 0 1 1 -2.24441,-2.244324 z" style="fill:none;stroke:#1b1918;stroke-width:0.25;stroke-linecap:butt;stroke-linejoin:miter;stroke-dasharray:none" id="path24183"/> <path d="m 123.63283,78.798462 -1.9119,-1.579348" style="fill:none;stroke:#1b1918;stroke-width:0.25;stroke-linecap:butt;stroke-linejoin:miter;stroke-dasharray:none" id="path24185"/> <path d="m 133.27546,78.798462 1.99502,-1.579348" style="fill:none;stroke:#1b1918;stroke-width:0.25;stroke-linecap:butt;stroke-linejoin:miter;stroke-dasharray:none" id="path24187"/> <path d="m 126.95788,77.052858 c 0.99747,-0.775847 1.88418,-0.775847 2.66003,0" style="fill:none;stroke:#1b1918;stroke-width:0.25;stroke-linecap:butt;stroke-linejoin:miter;stroke-dasharray:none" id="path24189"/> <g id="Layer1005" transform="matrix(0.16690401,0,0,0.16689919,73.141051,27.42831)" style="stroke-width:1.49789"> <path d="M -18.9628,394.041 A 45.0857,20.7364 0 0 1 26.123,414.7774 45.0857,20.7364 0 1 1 -18.9628,394.041 Z" style="fill:none;stroke:#1b1918;stroke-width:1.49789;stroke-linecap:butt;stroke-linejoin:miter;stroke-dasharray:none" id="path24191"/> <path d="m -18.9631,399.7103 a 39.4165,15.0671 0 0 1 39.4165,15.0671 39.4165,15.0671 0 1 1 -39.4165,-15.0671 z" style="fill:none;stroke:#1b1918;stroke-width:1.49789;stroke-linecap:butt;stroke-linejoin:miter;stroke-dasharray:none" id="path24193"/> </g> <path d="m 84.278854,36.741283 c 0.124661,0.581861 0.498757,0.872767 0.498757,1.163672 0,0.291005 -0.124675,0.58191 -0.498757,0.58191 -0.3741,0 -0.498761,-0.290905 -0.498761,-0.58191 0,-0.290905 0.3741,-0.581811 0.498761,-1.163672 z" style="fill:#eceded;fill-rule:evenodd;stroke:#1b1918;stroke-width:0.25;stroke-linecap:butt;stroke-linejoin:miter;stroke-dasharray:none" id="path24198"/> <path d="m 154.47727,64.010118 h -6e-5 l -0.71608,-2.32747 h 1.43222 z" style="fill:#f5f6f6;fill-rule:evenodd;stroke:#1b1918;stroke-width:0.25;stroke-linecap:butt;stroke-linejoin:miter;stroke-dasharray:none" id="path24200"/> <path d="m 149.15473,64.010118 h -5e-5 l -0.71607,-2.32747 h 1.43221 z" style="fill:#f5f6f6;fill-rule:evenodd;stroke:#1b1918;stroke-width:0.25;stroke-linecap:butt;stroke-linejoin:miter;stroke-dasharray:none" id="path24202"/> <path d="m 146.21458,60.020058 c 4.11341,3.16631 7.78909,3.14351 11.03179,-0.66497" style="fill:none;stroke:#1b1918;stroke-width:0.25;stroke-linecap:butt;stroke-linejoin:miter;stroke-dasharray:none" id="path24204"/> <path d="m 193.6258,56.910898 c -0.2145,-0.2276 -0.40203,-0.36015 -0.6248,-0.44342 -0.22334,-0.0835 -0.48461,-0.11843 -0.8452,-0.15048 -0.27402,-0.0243 -0.43591,0.10341 -0.58427,0.22052 -0.0513,0.0405 -0.10108,0.0798 -0.15288,0.11143 -0.0606,0.0371 -0.0969,0.0722 -0.11365,0.10515 -0.0195,0.0384 -0.0118,0.0744 0.0149,0.10705 0.0283,0.0347 0.078,0.0664 0.13956,0.094 0.12562,0.0562 0.2992,0.0945 0.4486,0.10775 0.10955,0.01 0.15248,0.0323 0.14968,0.0638 -0.005,0.0524 -0.18775,0.11806 -0.37452,0.18504 -0.13394,0.048 -0.26991,0.0968 -0.33562,0.13697 -0.19274,0.11783 -0.41912,0.32876 -0.53462,0.55798 -0.0866,0.17181 -0.11059,0.35363 -0.0101,0.51275 0.0816,0.12911 0.35895,0.24155 0.53275,0.312 0.0765,0.031 0.13413,0.0544 0.1525,0.0707 0.0158,0.014 0.0165,0.0263 -4.7e-4,0.0368 -0.13314,0.0814 -0.19043,0.18924 -0.18929,0.29849 0.001,0.0768 0.0305,0.15455 0.0829,0.22449 0.0525,0.07 0.12777,0.13215 0.21984,0.17776 0.1402,0.0695 0.31971,0.10061 0.5172,0.0629 0.30182,-0.0577 0.60945,-0.14288 0.78569,-0.27739 0.17188,-0.1312 0.21721,-0.31171 0.003,-0.56373 l -0.0977,-0.11527 0.13582,0.092 c 0.12136,0.0822 0.28294,0.11832 0.45423,0.11703 0.14097,-0.001 0.2885,-0.0275 0.42595,-0.0742 0.13762,-0.0469 0.26505,-0.11428 0.36558,-0.19733 0.14335,-0.11838 0.23206,-0.26867 0.21764,-0.43666 -0.004,-0.0423 -0.0601,-0.0864 -0.1223,-0.12174 -0.0104,-0.003 -0.0207,-0.007 -0.031,-0.0109 -0.0773,-0.0296 -0.11916,-0.048 -0.13603,-0.0571 -0.10296,-0.0554 -0.0807,-0.065 0.0227,-0.0382 0.0127,0.003 0.0354,0.0112 0.0628,0.0225 0.0307,0.0126 0.0676,0.0298 0.10383,0.0502 0.25539,0.0805 0.53823,-0.0323 0.75246,-0.2162 0.13525,-0.11613 0.24296,-0.2606 0.29957,-0.40325 h 1e-4 c 0.0559,-0.14076 0.0618,-0.27924 -0.005,-0.38548 -0.0737,-0.11674 -0.23817,-0.19561 -0.52566,-0.1966 -0.0966,-3.3e-4 -0.16829,0.01 -0.22029,0.0172 v 2e-5 c -0.0383,0.006 -0.0668,0.009 -0.0903,0.007 l 3e-5,-7e-5 c -0.082,-0.007 -0.0778,-0.0625 -0.0587,-0.27776 0.0139,-0.1559 -0.0265,-0.25826 -0.0992,-0.31955 -0.0526,-0.0443 -0.12317,-0.0675 -0.20258,-0.0743 -0.0819,-0.007 -0.17364,0.003 -0.26574,0.0262 -0.23567,0.0581 -0.47055,0.19583 -0.55367,0.33091 0.10804,0.0752 0.21434,0.16973 0.32766,0.28997 z m -0.60382,-0.47727 c 0.0975,0.0365 0.18827,0.0818 0.27719,0.13952 0.0936,-0.14032 0.33464,-0.28059 0.57568,-0.34004 0.0984,-0.0242 0.19747,-0.0353 0.28725,-0.0277 0.0923,0.008 0.17475,0.0352 0.23711,0.0878 0.0819,0.069 0.12764,0.18095 0.11277,0.34839 -0.0165,0.18514 -0.0204,0.23266 0.0108,0.23542 v -6e-5 c 0.0157,0.002 0.0409,-0.002 0.0747,-0.007 l 1.1e-4,2e-5 c 0.054,-0.008 0.12839,-0.0181 0.22993,-0.0179 0.31154,10e-4 0.49168,0.0894 0.57419,0.22017 0.0729,0.11553 0.0675,0.26348 0.008,0.41261 l 1e-4,2e-5 c -0.0584,0.14725 -0.16968,0.29642 -0.30942,0.41641 -0.19917,0.171 -0.45686,0.2831 -0.70524,0.24886 0.0358,0.0301 0.0616,0.063 0.0644,0.0964 0.0153,0.17885 -0.0783,0.33825 -0.22988,0.46336 -0.10491,0.0867 -0.23775,0.15695 -0.38105,0.20577 -0.1435,0.0489 -0.29801,0.0764 -0.44598,0.0775 -0.14183,10e-4 -0.27794,-0.0221 -0.39347,-0.0737 0.15921,0.23155 0.1013,0.4036 -0.0682,0.53301 -0.18349,0.14004 -0.49919,0.22789 -0.80812,0.28688 -0.21301,0.0407 -0.40714,0.007 -0.55905,-0.0684 -0.0995,-0.0493 -0.18086,-0.11645 -0.23753,-0.19203 -0.0567,-0.0756 -0.0888,-0.15994 -0.0896,-0.24346 -0.001,-0.11551 0.057,-0.22942 0.19152,-0.31707 -0.0217,-0.0118 -0.0677,-0.0305 -0.12526,-0.0539 -0.17989,-0.0729 -0.46695,-0.18928 -0.55627,-0.33068 -0.10737,-0.16998 -0.0828,-0.36195 0.008,-0.54234 0.11867,-0.23546 0.35103,-0.45206 0.54886,-0.57298 0.0699,-0.0427 0.20865,-0.0925 0.34533,-0.14149 0.17401,-0.0624 0.34463,-0.12361 0.34742,-0.15504 4.8e-4,-0.008 -0.0287,-0.0149 -0.10183,-0.0214 -0.1559,-0.0139 -0.33762,-0.054 -0.4699,-0.11322 -0.0688,-0.0308 -0.12497,-0.0671 -0.15829,-0.10787 -0.0351,-0.0429 -0.0452,-0.0901 -0.0195,-0.14062 0.0196,-0.0387 0.0606,-0.079 0.12788,-0.12014 0.0507,-0.031 0.099,-0.0691 0.14858,-0.10824 0.1564,-0.12346 0.32705,-0.25814 0.62578,-0.2316 0.36605,0.0326 0.63199,0.0683 0.8628,0.15454 z" style="fill:#ffffff;fill-rule:evenodd;stroke-width:0.25" id="path24206"/> <g id="Layer1006" transform="matrix(0.16690401,0,0,0.16689919,98.812781,-48.231559)" style="stroke-width:1.49789"> <path d="m 485.0907,630.3691 c 15.0989,-23.5412 57.0025,0.9847 59.4816,-2.3774 9.9585,-13.5063 -43.345,-59.7892 -67.5253,-43.2236 -28.1351,19.2748 -35.4606,55.1217 -72.4765,63.8374 12.6398,1.2407 35.3002,5.7708 47.6228,-0.5539 5.9861,-3.0716 14.8423,-1.9432 20.9908,-6.1549 1.0002,-0.6851 2.4857,-1.4811 3.9909,-2.3136 0.3054,-0.2874 0.6723,-0.4975 1.076,-0.6021 1.3102,-0.7449 2.5491,-1.5041 3.3984,-2.228 0.9571,-0.8155 5.0318,-8.4549 3.4413,-6.3839 z" style="fill:#e30016;fill-rule:evenodd;stroke-width:1.49789" id="path24208"/> <path d="m 484.3553,629.7948 0.0467,-0.0698 -8e-4,-5e-4 0.008,-0.0108 c 11.3191,-17.4988 36.5951,-9.2761 50.7009,-4.6865 4.984,1.6214 8.4553,2.751 8.7617,2.3354 1.3182,-1.7875 1.3066,-4.335 0.2694,-7.3105 v -0.004 c -1.5401,-4.4186 -5.2786,-9.6689 -10.3329,-14.8374 -5.0936,-5.2089 -11.512,-10.3115 -18.3644,-14.3866 -13.2831,-7.8991 -28.1399,-11.9106 -37.9232,-5.2081 -11.0986,7.6033 -18.9666,17.8727 -26.7291,28.0046 -10.9544,14.2982 -21.7044,28.3277 -41.0446,34.573 0.7732,0.0958 1.563,0.1953 2.3703,0.2971 12.6995,1.6024 29.7599,3.7553 39.6974,-1.3453 2.7931,-1.4332 6.1046,-1.9781 9.492,-2.5348 4.0248,-0.6619 8.1636,-1.3425 11.4032,-3.5617 0.9166,-0.6279 2.1406,-1.302 3.4272,-2.0103 l 0.5499,-0.3034 c 0.1819,-0.159 0.379,-0.2987 0.5876,-0.4152 0.2094,-0.1171 0.4301,-0.2118 0.6582,-0.2804 0.6064,-0.3464 1.1973,-0.6959 1.7372,-1.044 l 0.1137,-0.0737 z m 50.2459,-2.8537 c -13.4297,-4.3696 -37.3102,-12.1376 -48.1646,3.1043 -0.0567,0.1978 -0.1298,0.4155 -0.2191,0.6522 -0.0937,0.25 -0.2664,0.6262 -0.4891,1.0769 -0.9317,1.883 -2.846,5.1874 -3.5273,5.7676 -0.4606,0.3926 -1.0156,0.7878 -1.6256,1.1804 -0.4239,0.2733 -0.8796,0.5482 -1.351,0.8229 l -0.6841,0.8904 c -0.4652,0.0827 -0.8886,0.3035 -1.2345,0.6236 -0.085,0.0334 -0.1683,0.0714 -0.2492,0.1142 l 0.4055,-0.6318 -0.5186,0.286 c -1.2733,0.701 -2.4845,1.368 -3.2856,1.9168 -3.5629,2.4406 -7.8857,3.1518 -12.0894,3.8429 -3.2576,0.5355 -6.4418,1.0593 -8.9968,2.3703 -10.396,5.336 -27.7453,3.1465 -40.6596,1.5171 -2.7606,-0.3483 -5.3202,-0.6712 -7.4195,-0.8773 l -5.9776,-0.587 5.8681,-1.3817 c 21.9452,-5.1669 33.3692,-20.078 45.0296,-35.2975 7.8515,-10.2481 15.8096,-20.6351 27.1602,-28.4111 10.4235,-7.1411 25.9442,-3.0507 39.7272,5.1457 6.9752,4.1482 13.5227,9.3566 18.7318,14.6838 5.2473,5.3657 9.15,10.8768 10.7915,15.584 l 10e-4,-6e-4 c 1.2753,3.6584 1.2204,6.8834 -0.5522,9.2875 -1.0657,1.4454 -5.0095,0.1627 -10.6714,-1.6796 z" style="fill:#1b1918;fill-rule:evenodd;stroke-width:1.49789" id="path24210"/> <path d="m 552.4117,626.9511 c -2.8114,-7.8951 -6.7443,-11.46 -16.9043,-3.8409 -0.2483,0.1862 -9.6927,-15.9128 -14.2269,-5.1308 0.5311,-6.6026 -6.9217,-3.7641 -8.5958,-2.3374 -5.3019,4.5185 -0.8678,-0.832 -7.2028,-1.4538 -4.6721,-0.4586 -6.6053,1.0661 -8.3463,3.6618 -1.8298,2.7276 -1.8374,-2.3427 -6.5958,0.0995 -2.4089,1.236 -1.8969,3.0628 -5.5606,5.429 -1.6421,1.0606 -7.6406,4.5968 -9.7691,6.627 -0.8985,0.8571 -3.6659,6.9391 -2.3218,8.5221 1.6293,1.9188 2.3077,2.4396 3.2788,3.4042 0.8822,0.8764 1.4534,2.4621 4.8401,1.128 2.1734,-0.8562 -0.7691,3.0059 3.5768,3.4325 4.4649,0.4382 6.8191,-2.8746 7.1919,-7.5095 0.3579,-4.4501 2.9702,0.8017 7.5008,-2.2512 1.4719,-0.9918 1.1416,-0.7561 1.5717,-1.3394 2.7267,-3.6985 -2.0021,0.5503 5.7504,1.3112 3.0267,0.2971 5.4604,-0.6218 6.108,-3.1347 0.3188,-1.2382 -0.1538,1.5239 3.3928,3.3205 5.9401,3.0089 7.4407,-2.2 9.8584,-4.2604 0.2636,-0.2246 1.1041,3.0958 3.3928,3.3205 3.8622,0.3791 6.5035,0.8389 9.62,-1.2963 4.3963,-3.0117 -4.2119,1.8271 6.3574,2.8645 3.7868,0.3717 4.0924,-0.3366 6.0484,-2.3937 1.3892,-1.4608 0.2265,-7.5978 1.0351,-8.1727 z" style="fill:#f5f6f6;fill-rule:evenodd;stroke:#1b1918;stroke-width:1.49789;stroke-linecap:butt;stroke-linejoin:miter;stroke-dasharray:none" id="path24212"/> <path d="m 401.9603,644.6765 c 0.1969,-0.0256 0.3981,-0.0401 0.6045,-0.0433 0.1588,-0.002 0.4447,0.1433 0.487,0.0136 0.0874,-0.2675 0.4628,-0.8851 0.0172,-1.0287 l -4e-4,-10e-5 c -0.5141,-0.1656 0.2591,-0.8179 0.5006,-1.1531 0.1008,-0.1397 0.2143,-0.2681 0.3389,-0.3788 0.1197,-0.1061 0.2496,-0.1974 0.3891,-0.2678 0.1536,-0.0776 0.3188,-0.1311 0.4929,-0.1545 0.1679,-0.0226 0.346,-0.0171 0.5312,0.021 0.2604,0.0535 0.532,0.171 0.809,0.3657 0.2496,0.1754 0.5043,0.4137 0.76,0.7245 0.2764,0.3361 0.4505,0.5472 0.5584,0.6597 0.035,0.0366 -0.002,0.0797 0.01,0.0736 l 0.005,-0.002 c 0.0332,-0.0166 0.087,-0.0685 0.1554,-0.1407 l 10e-4,-10e-4 0.002,-0.002 0.005,-0.005 c 0.063,-0.0608 0.1114,-0.1595 0.2245,-0.216 l 5e-4,-2e-4 c 0.1168,-0.0583 0.2089,-0.1737 0.3542,-0.2693 0.4229,-0.2782 0.8309,-0.4288 1.2161,-0.4753 0.4351,-0.0527 0.8441,0.0261 1.2159,0.2014 0.3051,0.1439 0.5818,0.3526 0.8245,0.6068 0.2068,0.2166 0.3187,0.8508 0.5451,0.7378 l 0.005,-0.002 0.0936,0.182 c 0.165,0.3212 0.2941,0.6688 0.3826,1.0212 0.0889,0.3536 0.1377,0.7141 0.1416,1.06 0.006,0.5179 -0.0882,1.0095 -0.2965,1.4099 -0.1461,0.2805 -0.4139,0.457 -0.6119,0.688 -0.0427,0.0498 0.1558,0.0919 0.2187,0.1522 0.3211,0.308 0.553,0.6479 0.7054,1.002 0.162,0.3765 -0.2066,1.1386 0.23,1.1561 h 4e-4 c 0.2844,0.0114 -0.038,0.5034 -0.1023,0.7459 -0.0652,0.2467 -0.1606,0.4861 -0.2822,0.7107 -0.1207,0.2232 -0.2677,0.4327 -0.4357,0.6206 -0.1666,0.1862 -0.3542,0.3527 -0.5591,0.492 -0.2027,0.138 -0.4232,0.2508 -0.6569,0.3325 -0.1049,0.0366 -0.4301,-3e-4 -0.3236,0.0905 0.3577,0.3049 0.7036,0.489 0.9056,0.7683 0.268,0.3707 0.3669,0.7703 0.3438,1.1805 -0.0242,0.4274 -0.1846,0.8673 -0.4225,1.297 -0.2346,0.4242 -0.5456,0.8416 -0.8755,1.2291 -0.2249,0.2644 -0.4964,0.459 -0.7932,0.5911 -0.3234,0.1438 -0.6784,0.2137 -1.0385,0.2211 -0.2259,0.005 -0.4536,-0.0154 -0.6753,-0.0568 -0.2297,-0.043 -0.4561,-0.1095 -0.6709,-0.1958 -0.2152,-0.0866 -0.422,-0.1947 -0.6116,-0.3205 -0.1874,-0.1245 -0.359,-0.2667 -0.5072,-0.4238 -0.2152,-0.2281 -0.3815,-0.4868 -0.4786,-0.7659 -0.0671,-0.1926 -0.0131,-0.3825 -0.0959,-0.6051 -0.0293,-0.0791 -0.2023,0.1209 -0.2796,0.0268 l -4e-4,-5e-4 -0.001,10e-5 3e-4,6e-4 c 0.391,0.726 -1.9366,0.1926 -2.6899,-0.1623 -0.4292,-0.2023 -0.7895,-0.4805 -1.0871,-0.8072 -0.3263,-0.3583 -0.577,-0.7743 -0.7627,-1.2116 -0.2114,-0.4983 -0.3395,-1.0288 -0.4001,-1.5329 -0.069,-0.572 -0.0509,-1.1131 0.0298,-1.5391 0.0278,-0.1462 0.0974,-0.3289 0.1879,-0.5282 0.0876,-0.1933 0.1966,-0.4072 0.3049,-0.6188 l 8e-4,-0.002 c 0.1798,-0.3515 0.6264,-0.978 0.4352,-0.8853 l -0.0867,0.042 c -0.2497,0.1211 -0.5403,0.2357 -0.8444,0.3204 -0.2836,0.0791 -0.5778,0.1333 -0.8542,0.1504 -0.1563,0.01 -0.4955,-0.1422 -0.4546,-0.009 l 1e-4,3e-4 c 0.04,0.1303 -0.2775,-0.0459 -0.4016,-0.0914 -0.1474,-0.0539 -0.2802,-0.1295 -0.3908,-0.2285 -0.1065,-0.0951 -0.1914,-0.2101 -0.2486,-0.3456 -0.0432,-0.1021 -0.0698,-0.217 -0.0778,-0.3442 -0.007,-0.1155 0.001,-0.2431 0.0273,-0.3815 0.0181,-0.0958 0.0293,-0.1979 0.0368,-0.3028 0.008,-0.1068 0.0119,-0.2178 0.0161,-0.3294 0.0275,-0.7421 0.0576,-1.5523 1.008,-2.0268 0.5554,-0.2772 1.0455,-0.5063 1.5126,-0.6815 0.4708,-0.1767 0.9181,-0.2979 1.384,-0.3587 z" style="fill:#f5f6f6;fill-rule:evenodd;stroke:#1b1918;stroke-width:1.49789;stroke-linecap:butt;stroke-linejoin:miter;stroke-dasharray:none" id="path24214"/> </g> <path d="m 151.73311,55.406268 v 0 l -1.37158,-4.32247 h 2.74315 z" style="fill:#1b1918;fill-rule:evenodd;stroke:#1b1918;stroke-width:0.25;stroke-linecap:butt;stroke-linejoin:miter;stroke-dasharray:none" id="path24217"/> <path d="m 130.39146,37.15017 a 1.4717407,2.2646085 13.210107 0 0 -2.86557,-0.672621 l 1.43278,0.336319 z" style="fill:#fef761;fill-rule:evenodd;stroke:#1b1918;stroke-width:0.25;stroke-linecap:butt;stroke-linejoin:miter;stroke-dasharray:none" id="path24219"/> <path d="m 130.86455,37.154759 a 2.2646085,1.4717407 76.789893 0 1 2.86558,-0.67262 l -1.43279,0.336319 z" style="fill:#fef761;fill-rule:evenodd;stroke:#1b1918;stroke-width:0.25;stroke-linecap:butt;stroke-linejoin:miter;stroke-dasharray:none" id="path24221"/> <path d="m 151.38406,98.954024 a 7.8381018,7.8223378 0 0 1 7.83807,7.822336 7.8381018,7.8223378 0 1 1 -7.83807,-7.822336 z" style="fill:url(#grad1-5);stroke:#1b1918;stroke-width:0.25;stroke-linecap:butt;stroke-linejoin:miter;stroke-dasharray:none" id="path26944"/> <path d="m 151.56511,72.720992 a 7.8381018,7.8223378 0 0 1 7.8381,7.82233 7.8381018,7.8223378 0 1 1 -7.8381,-7.82233 z" style="fill:url(#grad2-8);stroke:#1b1918;stroke-width:0.25;stroke-linecap:butt;stroke-linejoin:miter;stroke-dasharray:none" id="path26957"/> <path d="m 175.81457,72.492812 a 7.8381018,7.8223378 0 0 1 7.8381,7.82233 7.8381018,7.8223378 0 1 1 -7.8381,-7.82233 z" style="fill:url(#grad3-3);stroke:#1b1918;stroke-width:0.25;stroke-linecap:butt;stroke-linejoin:miter;stroke-dasharray:none" id="path26970"/> <path d="m 67.778289,120.75022 a 7.8381018,7.8223378 0 0 1 7.838102,7.82233 7.8381018,7.8223378 0 1 1 -7.838102,-7.82233 z" style="fill:#ff0000;stroke:#1b1918;stroke-width:0.25;stroke-linecap:butt;stroke-linejoin:miter;stroke-dasharray:none" id="path26985"/> <path d="m 154.12774,78.813652 a 1.1757119,1.1733473 0 0 1 1.17571,1.17336 1.1757119,1.1733473 0 1 1 -1.17571,-1.17336 z" style="fill:#1b1918;fill-rule:evenodd;stroke:#1b1918;stroke-width:0.25;stroke-linecap:butt;stroke-linejoin:miter;stroke-dasharray:none" id="path26987"/> <path d="m 178.87702,74.770512 a 1.1757119,1.1733473 0 0 1 1.50693,0.70128 1.1757119,1.1733473 0 1 1 -1.50693,-0.70128 z" style="fill:#1b1918;fill-rule:evenodd;stroke:#1b1918;stroke-width:0.25;stroke-linecap:butt;stroke-linejoin:miter;stroke-dasharray:none" id="path26989"/> <path d="m 149.0753,78.813652 a 1.1757119,1.1733473 0 0 1 1.17573,1.17336 1.1757119,1.1733473 0 1 1 -1.17573,-1.17336 z" style="fill:#1b1918;fill-rule:evenodd;stroke:#1b1918;stroke-width:0.25;stroke-linecap:butt;stroke-linejoin:miter;stroke-dasharray:none" id="path26991"/> <path d="m 173.82302,74.761952 a 1.1757119,1.1733473 0 0 1 1.50693,0.70128 1.1757119,1.1733473 0 1 1 -1.50693,-0.70128 z" style="fill:#1b1918;fill-rule:evenodd;stroke:#1b1918;stroke-width:0.25;stroke-linecap:butt;stroke-linejoin:miter;stroke-dasharray:none" id="path26993"/> <path d="m 173.07382,76.296542 a 1.1757119,1.1733473 0 0 1 2.174,-0.88935 l -1.06918,0.48805 z" style="fill:#ffdd0e;fill-rule:evenodd;stroke:#1b1918;stroke-width:0.25;stroke-linecap:butt;stroke-linejoin:miter;stroke-dasharray:none" id="path26995"/> <path d="m 178.18557,76.328362 a 1.1757119,1.1733473 0 0 1 2.17401,-0.88932 l -1.06919,0.48805 z" style="fill:#ffdd0e;fill-rule:evenodd;stroke:#1b1918;stroke-width:0.25;stroke-linecap:butt;stroke-linejoin:miter;stroke-dasharray:none" id="path26997"/> <path d="m 151.89217,103.54064 c 1.43679,-2.7374 3.00421,-2.73742 4.70219,0" style="fill:none;stroke:#1b1918;stroke-width:0.25;stroke-linecap:butt;stroke-linejoin:miter;stroke-dasharray:none" id="path26999"/> <path d="m 145.88063,103.54064 c 1.43681,-2.7374 3.0042,-2.73742 4.70219,0" style="fill:none;stroke:#1b1918;stroke-width:0.25;stroke-linecap:butt;stroke-linejoin:miter;stroke-dasharray:none" id="path27001"/> <g id="Layer1000-0" transform="matrix(0.16747795,0,0,0.1671411,92.676848,83.927114)" style="stroke-width:1.49423"> <path d="m 384.7222,140.6699 c -20.8735,30.0496 -43.7451,32.5431 -68.6147,7.4807 z" style="fill:#eeeeef;fill-rule:evenodd;stroke:#1b1918;stroke-width:1.49423;stroke-linecap:butt;stroke-linejoin:miter;stroke-dasharray:none" id="path27003"/> <path d="m 336.0998,145.7133 1.9359,17.7566" style="fill:none;stroke:#1b1918;stroke-width:1.49423;stroke-linecap:butt;stroke-linejoin:miter;stroke-dasharray:none" id="path27005"/> <path d="m 363.6963,142.9288 1.9401,17.7956" style="fill:none;stroke:#1b1918;stroke-width:1.49423;stroke-linecap:butt;stroke-linejoin:miter;stroke-dasharray:none" id="path27007"/> </g> <path d="m 150.2285,79.386372 -3.17054,-1.66536" style="fill:none;stroke:#1b1918;stroke-width:0.25;stroke-linecap:butt;stroke-linejoin:miter;stroke-dasharray:none" id="path27010"/> <path d="m 156.13917,77.721012 -3.17054,1.66536" style="fill:none;stroke:#1b1918;stroke-width:0.25;stroke-linecap:butt;stroke-linejoin:miter;stroke-dasharray:none" id="path27012"/> <path d="m 147.32547,84.692942 2.14417,-1.02341 1.49161,1.58163 0.7458,-1.39555 1.77128,1.30252 1.77128,-1.67466 1.58482,0.5582" style="fill:none;stroke:#1b1918;stroke-width:0.25;stroke-linecap:butt;stroke-linejoin:miter;stroke-dasharray:none" id="path27014"/> <path d="m 172.48644,83.579082 c 5.85312,-4.9048 8.62505,-5.60148 8.31607,-2.09011" style="fill:none;stroke:#1b1918;stroke-width:0.25;stroke-linecap:butt;stroke-linejoin:miter;stroke-dasharray:none" id="path27016"/> <g id="Layer1001-2" transform="matrix(0.16747795,0,0,0.1671411,92.676848,83.927114)" style="stroke-width:1.49423"> <path d="m 335.7288,96.1631 a 26.294,16.0648 0 0 1 26.294,16.0648 26.294,16.0648 0 1 1 -26.294,-16.0648 z" style="fill:#1b1918;fill-rule:evenodd;stroke:#1b1918;stroke-width:1.49423;stroke-linecap:butt;stroke-linejoin:miter;stroke-dasharray:none" id="path27018"/> <path d="m 364.6546,96.1631 a 26.294,16.0648 0 0 1 26.2941,16.0648 26.294,16.0648 0 1 1 -26.2941,-16.0648 z" style="fill:#1b1918;fill-rule:evenodd;stroke:#1b1918;stroke-width:1.49423;stroke-linecap:butt;stroke-linejoin:miter;stroke-dasharray:none" id="path27020"/> <path d="m 335.7286,103.9893 a 9.5615,8.2384 0 0 1 9.5614,8.2384 9.5615,8.2384 0 1 1 -9.5614,-8.2384 z" style="fill:#ffffff;fill-rule:evenodd;stroke:#1b1918;stroke-width:1.49423;stroke-linecap:butt;stroke-linejoin:miter;stroke-dasharray:none" id="path27022"/> <path d="m 364.6544,103.9893 a 9.5615,8.2384 0 0 1 9.5615,8.2384 9.5615,8.2384 0 1 1 -9.5615,-8.2384 z" style="fill:#ffffff;fill-rule:evenodd;stroke:#1b1918;stroke-width:1.49423;stroke-linecap:butt;stroke-linejoin:miter;stroke-dasharray:none" id="path27024"/> <path d="m 336.2069,107.2266 a 5.7369,4.943 0 0 1 5.7368,4.943 5.7369,4.943 0 1 1 -5.7368,-4.943 z" style="fill:#1b1918;fill-rule:evenodd;stroke:#1b1918;stroke-width:1.49423;stroke-linecap:butt;stroke-linejoin:miter;stroke-dasharray:none" id="path27026"/> <path d="m 365.1327,107.2266 a 5.7369,4.943 0 0 1 5.7369,4.943 5.7369,4.943 0 1 1 -5.7369,-4.943 z" style="fill:#1b1918;fill-rule:evenodd;stroke:#1b1918;stroke-width:1.49423;stroke-linecap:butt;stroke-linejoin:miter;stroke-dasharray:none" id="path27028"/> </g> <path d="m 151.53876,105.98449 3.50329,0.58271" style="fill:none;stroke:#1b1918;stroke-width:0.25;stroke-linecap:butt;stroke-linejoin:miter;stroke-dasharray:none" id="path27031"/> <path d="m 151.23863,105.99601 -3.5033,0.5827" style="fill:none;stroke:#1b1918;stroke-width:0.25;stroke-linecap:butt;stroke-linejoin:miter;stroke-dasharray:none" id="path27033"/> <g id="Layer1002-7" transform="matrix(0.16747795,0,0,0.1671411,92.676848,83.927114)" style="stroke-width:1.49423"> <path d="m 397.2059,85.518 a 11.8607,61.6332 79.7719 1 1 -102.4243,20.8838 l 55.9909,-5.0695 z" style="fill:#1b1918;fill-rule:evenodd;stroke:#1b1918;stroke-width:1.49423;stroke-linecap:butt;stroke-linejoin:miter;stroke-dasharray:none" id="path27035"/> <path d="m 317.1285,61.5986 45.3688,-8.9947 c 4.3299,-0.8586 8.6959,1.4596 9.7027,5.1514 l 7.7057,28.2538 -61.1135,12.1161 -7.7054,-28.2537 c -1.0069,-3.6919 1.7118,-7.4146 6.0417,-8.2729 z" style="fill:#3b3b3b;fill-rule:evenodd;stroke:#1b1918;stroke-width:1.49423;stroke-linecap:butt;stroke-linejoin:miter;stroke-dasharray:none" id="path27037"/> <path d="m 320.2393,95.6662 57.9577,-9.1848 c 1.2492,-0.1982 2.0806,-1.2308 1.8485,-2.2958 l -0.061,-0.2807 c -0.2324,-1.0649 -1.4436,-1.7739 -2.6926,-1.576 l -57.9577,9.1851 c -1.2493,0.1978 -2.0809,1.2305 -1.8488,2.2958 l 0.0612,0.2803 c 0.2322,1.065 1.4434,1.7739 2.6927,1.5761 z" style="fill:#ffffff;fill-rule:evenodd;stroke:#1b1918;stroke-width:1.49423;stroke-linecap:butt;stroke-linejoin:miter;stroke-dasharray:none" id="path27039"/> </g> <g id="Layer1003-9" transform="matrix(0.16747795,0,0,0.1671411,98.614157,89.451684)" style="stroke-width:1.49423"> <path d="m 539.8985,111.3222 c 0,-5.0873 -4.1264,-9.2137 -9.2137,-9.2137 -5.0873,0 -9.2137,4.1264 -9.2137,9.2137 0,5.0873 4.1264,9.2137 9.2137,9.2137 5.0873,0 9.2137,-4.1264 9.2137,-9.2137 z m -3.6853,0 c 0,3.0524 -2.4761,5.5284 -5.5284,5.5284 -3.0524,0 -5.5284,-2.476 -5.5284,-5.5284 0,-3.0523 2.476,-5.5284 5.5284,-5.5284 3.0523,0 5.5284,2.4761 5.5284,5.5284 z" style="fill:#ffec00;fill-rule:evenodd;stroke:#1b1918;stroke-width:1.49423;stroke-linecap:butt;stroke-linejoin:miter;stroke-dasharray:none" id="path27042"/> <defs id="defs27053"/> <path d="M 479.808,47.0465 A 46.8008,46.8008 0 0 1 526.6088,93.8473 46.8008,46.8008 0 1 1 479.808,47.0465 Z" style="fill:url(#grad5-2);stroke:#1b1918;stroke-width:1.49423;stroke-linecap:butt;stroke-linejoin:miter;stroke-dasharray:none" id="path27055"/> <path d="m 495.5766,71.2953 a 7.0201,7.0201 0 0 1 7.0201,7.0201 7.0201,7.0201 0 1 1 -7.0201,-7.0201 z" style="fill:#1b1918;fill-rule:evenodd;stroke:#1b1918;stroke-width:1.49423;stroke-linecap:butt;stroke-linejoin:miter;stroke-dasharray:none" id="path27057"/> <path d="M 463.8129,64.7549 A 17.0827,14.4433 0 0 1 480.8956,79.1982 17.0827,14.4433 0 1 1 463.8129,64.7549 Z" style="fill:#1b1918;fill-rule:evenodd;stroke:#1b1918;stroke-width:1.49423;stroke-linecap:butt;stroke-linejoin:miter;stroke-dasharray:none" id="path27059"/> <path d="m 458.8836,120.3707 35.2288,-9.9611" style="fill:none;stroke:#1b1918;stroke-width:1.49423;stroke-linecap:butt;stroke-linejoin:miter;stroke-dasharray:none" id="path27061"/> <path d="M 471.1683,72.7237 497.5648,50.3116" style="fill:none;stroke:#1b1918;stroke-width:1.49423;stroke-linecap:butt;stroke-linejoin:miter;stroke-dasharray:none" id="path27063"/> <path d="m 452.7405,85.6729 -17.4316,15.4395" style="fill:none;stroke:#1b1918;stroke-width:1.49423;stroke-linecap:butt;stroke-linejoin:miter;stroke-dasharray:none" id="path27065"/> <g id="Layer1004-0" style="stroke-width:1.49423"> <g id="Layer1005-0" style="stroke-width:1.49423"> <path d="M 478.8882,5.7708 A 28.0443,22.8835 0 0 1 506.9324,28.6543 28.0443,22.8835 0 1 1 478.8882,5.7708 Z" style="fill:#1b1918;fill-rule:evenodd;stroke:#1b1918;stroke-width:1.49423;stroke-linecap:butt;stroke-linejoin:miter;stroke-dasharray:none" id="path27067"/> <path d="M 515.4183,63.2711 444.1457,63.9672 413.8932,29.2891 543.883,28.0195 Z" style="fill:#1b1918;fill-rule:evenodd;stroke:#1b1918;stroke-width:1.49423;stroke-linecap:butt;stroke-linejoin:miter;stroke-dasharray:none" id="path27069"/> </g> <g id="Layer1006-2" style="stroke-width:1.49423"> <path d="m 465.8098,51.834 26.52,-9.348 c -0.1289,-0.8619 -0.1018,-1.3819 0.06,-1.7586 0.1834,-0.4268 0.5085,-0.6393 0.959,-0.9206 0.2658,-0.1661 0.562,-0.1713 0.8459,-0.0669 0.2368,0.0871 0.466,0.2551 0.6571,0.4689 0.1864,0.208 0.3391,0.4634 0.4284,0.7301 0.1369,0.4081 0.1303,0.8485 -0.1126,1.213 v 0.001 c -0.4534,0.6799 -0.6779,1.1828 -0.7623,1.3934 0.1247,0.1348 0.5478,0.3904 1.8357,-0.0389 v -2e-4 c 0.4553,-0.1517 0.7901,-0.103 1.0158,0.0806 0.172,0.1399 0.2686,0.3496 0.2983,0.602 0.0259,0.2203 -5e-4,0.4788 -0.0721,0.7521 -0.2363,0.9015 -0.9903,2.0164 -2.003,2.4665 -1.7259,0.7669 -2.0928,-0.8278 -2.171,-1.5445 l -26.52,9.348 c 0.1289,0.8618 0.1018,1.3819 -0.0601,1.7586 -0.1833,0.4267 -0.5084,0.6393 -0.9589,0.9206 -0.2658,0.1661 -0.562,0.1713 -0.8459,0.0669 -0.2368,-0.0872 -0.4661,-0.2552 -0.6572,-0.4689 -0.1863,-0.208 -0.339,-0.4634 -0.4283,-0.7302 -0.1369,-0.4081 -0.1303,-0.8484 0.1126,-1.2129 v -10e-4 c 0.4533,-0.68 0.6779,-1.1828 0.7622,-1.3934 -0.1246,-0.1348 -0.548,-0.3905 -1.8357,0.0388 v 3e-4 c -0.455,0.1517 -0.79,0.1029 -1.0157,-0.0806 -0.172,-0.14 -0.2686,-0.3497 -0.2983,-0.602 -0.0259,-0.2203 5e-4,-0.4788 0.0721,-0.7521 0.2363,-0.9015 0.9903,-2.0165 2.003,-2.4665 1.7259,-0.7669 2.0928,0.8277 2.171,1.5445 z" style="fill:#eceded;fill-rule:evenodd;stroke:#1b1918;stroke-width:1.49423;stroke-linecap:butt;stroke-linejoin:miter;stroke-dasharray:none" id="path27072"/> <path d="m 468.4918,40.8207 25.567,11.7057 c 0.5062,-0.7094 0.887,-1.0645 1.2653,-1.223 0.4283,-0.1795 0.8098,-0.1064 1.3293,0.0044 0.3065,0.0652 0.5231,0.2673 0.6547,0.5396 0.1098,0.2273 0.1579,0.5074 0.1468,0.7939 -0.0105,0.2791 -0.0782,0.5689 -0.1993,0.8227 -0.1852,0.3886 -0.4959,0.7007 -0.9239,0.794 l -7e-4,7e-4 c -0.7985,0.174 -1.3093,0.3796 -1.5164,0.4724 -0.004,0.1836 0.1227,0.6615 1.3472,1.2477 l 10e-5,-2e-4 c 0.4328,0.2072 0.6397,0.4749 0.6745,0.7638 0.0264,0.2201 -0.0498,0.4381 -0.2038,0.6402 -0.1345,0.1764 -0.3331,0.3439 -0.5745,0.4907 -0.7964,0.4841 -2.1133,0.762 -3.1543,0.3819 -1.7741,-0.6478 -0.9298,-2.0495 -0.488,-2.6193 l -25.567,-11.7057 c -0.5062,0.7094 -0.887,1.0645 -1.2652,1.223 -0.4284,0.1795 -0.8099,0.1064 -1.3294,-0.0044 -0.3065,-0.0652 -0.5231,-0.2673 -0.6547,-0.5396 -0.1098,-0.2273 -0.1579,-0.5074 -0.1468,-0.7938 0.0105,-0.2792 0.0782,-0.5689 0.1993,-0.8228 0.1852,-0.3886 0.4959,-0.7007 0.9239,-0.794 l 7e-4,-7e-4 c 0.7985,-0.174 1.3093,-0.3795 1.5164,-0.4724 0.004,-0.1835 -0.1228,-0.6616 -1.3472,-1.2476 l -10e-5,1e-4 c -0.4326,-0.207 -0.6397,-0.4749 -0.6745,-0.7637 -0.0264,-0.2202 0.0498,-0.4381 0.2038,-0.6402 0.1345,-0.1765 0.3331,-0.344 0.5745,-0.4908 0.7964,-0.4841 2.1133,-0.7619 3.1543,-0.3819 1.7741,0.6478 0.9298,2.0495 0.488,2.6193 z" style="fill:#eceded;fill-rule:evenodd;stroke:#1b1918;stroke-width:1.49423;stroke-linecap:butt;stroke-linejoin:miter;stroke-dasharray:none" id="path27074"/> <path d="m 485.9763,48.8209 c 0.0198,0.2884 0.0304,0.5813 0.0304,0.8779 0,4.4575 -2.3174,8.0726 -5.175,8.0726 -2.8573,0 -5.1746,-3.6151 -5.1746,-8.0726 l 10e-4,-0.1887 c -2.2493,-1.7127 -3.7273,-4.605 -3.7273,-7.8841 0,-5.2579 3.8003,-9.5216 8.4866,-9.5216 4.6864,0 8.4867,4.2637 8.4867,9.5216 0,2.8729 -1.1345,5.449 -2.9282,7.1949 z" style="fill:#f5f6f6;fill-rule:evenodd;stroke:#9c9e9f;stroke-width:1.49423;stroke-linecap:butt;stroke-linejoin:miter;stroke-dasharray:none" id="path27076"/> <path d="m 483.167,38.6273 a 2.1722,3.2066 0 0 1 2.1721,3.2065 2.1722,3.2066 0 1 1 -2.1721,-3.2065 z" style="fill:none;stroke:#9c9e9f;stroke-width:1.49423;stroke-linecap:butt;stroke-linejoin:miter;stroke-dasharray:none" id="path27078"/> <path d="m 477.4414,38.4204 a 2.1722,3.2066 0 0 1 2.1722,3.2065 2.1722,3.2066 0 1 1 -2.1722,-3.2065 z" style="fill:none;stroke:#9c9e9f;stroke-width:1.49423;stroke-linecap:butt;stroke-linejoin:miter;stroke-dasharray:none" id="path27080"/> <path d="m 477.8285,48.741 h 6.0135" style="fill:none;stroke:#9c9e9f;stroke-width:1.49423;stroke-linecap:butt;stroke-linejoin:miter;stroke-dasharray:none" id="path27082"/> <path d="m 478.1139,48.8489 v 4.0296" style="fill:none;stroke:#9c9e9f;stroke-width:1.49423;stroke-linecap:butt;stroke-linejoin:miter;stroke-dasharray:none" id="path27084"/> <path d="m 479.5594,48.8489 v 4.0296" style="fill:none;stroke:#9c9e9f;stroke-width:1.49423;stroke-linecap:butt;stroke-linejoin:miter;stroke-dasharray:none" id="path27086"/> <path d="m 480.7877,48.8489 v 4.0296" style="fill:none;stroke:#9c9e9f;stroke-width:1.49423;stroke-linecap:butt;stroke-linejoin:miter;stroke-dasharray:none" id="path27088"/> <path d="m 482.1397,48.8489 v 4.0296" style="fill:none;stroke:#9c9e9f;stroke-width:1.49423;stroke-linecap:butt;stroke-linejoin:miter;stroke-dasharray:none" id="path27090"/> <path d="M 483.6062,48.8294 V 52.859" style="fill:none;stroke:#9c9e9f;stroke-width:1.49423;stroke-linecap:butt;stroke-linejoin:miter;stroke-dasharray:none" id="path27092"/> <path d="m 477.8502,52.8116 h 6.0097" style="fill:none;stroke:#9c9e9f;stroke-width:1.49423;stroke-linecap:butt;stroke-linejoin:miter;stroke-dasharray:none" id="path27094"/> </g> </g> </g> <path d="m 72.555815,134.77381 c -3.773211,-2.86964 -4.852121,-7.49379 -3.236677,-13.87234" style="fill:#ff0000;fill-rule:evenodd;stroke:#1b1918;stroke-width:0.25;stroke-linecap:butt;stroke-linejoin:miter;stroke-dasharray:none" id="path27099"/> <path d="m 67.054534,120.78316 c -2.048473,2.58571 -2.410543,7.71969 -1.086211,15.40202" style="fill:#ff0000;stroke:#1b1918;stroke-width:0.25;stroke-linecap:butt;stroke-linejoin:miter;stroke-dasharray:none" id="path27101"/> <path d="m 72.61274,122.4154 c -1.705158,3.32856 -1.257872,6.98635 1.34185,10.97319" style="fill:#ff0000;stroke:#1b1918;stroke-width:0.25;stroke-linecap:butt;stroke-linejoin:miter;stroke-dasharray:none" id="path27103"/> <path d="m 61.88893,123.4112 c -0.612303,4.36332 -0.305312,8.10039 0.920943,11.21121" style="fill:#ff0000;stroke:#1b1918;stroke-width:0.25;stroke-linecap:butt;stroke-linejoin:miter;stroke-dasharray:none" id="path27105"/> <path d="m 59.891738,127.21122 c 5.185117,1.99667 10.292993,1.81501 15.323308,-0.54496" style="fill:#ff0000;stroke:#1b1918;stroke-width:0.25;stroke-linecap:butt;stroke-linejoin:miter;stroke-dasharray:none" id="path27107"/> <path d="m 74.901845,131.83957 c -3.561182,2.91563 -8.091374,3.30009 -13.590567,1.15349" style="fill:#ff0000;stroke:#1b1918;stroke-width:0.25;stroke-linecap:butt;stroke-linejoin:miter;stroke-dasharray:none" id="path27109"/> <path d="m 75.599813,128.0599 c -2.781828,3.56167 -7.958134,4.20907 -15.528922,1.94223" style="fill:#ff0000;stroke:#1b1918;stroke-width:0.25;stroke-linecap:butt;stroke-linejoin:miter;stroke-dasharray:none" id="path27111"/> <path d="m 61.88893,123.4112 c 3.132238,2.4057 7.257321,2.66171 12.375109,0.7682" style="fill:#ff0000;stroke:#1b1918;stroke-width:0.25;stroke-linecap:butt;stroke-linejoin:miter;stroke-dasharray:none" id="path27113"/> <path d="m 65.665724,121.03777 c 0.6844,2.1483 3.000151,2.60757 6.947016,1.37764" style="fill:#ff0000;stroke:#1b1918;stroke-width:0.25;stroke-linecap:butt;stroke-linejoin:miter;stroke-dasharray:none" id="path27115"/> <path d="m 68.693438,130.81295 c 4.440681,-2.00845 4.997344,-4.82568 1.67076,-8.45143 z m 0,0 c 1.660192,-8.46667 1.650008,-8.48186 1.639294,-8.49714 0.01072,0.0153 0.02089,0.0305 0.03147,0.0458 z m 1.639294,-8.49714 c -0.719237,2.58563 -0.910548,5.44373 -1.639294,8.49714" style="fill:#fffafa;fill-rule:evenodd;stroke:#1b1918;stroke-width:0.25;stroke-linecap:butt;stroke-linejoin:miter;stroke-dasharray:none" id="path27117"/> <path d="m 66.505459,130.98145 c -4.414433,-2.06528 -4.934752,-4.88941 -1.56175,-8.47217 z m 0,0 c -1.550983,-8.48728 -1.540596,-8.50234 -1.529695,-8.51748 -0.01092,0.0151 -0.02127,0.0302 -0.03204,0.0453 z m -1.529695,-8.51748 c 0.685871,2.59465 0.840357,5.45495 1.529695,8.51748" style="fill:#fffafa;fill-rule:evenodd;stroke:#1b1918;stroke-width:0.25;stroke-linecap:butt;stroke-linejoin:miter;stroke-dasharray:none" id="path27119"/> <g id="Layer1007" transform="matrix(0.16747795,0,0,0.1671411,12.321411,81.316966)" style="stroke-width:1.49423"> <path d="m 483.7244,305.4887 c -22.1057,-25.7318 -38.5343,-52.7398 -49.2858,-81.0229 l 24.8832,-12.3163 c 14.1978,23.2667 26.1648,51.0147 35.9005,83.2465 1.7544,5.8103 1.2187,10.9072 -1.3859,13.1941 -2.6063,2.2865 -6.5116,1.0898 -10.112,-3.1014 z" style="fill:#feec1f;fill-rule:evenodd;stroke:#1b1918;stroke-width:1.49423;stroke-linecap:butt;stroke-linejoin:miter;stroke-dasharray:none" id="path27121"/> <path d="m 484.6858,298.2129 c -24.7095,-24.9594 -38.2644,-51.693 -40.6638,-80.2018 -0.1495,-1.7775 0.4045,-3.1143 1.5234,-3.6754 1.1185,-0.561 2.4863,-0.1885 3.7605,1.025 19.3322,18.414 32.8822,44.8787 40.6491,79.3907 0.4542,2.0177 0.0187,3.7187 -1.1497,4.4863 -1.1685,0.7663 -2.7301,0.3787 -4.1195,-1.0248 z" style="fill:none;stroke:#1b1918;stroke-width:1.49423;stroke-linecap:butt;stroke-linejoin:miter;stroke-dasharray:none" id="path27123"/> <path d="m 434.4869,227.2401 c -2.6029,23.429 0.3138,29.4131 8.7489,17.9524 7.5802,-10.2973 12.479,-20.976 17.3451,-31.3763 0.3195,-0.6833 0.1313,-1.2403 -0.5065,-1.5024 -0.6378,-0.2622 -1.9945,-0.6729 -2.7939,-0.7519 -2.085,-0.2064 -4.7421,-0.3336 -6.8071,-0.011 -2.3406,0.3656 -5.3028,1.52 -7.3806,3.0353 l -5.4455,3.9723 -2.2967,3.5323 c -0.4867,0.7485 -0.5228,2.2212 -0.6065,2.9285 -0.0896,0.755 -0.1764,1.4971 -0.2572,2.2208 z" style="fill:#feec1f;fill-rule:evenodd;stroke:#1b1918;stroke-width:1.49423;stroke-linecap:butt;stroke-linejoin:miter;stroke-dasharray:none" id="path27125"/> <path d="m 496.6362,289.0971 c -1.5963,-39.1021 7.6126,-70.1094 27.6277,-93.0183 2.5587,-2.9289 5.9844,-3.8557 9.176,-2.4823 3.1918,1.3726 5.2345,4.6507 5.4719,8.7816 1.7614,30.7045 -7.1181,61.343 -26.6364,91.9147 -2.3275,3.6444 -6.0222,5.1973 -9.5663,4.0199 -3.5444,-1.1783 -5.89,-4.7373 -6.0729,-9.2156 z" style="fill:#feec1f;fill-rule:evenodd;stroke:#1b1918;stroke-width:1.49423;stroke-linecap:butt;stroke-linejoin:miter;stroke-dasharray:none" id="path27127"/> <path d="m 502.4652,286.039 c -1.9586,-34.5424 5.9528,-61.3099 23.7355,-80.3026 1.1088,-1.184 2.4594,-1.5464 3.7134,-0.9963 1.2536,0.5499 2.0574,1.8571 2.2091,3.5942 2.2997,26.3576 -5.4302,52.9601 -23.1881,79.8046 -1.0381,1.5696 -2.5478,2.2442 -3.9824,1.7786 -1.4339,-0.4665 -2.3774,-1.9362 -2.4875,-3.8785 z" style="fill:none;stroke:#1b1918;stroke-width:1.49423;stroke-linecap:butt;stroke-linejoin:miter;stroke-dasharray:none" id="path27129"/> <defs id="defs27140"/> <path d="m 494.8864,285.5167 a 46.8008,46.8008 0 0 1 46.8007,46.8008 46.8008,46.8008 0 1 1 -46.8007,-46.8008 z" style="fill:url(#grad6-4);stroke:#1b1918;stroke-width:1.49423;stroke-linecap:butt;stroke-linejoin:miter;stroke-dasharray:none" id="path27142"/> <path d="m 484.7029,312.6852 a 10.1526,10.1526 0 0 1 10.1525,10.1526 10.1526,10.1526 0 1 1 -10.1525,-10.1526 z" style="fill:#ffffff;fill-rule:evenodd;stroke:#1b1918;stroke-width:1.49423;stroke-linecap:butt;stroke-linejoin:miter;stroke-dasharray:none" id="path27144"/> <path d="m 506.2586,312.6852 a 10.1526,10.1526 0 0 1 10.1526,10.1526 10.1526,10.1526 0 1 1 -10.1526,-10.1526 z" style="fill:#ffffff;fill-rule:evenodd;stroke:#1b1918;stroke-width:1.49423;stroke-linecap:butt;stroke-linejoin:miter;stroke-dasharray:none" id="path27146"/> <path d="m 504.5578,319.7196 a 2.8684,2.4714 0 0 1 2.8683,2.4715 2.8684,2.4714 0 1 1 -2.8683,-2.4715 z" style="fill:#1b1918;fill-rule:evenodd;stroke:#1b1918;stroke-width:1.49423;stroke-linecap:butt;stroke-linejoin:miter;stroke-dasharray:none" id="path27148"/> <path d="m 486.8412,319.7196 a 2.8684,2.4714 0 0 1 2.8684,2.4715 2.8684,2.4714 0 1 1 -2.8684,-2.4715 z" style="fill:#1b1918;fill-rule:evenodd;stroke:#1b1918;stroke-width:1.49423;stroke-linecap:butt;stroke-linejoin:miter;stroke-dasharray:none" id="path27150"/> <g id="Layer1008" style="stroke-width:1.49423"> <path d="m 463.0969,332.5737 37.8103,7.3837 -37.8103,-0.2308" style="fill:none;stroke:#1b1918;stroke-width:1.49423;stroke-linecap:butt;stroke-linejoin:miter;stroke-dasharray:none" id="path27152"/> <path d="m 527.2427,332.5737 -37.8103,7.3837 37.8103,-0.2308" style="fill:none;stroke:#1b1918;stroke-width:1.49423;stroke-linecap:butt;stroke-linejoin:miter;stroke-dasharray:none" id="path27154"/> <path d="m 500.9072,339.9574 -35.4471,5.7685" style="fill:none;stroke:#1b1918;stroke-width:1.49423;stroke-linecap:butt;stroke-linejoin:miter;stroke-dasharray:none" id="path27156"/> <path d="m 489.4324,339.9574 35.4471,5.7685" style="fill:none;stroke:#1b1918;stroke-width:1.49423;stroke-linecap:butt;stroke-linejoin:miter;stroke-dasharray:none" id="path27158"/> </g> <path d="m 473.9233,348.5061 c 13.998,11.0755 28.3039,11.0755 42.9176,0" style="fill:none;stroke:#1b1918;stroke-width:1.49423;stroke-linecap:butt;stroke-linejoin:miter;stroke-dasharray:none" id="path27161"/> <g id="Layer1009" style="stroke-width:1.49423"> <path d="m 481.8702,352.8156 v 20.1898 h 13.0306 v -20.1898 z" style="fill:#ffffff;fill-rule:evenodd;stroke:#1b1918;stroke-width:1.49423;stroke-linecap:butt;stroke-linejoin:miter;stroke-dasharray:none" id="path27163"/> <path d="m 496.3802,352.8156 v 20.1898 h 13.0306 v -20.1898 z" style="fill:#ffffff;fill-rule:evenodd;stroke:#1b1918;stroke-width:1.49423;stroke-linecap:butt;stroke-linejoin:miter;stroke-dasharray:none" id="path27165"/> </g> </g> <path style="opacity:0.615217;fill:#000000;stroke:#000000;stroke-width:0.25;stroke-linejoin:bevel" d="m 83.60504,58.015355 c -0.219959,-0.06036 -0.383254,-0.168783 -0.582385,-0.386662 -0.33266,-0.363985 -0.458793,-0.772821 -0.459772,-1.490258 l -5.29e-4,-0.443904 0.252415,2.11e-4 0.252418,2.12e-4 0.0024,0.304427 c 0.0021,0.260297 0.01685,0.3346 0.102032,0.512564 0.126359,0.264004 0.379571,0.518176 0.635894,0.638307 0.175019,0.08203 0.242726,0.09359 0.54786,0.09359 0.305136,0 0.37284,-0.01156 0.547859,-0.09359 0.255408,-0.1197 0.508709,-0.373391 0.637326,-0.638305 0.08953,-0.184412 0.101163,-0.245927 0.102031,-0.539623 7.94e-4,-0.305146 -0.0081,-0.349885 -0.113012,-0.563036 -0.142999,-0.29047 -0.417401,-0.549963 -0.6956,-0.657807 -0.402484,-0.156022 -0.915162,-0.08995 -1.242851,0.160187 -0.137543,0.104989 -0.163721,0.112736 -0.285464,0.08448 -0.07372,-0.01712 -0.255458,-0.03148 -0.403863,-0.03193 -0.216262,-7.93e-4 -0.269824,-0.01119 -0.269824,-0.05305 0,-0.04203 0.05391,-0.05222 0.276264,-0.05222 0.151943,0 0.316643,-0.01535 0.365996,-0.03412 0.122539,-0.04659 0.182075,-0.182409 0.130029,-0.296635 l -0.03966,-0.08704 h 1.863301 c 1.787486,0 1.868795,0.0028 1.998248,0.06884 0.154416,0.07878 0.259032,0.21092 0.333031,0.420658 0.07581,0.214855 0.07343,1.661441 -0.0032,1.957224 -0.126765,0.489209 -0.401132,0.859078 -0.773176,1.04231 l -0.232352,0.114432 -1.393471,0.0071 c -1.025384,0.0052 -1.435309,-0.0044 -1.551863,-0.03637 z" id="path2166"/> <path style="opacity:0.615217;fill:#000000;stroke:#000000;stroke-width:0.25;stroke-linejoin:bevel" d="m 76.802042,58.005237 c -0.343281,-0.107174 -0.641078,-0.384302 -0.818174,-0.761391 -0.171296,-0.364739 -0.19332,-0.523396 -0.19332,-1.392642 0,-0.791941 0.0011,-0.802926 0.09154,-0.995985 0.05537,-0.118086 0.143703,-0.235008 0.223567,-0.295936 l 0.13203,-0.100724 1.858394,-0.0096 1.858393,-0.0096 -0.03948,0.07376 c -0.05271,0.09849 -0.0159,0.229063 0.08001,0.283872 0.04286,0.0245 0.234596,0.05236 0.426085,0.06193 0.260737,0.01304 0.34816,0.02922 0.34816,0.06448 0,0.03476 -0.07603,0.05044 -0.290832,0.05995 -0.268285,0.01188 -0.299845,0.006 -0.407033,-0.07574 -0.484902,-0.369851 -1.221356,-0.3073 -1.670544,0.141888 -0.384967,0.384966 -0.487678,0.957059 -0.263012,1.464956 0.0961,0.217241 0.382929,0.507526 0.620247,0.627713 0.183906,0.09314 0.231391,0.101661 0.566309,0.101661 0.34953,0 0.375118,-0.0052 0.583242,-0.118041 0.255143,-0.138362 0.453937,-0.341879 0.587293,-0.601253 0.07836,-0.152408 0.09833,-0.243977 0.110781,-0.507973 l 0.01519,-0.322049 h 0.122364 0.122365 l -0.01863,0.530945 c -0.01963,0.559467 -0.06204,0.764495 -0.224409,1.085125 -0.122661,0.242224 -0.403648,0.525537 -0.632865,0.638106 l -0.195299,0.09591 -1.410052,0.0072 c -1.188352,0.0061 -1.437135,-0.0013 -1.582306,-0.04658 z" id="path2168"/> </g> </svg>