<?xml version='1.0' encoding='utf-8'?>
<svg xmlns="http://www.w3.org/2000/svg" width="297mm" height="210mm" viewBox="0 0 297 210" version="1.1" id="svg1021"> <defs id="defs1015"> </defs> <metadata id="metadata1018"> </metadata> <g id="layer1" transform="translate(0,-87)"> <g style="display:inline;opacity:1" transform="matrix(1.81594,0,0,1.81594,528.67945,-533.6108)" id="g5439"> <path style="fill:#bf00f0;fill-opacity:1;stroke:none;stroke-width:0.45943087px;stroke-linecap:butt;stroke-linejoin:miter;stroke-opacity:1" d="m -250.18045,414.12334 c 20.98747,-59.60055 67.77066,-59.64705 93.31095,-21.77779 l 6.03377,4.01595 c -18.16552,-46.26754 -85.84905,-56.49718 -107.73902,20.64992 z" id="path5399"/> <path id="path5401" d="m -244.63704,413.93345 c 22.33012,-52.10581 55.90794,-49.80061 83.97555,-18.98936 l 4.40181,-1.56286 c -18.58078,-34.82658 -72.55311,-44.87958 -96.09735,21.0258 z" style="fill:#9000b4;fill-opacity:1;stroke:none;stroke-width:0.42929089px;stroke-linecap:butt;stroke-linejoin:miter;stroke-opacity:1"/> <path style="fill:#2019ff;fill-opacity:1;stroke:none;stroke-width:0.38442862px;stroke-linecap:butt;stroke-linejoin:miter;stroke-opacity:1" d="m -234.04503,404.25528 c 19.52269,-32.91845 44.85284,-32.98655 69.9873,-5.39517 l 2.63867,-5.19047 c -17.58676,-27.2777 -59.99547,-34.02926 -80.48692,13.73446 z" id="path5403"/> <path id="path5405" d="m -229.89122,407.87453 c 17.43078,-33.94488 40.97388,-29.60981 62.82289,-4.84288 l 2.36856,-4.65915 c -17.33019,-23.77285 -50.60793,-32.89689 -69.72267,5.11813 z" style="fill:#2cf000;fill-opacity:1;stroke:none;stroke-width:0.3450757px;stroke-linecap:butt;stroke-linejoin:miter;stroke-opacity:1"/> <path style="fill:#fff819;fill-opacity:1;stroke:none;stroke-width:0.32440138px;stroke-linecap:butt;stroke-linejoin:miter;stroke-opacity:1" d="m -226.40798,410.1268 c 16.38646,-31.91116 37.112,-26.07701 59.05902,-4.55273 l -0.32361,-6.66644 c -19.36979,-16.45659 -39.83717,-29.34304 -61.3243,5.69088 z" id="path5407"/> <path id="path5409" d="m -222.89374,411.3 c 14.34694,-27.93938 32.4929,-22.83136 51.70832,-3.98607 l -0.28333,-5.83672 c -16.95895,-14.40834 -34.87889,-25.6909 -53.69166,4.98258 z" style="fill:#f0a000;fill-opacity:1;stroke:none;stroke-width:0.28402522px;stroke-linecap:butt;stroke-linejoin:miter;stroke-opacity:1"/> <path style="fill:#ff1405;fill-opacity:1;stroke:none;stroke-width:0.26458332px;stroke-linecap:butt;stroke-linejoin:miter;stroke-opacity:1" d="m -221.19166,413.81354 c 13.39751,-25.96349 30.34264,-21.21672 48.28645,-3.70417 l -0.26458,-5.42395 c -15.83667,-13.38938 -32.57073,-23.87402 -50.13854,4.63021 z" id="path5411"/> <path style="fill:#cdfffc;fill-opacity:1;stroke:#000000;stroke-width:0.27671799px;stroke-linecap:butt;stroke-linejoin:miter;stroke-opacity:1" d="m -168.48721,400.76253 c 4.82463,-14.34702 16.84249,-9.5767 21.03057,1.10686 12.25851,-3.0068 25.17596,12.65225 1.93702,14.66606 -9.31124,7.76573 -15.4617,3.68981 -21.584,-1.38359 -33.39096,2.66342 -6.45625,-21.73614 -1.38359,-14.38933 z" id="path5413"/> <path style="fill:#e3fdff;fill-opacity:1;stroke:#000000;stroke-width:0.27671799px;stroke-linecap:butt;stroke-linejoin:miter;stroke-opacity:1" d="m -158.64329,394.77614 c -5.52535,0.67698 -6.99188,6.03684 -8.51248,10.38946 -2.10911,-6.51276 -9.91739,-1.55212 -11.97581,1.92804 -1.10311,1.865 0.2105,5.23105 2.18568,6.12197 5.36935,2.42186 11.17491,-1.42752 15.02408,3.30919 5.08445,4.56391 12.12848,2.118 16.68683,-1.67911 3.62461,-0.60901 11.01693,-0.74595 10.85901,-5.74817 -2.41287,-4.89701 -9.03193,-6.04243 -13.83932,-4.41836 -1.59816,-4.49692 -5.02542,-10.02716 -10.42799,-9.90302 z" id="path5415"/> <path id="path5417" d="m -216.7823,413.37174 c -5.14449,-14.89397 -17.9591,-9.9418 -22.42485,1.14905 -13.07122,-3.12143 -26.84507,13.1346 -2.06544,15.22518 9.92856,8.06178 16.48677,3.83048 23.01497,-1.43633 35.60468,2.76495 6.88428,-22.56479 1.47532,-14.9379 z" style="fill:#cdfffc;fill-opacity:1;stroke:#000000;stroke-width:0.29113942px;stroke-linecap:butt;stroke-linejoin:miter;stroke-opacity:1"/> <path id="path5419" d="m -225.64949,406.69957 c 5.89167,0.70278 7.45542,6.26698 9.07684,10.78554 2.24894,-6.76105 10.57489,-1.6113 12.76979,2.00154 1.17623,1.93611 -0.22446,5.43048 -2.33059,6.35536 -5.72533,2.5142 -11.91578,-1.48194 -16.02014,3.43534 -5.42154,4.73791 -12.93257,2.19875 -17.79313,-1.74312 -3.86492,-0.63223 -11.74732,-0.77439 -11.57892,-5.9673 2.57284,-5.08371 9.63072,-6.27279 14.75682,-4.58681 1.70412,-4.66836 5.3586,-10.40942 11.11933,-10.28055 z" style="fill:#e3fdff;fill-opacity:1;stroke:#000000;stroke-width:0.29113942px;stroke-linecap:butt;stroke-linejoin:miter;stroke-opacity:1"/> <path style="fill:#ff4d41;fill-opacity:1;stroke:none;stroke-width:0.28402522px;stroke-linecap:butt;stroke-linejoin:miter;stroke-opacity:1" d="m -199.77025,392.0811 c -10.26243,0.1705 -18.79987,10.69773 -22.47656,17.57617 5.36861,-10.03069 16.17349,-19.39168 28.30078,-16.26953 4.10086,0.62688 10.11015,4.03259 12.05469,5.32227 -5.2744,-3.58181 -11.31001,-6.83394 -17.87891,-6.62891 z m 26.64454,13.45117 c 0.41813,0.17427 -2.05509,-1.63897 0,0 z" id="path5421"/> <path id="path5423" d="m -199.40478,388.34028 c -11.32932,0.18822 -20.75432,11.80987 -24.81324,19.40339 5.92673,-11.07348 17.8549,-21.40765 31.24294,-17.96092 4.52719,0.69206 11.16122,4.45183 13.30791,5.87558 -5.82274,-3.95417 -12.48581,-7.54439 -19.73761,-7.31805 z m 29.41452,14.84955 c 0.4616,0.19239 -2.26874,-1.80935 0,0 z" style="fill:#ffb219;fill-opacity:1;stroke:none;stroke-width:0.31355265px;stroke-linecap:butt;stroke-linejoin:miter;stroke-opacity:1"/> <path style="fill:#e7ff69;fill-opacity:1;stroke:none;stroke-width:0.32440138px;stroke-linecap:butt;stroke-linejoin:miter;stroke-opacity:1" d="m -200.32823,383.10238 c -12.08287,0.62506 -20.36631,10.97593 -26.34766,20.37305 1.14946,1.7004 2.69871,-3.77759 4.23633,-4.94726 6.43159,-9.93756 18.88511,-16.96998 30.7461,-12.85743 8.4582,2.51963 15.66375,7.9677 22.15234,13.7793 -5.05951,-6.06648 -12.78224,-10.87439 -20.16406,-14.26172 -3.36083,-1.36327 -6.97779,-2.2232 -10.62305,-2.08594 z" id="path5425"/> <path style="fill:#43ff19;fill-opacity:1;stroke:none;stroke-width:0.3450757px;stroke-linecap:butt;stroke-linejoin:miter;stroke-opacity:1" d="m -200.97132,378.2611 c -13.95607,0.37246 -24.80735,11.57194 -30.70899,23.33008 2.49215,3.53217 3.47549,-3.43922 5.49219,-4.91797 6.79787,-10.85315 19.73387,-19.6347 32.95313,-15.94726 10.34519,2.58715 18.06981,9.158 25.23211,16.75513 0.9633,-2.68784 -2.76666,-4.22095 -4.05633,-6.42896 -7.63734,-7.5302 -17.93185,-13.18411 -28.91211,-12.79102 z" id="path5427"/> <path style="fill:#4741ff;fill-opacity:1;stroke:none;stroke-width:0.38442862px;stroke-linecap:butt;stroke-linejoin:miter;stroke-opacity:1" d="m -200.1573,372.95811 c -17.31159,0.8242 -30.48085,14.49148 -37.55859,29.28516 5.18124,-2.25656 6.71273,-8.99778 11.01758,-12.71484 8.84203,-10.91543 24.07663,-17.52307 37.80859,-12.43164 9.59313,3.18064 16.92441,9.23024 23.85517,16.41509 1.91662,-3.25434 -2.51132,-5.46198 -4.15204,-8.04791 -8.08009,-8.09048 -19.42803,-13.17934 -30.97071,-12.50586 z" id="path5429"/> <path style="fill:#b000dc;fill-opacity:1;stroke:none;stroke-width:0.42929089px;stroke-linecap:butt;stroke-linejoin:miter;stroke-opacity:1" d="m -199.37656,366.68685 c -21.19588,0.0638 -37.53896,17.33768 -45.8411,35.40541 -1.3948,2.87828 -2.65456,5.82128 -3.79952,8.80748 5.69886,0.79726 5.42391,-7.06813 8.46484,-10.4961 8.04866,-15.16121 21.83627,-30.59252 40.31836,-30.69726 16.10465,-0.0153 29.9952,10.31445 40.53906,21.58789 1.86138,-1.23334 -2.41513,-4.54745 -3.27148,-6.39453 -8.71343,-10.95652 -22.23401,-18.40462 -36.41016,-18.21289 z" id="path5431"/> <path style="fill:#d119ff;fill-opacity:1;stroke:none;stroke-width:0.45943087px;stroke-linecap:butt;stroke-linejoin:miter;stroke-opacity:1" d="m -201.20117,360.60832 c -17.80515,0.0177 -34.1017,11.95152 -43.23242,27.0254 -4.85283,7.63156 -8.40993,15.93945 -11.10743,24.5 5.79671,-0.33119 5.12988,-7.26893 7.7754,-11.0625 8.09708,-18.12451 23.07022,-35.96657 43.97265,-38.31836 19.36209,-2.42051 37.74525,10.62274 47.79688,25.59179 -8.83893,-16.20314 -26.05447,-28.05722 -45.20508,-27.73633 z" id="path5433"/> <path style="fill:#cdfffc;fill-opacity:1;stroke:#000000;stroke-width:0.33222494px;stroke-linecap:butt;stroke-linejoin:miter;stroke-opacity:1" d="m -244.62316,403.07396 c -5.79241,-17.22489 -20.22093,-11.4977 -25.24911,1.32888 -14.71745,-3.60994 -30.22602,15.19017 -2.32557,17.60793 11.179,9.32345 18.56317,4.42995 25.91355,-1.66112 40.08885,3.19767 7.75131,-26.09619 1.66113,-17.27569 z" id="path5435"/> <path style="fill:#e3fdff;fill-opacity:1;stroke:#000000;stroke-width:0.33222494px;stroke-linecap:butt;stroke-linejoin:miter;stroke-opacity:1" d="m -255.94312,395.24798 c 6.63368,0.81277 8.39438,7.24777 10.22,12.47349 2.53218,-7.81916 11.90673,-1.86348 14.37806,2.31478 1.32437,2.23911 -0.25273,6.28035 -2.62411,7.34998 -6.4464,2.90767 -13.41649,-1.71387 -18.03777,3.97297 -6.10434,5.4794 -14.56134,2.54286 -20.03405,-2.01592 -4.35168,-0.73118 -13.22682,-0.89558 -13.03721,-6.90119 2.89687,-5.87931 10.84364,-7.25448 16.61534,-5.30465 1.91874,-5.39896 6.03348,-12.0385 12.51974,-11.88946 z" id="path5437"/> </g> </g> </svg>