<?xml version="1.0" encoding="UTF-8"?>
<svg version="1.1" viewBox="0 0 100 100" xmlns="http://www.w3.org/2000/svg">
 <g transform="translate(0,-1430)">
  <g transform="matrix(.13531 0 0 .13531 -50.139 1321.3)">
   <path d="m596.26 1366 8.6578 1.955 22.063 3.3513 15.64 3.0722 21.784 1.3963 29.883-1.6756 19.271-5.5856 17.595 5.027 24.577 4.1893 36.865 2.2342 24.018-2.5135 22.343-4.1893 22.063-10.613 5.3064 5.865 5.0271 8.6577 2.7928 11.451-1.955 12.288-4.4685 5.5855-5.8649 6.1443-7.8199 10.334-14.802 29.325-8.0992 8.3784-9.4956 7.5407-15.361 8.0992-18.153 5.0271-22.622 1.3964-21.505-1.3964-19.829-4.7479-20.946-8.0991-19.55-11.451-9.7749-10.892-5.3064 1.9549-21.505 8.6578-21.784 3.9099-18.991 1.1172-18.433-3.3515-19.271-8.0991-14.523-13.685 1.955-13.406 9.2163-20.946 12.568-17.316 9.4956-10.613z" fill="#fff"/>
   <path d="m595.71 1365.7 10.613 2.7929 22.343 3.9099 23.46 2.7929 13.406 0.8378 21.784-1.3964 19.55-3.91 7.2614-2.7928 1.955 2.5135 8.6578 1.955 20.108 4.4685 26.253 2.5135 20.108 0.838 25.973-1.3965 23.18-5.5857 17.874-8.0992 2.7928-2.5136c3.6307 4.9411 8.3785 9.6515 11.614 22.56l9.1506-5.0734 12.54-10.17 13.725-15.996 12.441-22.118 9.0842-24.093 7.1094-33.572 1.7774-22.118 0.9874-24.29v-16.391l-9.4792 8.4918-17.971 10.862-60.475-31.192-6.4714-7.1197-18.761-13.034-18.168-8.4917-19.353-4.1472-15.996 0.9875-16.194 5.7269-12.441 8.2943-3.3572 1.5799-5.727-4.1472-14.614-5.727-19.156-4.5421-7.1094-0.1975-15.601 1.7774-16.194 7.7018-10.467 8.8868-7.1094 8.4917-6.122 10.664-2.9622 7.3068-34.559 60.825-1.3824 8.2943-3.5547 13.626-2.3698 20.538 0.19749 24.488 0.98741 18.958z" fill="#937c3b"/>
   <path d="m649.75 1157.3 2.1723 18.563 2.1723 9.0843 8.8867-6.9119 10.072-5.3321 14.614-3.1597h12.836l-2.9622-10.269-5.332 0.5924h-13.429l-17.773-1.9748z" fill="#fccb8d"/>
   <path d="m626.15 1279.2 4.1892-5.0271 0.41892-5.7254h5.0271l7.6803-1.536 3.7703-3.072 1.5361-5.3065-0.55856-4.8874 4.6082-1.1171 4.8874-2.7929 1.5361-5.0271-0.6982-7.401 3.6307-1.8153 3.7703-3.3514 0.55857-4.6082-2.6532-4.1892-4.0496-2.0946-4.6082-0.2792-10.333-3.6307-9.2163-4.0496 5.8649-12.288 3.2118-5.3063-3.7703-1.2569-9.2163-0.5585-8.0992 0.6982-7.401 2.6532-7.8199 6.0046-5.5856 6.8424-1.3964 5.0271-4.6082 0.9774-4.0496 2.7929-0.13964 11.59-3.491 3.91-0.83784 4.0496-0.27929 5.5856 1.3964 6.1443-0.69821 6.0046 0.69821 4.6081 3.3514 5.0271 6.9821 6.9821 6.0046 3.3513 9.356 3.7704 8.0992 0.9775z" fill="#fccb8d"/>
   <path d="m887.71 1119.6 7.7018-4.3445 20.143-7.8994 14.811-3.3572h11.059l3.7522 16.589 5.5295 28.438 0.9874 17.181-0.19748 18.168-4.9371 17.971-5.1346 8.0967-13.231 10.664-19.946 11.454-24.883 11.059-37.522 12.836-11.454 6.517-17.773 7.3068-11.651 3.1598-11.059 0.79-13.429-1.3824-12.639-3.3573-2.9622-1.7773v-7.1094l-6.5169-2.1723-6.122-2.1723-1.7773-5.3321 2.3698-7.1093-5.332-3.7522-3.7522-4.9371v-4.9371l3.7522-6.7143-3.1597-2.5673 0.39498-6.9119 2.7648-4.7395 2.9622-0.5926 6.9119 2.5674 12.639 4.7395 10.664 1.7773 6.5169-0.9873 7.1094-5.3321-2.7648-6.122-3.5547-2.9621-6.122-1.7774-6.9119-3.3572-2.7648-4.7396 1.9748-5.9246 7.5043 2.1724 6.7144 1.3824 7.5044-0.1975 9.6766 0.1975 8.8867 2.7647 9.4792 5.727 7.5043 8.0968 6.5169-1.5798 13.429-4.7397 12.639-6.7143 10.269-9.8742 5.727-5.5295 11.651-7.1093 7.1094-3.3572-2.5673-6.517-5.727-26.068z" fill="#fccb8d"/>
   <path d="m659.62 1096.1-7.8993 9.8741-7.5043 12.244-5.9245 18.168-2.7648 17.773 7.7018 1.5799 7.7018 1.7773 18.366 1.7774 17.576 1.5799 11.454-0.79 2.3698 8.6892 10.467 1.5799 13.824 4.9371 16.984 7.8993 5.9245-4.1472 12.046-6.5168 15.404-4.5422 14.614-0.9874 17.378 3.7521 18.958 8.6893 15.009 10.467 10.467 9.0842 2.5673-0.1974 12.244-7.5044 8.4918-8.4918 7.8993-6.5169 8.8867-5.332 6.9119-2.7648-3.3572-10.269-4.1471-19.748-2.5673-18.761 4.3446-2.5673 19.946-8.8867 18.168-3.5548 9.2817-0.3949 2.1723 7.5044 7.3069-4.1472 1.5799-3.1597-6.122-10.467-16.984-22.316-15.009-13.626-22.908-14.811-18.168-8.8867-25.673-9.2817h-5.5295z" fill="#9cc336"/>
   <path d="m842.97 1024.7 17.173 5.0507 18.183 7.3237 19.445 10.607 20.203 13.89 18.183 19.193 11.869 16.162 2.0203 8.0812-6.3134-0.2525c-21.864-42.074-58.03-59.394-97.227-71.468-6.4751 29.565-21.294 55.338-42.579 78.171-10.127 23.646-22.91 41.586-43.036 43.571 3.0309-2.9798 6.46-5.661 7.6786-10l-29.107-7.3214-43.036-8.3929 25.702 2.6764 25.012 0.1808 12.857-1.4286 13.75-3.5714 16.786-11.429 10-10.357 12.679-15.893 8.9286-12.322 8.2143-15.714 6.7857-15.714 4.1071-18.214z" fill="#709d2a"/>
   <path d="m636.48 1066.1 19.388 22.501 10.664 14.416 4.9371 8.0968 7.8993 8.6892 13.626 7.1094 12.244 2.9622 19.946 2.3698 21.328 0.79c7.8301 4.6654 20.833 5.7487 31.005 8.233l9.4271-12.607 7.5341-13.696 3.5762-7.6019 13.824-14.811 13.429-20.538 10.467-23.105 5.9245-18.761-2.7648-14.416-2.1723-9.0842 4.7396-6.3194 3.7522-11.849-0.98741-15.799-4.9371-13.034-5.5295-7.5043-7.5043-3.9496h-5.9245l-6.3194 3.7522-4.1471 6.5169-0.59246 12.046 2.7648 12.836 3.1597 11.454-9.2817-5.5295-12.441-7.8993-8.6892-8.6892-3.5547 1.5799-12.836 13.429-12.639 14.219 1.9748-14.614 1.3824-8.8867-13.034 11.849-14.811 15.404-17.971 23.5-0.98742-7.7019 1.1849-16.984 5.1346-17.378-19.946 17.576-9.2817 11.454-11.059 15.009-7.5044 10.467-1.9748-13.231 1.3824-15.601-9.5065 9.2051-10.054 13.406-10.613 19.27z" fill="#fccb8d"/>
   <path d="m647.97 1063.7 3.3572-8.393 2.9622-5.4308 6.7144-7.6031-2.0736-0.9873-4.5421 1.876-3.6534 2.666-2.7648 4.4435-1.5799 5.8256v5.1346z" fill="#724225"/>
   <path d="m657.25 1086.8 10.467-7.1094 12.244-6.1219 11.651-2.5673 7.1094 0.1974-3.7522-10.467-13.626-16.588h-4.7396l-8.0968 3.9497-5.9245 5.5295-4.3446 8.0968-3.5547 12.639-0.39496 7.8993z" fill="#fff"/>
   <path d="m627.82 1089.3 8.3785-25.415 14.243-28.208 20.388-24.856-0.83785 15.919 1.1171 13.685 5.5857-7.2612 21.225-27.649 13.685-13.406 6.7028-3.6307-4.7478 17.874-0.55857 23.739 7.2614-9.7749 18.991-23.18 19.271-18.153 0.27929 4.1892-3.2118 19.41 8.0992-8.9371 12.707-14.523 7.401-6.2839 10.613 8.6578 12.568 8.7974 8.5181 3.6307-3.7703-11.311-2.2205-11.495 0.98742-12.046 4.9371-8.6892 7.5043-2.3698 9.6767 3.5547 7.3068 9.2817 3.5547 9.4792 1.5799 13.231-2.5673 13.626-5.727 8.8868 4.7396 21.328 5.1345-9.2817 6.5169-21.131v-19.946l-1.3824-14.416 10.072 5.727-10.467-26.265-9.2817-17.181-12.639-16.194-6.7144-6.5169 8.8867-4.9371-9.4792-7.3069-7.5044-3.3572-9.0842 1.3824-3.9497-8.4918-13.034-11.454-10.664-5.1346 3.1597 17.971-9.4792-5.1346-16.589-6.122-17.971-2.1723-17.378 0.78994-21.921 3.5547 6.5169 5.1346 10.664 5.727-2.5673 1.5799-20.341 3.9497-22.711 7.7018-24.093 11.849-23.698 17.378-12.046 14.021 2.9622 0.19748 14.416-4.7396 5.727 0.59244-9.8741 11.059-12.046 16.194-12.639 28.043 7.1094-4.9371 6.5169-1.9748-6.9119 14.416-4.5421 14.219-1.5799 19.551 1.1849 26.068 3.5547-5.1346 7.3069-13.231 4.9371-6.1219 0.39497 20.933 2.1723 18.366 6.122 12.441z" fill="#724225"/>
   <path d="m739.8 1052 16.786-12.836 11.849-7.8993 13.824-8.0968-9.6767-5.5295-15.601-3.7522h-10.269l-11.454 3.5547-7.3069 5.9245-2.5673 4.7395 1.1849 7.7019 6.3194 10.466z" fill="#fff"/>
   <path d="m636.07 1065 9.8214-21.786 10.179-15.357 14.643-16.25-1.0714 12.679 1.7857 15.714 10.893-14.821 17.857-22.679 18.393-15-3.75 11.964-2.6786 17.321 0.71428 11.607 2.1429-0.7142 10.714-14.286 13.036-16.964 20.357-17.143-1.9643 10.536-1.4286 12.679 8.75-10 9.8214-11.786 9.8214-8.3929 6.6071 6.4286 12.5 9.4643 12.857 6.6071c-10.757-0.8466-19.09-3.5208-30.536-15.893-7.6866 4.6811-20.542 16.488-30.357 25l2.6786-18.571c-11.158 7.3771-32.74 32.277-44.643 53.214-1.6223-14.024-1.049-34.006 3.5714-43.571-11.838 8.516-41.153 44.804-46.071 52.321l-1.0714-24.821c-13.223 10.102-25.325 28.874-33.571 42.5z" fill="#cfb17d"/>
   <path d="m745.92 999.41 3.3572-4.8383 3.6534-2.5673 4.0484-1.2836 9.2817 1.6786 4.0484 2.5673 3.2585 5.5296-3.8509-1.4812-8.5905-2.1723-6.6157 0.39498-6.4182 1.6786z" fill="#724225"/>
   <path d="m588.53 1387.8h8.4918l20.538 3.5547 18.958 4.9371 5.727 3.5547 6.5169-8.8867 8.4918-15.206s-7.8993-0.79-8.8867-0.79-20.736-2.3698-20.736-2.3698l-17.181-3.5547-8.0968-2.3697-5.332 7.3068-5.9245 7.7018z" fill="#9cc336"/>
   <path d="m723.01 1372.6 12.639 2.7648 29.03 3.9497 19.353 0.7898 6.5169-0.3949-2.7648 6.9119-9.6766 15.996-5.5295 7.8993-38.509-10.466-22.513-3.9498 2.7648-11.256z" fill="#9cc336" stroke="#000" stroke-width="1.1059px"/>
   <path d="m555.21 1428.2 11.59 9.0767 15.361 6.8424 21.086 4.1893 17.471 0.1166 18.366-2.1723 19.551-5.5295 14.416-4.9371 8.0968 7.1094 16.589 10.269 16.984 7.1093 18.761 6.1221 17.378 4.1471 18.563 0.7898 18.761-0.9873 17.378-5.5295 14.416-8.6893 10.664-9.2816 9.2817-16.786 9.4792-18.958 8.4918-13.626 7.1094-7.1093 8.0968-4.3446 0.39498 8.4918-2.9622 9.4791-5.727 5.727-6.3194 6.5169-5.9245 9.6766-13.429 25.673-5.727 7.5043-10.072 7.7019-10.664 6.517-15.206 6.1219-16.984 3.1597h-22.118l-22.316-2.9623-29.82-9.874-21.526-11.849-9.8741-10.664-2.1723-1.1849-15.206 7.1094-15.206 4.7396-18.761 3.7521-15.601-0.1974-20.143-2.5674-18.168-8.0967-12.046-9.4792-3.9497-4.7395z" fill="#9cc336"/>
   <path d="m593.75 1343.7 2.5135 21.784 10.892 3.0722 29.604 5.8649 27.928 1.6757 23.18-0.8378 25.694-6.4236 7.8199 3.0721 23.739 4.7479 28.208 3.0721h30.442l25.135-3.0721 21.505-7.2614 15.081-10.613-3.91-15.919-8.937 4.1892-19.829 8.0992-27.928 4.1893-31.838 1.3964-29.045-2.5136-32.397-6.4234-1.3964-3.91-12.568 3.3514-18.433 3.0721h-22.622l-28.766-3.3513-22.063-3.9101z" fill="#766030"/>
   <path d="m840.45 1028.2 5.5558-9.849 6.566-20.456 0.25254-22.223-1.2627-13.89 9.849 5.8084-14.395-35.103-12.122-18.183-11.617-11.617 8.8388-6.3134-12.374-8.8388-11.364-0.50507h-3.5355l-4.5457-9.0914-10.102-9.0914-12.122-6.0609 3.7881 17.93-18.688-8.5863-17.93-4.2931-18.94 0.25253-21.466 2.7779-7.8287 1.5152 18.435 10.354-20.456 5.3033c13.553 0.27156 31.213 1.4218 44.766 5.8749l-11.352-15.841c23.881 0.56124 38.529 4.3387 59.772 19.563l1.7678-14.9c5.1553 3.7014 9.288 8.3281 9.5964 16.415 4.6581-2.9929 9.0982-6.2763 17.678-4.0406l-7.5761 9.5965c15.34 3.7327 26.964 23.26 37.628 43.689l-8.8388-1.5152s20.456 35.103 1.2627 73.741c-0.25254 5.0507 0.75761 7.5761 0.75761 7.5761z" fill="#5c3a24"/>
   <path d="m648.01 905.98-21.718 15.405-16.92 18.183 14.395-3.0305 9.5964-2.0203-10.354 12.122-12.122 15.657-11.112 22.981-2.0203 4.7982 8.3338-5.5558 5.8084-1.2627-5.0508 9.5964-3.5355 11.112-3.5355 15.657-1.0102 20.456 0.25254 17.93 4.2932-4.7982 5.5558-10.354 3.5355-6.0609 3.5355-3.0304-0.25253 18.94 1.2627 12.88 4.0406 13.89 7.0711 10.354 4.2932-16.668 8.0812-19.193 10.607-19.698 19.445-23.234-0.50507 15.657v5.8084l1.0102 7.5761 14.395-17.93 13.89-18.688 12.122-10.607 8.0812-5.5558-4.3026 10.919-2.5 13.75 0.35715 18.036 8.0357-11.786 17.5-20.536 14.821-15.179 6.25-3.9286-2.6786 13.75-1.25 10.179 5.8929-6.6072 8.3928-10.357 13.929-13.036 5.8929 6.0714 11.607 8.5714 14.286 6.7857-6.0714-18.214 0.35714-15.357 4.1072-8.3928 6.25-3.75c-21.997 3.7593-17.985 27.525-12.5 36.964-8.6013-6.2821-16.989-13.205-23.929-24.464-7.6132 4.2321-14.213 12.508-18.48 20.087-1.0383-6.3843-1.494-12.536 0.80094-17.587-13.959 6.406-26.328 15.992-36.92 29.132-1.2689-9.0914 3.435-18.183 6.566-27.274-16.731 6.9176-42.007 21.25-55.49 46.189-3.3211-9.2513-1.3077-18.503-0.0687-27.754-22.712 17.07-42.071 38.96-54.043 71.468-4.2497-11.514-2.967-25.488-1.2627-39.648-8.211 0.3694-13.68 6.8792-18.688 14.9 1.7001-22.533 8.8822-40.428 18.435-56.316-3.3767-0.5172-5.4339-3.2336-10.607-0.75762 7.8219-20.095 26.378-36.322 36.184-42.796-4.5407-2.4194-8.5997-5.4408-15.714-4.6428 1.4273-6.0728 8.0998-13.738 13.37-19.736z" fill="#a86a3d"/>
   <path d="m819.82 948.75 10.536 1.25 8.75 9.1071 5.7143 17.143-1.0714 18.036-7.1428 12.679-2.3214-6.9643s15.536-40-14.464-51.25z" fill="#cfb17d"/>
   <path d="m830.35 964.57-4.1669 1.2627-0.50508 2.6517 1.0102 5.0508 4.9245 6.4397 2.1466 2.2728c2.7779-4.7982-7.8287-11.49-3.4093-17.678z" fill="#cfb17d"/>
   <path d="m826.81 988.05 5.3033 7.0711 4.0406 11.364 4.7982 21.466-3.5355 17.678-8.5863 20.708-12.122 19.698-17.678 21.466-7.5762 7.5761-8.0617 6.5273-14.643 7.3215-15.893 3.3928s-7.3214 0.5357-19.464 0.1786c26.57 0.1391 56.028-24.24 69.648-40.201 9.4124-10.716 26.794-34.453 30.53-61.228 1.4286-16.786-3.166-37.822-6.7616-43.018z" fill="#cfb17d"/>
   <path d="m710.07 1087.8 6.6291-7.9549 5.4296-2.3991 5.4296-0.7577 9.5964 3.283c-3.6001-0.2048-13.075-0.9402-27.085 7.8287z" fill="#fed9a2"/>
   <path d="m735.39 1115.2s10.985-13.258 31.946-8.3338c-9.0914 1.1365-20.456 2.9042-31.946 8.3338z" fill="#cfb17d"/>
   <path d="m749.98 1120.1s5.6821-4.4826 10.291-3.5356c-3.1567 2.1466-9.0282 3.5987-10.291 3.5356z" fill="#cfb17d"/>
   <path d="m868.48 1115.8 8.5863 11.869 11.112-8.0812 14.395-8.0812 15.152-5.0508 20.456-2.5253 12.879 0.505-5.3033-10.607-10.607-2.7779-16.162 0.7576-16.668 5.5559-19.193 9.0913z" fill="#709d2a"/>
   <path d="m636.96 1140.9 6.9643 2.3214 15.714 3.9286 12.679 2.3214 12.321 0.3571 8.2143-1.7857 4.8214 11.964-7.5 1.0714-19.464-1.25-24.107-3.75-11.607-2.1428z" fill="#709d2a"/>
   <path d="m635.71 1153.9 2.5-20.357 5.7143-15 8.9286-14.643 7.5-9.2857 2.5 4.6428c-7.5462 8.3025-24.101 37.293-22.5 56.071z" fill="#c6da7f"/>
   <path d="m876.96 1128.6 11.25-8.5715 2.1429 14.286 3.5714 19.643 3.8445 14.31-8.2075 3.9144-10.28 6.5965-9.2857 8.5714-6.25 5.8929-11.786 6.7857-3.2143-4.1071c4.5833-1.9204 9.1667-2.9685 13.75-8.0358 9.1322-8.938 17.936-18.532 29.821-21.964-4.5677-16.462-5.7563-25.626-7.6786-37.679-2.5595-1.7256-5.119-0.074-7.6786 0.3572z" fill="#709d2a"/>
   <path d="m700.29 1169.1 10.607 1.7678 14.9 4.7982 16.415 7.5761 11.617-8.0812 14.142-5.8084 13.89-2.2728 15.405 1.5152 17.678 5.3033 11.364 5.8084 12.122 7.3236 14.395 12.88 6.3134-3.0305c-31.612-31.239-61.199-35.19-73.994-35.355-11.549-0.1832-32.701 5.8297-43.689 16.541-15.261-10.937-31.703-13.815-42.426-12.879z" fill="#709d2a"/>
   <path d="m713.67 1370.1-9.5964 11.112-12.122 15.657-9.849 16.92-8.3338 22.223-3.5355 0.2526-18.435 6.5659-18.688 4.5457-19.698 1.2627-15.152-0.7576-14.647-4.0406-15.657-7.0711-12.627-8.5863 0.75761-4.0406c43.628 30.07 85.845 16.103 113.64 5.8084 4.209-10.017 10.733-33.05 36.113-58.841l7.3236-3.0304z" fill="#ccc"/>
   <path d="m741.96 1183-11.617 11.617-9.0914 29.294-6.566 28.284-4.5457 35.86-1.0102 37.376 3.0304 31.82 2.0203 12.122-3.7881-0.2525-6.0609 1.7678c-9.6475-41.032-1.7024-168.31 29.243-191.97z" fill="#766030"/>
   <path d="m888.21 1119.5 17.5-8.3929 12.857-4.4643 11.607-2.3214 11.429-0.5357 0.53571 5c-18.702 2.4068-36.417 7.772-53.214 15.893z" fill="#cfb17d"/>
   <path d="m649.65 1157.3 13.385 1.7678 17.299 1.3889 12.627 0.2526 4.2932-1.0102 1.7678 5.4296c-15.891 0.9267-31.786 1.8342-48.992-3.1567z" fill="#cfb17d"/>
   <path d="m939.19 1211.8 1.0102 31.062-5.5558 43.437-8.8388 32.577-13.132 29.294-13.89 17.678-12.879 11.364-10.607 6.3135-2.7779 0.7576-2.5254-9.849-8.5863-12.122 4.3067-3.3861-8.9286-32.857-5.3572-24.643-3.5714-26.182c2.7539 4.7107 4.8868 12.343 7.1428 19.396l4.6429-6.7858c-0.48952 7.6844-3.1139 15.102-0.17857 23.214l13.571 49.286-2.4107 3.482c2.526 2.2104 5.8208 4.8964 6.0868 9.1711 44.616-26.695 56.831-98.575 55.154-155.65z" fill="#766030"/>
   <path d="m882.86 1243.9 7.3214 13.75 5.8928 14.821 1.9643 6.9643s2.389-20.816-9.1015-38.115c-3.1567 1.1364-6.0771 2.5797-6.0771 2.5797z" fill="#766030"/>
   <path d="m939.29 1212.5-20.714 14.643-18.214 9.2857-18.929 8.2143-24.643 8.2142-10.357 3.9286-13.81 7.2916-14.395 6.061-15.405 4.0406-15.91-0.5051-15.91-2.5254-5.5558-2.5254-0.75761-7.8287-10.607-3.0304s-1.894-2.1466-2.9042-3.0304c-0.43654 3.1924 0.79949 7.1773 9.4702 9.3438-0.93175 3.5715 0.092 6.3608 2.5254 8.5863 10.179 7.5025 23.746 9.9226 40.659 7.3236 10.73-1.8453 27.098-5.3713 45.204-17.173 56.429-13.214 90.409-34.598 90.409-34.598z" fill="#766030"/>
   <path d="m602.14 1274.3 12.679 4.8214 8.75 1.7858 4.4643-3.5715 3.0357-9.1071 5.8929 0.3571 7.1428-1.6071 4.2857-4.2857-0.35715-9.2857 6.6072-1.4286 4.1071-4.8214-0.35714-9.4643 5.1786-2.5 3.0357-5.3572c2.7554 6.5308-0.84858 8.2921-3.5714 10.714 2.0613 5.001 1.3482 14.988-10.536 17.321-0.31356 18.264-15.179 15.238-18.214 14.286 0 0-0.35714 26.607-33.214 7.1428 0.35714-3.2143 1.0714-5 1.0714-5z" fill="#766030"/>
   <path d="m940.71 1105 7.5 30 3.5714 26.071v24.643l-5.3571 17.857-9.2857 11.786-15.714 10-33.214 16.786-23.214 8.5714-18.571 6.0714-18.036 8.5714-16.071 6.0715-18.75 3.0357-18.036-2.3214-10-3.9286-0.35715-2.5c26.833 7.8345 52.858-1.2948 78.75-13.214 34.578-12.025 90.182-38.047 97.143-50.357 9.628-18.218 2.3668-66.155-7.1428-98.214z" fill="#cfb17d"/>
   <path d="m752.68 1243.8 11.607 3.2143 11.786 0.7143 8.2143 0.1785 8.5578-0.5735s-23.991 10.102-41.037-0.8839c0.63135-0.5051 0.87254-2.6497 0.87254-2.6497z" fill="#cfb17d"/>
   <path d="m747.77 1224 7.4499 3.9144 8.5863 2.9042 10.228 1.3889 6.9448-0.1262 6.6923-0.3788s-24.117 11.238-41.921-5.0508c1.389-1.6415 2.0203-2.6517 2.0203-2.6517z" fill="#cfb17d"/>
   <path d="m765.54 1261.2 6.4286 0.8036 8.4821 0.5357 10.804-0.2679s-15.714 5.0893-25.982 0.7143c0.0893-0.625 0.26786-1.7857 0.26786-1.7857z" fill="#cfb17d"/>
   <path d="m588.16 1252 0.75761 6.8185 3.7881 6.3135 7.3236 7.3236 8.8388 5.0508 10.354 3.0304h6.0609l4.0406-4.0406s0.75761-1.8941 1.0102-3.7881c-2.6516 3.283-30.557 3.9143-42.174-20.708z" fill="#cfb17d"/>
   <path d="m647.86 1253.6-7.4107-1.25-18.304-6.0714s9.1964 11.875 25.982 10.714c-0.17857-1.7857-0.26786-3.3929-0.26786-3.3929z" fill="#cfb17d"/>
   <path d="m658.13 1237.6-9.4643-0.8036-18.393-7.4107s7.0536 13.036 28.214 11.964c-0.17857-1.6072-0.35714-3.75-0.35714-3.75z" fill="#cfb17d"/>
   <path d="m861.07 1362.7 5 5.7143 4.8214 8.5714 1.9643 9.4643-7.1429 3.5714-8.8524 9.9429-6.8185 11.364-8.5863 16.162-10.607 18.183-7.0711 8.5863-10.859 7.071-14.142 6.3135-17.173 3.0304-17.173 0.7577-17.678-1.5153-10.607-2.2728-18.94-5.5559-20.456-9.3439-18.688-12.122-3.5355-4.7982 0.50508-3.5356c28.139 23.176 72.384 31.659 96.037 32.732 14.343 1.0974 47.321-10.387 55-24.286 12.857-31.277 25.714-48.073 38.571-57.5 0.51523-9.2057-4.9984-12.383-8.9286-17.143z" fill="#ccc"/>
   <path d="m860.9 1362.8s-29.042 19.193-70.963 17.172-35.355-2.0203-35.355-2.0203l-31.062-5.3033-9.3439-3.788-2.5254 3.283c5.0508 5.3033 96.574 29.416 152.63-5.378 0-2.1428-3.3832-3.9659-3.3832-3.9659z" fill="#ccc"/>
   <path d="m720.49 1376.5s32.577 12.627 67.68 9.5965c2.2728-5.3033 2.2728-5.8084 2.2728-5.8084s-50.255-0.7576-66.67-8.3338c-2.7779 2.5254-3.283 4.5457-3.283 4.5457z" fill="#709d2a"/>
   <path d="m596.61 1365.4 9.1072 2.6786 28.214 5 28.036 3.0357 29.821-1.9643 13.75-3.2142 7.3214-2.6786 0.17858 2.6786-2.3214 3.75s-54.115 18.229-116.74-6.5198c1.0102-1.0102 2.6374-2.766 2.6374-2.766z" fill="#ccc"/>
   <path d="m601.07 1367 12.5 3.0357 14.464 2.6786 17.857 1.9643 11.071 0.8928-2.8572 6.4286s-41.25-2.6786-55.179-11.25c0.71428-0.8928 2.1429-3.75 2.1429-3.75z" fill="#709d2a"/>
   <path d="m774.17 858.01 1.1056 4.3856 3.8328 15.294c-31.566-17.025-57.255-10.868-82.774-7.334l-5.2333 0.70023 4.6068 2.5798 16.032 8.9556c-40.697 7.3728-77.936 22.375-105.33 56.903l-3.4643 4.3856 5.3807-1.5847 21.191-6.3021c-18.153 18.406-25.792 36.287-34.016 53.881l-2.6166 5.565 5.1596-3.3169 10.725-6.8917c-14.296 26.278-11.72 51.2-11.646 75.698 7.233-1.7494 10.63-15.921 16.953-24.103-0.9084 19.061-0.35022 38.217 12.604 54.95l2.285 2.9852 0.81079-3.6486c1.8118-8.0279 4.093-15.648 6.7812-22.886 1.4878 1.8749 6.5412 8.2463 13.415 16.953 2.8006 3.5473 5.4113 6.8831 7.9974 10.172-3.814 3.9629-22.796 25.309-23.955 58.745l-0.0737 1.4741 1.4742 0.3318c3.8799 0.8314 8.2418 1.6591 12.715 2.4323 0.0267 1.3402 0.10849 4.3428 0.55281 8.8083 0.53527 5.3779 1.543 11.911 3.6854 17.1-3.0357 2.9417-5.6212 6.0101-7.8499 9.0292-3.2796-0.6218-6.3634-0.9731-9.2504-1.1057-21.588-0.9917-32.245 10.728-34.975 20.896-4.2978 0.6761-7.2919 2.644-8.587 5.6757-1.3186 3.0864-1.0595 6.8214-0.33169 11.056-2.7955 2.2547-4.6125 4.902-5.1227 8.071-0.55944 3.4745 0.0834 7.388 1.2162 12.272-2.0365 7.6107 1.2626 14.492 6.8917 19.717 2.5791 2.3071 5.9602 4.3575 5.7124 5.2701-0.23424 0.7784-0.67266 2.1106-1.253 3.9066-1.1608 3.5917-2.8261 9.1162-4.2382 16.621-2.8187 14.981-4.7512 37.938-0.40539 69.802-0.14813 0.1588-0.20172 0.2391-0.4054 0.4423-0.95619 0.9538-2.4461 2.3629-4.2751 4.1277-3.6579 3.5298-8.6904 8.5469-13.894 14.852-12.349 15.243-21.604 31.538-23.513 51.522l-0.0738 0.6265 0.36854 0.516c11.069 16.825 51.548 43.41 120.99 10.688 3.9108 6.5094 11.478 12.706 21.302 18.206 12.683 7.1011 29.236 12.95 46.989 15.958 35.507 6.0154 76.1 0.6235 99.175-29.999v-0.074l0.0368-0.036c3.146-4.719 6.5614-12.751 10.946-21.154 4.3843-8.4033 9.7123-17.076 16.142-22.702 6.5889-5.7653 8.1326-14.403 6.9286-22.702 2.0614-0.8926 5.0246-2.3629 8.6239-4.7172 6.8273-4.4661 15.858-12.015 24.729-24.361 17.717-24.654 34.802-68.383 33.169-144.69 1.6133-1.6877 3.0618-3.4042 4.3119-5.1596 10.524-14.779 9.2-40.557 5.6755-62.726-2.0186-12.697-4.8356-24.081-6.8917-31.621 2.9997-1.1615 5.1985-2.5375 6.7074-3.7224 0.9585-0.7527 1.5946-1.397 2.027-1.8795 0.70285-0.9963 0.66406-1.5783 0.14742-2.9483-30.615-59.59-95.546-77.676-107.54-80.563 8.0813-16.201 12.365-34.721 7.5551-57.972l7.7394 5.2702 4.791 3.28-2.1375-5.3807c-8.7324-21.935-15.529-44.641-38.513-65.6l7.2971-3.6486 2.3218-1.1793-1.9533-1.7322c-3.8508-3.4074-7.7918-6.9151-12.346-9.103-4.0934-1.9665-8.7927-2.6225-13.931-1.1793-2.1839-6.8067-6.5341-11.576-11.609-15.221-5.5036-3.9531-11.743-6.8666-17.1-10.393zm5.565 7.6656c4.5753 2.7056 9.2378 5.1767 13.267 8.0711 5.1272 3.6827 9.1312 8.0142 10.835 14.852l0.4791 1.9533 1.8796-0.70023c4.9671-1.8607 8.9365-1.2593 12.862 0.62652 3.2321 1.5527 6.3592 4.1216 9.5084 6.8549l-7.1128 3.5748-2.3587 1.1793 1.9901 1.7322c22.012 19.185 29.249 39.748 37.333 60.662l-6.5969-4.4962-3.8328-2.6166 1.1425 4.4962c6.3034 25.141 1.755 44.101-7.0023 61.03l-3.0957-16.326c7.7891-9.006 9.3214-23.093 6.56-35.343-1.4184-6.2927-4.0017-12.119-7.592-16.584-3.5903-4.4657-8.2918-7.5956-13.82-8.0711-4.3365-0.39116-8.1425 1.1515-10.872 3.9802-2.7295 2.8288-4.4277 6.8311-5.2333 11.535-1.4081 8.2224 0.1455 18.637 4.6805 29.041-10.284-4.981-19.485-11.533-27.309-20.159l-1.1056-1.2162-1.2899 1.0319c-12.355 7.4937-17.728 20.346-26.435 29.162 2.3268-10.833 3.7531-17.422 5.3917-25.587l-3.3169 2.3218c-13.862 9.6617-28.774 27.136-44.409 48.721-0.44454-12.775 1.2729-25.463 7.1128-38.181l2.5429-5.565-5.0859 3.3169c-18.896 12.24-32.613 32.467-46.694 51.67-2.2312-9.978 2.486-25.856-0.0368-29.41-21.341 20.687-36.738 46.741-44.778 79.2-11.415-17.115-10.643-36.747-9.4347-56.976-6.398 3.5532-14.05 18.729-17.321 24.729-0.39262-24.321-1.6658-48.04 14.668-73.303-7.2195 0.46866-9.7602 2.2281-13.931 4.9016 8.0525-17.343 16.259-34.425 35.675-52.222-4.4445-2.9478-17.589 1.7536-23.697 3.5748 27.388-31.582 63.659-45.316 103.82-51.964l4.9753-0.84764-4.4225-2.4324-15.663-8.7713c24.828-3.6955 48.71-8.2774 78.831 9.4347l3.6486 2.1375-1.0319-4.0908zm42.935 84.396c0.39765-3e-3 0.7928-1e-3 1.2162 0.0368 4.3924 0.37772 8.2327 2.8197 11.388 6.7443 3.1552 3.9247 5.5348 9.2909 6.8549 15.147 2.4512 10.874 1.1573 23.296-4.791 31.179-1.3899-4.0721-2.9804-7.7292-4.7542-10.946 0.64508-1.0232 1.5166-2.6427 1.9901-4.7542 0.78144-3.4848 0.21721-8.2912-4.2014-12.457l0.0368-0.0368c-2.1954-2.395-3.3302-5.5582-3.1694-6.8549 0.27485-2.9988 1.6533-2.5363 5.6018-3.5748-1.2203-0.46776-2.3038-0.76429-3.3169-0.88449-1.0131-0.12021-1.9448-0.057-2.8009 0.22111-1.7122 0.5562-2.8232 2.192-3.022 3.796-0.39767 3.2079 1.3721 6.7268 4.0908 9.6926l0.0368 0.0737 0.0737 0.0368c3.6739 3.4067 3.7961 6.5834 3.2063 9.2135-0.1678 0.74829-0.4436 1.3952-0.70024 1.9901-4.1562-4.4024-6.8883-6.0878-9.5084-5.2701 8.4216 6.2483 15.931 23.037 18.317 46.141-5.6134 35.501-36.393 73.83-54.139 88.376-10.777 8.8336-26.335 12.38-43.635 12.825-0.0141 0-0.29483-0.074-0.29483-0.074l-0.0368 0.1106c-10.58 0.2471-21.803-0.6828-32.984-2.2481-14.61-2.0455-23.238-6.8111-28.636-11.498-5.3977-4.6875-7.4259-9.1579-9.1767-11.609-1.2777-1.7885-6.6558-8.6445-12.53-16.105l0.8845-0.8477s19.917-18.525 39.987-15.147l2.8746 0.4791-0.8845-2.7641c-2.0704-6.4292-5.6722-13.355-9.4347-18.796-1.8812-2.7204-3.8114-5.0893-5.6755-6.818-1.8642-1.7288-3.6135-2.9852-5.7492-2.9852-1.9181 0-5.3467 0.3301-9.1767 2.2481l1.769-2.3955c13.849-18.634 26.891-38.249 43.709-50.969-4.9072 13.134-6.243 26.275-5.1964 39.323l0.36855 4.8647 2.8378-3.9802c15.38-21.642 30.027-38.901 43.267-49.2l-0.95821 6.9286c-7.5141 2.9604-11.731 7.07-13.304 14.815 0 0 3.7216-3.7315 9.5452-5.4544 0.81851-0.24216 1.6895-0.43799 2.5798-0.58967l-0.25797 1.8796-0.77394 5.786 3.8697-4.3856c1.0118-1.1481 2.015-2.2574 3.022-3.3906 8.9811 1.2158 11.36 4.6144 16.584 5.307-2.267-4.6532-6.0945-9.0925-10.835-11.72 6.1366-6.7039 12.025-12.708 17.248-16.953 9.0089 9.5517 19.584 16.75 31.51 21.855l4.6068 1.9533-2.3587-4.4225c-5.9163-11.23-7.7406-22.852-6.3021-31.252 0.71927-4.2001 2.2784-7.5838 4.3488-9.7295 1.8116-1.8775 3.9976-2.8888 6.7812-2.9115zm-66.743 42.122-0.36077 3.371c-2.6609 0.2702-5.4622 1.0638-7.712 2.5913 2.3272-4.0236 6.0459-5.5708 8.0728-5.9623zm9.4501 1.1949c1.8376-0.33548 5.6975 4.0982 6.3521 5.456-1.3056-1.0195-7.5358-3.2516-8.9744-2.5835 0.24744-0.2755 2.3754-2.5986 2.6222-2.8724zm-13.651 18.413c-0.60874 0-1.2294 0.013-1.8427 0.037-8.1769 0.3195-16.695 3.1526-23.992 10.724l-0.0737 0.074-0.0738 0.1106c-3.4645 4.578-2.7088 10.522 0.0368 15.958 2.7065 5.3577 7.346 10.508 12.494 14.52l1.1793 1.4373s9.2561-7.6136 20.086-15.147c8.526-7.0952 23.853-13.988 28.746-18.095-1.5153-0.05-3.1462 0.2578-4.9016 0.7739-1.4424-0.9713-9.0929-5.9496-19.496-8.6975-3.7762-0.9975-7.9007-1.6722-12.162-1.6953zm-82.258 3.2432c-2.1294 8.917-1.6892 17.776-0.25798 26.498l0.58967 3.6118c-1.509 0.8346-3.0751 1.8984-4.6068 3.3168-5.7396 5.3155-11.043 15.115-12.862 32.874l-0.0738 0.5159 0.25798 0.4791c0.20525 0.3935 0.33102 0.6144 0.51596 0.9582-0.0917-0.1162-0.16633-0.2155-0.25798-0.3316-7.5362-9.546-14.228-17.931-14.742-18.575 7.605-19.026 18.221-35.326 31.437-49.348zm82.922 0.258c3.6646 0.1 7.2505 0.7331 10.614 1.6216 7.0519 1.8627 12.92 4.9079 16.179 6.818-1.5688 0.6917-3.1973 1.4891-4.9016 2.3955-5.3745 2.8584-11.248 6.6519-16.732 10.467-7.6354 5.3117-14.298 10.509-17.764 13.268-4.5145-3.6574-8.5703-8.2681-10.835-12.752-2.407-4.7649-2.7779-8.988-0.36854-12.199 7e-3 -0.01-7e-3 -0.028 0-0.037 7.3019-7.4889 15.746-9.801 23.808-9.5821zm91.767 11.277c5.4311 1.2103 62.958 15.006 97 64.126-4.7016-1.2451-9.5716-1.6181-14.484-1.3267-11.2 0.6643-22.567 4.6941-32.284 9.324-12.216 5.8206-21.705 12.508-25.319 15.184-3.1463-3.9134-6.4662-7.2844-10.503-9.5452 3.4334 5.3092 13.895 17.826 17.063 24.36l1.1425 1.4742 1.4005-1.1793c2.806-2.3432 5.6717-4.4493 8.5502-6.3758 0.42185 3.2965 1.268 9.5901 2.7641 18.058 0.99153 5.6126 2.1934 11.56 3.538 16.769 1.0471 4.0561 2.1474 7.6414 3.4274 10.393-4.0825 1.1176-8.3554 3.4264-12.678 6.302-6.514 4.3338-13.1 10.069-18.832 15.589-3.1497 3.033-7.4569 5.6185-11.941 7.7394-3.4085-3.3723-18.943-17.999-40.06-26.314-8.9891-3.5392-19.026-5.9401-29.557-5.786-3.5104 0.051-7.0489 0.3981-10.651 1.0687-10.087 1.878-20.45 6.3972-30.552 14.594-15.226-8.0797-28.578-12.161-40.208-13.378-2.537-10.302-10.224-26.316-13.857-26.388 0 0 1.1711 2.3311 2.6904 5.6018-8.2242 2.1679-21.261 0.6033-32.247-1.769-8.7974-1.8993-16.217-4.1794-19.238-5.1595 4.645-22.992 17.24-37.826 20.896-41.756 3.6302 4.6263 6.5049 8.3182 7.2234 9.324 1.2274 1.7185 3.8098 7.0949 9.7295 12.236 5.9197 5.1409 15.306 10.185 30.478 12.309 11.286 1.5799 22.691 2.5515 33.537 2.3217 1.3616 0.3953 7.2087 2.0831 14.631 3.9803 6.4026 1.6365 13.205 3.2955 18.132 3.9802-1.5341 3.7968-3.321 5.1075-5.6387 8.108 3.921-1.3506 7.6364-4.7116 11.277-8.9187 3.641-4.2072 7.1625-9.2911 10.245-14.226 6.1659-9.8693 10.614-19.164 10.614-19.164l-0.0368-0.037c17.481-18.866 37.786-48.894 42.345-78.168l0.0368-0.2211-0.0368-0.258c-8e-3 -0.075-0.0291-0.1458-0.0368-0.2211l0.11059-0.1843c0.4631-0.8142 0.88162-1.6437 1.3268-2.4692zm-177.56 11.572-5.2333 1.0688c-10.611 2.2172-14.901 9.5162-16.142 15.921-0.63848 3.7382 0.0742 8.5706 3.6486 12.126 3.705-17.565 6.8339-16.86 14.189-25.135l3.538-3.9802zm13.194 7.8501c0.39136 0 1.776 0.6007 3.3537 2.0638 1.5777 1.463 3.3817 3.6206 5.1596 6.1914 3.0913 4.4703 5.9535 10.13 7.9605 15.479-18.783-1.4728-34.784 11.55-38.439 14.815-0.43819-0.7068-1.049-1.7565-1.9164-3.3906 1.814-16.82 6.7905-25.579 11.683-30.11 4.9481-4.5826 9.9418-5.049 12.199-5.049zm-20.829-3.1225c-2.0248 3.1752-8.7721 7.6722-11.025 18.338-2.7303-6.3503 3.0353-18.006 11.025-18.338zm50.497 45.91c8.1182-10.792 18.602-12.433 28.673-8.0711-8.363-9.709-25.259-4.7116-28.673 8.0711zm220.5 4.0538c4.9957 0 9.8491 0.7946 14.373 2.6167 1.4285 2.2622 2.809 4.599 4.1277 7.0023-6.6934-0.8312-16.476-0.6829-28.046 1.9163-13.353 2.9999-28.696 9.3048-42.972 20.786-2.1563-2.8828-4.1689-5.7436-6.1915-8.4395 3.5495-2.6247 12.819-9.1583 24.692-14.816 10.413-4.9612 22.573-9.0612 34.016-9.0661zm-195.18 23.808s14.146-14.459 34.016-9.066c-8.6366-6.8053-30.525-2.7495-34.016 9.066zm204.1-11.093c0.94706 3.0357 5.8833 19.277 9.0293 39.066 3.4748 21.857 4.2228 47.089-5.049 60.109-9.4132 13.218-32.932 25.779-54.36 34.79-10.714 4.5056-20.934 8.1649-28.599 10.761-3.8323 1.298-7.003 2.3281-9.3241 3.0589s-3.6579 1.1334-4.1277 1.2898c-0.70575 0.2353-1.26 0.5608-2.285 1.1058-1.025 0.5446-2.3582 1.2597-3.9434 2.1005-3.1704 1.6819-7.3616 3.8321-12.125 5.9705-9.5269 4.2768-21.356 8.4443-31.473 8.587-10.42 0.1466-17.629-1.1028-22.186-2.3586-4.5569-1.2561-6.3021-2.4325-6.3021-2.4325l-0.33169-0.1843-0.40539-0.074s-0.19071 0.064-0.55282-0.4792c-0.31386-0.4706-0.71875-1.6386-0.11059-4.2751 14.985 2.3303 29.373-0.7001 29.373-0.7001-19.085 0.7066-31.321-2.0655-41.645-6.5233-1.321-1.1407-1.8924-2.199-2.1007-3.2799-0.21683-1.1256-0.0608-2.313 0.33168-3.4274 0.38591-1.0961 0.95088-2.0874 1.4373-2.8009 7.1982 2.8951 15.686 3.5028 23.144 3.3167 10.755-0.2681 19.57-2.3217 19.57-2.3217-19.663 0.5319-37.471 1.1054-48.869-8.9187-3.5184-3.6498-3.1125-6.397-2.0638-8.7344 0.63795-1.4221 1.5536-2.4872 2.2112-3.1695 19.882 12.703 42.751 5.4176 42.751 5.4176-21.034 0.08-30.819-0.702-44.704-11.277-0.21097-1.8222-0.0334-4.5834 0.73709-6.7075 0.42352-1.1675 1.0214-2.1004 1.5479-2.5797 0.52645-0.4793 0.83782-0.5886 1.511-0.4423 0.61648 0.1339 3.682 1.4022 7.3708 2.9114 3.6888 1.5095 8.2831 3.2647 13.046 4.4964 4.7633 1.2313 9.7084 1.984 14.226 1.2898 4.5172-0.6942 8.6667-2.9838 11.093-7.4813l0.44225-0.811-0.40539-0.8106c-1.9238-3.9547-3.3134-6.3615-5.2702-7.9975-1.9567-1.6359-4.2316-2.2327-7.334-2.8745-2.6349-0.5451-5.9973-2.341-7.8131-4.4225-0.90791-1.0408-1.4284-2.1063-1.511-3.0591-0.0666-0.7676 0.19692-1.5438 0.81079-2.4322 1.8421-0.029 3.6191 0.5989 6.4126 1.4004 3.1409 0.9014 7.3758 1.724 13.71 1.0688 11.573-1.1972 27.38 3.6377 36.449 17.543l2.285-1.5111c2.3754-0.535 6.4982-1.5359 11.425-3.2063 7.4877-2.5387 16.439-6.4538 22.481-12.272 11.19-12.363 22.494-19.938 35.122-25.134-0.79682-0.05-1.6133 4e-4 -2.4324 0.073-1.206-2.3469-2.4623-6.1984-3.6117-10.651-1.3079-5.0663-2.4827-10.954-3.4643-16.511-1.7451-9.8781-2.7519-17.717-2.9852-19.57 10.638-6.5349 21.469-10.46 31.179-12.641 6.5282-1.4666 12.571-2.1336 17.69-2.285zm3.6854 0c2.4225 0.047 4.5479 0.2309 6.3389 0.4791-1.1973 0.9207-2.9709 1.989-5.3438 2.9483-0.47048-1.6454-0.70859-2.4871-0.99506-3.4274zm-192.93 14.963c3.4109-1.7086 7.486-4.2645 11.572-3.6485-4.7085-4.1821-10.956-0.1188-11.572 3.6485zm42.456-4.0541c-1.5386 2.7711-3.2317 5.7518-5.2333 8.9556-2.9884 4.7832-6.3913 9.6718-9.8032 13.636-3.8964-0.2476-12.654-2.1526-20.38-4.1276-1.6277-0.4161-3.1426-0.8156-4.6436-1.2162 13.649-1.468 25.946-5.3738 35.306-13.046 1.5028-1.2319 3.1072-2.6785 4.7542-4.2015zm-153.39 26.977c3.3463 1.0627 10.593 3.2433 19.127 5.0859 11.433 2.4684 24.927 4.4054 34.459 1.6215 0.37906 0.8565 0.75503 1.6644 1.1425 2.5799 0.7436 1.7569 1.4979 3.607 2.1744 5.4543-1.8704 0.468-4.8424 0.7584-8.4396 0.7739-4.4694 0.019-9.9184-0.32-15.774-0.9213-11.179-1.1478-23.646-3.2114-33.685-5.3069 0.16958-3.221 0.51773-6.311 0.99506-9.2873zm12.973 15.479c6.4341 1.0479 13.08 1.9729 19.348 2.6168 5.9382 0.6097 11.514 0.9783 16.179 0.958 3.8761-0.017 7.0733-0.2502 9.5452-0.958 0.6829 2.1089 1.2159 4.1051 1.5479 5.8228-2.6513-0.1469-5.2024-0.1386-7.6657 0-14.366 0.8086-25.589 6.2267-34.053 13.12-0.48128 0.3919-0.93657 0.8156-1.4005 1.2161-1.592-4.4274-2.5105-10.119-2.9852-14.889-0.36856-3.7032-0.47502-6.2503-0.51596-7.8868zm131.79 9.9875c9.9736-0.1466 19.532 2.1178 28.193 5.5281 18.952 7.462 33.264 20.198 37.849 24.582-1.9607 0.814-3.8901 1.5439-5.7492 2.1744-5.1699 1.7529-9.5187 2.7469-11.646 3.2063-10.072-12.92-25.743-17.42-37.739-16.179-5.8806 0.6083-9.4324-0.1589-12.346-0.9951-2.9137-0.8361-5.3517-1.9272-8.5133-1.5479l-0.66336 0.074-0.44225 0.5159c-1.5729 1.7617-2.305 3.8194-2.1376 5.7493 0.16745 1.93 1.108 3.6153 2.3587 5.0491 2.5014 2.8671 6.294 4.8465 9.7664 5.5649 3.0049 0.6217 4.5312 1.0884 5.7861 2.1376 1.1266 0.9419 2.3396 2.7923 3.9065 5.8965-1.8851 2.9715-4.5715 4.4432-8.0342 4.9755-3.7486 0.5758-8.2855-0.015-12.788-1.1793-4.5029-1.1643-8.9379-2.9008-12.567-4.3858-3.6293-1.485-6.192-2.7033-7.9974-3.0958-1.7486-0.3802-3.4787 0.2292-4.6436 1.2901-1.1649 1.0605-1.9188 2.4625-2.4692 3.9802-1.1009 3.0348-1.3928 6.5448-0.88449 9.2134l0.11059 0.6266 0.4791 0.4053c0.62296 0.5247 1.2468 0.9954 1.8796 1.4742-0.8172 0.9046-1.7888 2.1972-2.5061 3.796-1.472 3.2812-1.5756 8.1855 2.8378 12.715v0.036l0.0368 0.037c1.6193 1.5052 3.4349 2.7474 5.3807 3.7959-0.54239 0.8506-1.1176 1.9105-1.5479 3.1327-0.53821 1.5286-0.84862 3.3521-0.47911 5.27 0.36951 1.918 1.4457 3.8541 3.4274 5.4914l0.18428 0.1474 0.18427 0.1106c3.358 1.5936 6.9344 2.69 10.54 3.4643-0.69997 3.2101-0.30001 5.4098 0.66338 6.8549 0.76638 1.1495 1.6865 1.5491 2.3218 1.769 0.0655 0.022 0.093 0.059 0.14742 0.074 0.18736 0.1156 2.4497 1.5057 7.1497 2.8009 4.8991 1.3502 12.419 2.6201 23.144 2.4693 11.029-0.1555 23.14-4.5122 32.874-8.8819 4.8669-2.1848 9.1415-4.3809 12.346-6.081 1.6023-0.8499 2.9427-1.5686 3.9434-2.1007 1.0006-0.5319 1.8061-0.909 1.7321-0.8845 0.16204-0.054 1.7508-0.5162 4.0908-1.2529 2.34-0.7368 5.5368-1.788 9.3978-3.0958 5.8252-1.9733 13.1-4.5573 20.97-7.6657 0.91712 1.7419 3.3537 6.3996 6.56 12.899 3.8825 7.87 8.2033 17.171 9.8032 22.371-0.35694-8.4852-4.568-19.722-6.6338-23.918-3.0995-6.2826-5.4148-10.736-6.4495-12.715 1.5165-0.6142 3.0255-1.193 4.5699-1.8425 17.289-7.271 35.979-16.572 48.095-27.456 1.0679 73.702-15.639 115.7-32.579 139.27-8.608 11.979-17.278 19.192-23.771 23.439-3.0356 1.9859-5.5337 3.2838-7.3708 4.1277-1.8484-7.7187-5.807-14.914-10.54-19.348 1.0232-0.762 2.0086-1.5413 2.9852-2.3586l0.84765-0.7371-0.29483-1.1056c-6.077-22.12-10.575-37.98-13.304-53.144 1.2803-2.319 2.0305-6.2861 2.8378-8.4761 1.7407-4.6589 4.4509-10.017 7.7762-12.788-5.8526 0.7253-9.8788 8.3637-11.093 11.572-0.29012 0.7767-0.4956 1.4884-0.73708 2.2113-2.4254-8.7978-3.4111-19.436-5.3807-26.94 0 25.119 4.2314 43.462 11.72 71.018-58.799 31.648-140.43 9.6208-146.09 8.0343-3.3246-26.498-1.8588-56.636 1.7321-83.401 2.2548-16.806 5.3345-32.27 8.5133-44.704 3.162-12.368 6.4979-21.747 9.0293-26.166 13.535-15.847 27.589-23.388 41.129-25.908 3.3971-0.6325 6.7735-0.9463 10.098-0.9951zm-89.998 1.769c12.544-0.1728 27.66 3.3579 45.847 12.825-3.344 2.9637-6.651 6.3359-9.9138 10.172l-0.11059 0.1105-0.0738 0.1475c-2.9392 5.0871-6.2166 14.574-9.4347 27.162-3.218 12.587-6.314 28.205-8.587 45.146-3.4358 25.608-4.9978 54.225-2.2481 80.121-22.316 7.8617-50.795 6.9494-73.745 3.9066-21.002-2.7844-36.614-7.0716-39.618-7.9237-1.0736-19.978 0.46757-35.233 2.5061-46.068 1.3786-7.327 2.9562-12.631 4.0908-16.142 0.55148-1.7064 0.97109-2.9424 1.253-3.8697 4.0431 2.2282 8.4126 4.0037 12.678 5.307 4.0682 1.2431 7.3345 1.119 9.84 0 2.5056-1.1189 4.074-3.1753 5.0122-5.2332 1.1418-2.5048 1.442-5.0012 1.511-6.6707 1.1829 0.1703 2.3131 0.3134 3.3537 0.3687 6.1161 0.3239 10.055-1.3493 12.199-4.0172 3.0464-3.7906 2.3746-8.649 1.7322-11.167 4.6545-0.5082 7.6887-2.2928 9.361-4.7174 2.8469-4.1281 1.7589-9.128 0.95821-11.572 5.3715-1.4905 8.1303-5.9106 7.8868-10.172-0.27209-4.7615-4.213-9.3241-10.393-9.3241-4.8203 0-12.078-2.3328-17.948-4.7541-0.78237-0.3228-1.4463-0.6406-2.1744-0.9583 1.6982-4.5058 7.9713-19.229 21.375-30.147 8.4906-6.9155 19.758-12.325 34.643-12.53zm-60.588 24.914c2.8639 0.028 5.9958 0.322 9.361 0.8845-4.4852 6.7478-6.9702 12.625-8.0342 15.442-2.9623-1.3883-5.0122-2.4691-5.0122-2.4691 0.73863 4.711 23.331 13.077 28.378 13.157 4.5419 0 6.6802 2.914 6.8549 5.9704 0.17465 3.0563-1.5538 6.2384-6.7812 6.8917-5.4344 0.6793-12.591-0.9789-18.28-2.9115-5.6883-1.9326-9.9138-4.0539-9.9138-4.0539 3.4207 6.9391 22.521 10.858 27.051 10.651 0.47607 1.4764 1.7205 6.0702-0.29483 8.9923-1.2014 1.7423-3.5762 3.2614-8.9924 3.3171-5.4162 0.055-13.698-1.516-25.798-5.8967 2.641 5.6242 19.854 9.2352 24.655 9.3977 0.36272 1.3559 1.4253 6.0627-0.81079 8.8451-1.3044 1.623-3.8166 2.9782-9.2504 2.6904-5.4338-0.2882-13.589-2.3481-25.429-7.4078 3.1613 5.7581 13.775 8.9295 18.39 9.9506-0.0394 1.3312-0.25227 3.7454-1.2162 5.8598-0.69391 1.5221-1.7185 2.7669-3.28 3.4643-1.5615 0.6976-3.8208 0.8892-7.334-0.1843-7.3818-2.2554-15.136-6.0747-20.343-10.909-5.2078-4.834-7.849-10.327-5.8598-16.769l0.11059-0.4423-0.11059-0.4789c-1.1424-4.8814-1.6095-8.495-1.1793-11.167 0.43018-2.6716 1.6074-4.5378 4.4962-6.56l0.92135-0.6634-0.22112-1.1056c-0.82005-4.4077-0.89711-7.8874 0-9.9875 0.8971-2.1 2.5876-3.3344 6.8549-3.7221l1.2899-0.1475 0.29484-1.2532c1.7855-8.4402 10.012-19.575 29.483-19.385zm227.13 149.96c1.1095 4.0533 2.2611 8.2786 3.5012 12.788-18.854 15.228-47.473 20.24-75.588 20.085-28.014-0.1539-55.3-5.3105-71.681-9.8401-1.1263-4.7154-2.0285-9.6395-2.7641-14.705 12.634 3.4067 89.092 22.093 146.53-8.329zm-264.21 0.5159c5.1605 1.4049 19.9 5.176 38.955 7.7026 22.968 3.0451 51.451 4.1154 74.593-3.796 0.69262 5.6169 1.619 11.096 2.7641 16.363-16.074 7.519-39.763 8.7302-61.952 7.0392-21.997-1.6764-42.352-6.0942-52.554-9.361-0.84401-6.3511-1.4214-12.317-1.8059-17.948zm264.91 18.832c4.2965 3.8014 8.5132 11.078 10.209 18.685 0.0828 0.3716 0.14989 0.7338 0.22113 1.1056-10.276 5.3926-16.999 14.74-22.886 25.319-6.0287 10.832-11.253 23.016-18.464 34.016-0.0244 0.038-0.0493 0.073-0.0738 0.1106-11.671 14.71-27.316 22.033-44.372 24.619-17.098 2.5917-35.569 0.3588-52.37-4.1277-16.801-4.4868-31.951-11.245-42.382-17.506-5.2157-3.1304-9.2606-6.167-11.683-8.6239-1.2111-1.2285-2.0124-2.3051-2.3587-3.0589-0.3463-0.754-0.23557-0.9454-0.18426-1.0319l-0.25799-0.1474c3.9622-14.433 12.526-28.92 20.712-40.318 8.7887-12.238 16.684-20.508 18.169-22.039 1.8011 0.5004 3.7024 1.0028 5.7492 1.5109-1.0003 0.9577-2.2036 2.2676-3.4643 3.9802-2.9443 3.9998-6.1308 10.202-7.2234 18.943l-0.22112 1.7321 1.7321 0.2581c31.845 4.6092 60.809 13.415 60.809 13.415l1.2162 0.3686 0.73708-1.0688s4.3459-6.357 8.7344-13.231c2.1943-3.4368 4.4122-6.9777 6.1178-9.9874 0.85278-1.505 1.5564-2.8918 2.1007-4.054 0.31884-0.6806 0.55239-1.2729 0.73709-1.8427 24.892-0.2918 50.07-4.5889 68.696-17.027zm-263.65 2.6904c0.69019 0.2157 1.3724 0.4046 2.1376 0.6266-0.44187 0.464-0.89859 0.9628-1.3636 1.5109-1.7006 2.0049-3.5658 4.5093-5.307 6.9654-3.4825 4.9128-6.4863 9.6559-6.4863 9.6559l-1.6953 2.7272h3.2063s30.933 0.093 53.954 12.014l1.3268 0.6632 0.8845-1.1793c8.2211-10.961 13.248-19.972 14.963-23.181 18.827 0.7788 37.999-0.6827 52.665-6.8179-3.1248 3.3475-10.081 11.117-17.395 21.302-8.3496 11.627-17.19 26.41-21.302 41.571-40.232 17.323-69.386 15.361-88.561 9.1399-14.752-4.7865-23.503-12.015-26.867-15.221 3.7274-16.096 12.579-29.899 21.117-40.245 5.0779-6.1528 10.019-11.067 13.636-14.557 1.8086-1.7452 3.2797-3.1348 4.3119-4.1645 0.32135-0.3205 0.53997-0.5486 0.77393-0.8108zm6.1178 1.7321c11.462 2.9833 28.497 6.1655 46.731 7.5552 1.6049 0.1222 3.2096 0.2385 4.8279 0.3317-2.1798 3.8911-6.5899 11.336-13.046 20.086-20.192-9.9462-43.66-11.458-50.896-11.683 1.0428-1.6165 2.1644-3.3944 4.6436-6.8917 1.7077-2.4089 3.5018-4.84 5.0859-6.7075 0.79204-0.9337 1.5391-1.7328 2.1375-2.285 0.19716-0.1818 0.35343-0.2842 0.51596-0.4054zm121.8 5.1228c16.666 3.8307 39.536 7.3896 62.947 7.5182 0.0979 6e-4 0.19698-4e-4 0.29483 0-0.0534 0.1232-0.0867 0.2022-0.14741 0.3317-0.48068 1.0264-1.1647 2.3026-1.9901 3.7592-1.6508 2.913-3.8316 6.4692-6.0072 9.8769-4.006 6.2746-7.3563 11.201-7.9605 12.088-1.8755-0.5654-27.928-8.3416-58.23-12.899 1.1884-7.1633 3.7874-12.31 6.2284-15.626 2.6364-3.5816 4.8647-5.049 4.8647-5.049zm146.68 13.968c0.53646 6.6777-1.0738 13.042-6.0072 17.358-7.0483 6.1673-12.492 15.184-16.953 23.734s-8.0108 16.696-10.761 20.823c-22.004 29.112-60.98 34.44-95.673 28.562-17.363-2.9417-33.587-8.6885-45.847-15.553-12.111-6.7809-20.162-14.732-21.965-21.449 0.12997-0.8566 0.27393-1.7194 0.44225-2.5797 0.45017 0.5596 0.94019 1.1162 1.511 1.6952 2.7734 2.8132 7.0006 5.9095 12.383 9.1399 10.765 6.4608 26.127 13.297 43.267 17.874 17.14 4.5773 36.041 6.9314 53.807 4.2381 17.766-2.6934 34.446-10.509 46.731-26.056l0.0368-0.036 0.0368-0.074c7.4765-11.376 12.765-23.711 18.685-34.348 5.5351-9.945 11.552-18.33 20.307-23.329zm-315.25 42.935c4.4423 3.857 13.205 10.245 26.609 14.594 19.574 6.3508 48.938 8.3147 88.597-8.1817-0.27751 1.3351-0.54405 2.6819-0.73708 4.0172l-0.0368 0.3684 0.0738 0.3317c0.21251 0.8619 0.50096 1.7259 0.84764 2.5799-67.564 31.804-105.73 6.0045-116.02-8.9925 0.16524-1.5944 0.39384-3.1615 0.66338-4.7173z" color="#000000" style="block-progression:tb;text-indent:0;text-transform:none"/>
   <path transform="matrix(.9962 0 0 .9962 237.25 38.265)" d="m518.21 1002.4c0 5.021-4.0703 9.0914-9.0914 9.0914-5.021 0-9.0914-4.0704-9.0914-9.0914s4.0704-9.0914 9.0914-9.0914 9.0914 4.0704 9.0914 9.0914z"/>
   <path transform="matrix(.95012 0 0 .95012 193.99 113.32)" d="m518.21 1002.4c0 5.021-4.0703 9.0914-9.0914 9.0914-5.021 0-9.0914-4.0704-9.0914-9.0914s4.0704-9.0914 9.0914-9.0914 9.0914 4.0704 9.0914 9.0914z"/>
   <path transform="matrix(.28965 0 0 .28965 597.8 742.35)" d="m518.21 1002.4c0 5.021-4.0703 9.0914-9.0914 9.0914-5.021 0-9.0914-4.0704-9.0914-9.0914s4.0704-9.0914 9.0914-9.0914 9.0914 4.0704 9.0914 9.0914z" fill="#fff"/>
   <path transform="matrix(.25893 0 0 .25893 547.67 801.92)" d="m518.21 1002.4c0 5.021-4.0703 9.0914-9.0914 9.0914-5.021 0-9.0914-4.0704-9.0914-9.0914s4.0704-9.0914 9.0914-9.0914 9.0914 4.0704 9.0914 9.0914z" fill="#fff"/>
   <path transform="matrix(.70403 -.54548 .63268 .47914 -449.61 965.16)" d="m798.57 1061.8c0 7.1008-11.513 12.857-25.714 12.857s-25.714-5.7563-25.714-12.857 11.513-12.857 25.714-12.857 25.714 5.7564 25.714 12.857z" fill="#fed9a2"/>
   <path transform="matrix(.6772 -.24063 .36418 .5268 -224.7 715.15)" d="m798.57 1061.8c0 7.1008-11.513 12.857-25.714 12.857s-25.714-5.7563-25.714-12.857 11.513-12.857 25.714-12.857 25.714 5.7564 25.714 12.857z" fill="#fed9a2"/>
   <path d="m940.7 1104.5 1.894 6.9448 5.6821-2.3991 2.6516-3.1567-6.9448-2.2728z"/>
  </g>
 </g>
</svg>
