<svg id="Layer_1" data-name="Layer 1" xmlns="http://www.w3.org/2000/svg" viewBox="0 0 714 714"><defs><style>.cls-1{fill:#d99426;}.cls-2{fill:#ef3b3b;}.cls-3{fill:#b6b8ba;}.cls-4{fill:#fff;}.cls-5{fill:#a42424;}.cls-6{fill:#96c3d8;}.cls-7{fill:#5c5d60;}.cls-8{fill:#48484a;}</style></defs><path class="cls-1" d="M586.01583,334.58709v221.96L616.7171,519.4472a25.60584,25.60584,0,0,0,5.83969-16.317V272.83333l-23.37048,26.58728A53.28726,53.28726,0,0,0,586.01583,334.58709Z"/><path class="cls-2" d="M598.01367,229.32486H333.06416a24.54265,24.54265,0,0,0-11.48343,2.85223l-60.37636,31.964a24.54307,24.54307,0,0,0-13.05969,21.6909v65.51969a24.54326,24.54326,0,0,1-7.13136,17.29723L80.24119,530.48576A24.54312,24.54312,0,0,0,73.10983,547.783v41.80936a24.54317,24.54317,0,0,0,20.86092,24.26533l376.4048,57.11941a24.543,24.543,0,0,0,22.38572-8.37354l93.25456-109.75338V336.67464a51.11915,51.11915,0,0,1,13.17048-34.25l23.37048-25.89439V253.868A24.54313,24.54313,0,0,0,598.01367,229.32486Z"/><path class="cls-3" d="M332.37229,246.96426,310.52921,260.514a3.44979,3.44979,0,0,0,1.63645,6.37655L544.6848,279.17986a13.00617,13.00617,0,0,0,10.69808-4.68575l11.95923-14.42142a3.4498,3.4498,0,0,0-2.50936-5.64883l-224.58919-9.52342A13.82127,13.82127,0,0,0,332.37229,246.96426Z"/><ellipse class="cls-4" cx="606.77237" cy="335.32337" rx="8.01061" ry="14.91631"/><path class="cls-1" d="M284.84844,310.50276v20.57359a12.53906,12.53906,0,0,0,11.6348,12.50642l216.424,15.64831a12.53907,12.53907,0,0,0,13.44333-12.50642V321.9605A12.53907,12.53907,0,0,0,514.47442,309.439l-216.424-11.45774A12.53906,12.53906,0,0,0,284.84844,310.50276Z"/><path class="cls-4" d="M396.275,369.17123c-2.17952-2.80037-7.12465-3.99607-10.62347-2.41479-15.2419,8.14513,5.46055,24.73979,9.16839,25.95114C421.47635,382.33559,411.269,359.82452,396.275,369.17123Z"/><rect class="cls-4" x="322.75836" y="327.35652" width="4.17321" height="79.88169" transform="translate(-79.59794 644.52929) rotate(-82.93914)"/><rect class="cls-4" x="467.92313" y="345.41981" width="4.17277" height="79.88206" transform="translate(53.54936 828.04906) rotate(-86.09691)"/><path class="cls-3" d="M168.61377,543.5708l-15.43408-10.36438c3.89789-8.67828,3.12921-17.46857-2.18018-20.56323-5.93109-3.457-15.26391,1.50354-20.8454,11.07959s-5.298,20.14142.63306,23.59839c5.01556,2.92334,12.45587-.18775,18.011-7.004l15.16272,10.18231a4.173,4.173,0,1,0,4.65283-6.92871Z"/><path class="cls-3" d="M190.32373,514.99463a4.17314,4.17314,0,1,0,4.65332-6.92871l-15.43457-10.36481c3.89764-8.67816,3.129-17.46838-2.18036-20.563-5.93115-3.457-15.26391,1.50354-20.8454,11.07959s-5.298,20.14142.63306,23.59839c5.0155,2.92334,12.45587-.18774,18.011-7.00391Z"/><path class="cls-3" d="M184.8606,475.50671c5.01556,2.92334,12.456-.1878,18.0111-7.00409l15.16346,10.18244a4.17287,4.17287,0,0,0,4.65234-6.92871L207.25311,461.392c3.89789-8.67829,3.12921-17.46857-2.18023-20.56323-5.9311-3.457-15.26386,1.50347-20.84534,11.07959C178.64606,461.48438,178.92944,472.04974,184.8606,475.50671Z"/><path class="cls-3" d="M211.22314,440.00165c5.01557,2.92328,12.45582-.18775,18.01093-7.00385l15.1629,10.18238a4.17314,4.17314,0,0,0,4.65332-6.92872l-15.43451-10.36474c3.89771-8.67828,3.129-17.46851-2.18029-20.56305-5.9311-3.457-15.26392,1.50348-20.8454,11.07953S205.29205,436.54468,211.22314,440.00165Z"/><path class="cls-3" d="M222.66846,552.02344l-15.43457-10.36481c3.89764-8.67816,3.12884-17.46826-2.18042-20.56287-5.93109-3.457-15.26392,1.50348-20.8454,11.07959-5.58148,9.57605-5.298,20.14142.63306,23.59839,5.01556,2.92334,12.45587-.18774,18.011-7.004l15.163,10.18237a4.17314,4.17314,0,0,0,4.65332-6.92871Z"/><path class="cls-3" d="M244.37744,523.44727a4.17314,4.17314,0,1,0,4.65332-6.92872l-15.43439-10.36486c3.89765-8.67823,3.129-17.46845-2.18029-20.563-5.93116-3.457-15.26392,1.50348-20.8454,11.07953s-5.298,20.14148.63306,23.59845c5.0155,2.92334,12.45574-.18775,18.01092-7.00385Z"/><path class="cls-3" d="M238.28149,460.36084c-5.58148,9.57611-5.29809,20.14148.63306,23.59845,5.0155,2.92334,12.45581-.18781,18.01093-7.004l15.1629,10.18238a4.17314,4.17314,0,0,0,4.65332-6.92872l-15.43451-10.36474c3.89764-8.67816,3.129-17.46839-2.18036-20.56293C253.19574,445.82434,243.863,450.78479,238.28149,460.36084Z"/><path class="cls-3" d="M265.2771,448.45422c5.01556,2.92334,12.45581-.18774,18.01092-7.0039l15.16315,10.18249a4.17314,4.17314,0,1,0,4.65332-6.92871l-15.43475-10.36493c3.89764-8.67816,3.129-17.46838-2.1803-20.56292-5.93109-3.457-15.26392,1.50347-20.8454,11.07952S259.346,444.99719,265.2771,448.45422Z"/><path class="cls-3" d="M276.72217,560.47607l-15.43439-10.36486c3.89764-8.67823,3.12891-17.46833-2.18036-20.56287-5.93109-3.457-15.26391,1.50348-20.8454,11.07953s-5.298,20.14148.63306,23.59845c5.0155,2.92334,12.45587-.18775,18.01105-7.004l15.16272,10.18244a4.17314,4.17314,0,0,0,4.65332-6.92872Z"/><path class="cls-3" d="M298.43213,531.89941a4.17287,4.17287,0,1,0,4.65234-6.92871l-15.4342-10.36425c3.89783-8.67829,3.12915-17.46857-2.18024-20.56318-5.93115-3.457-15.26391,1.50348-20.8454,11.07953s-5.298,20.14142.63306,23.59845c5.01556,2.92334,12.45606-.18786,18.01117-7.00415Z"/><path class="cls-3" d="M292.33545,468.81342c-5.58148,9.57605-5.2981,20.14141.63306,23.59838,5.0155,2.92341,12.45587-.18768,18.011-7.004l15.16309,10.18249a4.17314,4.17314,0,0,0,4.65332-6.92871l-15.43475-10.36493c3.89764-8.67816,3.129-17.46826-2.18036-20.5628C307.24969,454.27692,297.91687,459.23737,292.33545,468.81342Z"/><path class="cls-3" d="M319.33105,456.9068c5.01563,2.92334,12.45606-.18793,18.01111-7.00415L352.50537,460.085a4.17287,4.17287,0,1,0,4.65234-6.92871l-15.43414-10.3642c3.89789-8.67828,3.12921-17.46862-2.18017-20.56323-5.9311-3.457-15.26392,1.50348-20.8454,11.07953S313.4,453.44977,319.33105,456.9068Z"/><path class="cls-3" d="M330.77637,568.92871l-15.4347-10.36487c3.89765-8.67816,3.129-17.46838-2.18029-20.56292-5.93116-3.457-15.26392,1.50347-20.8454,11.07952s-5.298,20.14142.63306,23.59845c5.0155,2.92334,12.45581-.1878,18.01092-7.004l15.16309,10.18249a4.17314,4.17314,0,0,0,4.65332-6.92871Z"/><path class="cls-3" d="M352.48535,540.35205a4.173,4.173,0,1,0,4.65283-6.92871l-15.434-10.36432c3.89783-8.67828,3.12915-17.46857-2.18023-20.56317-5.9311-3.457-15.26386,1.50348-20.84534,11.07953s-5.298,20.14142.63306,23.59845c5.01556,2.92334,12.45593-.18787,18.011-7.00409Z"/><path class="cls-3" d="M346.38934,477.266c-5.58142,9.57605-5.298,20.14142.63312,23.59839,5.0155,2.92334,12.45575-.18774,18.01087-7.00385l15.163,10.18244a4.17314,4.17314,0,0,0,4.65332-6.92871L369.415,486.74945c3.89777-8.67822,3.129-17.46844-2.1803-20.563C361.30365,462.72949,351.97083,467.68994,346.38934,477.266Z"/><path class="cls-3" d="M373.385,465.35931c5.01556,2.9234,12.45605-.1878,18.01117-7.00415l15.16339,10.18244a4.17287,4.17287,0,1,0,4.65234-6.92871l-15.43432-10.36432c3.89783-8.67829,3.12915-17.46857-2.18024-20.56317-5.93109-3.457-15.26391,1.50348-20.8454,11.07953S367.45392,461.90234,373.385,465.35931Z"/><path class="cls-3" d="M384.83008,577.38135l-15.43445-10.36493c3.89764-8.67816,3.129-17.46839-2.1803-20.56293-5.93115-3.457-15.26391,1.50348-20.8454,11.07953s-5.298,20.14142.63306,23.59845c5.0155,2.92334,12.45581-.18781,18.01093-7.00391l15.16284,10.1825a4.17314,4.17314,0,0,0,4.65332-6.92871Z"/><path class="cls-3" d="M406.54,548.80469a4.17287,4.17287,0,1,0,4.65234-6.92871l-15.43432-10.36432c3.89788-8.67829,3.12927-17.46863-2.18018-20.56323-5.93109-3.457-15.26385,1.50347-20.84534,11.07952s-5.298,20.14142.63306,23.59839c5.01556,2.9234,12.456-.18786,18.01105-7.00409Z"/><path class="cls-3" d="M400.4433,485.71857c-5.58142,9.57605-5.298,20.14142.633,23.59839,5.01557,2.92334,12.45594-.18775,18.011-7.00391l15.16315,10.18256a4.17314,4.17314,0,0,0,4.65332-6.92872L423.46906,495.202c3.89764-8.67817,3.129-17.46839-2.18036-20.56293C415.3576,471.182,406.02478,476.14252,400.4433,485.71857Z"/><path class="cls-3" d="M427.439,473.81189c5.01551,2.9234,12.45588-.18768,18.01105-7.004l15.16327,10.18231a4.17287,4.17287,0,1,0,4.65234-6.92871l-15.43414-10.36425c3.89795-8.67829,3.12921-17.46869-2.18017-20.5633-5.9311-3.457-15.26392,1.50348-20.8454,11.07953S421.50787,470.35492,427.439,473.81189Z"/><path class="cls-3" d="M438.88379,585.8335l-15.43427-10.36432c3.89783-8.67823,3.12915-17.46851-2.18023-20.56311-5.93116-3.457-15.26392,1.50348-20.8454,11.07953s-5.298,20.14141.63306,23.59838c5.01556,2.92341,12.45605-.1878,18.01117-7.00415l15.16333,10.18238a4.17287,4.17287,0,0,0,4.65234-6.92871Z"/><path class="cls-3" d="M465.24658,550.32861l-15.43432-10.36486c3.89764-8.67811,3.1289-17.46821-2.18042-20.56275-5.9311-3.457-15.26386,1.50348-20.84534,11.07953s-5.2981,20.14142.63306,23.59839c5.01556,2.9234,12.45581-.18781,18.011-7.004l15.16272,10.18243a4.17314,4.17314,0,1,0,4.65332-6.92871Z"/><path class="cls-3" d="M492.957,514.019l-15.43414-10.36425c3.89789-8.67829,3.12915-17.46857-2.18024-20.56318-5.93109-3.457-15.26391,1.50348-20.8454,11.07953s-5.298,20.14142.63306,23.59839c5.01563,2.92334,12.456-.18786,18.01111-7.00409l15.16327,10.18231A4.17287,4.17287,0,0,0,492.957,514.019Z"/><path class="cls-3" d="M519.32031,478.51416l-15.43463-10.36487c3.89765-8.6781,3.12885-17.4682-2.18042-20.5628-5.93115-3.457-15.26391,1.50354-20.8454,11.07959s-5.298,20.14142.63306,23.59839c5.01556,2.9234,12.45587-.18781,18.011-7.004l15.163,10.18243a4.17314,4.17314,0,1,0,4.65332-6.92871Z"/><path class="cls-5" d="M474.13916,676.76221a30.60341,30.60341,0,0,1-4.58887-.34717L93.14551,619.29492a29.86906,29.86906,0,0,1-25.53565-29.70263V547.7832a29.85391,29.85391,0,0,1,8.7295-21.17382L237.11133,364.773a18.92731,18.92731,0,0,0,5.5332-13.42139V285.832a29.97581,29.97581,0,0,1,15.98633-26.55176l60.37646-31.96386a30.155,30.155,0,0,1,14.05664-3.4917H598.01367a30.07719,30.07719,0,0,1,30.043,30.04345V503.12988a31.14439,31.14439,0,0,1-7.102,19.82373l-.07959.09375L496.919,666.20361A29.78268,29.78268,0,0,1,474.13916,676.76221ZM333.064,234.82471a19.112,19.112,0,0,0-8.91015,2.21338L263.77734,269.002A19.001,19.001,0,0,0,253.64453,285.832v65.51953A29.85535,29.85535,0,0,1,244.915,372.5249L84.14307,534.3623a18.92161,18.92161,0,0,0-5.53321,13.4209v41.80909a18.93234,18.93234,0,0,0,16.186,18.82714l376.40478,57.12012a18.91977,18.91977,0,0,0,17.36914-6.49707L612.51758,515.895a20.12306,20.12306,0,0,0,4.53906-12.76514V253.86816a19.06475,19.06475,0,0,0-19.043-19.04345Z"/><path class="cls-4" d="M562.27994,30.99859c-66.70736-6.372-133.97049-5.99243-201.69572,0,13.37132,69.44335,4.78612,145.68026-20.86507,227.19747l197.059,8.11419C557.99736,174.29948,563.74277,98.80265,562.27994,30.99859Z"/><path class="cls-6" d="M536.7793,268.39648c-.02881,0-.05762-.00048-.08692-.00146L339.6333,260.28125a2.0867,2.0867,0,0,1-1.9043-2.71143C364.22168,173.377,371.22168,97.28027,358.53516,31.39307a2.08657,2.08657,0,0,1,1.86474-2.47315c69.60645-6.1582,137.59668-6.1582,202.07813.00147a2.08657,2.08657,0,0,1,1.88769,2.03222c1.68262,77.99512-6.437,152.93018-25.5542,235.8252A2.08643,2.08643,0,0,1,536.7793,268.39648ZM342.522,256.22363l192.61084,7.93018c18.60742-81.21826,26.59571-154.81152,25.09912-231.25293-62.96923-5.894-129.28271-5.90137-197.16992-.0249C375.16357,98.24268,368.25732,173.35254,342.522,256.22363Z"/><path class="cls-2" d="M405.07473,116.15285c.06051.00307.11961.00344.17869.00245a2.59955,2.59955,0,0,0,1.74451-.68672,2.54708,2.54708,0,0,0,.84142-1.8013,2.61214,2.61214,0,0,0-2.53993-2.76575l-.96123-.04167q.57741-11.23538.842-17.45162.22566-5.27478.64225-16.1943l.91158.03843a2.58129,2.58129,0,0,0,1.9232-.68428,2.617,2.617,0,0,0,.84454-1.85841,2.55624,2.55624,0,0,0-.686-1.86339,2.61185,2.61185,0,0,0-1.85706-.84525l-3.3826-.14452q-1.54878-.12084-3.53781-.2051a2.53368,2.53368,0,0,0-1.86814.68607,2.61242,2.61242,0,0,0-.84393,1.855,2.61106,2.61106,0,0,0,2.488,2.70956q.40992.0176.75736.03693-.418,10.95861-.64344,16.24526-.26378,6.16393-.842,17.45162l-.70968-.02957a2.61264,2.61264,0,0,0-2.71026,2.4867,2.60874,2.60874,0,0,0,.68358,1.92185,2.5463,2.5463,0,0,0,1.80268.84276Z"/><path class="cls-2" d="M427.164,117.03959l4.13172.17684.06923-.00388c.224-.01053.72045-.0168,1.84071.02969l6.81277.291c.05507.00247.10943.0036.16376.00269a2.53443,2.53443,0,0,0,1.70372-.68808,2.61073,2.61073,0,0,0,.84459-1.85569,2.61153,2.61153,0,0,0-2.4867-2.71026l-6.81346-.29095c-1.259-.05368-1.78052-.04564-2.05134-.033l-1.83541-.078c.54484-12.67528,1.12252-24.92993,1.71981-36.45875a2.64982,2.64982,0,0,0-.65194-1.85853,2.50458,2.50458,0,0,0-1.83363-.90609,2.57606,2.57606,0,0,0-1.92252.68426,2.60563,2.60563,0,0,0-.84275,1.84344c-.62579,12.0999-1.2433,25.26344-1.83551,39.12759a2.654,2.654,0,0,0,.65187,1.85378,2.56591,2.56591,0,0,0,1.89416.91119A1.99281,1.99281,0,0,0,427.164,117.03959Z"/><path class="cls-2" d="M444.47832,110.1126c1.7601,5.48782,5.65,8.38588,11.29073,8.37921a9.94243,9.94243,0,0,0,2.9469-.4813,9.16781,9.16781,0,0,0,3.54627-2.49863l.00934-.01035c2.44576-2.78592,4.07849-7.51735,5.003-14.588l.01215-.32966c.6358-7.88435.33854-14.04468-.88491-18.31331-1.651-5.70973-4.99071-8.69036-9.91433-8.858a9.98919,9.98919,0,0,0-4.149.70247A10.96346,10.96346,0,0,0,447.836,77.44c-3.063,3.65284-4.60546,9.31543-4.71517,17.34043.02735,3.66775.08151,6.33851.16215,7.95253A31.68574,31.68574,0,0,0,444.47832,110.1126Zm17.51178-9.09033c-.79675,5.4083-2.03284,9.11958-3.65132,11.00587a3.89135,3.89135,0,0,1-1.41824,1.02364,4.78317,4.78317,0,0,1-1.19186.18091,6.4998,6.4998,0,0,1-3.97464-1.10194,7.36718,7.36718,0,0,1-2.28194-3.58658,25.76959,25.76959,0,0,1-.985-6.09516c-.10418-1.76239-.14052-4.34243-.10708-7.66475a34.98585,34.98585,0,0,1,1.18327-9.26841,12.33584,12.33584,0,0,1,2.319-4.72116A5.75231,5.75231,0,0,1,454.316,78.996a4.41894,4.41894,0,0,1,1.67161-.33363c.11341-.0019.22892-.00043.34653.00508,1.54551.04752,3.74516.62144,5.00187,5.05118,1.13044,3.82524,1.34577,9.47271.64133,16.78624l-.00548.07889A2.58133,2.58133,0,0,0,461.9901,101.02227Z"/><path class="cls-2" d="M482.49623,119.15212a2.412,2.412,0,0,0,1.52361-1.62794c2.96025-9.4754,5.47138-17.90058,7.46391-25.04273l.04415-.16309a1.79779,1.79779,0,0,0,.04827-.20052c1.43729-5.1663,2.71213-9.64855,3.79817-13.35529a2.75729,2.75729,0,0,0-.18365-1.92409,2.46108,2.46108,0,0,0-1.59174-1.34965,2.50082,2.50082,0,0,0-3.23462,1.79919c-.51278,1.67149-1.8051,6.16354-3.84032,13.35328l-.11306.38841c-1.26436,4.58057-2.7184,9.59839-4.33771,14.97016q-.30741-1.68834-.6224-3.50427a2.37039,2.37039,0,0,0-.09436-.52488c-.03031-.10614-.0618-.20207-.09449-.28848-.19111-1.02933-1.118-6.33273-4.31176-24.92467a2.48781,2.48781,0,0,0-3.04642-2.05829,2.59644,2.59644,0,0,0-1.66935,1.03734,2.50566,2.50566,0,0,0-.451,1.95509c2.70443,15.77492,4.12074,23.9816,4.32875,25.08742l.11288.37308-.00107.017.02843.15644c.208,1.14725,1.07434,5.79207,2.61065,13.98519a2.48175,2.48175,0,0,0,2.51412,2.11542,3.17483,3.17483,0,0,0,.54993-.05878Z"/><path class="cls-2" d="M511.26531,81.3695q3.12438.07819,6.79145.23426a2.6052,2.6052,0,0,0,1.92185-.68357,2.54834,2.54834,0,0,0,.84142-1.8013,2.61223,2.61223,0,0,0-2.53994-2.76643c-2.46353-.10486-4.74254-.18428-6.81592-.23521l-5.96509-.25487a1.53073,1.53073,0,0,0-.40538-.072,2.61065,2.61065,0,0,0-2.766,2.527c-.62319,12.05163-1.24069,25.21585-1.83417,39.12622a2.54843,2.54843,0,0,0,1.74533,2.614l.19292.081.2148.00863a2.84868,2.84868,0,0,0,.44195.06462l4.45052.18985c.53024.02306,1.19407.03234,1.92558.0269l6.81345.291c.05983.00308.11894.00345.178.00246a2.594,2.594,0,0,0,1.74317-.68534,2.54567,2.54567,0,0,0,.84208-1.80267,2.6113,2.6113,0,0,0-2.53926-2.76576c-2.46353-.10554-4.74321-.18427-6.81525-.2359l-3.83057-.16353.37144-8.70392,10.75277.4581a2.46464,2.46464,0,0,0,1.90246-.74643,2.64141,2.64141,0,0,0,.80893-1.79463,2.61228,2.61228,0,0,0-2.48738-2.71025l-10.7453-.45823c.5001-10.39412.83014-17.06354.985-19.90695Z"/><path class="cls-2" d="M423.17875,138.21445a2.48908,2.48908,0,0,0-3.40176,1.5126c-.64035,1.67973-1.98157,4.954-3.98578,9.73166a2.22948,2.22948,0,0,0-.17756.39085l-.11508.26753c-1.09365,2.56089-1.97494,4.61894-2.65307,6.192-.80007-2.02315-1.26586-3.18919-1.38959-3.47922-2.19-5.72926-3.84777-10.37578-4.91679-13.77749a2.44824,2.44824,0,0,0-3.22192-1.78907,2.53812,2.53812,0,0,0-1.59307,1.29284,2.48079,2.48079,0,0,0-.19645,1.94268c.99906,3.4022,2.698,8.1968,5.04834,14.2508q1.04466,2.697,2.60051,6.471.71025,1.70912.86444,2.054l.11714.26161c-.09863,2.3493-.15922,4.21023-.18232,5.55087l-.42653,10.00026a2.5433,2.5433,0,0,0,.68468,1.86613,2.91526,2.91526,0,0,0,1.8546.901c.05371.0025.1067.003.15967.00208a2.4979,2.4979,0,0,0,1.74883-.75268,2.64838,2.64838,0,0,0,.80422-1.79185l.428-10.03493q.03533-2.03135.17627-5.42509l.07111-.33812q.10735-.22188.25307-.54631l.06051-.15929c.04852-.1455.19374-.47942.42821-1.001.30522-.6776.52454-1.2118.62091-1.50143q1.44952-3.31746,3.44573-8.06583a3.66166,3.66166,0,0,0,.2895-.60262c2.27691-5.45,3.66661-8.831,4.111-9.99937a2.51009,2.51009,0,0,0-.01293-1.99284A2.56749,2.56749,0,0,0,423.17875,138.21445Z"/><path class="cls-2" d="M506.57465,142.03524a2.51745,2.51745,0,0,0-1.99405-.7499,2.60838,2.60838,0,0,0-1.77383.8421,2.55772,2.55772,0,0,0-.68787,1.92508c.3245,8.60194.46768,14.76959.42551,18.30128a58.61953,58.61953,0,0,1-1.475,11.84918,8.63583,8.63583,0,0,1-2.02048,4.04842,6.983,6.983,0,0,1-5.58817,1.85279,5.5067,5.5067,0,0,1-4.18882-2.08945,10.28107,10.28107,0,0,1-1.96148-4.40913c-.62747-3.4417-.575-8.75264.154-15.77856q.36433-3.37879.68892-5.88539l.00178-.015c.45877-3.84569.78574-6.75787.97307-8.67662a2.46226,2.46226,0,0,0-.61519-2.05749,2.78732,2.78732,0,0,0-1.64914-.88269l-.15037-.01447a2.55438,2.55438,0,0,0-2.81487,2.40558c-.1933,1.96843-.51938,4.85206-.96812,8.56649-.22479,1.83174-.45877,3.84569-.70035,6.05473-.78089,7.69793-.79392,13.33835-.048,17.19991a14.5209,14.5209,0,0,0,3.02221,6.90887,10.858,10.858,0,0,0,7.93928,3.92132q.58845.03091,1.15584.02143a11.58973,11.58973,0,0,0,8.45949-3.4822,13.54936,13.54936,0,0,0,3.4156-6.45472A63.67025,63.67025,0,0,0,507.8,162.47041c.04449-3.637-.09634-9.90729-.42164-18.679A2.73122,2.73122,0,0,0,506.57465,142.03524Z"/><path class="cls-2" d="M468.78261,147.23326c-4.30647-2.097-9.91576-1.02029-15.54949,2.94249a11.78948,11.78948,0,0,0-11.53624-4.65732,15.34449,15.34449,0,0,0-8.40519,4.12934,10.84866,10.84866,0,0,0-3.31365,10.80594c2.35307,9.99523,16.98752,19.85036,21.20458,21.15l.83373.25778.80556-.33c15.66426-6.39863,21.49934-16.43972,21.7359-23.70332C474.71537,153.03105,472.55624,149.07016,468.78261,147.23326Zm-25.21538,3.013c3.04307-.05087,5.27857,1.44832,6.83358,4.5831l1.373,2.77031,2.37084-1.98514c4.84144-4.05754,9.401-5.51545,12.50684-4.00431,1.9964.972,3.13336,3.23677,3.04128,6.05875-.183,5.58891-4.97077,13.46932-17.81517,18.97984-4.11824-1.93033-15.49175-10.22257-17.16108-17.311a5.99035,5.99035,0,0,1,1.93412-6.16638,10.45067,10.45067,0,0,1,5.70769-2.83027A10.08012,10.08012,0,0,1,443.56723,150.24631Z"/><path class="cls-7" d="M306.103,258.19629a3.47777,3.47777,0,0,1-3.47754-3.47754V217.05762a4.56279,4.56279,0,0,0-5.20947-4.51709l-92.48536,13.23779a11.48349,11.48349,0,0,1-12.96435-9.34424l-4.29883-23.67724a3.4773,3.4773,0,1,1,6.84277-1.24219l4.29883,23.67724a4.54621,4.54621,0,0,0,5.13623,3.70166l92.48535-13.23779a11.51777,11.51777,0,0,1,13.14991,11.40186v37.66113A3.47777,3.47777,0,0,1,306.103,258.19629Z"/><path class="cls-8" d="M194.76384,214.956q-.12.01383-.24066.02689a11.81771,11.81771,0,0,1-12.80542-9.89242L177.288,178.51207a11.78667,11.78667,0,0,1,9.33974-13.60706q.17828-.032.35706-.06167a11.80451,11.80451,0,0,1,13.42507,9.82057l4.427,26.56205A11.79235,11.79235,0,0,1,194.76384,214.956Z"/></svg>